<?xml version="1.0" encoding="utf-8" standalone="no"?>
<!DOCTYPE svg PUBLIC "-//W3C//DTD SVG 1.1//EN"
  "http://www.w3.org/Graphics/SVG/1.1/DTD/svg11.dtd">
<svg xmlns:xlink="http://www.w3.org/1999/xlink" width="980.748pt" height="700.466504pt" viewBox="0 0 980.748 700.466504" xmlns="http://www.w3.org/2000/svg" version="1.1">
 <metadata>
  <rdf:RDF xmlns:dc="http://purl.org/dc/elements/1.1/" xmlns:cc="http://creativecommons.org/ns#" xmlns:rdf="http://www.w3.org/1999/02/22-rdf-syntax-ns#">
   <cc:Work>
    <dc:type rdf:resource="http://purl.org/dc/dcmitype/StillImage"/>
    <dc:date>2025-01-26T19:16:14.312079</dc:date>
    <dc:format>image/svg+xml</dc:format>
    <dc:creator>
     <cc:Agent>
      <dc:title>Matplotlib v3.10.0, https://matplotlib.org/</dc:title>
     </cc:Agent>
    </dc:creator>
   </cc:Work>
  </rdf:RDF>
 </metadata>
 <defs>
  <style type="text/css">*{stroke-linejoin: round; stroke-linecap: butt}</style>
 </defs>
 <g id="figure_1">
  <g id="patch_1">
   <path d="M 0 700.466504 
L 980.748 700.466504 
L 980.748 0 
L 0 0 
z
" style="fill: #ffffff"/>
  </g>
  <g id="axes_1">
   <g id="patch_2">
    <path d="M 80.748 622.6035 
L 973.548 622.6035 
L 973.548 35.0835 
L 80.748 35.0835 
z
" style="fill: #ffffff"/>
   </g>
   <g id="FillBetweenPolyCollection_1">
    <defs>
     <path id="mec62a89bca" d="M 121.329818 -322.557375 
L 121.329818 -274.024414 
L 127.455376 -104.568459 
L 130.518154 -283.232944 
L 133.580933 -297.685679 
L 136.643712 -332.202368 
L 139.706491 -263.984365 
L 142.769269 -296.049157 
L 145.832048 -295.025259 
L 148.894827 -298.264069 
L 151.957605 -339.244676 
L 155.020384 -293.922743 
L 158.083163 -261.946889 
L 161.145942 -332.939051 
L 164.20872 -321.364063 
L 167.271499 -284.575134 
L 170.334278 -307.389811 
L 173.397057 -319.868934 
L 176.459835 -340.246683 
L 179.522614 -359.934434 
L 182.585393 -347.674489 
L 185.648172 -345.597787 
L 188.71095 -326.629624 
L 191.773729 -304.968655 
L 194.836508 -302.913387 
L 197.899286 -313.051145 
L 200.962065 -310.151123 
L 204.024844 -332.940578 
L 207.087623 -374.593198 
L 210.150401 -334.365684 
L 213.21318 -314.174743 
L 216.275959 -343.648957 
L 219.338738 -362.490914 
L 222.401516 -359.121078 
L 225.464295 -385.150219 
L 228.527074 -407.084652 
L 231.589852 -388.347072 
L 234.652631 -360.130296 
L 237.71541 -380.967321 
L 240.778189 -389.033844 
L 243.840967 -405.844899 
L 246.903746 -380.036448 
L 249.966525 -356.542391 
L 253.029304 -354.347926 
L 256.092082 -399.521508 
L 259.154861 -347.516987 
L 262.21764 -336.944371 
L 265.280419 -393.159743 
L 268.343197 -412.499894 
L 271.405976 -429.707963 
L 274.468755 -390.04775 
L 277.531533 -408.631864 
L 280.594312 -380.864289 
L 283.657091 -421.224137 
L 286.71987 -444.811886 
L 289.782648 -451.614103 
L 292.845427 -434.160863 
L 295.908206 -427.2855 
L 298.970985 -459.689862 
L 302.033763 -433.350036 
L 305.096542 -423.079887 
L 308.159321 -428.318696 
L 311.222099 -431.840045 
L 314.284878 -374.593198 
L 317.347657 -399.864329 
L 320.410436 -458.14265 
L 323.473214 -433.80399 
L 326.535993 -446.582301 
L 329.598772 -387.0931 
L 332.661551 -398.574985 
L 335.724329 -405.021702 
L 338.787108 -399.502471 
L 341.849887 -421.225219 
L 344.912666 -444.217741 
L 347.975444 -412.736284 
L 351.038223 -418.946611 
L 354.101002 -428.205249 
L 357.16378 -437.551195 
L 360.226559 -424.87759 
L 363.289338 -431.840045 
L 366.352117 -456.106525 
L 372.477674 -396.254167 
L 375.540453 -384.401963 
L 378.603232 -417.298877 
L 381.66601 -407.084652 
L 396.979904 -403.990228 
L 400.042683 -399.348591 
L 403.105461 -334.838268 
L 406.16824 -397.285642 
L 409.231019 -357.573865 
L 421.482134 -356.026653 
L 424.544913 -349.837805 
L 427.607691 -390.065319 
L 449.047142 -353.87492 
L 452.109921 -349.064199 
L 455.1727 -347.774856 
L 458.235479 -346.863021 
L 461.298257 -403.216622 
L 464.361036 -345.196169 
L 467.423815 -339.007321 
L 470.486593 -349.837805 
L 473.549372 -311.157503 
L 476.612151 -323.600064 
L 479.67493 -291.043746 
L 482.737708 -292.075221 
L 494.988823 -310.383897 
L 498.051602 -311.673241 
L 501.114381 -310.641766 
L 504.17716 -354.66179 
L 507.239938 -291.043746 
L 522.553832 -328.176836 
L 556.244398 -352.932229 
L 571.558292 -304.968655 
L 574.62107 -304.968655 
L 580.746628 -291.043746 
L 589.934964 -311.157503 
L 629.751087 -274.024414 
L 730.822786 -539.113415 
L 733.885564 -512.90563 
L 736.948343 -564.282881 
L 740.011122 -540.14489 
L 743.073901 -546.333738 
L 749.199458 -444.217741 
L 752.262237 -506.106224 
L 880.898943 -583.466828 
L 932.966182 -607.733308 
L 932.966182 -638.67755 
L 932.966182 -638.67755 
L 880.898943 -631.999789 
L 752.262237 -554.639185 
L 749.199458 -492.750703 
L 743.073901 -594.866699 
L 740.011122 -588.677851 
L 736.948343 -601.67295 
L 733.885564 -598.897778 
L 730.822786 -587.646376 
L 629.751087 -322.557375 
L 589.934964 -359.690465 
L 580.746628 -339.576708 
L 574.62107 -353.501616 
L 571.558292 -353.501616 
L 556.244398 -401.465191 
L 522.553832 -376.709797 
L 507.239938 -339.576708 
L 504.17716 -392.773175 
L 501.114381 -359.174727 
L 498.051602 -360.206202 
L 494.988823 -358.916859 
L 482.737708 -340.608182 
L 479.67493 -339.576708 
L 476.612151 -435.438992 
L 473.549372 -359.690465 
L 470.486593 -398.370766 
L 467.423815 -387.540282 
L 464.361036 -393.72913 
L 461.298257 -451.749583 
L 458.235479 -385.099824 
L 455.1727 -396.307817 
L 452.109921 -397.59716 
L 449.047142 -385.050379 
L 427.607691 -438.59828 
L 424.544913 -398.370766 
L 421.482134 -404.559615 
L 409.231019 -406.106827 
L 406.16824 -445.818603 
L 403.105461 -409.502273 
L 400.042683 -447.881553 
L 396.979904 -452.523189 
L 381.66601 -455.617613 
L 378.603232 -469.643043 
L 375.540453 -445.499406 
L 372.477674 -444.787128 
L 366.352117 -483.956343 
L 363.289338 -480.373006 
L 360.226559 -473.410552 
L 357.16378 -484.976603 
L 354.101002 -451.516349 
L 351.038223 -467.479572 
L 347.975444 -462.343677 
L 344.912666 -492.750703 
L 341.849887 -485.830458 
L 338.787108 -475.57749 
L 335.724329 -453.554664 
L 332.661551 -447.107947 
L 329.598772 -499.590952 
L 326.535993 -500.553536 
L 323.473214 -480.265715 
L 320.410436 -506.675611 
L 317.347657 -448.39729 
L 314.284878 -423.12616 
L 311.222099 -480.373006 
L 308.159321 -466.875022 
L 305.096542 -450.452862 
L 302.033763 -462.153125 
L 298.970985 -508.222823 
L 295.908206 -501.018556 
L 292.845427 -482.693824 
L 289.782648 -524.55038 
L 286.71987 -500.113648 
L 283.657091 -473.453844 
L 280.594312 -459.403401 
L 277.531533 -457.164825 
L 274.468755 -420.049305 
L 271.405976 -442.277574 
L 268.343197 -461.032855 
L 265.280419 -441.692704 
L 262.21764 -385.477332 
L 259.154861 -396.049948 
L 256.092082 -423.726849 
L 253.029304 -389.992616 
L 249.966525 -405.075352 
L 246.903746 -436.249454 
L 243.840967 -445.253275 
L 240.778189 -437.566806 
L 237.71541 -450.171818 
L 234.652631 -425.211365 
L 231.589852 -420.976377 
L 228.527074 -455.617613 
L 225.464295 -410.712485 
L 222.401516 -407.654039 
L 219.338738 -401.189778 
L 216.275959 -392.181918 
L 213.21318 -375.858655 
L 210.150401 -382.898646 
L 207.087623 -423.12616 
L 204.024844 -405.984721 
L 200.962065 -386.99945 
L 197.899286 -366.30649 
L 194.836508 -381.085884 
L 191.773729 -353.501616 
L 188.71095 -375.162585 
L 185.648172 -360.836059 
L 182.585393 -357.212145 
L 179.522614 -365.065956 
L 176.459835 -370.209914 
L 173.397057 -380.891801 
L 170.334278 -361.137339 
L 167.271499 -334.44123 
L 164.20872 -371.144875 
L 161.145942 -349.513007 
L 158.083163 -300.596234 
L 155.020384 -347.218753 
L 151.957605 -374.409493 
L 148.894827 -346.797031 
L 145.832048 -337.142407 
L 142.769269 -330.445398 
L 139.706491 -289.275486 
L 136.643712 -341.740024 
L 133.580933 -308.179382 
L 130.518154 -327.052723 
L 127.455376 -249.101035 
L 121.329818 -322.557375 
z
" style="stroke: #ff0000; stroke-opacity: 0.2"/>
    </defs>
    <g clip-path="url(#pa4b6edf4ac)">
     <use xlink:href="#mec62a89bca" x="0" y="700.466504" style="fill: #ff0000; fill-opacity: 0.2; stroke: #ff0000; stroke-opacity: 0.2"/>
    </g>
   </g>
   <g id="matplotlib.axis_1">
    <g id="xtick_1">
     <g id="line2d_1">
      <path d="M 124.392597 622.6035 
L 124.392597 35.0835 
" clip-path="url(#pa4b6edf4ac)" style="fill: none; stroke: #a5a391; stroke-opacity: 0.3; stroke-width: 0.8; stroke-linecap: square"/>
     </g>
     <g id="line2d_2">
      <defs>
       <path id="mc47104d3a4" d="M 0 0 
L 0 -3.5 
" style="stroke: #000000; stroke-width: 0.8"/>
      </defs>
      <g>
       <use xlink:href="#mc47104d3a4" x="124.392597" y="622.6035" style="stroke: #000000; stroke-width: 0.8"/>
      </g>
     </g>
     <g id="text_1">
      <!-- Jan 01, 20 -->
      <g transform="translate(35.017549 689.66438) rotate(-30) scale(0.2 -0.2)">
       <defs>
        <path id="DejaVuSans-4a" d="M 628 4666 
L 1259 4666 
L 1259 325 
Q 1259 -519 939 -900 
Q 619 -1281 -91 -1281 
L -331 -1281 
L -331 -750 
L -134 -750 
Q 284 -750 456 -515 
Q 628 -281 628 325 
L 628 4666 
z
" transform="scale(0.015625)"/>
        <path id="DejaVuSans-61" d="M 2194 1759 
Q 1497 1759 1228 1600 
Q 959 1441 959 1056 
Q 959 750 1161 570 
Q 1363 391 1709 391 
Q 2188 391 2477 730 
Q 2766 1069 2766 1631 
L 2766 1759 
L 2194 1759 
z
M 3341 1997 
L 3341 0 
L 2766 0 
L 2766 531 
Q 2569 213 2275 61 
Q 1981 -91 1556 -91 
Q 1019 -91 701 211 
Q 384 513 384 1019 
Q 384 1609 779 1909 
Q 1175 2209 1959 2209 
L 2766 2209 
L 2766 2266 
Q 2766 2663 2505 2880 
Q 2244 3097 1772 3097 
Q 1472 3097 1187 3025 
Q 903 2953 641 2809 
L 641 3341 
Q 956 3463 1253 3523 
Q 1550 3584 1831 3584 
Q 2591 3584 2966 3190 
Q 3341 2797 3341 1997 
z
" transform="scale(0.015625)"/>
        <path id="DejaVuSans-6e" d="M 3513 2113 
L 3513 0 
L 2938 0 
L 2938 2094 
Q 2938 2591 2744 2837 
Q 2550 3084 2163 3084 
Q 1697 3084 1428 2787 
Q 1159 2491 1159 1978 
L 1159 0 
L 581 0 
L 581 3500 
L 1159 3500 
L 1159 2956 
Q 1366 3272 1645 3428 
Q 1925 3584 2291 3584 
Q 2894 3584 3203 3211 
Q 3513 2838 3513 2113 
z
" transform="scale(0.015625)"/>
        <path id="DejaVuSans-20" transform="scale(0.015625)"/>
        <path id="DejaVuSans-30" d="M 2034 4250 
Q 1547 4250 1301 3770 
Q 1056 3291 1056 2328 
Q 1056 1369 1301 889 
Q 1547 409 2034 409 
Q 2525 409 2770 889 
Q 3016 1369 3016 2328 
Q 3016 3291 2770 3770 
Q 2525 4250 2034 4250 
z
M 2034 4750 
Q 2819 4750 3233 4129 
Q 3647 3509 3647 2328 
Q 3647 1150 3233 529 
Q 2819 -91 2034 -91 
Q 1250 -91 836 529 
Q 422 1150 422 2328 
Q 422 3509 836 4129 
Q 1250 4750 2034 4750 
z
" transform="scale(0.015625)"/>
        <path id="DejaVuSans-31" d="M 794 531 
L 1825 531 
L 1825 4091 
L 703 3866 
L 703 4441 
L 1819 4666 
L 2450 4666 
L 2450 531 
L 3481 531 
L 3481 0 
L 794 0 
L 794 531 
z
" transform="scale(0.015625)"/>
        <path id="DejaVuSans-2c" d="M 750 794 
L 1409 794 
L 1409 256 
L 897 -744 
L 494 -744 
L 750 256 
L 750 794 
z
" transform="scale(0.015625)"/>
        <path id="DejaVuSans-32" d="M 1228 531 
L 3431 531 
L 3431 0 
L 469 0 
L 469 531 
Q 828 903 1448 1529 
Q 2069 2156 2228 2338 
Q 2531 2678 2651 2914 
Q 2772 3150 2772 3378 
Q 2772 3750 2511 3984 
Q 2250 4219 1831 4219 
Q 1534 4219 1204 4116 
Q 875 4013 500 3803 
L 500 4441 
Q 881 4594 1212 4672 
Q 1544 4750 1819 4750 
Q 2544 4750 2975 4387 
Q 3406 4025 3406 3419 
Q 3406 3131 3298 2873 
Q 3191 2616 2906 2266 
Q 2828 2175 2409 1742 
Q 1991 1309 1228 531 
z
" transform="scale(0.015625)"/>
       </defs>
       <use xlink:href="#DejaVuSans-4a"/>
       <use xlink:href="#DejaVuSans-61" transform="translate(29.492188 0)"/>
       <use xlink:href="#DejaVuSans-6e" transform="translate(90.771484 0)"/>
       <use xlink:href="#DejaVuSans-20" transform="translate(154.150391 0)"/>
       <use xlink:href="#DejaVuSans-30" transform="translate(185.9375 0)"/>
       <use xlink:href="#DejaVuSans-31" transform="translate(249.560547 0)"/>
       <use xlink:href="#DejaVuSans-2c" transform="translate(313.183594 0)"/>
       <use xlink:href="#DejaVuSans-20" transform="translate(344.970703 0)"/>
       <use xlink:href="#DejaVuSans-32" transform="translate(376.757812 0)"/>
       <use xlink:href="#DejaVuSans-30" transform="translate(440.380859 0)"/>
      </g>
     </g>
    </g>
    <g id="xtick_2">
     <g id="line2d_3">
      <path d="M 284.532171 622.6035 
L 284.532171 35.0835 
" clip-path="url(#pa4b6edf4ac)" style="fill: none; stroke: #a5a391; stroke-opacity: 0.3; stroke-width: 0.8; stroke-linecap: square"/>
     </g>
     <g id="line2d_4">
      <g>
       <use xlink:href="#mc47104d3a4" x="284.532171" y="622.6035" style="stroke: #000000; stroke-width: 0.8"/>
      </g>
     </g>
     <g id="text_2">
      <!-- Jan 01, 21 -->
      <g transform="translate(195.157122 689.66438) rotate(-30) scale(0.2 -0.2)">
       <use xlink:href="#DejaVuSans-4a"/>
       <use xlink:href="#DejaVuSans-61" transform="translate(29.492188 0)"/>
       <use xlink:href="#DejaVuSans-6e" transform="translate(90.771484 0)"/>
       <use xlink:href="#DejaVuSans-20" transform="translate(154.150391 0)"/>
       <use xlink:href="#DejaVuSans-30" transform="translate(185.9375 0)"/>
       <use xlink:href="#DejaVuSans-31" transform="translate(249.560547 0)"/>
       <use xlink:href="#DejaVuSans-2c" transform="translate(313.183594 0)"/>
       <use xlink:href="#DejaVuSans-20" transform="translate(344.970703 0)"/>
       <use xlink:href="#DejaVuSans-32" transform="translate(376.757812 0)"/>
       <use xlink:href="#DejaVuSans-31" transform="translate(440.380859 0)"/>
      </g>
     </g>
    </g>
    <g id="xtick_3">
     <g id="line2d_5">
      <path d="M 444.234204 622.6035 
L 444.234204 35.0835 
" clip-path="url(#pa4b6edf4ac)" style="fill: none; stroke: #a5a391; stroke-opacity: 0.3; stroke-width: 0.8; stroke-linecap: square"/>
     </g>
     <g id="line2d_6">
      <g>
       <use xlink:href="#mc47104d3a4" x="444.234204" y="622.6035" style="stroke: #000000; stroke-width: 0.8"/>
      </g>
     </g>
     <g id="text_3">
      <!-- Jan 01, 22 -->
      <g transform="translate(354.859156 689.66438) rotate(-30) scale(0.2 -0.2)">
       <use xlink:href="#DejaVuSans-4a"/>
       <use xlink:href="#DejaVuSans-61" transform="translate(29.492188 0)"/>
       <use xlink:href="#DejaVuSans-6e" transform="translate(90.771484 0)"/>
       <use xlink:href="#DejaVuSans-20" transform="translate(154.150391 0)"/>
       <use xlink:href="#DejaVuSans-30" transform="translate(185.9375 0)"/>
       <use xlink:href="#DejaVuSans-31" transform="translate(249.560547 0)"/>
       <use xlink:href="#DejaVuSans-2c" transform="translate(313.183594 0)"/>
       <use xlink:href="#DejaVuSans-20" transform="translate(344.970703 0)"/>
       <use xlink:href="#DejaVuSans-32" transform="translate(376.757812 0)"/>
       <use xlink:href="#DejaVuSans-32" transform="translate(440.380859 0)"/>
      </g>
     </g>
    </g>
    <g id="xtick_4">
     <g id="line2d_7">
      <path d="M 603.936238 622.6035 
L 603.936238 35.0835 
" clip-path="url(#pa4b6edf4ac)" style="fill: none; stroke: #a5a391; stroke-opacity: 0.3; stroke-width: 0.8; stroke-linecap: square"/>
     </g>
     <g id="line2d_8">
      <g>
       <use xlink:href="#mc47104d3a4" x="603.936238" y="622.6035" style="stroke: #000000; stroke-width: 0.8"/>
      </g>
     </g>
     <g id="text_4">
      <!-- Jan 01, 23 -->
      <g transform="translate(514.56119 689.66438) rotate(-30) scale(0.2 -0.2)">
       <defs>
        <path id="DejaVuSans-33" d="M 2597 2516 
Q 3050 2419 3304 2112 
Q 3559 1806 3559 1356 
Q 3559 666 3084 287 
Q 2609 -91 1734 -91 
Q 1441 -91 1130 -33 
Q 819 25 488 141 
L 488 750 
Q 750 597 1062 519 
Q 1375 441 1716 441 
Q 2309 441 2620 675 
Q 2931 909 2931 1356 
Q 2931 1769 2642 2001 
Q 2353 2234 1838 2234 
L 1294 2234 
L 1294 2753 
L 1863 2753 
Q 2328 2753 2575 2939 
Q 2822 3125 2822 3475 
Q 2822 3834 2567 4026 
Q 2313 4219 1838 4219 
Q 1578 4219 1281 4162 
Q 984 4106 628 3988 
L 628 4550 
Q 988 4650 1302 4700 
Q 1616 4750 1894 4750 
Q 2613 4750 3031 4423 
Q 3450 4097 3450 3541 
Q 3450 3153 3228 2886 
Q 3006 2619 2597 2516 
z
" transform="scale(0.015625)"/>
       </defs>
       <use xlink:href="#DejaVuSans-4a"/>
       <use xlink:href="#DejaVuSans-61" transform="translate(29.492188 0)"/>
       <use xlink:href="#DejaVuSans-6e" transform="translate(90.771484 0)"/>
       <use xlink:href="#DejaVuSans-20" transform="translate(154.150391 0)"/>
       <use xlink:href="#DejaVuSans-30" transform="translate(185.9375 0)"/>
       <use xlink:href="#DejaVuSans-31" transform="translate(249.560547 0)"/>
       <use xlink:href="#DejaVuSans-2c" transform="translate(313.183594 0)"/>
       <use xlink:href="#DejaVuSans-20" transform="translate(344.970703 0)"/>
       <use xlink:href="#DejaVuSans-32" transform="translate(376.757812 0)"/>
       <use xlink:href="#DejaVuSans-33" transform="translate(440.380859 0)"/>
      </g>
     </g>
    </g>
    <g id="xtick_5">
     <g id="line2d_9">
      <path d="M 763.638272 622.6035 
L 763.638272 35.0835 
" clip-path="url(#pa4b6edf4ac)" style="fill: none; stroke: #a5a391; stroke-opacity: 0.3; stroke-width: 0.8; stroke-linecap: square"/>
     </g>
     <g id="line2d_10">
      <g>
       <use xlink:href="#mc47104d3a4" x="763.638272" y="622.6035" style="stroke: #000000; stroke-width: 0.8"/>
      </g>
     </g>
     <g id="text_5">
      <!-- Jan 01, 24 -->
      <g transform="translate(674.263224 689.66438) rotate(-30) scale(0.2 -0.2)">
       <defs>
        <path id="DejaVuSans-34" d="M 2419 4116 
L 825 1625 
L 2419 1625 
L 2419 4116 
z
M 2253 4666 
L 3047 4666 
L 3047 1625 
L 3713 1625 
L 3713 1100 
L 3047 1100 
L 3047 0 
L 2419 0 
L 2419 1100 
L 313 1100 
L 313 1709 
L 2253 4666 
z
" transform="scale(0.015625)"/>
       </defs>
       <use xlink:href="#DejaVuSans-4a"/>
       <use xlink:href="#DejaVuSans-61" transform="translate(29.492188 0)"/>
       <use xlink:href="#DejaVuSans-6e" transform="translate(90.771484 0)"/>
       <use xlink:href="#DejaVuSans-20" transform="translate(154.150391 0)"/>
       <use xlink:href="#DejaVuSans-30" transform="translate(185.9375 0)"/>
       <use xlink:href="#DejaVuSans-31" transform="translate(249.560547 0)"/>
       <use xlink:href="#DejaVuSans-2c" transform="translate(313.183594 0)"/>
       <use xlink:href="#DejaVuSans-20" transform="translate(344.970703 0)"/>
       <use xlink:href="#DejaVuSans-32" transform="translate(376.757812 0)"/>
       <use xlink:href="#DejaVuSans-34" transform="translate(440.380859 0)"/>
      </g>
     </g>
    </g>
    <g id="xtick_6">
     <g id="line2d_11">
      <path d="M 923.777846 622.6035 
L 923.777846 35.0835 
" clip-path="url(#pa4b6edf4ac)" style="fill: none; stroke: #a5a391; stroke-opacity: 0.3; stroke-width: 0.8; stroke-linecap: square"/>
     </g>
     <g id="line2d_12">
      <g>
       <use xlink:href="#mc47104d3a4" x="923.777846" y="622.6035" style="stroke: #000000; stroke-width: 0.8"/>
      </g>
     </g>
     <g id="text_6">
      <!-- Jan 01, 25 -->
      <g transform="translate(834.402797 689.66438) rotate(-30) scale(0.2 -0.2)">
       <defs>
        <path id="DejaVuSans-35" d="M 691 4666 
L 3169 4666 
L 3169 4134 
L 1269 4134 
L 1269 2991 
Q 1406 3038 1543 3061 
Q 1681 3084 1819 3084 
Q 2600 3084 3056 2656 
Q 3513 2228 3513 1497 
Q 3513 744 3044 326 
Q 2575 -91 1722 -91 
Q 1428 -91 1123 -41 
Q 819 9 494 109 
L 494 744 
Q 775 591 1075 516 
Q 1375 441 1709 441 
Q 2250 441 2565 725 
Q 2881 1009 2881 1497 
Q 2881 1984 2565 2268 
Q 2250 2553 1709 2553 
Q 1456 2553 1204 2497 
Q 953 2441 691 2322 
L 691 4666 
z
" transform="scale(0.015625)"/>
       </defs>
       <use xlink:href="#DejaVuSans-4a"/>
       <use xlink:href="#DejaVuSans-61" transform="translate(29.492188 0)"/>
       <use xlink:href="#DejaVuSans-6e" transform="translate(90.771484 0)"/>
       <use xlink:href="#DejaVuSans-20" transform="translate(154.150391 0)"/>
       <use xlink:href="#DejaVuSans-30" transform="translate(185.9375 0)"/>
       <use xlink:href="#DejaVuSans-31" transform="translate(249.560547 0)"/>
       <use xlink:href="#DejaVuSans-2c" transform="translate(313.183594 0)"/>
       <use xlink:href="#DejaVuSans-20" transform="translate(344.970703 0)"/>
       <use xlink:href="#DejaVuSans-32" transform="translate(376.757812 0)"/>
       <use xlink:href="#DejaVuSans-35" transform="translate(440.380859 0)"/>
      </g>
     </g>
    </g>
   </g>
   <g id="matplotlib.axis_2">
    <g id="ytick_1">
     <g id="line2d_13">
      <path d="M 80.748 552.255181 
L 973.548 552.255181 
" clip-path="url(#pa4b6edf4ac)" style="fill: none; stroke: #a5a391; stroke-opacity: 0.3; stroke-width: 0.8; stroke-linecap: square"/>
     </g>
     <g id="line2d_14">
      <defs>
       <path id="mddc7408a31" d="M 0 0 
L 3.5 0 
" style="stroke: #000000; stroke-width: 0.8"/>
      </defs>
      <g>
       <use xlink:href="#mddc7408a31" x="80.748" y="552.255181" style="stroke: #000000; stroke-width: 0.8"/>
      </g>
     </g>
     <g id="text_7">
      <!-- 110 -->
      <g transform="translate(39.073 559.853618) scale(0.2 -0.2)">
       <use xlink:href="#DejaVuSans-31"/>
       <use xlink:href="#DejaVuSans-31" transform="translate(63.623047 0)"/>
       <use xlink:href="#DejaVuSans-30" transform="translate(127.246094 0)"/>
      </g>
     </g>
    </g>
    <g id="ytick_2">
     <g id="line2d_15">
      <path d="M 80.748 474.894577 
L 973.548 474.894577 
" clip-path="url(#pa4b6edf4ac)" style="fill: none; stroke: #a5a391; stroke-opacity: 0.3; stroke-width: 0.8; stroke-linecap: square"/>
     </g>
     <g id="line2d_16">
      <g>
       <use xlink:href="#mddc7408a31" x="80.748" y="474.894577" style="stroke: #000000; stroke-width: 0.8"/>
      </g>
     </g>
     <g id="text_8">
      <!-- 115 -->
      <g transform="translate(39.073 482.493015) scale(0.2 -0.2)">
       <use xlink:href="#DejaVuSans-31"/>
       <use xlink:href="#DejaVuSans-31" transform="translate(63.623047 0)"/>
       <use xlink:href="#DejaVuSans-35" transform="translate(127.246094 0)"/>
      </g>
     </g>
    </g>
    <g id="ytick_3">
     <g id="line2d_17">
      <path d="M 80.748 397.533974 
L 973.548 397.533974 
" clip-path="url(#pa4b6edf4ac)" style="fill: none; stroke: #a5a391; stroke-opacity: 0.3; stroke-width: 0.8; stroke-linecap: square"/>
     </g>
     <g id="line2d_18">
      <g>
       <use xlink:href="#mddc7408a31" x="80.748" y="397.533974" style="stroke: #000000; stroke-width: 0.8"/>
      </g>
     </g>
     <g id="text_9">
      <!-- 120 -->
      <g transform="translate(39.073 405.132411) scale(0.2 -0.2)">
       <use xlink:href="#DejaVuSans-31"/>
       <use xlink:href="#DejaVuSans-32" transform="translate(63.623047 0)"/>
       <use xlink:href="#DejaVuSans-30" transform="translate(127.246094 0)"/>
      </g>
     </g>
    </g>
    <g id="ytick_4">
     <g id="line2d_19">
      <path d="M 80.748 320.17337 
L 973.548 320.17337 
" clip-path="url(#pa4b6edf4ac)" style="fill: none; stroke: #a5a391; stroke-opacity: 0.3; stroke-width: 0.8; stroke-linecap: square"/>
     </g>
     <g id="line2d_20">
      <g>
       <use xlink:href="#mddc7408a31" x="80.748" y="320.17337" style="stroke: #000000; stroke-width: 0.8"/>
      </g>
     </g>
     <g id="text_10">
      <!-- 125 -->
      <g transform="translate(39.073 327.771808) scale(0.2 -0.2)">
       <use xlink:href="#DejaVuSans-31"/>
       <use xlink:href="#DejaVuSans-32" transform="translate(63.623047 0)"/>
       <use xlink:href="#DejaVuSans-35" transform="translate(127.246094 0)"/>
      </g>
     </g>
    </g>
    <g id="ytick_5">
     <g id="line2d_21">
      <path d="M 80.748 242.812767 
L 973.548 242.812767 
" clip-path="url(#pa4b6edf4ac)" style="fill: none; stroke: #a5a391; stroke-opacity: 0.3; stroke-width: 0.8; stroke-linecap: square"/>
     </g>
     <g id="line2d_22">
      <g>
       <use xlink:href="#mddc7408a31" x="80.748" y="242.812767" style="stroke: #000000; stroke-width: 0.8"/>
      </g>
     </g>
     <g id="text_11">
      <!-- 130 -->
      <g transform="translate(39.073 250.411204) scale(0.2 -0.2)">
       <use xlink:href="#DejaVuSans-31"/>
       <use xlink:href="#DejaVuSans-33" transform="translate(63.623047 0)"/>
       <use xlink:href="#DejaVuSans-30" transform="translate(127.246094 0)"/>
      </g>
     </g>
    </g>
    <g id="ytick_6">
     <g id="line2d_23">
      <path d="M 80.748 165.452163 
L 973.548 165.452163 
" clip-path="url(#pa4b6edf4ac)" style="fill: none; stroke: #a5a391; stroke-opacity: 0.3; stroke-width: 0.8; stroke-linecap: square"/>
     </g>
     <g id="line2d_24">
      <g>
       <use xlink:href="#mddc7408a31" x="80.748" y="165.452163" style="stroke: #000000; stroke-width: 0.8"/>
      </g>
     </g>
     <g id="text_12">
      <!-- 135 -->
      <g transform="translate(39.073 173.050601) scale(0.2 -0.2)">
       <use xlink:href="#DejaVuSans-31"/>
       <use xlink:href="#DejaVuSans-33" transform="translate(63.623047 0)"/>
       <use xlink:href="#DejaVuSans-35" transform="translate(127.246094 0)"/>
      </g>
     </g>
    </g>
    <g id="ytick_7">
     <g id="line2d_25">
      <path d="M 80.748 88.09156 
L 973.548 88.09156 
" clip-path="url(#pa4b6edf4ac)" style="fill: none; stroke: #a5a391; stroke-opacity: 0.3; stroke-width: 0.8; stroke-linecap: square"/>
     </g>
     <g id="line2d_26">
      <g>
       <use xlink:href="#mddc7408a31" x="80.748" y="88.09156" style="stroke: #000000; stroke-width: 0.8"/>
      </g>
     </g>
     <g id="text_13">
      <!-- 140 -->
      <g transform="translate(39.073 95.689997) scale(0.2 -0.2)">
       <use xlink:href="#DejaVuSans-31"/>
       <use xlink:href="#DejaVuSans-34" transform="translate(63.623047 0)"/>
       <use xlink:href="#DejaVuSans-30" transform="translate(127.246094 0)"/>
      </g>
     </g>
    </g>
    <g id="text_14">
     <!-- Muscle Mass [lbs] -->
     <g transform="translate(29.0835 455.9595) rotate(-90) scale(0.288 -0.288)">
      <defs>
       <path id="DejaVuSans-4d" d="M 628 4666 
L 1569 4666 
L 2759 1491 
L 3956 4666 
L 4897 4666 
L 4897 0 
L 4281 0 
L 4281 4097 
L 3078 897 
L 2444 897 
L 1241 4097 
L 1241 0 
L 628 0 
L 628 4666 
z
" transform="scale(0.015625)"/>
       <path id="DejaVuSans-75" d="M 544 1381 
L 544 3500 
L 1119 3500 
L 1119 1403 
Q 1119 906 1312 657 
Q 1506 409 1894 409 
Q 2359 409 2629 706 
Q 2900 1003 2900 1516 
L 2900 3500 
L 3475 3500 
L 3475 0 
L 2900 0 
L 2900 538 
Q 2691 219 2414 64 
Q 2138 -91 1772 -91 
Q 1169 -91 856 284 
Q 544 659 544 1381 
z
M 1991 3584 
L 1991 3584 
z
" transform="scale(0.015625)"/>
       <path id="DejaVuSans-73" d="M 2834 3397 
L 2834 2853 
Q 2591 2978 2328 3040 
Q 2066 3103 1784 3103 
Q 1356 3103 1142 2972 
Q 928 2841 928 2578 
Q 928 2378 1081 2264 
Q 1234 2150 1697 2047 
L 1894 2003 
Q 2506 1872 2764 1633 
Q 3022 1394 3022 966 
Q 3022 478 2636 193 
Q 2250 -91 1575 -91 
Q 1294 -91 989 -36 
Q 684 19 347 128 
L 347 722 
Q 666 556 975 473 
Q 1284 391 1588 391 
Q 1994 391 2212 530 
Q 2431 669 2431 922 
Q 2431 1156 2273 1281 
Q 2116 1406 1581 1522 
L 1381 1569 
Q 847 1681 609 1914 
Q 372 2147 372 2553 
Q 372 3047 722 3315 
Q 1072 3584 1716 3584 
Q 2034 3584 2315 3537 
Q 2597 3491 2834 3397 
z
" transform="scale(0.015625)"/>
       <path id="DejaVuSans-63" d="M 3122 3366 
L 3122 2828 
Q 2878 2963 2633 3030 
Q 2388 3097 2138 3097 
Q 1578 3097 1268 2742 
Q 959 2388 959 1747 
Q 959 1106 1268 751 
Q 1578 397 2138 397 
Q 2388 397 2633 464 
Q 2878 531 3122 666 
L 3122 134 
Q 2881 22 2623 -34 
Q 2366 -91 2075 -91 
Q 1284 -91 818 406 
Q 353 903 353 1747 
Q 353 2603 823 3093 
Q 1294 3584 2113 3584 
Q 2378 3584 2631 3529 
Q 2884 3475 3122 3366 
z
" transform="scale(0.015625)"/>
       <path id="DejaVuSans-6c" d="M 603 4863 
L 1178 4863 
L 1178 0 
L 603 0 
L 603 4863 
z
" transform="scale(0.015625)"/>
       <path id="DejaVuSans-65" d="M 3597 1894 
L 3597 1613 
L 953 1613 
Q 991 1019 1311 708 
Q 1631 397 2203 397 
Q 2534 397 2845 478 
Q 3156 559 3463 722 
L 3463 178 
Q 3153 47 2828 -22 
Q 2503 -91 2169 -91 
Q 1331 -91 842 396 
Q 353 884 353 1716 
Q 353 2575 817 3079 
Q 1281 3584 2069 3584 
Q 2775 3584 3186 3129 
Q 3597 2675 3597 1894 
z
M 3022 2063 
Q 3016 2534 2758 2815 
Q 2500 3097 2075 3097 
Q 1594 3097 1305 2825 
Q 1016 2553 972 2059 
L 3022 2063 
z
" transform="scale(0.015625)"/>
       <path id="DejaVuSans-5b" d="M 550 4863 
L 1875 4863 
L 1875 4416 
L 1125 4416 
L 1125 -397 
L 1875 -397 
L 1875 -844 
L 550 -844 
L 550 4863 
z
" transform="scale(0.015625)"/>
       <path id="DejaVuSans-62" d="M 3116 1747 
Q 3116 2381 2855 2742 
Q 2594 3103 2138 3103 
Q 1681 3103 1420 2742 
Q 1159 2381 1159 1747 
Q 1159 1113 1420 752 
Q 1681 391 2138 391 
Q 2594 391 2855 752 
Q 3116 1113 3116 1747 
z
M 1159 2969 
Q 1341 3281 1617 3432 
Q 1894 3584 2278 3584 
Q 2916 3584 3314 3078 
Q 3713 2572 3713 1747 
Q 3713 922 3314 415 
Q 2916 -91 2278 -91 
Q 1894 -91 1617 61 
Q 1341 213 1159 525 
L 1159 0 
L 581 0 
L 581 4863 
L 1159 4863 
L 1159 2969 
z
" transform="scale(0.015625)"/>
       <path id="DejaVuSans-5d" d="M 1947 4863 
L 1947 -844 
L 622 -844 
L 622 -397 
L 1369 -397 
L 1369 4416 
L 622 4416 
L 622 4863 
L 1947 4863 
z
" transform="scale(0.015625)"/>
      </defs>
      <use xlink:href="#DejaVuSans-4d"/>
      <use xlink:href="#DejaVuSans-75" transform="translate(86.279297 0)"/>
      <use xlink:href="#DejaVuSans-73" transform="translate(149.658203 0)"/>
      <use xlink:href="#DejaVuSans-63" transform="translate(201.757812 0)"/>
      <use xlink:href="#DejaVuSans-6c" transform="translate(256.738281 0)"/>
      <use xlink:href="#DejaVuSans-65" transform="translate(284.521484 0)"/>
      <use xlink:href="#DejaVuSans-20" transform="translate(346.044922 0)"/>
      <use xlink:href="#DejaVuSans-4d" transform="translate(377.832031 0)"/>
      <use xlink:href="#DejaVuSans-61" transform="translate(464.111328 0)"/>
      <use xlink:href="#DejaVuSans-73" transform="translate(525.390625 0)"/>
      <use xlink:href="#DejaVuSans-73" transform="translate(577.490234 0)"/>
      <use xlink:href="#DejaVuSans-20" transform="translate(629.589844 0)"/>
      <use xlink:href="#DejaVuSans-5b" transform="translate(661.376953 0)"/>
      <use xlink:href="#DejaVuSans-6c" transform="translate(700.390625 0)"/>
      <use xlink:href="#DejaVuSans-62" transform="translate(728.173828 0)"/>
      <use xlink:href="#DejaVuSans-73" transform="translate(791.650391 0)"/>
      <use xlink:href="#DejaVuSans-5d" transform="translate(843.75 0)"/>
     </g>
    </g>
   </g>
   <g id="line2d_27">
    <path d="M 121.329818 402.17561 
L 127.455376 523.631757 
L 130.518154 395.323671 
L 133.580933 397.533974 
L 136.643712 363.495308 
L 139.706491 423.836579 
L 142.769269 387.219227 
L 145.832048 384.382671 
L 148.894827 377.935954 
L 151.957605 343.63942 
L 155.020384 379.895756 
L 158.083163 419.194943 
L 161.145942 359.240475 
L 164.20872 354.212036 
L 167.271499 390.958322 
L 170.334278 366.202929 
L 173.397057 350.086137 
L 176.459835 345.238206 
L 179.522614 337.966309 
L 182.585393 348.023187 
L 185.648172 347.249581 
L 188.71095 349.5704 
L 191.773729 371.231368 
L 194.836508 358.466869 
L 197.899286 360.787687 
L 200.962065 351.891218 
L 204.024844 331.003855 
L 207.087623 301.606825 
L 210.150401 341.834339 
L 213.21318 355.449805 
L 216.275959 332.551067 
L 219.338738 318.626158 
L 222.401516 317.078946 
L 225.464295 302.535153 
L 228.527074 269.115372 
L 231.589852 295.80478 
L 234.652631 307.795674 
L 237.71541 284.896935 
L 240.778189 287.166179 
L 243.840967 274.917417 
L 246.903746 292.323553 
L 249.966525 319.657633 
L 253.029304 328.296234 
L 256.092082 288.842326 
L 259.154861 328.683037 
L 262.21764 339.255652 
L 265.280419 283.040281 
L 268.343197 263.70013 
L 271.405976 264.473736 
L 274.468755 295.417977 
L 277.531533 267.56816 
L 280.594312 280.332659 
L 283.657091 253.127514 
L 286.71987 228.003737 
L 289.782648 212.384263 
L 292.845427 242.039161 
L 295.908206 236.314476 
L 298.970985 216.510162 
L 302.033763 252.714924 
L 305.096542 263.70013 
L 308.159321 252.869645 
L 311.222099 244.359979 
L 314.284878 301.606825 
L 317.347657 276.335695 
L 320.410436 218.057374 
L 323.473214 243.431652 
L 326.535993 226.898585 
L 329.598772 257.124478 
L 332.661551 277.625038 
L 335.724329 271.178321 
L 338.787108 262.926524 
L 341.849887 246.938666 
L 344.912666 231.982282 
L 347.975444 262.926524 
L 351.038223 257.253413 
L 354.101002 260.605705 
L 357.16378 239.202605 
L 360.226559 251.322433 
L 363.289338 244.359979 
L 366.352117 230.43507 
L 372.477674 279.945856 
L 375.540453 285.51582 
L 378.603232 256.995544 
L 381.66601 269.115372 
L 396.979904 272.209796 
L 400.042683 276.851432 
L 403.105461 328.296234 
L 406.16824 278.914382 
L 409.231019 318.626158 
L 421.482134 320.17337 
L 424.544913 326.362218 
L 427.607691 286.134705 
L 449.047142 331.003855 
L 452.109921 327.135824 
L 455.1727 328.425168 
L 458.235479 334.485082 
L 461.298257 272.983402 
L 464.361036 331.003855 
L 467.423815 337.192703 
L 470.486593 326.362218 
L 473.549372 365.04252 
L 476.612151 320.946976 
L 479.67493 385.156277 
L 482.737708 384.124802 
L 494.988823 365.816126 
L 498.051602 364.526783 
L 501.114381 365.558258 
L 504.17716 326.749021 
L 507.239938 385.156277 
L 522.553832 348.023187 
L 556.244398 323.267794 
L 571.558292 371.231368 
L 574.62107 371.231368 
L 580.746628 385.156277 
L 589.934964 365.04252 
L 629.751087 402.17561 
L 730.822786 137.086609 
L 733.885564 144.5648 
L 736.948343 117.488589 
L 740.011122 136.055134 
L 743.073901 129.866286 
L 749.199458 231.982282 
L 752.262237 170.093799 
L 880.898943 92.733196 
L 932.966182 77.261075 
" clip-path="url(#pa4b6edf4ac)" style="fill: none; stroke: #ff0000; stroke-width: 1.5; stroke-linecap: square"/>
    <defs>
     <path id="mc9ec9e9cb9" d="M 0 -3 
L -0.673542 -0.927051 
L -2.85317 -0.927051 
L -1.089814 0.354102 
L -1.763356 2.427051 
L -0 1.145898 
L 1.763356 2.427051 
L 1.089814 0.354102 
L 2.85317 -0.927051 
L 0.673542 -0.927051 
z
" style="stroke: #ff0000; stroke-linejoin: bevel"/>
    </defs>
    <g clip-path="url(#pa4b6edf4ac)">
     <use xlink:href="#mc9ec9e9cb9" x="121.329818" y="402.17561" style="fill: #ff0000; stroke: #ff0000; stroke-linejoin: bevel"/>
     <use xlink:href="#mc9ec9e9cb9" x="127.455376" y="523.631757" style="fill: #ff0000; stroke: #ff0000; stroke-linejoin: bevel"/>
     <use xlink:href="#mc9ec9e9cb9" x="130.518154" y="395.323671" style="fill: #ff0000; stroke: #ff0000; stroke-linejoin: bevel"/>
     <use xlink:href="#mc9ec9e9cb9" x="133.580933" y="397.533974" style="fill: #ff0000; stroke: #ff0000; stroke-linejoin: bevel"/>
     <use xlink:href="#mc9ec9e9cb9" x="136.643712" y="363.495308" style="fill: #ff0000; stroke: #ff0000; stroke-linejoin: bevel"/>
     <use xlink:href="#mc9ec9e9cb9" x="139.706491" y="423.836579" style="fill: #ff0000; stroke: #ff0000; stroke-linejoin: bevel"/>
     <use xlink:href="#mc9ec9e9cb9" x="142.769269" y="387.219227" style="fill: #ff0000; stroke: #ff0000; stroke-linejoin: bevel"/>
     <use xlink:href="#mc9ec9e9cb9" x="145.832048" y="384.382671" style="fill: #ff0000; stroke: #ff0000; stroke-linejoin: bevel"/>
     <use xlink:href="#mc9ec9e9cb9" x="148.894827" y="377.935954" style="fill: #ff0000; stroke: #ff0000; stroke-linejoin: bevel"/>
     <use xlink:href="#mc9ec9e9cb9" x="151.957605" y="343.63942" style="fill: #ff0000; stroke: #ff0000; stroke-linejoin: bevel"/>
     <use xlink:href="#mc9ec9e9cb9" x="155.020384" y="379.895756" style="fill: #ff0000; stroke: #ff0000; stroke-linejoin: bevel"/>
     <use xlink:href="#mc9ec9e9cb9" x="158.083163" y="419.194943" style="fill: #ff0000; stroke: #ff0000; stroke-linejoin: bevel"/>
     <use xlink:href="#mc9ec9e9cb9" x="161.145942" y="359.240475" style="fill: #ff0000; stroke: #ff0000; stroke-linejoin: bevel"/>
     <use xlink:href="#mc9ec9e9cb9" x="164.20872" y="354.212036" style="fill: #ff0000; stroke: #ff0000; stroke-linejoin: bevel"/>
     <use xlink:href="#mc9ec9e9cb9" x="167.271499" y="390.958322" style="fill: #ff0000; stroke: #ff0000; stroke-linejoin: bevel"/>
     <use xlink:href="#mc9ec9e9cb9" x="170.334278" y="366.202929" style="fill: #ff0000; stroke: #ff0000; stroke-linejoin: bevel"/>
     <use xlink:href="#mc9ec9e9cb9" x="173.397057" y="350.086137" style="fill: #ff0000; stroke: #ff0000; stroke-linejoin: bevel"/>
     <use xlink:href="#mc9ec9e9cb9" x="176.459835" y="345.238206" style="fill: #ff0000; stroke: #ff0000; stroke-linejoin: bevel"/>
     <use xlink:href="#mc9ec9e9cb9" x="179.522614" y="337.966309" style="fill: #ff0000; stroke: #ff0000; stroke-linejoin: bevel"/>
     <use xlink:href="#mc9ec9e9cb9" x="182.585393" y="348.023187" style="fill: #ff0000; stroke: #ff0000; stroke-linejoin: bevel"/>
     <use xlink:href="#mc9ec9e9cb9" x="185.648172" y="347.249581" style="fill: #ff0000; stroke: #ff0000; stroke-linejoin: bevel"/>
     <use xlink:href="#mc9ec9e9cb9" x="188.71095" y="349.5704" style="fill: #ff0000; stroke: #ff0000; stroke-linejoin: bevel"/>
     <use xlink:href="#mc9ec9e9cb9" x="191.773729" y="371.231368" style="fill: #ff0000; stroke: #ff0000; stroke-linejoin: bevel"/>
     <use xlink:href="#mc9ec9e9cb9" x="194.836508" y="358.466869" style="fill: #ff0000; stroke: #ff0000; stroke-linejoin: bevel"/>
     <use xlink:href="#mc9ec9e9cb9" x="197.899286" y="360.787687" style="fill: #ff0000; stroke: #ff0000; stroke-linejoin: bevel"/>
     <use xlink:href="#mc9ec9e9cb9" x="200.962065" y="351.891218" style="fill: #ff0000; stroke: #ff0000; stroke-linejoin: bevel"/>
     <use xlink:href="#mc9ec9e9cb9" x="204.024844" y="331.003855" style="fill: #ff0000; stroke: #ff0000; stroke-linejoin: bevel"/>
     <use xlink:href="#mc9ec9e9cb9" x="207.087623" y="301.606825" style="fill: #ff0000; stroke: #ff0000; stroke-linejoin: bevel"/>
     <use xlink:href="#mc9ec9e9cb9" x="210.150401" y="341.834339" style="fill: #ff0000; stroke: #ff0000; stroke-linejoin: bevel"/>
     <use xlink:href="#mc9ec9e9cb9" x="213.21318" y="355.449805" style="fill: #ff0000; stroke: #ff0000; stroke-linejoin: bevel"/>
     <use xlink:href="#mc9ec9e9cb9" x="216.275959" y="332.551067" style="fill: #ff0000; stroke: #ff0000; stroke-linejoin: bevel"/>
     <use xlink:href="#mc9ec9e9cb9" x="219.338738" y="318.626158" style="fill: #ff0000; stroke: #ff0000; stroke-linejoin: bevel"/>
     <use xlink:href="#mc9ec9e9cb9" x="222.401516" y="317.078946" style="fill: #ff0000; stroke: #ff0000; stroke-linejoin: bevel"/>
     <use xlink:href="#mc9ec9e9cb9" x="225.464295" y="302.535153" style="fill: #ff0000; stroke: #ff0000; stroke-linejoin: bevel"/>
     <use xlink:href="#mc9ec9e9cb9" x="228.527074" y="269.115372" style="fill: #ff0000; stroke: #ff0000; stroke-linejoin: bevel"/>
     <use xlink:href="#mc9ec9e9cb9" x="231.589852" y="295.80478" style="fill: #ff0000; stroke: #ff0000; stroke-linejoin: bevel"/>
     <use xlink:href="#mc9ec9e9cb9" x="234.652631" y="307.795674" style="fill: #ff0000; stroke: #ff0000; stroke-linejoin: bevel"/>
     <use xlink:href="#mc9ec9e9cb9" x="237.71541" y="284.896935" style="fill: #ff0000; stroke: #ff0000; stroke-linejoin: bevel"/>
     <use xlink:href="#mc9ec9e9cb9" x="240.778189" y="287.166179" style="fill: #ff0000; stroke: #ff0000; stroke-linejoin: bevel"/>
     <use xlink:href="#mc9ec9e9cb9" x="243.840967" y="274.917417" style="fill: #ff0000; stroke: #ff0000; stroke-linejoin: bevel"/>
     <use xlink:href="#mc9ec9e9cb9" x="246.903746" y="292.323553" style="fill: #ff0000; stroke: #ff0000; stroke-linejoin: bevel"/>
     <use xlink:href="#mc9ec9e9cb9" x="249.966525" y="319.657633" style="fill: #ff0000; stroke: #ff0000; stroke-linejoin: bevel"/>
     <use xlink:href="#mc9ec9e9cb9" x="253.029304" y="328.296234" style="fill: #ff0000; stroke: #ff0000; stroke-linejoin: bevel"/>
     <use xlink:href="#mc9ec9e9cb9" x="256.092082" y="288.842326" style="fill: #ff0000; stroke: #ff0000; stroke-linejoin: bevel"/>
     <use xlink:href="#mc9ec9e9cb9" x="259.154861" y="328.683037" style="fill: #ff0000; stroke: #ff0000; stroke-linejoin: bevel"/>
     <use xlink:href="#mc9ec9e9cb9" x="262.21764" y="339.255652" style="fill: #ff0000; stroke: #ff0000; stroke-linejoin: bevel"/>
     <use xlink:href="#mc9ec9e9cb9" x="265.280419" y="283.040281" style="fill: #ff0000; stroke: #ff0000; stroke-linejoin: bevel"/>
     <use xlink:href="#mc9ec9e9cb9" x="268.343197" y="263.70013" style="fill: #ff0000; stroke: #ff0000; stroke-linejoin: bevel"/>
     <use xlink:href="#mc9ec9e9cb9" x="271.405976" y="264.473736" style="fill: #ff0000; stroke: #ff0000; stroke-linejoin: bevel"/>
     <use xlink:href="#mc9ec9e9cb9" x="274.468755" y="295.417977" style="fill: #ff0000; stroke: #ff0000; stroke-linejoin: bevel"/>
     <use xlink:href="#mc9ec9e9cb9" x="277.531533" y="267.56816" style="fill: #ff0000; stroke: #ff0000; stroke-linejoin: bevel"/>
     <use xlink:href="#mc9ec9e9cb9" x="280.594312" y="280.332659" style="fill: #ff0000; stroke: #ff0000; stroke-linejoin: bevel"/>
     <use xlink:href="#mc9ec9e9cb9" x="283.657091" y="253.127514" style="fill: #ff0000; stroke: #ff0000; stroke-linejoin: bevel"/>
     <use xlink:href="#mc9ec9e9cb9" x="286.71987" y="228.003737" style="fill: #ff0000; stroke: #ff0000; stroke-linejoin: bevel"/>
     <use xlink:href="#mc9ec9e9cb9" x="289.782648" y="212.384263" style="fill: #ff0000; stroke: #ff0000; stroke-linejoin: bevel"/>
     <use xlink:href="#mc9ec9e9cb9" x="292.845427" y="242.039161" style="fill: #ff0000; stroke: #ff0000; stroke-linejoin: bevel"/>
     <use xlink:href="#mc9ec9e9cb9" x="295.908206" y="236.314476" style="fill: #ff0000; stroke: #ff0000; stroke-linejoin: bevel"/>
     <use xlink:href="#mc9ec9e9cb9" x="298.970985" y="216.510162" style="fill: #ff0000; stroke: #ff0000; stroke-linejoin: bevel"/>
     <use xlink:href="#mc9ec9e9cb9" x="302.033763" y="252.714924" style="fill: #ff0000; stroke: #ff0000; stroke-linejoin: bevel"/>
     <use xlink:href="#mc9ec9e9cb9" x="305.096542" y="263.70013" style="fill: #ff0000; stroke: #ff0000; stroke-linejoin: bevel"/>
     <use xlink:href="#mc9ec9e9cb9" x="308.159321" y="252.869645" style="fill: #ff0000; stroke: #ff0000; stroke-linejoin: bevel"/>
     <use xlink:href="#mc9ec9e9cb9" x="311.222099" y="244.359979" style="fill: #ff0000; stroke: #ff0000; stroke-linejoin: bevel"/>
     <use xlink:href="#mc9ec9e9cb9" x="314.284878" y="301.606825" style="fill: #ff0000; stroke: #ff0000; stroke-linejoin: bevel"/>
     <use xlink:href="#mc9ec9e9cb9" x="317.347657" y="276.335695" style="fill: #ff0000; stroke: #ff0000; stroke-linejoin: bevel"/>
     <use xlink:href="#mc9ec9e9cb9" x="320.410436" y="218.057374" style="fill: #ff0000; stroke: #ff0000; stroke-linejoin: bevel"/>
     <use xlink:href="#mc9ec9e9cb9" x="323.473214" y="243.431652" style="fill: #ff0000; stroke: #ff0000; stroke-linejoin: bevel"/>
     <use xlink:href="#mc9ec9e9cb9" x="326.535993" y="226.898585" style="fill: #ff0000; stroke: #ff0000; stroke-linejoin: bevel"/>
     <use xlink:href="#mc9ec9e9cb9" x="329.598772" y="257.124478" style="fill: #ff0000; stroke: #ff0000; stroke-linejoin: bevel"/>
     <use xlink:href="#mc9ec9e9cb9" x="332.661551" y="277.625038" style="fill: #ff0000; stroke: #ff0000; stroke-linejoin: bevel"/>
     <use xlink:href="#mc9ec9e9cb9" x="335.724329" y="271.178321" style="fill: #ff0000; stroke: #ff0000; stroke-linejoin: bevel"/>
     <use xlink:href="#mc9ec9e9cb9" x="338.787108" y="262.926524" style="fill: #ff0000; stroke: #ff0000; stroke-linejoin: bevel"/>
     <use xlink:href="#mc9ec9e9cb9" x="341.849887" y="246.938666" style="fill: #ff0000; stroke: #ff0000; stroke-linejoin: bevel"/>
     <use xlink:href="#mc9ec9e9cb9" x="344.912666" y="231.982282" style="fill: #ff0000; stroke: #ff0000; stroke-linejoin: bevel"/>
     <use xlink:href="#mc9ec9e9cb9" x="347.975444" y="262.926524" style="fill: #ff0000; stroke: #ff0000; stroke-linejoin: bevel"/>
     <use xlink:href="#mc9ec9e9cb9" x="351.038223" y="257.253413" style="fill: #ff0000; stroke: #ff0000; stroke-linejoin: bevel"/>
     <use xlink:href="#mc9ec9e9cb9" x="354.101002" y="260.605705" style="fill: #ff0000; stroke: #ff0000; stroke-linejoin: bevel"/>
     <use xlink:href="#mc9ec9e9cb9" x="357.16378" y="239.202605" style="fill: #ff0000; stroke: #ff0000; stroke-linejoin: bevel"/>
     <use xlink:href="#mc9ec9e9cb9" x="360.226559" y="251.322433" style="fill: #ff0000; stroke: #ff0000; stroke-linejoin: bevel"/>
     <use xlink:href="#mc9ec9e9cb9" x="363.289338" y="244.359979" style="fill: #ff0000; stroke: #ff0000; stroke-linejoin: bevel"/>
     <use xlink:href="#mc9ec9e9cb9" x="366.352117" y="230.43507" style="fill: #ff0000; stroke: #ff0000; stroke-linejoin: bevel"/>
     <use xlink:href="#mc9ec9e9cb9" x="372.477674" y="279.945856" style="fill: #ff0000; stroke: #ff0000; stroke-linejoin: bevel"/>
     <use xlink:href="#mc9ec9e9cb9" x="375.540453" y="285.51582" style="fill: #ff0000; stroke: #ff0000; stroke-linejoin: bevel"/>
     <use xlink:href="#mc9ec9e9cb9" x="378.603232" y="256.995544" style="fill: #ff0000; stroke: #ff0000; stroke-linejoin: bevel"/>
     <use xlink:href="#mc9ec9e9cb9" x="381.66601" y="269.115372" style="fill: #ff0000; stroke: #ff0000; stroke-linejoin: bevel"/>
     <use xlink:href="#mc9ec9e9cb9" x="396.979904" y="272.209796" style="fill: #ff0000; stroke: #ff0000; stroke-linejoin: bevel"/>
     <use xlink:href="#mc9ec9e9cb9" x="400.042683" y="276.851432" style="fill: #ff0000; stroke: #ff0000; stroke-linejoin: bevel"/>
     <use xlink:href="#mc9ec9e9cb9" x="403.105461" y="328.296234" style="fill: #ff0000; stroke: #ff0000; stroke-linejoin: bevel"/>
     <use xlink:href="#mc9ec9e9cb9" x="406.16824" y="278.914382" style="fill: #ff0000; stroke: #ff0000; stroke-linejoin: bevel"/>
     <use xlink:href="#mc9ec9e9cb9" x="409.231019" y="318.626158" style="fill: #ff0000; stroke: #ff0000; stroke-linejoin: bevel"/>
     <use xlink:href="#mc9ec9e9cb9" x="421.482134" y="320.17337" style="fill: #ff0000; stroke: #ff0000; stroke-linejoin: bevel"/>
     <use xlink:href="#mc9ec9e9cb9" x="424.544913" y="326.362218" style="fill: #ff0000; stroke: #ff0000; stroke-linejoin: bevel"/>
     <use xlink:href="#mc9ec9e9cb9" x="427.607691" y="286.134705" style="fill: #ff0000; stroke: #ff0000; stroke-linejoin: bevel"/>
     <use xlink:href="#mc9ec9e9cb9" x="449.047142" y="331.003855" style="fill: #ff0000; stroke: #ff0000; stroke-linejoin: bevel"/>
     <use xlink:href="#mc9ec9e9cb9" x="452.109921" y="327.135824" style="fill: #ff0000; stroke: #ff0000; stroke-linejoin: bevel"/>
     <use xlink:href="#mc9ec9e9cb9" x="455.1727" y="328.425168" style="fill: #ff0000; stroke: #ff0000; stroke-linejoin: bevel"/>
     <use xlink:href="#mc9ec9e9cb9" x="458.235479" y="334.485082" style="fill: #ff0000; stroke: #ff0000; stroke-linejoin: bevel"/>
     <use xlink:href="#mc9ec9e9cb9" x="461.298257" y="272.983402" style="fill: #ff0000; stroke: #ff0000; stroke-linejoin: bevel"/>
     <use xlink:href="#mc9ec9e9cb9" x="464.361036" y="331.003855" style="fill: #ff0000; stroke: #ff0000; stroke-linejoin: bevel"/>
     <use xlink:href="#mc9ec9e9cb9" x="467.423815" y="337.192703" style="fill: #ff0000; stroke: #ff0000; stroke-linejoin: bevel"/>
     <use xlink:href="#mc9ec9e9cb9" x="470.486593" y="326.362218" style="fill: #ff0000; stroke: #ff0000; stroke-linejoin: bevel"/>
     <use xlink:href="#mc9ec9e9cb9" x="473.549372" y="365.04252" style="fill: #ff0000; stroke: #ff0000; stroke-linejoin: bevel"/>
     <use xlink:href="#mc9ec9e9cb9" x="476.612151" y="320.946976" style="fill: #ff0000; stroke: #ff0000; stroke-linejoin: bevel"/>
     <use xlink:href="#mc9ec9e9cb9" x="479.67493" y="385.156277" style="fill: #ff0000; stroke: #ff0000; stroke-linejoin: bevel"/>
     <use xlink:href="#mc9ec9e9cb9" x="482.737708" y="384.124802" style="fill: #ff0000; stroke: #ff0000; stroke-linejoin: bevel"/>
     <use xlink:href="#mc9ec9e9cb9" x="494.988823" y="365.816126" style="fill: #ff0000; stroke: #ff0000; stroke-linejoin: bevel"/>
     <use xlink:href="#mc9ec9e9cb9" x="498.051602" y="364.526783" style="fill: #ff0000; stroke: #ff0000; stroke-linejoin: bevel"/>
     <use xlink:href="#mc9ec9e9cb9" x="501.114381" y="365.558258" style="fill: #ff0000; stroke: #ff0000; stroke-linejoin: bevel"/>
     <use xlink:href="#mc9ec9e9cb9" x="504.17716" y="326.749021" style="fill: #ff0000; stroke: #ff0000; stroke-linejoin: bevel"/>
     <use xlink:href="#mc9ec9e9cb9" x="507.239938" y="385.156277" style="fill: #ff0000; stroke: #ff0000; stroke-linejoin: bevel"/>
     <use xlink:href="#mc9ec9e9cb9" x="522.553832" y="348.023187" style="fill: #ff0000; stroke: #ff0000; stroke-linejoin: bevel"/>
     <use xlink:href="#mc9ec9e9cb9" x="556.244398" y="323.267794" style="fill: #ff0000; stroke: #ff0000; stroke-linejoin: bevel"/>
     <use xlink:href="#mc9ec9e9cb9" x="571.558292" y="371.231368" style="fill: #ff0000; stroke: #ff0000; stroke-linejoin: bevel"/>
     <use xlink:href="#mc9ec9e9cb9" x="574.62107" y="371.231368" style="fill: #ff0000; stroke: #ff0000; stroke-linejoin: bevel"/>
     <use xlink:href="#mc9ec9e9cb9" x="580.746628" y="385.156277" style="fill: #ff0000; stroke: #ff0000; stroke-linejoin: bevel"/>
     <use xlink:href="#mc9ec9e9cb9" x="589.934964" y="365.04252" style="fill: #ff0000; stroke: #ff0000; stroke-linejoin: bevel"/>
     <use xlink:href="#mc9ec9e9cb9" x="629.751087" y="402.17561" style="fill: #ff0000; stroke: #ff0000; stroke-linejoin: bevel"/>
     <use xlink:href="#mc9ec9e9cb9" x="730.822786" y="137.086609" style="fill: #ff0000; stroke: #ff0000; stroke-linejoin: bevel"/>
     <use xlink:href="#mc9ec9e9cb9" x="733.885564" y="144.5648" style="fill: #ff0000; stroke: #ff0000; stroke-linejoin: bevel"/>
     <use xlink:href="#mc9ec9e9cb9" x="736.948343" y="117.488589" style="fill: #ff0000; stroke: #ff0000; stroke-linejoin: bevel"/>
     <use xlink:href="#mc9ec9e9cb9" x="740.011122" y="136.055134" style="fill: #ff0000; stroke: #ff0000; stroke-linejoin: bevel"/>
     <use xlink:href="#mc9ec9e9cb9" x="743.073901" y="129.866286" style="fill: #ff0000; stroke: #ff0000; stroke-linejoin: bevel"/>
     <use xlink:href="#mc9ec9e9cb9" x="749.199458" y="231.982282" style="fill: #ff0000; stroke: #ff0000; stroke-linejoin: bevel"/>
     <use xlink:href="#mc9ec9e9cb9" x="752.262237" y="170.093799" style="fill: #ff0000; stroke: #ff0000; stroke-linejoin: bevel"/>
     <use xlink:href="#mc9ec9e9cb9" x="880.898943" y="92.733196" style="fill: #ff0000; stroke: #ff0000; stroke-linejoin: bevel"/>
     <use xlink:href="#mc9ec9e9cb9" x="932.966182" y="77.261075" style="fill: #ff0000; stroke: #ff0000; stroke-linejoin: bevel"/>
    </g>
   </g>
   <g id="patch_3">
    <path d="M 80.748 622.6035 
L 80.748 35.0835 
" style="fill: none; stroke: #000000; stroke-width: 0.8; stroke-linejoin: miter; stroke-linecap: square"/>
   </g>
   <g id="patch_4">
    <path d="M 973.548 622.6035 
L 973.548 35.0835 
" style="fill: none; stroke: #000000; stroke-width: 0.8; stroke-linejoin: miter; stroke-linecap: square"/>
   </g>
   <g id="patch_5">
    <path d="M 80.748 622.6035 
L 973.548 622.6035 
" style="fill: none; stroke: #000000; stroke-width: 0.8; stroke-linejoin: miter; stroke-linecap: square"/>
   </g>
   <g id="patch_6">
    <path d="M 80.748 35.0835 
L 973.548 35.0835 
" style="fill: none; stroke: #000000; stroke-width: 0.8; stroke-linejoin: miter; stroke-linecap: square"/>
   </g>
   <g id="text_15">
    <!-- Body Muscle Mass -->
    <g transform="translate(395.55675 29.0835) scale(0.288 -0.288)">
     <defs>
      <path id="DejaVuSans-42" d="M 1259 2228 
L 1259 519 
L 2272 519 
Q 2781 519 3026 730 
Q 3272 941 3272 1375 
Q 3272 1813 3026 2020 
Q 2781 2228 2272 2228 
L 1259 2228 
z
M 1259 4147 
L 1259 2741 
L 2194 2741 
Q 2656 2741 2882 2914 
Q 3109 3088 3109 3444 
Q 3109 3797 2882 3972 
Q 2656 4147 2194 4147 
L 1259 4147 
z
M 628 4666 
L 2241 4666 
Q 2963 4666 3353 4366 
Q 3744 4066 3744 3513 
Q 3744 3084 3544 2831 
Q 3344 2578 2956 2516 
Q 3422 2416 3680 2098 
Q 3938 1781 3938 1306 
Q 3938 681 3513 340 
Q 3088 0 2303 0 
L 628 0 
L 628 4666 
z
" transform="scale(0.015625)"/>
      <path id="DejaVuSans-6f" d="M 1959 3097 
Q 1497 3097 1228 2736 
Q 959 2375 959 1747 
Q 959 1119 1226 758 
Q 1494 397 1959 397 
Q 2419 397 2687 759 
Q 2956 1122 2956 1747 
Q 2956 2369 2687 2733 
Q 2419 3097 1959 3097 
z
M 1959 3584 
Q 2709 3584 3137 3096 
Q 3566 2609 3566 1747 
Q 3566 888 3137 398 
Q 2709 -91 1959 -91 
Q 1206 -91 779 398 
Q 353 888 353 1747 
Q 353 2609 779 3096 
Q 1206 3584 1959 3584 
z
" transform="scale(0.015625)"/>
      <path id="DejaVuSans-64" d="M 2906 2969 
L 2906 4863 
L 3481 4863 
L 3481 0 
L 2906 0 
L 2906 525 
Q 2725 213 2448 61 
Q 2172 -91 1784 -91 
Q 1150 -91 751 415 
Q 353 922 353 1747 
Q 353 2572 751 3078 
Q 1150 3584 1784 3584 
Q 2172 3584 2448 3432 
Q 2725 3281 2906 2969 
z
M 947 1747 
Q 947 1113 1208 752 
Q 1469 391 1925 391 
Q 2381 391 2643 752 
Q 2906 1113 2906 1747 
Q 2906 2381 2643 2742 
Q 2381 3103 1925 3103 
Q 1469 3103 1208 2742 
Q 947 2381 947 1747 
z
" transform="scale(0.015625)"/>
      <path id="DejaVuSans-79" d="M 2059 -325 
Q 1816 -950 1584 -1140 
Q 1353 -1331 966 -1331 
L 506 -1331 
L 506 -850 
L 844 -850 
Q 1081 -850 1212 -737 
Q 1344 -625 1503 -206 
L 1606 56 
L 191 3500 
L 800 3500 
L 1894 763 
L 2988 3500 
L 3597 3500 
L 2059 -325 
z
" transform="scale(0.015625)"/>
     </defs>
     <use xlink:href="#DejaVuSans-42"/>
     <use xlink:href="#DejaVuSans-6f" transform="translate(68.603516 0)"/>
     <use xlink:href="#DejaVuSans-64" transform="translate(129.785156 0)"/>
     <use xlink:href="#DejaVuSans-79" transform="translate(193.261719 0)"/>
     <use xlink:href="#DejaVuSans-20" transform="translate(252.441406 0)"/>
     <use xlink:href="#DejaVuSans-4d" transform="translate(284.228516 0)"/>
     <use xlink:href="#DejaVuSans-75" transform="translate(370.507812 0)"/>
     <use xlink:href="#DejaVuSans-73" transform="translate(433.886719 0)"/>
     <use xlink:href="#DejaVuSans-63" transform="translate(485.986328 0)"/>
     <use xlink:href="#DejaVuSans-6c" transform="translate(540.966797 0)"/>
     <use xlink:href="#DejaVuSans-65" transform="translate(568.75 0)"/>
     <use xlink:href="#DejaVuSans-20" transform="translate(630.273438 0)"/>
     <use xlink:href="#DejaVuSans-4d" transform="translate(662.060547 0)"/>
     <use xlink:href="#DejaVuSans-61" transform="translate(748.339844 0)"/>
     <use xlink:href="#DejaVuSans-73" transform="translate(809.619141 0)"/>
     <use xlink:href="#DejaVuSans-73" transform="translate(861.71875 0)"/>
    </g>
   </g>
  </g>
 </g>
 <defs>
  <clipPath id="pa4b6edf4ac">
   <rect x="80.748" y="35.0835" width="892.8" height="587.52"/>
  </clipPath>
 </defs>
</svg>
