<?xml version="1.0" encoding="utf-8" standalone="no"?>
<!DOCTYPE svg PUBLIC "-//W3C//DTD SVG 1.1//EN"
  "http://www.w3.org/Graphics/SVG/1.1/DTD/svg11.dtd">
<svg xmlns:xlink="http://www.w3.org/1999/xlink" width="968.023pt" height="700.466504pt" viewBox="0 0 968.023 700.466504" xmlns="http://www.w3.org/2000/svg" version="1.1">
 <metadata>
  <rdf:RDF xmlns:dc="http://purl.org/dc/elements/1.1/" xmlns:cc="http://creativecommons.org/ns#" xmlns:rdf="http://www.w3.org/1999/02/22-rdf-syntax-ns#">
   <cc:Work>
    <dc:type rdf:resource="http://purl.org/dc/dcmitype/StillImage"/>
    <dc:date>2025-02-03T23:32:08.755717</dc:date>
    <dc:format>image/svg+xml</dc:format>
    <dc:creator>
     <cc:Agent>
      <dc:title>Matplotlib v3.10.0, https://matplotlib.org/</dc:title>
     </cc:Agent>
    </dc:creator>
   </cc:Work>
  </rdf:RDF>
 </metadata>
 <defs>
  <style type="text/css">*{stroke-linejoin: round; stroke-linecap: butt}</style>
 </defs>
 <g id="figure_1">
  <g id="patch_1">
   <path d="M 0 700.466504 
L 968.023 700.466504 
L 968.023 0 
L 0 0 
z
" style="fill: #ffffff"/>
  </g>
  <g id="axes_1">
   <g id="patch_2">
    <path d="M 68.023 622.6035 
L 960.823 622.6035 
L 960.823 35.0835 
L 68.023 35.0835 
z
" style="fill: #ffffff"/>
   </g>
   <g id="FillBetweenPolyCollection_1">
    <defs>
     <path id="m6f96978faa" d="M 108.604818 -389.107812 
L 108.604818 -298.385556 
L 114.707347 -104.568459 
L 117.758612 -330.908609 
L 120.809876 -334.388057 
L 123.861141 -374.297341 
L 126.912405 -292.02065 
L 129.96367 -356.056664 
L 133.014934 -363.150088 
L 136.066199 -356.366405 
L 139.117463 -339.100705 
L 142.168728 -267.278632 
L 145.219992 -300.765543 
L 148.271257 -367.12814 
L 151.322522 -371.862058 
L 154.373786 -307.453678 
L 157.425051 -352.479895 
L 160.476315 -407.486207 
L 163.52758 -466.08318 
L 166.578844 -503.540676 
L 169.630109 -470.580899 
L 172.681373 -469.771687 
L 175.732638 -416.868159 
L 178.783902 -358.887311 
L 181.835167 -354.131101 
L 184.886431 -387.630103 
L 187.937696 -375.346308 
L 190.98896 -369.295717 
L 194.040225 -416.868159 
L 197.091489 -363.929124 
L 200.142754 -302.800053 
L 203.194018 -355.105951 
L 206.245283 -359.432104 
L 209.296548 -389.138188 
L 212.347812 -393.243674 
L 215.399077 -437.035411 
L 218.450341 -389.911179 
L 221.501606 -332.773935 
L 224.55287 -367.080058 
L 227.604135 -368.970937 
L 230.655399 -418.956288 
L 233.706664 -367.856999 
L 236.757928 -333.678247 
L 239.809193 -321.439217 
L 242.860457 -346.493394 
L 245.911722 -302.166916 
L 248.962986 -253.009241 
L 252.014251 -351.324592 
L 255.065515 -309.729635 
L 258.11678 -343.375823 
L 261.168044 -275.147419 
L 264.219309 -305.948276 
L 267.270573 -267.016784 
L 270.321838 -278.149505 
L 273.373103 -310.574926 
L 276.424367 -325.517219 
L 279.475632 -343.761872 
L 282.526896 -306.304147 
L 285.578161 -348.803685 
L 288.629425 -322.57107 
L 291.68069 -313.984237 
L 294.731954 -326.060969 
L 297.783219 -328.636434 
L 300.834483 -215.195644 
L 303.885748 -235.362895 
L 306.937012 -305.948276 
L 309.988277 -298.054287 
L 313.039541 -291.553637 
L 316.090806 -229.928699 
L 319.14207 -245.446521 
L 322.193335 -288.301931 
L 325.244599 -265.777059 
L 328.295864 -297.613518 
L 331.347129 -374.01275 
L 334.398393 -293.397231 
L 337.449658 -323.594621 
L 340.500922 -337.224029 
L 343.552187 -367.541449 
L 346.603451 -328.636434 
L 349.654716 -374.01275 
L 352.70598 -447.368407 
L 358.808509 -343.761872 
L 361.859774 -345.933361 
L 364.911038 -376.613664 
L 367.962303 -321.073714 
L 383.218625 -328.636434 
L 386.26989 -326.115527 
L 389.321154 -251.488644 
L 392.372419 -308.469182 
L 395.423684 -245.446521 
L 407.628742 -283.260118 
L 410.680006 -230.321083 
L 413.731271 -298.385556 
L 435.090122 -286.560783 
L 438.141387 -211.414284 
L 441.192651 -240.404708 
L 444.243916 -296.09276 
L 447.29518 -351.324592 
L 450.346445 -336.199153 
L 453.39771 -256.7906 
L 456.448974 -302.166916 
L 459.500239 -245.446521 
L 462.551503 -283.905063 
L 465.602768 -253.009241 
L 468.654032 -250.488334 
L 480.85909 -245.446521 
L 483.910355 -222.758363 
L 486.961619 -230.321083 
L 490.012884 -313.078218 
L 493.064148 -177.382047 
L 508.320471 -192.507486 
L 541.884381 -253.009241 
L 557.140703 -237.883802 
L 560.191968 -253.009241 
L 566.294497 -215.195644 
L 575.44829 -268.134679 
L 615.114729 -177.382047 
L 715.806459 -479.89082 
L 718.857723 -500.472905 
L 721.908988 -580.479035 
L 724.960252 -547.955294 
L 728.011517 -540.392575 
L 734.114046 -419.389066 
L 737.16531 -449.639943 
L 865.31842 -520.225323 
L 917.189917 -540.392575 
L 920.241182 -381.560281 
L 920.241182 -532.814667 
L 920.241182 -532.814667 
L 917.189917 -631.11483 
L 865.31842 -610.947579 
L 737.16531 -540.362199 
L 734.114046 -510.111321 
L 728.011517 -631.11483 
L 724.960252 -638.67755 
L 721.908988 -625.060607 
L 718.857723 -625.658184 
L 715.806459 -570.613076 
L 615.114729 -268.104303 
L 575.44829 -358.856935 
L 566.294497 -305.9179 
L 560.191968 -343.731496 
L 557.140703 -328.606058 
L 541.884381 -343.731496 
L 508.320471 -283.229742 
L 493.064148 -268.104303 
L 490.012884 -381.97787 
L 486.961619 -321.043338 
L 483.910355 -313.480619 
L 480.85909 -336.168777 
L 468.654032 -341.21059 
L 465.602768 -343.731496 
L 462.551503 -456.527341 
L 459.500239 -336.168777 
L 456.448974 -392.889172 
L 453.39771 -347.512856 
L 450.346445 -426.921409 
L 447.29518 -442.046847 
L 444.243916 -361.149731 
L 441.192651 -331.126964 
L 438.141387 -302.13654 
L 435.090122 -317.742673 
L 413.731271 -389.107812 
L 410.680006 -321.043338 
L 407.628742 -373.982374 
L 395.423684 -336.168777 
L 392.372419 -399.191438 
L 389.321154 -371.721611 
L 386.26989 -416.837783 
L 383.218625 -419.358689 
L 367.962303 -411.79597 
L 364.911038 -510.031313 
L 361.859774 -450.463166 
L 358.808509 -434.484128 
L 352.70598 -516.164216 
L 349.654716 -464.735005 
L 346.603451 -419.358689 
L 343.552187 -481.289932 
L 340.500922 -384.301577 
L 337.449658 -414.316877 
L 334.398393 -420.565655 
L 331.347129 -464.735005 
L 328.295864 -407.526195 
L 325.244599 -382.390169 
L 322.193335 -379.024186 
L 319.14207 -336.168777 
L 316.090806 -381.937476 
L 313.039541 -417.547501 
L 309.988277 -392.464169 
L 306.937012 -396.670532 
L 303.885748 -326.085151 
L 300.834483 -305.9179 
L 297.783219 -419.358689 
L 294.731954 -406.808715 
L 291.68069 -378.550945 
L 288.629425 -401.223351 
L 285.578161 -439.525941 
L 282.526896 -447.741152 
L 279.475632 -434.484128 
L 276.424367 -435.082437 
L 273.373103 -405.008543 
L 270.321838 -396.739332 
L 267.270573 -397.788426 
L 264.219309 -396.670532 
L 261.168044 -329.156037 
L 258.11678 -363.024344 
L 255.065515 -400.451891 
L 252.014251 -442.046847 
L 248.962986 -343.731496 
L 245.911722 -392.889172 
L 242.860457 -416.627168 
L 239.809193 -377.39823 
L 236.757928 -424.400502 
L 233.706664 -421.733081 
L 230.655399 -487.85594 
L 227.604135 -459.693192 
L 224.55287 -444.441908 
L 221.501606 -405.137563 
L 218.450341 -452.617935 
L 215.399077 -527.757666 
L 212.347812 -448.529169 
L 209.296548 -479.860444 
L 206.245283 -473.265476 
L 203.194018 -445.828207 
L 200.142754 -430.069632 
L 197.091489 -454.65138 
L 194.040225 -507.590415 
L 190.98896 -508.778179 
L 187.937696 -501.215043 
L 184.886431 -504.056687 
L 181.835167 -541.337049 
L 178.783902 -449.609567 
L 175.732638 -507.590415 
L 172.681373 -508.886375 
L 169.630109 -492.951725 
L 166.578844 -531.837781 
L 163.52758 -529.969137 
L 160.476315 -522.01418 
L 157.425051 -467.361062 
L 154.373786 -414.071928 
L 151.322522 -478.986048 
L 148.271257 -448.931457 
L 145.219992 -351.435135 
L 142.168728 -368.788245 
L 139.117463 -418.978044 
L 136.066199 -447.08866 
L 133.014934 -455.430415 
L 129.96367 -399.501179 
L 126.912405 -322.870613 
L 123.861141 -445.543616 
L 120.809876 -372.01211 
L 117.758612 -432.211953 
L 114.707347 -310.667014 
L 108.604818 -389.107812 
z
" style="stroke: #0000ff; stroke-opacity: 0.2"/>
    </defs>
    <g clip-path="url(#p0e34e47577)">
     <use xlink:href="#m6f96978faa" x="0" y="700.466504" style="fill: #0000ff; fill-opacity: 0.2; stroke: #0000ff; stroke-opacity: 0.2"/>
    </g>
   </g>
   <g id="matplotlib.axis_1">
    <g id="xtick_1">
     <g id="line2d_1">
      <path d="M 111.656083 622.6035 
L 111.656083 35.0835 
" clip-path="url(#p0e34e47577)" style="fill: none; stroke: #a5a391; stroke-opacity: 0.3; stroke-width: 0.8; stroke-linecap: square"/>
     </g>
     <g id="line2d_2">
      <defs>
       <path id="m24d810d621" d="M 0 0 
L 0 -3.5 
" style="stroke: #000000; stroke-width: 0.8"/>
      </defs>
      <g>
       <use xlink:href="#m24d810d621" x="111.656083" y="622.6035" style="stroke: #000000; stroke-width: 0.8"/>
      </g>
     </g>
     <g id="text_1">
      <!-- Jan 01, 20 -->
      <g transform="translate(22.281035 689.66438) rotate(-30) scale(0.2 -0.2)">
       <defs>
        <path id="DejaVuSans-4a" d="M 628 4666 
L 1259 4666 
L 1259 325 
Q 1259 -519 939 -900 
Q 619 -1281 -91 -1281 
L -331 -1281 
L -331 -750 
L -134 -750 
Q 284 -750 456 -515 
Q 628 -281 628 325 
L 628 4666 
z
" transform="scale(0.015625)"/>
        <path id="DejaVuSans-61" d="M 2194 1759 
Q 1497 1759 1228 1600 
Q 959 1441 959 1056 
Q 959 750 1161 570 
Q 1363 391 1709 391 
Q 2188 391 2477 730 
Q 2766 1069 2766 1631 
L 2766 1759 
L 2194 1759 
z
M 3341 1997 
L 3341 0 
L 2766 0 
L 2766 531 
Q 2569 213 2275 61 
Q 1981 -91 1556 -91 
Q 1019 -91 701 211 
Q 384 513 384 1019 
Q 384 1609 779 1909 
Q 1175 2209 1959 2209 
L 2766 2209 
L 2766 2266 
Q 2766 2663 2505 2880 
Q 2244 3097 1772 3097 
Q 1472 3097 1187 3025 
Q 903 2953 641 2809 
L 641 3341 
Q 956 3463 1253 3523 
Q 1550 3584 1831 3584 
Q 2591 3584 2966 3190 
Q 3341 2797 3341 1997 
z
" transform="scale(0.015625)"/>
        <path id="DejaVuSans-6e" d="M 3513 2113 
L 3513 0 
L 2938 0 
L 2938 2094 
Q 2938 2591 2744 2837 
Q 2550 3084 2163 3084 
Q 1697 3084 1428 2787 
Q 1159 2491 1159 1978 
L 1159 0 
L 581 0 
L 581 3500 
L 1159 3500 
L 1159 2956 
Q 1366 3272 1645 3428 
Q 1925 3584 2291 3584 
Q 2894 3584 3203 3211 
Q 3513 2838 3513 2113 
z
" transform="scale(0.015625)"/>
        <path id="DejaVuSans-20" transform="scale(0.015625)"/>
        <path id="DejaVuSans-30" d="M 2034 4250 
Q 1547 4250 1301 3770 
Q 1056 3291 1056 2328 
Q 1056 1369 1301 889 
Q 1547 409 2034 409 
Q 2525 409 2770 889 
Q 3016 1369 3016 2328 
Q 3016 3291 2770 3770 
Q 2525 4250 2034 4250 
z
M 2034 4750 
Q 2819 4750 3233 4129 
Q 3647 3509 3647 2328 
Q 3647 1150 3233 529 
Q 2819 -91 2034 -91 
Q 1250 -91 836 529 
Q 422 1150 422 2328 
Q 422 3509 836 4129 
Q 1250 4750 2034 4750 
z
" transform="scale(0.015625)"/>
        <path id="DejaVuSans-31" d="M 794 531 
L 1825 531 
L 1825 4091 
L 703 3866 
L 703 4441 
L 1819 4666 
L 2450 4666 
L 2450 531 
L 3481 531 
L 3481 0 
L 794 0 
L 794 531 
z
" transform="scale(0.015625)"/>
        <path id="DejaVuSans-2c" d="M 750 794 
L 1409 794 
L 1409 256 
L 897 -744 
L 494 -744 
L 750 256 
L 750 794 
z
" transform="scale(0.015625)"/>
        <path id="DejaVuSans-32" d="M 1228 531 
L 3431 531 
L 3431 0 
L 469 0 
L 469 531 
Q 828 903 1448 1529 
Q 2069 2156 2228 2338 
Q 2531 2678 2651 2914 
Q 2772 3150 2772 3378 
Q 2772 3750 2511 3984 
Q 2250 4219 1831 4219 
Q 1534 4219 1204 4116 
Q 875 4013 500 3803 
L 500 4441 
Q 881 4594 1212 4672 
Q 1544 4750 1819 4750 
Q 2544 4750 2975 4387 
Q 3406 4025 3406 3419 
Q 3406 3131 3298 2873 
Q 3191 2616 2906 2266 
Q 2828 2175 2409 1742 
Q 1991 1309 1228 531 
z
" transform="scale(0.015625)"/>
       </defs>
       <use xlink:href="#DejaVuSans-4a"/>
       <use xlink:href="#DejaVuSans-61" transform="translate(29.492188 0)"/>
       <use xlink:href="#DejaVuSans-6e" transform="translate(90.771484 0)"/>
       <use xlink:href="#DejaVuSans-20" transform="translate(154.150391 0)"/>
       <use xlink:href="#DejaVuSans-30" transform="translate(185.9375 0)"/>
       <use xlink:href="#DejaVuSans-31" transform="translate(249.560547 0)"/>
       <use xlink:href="#DejaVuSans-2c" transform="translate(313.183594 0)"/>
       <use xlink:href="#DejaVuSans-20" transform="translate(344.970703 0)"/>
       <use xlink:href="#DejaVuSans-32" transform="translate(376.757812 0)"/>
       <use xlink:href="#DejaVuSans-30" transform="translate(440.380859 0)"/>
      </g>
     </g>
    </g>
    <g id="xtick_2">
     <g id="line2d_3">
      <path d="M 271.193628 622.6035 
L 271.193628 35.0835 
" clip-path="url(#p0e34e47577)" style="fill: none; stroke: #a5a391; stroke-opacity: 0.3; stroke-width: 0.8; stroke-linecap: square"/>
     </g>
     <g id="line2d_4">
      <g>
       <use xlink:href="#m24d810d621" x="271.193628" y="622.6035" style="stroke: #000000; stroke-width: 0.8"/>
      </g>
     </g>
     <g id="text_2">
      <!-- Jan 01, 21 -->
      <g transform="translate(181.81858 689.66438) rotate(-30) scale(0.2 -0.2)">
       <use xlink:href="#DejaVuSans-4a"/>
       <use xlink:href="#DejaVuSans-61" transform="translate(29.492188 0)"/>
       <use xlink:href="#DejaVuSans-6e" transform="translate(90.771484 0)"/>
       <use xlink:href="#DejaVuSans-20" transform="translate(154.150391 0)"/>
       <use xlink:href="#DejaVuSans-30" transform="translate(185.9375 0)"/>
       <use xlink:href="#DejaVuSans-31" transform="translate(249.560547 0)"/>
       <use xlink:href="#DejaVuSans-2c" transform="translate(313.183594 0)"/>
       <use xlink:href="#DejaVuSans-20" transform="translate(344.970703 0)"/>
       <use xlink:href="#DejaVuSans-32" transform="translate(376.757812 0)"/>
       <use xlink:href="#DejaVuSans-31" transform="translate(440.380859 0)"/>
      </g>
     </g>
    </g>
    <g id="xtick_3">
     <g id="line2d_5">
      <path d="M 430.295278 622.6035 
L 430.295278 35.0835 
" clip-path="url(#p0e34e47577)" style="fill: none; stroke: #a5a391; stroke-opacity: 0.3; stroke-width: 0.8; stroke-linecap: square"/>
     </g>
     <g id="line2d_6">
      <g>
       <use xlink:href="#m24d810d621" x="430.295278" y="622.6035" style="stroke: #000000; stroke-width: 0.8"/>
      </g>
     </g>
     <g id="text_3">
      <!-- Jan 01, 22 -->
      <g transform="translate(340.92023 689.66438) rotate(-30) scale(0.2 -0.2)">
       <use xlink:href="#DejaVuSans-4a"/>
       <use xlink:href="#DejaVuSans-61" transform="translate(29.492188 0)"/>
       <use xlink:href="#DejaVuSans-6e" transform="translate(90.771484 0)"/>
       <use xlink:href="#DejaVuSans-20" transform="translate(154.150391 0)"/>
       <use xlink:href="#DejaVuSans-30" transform="translate(185.9375 0)"/>
       <use xlink:href="#DejaVuSans-31" transform="translate(249.560547 0)"/>
       <use xlink:href="#DejaVuSans-2c" transform="translate(313.183594 0)"/>
       <use xlink:href="#DejaVuSans-20" transform="translate(344.970703 0)"/>
       <use xlink:href="#DejaVuSans-32" transform="translate(376.757812 0)"/>
       <use xlink:href="#DejaVuSans-32" transform="translate(440.380859 0)"/>
      </g>
     </g>
    </g>
    <g id="xtick_4">
     <g id="line2d_7">
      <path d="M 589.396928 622.6035 
L 589.396928 35.0835 
" clip-path="url(#p0e34e47577)" style="fill: none; stroke: #a5a391; stroke-opacity: 0.3; stroke-width: 0.8; stroke-linecap: square"/>
     </g>
     <g id="line2d_8">
      <g>
       <use xlink:href="#m24d810d621" x="589.396928" y="622.6035" style="stroke: #000000; stroke-width: 0.8"/>
      </g>
     </g>
     <g id="text_4">
      <!-- Jan 01, 23 -->
      <g transform="translate(500.02188 689.66438) rotate(-30) scale(0.2 -0.2)">
       <defs>
        <path id="DejaVuSans-33" d="M 2597 2516 
Q 3050 2419 3304 2112 
Q 3559 1806 3559 1356 
Q 3559 666 3084 287 
Q 2609 -91 1734 -91 
Q 1441 -91 1130 -33 
Q 819 25 488 141 
L 488 750 
Q 750 597 1062 519 
Q 1375 441 1716 441 
Q 2309 441 2620 675 
Q 2931 909 2931 1356 
Q 2931 1769 2642 2001 
Q 2353 2234 1838 2234 
L 1294 2234 
L 1294 2753 
L 1863 2753 
Q 2328 2753 2575 2939 
Q 2822 3125 2822 3475 
Q 2822 3834 2567 4026 
Q 2313 4219 1838 4219 
Q 1578 4219 1281 4162 
Q 984 4106 628 3988 
L 628 4550 
Q 988 4650 1302 4700 
Q 1616 4750 1894 4750 
Q 2613 4750 3031 4423 
Q 3450 4097 3450 3541 
Q 3450 3153 3228 2886 
Q 3006 2619 2597 2516 
z
" transform="scale(0.015625)"/>
       </defs>
       <use xlink:href="#DejaVuSans-4a"/>
       <use xlink:href="#DejaVuSans-61" transform="translate(29.492188 0)"/>
       <use xlink:href="#DejaVuSans-6e" transform="translate(90.771484 0)"/>
       <use xlink:href="#DejaVuSans-20" transform="translate(154.150391 0)"/>
       <use xlink:href="#DejaVuSans-30" transform="translate(185.9375 0)"/>
       <use xlink:href="#DejaVuSans-31" transform="translate(249.560547 0)"/>
       <use xlink:href="#DejaVuSans-2c" transform="translate(313.183594 0)"/>
       <use xlink:href="#DejaVuSans-20" transform="translate(344.970703 0)"/>
       <use xlink:href="#DejaVuSans-32" transform="translate(376.757812 0)"/>
       <use xlink:href="#DejaVuSans-33" transform="translate(440.380859 0)"/>
      </g>
     </g>
    </g>
    <g id="xtick_5">
     <g id="line2d_9">
      <path d="M 748.498579 622.6035 
L 748.498579 35.0835 
" clip-path="url(#p0e34e47577)" style="fill: none; stroke: #a5a391; stroke-opacity: 0.3; stroke-width: 0.8; stroke-linecap: square"/>
     </g>
     <g id="line2d_10">
      <g>
       <use xlink:href="#m24d810d621" x="748.498579" y="622.6035" style="stroke: #000000; stroke-width: 0.8"/>
      </g>
     </g>
     <g id="text_5">
      <!-- Jan 01, 24 -->
      <g transform="translate(659.12353 689.66438) rotate(-30) scale(0.2 -0.2)">
       <defs>
        <path id="DejaVuSans-34" d="M 2419 4116 
L 825 1625 
L 2419 1625 
L 2419 4116 
z
M 2253 4666 
L 3047 4666 
L 3047 1625 
L 3713 1625 
L 3713 1100 
L 3047 1100 
L 3047 0 
L 2419 0 
L 2419 1100 
L 313 1100 
L 313 1709 
L 2253 4666 
z
" transform="scale(0.015625)"/>
       </defs>
       <use xlink:href="#DejaVuSans-4a"/>
       <use xlink:href="#DejaVuSans-61" transform="translate(29.492188 0)"/>
       <use xlink:href="#DejaVuSans-6e" transform="translate(90.771484 0)"/>
       <use xlink:href="#DejaVuSans-20" transform="translate(154.150391 0)"/>
       <use xlink:href="#DejaVuSans-30" transform="translate(185.9375 0)"/>
       <use xlink:href="#DejaVuSans-31" transform="translate(249.560547 0)"/>
       <use xlink:href="#DejaVuSans-2c" transform="translate(313.183594 0)"/>
       <use xlink:href="#DejaVuSans-20" transform="translate(344.970703 0)"/>
       <use xlink:href="#DejaVuSans-32" transform="translate(376.757812 0)"/>
       <use xlink:href="#DejaVuSans-34" transform="translate(440.380859 0)"/>
      </g>
     </g>
    </g>
    <g id="xtick_6">
     <g id="line2d_11">
      <path d="M 908.036124 622.6035 
L 908.036124 35.0835 
" clip-path="url(#p0e34e47577)" style="fill: none; stroke: #a5a391; stroke-opacity: 0.3; stroke-width: 0.8; stroke-linecap: square"/>
     </g>
     <g id="line2d_12">
      <g>
       <use xlink:href="#m24d810d621" x="908.036124" y="622.6035" style="stroke: #000000; stroke-width: 0.8"/>
      </g>
     </g>
     <g id="text_6">
      <!-- Jan 01, 25 -->
      <g transform="translate(818.661076 689.66438) rotate(-30) scale(0.2 -0.2)">
       <defs>
        <path id="DejaVuSans-35" d="M 691 4666 
L 3169 4666 
L 3169 4134 
L 1269 4134 
L 1269 2991 
Q 1406 3038 1543 3061 
Q 1681 3084 1819 3084 
Q 2600 3084 3056 2656 
Q 3513 2228 3513 1497 
Q 3513 744 3044 326 
Q 2575 -91 1722 -91 
Q 1428 -91 1123 -41 
Q 819 9 494 109 
L 494 744 
Q 775 591 1075 516 
Q 1375 441 1709 441 
Q 2250 441 2565 725 
Q 2881 1009 2881 1497 
Q 2881 1984 2565 2268 
Q 2250 2553 1709 2553 
Q 1456 2553 1204 2497 
Q 953 2441 691 2322 
L 691 4666 
z
" transform="scale(0.015625)"/>
       </defs>
       <use xlink:href="#DejaVuSans-4a"/>
       <use xlink:href="#DejaVuSans-61" transform="translate(29.492188 0)"/>
       <use xlink:href="#DejaVuSans-6e" transform="translate(90.771484 0)"/>
       <use xlink:href="#DejaVuSans-20" transform="translate(154.150391 0)"/>
       <use xlink:href="#DejaVuSans-30" transform="translate(185.9375 0)"/>
       <use xlink:href="#DejaVuSans-31" transform="translate(249.560547 0)"/>
       <use xlink:href="#DejaVuSans-2c" transform="translate(313.183594 0)"/>
       <use xlink:href="#DejaVuSans-20" transform="translate(344.970703 0)"/>
       <use xlink:href="#DejaVuSans-32" transform="translate(376.757812 0)"/>
       <use xlink:href="#DejaVuSans-35" transform="translate(440.380859 0)"/>
      </g>
     </g>
    </g>
   </g>
   <g id="matplotlib.axis_2">
    <g id="ytick_1">
     <g id="line2d_13">
      <path d="M 68.023 621.414996 
L 960.823 621.414996 
" clip-path="url(#p0e34e47577)" style="fill: none; stroke: #a5a391; stroke-opacity: 0.3; stroke-width: 0.8; stroke-linecap: square"/>
     </g>
     <g id="line2d_14">
      <defs>
       <path id="m08a920488d" d="M 0 0 
L 3.5 0 
" style="stroke: #000000; stroke-width: 0.8"/>
      </defs>
      <g>
       <use xlink:href="#m08a920488d" x="68.023" y="621.414996" style="stroke: #000000; stroke-width: 0.8"/>
      </g>
     </g>
     <g id="text_7">
      <!-- 52 -->
      <g transform="translate(39.073 629.013434) scale(0.2 -0.2)">
       <use xlink:href="#DejaVuSans-35"/>
       <use xlink:href="#DejaVuSans-32" transform="translate(63.623047 0)"/>
      </g>
     </g>
    </g>
    <g id="ytick_2">
     <g id="line2d_15">
      <path d="M 68.023 545.787803 
L 960.823 545.787803 
" clip-path="url(#p0e34e47577)" style="fill: none; stroke: #a5a391; stroke-opacity: 0.3; stroke-width: 0.8; stroke-linecap: square"/>
     </g>
     <g id="line2d_16">
      <g>
       <use xlink:href="#m08a920488d" x="68.023" y="545.787803" style="stroke: #000000; stroke-width: 0.8"/>
      </g>
     </g>
     <g id="text_8">
      <!-- 53 -->
      <g transform="translate(39.073 553.38624) scale(0.2 -0.2)">
       <use xlink:href="#DejaVuSans-35"/>
       <use xlink:href="#DejaVuSans-33" transform="translate(63.623047 0)"/>
      </g>
     </g>
    </g>
    <g id="ytick_3">
     <g id="line2d_17">
      <path d="M 68.023 470.16061 
L 960.823 470.16061 
" clip-path="url(#p0e34e47577)" style="fill: none; stroke: #a5a391; stroke-opacity: 0.3; stroke-width: 0.8; stroke-linecap: square"/>
     </g>
     <g id="line2d_18">
      <g>
       <use xlink:href="#m08a920488d" x="68.023" y="470.16061" style="stroke: #000000; stroke-width: 0.8"/>
      </g>
     </g>
     <g id="text_9">
      <!-- 54 -->
      <g transform="translate(39.073 477.759047) scale(0.2 -0.2)">
       <use xlink:href="#DejaVuSans-35"/>
       <use xlink:href="#DejaVuSans-34" transform="translate(63.623047 0)"/>
      </g>
     </g>
    </g>
    <g id="ytick_4">
     <g id="line2d_19">
      <path d="M 68.023 394.533416 
L 960.823 394.533416 
" clip-path="url(#p0e34e47577)" style="fill: none; stroke: #a5a391; stroke-opacity: 0.3; stroke-width: 0.8; stroke-linecap: square"/>
     </g>
     <g id="line2d_20">
      <g>
       <use xlink:href="#m08a920488d" x="68.023" y="394.533416" style="stroke: #000000; stroke-width: 0.8"/>
      </g>
     </g>
     <g id="text_10">
      <!-- 55 -->
      <g transform="translate(39.073 402.131854) scale(0.2 -0.2)">
       <use xlink:href="#DejaVuSans-35"/>
       <use xlink:href="#DejaVuSans-35" transform="translate(63.623047 0)"/>
      </g>
     </g>
    </g>
    <g id="ytick_5">
     <g id="line2d_21">
      <path d="M 68.023 318.906223 
L 960.823 318.906223 
" clip-path="url(#p0e34e47577)" style="fill: none; stroke: #a5a391; stroke-opacity: 0.3; stroke-width: 0.8; stroke-linecap: square"/>
     </g>
     <g id="line2d_22">
      <g>
       <use xlink:href="#m08a920488d" x="68.023" y="318.906223" style="stroke: #000000; stroke-width: 0.8"/>
      </g>
     </g>
     <g id="text_11">
      <!-- 56 -->
      <g transform="translate(39.073 326.504661) scale(0.2 -0.2)">
       <defs>
        <path id="DejaVuSans-36" d="M 2113 2584 
Q 1688 2584 1439 2293 
Q 1191 2003 1191 1497 
Q 1191 994 1439 701 
Q 1688 409 2113 409 
Q 2538 409 2786 701 
Q 3034 994 3034 1497 
Q 3034 2003 2786 2293 
Q 2538 2584 2113 2584 
z
M 3366 4563 
L 3366 3988 
Q 3128 4100 2886 4159 
Q 2644 4219 2406 4219 
Q 1781 4219 1451 3797 
Q 1122 3375 1075 2522 
Q 1259 2794 1537 2939 
Q 1816 3084 2150 3084 
Q 2853 3084 3261 2657 
Q 3669 2231 3669 1497 
Q 3669 778 3244 343 
Q 2819 -91 2113 -91 
Q 1303 -91 875 529 
Q 447 1150 447 2328 
Q 447 3434 972 4092 
Q 1497 4750 2381 4750 
Q 2619 4750 2861 4703 
Q 3103 4656 3366 4563 
z
" transform="scale(0.015625)"/>
       </defs>
       <use xlink:href="#DejaVuSans-35"/>
       <use xlink:href="#DejaVuSans-36" transform="translate(63.623047 0)"/>
      </g>
     </g>
    </g>
    <g id="ytick_6">
     <g id="line2d_23">
      <path d="M 68.023 243.27903 
L 960.823 243.27903 
" clip-path="url(#p0e34e47577)" style="fill: none; stroke: #a5a391; stroke-opacity: 0.3; stroke-width: 0.8; stroke-linecap: square"/>
     </g>
     <g id="line2d_24">
      <g>
       <use xlink:href="#m08a920488d" x="68.023" y="243.27903" style="stroke: #000000; stroke-width: 0.8"/>
      </g>
     </g>
     <g id="text_12">
      <!-- 57 -->
      <g transform="translate(39.073 250.877468) scale(0.2 -0.2)">
       <defs>
        <path id="DejaVuSans-37" d="M 525 4666 
L 3525 4666 
L 3525 4397 
L 1831 0 
L 1172 0 
L 2766 4134 
L 525 4134 
L 525 4666 
z
" transform="scale(0.015625)"/>
       </defs>
       <use xlink:href="#DejaVuSans-35"/>
       <use xlink:href="#DejaVuSans-37" transform="translate(63.623047 0)"/>
      </g>
     </g>
    </g>
    <g id="ytick_7">
     <g id="line2d_25">
      <path d="M 68.023 167.651837 
L 960.823 167.651837 
" clip-path="url(#p0e34e47577)" style="fill: none; stroke: #a5a391; stroke-opacity: 0.3; stroke-width: 0.8; stroke-linecap: square"/>
     </g>
     <g id="line2d_26">
      <g>
       <use xlink:href="#m08a920488d" x="68.023" y="167.651837" style="stroke: #000000; stroke-width: 0.8"/>
      </g>
     </g>
     <g id="text_13">
      <!-- 58 -->
      <g transform="translate(39.073 175.250274) scale(0.2 -0.2)">
       <defs>
        <path id="DejaVuSans-38" d="M 2034 2216 
Q 1584 2216 1326 1975 
Q 1069 1734 1069 1313 
Q 1069 891 1326 650 
Q 1584 409 2034 409 
Q 2484 409 2743 651 
Q 3003 894 3003 1313 
Q 3003 1734 2745 1975 
Q 2488 2216 2034 2216 
z
M 1403 2484 
Q 997 2584 770 2862 
Q 544 3141 544 3541 
Q 544 4100 942 4425 
Q 1341 4750 2034 4750 
Q 2731 4750 3128 4425 
Q 3525 4100 3525 3541 
Q 3525 3141 3298 2862 
Q 3072 2584 2669 2484 
Q 3125 2378 3379 2068 
Q 3634 1759 3634 1313 
Q 3634 634 3220 271 
Q 2806 -91 2034 -91 
Q 1263 -91 848 271 
Q 434 634 434 1313 
Q 434 1759 690 2068 
Q 947 2378 1403 2484 
z
M 1172 3481 
Q 1172 3119 1398 2916 
Q 1625 2713 2034 2713 
Q 2441 2713 2670 2916 
Q 2900 3119 2900 3481 
Q 2900 3844 2670 4047 
Q 2441 4250 2034 4250 
Q 1625 4250 1398 4047 
Q 1172 3844 1172 3481 
z
" transform="scale(0.015625)"/>
       </defs>
       <use xlink:href="#DejaVuSans-35"/>
       <use xlink:href="#DejaVuSans-38" transform="translate(63.623047 0)"/>
      </g>
     </g>
    </g>
    <g id="ytick_8">
     <g id="line2d_27">
      <path d="M 68.023 92.024644 
L 960.823 92.024644 
" clip-path="url(#p0e34e47577)" style="fill: none; stroke: #a5a391; stroke-opacity: 0.3; stroke-width: 0.8; stroke-linecap: square"/>
     </g>
     <g id="line2d_28">
      <g>
       <use xlink:href="#m08a920488d" x="68.023" y="92.024644" style="stroke: #000000; stroke-width: 0.8"/>
      </g>
     </g>
     <g id="text_14">
      <!-- 59 -->
      <g transform="translate(39.073 99.623081) scale(0.2 -0.2)">
       <defs>
        <path id="DejaVuSans-39" d="M 703 97 
L 703 672 
Q 941 559 1184 500 
Q 1428 441 1663 441 
Q 2288 441 2617 861 
Q 2947 1281 2994 2138 
Q 2813 1869 2534 1725 
Q 2256 1581 1919 1581 
Q 1219 1581 811 2004 
Q 403 2428 403 3163 
Q 403 3881 828 4315 
Q 1253 4750 1959 4750 
Q 2769 4750 3195 4129 
Q 3622 3509 3622 2328 
Q 3622 1225 3098 567 
Q 2575 -91 1691 -91 
Q 1453 -91 1209 -44 
Q 966 3 703 97 
z
M 1959 2075 
Q 2384 2075 2632 2365 
Q 2881 2656 2881 3163 
Q 2881 3666 2632 3958 
Q 2384 4250 1959 4250 
Q 1534 4250 1286 3958 
Q 1038 3666 1038 3163 
Q 1038 2656 1286 2365 
Q 1534 2075 1959 2075 
z
" transform="scale(0.015625)"/>
       </defs>
       <use xlink:href="#DejaVuSans-35"/>
       <use xlink:href="#DejaVuSans-39" transform="translate(63.623047 0)"/>
      </g>
     </g>
    </g>
    <g id="text_15">
     <!-- Water Percentage [%] -->
     <g transform="translate(29.0835 486.4785) rotate(-90) scale(0.288 -0.288)">
      <defs>
       <path id="DejaVuSans-57" d="M 213 4666 
L 850 4666 
L 1831 722 
L 2809 4666 
L 3519 4666 
L 4500 722 
L 5478 4666 
L 6119 4666 
L 4947 0 
L 4153 0 
L 3169 4050 
L 2175 0 
L 1381 0 
L 213 4666 
z
" transform="scale(0.015625)"/>
       <path id="DejaVuSans-74" d="M 1172 4494 
L 1172 3500 
L 2356 3500 
L 2356 3053 
L 1172 3053 
L 1172 1153 
Q 1172 725 1289 603 
Q 1406 481 1766 481 
L 2356 481 
L 2356 0 
L 1766 0 
Q 1100 0 847 248 
Q 594 497 594 1153 
L 594 3053 
L 172 3053 
L 172 3500 
L 594 3500 
L 594 4494 
L 1172 4494 
z
" transform="scale(0.015625)"/>
       <path id="DejaVuSans-65" d="M 3597 1894 
L 3597 1613 
L 953 1613 
Q 991 1019 1311 708 
Q 1631 397 2203 397 
Q 2534 397 2845 478 
Q 3156 559 3463 722 
L 3463 178 
Q 3153 47 2828 -22 
Q 2503 -91 2169 -91 
Q 1331 -91 842 396 
Q 353 884 353 1716 
Q 353 2575 817 3079 
Q 1281 3584 2069 3584 
Q 2775 3584 3186 3129 
Q 3597 2675 3597 1894 
z
M 3022 2063 
Q 3016 2534 2758 2815 
Q 2500 3097 2075 3097 
Q 1594 3097 1305 2825 
Q 1016 2553 972 2059 
L 3022 2063 
z
" transform="scale(0.015625)"/>
       <path id="DejaVuSans-72" d="M 2631 2963 
Q 2534 3019 2420 3045 
Q 2306 3072 2169 3072 
Q 1681 3072 1420 2755 
Q 1159 2438 1159 1844 
L 1159 0 
L 581 0 
L 581 3500 
L 1159 3500 
L 1159 2956 
Q 1341 3275 1631 3429 
Q 1922 3584 2338 3584 
Q 2397 3584 2469 3576 
Q 2541 3569 2628 3553 
L 2631 2963 
z
" transform="scale(0.015625)"/>
       <path id="DejaVuSans-50" d="M 1259 4147 
L 1259 2394 
L 2053 2394 
Q 2494 2394 2734 2622 
Q 2975 2850 2975 3272 
Q 2975 3691 2734 3919 
Q 2494 4147 2053 4147 
L 1259 4147 
z
M 628 4666 
L 2053 4666 
Q 2838 4666 3239 4311 
Q 3641 3956 3641 3272 
Q 3641 2581 3239 2228 
Q 2838 1875 2053 1875 
L 1259 1875 
L 1259 0 
L 628 0 
L 628 4666 
z
" transform="scale(0.015625)"/>
       <path id="DejaVuSans-63" d="M 3122 3366 
L 3122 2828 
Q 2878 2963 2633 3030 
Q 2388 3097 2138 3097 
Q 1578 3097 1268 2742 
Q 959 2388 959 1747 
Q 959 1106 1268 751 
Q 1578 397 2138 397 
Q 2388 397 2633 464 
Q 2878 531 3122 666 
L 3122 134 
Q 2881 22 2623 -34 
Q 2366 -91 2075 -91 
Q 1284 -91 818 406 
Q 353 903 353 1747 
Q 353 2603 823 3093 
Q 1294 3584 2113 3584 
Q 2378 3584 2631 3529 
Q 2884 3475 3122 3366 
z
" transform="scale(0.015625)"/>
       <path id="DejaVuSans-67" d="M 2906 1791 
Q 2906 2416 2648 2759 
Q 2391 3103 1925 3103 
Q 1463 3103 1205 2759 
Q 947 2416 947 1791 
Q 947 1169 1205 825 
Q 1463 481 1925 481 
Q 2391 481 2648 825 
Q 2906 1169 2906 1791 
z
M 3481 434 
Q 3481 -459 3084 -895 
Q 2688 -1331 1869 -1331 
Q 1566 -1331 1297 -1286 
Q 1028 -1241 775 -1147 
L 775 -588 
Q 1028 -725 1275 -790 
Q 1522 -856 1778 -856 
Q 2344 -856 2625 -561 
Q 2906 -266 2906 331 
L 2906 616 
Q 2728 306 2450 153 
Q 2172 0 1784 0 
Q 1141 0 747 490 
Q 353 981 353 1791 
Q 353 2603 747 3093 
Q 1141 3584 1784 3584 
Q 2172 3584 2450 3431 
Q 2728 3278 2906 2969 
L 2906 3500 
L 3481 3500 
L 3481 434 
z
" transform="scale(0.015625)"/>
       <path id="DejaVuSans-5b" d="M 550 4863 
L 1875 4863 
L 1875 4416 
L 1125 4416 
L 1125 -397 
L 1875 -397 
L 1875 -844 
L 550 -844 
L 550 4863 
z
" transform="scale(0.015625)"/>
       <path id="DejaVuSans-25" d="M 4653 2053 
Q 4381 2053 4226 1822 
Q 4072 1591 4072 1178 
Q 4072 772 4226 539 
Q 4381 306 4653 306 
Q 4919 306 5073 539 
Q 5228 772 5228 1178 
Q 5228 1588 5073 1820 
Q 4919 2053 4653 2053 
z
M 4653 2450 
Q 5147 2450 5437 2106 
Q 5728 1763 5728 1178 
Q 5728 594 5436 251 
Q 5144 -91 4653 -91 
Q 4153 -91 3862 251 
Q 3572 594 3572 1178 
Q 3572 1766 3864 2108 
Q 4156 2450 4653 2450 
z
M 1428 4353 
Q 1159 4353 1004 4120 
Q 850 3888 850 3481 
Q 850 3069 1003 2837 
Q 1156 2606 1428 2606 
Q 1700 2606 1854 2837 
Q 2009 3069 2009 3481 
Q 2009 3884 1853 4118 
Q 1697 4353 1428 4353 
z
M 4250 4750 
L 4750 4750 
L 1831 -91 
L 1331 -91 
L 4250 4750 
z
M 1428 4750 
Q 1922 4750 2215 4408 
Q 2509 4066 2509 3481 
Q 2509 2891 2217 2550 
Q 1925 2209 1428 2209 
Q 931 2209 642 2551 
Q 353 2894 353 3481 
Q 353 4063 643 4406 
Q 934 4750 1428 4750 
z
" transform="scale(0.015625)"/>
       <path id="DejaVuSans-5d" d="M 1947 4863 
L 1947 -844 
L 622 -844 
L 622 -397 
L 1369 -397 
L 1369 4416 
L 622 4416 
L 622 4863 
L 1947 4863 
z
" transform="scale(0.015625)"/>
      </defs>
      <use xlink:href="#DejaVuSans-57"/>
      <use xlink:href="#DejaVuSans-61" transform="translate(92.501953 0)"/>
      <use xlink:href="#DejaVuSans-74" transform="translate(153.78125 0)"/>
      <use xlink:href="#DejaVuSans-65" transform="translate(192.990234 0)"/>
      <use xlink:href="#DejaVuSans-72" transform="translate(254.513672 0)"/>
      <use xlink:href="#DejaVuSans-20" transform="translate(295.626953 0)"/>
      <use xlink:href="#DejaVuSans-50" transform="translate(327.414062 0)"/>
      <use xlink:href="#DejaVuSans-65" transform="translate(384.091797 0)"/>
      <use xlink:href="#DejaVuSans-72" transform="translate(445.615234 0)"/>
      <use xlink:href="#DejaVuSans-63" transform="translate(484.478516 0)"/>
      <use xlink:href="#DejaVuSans-65" transform="translate(539.458984 0)"/>
      <use xlink:href="#DejaVuSans-6e" transform="translate(600.982422 0)"/>
      <use xlink:href="#DejaVuSans-74" transform="translate(664.361328 0)"/>
      <use xlink:href="#DejaVuSans-61" transform="translate(703.570312 0)"/>
      <use xlink:href="#DejaVuSans-67" transform="translate(764.849609 0)"/>
      <use xlink:href="#DejaVuSans-65" transform="translate(828.326172 0)"/>
      <use xlink:href="#DejaVuSans-20" transform="translate(889.849609 0)"/>
      <use xlink:href="#DejaVuSans-5b" transform="translate(921.636719 0)"/>
      <use xlink:href="#DejaVuSans-25" transform="translate(960.650391 0)"/>
      <use xlink:href="#DejaVuSans-5d" transform="translate(1055.669922 0)"/>
     </g>
    </g>
   </g>
   <g id="line2d_29">
    <path d="M 108.604818 356.71982 
L 114.707347 492.848768 
L 117.758612 318.906223 
L 120.809876 347.266421 
L 123.861141 290.546026 
L 126.912405 393.020873 
L 129.96367 322.687583 
L 133.014934 291.176252 
L 136.066199 298.738972 
L 139.117463 321.42713 
L 142.168728 382.433066 
L 145.219992 374.366165 
L 148.271257 292.436706 
L 151.322522 275.042451 
L 154.373786 339.703701 
L 157.425051 290.546026 
L 160.476315 235.716311 
L 163.52758 202.440346 
L 166.578844 182.777276 
L 169.630109 218.700192 
L 172.681373 211.137473 
L 175.732638 238.237217 
L 178.783902 296.218065 
L 181.835167 252.732429 
L 184.886431 254.623109 
L 187.937696 262.185828 
L 190.98896 261.429557 
L 194.040225 238.237217 
L 197.091489 291.176252 
L 200.142754 334.031662 
L 203.194018 299.999425 
L 206.245283 284.117714 
L 209.296548 265.967188 
L 212.347812 279.580083 
L 215.399077 218.069966 
L 218.450341 279.201947 
L 221.501606 331.510756 
L 224.55287 294.705522 
L 227.604135 286.13444 
L 230.655399 247.06039 
L 233.706664 305.671465 
L 236.757928 321.42713 
L 239.809193 351.04778 
L 242.860457 318.906223 
L 245.911722 352.93846 
L 248.962986 402.096136 
L 252.014251 303.780785 
L 255.065515 345.375741 
L 258.11678 347.266421 
L 261.168044 398.314776 
L 264.219309 349.157101 
L 267.270573 368.063899 
L 270.321838 363.022086 
L 273.373103 342.67477 
L 276.424367 320.166677 
L 279.475632 311.343504 
L 282.526896 323.443855 
L 285.578161 306.301691 
L 288.629425 338.569294 
L 291.68069 354.198913 
L 294.731954 334.031662 
L 297.783219 326.468943 
L 300.834483 439.909732 
L 303.885748 419.742481 
L 306.937012 349.157101 
L 309.988277 355.207276 
L 313.039541 345.915935 
L 316.090806 394.533416 
L 319.14207 409.658855 
L 322.193335 366.803446 
L 325.244599 376.38289 
L 328.295864 347.896647 
L 331.347129 281.092627 
L 334.398393 343.485061 
L 337.449658 331.510756 
L 340.500922 339.703701 
L 343.552187 276.050814 
L 346.603451 326.468943 
L 349.654716 281.092627 
L 352.70598 218.700192 
L 358.808509 311.343504 
L 361.859774 302.268241 
L 364.911038 257.144016 
L 367.962303 334.031662 
L 383.218625 326.468943 
L 386.26989 328.989849 
L 389.321154 388.861377 
L 392.372419 346.636194 
L 395.423684 409.658855 
L 407.628742 371.845259 
L 410.680006 424.784294 
L 413.731271 356.71982 
L 435.090122 398.314776 
L 438.141387 443.691092 
L 441.192651 414.700668 
L 444.243916 371.845259 
L 447.29518 303.780785 
L 450.346445 318.906223 
L 453.39771 398.314776 
L 456.448974 352.93846 
L 459.500239 409.658855 
L 462.551503 330.250302 
L 465.602768 402.096136 
L 468.654032 404.617042 
L 480.85909 409.658855 
L 483.910355 432.347013 
L 486.961619 424.784294 
L 490.012884 352.93846 
L 493.064148 477.723329 
L 508.320471 462.59789 
L 541.884381 402.096136 
L 557.140703 417.221574 
L 560.191968 402.096136 
L 566.294497 439.909732 
L 575.44829 386.970697 
L 615.114729 477.723329 
L 715.806459 175.214556 
L 718.857723 137.40096 
L 721.908988 97.696683 
L 724.960252 107.150082 
L 728.011517 114.712802 
L 734.114046 235.716311 
L 737.16531 205.465434 
L 865.31842 134.880053 
L 917.189917 114.712802 
L 920.241182 243.27903 
" clip-path="url(#p0e34e47577)" style="fill: none; stroke: #0000ff; stroke-width: 1.5; stroke-linecap: square"/>
    <defs>
     <path id="m435ac15dc1" d="M 0 -3 
L -0.673542 -0.927051 
L -2.85317 -0.927051 
L -1.089814 0.354102 
L -1.763356 2.427051 
L -0 1.145898 
L 1.763356 2.427051 
L 1.089814 0.354102 
L 2.85317 -0.927051 
L 0.673542 -0.927051 
z
" style="stroke: #0000ff; stroke-linejoin: bevel"/>
    </defs>
    <g clip-path="url(#p0e34e47577)">
     <use xlink:href="#m435ac15dc1" x="108.604818" y="356.71982" style="fill: #0000ff; stroke: #0000ff; stroke-linejoin: bevel"/>
     <use xlink:href="#m435ac15dc1" x="114.707347" y="492.848768" style="fill: #0000ff; stroke: #0000ff; stroke-linejoin: bevel"/>
     <use xlink:href="#m435ac15dc1" x="117.758612" y="318.906223" style="fill: #0000ff; stroke: #0000ff; stroke-linejoin: bevel"/>
     <use xlink:href="#m435ac15dc1" x="120.809876" y="347.266421" style="fill: #0000ff; stroke: #0000ff; stroke-linejoin: bevel"/>
     <use xlink:href="#m435ac15dc1" x="123.861141" y="290.546026" style="fill: #0000ff; stroke: #0000ff; stroke-linejoin: bevel"/>
     <use xlink:href="#m435ac15dc1" x="126.912405" y="393.020873" style="fill: #0000ff; stroke: #0000ff; stroke-linejoin: bevel"/>
     <use xlink:href="#m435ac15dc1" x="129.96367" y="322.687583" style="fill: #0000ff; stroke: #0000ff; stroke-linejoin: bevel"/>
     <use xlink:href="#m435ac15dc1" x="133.014934" y="291.176252" style="fill: #0000ff; stroke: #0000ff; stroke-linejoin: bevel"/>
     <use xlink:href="#m435ac15dc1" x="136.066199" y="298.738972" style="fill: #0000ff; stroke: #0000ff; stroke-linejoin: bevel"/>
     <use xlink:href="#m435ac15dc1" x="139.117463" y="321.42713" style="fill: #0000ff; stroke: #0000ff; stroke-linejoin: bevel"/>
     <use xlink:href="#m435ac15dc1" x="142.168728" y="382.433066" style="fill: #0000ff; stroke: #0000ff; stroke-linejoin: bevel"/>
     <use xlink:href="#m435ac15dc1" x="145.219992" y="374.366165" style="fill: #0000ff; stroke: #0000ff; stroke-linejoin: bevel"/>
     <use xlink:href="#m435ac15dc1" x="148.271257" y="292.436706" style="fill: #0000ff; stroke: #0000ff; stroke-linejoin: bevel"/>
     <use xlink:href="#m435ac15dc1" x="151.322522" y="275.042451" style="fill: #0000ff; stroke: #0000ff; stroke-linejoin: bevel"/>
     <use xlink:href="#m435ac15dc1" x="154.373786" y="339.703701" style="fill: #0000ff; stroke: #0000ff; stroke-linejoin: bevel"/>
     <use xlink:href="#m435ac15dc1" x="157.425051" y="290.546026" style="fill: #0000ff; stroke: #0000ff; stroke-linejoin: bevel"/>
     <use xlink:href="#m435ac15dc1" x="160.476315" y="235.716311" style="fill: #0000ff; stroke: #0000ff; stroke-linejoin: bevel"/>
     <use xlink:href="#m435ac15dc1" x="163.52758" y="202.440346" style="fill: #0000ff; stroke: #0000ff; stroke-linejoin: bevel"/>
     <use xlink:href="#m435ac15dc1" x="166.578844" y="182.777276" style="fill: #0000ff; stroke: #0000ff; stroke-linejoin: bevel"/>
     <use xlink:href="#m435ac15dc1" x="169.630109" y="218.700192" style="fill: #0000ff; stroke: #0000ff; stroke-linejoin: bevel"/>
     <use xlink:href="#m435ac15dc1" x="172.681373" y="211.137473" style="fill: #0000ff; stroke: #0000ff; stroke-linejoin: bevel"/>
     <use xlink:href="#m435ac15dc1" x="175.732638" y="238.237217" style="fill: #0000ff; stroke: #0000ff; stroke-linejoin: bevel"/>
     <use xlink:href="#m435ac15dc1" x="178.783902" y="296.218065" style="fill: #0000ff; stroke: #0000ff; stroke-linejoin: bevel"/>
     <use xlink:href="#m435ac15dc1" x="181.835167" y="252.732429" style="fill: #0000ff; stroke: #0000ff; stroke-linejoin: bevel"/>
     <use xlink:href="#m435ac15dc1" x="184.886431" y="254.623109" style="fill: #0000ff; stroke: #0000ff; stroke-linejoin: bevel"/>
     <use xlink:href="#m435ac15dc1" x="187.937696" y="262.185828" style="fill: #0000ff; stroke: #0000ff; stroke-linejoin: bevel"/>
     <use xlink:href="#m435ac15dc1" x="190.98896" y="261.429557" style="fill: #0000ff; stroke: #0000ff; stroke-linejoin: bevel"/>
     <use xlink:href="#m435ac15dc1" x="194.040225" y="238.237217" style="fill: #0000ff; stroke: #0000ff; stroke-linejoin: bevel"/>
     <use xlink:href="#m435ac15dc1" x="197.091489" y="291.176252" style="fill: #0000ff; stroke: #0000ff; stroke-linejoin: bevel"/>
     <use xlink:href="#m435ac15dc1" x="200.142754" y="334.031662" style="fill: #0000ff; stroke: #0000ff; stroke-linejoin: bevel"/>
     <use xlink:href="#m435ac15dc1" x="203.194018" y="299.999425" style="fill: #0000ff; stroke: #0000ff; stroke-linejoin: bevel"/>
     <use xlink:href="#m435ac15dc1" x="206.245283" y="284.117714" style="fill: #0000ff; stroke: #0000ff; stroke-linejoin: bevel"/>
     <use xlink:href="#m435ac15dc1" x="209.296548" y="265.967188" style="fill: #0000ff; stroke: #0000ff; stroke-linejoin: bevel"/>
     <use xlink:href="#m435ac15dc1" x="212.347812" y="279.580083" style="fill: #0000ff; stroke: #0000ff; stroke-linejoin: bevel"/>
     <use xlink:href="#m435ac15dc1" x="215.399077" y="218.069966" style="fill: #0000ff; stroke: #0000ff; stroke-linejoin: bevel"/>
     <use xlink:href="#m435ac15dc1" x="218.450341" y="279.201947" style="fill: #0000ff; stroke: #0000ff; stroke-linejoin: bevel"/>
     <use xlink:href="#m435ac15dc1" x="221.501606" y="331.510756" style="fill: #0000ff; stroke: #0000ff; stroke-linejoin: bevel"/>
     <use xlink:href="#m435ac15dc1" x="224.55287" y="294.705522" style="fill: #0000ff; stroke: #0000ff; stroke-linejoin: bevel"/>
     <use xlink:href="#m435ac15dc1" x="227.604135" y="286.13444" style="fill: #0000ff; stroke: #0000ff; stroke-linejoin: bevel"/>
     <use xlink:href="#m435ac15dc1" x="230.655399" y="247.06039" style="fill: #0000ff; stroke: #0000ff; stroke-linejoin: bevel"/>
     <use xlink:href="#m435ac15dc1" x="233.706664" y="305.671465" style="fill: #0000ff; stroke: #0000ff; stroke-linejoin: bevel"/>
     <use xlink:href="#m435ac15dc1" x="236.757928" y="321.42713" style="fill: #0000ff; stroke: #0000ff; stroke-linejoin: bevel"/>
     <use xlink:href="#m435ac15dc1" x="239.809193" y="351.04778" style="fill: #0000ff; stroke: #0000ff; stroke-linejoin: bevel"/>
     <use xlink:href="#m435ac15dc1" x="242.860457" y="318.906223" style="fill: #0000ff; stroke: #0000ff; stroke-linejoin: bevel"/>
     <use xlink:href="#m435ac15dc1" x="245.911722" y="352.93846" style="fill: #0000ff; stroke: #0000ff; stroke-linejoin: bevel"/>
     <use xlink:href="#m435ac15dc1" x="248.962986" y="402.096136" style="fill: #0000ff; stroke: #0000ff; stroke-linejoin: bevel"/>
     <use xlink:href="#m435ac15dc1" x="252.014251" y="303.780785" style="fill: #0000ff; stroke: #0000ff; stroke-linejoin: bevel"/>
     <use xlink:href="#m435ac15dc1" x="255.065515" y="345.375741" style="fill: #0000ff; stroke: #0000ff; stroke-linejoin: bevel"/>
     <use xlink:href="#m435ac15dc1" x="258.11678" y="347.266421" style="fill: #0000ff; stroke: #0000ff; stroke-linejoin: bevel"/>
     <use xlink:href="#m435ac15dc1" x="261.168044" y="398.314776" style="fill: #0000ff; stroke: #0000ff; stroke-linejoin: bevel"/>
     <use xlink:href="#m435ac15dc1" x="264.219309" y="349.157101" style="fill: #0000ff; stroke: #0000ff; stroke-linejoin: bevel"/>
     <use xlink:href="#m435ac15dc1" x="267.270573" y="368.063899" style="fill: #0000ff; stroke: #0000ff; stroke-linejoin: bevel"/>
     <use xlink:href="#m435ac15dc1" x="270.321838" y="363.022086" style="fill: #0000ff; stroke: #0000ff; stroke-linejoin: bevel"/>
     <use xlink:href="#m435ac15dc1" x="273.373103" y="342.67477" style="fill: #0000ff; stroke: #0000ff; stroke-linejoin: bevel"/>
     <use xlink:href="#m435ac15dc1" x="276.424367" y="320.166677" style="fill: #0000ff; stroke: #0000ff; stroke-linejoin: bevel"/>
     <use xlink:href="#m435ac15dc1" x="279.475632" y="311.343504" style="fill: #0000ff; stroke: #0000ff; stroke-linejoin: bevel"/>
     <use xlink:href="#m435ac15dc1" x="282.526896" y="323.443855" style="fill: #0000ff; stroke: #0000ff; stroke-linejoin: bevel"/>
     <use xlink:href="#m435ac15dc1" x="285.578161" y="306.301691" style="fill: #0000ff; stroke: #0000ff; stroke-linejoin: bevel"/>
     <use xlink:href="#m435ac15dc1" x="288.629425" y="338.569294" style="fill: #0000ff; stroke: #0000ff; stroke-linejoin: bevel"/>
     <use xlink:href="#m435ac15dc1" x="291.68069" y="354.198913" style="fill: #0000ff; stroke: #0000ff; stroke-linejoin: bevel"/>
     <use xlink:href="#m435ac15dc1" x="294.731954" y="334.031662" style="fill: #0000ff; stroke: #0000ff; stroke-linejoin: bevel"/>
     <use xlink:href="#m435ac15dc1" x="297.783219" y="326.468943" style="fill: #0000ff; stroke: #0000ff; stroke-linejoin: bevel"/>
     <use xlink:href="#m435ac15dc1" x="300.834483" y="439.909732" style="fill: #0000ff; stroke: #0000ff; stroke-linejoin: bevel"/>
     <use xlink:href="#m435ac15dc1" x="303.885748" y="419.742481" style="fill: #0000ff; stroke: #0000ff; stroke-linejoin: bevel"/>
     <use xlink:href="#m435ac15dc1" x="306.937012" y="349.157101" style="fill: #0000ff; stroke: #0000ff; stroke-linejoin: bevel"/>
     <use xlink:href="#m435ac15dc1" x="309.988277" y="355.207276" style="fill: #0000ff; stroke: #0000ff; stroke-linejoin: bevel"/>
     <use xlink:href="#m435ac15dc1" x="313.039541" y="345.915935" style="fill: #0000ff; stroke: #0000ff; stroke-linejoin: bevel"/>
     <use xlink:href="#m435ac15dc1" x="316.090806" y="394.533416" style="fill: #0000ff; stroke: #0000ff; stroke-linejoin: bevel"/>
     <use xlink:href="#m435ac15dc1" x="319.14207" y="409.658855" style="fill: #0000ff; stroke: #0000ff; stroke-linejoin: bevel"/>
     <use xlink:href="#m435ac15dc1" x="322.193335" y="366.803446" style="fill: #0000ff; stroke: #0000ff; stroke-linejoin: bevel"/>
     <use xlink:href="#m435ac15dc1" x="325.244599" y="376.38289" style="fill: #0000ff; stroke: #0000ff; stroke-linejoin: bevel"/>
     <use xlink:href="#m435ac15dc1" x="328.295864" y="347.896647" style="fill: #0000ff; stroke: #0000ff; stroke-linejoin: bevel"/>
     <use xlink:href="#m435ac15dc1" x="331.347129" y="281.092627" style="fill: #0000ff; stroke: #0000ff; stroke-linejoin: bevel"/>
     <use xlink:href="#m435ac15dc1" x="334.398393" y="343.485061" style="fill: #0000ff; stroke: #0000ff; stroke-linejoin: bevel"/>
     <use xlink:href="#m435ac15dc1" x="337.449658" y="331.510756" style="fill: #0000ff; stroke: #0000ff; stroke-linejoin: bevel"/>
     <use xlink:href="#m435ac15dc1" x="340.500922" y="339.703701" style="fill: #0000ff; stroke: #0000ff; stroke-linejoin: bevel"/>
     <use xlink:href="#m435ac15dc1" x="343.552187" y="276.050814" style="fill: #0000ff; stroke: #0000ff; stroke-linejoin: bevel"/>
     <use xlink:href="#m435ac15dc1" x="346.603451" y="326.468943" style="fill: #0000ff; stroke: #0000ff; stroke-linejoin: bevel"/>
     <use xlink:href="#m435ac15dc1" x="349.654716" y="281.092627" style="fill: #0000ff; stroke: #0000ff; stroke-linejoin: bevel"/>
     <use xlink:href="#m435ac15dc1" x="352.70598" y="218.700192" style="fill: #0000ff; stroke: #0000ff; stroke-linejoin: bevel"/>
     <use xlink:href="#m435ac15dc1" x="358.808509" y="311.343504" style="fill: #0000ff; stroke: #0000ff; stroke-linejoin: bevel"/>
     <use xlink:href="#m435ac15dc1" x="361.859774" y="302.268241" style="fill: #0000ff; stroke: #0000ff; stroke-linejoin: bevel"/>
     <use xlink:href="#m435ac15dc1" x="364.911038" y="257.144016" style="fill: #0000ff; stroke: #0000ff; stroke-linejoin: bevel"/>
     <use xlink:href="#m435ac15dc1" x="367.962303" y="334.031662" style="fill: #0000ff; stroke: #0000ff; stroke-linejoin: bevel"/>
     <use xlink:href="#m435ac15dc1" x="383.218625" y="326.468943" style="fill: #0000ff; stroke: #0000ff; stroke-linejoin: bevel"/>
     <use xlink:href="#m435ac15dc1" x="386.26989" y="328.989849" style="fill: #0000ff; stroke: #0000ff; stroke-linejoin: bevel"/>
     <use xlink:href="#m435ac15dc1" x="389.321154" y="388.861377" style="fill: #0000ff; stroke: #0000ff; stroke-linejoin: bevel"/>
     <use xlink:href="#m435ac15dc1" x="392.372419" y="346.636194" style="fill: #0000ff; stroke: #0000ff; stroke-linejoin: bevel"/>
     <use xlink:href="#m435ac15dc1" x="395.423684" y="409.658855" style="fill: #0000ff; stroke: #0000ff; stroke-linejoin: bevel"/>
     <use xlink:href="#m435ac15dc1" x="407.628742" y="371.845259" style="fill: #0000ff; stroke: #0000ff; stroke-linejoin: bevel"/>
     <use xlink:href="#m435ac15dc1" x="410.680006" y="424.784294" style="fill: #0000ff; stroke: #0000ff; stroke-linejoin: bevel"/>
     <use xlink:href="#m435ac15dc1" x="413.731271" y="356.71982" style="fill: #0000ff; stroke: #0000ff; stroke-linejoin: bevel"/>
     <use xlink:href="#m435ac15dc1" x="435.090122" y="398.314776" style="fill: #0000ff; stroke: #0000ff; stroke-linejoin: bevel"/>
     <use xlink:href="#m435ac15dc1" x="438.141387" y="443.691092" style="fill: #0000ff; stroke: #0000ff; stroke-linejoin: bevel"/>
     <use xlink:href="#m435ac15dc1" x="441.192651" y="414.700668" style="fill: #0000ff; stroke: #0000ff; stroke-linejoin: bevel"/>
     <use xlink:href="#m435ac15dc1" x="444.243916" y="371.845259" style="fill: #0000ff; stroke: #0000ff; stroke-linejoin: bevel"/>
     <use xlink:href="#m435ac15dc1" x="447.29518" y="303.780785" style="fill: #0000ff; stroke: #0000ff; stroke-linejoin: bevel"/>
     <use xlink:href="#m435ac15dc1" x="450.346445" y="318.906223" style="fill: #0000ff; stroke: #0000ff; stroke-linejoin: bevel"/>
     <use xlink:href="#m435ac15dc1" x="453.39771" y="398.314776" style="fill: #0000ff; stroke: #0000ff; stroke-linejoin: bevel"/>
     <use xlink:href="#m435ac15dc1" x="456.448974" y="352.93846" style="fill: #0000ff; stroke: #0000ff; stroke-linejoin: bevel"/>
     <use xlink:href="#m435ac15dc1" x="459.500239" y="409.658855" style="fill: #0000ff; stroke: #0000ff; stroke-linejoin: bevel"/>
     <use xlink:href="#m435ac15dc1" x="462.551503" y="330.250302" style="fill: #0000ff; stroke: #0000ff; stroke-linejoin: bevel"/>
     <use xlink:href="#m435ac15dc1" x="465.602768" y="402.096136" style="fill: #0000ff; stroke: #0000ff; stroke-linejoin: bevel"/>
     <use xlink:href="#m435ac15dc1" x="468.654032" y="404.617042" style="fill: #0000ff; stroke: #0000ff; stroke-linejoin: bevel"/>
     <use xlink:href="#m435ac15dc1" x="480.85909" y="409.658855" style="fill: #0000ff; stroke: #0000ff; stroke-linejoin: bevel"/>
     <use xlink:href="#m435ac15dc1" x="483.910355" y="432.347013" style="fill: #0000ff; stroke: #0000ff; stroke-linejoin: bevel"/>
     <use xlink:href="#m435ac15dc1" x="486.961619" y="424.784294" style="fill: #0000ff; stroke: #0000ff; stroke-linejoin: bevel"/>
     <use xlink:href="#m435ac15dc1" x="490.012884" y="352.93846" style="fill: #0000ff; stroke: #0000ff; stroke-linejoin: bevel"/>
     <use xlink:href="#m435ac15dc1" x="493.064148" y="477.723329" style="fill: #0000ff; stroke: #0000ff; stroke-linejoin: bevel"/>
     <use xlink:href="#m435ac15dc1" x="508.320471" y="462.59789" style="fill: #0000ff; stroke: #0000ff; stroke-linejoin: bevel"/>
     <use xlink:href="#m435ac15dc1" x="541.884381" y="402.096136" style="fill: #0000ff; stroke: #0000ff; stroke-linejoin: bevel"/>
     <use xlink:href="#m435ac15dc1" x="557.140703" y="417.221574" style="fill: #0000ff; stroke: #0000ff; stroke-linejoin: bevel"/>
     <use xlink:href="#m435ac15dc1" x="560.191968" y="402.096136" style="fill: #0000ff; stroke: #0000ff; stroke-linejoin: bevel"/>
     <use xlink:href="#m435ac15dc1" x="566.294497" y="439.909732" style="fill: #0000ff; stroke: #0000ff; stroke-linejoin: bevel"/>
     <use xlink:href="#m435ac15dc1" x="575.44829" y="386.970697" style="fill: #0000ff; stroke: #0000ff; stroke-linejoin: bevel"/>
     <use xlink:href="#m435ac15dc1" x="615.114729" y="477.723329" style="fill: #0000ff; stroke: #0000ff; stroke-linejoin: bevel"/>
     <use xlink:href="#m435ac15dc1" x="715.806459" y="175.214556" style="fill: #0000ff; stroke: #0000ff; stroke-linejoin: bevel"/>
     <use xlink:href="#m435ac15dc1" x="718.857723" y="137.40096" style="fill: #0000ff; stroke: #0000ff; stroke-linejoin: bevel"/>
     <use xlink:href="#m435ac15dc1" x="721.908988" y="97.696683" style="fill: #0000ff; stroke: #0000ff; stroke-linejoin: bevel"/>
     <use xlink:href="#m435ac15dc1" x="724.960252" y="107.150082" style="fill: #0000ff; stroke: #0000ff; stroke-linejoin: bevel"/>
     <use xlink:href="#m435ac15dc1" x="728.011517" y="114.712802" style="fill: #0000ff; stroke: #0000ff; stroke-linejoin: bevel"/>
     <use xlink:href="#m435ac15dc1" x="734.114046" y="235.716311" style="fill: #0000ff; stroke: #0000ff; stroke-linejoin: bevel"/>
     <use xlink:href="#m435ac15dc1" x="737.16531" y="205.465434" style="fill: #0000ff; stroke: #0000ff; stroke-linejoin: bevel"/>
     <use xlink:href="#m435ac15dc1" x="865.31842" y="134.880053" style="fill: #0000ff; stroke: #0000ff; stroke-linejoin: bevel"/>
     <use xlink:href="#m435ac15dc1" x="917.189917" y="114.712802" style="fill: #0000ff; stroke: #0000ff; stroke-linejoin: bevel"/>
     <use xlink:href="#m435ac15dc1" x="920.241182" y="243.27903" style="fill: #0000ff; stroke: #0000ff; stroke-linejoin: bevel"/>
    </g>
   </g>
   <g id="patch_3">
    <path d="M 68.023 622.6035 
L 68.023 35.0835 
" style="fill: none; stroke: #000000; stroke-width: 0.8; stroke-linejoin: miter; stroke-linecap: square"/>
   </g>
   <g id="patch_4">
    <path d="M 960.823 622.6035 
L 960.823 35.0835 
" style="fill: none; stroke: #000000; stroke-width: 0.8; stroke-linejoin: miter; stroke-linecap: square"/>
   </g>
   <g id="patch_5">
    <path d="M 68.023 622.6035 
L 960.823 622.6035 
" style="fill: none; stroke: #000000; stroke-width: 0.8; stroke-linejoin: miter; stroke-linecap: square"/>
   </g>
   <g id="patch_6">
    <path d="M 68.023 35.0835 
L 960.823 35.0835 
" style="fill: none; stroke: #000000; stroke-width: 0.8; stroke-linejoin: miter; stroke-linecap: square"/>
   </g>
   <g id="text_16">
    <!-- Body Water Percentage -->
    <g transform="translate(345.35125 29.0835) scale(0.288 -0.288)">
     <defs>
      <path id="DejaVuSans-42" d="M 1259 2228 
L 1259 519 
L 2272 519 
Q 2781 519 3026 730 
Q 3272 941 3272 1375 
Q 3272 1813 3026 2020 
Q 2781 2228 2272 2228 
L 1259 2228 
z
M 1259 4147 
L 1259 2741 
L 2194 2741 
Q 2656 2741 2882 2914 
Q 3109 3088 3109 3444 
Q 3109 3797 2882 3972 
Q 2656 4147 2194 4147 
L 1259 4147 
z
M 628 4666 
L 2241 4666 
Q 2963 4666 3353 4366 
Q 3744 4066 3744 3513 
Q 3744 3084 3544 2831 
Q 3344 2578 2956 2516 
Q 3422 2416 3680 2098 
Q 3938 1781 3938 1306 
Q 3938 681 3513 340 
Q 3088 0 2303 0 
L 628 0 
L 628 4666 
z
" transform="scale(0.015625)"/>
      <path id="DejaVuSans-6f" d="M 1959 3097 
Q 1497 3097 1228 2736 
Q 959 2375 959 1747 
Q 959 1119 1226 758 
Q 1494 397 1959 397 
Q 2419 397 2687 759 
Q 2956 1122 2956 1747 
Q 2956 2369 2687 2733 
Q 2419 3097 1959 3097 
z
M 1959 3584 
Q 2709 3584 3137 3096 
Q 3566 2609 3566 1747 
Q 3566 888 3137 398 
Q 2709 -91 1959 -91 
Q 1206 -91 779 398 
Q 353 888 353 1747 
Q 353 2609 779 3096 
Q 1206 3584 1959 3584 
z
" transform="scale(0.015625)"/>
      <path id="DejaVuSans-64" d="M 2906 2969 
L 2906 4863 
L 3481 4863 
L 3481 0 
L 2906 0 
L 2906 525 
Q 2725 213 2448 61 
Q 2172 -91 1784 -91 
Q 1150 -91 751 415 
Q 353 922 353 1747 
Q 353 2572 751 3078 
Q 1150 3584 1784 3584 
Q 2172 3584 2448 3432 
Q 2725 3281 2906 2969 
z
M 947 1747 
Q 947 1113 1208 752 
Q 1469 391 1925 391 
Q 2381 391 2643 752 
Q 2906 1113 2906 1747 
Q 2906 2381 2643 2742 
Q 2381 3103 1925 3103 
Q 1469 3103 1208 2742 
Q 947 2381 947 1747 
z
" transform="scale(0.015625)"/>
      <path id="DejaVuSans-79" d="M 2059 -325 
Q 1816 -950 1584 -1140 
Q 1353 -1331 966 -1331 
L 506 -1331 
L 506 -850 
L 844 -850 
Q 1081 -850 1212 -737 
Q 1344 -625 1503 -206 
L 1606 56 
L 191 3500 
L 800 3500 
L 1894 763 
L 2988 3500 
L 3597 3500 
L 2059 -325 
z
" transform="scale(0.015625)"/>
     </defs>
     <use xlink:href="#DejaVuSans-42"/>
     <use xlink:href="#DejaVuSans-6f" transform="translate(68.603516 0)"/>
     <use xlink:href="#DejaVuSans-64" transform="translate(129.785156 0)"/>
     <use xlink:href="#DejaVuSans-79" transform="translate(193.261719 0)"/>
     <use xlink:href="#DejaVuSans-20" transform="translate(252.441406 0)"/>
     <use xlink:href="#DejaVuSans-57" transform="translate(284.228516 0)"/>
     <use xlink:href="#DejaVuSans-61" transform="translate(376.730469 0)"/>
     <use xlink:href="#DejaVuSans-74" transform="translate(438.009766 0)"/>
     <use xlink:href="#DejaVuSans-65" transform="translate(477.21875 0)"/>
     <use xlink:href="#DejaVuSans-72" transform="translate(538.742188 0)"/>
     <use xlink:href="#DejaVuSans-20" transform="translate(579.855469 0)"/>
     <use xlink:href="#DejaVuSans-50" transform="translate(611.642578 0)"/>
     <use xlink:href="#DejaVuSans-65" transform="translate(668.320312 0)"/>
     <use xlink:href="#DejaVuSans-72" transform="translate(729.84375 0)"/>
     <use xlink:href="#DejaVuSans-63" transform="translate(768.707031 0)"/>
     <use xlink:href="#DejaVuSans-65" transform="translate(823.6875 0)"/>
     <use xlink:href="#DejaVuSans-6e" transform="translate(885.210938 0)"/>
     <use xlink:href="#DejaVuSans-74" transform="translate(948.589844 0)"/>
     <use xlink:href="#DejaVuSans-61" transform="translate(987.798828 0)"/>
     <use xlink:href="#DejaVuSans-67" transform="translate(1049.078125 0)"/>
     <use xlink:href="#DejaVuSans-65" transform="translate(1112.554688 0)"/>
    </g>
   </g>
  </g>
 </g>
 <defs>
  <clipPath id="p0e34e47577">
   <rect x="68.023" y="35.0835" width="892.8" height="587.52"/>
  </clipPath>
 </defs>
</svg>
