<?xml version="1.0" encoding="utf-8" standalone="no"?>
<!DOCTYPE svg PUBLIC "-//W3C//DTD SVG 1.1//EN"
  "http://www.w3.org/Graphics/SVG/1.1/DTD/svg11.dtd">
<svg xmlns:xlink="http://www.w3.org/1999/xlink" width="968.023pt" height="705.725879pt" viewBox="0 0 968.023 705.725879" xmlns="http://www.w3.org/2000/svg" version="1.1">
 <metadata>
  <rdf:RDF xmlns:dc="http://purl.org/dc/elements/1.1/" xmlns:cc="http://creativecommons.org/ns#" xmlns:rdf="http://www.w3.org/1999/02/22-rdf-syntax-ns#">
   <cc:Work>
    <dc:type rdf:resource="http://purl.org/dc/dcmitype/StillImage"/>
    <dc:date>2022-09-23T19:23:56.807662</dc:date>
    <dc:format>image/svg+xml</dc:format>
    <dc:creator>
     <cc:Agent>
      <dc:title>Matplotlib v3.6.0, https://matplotlib.org/</dc:title>
     </cc:Agent>
    </dc:creator>
   </cc:Work>
  </rdf:RDF>
 </metadata>
 <defs>
  <style type="text/css">*{stroke-linejoin: round; stroke-linecap: butt}</style>
 </defs>
 <g id="figure_1">
  <g id="patch_1">
   <path d="M 0 705.725879 
L 968.023 705.725879 
L 968.023 0 
L 0 0 
z
" style="fill: #ffffff"/>
  </g>
  <g id="axes_1">
   <g id="patch_2">
    <path d="M 68.023 622.6035 
L 960.823 622.6035 
L 960.823 35.0835 
L 68.023 35.0835 
z
" style="fill: #ffffff"/>
   </g>
   <g id="PolyCollection_1">
    <defs>
     <path id="mebce1a1bc6" d="M 108.604818 -457.902114 
L 108.604818 -346.718991 
L 120.036316 -109.827834 
L 125.752065 -386.611317 
L 131.467814 -390.866213 
L 137.183563 -439.669886 
L 142.899312 -339.056588 
L 148.615061 -417.363997 
L 154.33081 -426.038299 
L 160.04656 -417.62175 
L 165.762309 -396.629147 
L 171.478058 -308.800436 
L 177.193807 -349.750412 
L 182.909556 -430.90292 
L 188.625305 -436.691863 
L 194.341054 -357.929099 
L 200.056803 -412.990092 
L 205.772552 -480.255394 
L 211.488301 -551.911591 
L 217.20405 -597.717058 
L 222.919799 -557.411695 
L 228.635548 -556.422137 
L 234.351297 -491.607238 
L 240.067046 -420.704479 
L 245.782795 -415.009294 
L 251.498544 -455.974056 
L 257.214293 -440.952632 
L 262.930042 -433.553574 
L 268.645791 -491.607238 
L 274.36154 -426.869936 
L 280.077289 -352.238343 
L 285.793038 -416.080386 
L 291.508787 -421.491705 
L 297.224536 -457.697222 
L 302.940286 -462.838696 
L 308.656035 -516.269067 
L 314.371784 -458.763505 
L 320.087533 -388.892359 
L 325.803282 -430.844122 
L 331.519031 -433.035393 
L 337.23478 -494.281757 
L 342.950529 -431.794216 
L 348.666278 -389.877192 
L 354.382027 -375.031528 
L 360.097776 -405.669408 
L 365.813525 -351.343084 
L 371.529274 -291.229875 
L 377.245023 -411.456293 
L 382.960772 -360.59127 
L 388.676521 -401.857039 
L 394.39227 -318.422901 
L 400.108019 -355.967177 
L 405.823768 -308.480231 
L 411.539517 -322.094047 
L 417.255266 -361.745965 
L 422.971015 -380.018374 
L 428.686764 -402.208107 
L 434.402513 -356.523378 
L 440.118262 -408.373564 
L 445.834012 -376.415632 
L 451.549761 -365.915092 
L 457.26551 -380.683308 
L 462.981259 -383.711735 
L 468.697008 -244.988945 
L 474.412757 -269.650775 
L 480.128506 -355.967177 
L 485.844255 -346.434912 
L 491.560004 -338.485493 
L 497.275753 -263.126504 
L 502.991502 -281.981689 
L 508.707251 -334.388076 
L 514.423 -306.964214 
L 520.138749 -345.895911 
L 525.854498 -439.20085 
L 531.570247 -340.73996 
L 537.285996 -377.546277 
L 543.001745 -394.334224 
L 548.717494 -431.408341 
L 554.433243 -383.711735 
L 560.148992 -439.20085 
L 565.864741 -529.025947 
L 577.296239 -402.208107 
L 583.011988 -404.984563 
L 588.727738 -442.502437 
L 594.443487 -374.463549 
L 623.022232 -383.711735 
L 628.737981 -380.629006 
L 634.45373 -289.491409 
L 640.169479 -359.049906 
L 645.885228 -281.981689 
L 668.748224 -328.222619 
L 674.463973 -263.485317 
L 680.179722 -346.718991 
L 720.189965 -332.379906 
L 725.905714 -240.364852 
L 731.621464 -275.816232 
L 737.337213 -344.036229 
L 743.052962 -411.456293 
L 748.768711 -392.959921 
L 754.48446 -295.853968 
L 760.200209 -351.343084 
L 765.915958 -281.981689 
L 771.631707 -329.132318 
L 777.347456 -291.229875 
L 783.063205 -288.147147 
L 805.926201 -281.981689 
L 811.64195 -254.237131 
L 817.357699 -263.485317 
L 823.073448 -364.807153 
L 828.789197 -198.748016 
L 857.367942 -217.244388 
L 920.241182 -254.339577 
L 920.241182 -439.303296 
L 920.241182 -439.303296 
L 857.367942 -328.427511 
L 828.789197 -309.931139 
L 823.073448 -449.062137 
L 817.357699 -374.66844 
L 811.64195 -365.420254 
L 805.926201 -393.164812 
L 783.063205 -399.33027 
L 777.347456 -402.412998 
L 771.631707 -540.226088 
L 765.915958 -393.164812 
L 760.200209 -462.526207 
L 754.48446 -407.037091 
L 748.768711 -504.143044 
L 743.052962 -522.639416 
L 737.337213 -423.592132 
L 731.621464 -386.999355 
L 725.905714 -351.547975 
L 720.189965 -370.511153 
L 680.179722 -457.902114 
L 674.463973 -374.66844 
L 668.748224 -439.405742 
L 645.885228 -393.164812 
L 640.169479 -470.233029 
L 634.45373 -436.520115 
L 628.737981 -491.812129 
L 623.022232 -494.894858 
L 594.443487 -485.646672 
L 588.727738 -605.654231 
L 583.011988 -532.810419 
L 577.296239 -513.39123 
L 565.864741 -613.153945 
L 560.148992 -550.383973 
L 554.433243 -494.894858 
L 548.717494 -570.507398 
L 543.001745 -451.903717 
L 537.285996 -488.7294 
L 531.570247 -496.249795 
L 525.854498 -550.383973 
L 520.138749 -480.304294 
L 514.423 -449.566324 
L 508.707251 -445.571199 
L 502.991502 -393.164812 
L 497.275753 -449.012741 
L 491.560004 -492.559 
L 485.844255 -461.885467 
L 480.128506 -467.1503 
L 474.412757 -380.833898 
L 468.697008 -356.172068 
L 462.981259 -494.894858 
L 457.26551 -479.426913 
L 451.549761 -444.87147 
L 445.834012 -472.596766 
L 440.118262 -519.556687 
L 434.402513 -529.481764 
L 428.686764 -513.39123 
L 422.971015 -514.001862 
L 417.255266 -477.225545 
L 411.539517 -467.113414 
L 405.823768 -468.396316 
L 400.108019 -467.1503 
L 394.39227 -384.468159 
L 388.676521 -425.884531 
L 382.960772 -471.774393 
L 377.245023 -522.639416 
L 371.529274 -402.412998 
L 365.813525 -462.526207 
L 360.097776 -491.433556 
L 354.382027 -443.461855 
L 348.666278 -501.060315 
L 342.950529 -497.677399 
L 337.23478 -578.536741 
L 331.519031 -544.218516 
L 325.803282 -525.447233 
L 320.087533 -477.383319 
L 314.371784 -535.445412 
L 308.656035 -627.45219 
L 302.940286 -530.445402 
L 297.224536 -568.880345 
L 291.508787 -560.69457 
L 285.793038 -527.263509 
L 280.077289 -507.871877 
L 274.36154 -538.053059 
L 268.645791 -602.790361 
L 262.930042 -604.121817 
L 257.214293 -594.873122 
L 251.498544 -598.348069 
L 245.782795 -643.936925 
L 240.067046 -531.887602 
L 234.351297 -602.790361 
L 228.635548 -604.254127 
L 222.919799 -584.768198 
L 217.20405 -632.320601 
L 211.488301 -630.035501 
L 205.772552 -620.307662 
L 200.056803 -553.474268 
L 194.341054 -488.308843 
L 188.625305 -567.690058 
L 182.909556 -530.937346 
L 177.193807 -411.712491 
L 171.478058 -432.933004 
L 165.762309 -494.30836 
L 160.04656 -528.804873 
L 154.33081 -538.884696 
L 148.615061 -470.490781 
L 142.899312 -376.781932 
L 137.183563 -526.794473 
L 131.467814 -436.875357 
L 125.752065 -510.491647 
L 120.036316 -361.858577 
L 108.604818 -457.902114 
z
" style="stroke: #0000ff; stroke-opacity: 0.2"/>
    </defs>
    <g clip-path="url(#pe800caa417)">
     <use xlink:href="#mebce1a1bc6" x="0" y="705.725879" style="fill: #0000ff; fill-opacity: 0.2; stroke: #0000ff; stroke-opacity: 0.2"/>
    </g>
   </g>
   <g id="matplotlib.axis_1">
    <g id="xtick_1">
     <g id="line2d_1">
      <path d="M 114.320567 622.6035 
L 114.320567 35.0835 
" clip-path="url(#pe800caa417)" style="fill: none; stroke: #a5a391; stroke-opacity: 0.3; stroke-width: 0.8; stroke-linecap: square"/>
     </g>
     <g id="line2d_2">
      <defs>
       <path id="m2598ec1e31" d="M 0 0 
L 0 -3.5 
" style="stroke: #000000; stroke-width: 0.8"/>
      </defs>
      <g>
       <use xlink:href="#m2598ec1e31" x="114.320567" y="622.6035" style="stroke: #000000; stroke-width: 0.8"/>
      </g>
     </g>
     <g id="text_1">
      <!-- Jan 01, 20 -->
      <g transform="translate(24.945519 689.66438) rotate(-30) scale(0.2 -0.2)">
       <defs>
        <path id="DejaVuSans-4a" d="M 628 4666 
L 1259 4666 
L 1259 325 
Q 1259 -519 939 -900 
Q 619 -1281 -91 -1281 
L -331 -1281 
L -331 -750 
L -134 -750 
Q 284 -750 456 -515 
Q 628 -281 628 325 
L 628 4666 
z
" transform="scale(0.015625)"/>
        <path id="DejaVuSans-61" d="M 2194 1759 
Q 1497 1759 1228 1600 
Q 959 1441 959 1056 
Q 959 750 1161 570 
Q 1363 391 1709 391 
Q 2188 391 2477 730 
Q 2766 1069 2766 1631 
L 2766 1759 
L 2194 1759 
z
M 3341 1997 
L 3341 0 
L 2766 0 
L 2766 531 
Q 2569 213 2275 61 
Q 1981 -91 1556 -91 
Q 1019 -91 701 211 
Q 384 513 384 1019 
Q 384 1609 779 1909 
Q 1175 2209 1959 2209 
L 2766 2209 
L 2766 2266 
Q 2766 2663 2505 2880 
Q 2244 3097 1772 3097 
Q 1472 3097 1187 3025 
Q 903 2953 641 2809 
L 641 3341 
Q 956 3463 1253 3523 
Q 1550 3584 1831 3584 
Q 2591 3584 2966 3190 
Q 3341 2797 3341 1997 
z
" transform="scale(0.015625)"/>
        <path id="DejaVuSans-6e" d="M 3513 2113 
L 3513 0 
L 2938 0 
L 2938 2094 
Q 2938 2591 2744 2837 
Q 2550 3084 2163 3084 
Q 1697 3084 1428 2787 
Q 1159 2491 1159 1978 
L 1159 0 
L 581 0 
L 581 3500 
L 1159 3500 
L 1159 2956 
Q 1366 3272 1645 3428 
Q 1925 3584 2291 3584 
Q 2894 3584 3203 3211 
Q 3513 2838 3513 2113 
z
" transform="scale(0.015625)"/>
        <path id="DejaVuSans-20" transform="scale(0.015625)"/>
        <path id="DejaVuSans-30" d="M 2034 4250 
Q 1547 4250 1301 3770 
Q 1056 3291 1056 2328 
Q 1056 1369 1301 889 
Q 1547 409 2034 409 
Q 2525 409 2770 889 
Q 3016 1369 3016 2328 
Q 3016 3291 2770 3770 
Q 2525 4250 2034 4250 
z
M 2034 4750 
Q 2819 4750 3233 4129 
Q 3647 3509 3647 2328 
Q 3647 1150 3233 529 
Q 2819 -91 2034 -91 
Q 1250 -91 836 529 
Q 422 1150 422 2328 
Q 422 3509 836 4129 
Q 1250 4750 2034 4750 
z
" transform="scale(0.015625)"/>
        <path id="DejaVuSans-31" d="M 794 531 
L 1825 531 
L 1825 4091 
L 703 3866 
L 703 4441 
L 1819 4666 
L 2450 4666 
L 2450 531 
L 3481 531 
L 3481 0 
L 794 0 
L 794 531 
z
" transform="scale(0.015625)"/>
        <path id="DejaVuSans-2c" d="M 750 794 
L 1409 794 
L 1409 256 
L 897 -744 
L 494 -744 
L 750 256 
L 750 794 
z
" transform="scale(0.015625)"/>
        <path id="DejaVuSans-32" d="M 1228 531 
L 3431 531 
L 3431 0 
L 469 0 
L 469 531 
Q 828 903 1448 1529 
Q 2069 2156 2228 2338 
Q 2531 2678 2651 2914 
Q 2772 3150 2772 3378 
Q 2772 3750 2511 3984 
Q 2250 4219 1831 4219 
Q 1534 4219 1204 4116 
Q 875 4013 500 3803 
L 500 4441 
Q 881 4594 1212 4672 
Q 1544 4750 1819 4750 
Q 2544 4750 2975 4387 
Q 3406 4025 3406 3419 
Q 3406 3131 3298 2873 
Q 3191 2616 2906 2266 
Q 2828 2175 2409 1742 
Q 1991 1309 1228 531 
z
" transform="scale(0.015625)"/>
       </defs>
       <use xlink:href="#DejaVuSans-4a"/>
       <use xlink:href="#DejaVuSans-61" x="29.492188"/>
       <use xlink:href="#DejaVuSans-6e" x="90.771484"/>
       <use xlink:href="#DejaVuSans-20" x="154.150391"/>
       <use xlink:href="#DejaVuSans-30" x="185.9375"/>
       <use xlink:href="#DejaVuSans-31" x="249.560547"/>
       <use xlink:href="#DejaVuSans-2c" x="313.183594"/>
       <use xlink:href="#DejaVuSans-20" x="344.970703"/>
       <use xlink:href="#DejaVuSans-32" x="376.757812"/>
       <use xlink:href="#DejaVuSans-30" x="440.380859"/>
      </g>
     </g>
    </g>
    <g id="xtick_2">
     <g id="line2d_3">
      <path d="M 213.121372 622.6035 
L 213.121372 35.0835 
" clip-path="url(#pe800caa417)" style="fill: none; stroke: #a5a391; stroke-opacity: 0.3; stroke-width: 0.8; stroke-linecap: square"/>
     </g>
     <g id="line2d_4">
      <g>
       <use xlink:href="#m2598ec1e31" x="213.121372" y="622.6035" style="stroke: #000000; stroke-width: 0.8"/>
      </g>
     </g>
     <g id="text_2">
      <!-- May 01, 20 -->
      <g transform="translate(114.636819 694.923755) rotate(-30) scale(0.2 -0.2)">
       <defs>
        <path id="DejaVuSans-4d" d="M 628 4666 
L 1569 4666 
L 2759 1491 
L 3956 4666 
L 4897 4666 
L 4897 0 
L 4281 0 
L 4281 4097 
L 3078 897 
L 2444 897 
L 1241 4097 
L 1241 0 
L 628 0 
L 628 4666 
z
" transform="scale(0.015625)"/>
        <path id="DejaVuSans-79" d="M 2059 -325 
Q 1816 -950 1584 -1140 
Q 1353 -1331 966 -1331 
L 506 -1331 
L 506 -850 
L 844 -850 
Q 1081 -850 1212 -737 
Q 1344 -625 1503 -206 
L 1606 56 
L 191 3500 
L 800 3500 
L 1894 763 
L 2988 3500 
L 3597 3500 
L 2059 -325 
z
" transform="scale(0.015625)"/>
       </defs>
       <use xlink:href="#DejaVuSans-4d"/>
       <use xlink:href="#DejaVuSans-61" x="86.279297"/>
       <use xlink:href="#DejaVuSans-79" x="147.558594"/>
       <use xlink:href="#DejaVuSans-20" x="206.738281"/>
       <use xlink:href="#DejaVuSans-30" x="238.525391"/>
       <use xlink:href="#DejaVuSans-31" x="302.148438"/>
       <use xlink:href="#DejaVuSans-2c" x="365.771484"/>
       <use xlink:href="#DejaVuSans-20" x="397.558594"/>
       <use xlink:href="#DejaVuSans-32" x="429.345703"/>
       <use xlink:href="#DejaVuSans-30" x="492.96875"/>
      </g>
     </g>
    </g>
    <g id="xtick_3">
     <g id="line2d_5">
      <path d="M 313.555248 622.6035 
L 313.555248 35.0835 
" clip-path="url(#pe800caa417)" style="fill: none; stroke: #a5a391; stroke-opacity: 0.3; stroke-width: 0.8; stroke-linecap: square"/>
     </g>
     <g id="line2d_6">
      <g>
       <use xlink:href="#m2598ec1e31" x="313.555248" y="622.6035" style="stroke: #000000; stroke-width: 0.8"/>
      </g>
     </g>
     <g id="text_3">
      <!-- Sep 01, 20 -->
      <g transform="translate(218.231688 693.098755) rotate(-30) scale(0.2 -0.2)">
       <defs>
        <path id="DejaVuSans-53" d="M 3425 4513 
L 3425 3897 
Q 3066 4069 2747 4153 
Q 2428 4238 2131 4238 
Q 1616 4238 1336 4038 
Q 1056 3838 1056 3469 
Q 1056 3159 1242 3001 
Q 1428 2844 1947 2747 
L 2328 2669 
Q 3034 2534 3370 2195 
Q 3706 1856 3706 1288 
Q 3706 609 3251 259 
Q 2797 -91 1919 -91 
Q 1588 -91 1214 -16 
Q 841 59 441 206 
L 441 856 
Q 825 641 1194 531 
Q 1563 422 1919 422 
Q 2459 422 2753 634 
Q 3047 847 3047 1241 
Q 3047 1584 2836 1778 
Q 2625 1972 2144 2069 
L 1759 2144 
Q 1053 2284 737 2584 
Q 422 2884 422 3419 
Q 422 4038 858 4394 
Q 1294 4750 2059 4750 
Q 2388 4750 2728 4690 
Q 3069 4631 3425 4513 
z
" transform="scale(0.015625)"/>
        <path id="DejaVuSans-65" d="M 3597 1894 
L 3597 1613 
L 953 1613 
Q 991 1019 1311 708 
Q 1631 397 2203 397 
Q 2534 397 2845 478 
Q 3156 559 3463 722 
L 3463 178 
Q 3153 47 2828 -22 
Q 2503 -91 2169 -91 
Q 1331 -91 842 396 
Q 353 884 353 1716 
Q 353 2575 817 3079 
Q 1281 3584 2069 3584 
Q 2775 3584 3186 3129 
Q 3597 2675 3597 1894 
z
M 3022 2063 
Q 3016 2534 2758 2815 
Q 2500 3097 2075 3097 
Q 1594 3097 1305 2825 
Q 1016 2553 972 2059 
L 3022 2063 
z
" transform="scale(0.015625)"/>
        <path id="DejaVuSans-70" d="M 1159 525 
L 1159 -1331 
L 581 -1331 
L 581 3500 
L 1159 3500 
L 1159 2969 
Q 1341 3281 1617 3432 
Q 1894 3584 2278 3584 
Q 2916 3584 3314 3078 
Q 3713 2572 3713 1747 
Q 3713 922 3314 415 
Q 2916 -91 2278 -91 
Q 1894 -91 1617 61 
Q 1341 213 1159 525 
z
M 3116 1747 
Q 3116 2381 2855 2742 
Q 2594 3103 2138 3103 
Q 1681 3103 1420 2742 
Q 1159 2381 1159 1747 
Q 1159 1113 1420 752 
Q 1681 391 2138 391 
Q 2594 391 2855 752 
Q 3116 1113 3116 1747 
z
" transform="scale(0.015625)"/>
       </defs>
       <use xlink:href="#DejaVuSans-53"/>
       <use xlink:href="#DejaVuSans-65" x="63.476562"/>
       <use xlink:href="#DejaVuSans-70" x="125"/>
       <use xlink:href="#DejaVuSans-20" x="188.476562"/>
       <use xlink:href="#DejaVuSans-30" x="220.263672"/>
       <use xlink:href="#DejaVuSans-31" x="283.886719"/>
       <use xlink:href="#DejaVuSans-2c" x="347.509766"/>
       <use xlink:href="#DejaVuSans-20" x="379.296875"/>
       <use xlink:href="#DejaVuSans-32" x="411.083984"/>
       <use xlink:href="#DejaVuSans-30" x="474.707031"/>
      </g>
     </g>
    </g>
    <g id="xtick_4">
     <g id="line2d_7">
      <path d="M 413.172588 622.6035 
L 413.172588 35.0835 
" clip-path="url(#pe800caa417)" style="fill: none; stroke: #a5a391; stroke-opacity: 0.3; stroke-width: 0.8; stroke-linecap: square"/>
     </g>
     <g id="line2d_8">
      <g>
       <use xlink:href="#m2598ec1e31" x="413.172588" y="622.6035" style="stroke: #000000; stroke-width: 0.8"/>
      </g>
     </g>
     <g id="text_4">
      <!-- Jan 01, 21 -->
      <g transform="translate(323.79754 689.66438) rotate(-30) scale(0.2 -0.2)">
       <use xlink:href="#DejaVuSans-4a"/>
       <use xlink:href="#DejaVuSans-61" x="29.492188"/>
       <use xlink:href="#DejaVuSans-6e" x="90.771484"/>
       <use xlink:href="#DejaVuSans-20" x="154.150391"/>
       <use xlink:href="#DejaVuSans-30" x="185.9375"/>
       <use xlink:href="#DejaVuSans-31" x="249.560547"/>
       <use xlink:href="#DejaVuSans-2c" x="313.183594"/>
       <use xlink:href="#DejaVuSans-20" x="344.970703"/>
       <use xlink:href="#DejaVuSans-32" x="376.757812"/>
       <use xlink:href="#DejaVuSans-31" x="440.380859"/>
      </g>
     </g>
    </g>
    <g id="xtick_5">
     <g id="line2d_9">
      <path d="M 511.156858 622.6035 
L 511.156858 35.0835 
" clip-path="url(#pe800caa417)" style="fill: none; stroke: #a5a391; stroke-opacity: 0.3; stroke-width: 0.8; stroke-linecap: square"/>
     </g>
     <g id="line2d_10">
      <g>
       <use xlink:href="#m2598ec1e31" x="511.156858" y="622.6035" style="stroke: #000000; stroke-width: 0.8"/>
      </g>
     </g>
     <g id="text_5">
      <!-- May 01, 21 -->
      <g transform="translate(412.672305 694.923755) rotate(-30) scale(0.2 -0.2)">
       <use xlink:href="#DejaVuSans-4d"/>
       <use xlink:href="#DejaVuSans-61" x="86.279297"/>
       <use xlink:href="#DejaVuSans-79" x="147.558594"/>
       <use xlink:href="#DejaVuSans-20" x="206.738281"/>
       <use xlink:href="#DejaVuSans-30" x="238.525391"/>
       <use xlink:href="#DejaVuSans-31" x="302.148438"/>
       <use xlink:href="#DejaVuSans-2c" x="365.771484"/>
       <use xlink:href="#DejaVuSans-20" x="397.558594"/>
       <use xlink:href="#DejaVuSans-32" x="429.345703"/>
       <use xlink:href="#DejaVuSans-31" x="492.96875"/>
      </g>
     </g>
    </g>
    <g id="xtick_6">
     <g id="line2d_11">
      <path d="M 611.590734 622.6035 
L 611.590734 35.0835 
" clip-path="url(#pe800caa417)" style="fill: none; stroke: #a5a391; stroke-opacity: 0.3; stroke-width: 0.8; stroke-linecap: square"/>
     </g>
     <g id="line2d_12">
      <g>
       <use xlink:href="#m2598ec1e31" x="611.590734" y="622.6035" style="stroke: #000000; stroke-width: 0.8"/>
      </g>
     </g>
     <g id="text_6">
      <!-- Sep 01, 21 -->
      <g transform="translate(516.267173 693.098755) rotate(-30) scale(0.2 -0.2)">
       <use xlink:href="#DejaVuSans-53"/>
       <use xlink:href="#DejaVuSans-65" x="63.476562"/>
       <use xlink:href="#DejaVuSans-70" x="125"/>
       <use xlink:href="#DejaVuSans-20" x="188.476562"/>
       <use xlink:href="#DejaVuSans-30" x="220.263672"/>
       <use xlink:href="#DejaVuSans-31" x="283.886719"/>
       <use xlink:href="#DejaVuSans-2c" x="347.509766"/>
       <use xlink:href="#DejaVuSans-20" x="379.296875"/>
       <use xlink:href="#DejaVuSans-32" x="411.083984"/>
       <use xlink:href="#DejaVuSans-31" x="474.707031"/>
      </g>
     </g>
    </g>
    <g id="xtick_7">
     <g id="line2d_13">
      <path d="M 711.208074 622.6035 
L 711.208074 35.0835 
" clip-path="url(#pe800caa417)" style="fill: none; stroke: #a5a391; stroke-opacity: 0.3; stroke-width: 0.8; stroke-linecap: square"/>
     </g>
     <g id="line2d_14">
      <g>
       <use xlink:href="#m2598ec1e31" x="711.208074" y="622.6035" style="stroke: #000000; stroke-width: 0.8"/>
      </g>
     </g>
     <g id="text_7">
      <!-- Jan 01, 22 -->
      <g transform="translate(621.833026 689.66438) rotate(-30) scale(0.2 -0.2)">
       <use xlink:href="#DejaVuSans-4a"/>
       <use xlink:href="#DejaVuSans-61" x="29.492188"/>
       <use xlink:href="#DejaVuSans-6e" x="90.771484"/>
       <use xlink:href="#DejaVuSans-20" x="154.150391"/>
       <use xlink:href="#DejaVuSans-30" x="185.9375"/>
       <use xlink:href="#DejaVuSans-31" x="249.560547"/>
       <use xlink:href="#DejaVuSans-2c" x="313.183594"/>
       <use xlink:href="#DejaVuSans-20" x="344.970703"/>
       <use xlink:href="#DejaVuSans-32" x="376.757812"/>
       <use xlink:href="#DejaVuSans-32" x="440.380859"/>
      </g>
     </g>
    </g>
    <g id="xtick_8">
     <g id="line2d_15">
      <path d="M 809.192343 622.6035 
L 809.192343 35.0835 
" clip-path="url(#pe800caa417)" style="fill: none; stroke: #a5a391; stroke-opacity: 0.3; stroke-width: 0.8; stroke-linecap: square"/>
     </g>
     <g id="line2d_16">
      <g>
       <use xlink:href="#m2598ec1e31" x="809.192343" y="622.6035" style="stroke: #000000; stroke-width: 0.8"/>
      </g>
     </g>
     <g id="text_8">
      <!-- May 01, 22 -->
      <g transform="translate(710.70779 694.923755) rotate(-30) scale(0.2 -0.2)">
       <use xlink:href="#DejaVuSans-4d"/>
       <use xlink:href="#DejaVuSans-61" x="86.279297"/>
       <use xlink:href="#DejaVuSans-79" x="147.558594"/>
       <use xlink:href="#DejaVuSans-20" x="206.738281"/>
       <use xlink:href="#DejaVuSans-30" x="238.525391"/>
       <use xlink:href="#DejaVuSans-31" x="302.148438"/>
       <use xlink:href="#DejaVuSans-2c" x="365.771484"/>
       <use xlink:href="#DejaVuSans-20" x="397.558594"/>
       <use xlink:href="#DejaVuSans-32" x="429.345703"/>
       <use xlink:href="#DejaVuSans-32" x="492.96875"/>
      </g>
     </g>
    </g>
    <g id="xtick_9">
     <g id="line2d_17">
      <path d="M 909.626219 622.6035 
L 909.626219 35.0835 
" clip-path="url(#pe800caa417)" style="fill: none; stroke: #a5a391; stroke-opacity: 0.3; stroke-width: 0.8; stroke-linecap: square"/>
     </g>
     <g id="line2d_18">
      <g>
       <use xlink:href="#m2598ec1e31" x="909.626219" y="622.6035" style="stroke: #000000; stroke-width: 0.8"/>
      </g>
     </g>
     <g id="text_9">
      <!-- Sep 01, 22 -->
      <g transform="translate(814.302659 693.098755) rotate(-30) scale(0.2 -0.2)">
       <use xlink:href="#DejaVuSans-53"/>
       <use xlink:href="#DejaVuSans-65" x="63.476562"/>
       <use xlink:href="#DejaVuSans-70" x="125"/>
       <use xlink:href="#DejaVuSans-20" x="188.476562"/>
       <use xlink:href="#DejaVuSans-30" x="220.263672"/>
       <use xlink:href="#DejaVuSans-31" x="283.886719"/>
       <use xlink:href="#DejaVuSans-2c" x="347.509766"/>
       <use xlink:href="#DejaVuSans-20" x="379.296875"/>
       <use xlink:href="#DejaVuSans-32" x="411.083984"/>
       <use xlink:href="#DejaVuSans-32" x="474.707031"/>
      </g>
     </g>
    </g>
   </g>
   <g id="matplotlib.axis_2">
    <g id="ytick_1">
     <g id="line2d_19">
      <path d="M 68.023 534.619976 
L 960.823 534.619976 
" clip-path="url(#pe800caa417)" style="fill: none; stroke: #a5a391; stroke-opacity: 0.3; stroke-width: 0.8; stroke-linecap: square"/>
     </g>
     <g id="line2d_20">
      <defs>
       <path id="m40d91f2513" d="M 0 0 
L 3.5 0 
" style="stroke: #000000; stroke-width: 0.8"/>
      </defs>
      <g>
       <use xlink:href="#m40d91f2513" x="68.023" y="534.619976" style="stroke: #000000; stroke-width: 0.8"/>
      </g>
     </g>
     <g id="text_10">
      <!-- 53 -->
      <g transform="translate(39.073 542.218413) scale(0.2 -0.2)">
       <defs>
        <path id="DejaVuSans-35" d="M 691 4666 
L 3169 4666 
L 3169 4134 
L 1269 4134 
L 1269 2991 
Q 1406 3038 1543 3061 
Q 1681 3084 1819 3084 
Q 2600 3084 3056 2656 
Q 3513 2228 3513 1497 
Q 3513 744 3044 326 
Q 2575 -91 1722 -91 
Q 1428 -91 1123 -41 
Q 819 9 494 109 
L 494 744 
Q 775 591 1075 516 
Q 1375 441 1709 441 
Q 2250 441 2565 725 
Q 2881 1009 2881 1497 
Q 2881 1984 2565 2268 
Q 2250 2553 1709 2553 
Q 1456 2553 1204 2497 
Q 953 2441 691 2322 
L 691 4666 
z
" transform="scale(0.015625)"/>
        <path id="DejaVuSans-33" d="M 2597 2516 
Q 3050 2419 3304 2112 
Q 3559 1806 3559 1356 
Q 3559 666 3084 287 
Q 2609 -91 1734 -91 
Q 1441 -91 1130 -33 
Q 819 25 488 141 
L 488 750 
Q 750 597 1062 519 
Q 1375 441 1716 441 
Q 2309 441 2620 675 
Q 2931 909 2931 1356 
Q 2931 1769 2642 2001 
Q 2353 2234 1838 2234 
L 1294 2234 
L 1294 2753 
L 1863 2753 
Q 2328 2753 2575 2939 
Q 2822 3125 2822 3475 
Q 2822 3834 2567 4026 
Q 2313 4219 1838 4219 
Q 1578 4219 1281 4162 
Q 984 4106 628 3988 
L 628 4550 
Q 988 4650 1302 4700 
Q 1616 4750 1894 4750 
Q 2613 4750 3031 4423 
Q 3450 4097 3450 3541 
Q 3450 3153 3228 2886 
Q 3006 2619 2597 2516 
z
" transform="scale(0.015625)"/>
       </defs>
       <use xlink:href="#DejaVuSans-35"/>
       <use xlink:href="#DejaVuSans-33" x="63.623047"/>
      </g>
     </g>
    </g>
    <g id="ytick_2">
     <g id="line2d_21">
      <path d="M 68.023 442.138116 
L 960.823 442.138116 
" clip-path="url(#pe800caa417)" style="fill: none; stroke: #a5a391; stroke-opacity: 0.3; stroke-width: 0.8; stroke-linecap: square"/>
     </g>
     <g id="line2d_22">
      <g>
       <use xlink:href="#m40d91f2513" x="68.023" y="442.138116" style="stroke: #000000; stroke-width: 0.8"/>
      </g>
     </g>
     <g id="text_11">
      <!-- 54 -->
      <g transform="translate(39.073 449.736554) scale(0.2 -0.2)">
       <defs>
        <path id="DejaVuSans-34" d="M 2419 4116 
L 825 1625 
L 2419 1625 
L 2419 4116 
z
M 2253 4666 
L 3047 4666 
L 3047 1625 
L 3713 1625 
L 3713 1100 
L 3047 1100 
L 3047 0 
L 2419 0 
L 2419 1100 
L 313 1100 
L 313 1709 
L 2253 4666 
z
" transform="scale(0.015625)"/>
       </defs>
       <use xlink:href="#DejaVuSans-35"/>
       <use xlink:href="#DejaVuSans-34" x="63.623047"/>
      </g>
     </g>
    </g>
    <g id="ytick_3">
     <g id="line2d_23">
      <path d="M 68.023 349.656257 
L 960.823 349.656257 
" clip-path="url(#pe800caa417)" style="fill: none; stroke: #a5a391; stroke-opacity: 0.3; stroke-width: 0.8; stroke-linecap: square"/>
     </g>
     <g id="line2d_24">
      <g>
       <use xlink:href="#m40d91f2513" x="68.023" y="349.656257" style="stroke: #000000; stroke-width: 0.8"/>
      </g>
     </g>
     <g id="text_12">
      <!-- 55 -->
      <g transform="translate(39.073 357.254694) scale(0.2 -0.2)">
       <use xlink:href="#DejaVuSans-35"/>
       <use xlink:href="#DejaVuSans-35" x="63.623047"/>
      </g>
     </g>
    </g>
    <g id="ytick_4">
     <g id="line2d_25">
      <path d="M 68.023 257.174397 
L 960.823 257.174397 
" clip-path="url(#pe800caa417)" style="fill: none; stroke: #a5a391; stroke-opacity: 0.3; stroke-width: 0.8; stroke-linecap: square"/>
     </g>
     <g id="line2d_26">
      <g>
       <use xlink:href="#m40d91f2513" x="68.023" y="257.174397" style="stroke: #000000; stroke-width: 0.8"/>
      </g>
     </g>
     <g id="text_13">
      <!-- 56 -->
      <g transform="translate(39.073 264.772835) scale(0.2 -0.2)">
       <defs>
        <path id="DejaVuSans-36" d="M 2113 2584 
Q 1688 2584 1439 2293 
Q 1191 2003 1191 1497 
Q 1191 994 1439 701 
Q 1688 409 2113 409 
Q 2538 409 2786 701 
Q 3034 994 3034 1497 
Q 3034 2003 2786 2293 
Q 2538 2584 2113 2584 
z
M 3366 4563 
L 3366 3988 
Q 3128 4100 2886 4159 
Q 2644 4219 2406 4219 
Q 1781 4219 1451 3797 
Q 1122 3375 1075 2522 
Q 1259 2794 1537 2939 
Q 1816 3084 2150 3084 
Q 2853 3084 3261 2657 
Q 3669 2231 3669 1497 
Q 3669 778 3244 343 
Q 2819 -91 2113 -91 
Q 1303 -91 875 529 
Q 447 1150 447 2328 
Q 447 3434 972 4092 
Q 1497 4750 2381 4750 
Q 2619 4750 2861 4703 
Q 3103 4656 3366 4563 
z
" transform="scale(0.015625)"/>
       </defs>
       <use xlink:href="#DejaVuSans-35"/>
       <use xlink:href="#DejaVuSans-36" x="63.623047"/>
      </g>
     </g>
    </g>
    <g id="ytick_5">
     <g id="line2d_27">
      <path d="M 68.023 164.692537 
L 960.823 164.692537 
" clip-path="url(#pe800caa417)" style="fill: none; stroke: #a5a391; stroke-opacity: 0.3; stroke-width: 0.8; stroke-linecap: square"/>
     </g>
     <g id="line2d_28">
      <g>
       <use xlink:href="#m40d91f2513" x="68.023" y="164.692537" style="stroke: #000000; stroke-width: 0.8"/>
      </g>
     </g>
     <g id="text_14">
      <!-- 57 -->
      <g transform="translate(39.073 172.290975) scale(0.2 -0.2)">
       <defs>
        <path id="DejaVuSans-37" d="M 525 4666 
L 3525 4666 
L 3525 4397 
L 1831 0 
L 1172 0 
L 2766 4134 
L 525 4134 
L 525 4666 
z
" transform="scale(0.015625)"/>
       </defs>
       <use xlink:href="#DejaVuSans-35"/>
       <use xlink:href="#DejaVuSans-37" x="63.623047"/>
      </g>
     </g>
    </g>
    <g id="ytick_6">
     <g id="line2d_29">
      <path d="M 68.023 72.210678 
L 960.823 72.210678 
" clip-path="url(#pe800caa417)" style="fill: none; stroke: #a5a391; stroke-opacity: 0.3; stroke-width: 0.8; stroke-linecap: square"/>
     </g>
     <g id="line2d_30">
      <g>
       <use xlink:href="#m40d91f2513" x="68.023" y="72.210678" style="stroke: #000000; stroke-width: 0.8"/>
      </g>
     </g>
     <g id="text_15">
      <!-- 58 -->
      <g transform="translate(39.073 79.809115) scale(0.2 -0.2)">
       <defs>
        <path id="DejaVuSans-38" d="M 2034 2216 
Q 1584 2216 1326 1975 
Q 1069 1734 1069 1313 
Q 1069 891 1326 650 
Q 1584 409 2034 409 
Q 2484 409 2743 651 
Q 3003 894 3003 1313 
Q 3003 1734 2745 1975 
Q 2488 2216 2034 2216 
z
M 1403 2484 
Q 997 2584 770 2862 
Q 544 3141 544 3541 
Q 544 4100 942 4425 
Q 1341 4750 2034 4750 
Q 2731 4750 3128 4425 
Q 3525 4100 3525 3541 
Q 3525 3141 3298 2862 
Q 3072 2584 2669 2484 
Q 3125 2378 3379 2068 
Q 3634 1759 3634 1313 
Q 3634 634 3220 271 
Q 2806 -91 2034 -91 
Q 1263 -91 848 271 
Q 434 634 434 1313 
Q 434 1759 690 2068 
Q 947 2378 1403 2484 
z
M 1172 3481 
Q 1172 3119 1398 2916 
Q 1625 2713 2034 2713 
Q 2441 2713 2670 2916 
Q 2900 3119 2900 3481 
Q 2900 3844 2670 4047 
Q 2441 4250 2034 4250 
Q 1625 4250 1398 4047 
Q 1172 3844 1172 3481 
z
" transform="scale(0.015625)"/>
       </defs>
       <use xlink:href="#DejaVuSans-35"/>
       <use xlink:href="#DejaVuSans-38" x="63.623047"/>
      </g>
     </g>
    </g>
    <g id="text_16">
     <!-- Water Percentage [%] -->
     <g transform="translate(29.0835 486.4785) rotate(-90) scale(0.288 -0.288)">
      <defs>
       <path id="DejaVuSans-57" d="M 213 4666 
L 850 4666 
L 1831 722 
L 2809 4666 
L 3519 4666 
L 4500 722 
L 5478 4666 
L 6119 4666 
L 4947 0 
L 4153 0 
L 3169 4050 
L 2175 0 
L 1381 0 
L 213 4666 
z
" transform="scale(0.015625)"/>
       <path id="DejaVuSans-74" d="M 1172 4494 
L 1172 3500 
L 2356 3500 
L 2356 3053 
L 1172 3053 
L 1172 1153 
Q 1172 725 1289 603 
Q 1406 481 1766 481 
L 2356 481 
L 2356 0 
L 1766 0 
Q 1100 0 847 248 
Q 594 497 594 1153 
L 594 3053 
L 172 3053 
L 172 3500 
L 594 3500 
L 594 4494 
L 1172 4494 
z
" transform="scale(0.015625)"/>
       <path id="DejaVuSans-72" d="M 2631 2963 
Q 2534 3019 2420 3045 
Q 2306 3072 2169 3072 
Q 1681 3072 1420 2755 
Q 1159 2438 1159 1844 
L 1159 0 
L 581 0 
L 581 3500 
L 1159 3500 
L 1159 2956 
Q 1341 3275 1631 3429 
Q 1922 3584 2338 3584 
Q 2397 3584 2469 3576 
Q 2541 3569 2628 3553 
L 2631 2963 
z
" transform="scale(0.015625)"/>
       <path id="DejaVuSans-50" d="M 1259 4147 
L 1259 2394 
L 2053 2394 
Q 2494 2394 2734 2622 
Q 2975 2850 2975 3272 
Q 2975 3691 2734 3919 
Q 2494 4147 2053 4147 
L 1259 4147 
z
M 628 4666 
L 2053 4666 
Q 2838 4666 3239 4311 
Q 3641 3956 3641 3272 
Q 3641 2581 3239 2228 
Q 2838 1875 2053 1875 
L 1259 1875 
L 1259 0 
L 628 0 
L 628 4666 
z
" transform="scale(0.015625)"/>
       <path id="DejaVuSans-63" d="M 3122 3366 
L 3122 2828 
Q 2878 2963 2633 3030 
Q 2388 3097 2138 3097 
Q 1578 3097 1268 2742 
Q 959 2388 959 1747 
Q 959 1106 1268 751 
Q 1578 397 2138 397 
Q 2388 397 2633 464 
Q 2878 531 3122 666 
L 3122 134 
Q 2881 22 2623 -34 
Q 2366 -91 2075 -91 
Q 1284 -91 818 406 
Q 353 903 353 1747 
Q 353 2603 823 3093 
Q 1294 3584 2113 3584 
Q 2378 3584 2631 3529 
Q 2884 3475 3122 3366 
z
" transform="scale(0.015625)"/>
       <path id="DejaVuSans-67" d="M 2906 1791 
Q 2906 2416 2648 2759 
Q 2391 3103 1925 3103 
Q 1463 3103 1205 2759 
Q 947 2416 947 1791 
Q 947 1169 1205 825 
Q 1463 481 1925 481 
Q 2391 481 2648 825 
Q 2906 1169 2906 1791 
z
M 3481 434 
Q 3481 -459 3084 -895 
Q 2688 -1331 1869 -1331 
Q 1566 -1331 1297 -1286 
Q 1028 -1241 775 -1147 
L 775 -588 
Q 1028 -725 1275 -790 
Q 1522 -856 1778 -856 
Q 2344 -856 2625 -561 
Q 2906 -266 2906 331 
L 2906 616 
Q 2728 306 2450 153 
Q 2172 0 1784 0 
Q 1141 0 747 490 
Q 353 981 353 1791 
Q 353 2603 747 3093 
Q 1141 3584 1784 3584 
Q 2172 3584 2450 3431 
Q 2728 3278 2906 2969 
L 2906 3500 
L 3481 3500 
L 3481 434 
z
" transform="scale(0.015625)"/>
       <path id="DejaVuSans-5b" d="M 550 4863 
L 1875 4863 
L 1875 4416 
L 1125 4416 
L 1125 -397 
L 1875 -397 
L 1875 -844 
L 550 -844 
L 550 4863 
z
" transform="scale(0.015625)"/>
       <path id="DejaVuSans-25" d="M 4653 2053 
Q 4381 2053 4226 1822 
Q 4072 1591 4072 1178 
Q 4072 772 4226 539 
Q 4381 306 4653 306 
Q 4919 306 5073 539 
Q 5228 772 5228 1178 
Q 5228 1588 5073 1820 
Q 4919 2053 4653 2053 
z
M 4653 2450 
Q 5147 2450 5437 2106 
Q 5728 1763 5728 1178 
Q 5728 594 5436 251 
Q 5144 -91 4653 -91 
Q 4153 -91 3862 251 
Q 3572 594 3572 1178 
Q 3572 1766 3864 2108 
Q 4156 2450 4653 2450 
z
M 1428 4353 
Q 1159 4353 1004 4120 
Q 850 3888 850 3481 
Q 850 3069 1003 2837 
Q 1156 2606 1428 2606 
Q 1700 2606 1854 2837 
Q 2009 3069 2009 3481 
Q 2009 3884 1853 4118 
Q 1697 4353 1428 4353 
z
M 4250 4750 
L 4750 4750 
L 1831 -91 
L 1331 -91 
L 4250 4750 
z
M 1428 4750 
Q 1922 4750 2215 4408 
Q 2509 4066 2509 3481 
Q 2509 2891 2217 2550 
Q 1925 2209 1428 2209 
Q 931 2209 642 2551 
Q 353 2894 353 3481 
Q 353 4063 643 4406 
Q 934 4750 1428 4750 
z
" transform="scale(0.015625)"/>
       <path id="DejaVuSans-5d" d="M 1947 4863 
L 1947 -844 
L 622 -844 
L 622 -397 
L 1369 -397 
L 1369 4416 
L 622 4416 
L 622 4863 
L 1947 4863 
z
" transform="scale(0.015625)"/>
      </defs>
      <use xlink:href="#DejaVuSans-57"/>
      <use xlink:href="#DejaVuSans-61" x="92.501953"/>
      <use xlink:href="#DejaVuSans-74" x="153.78125"/>
      <use xlink:href="#DejaVuSans-65" x="192.990234"/>
      <use xlink:href="#DejaVuSans-72" x="254.513672"/>
      <use xlink:href="#DejaVuSans-20" x="295.626953"/>
      <use xlink:href="#DejaVuSans-50" x="327.414062"/>
      <use xlink:href="#DejaVuSans-65" x="384.091797"/>
      <use xlink:href="#DejaVuSans-72" x="445.615234"/>
      <use xlink:href="#DejaVuSans-63" x="484.478516"/>
      <use xlink:href="#DejaVuSans-65" x="539.458984"/>
      <use xlink:href="#DejaVuSans-6e" x="600.982422"/>
      <use xlink:href="#DejaVuSans-74" x="664.361328"/>
      <use xlink:href="#DejaVuSans-61" x="703.570312"/>
      <use xlink:href="#DejaVuSans-67" x="764.849609"/>
      <use xlink:href="#DejaVuSans-65" x="828.326172"/>
      <use xlink:href="#DejaVuSans-20" x="889.849609"/>
      <use xlink:href="#DejaVuSans-5b" x="921.636719"/>
      <use xlink:href="#DejaVuSans-25" x="960.650391"/>
      <use xlink:href="#DejaVuSans-5d" x="1055.669922"/>
     </g>
    </g>
   </g>
   <g id="line2d_31">
    <path d="M 108.604818 303.415327 
L 120.036316 469.882674 
L 125.752065 257.174397 
L 131.467814 291.855094 
L 137.183563 222.4937 
L 142.899312 347.806619 
L 148.615061 261.79849 
L 154.33081 223.264382 
L 160.04656 232.512568 
L 165.762309 260.257126 
L 171.478058 334.859159 
L 177.193807 324.994427 
L 182.909556 224.805746 
L 188.625305 203.534918 
L 194.341054 282.606908 
L 200.056803 222.4937 
L 205.772552 155.444352 
L 211.488301 114.752333 
L 217.20405 90.70705 
L 222.919799 134.635933 
L 228.635548 125.387747 
L 234.351297 158.52708 
L 240.067046 229.429839 
L 245.782795 176.25277 
L 251.498544 178.564816 
L 257.214293 187.813002 
L 262.930042 186.888184 
L 268.645791 158.52708 
L 274.36154 223.264382 
L 280.077289 275.670769 
L 285.793038 234.053932 
L 291.508787 214.632742 
L 297.224536 192.437095 
L 302.940286 209.08383 
L 308.656035 133.865251 
L 314.371784 208.621421 
L 320.087533 272.58804 
L 325.803282 227.580202 
L 331.519031 217.098925 
L 337.23478 169.31663 
L 342.950529 240.990072 
L 348.666278 260.257126 
L 354.382027 296.479187 
L 360.097776 257.174397 
L 365.813525 298.791234 
L 371.529274 358.904443 
L 377.245023 238.678025 
L 382.960772 289.543048 
L 388.676521 291.855094 
L 394.39227 354.28035 
L 400.108019 294.167141 
L 405.823768 317.287606 
L 411.539517 311.122148 
L 417.255266 286.240124 
L 422.971015 258.715761 
L 428.686764 247.926211 
L 434.402513 262.723309 
L 440.118262 241.760754 
L 445.834012 281.219681 
L 451.549761 300.332598 
L 457.26551 275.670769 
L 462.981259 266.422583 
L 468.697008 405.145372 
L 474.412757 380.483543 
L 480.128506 294.167141 
L 485.844255 301.56569 
L 491.560004 290.203633 
L 497.275753 349.656257 
L 502.991502 368.152629 
L 508.707251 315.746241 
L 514.423 327.46061 
L 520.138749 292.625777 
L 525.854498 210.933467 
L 531.570247 287.231001 
L 537.285996 272.58804 
L 543.001745 282.606908 
L 548.717494 204.76801 
L 554.433243 266.422583 
L 560.148992 210.933467 
L 565.864741 134.635933 
L 577.296239 247.926211 
L 583.011988 236.828388 
L 588.727738 181.647545 
L 594.443487 275.670769 
L 623.022232 266.422583 
L 628.737981 269.505312 
L 634.45373 342.720117 
L 640.169479 291.084412 
L 645.885228 368.152629 
L 668.748224 321.911699 
L 674.463973 386.649 
L 680.179722 303.415327 
L 720.189965 354.28035 
L 725.905714 409.769465 
L 731.621464 374.318086 
L 737.337213 321.911699 
L 743.052962 238.678025 
L 748.768711 257.174397 
L 754.48446 354.28035 
L 760.200209 298.791234 
L 765.915958 368.152629 
L 771.631707 271.046676 
L 777.347456 358.904443 
L 783.063205 361.987171 
L 805.926201 368.152629 
L 811.64195 395.897186 
L 817.357699 386.649 
L 823.073448 298.791234 
L 828.789197 451.386302 
L 857.367942 432.88993 
L 920.241182 358.904443 
" clip-path="url(#pe800caa417)" style="fill: none; stroke: #0000ff; stroke-width: 1.5; stroke-linecap: square"/>
    <defs>
     <path id="md24e285783" d="M 0 -3 
L -0.673542 -0.927051 
L -2.85317 -0.927051 
L -1.089814 0.354102 
L -1.763356 2.427051 
L -0 1.145898 
L 1.763356 2.427051 
L 1.089814 0.354102 
L 2.85317 -0.927051 
L 0.673542 -0.927051 
z
" style="stroke: #0000ff; stroke-linejoin: bevel"/>
    </defs>
    <g clip-path="url(#pe800caa417)">
     <use xlink:href="#md24e285783" x="108.604818" y="303.415327" style="fill: #0000ff; stroke: #0000ff; stroke-linejoin: bevel"/>
     <use xlink:href="#md24e285783" x="120.036316" y="469.882674" style="fill: #0000ff; stroke: #0000ff; stroke-linejoin: bevel"/>
     <use xlink:href="#md24e285783" x="125.752065" y="257.174397" style="fill: #0000ff; stroke: #0000ff; stroke-linejoin: bevel"/>
     <use xlink:href="#md24e285783" x="131.467814" y="291.855094" style="fill: #0000ff; stroke: #0000ff; stroke-linejoin: bevel"/>
     <use xlink:href="#md24e285783" x="137.183563" y="222.4937" style="fill: #0000ff; stroke: #0000ff; stroke-linejoin: bevel"/>
     <use xlink:href="#md24e285783" x="142.899312" y="347.806619" style="fill: #0000ff; stroke: #0000ff; stroke-linejoin: bevel"/>
     <use xlink:href="#md24e285783" x="148.615061" y="261.79849" style="fill: #0000ff; stroke: #0000ff; stroke-linejoin: bevel"/>
     <use xlink:href="#md24e285783" x="154.33081" y="223.264382" style="fill: #0000ff; stroke: #0000ff; stroke-linejoin: bevel"/>
     <use xlink:href="#md24e285783" x="160.04656" y="232.512568" style="fill: #0000ff; stroke: #0000ff; stroke-linejoin: bevel"/>
     <use xlink:href="#md24e285783" x="165.762309" y="260.257126" style="fill: #0000ff; stroke: #0000ff; stroke-linejoin: bevel"/>
     <use xlink:href="#md24e285783" x="171.478058" y="334.859159" style="fill: #0000ff; stroke: #0000ff; stroke-linejoin: bevel"/>
     <use xlink:href="#md24e285783" x="177.193807" y="324.994427" style="fill: #0000ff; stroke: #0000ff; stroke-linejoin: bevel"/>
     <use xlink:href="#md24e285783" x="182.909556" y="224.805746" style="fill: #0000ff; stroke: #0000ff; stroke-linejoin: bevel"/>
     <use xlink:href="#md24e285783" x="188.625305" y="203.534918" style="fill: #0000ff; stroke: #0000ff; stroke-linejoin: bevel"/>
     <use xlink:href="#md24e285783" x="194.341054" y="282.606908" style="fill: #0000ff; stroke: #0000ff; stroke-linejoin: bevel"/>
     <use xlink:href="#md24e285783" x="200.056803" y="222.4937" style="fill: #0000ff; stroke: #0000ff; stroke-linejoin: bevel"/>
     <use xlink:href="#md24e285783" x="205.772552" y="155.444352" style="fill: #0000ff; stroke: #0000ff; stroke-linejoin: bevel"/>
     <use xlink:href="#md24e285783" x="211.488301" y="114.752333" style="fill: #0000ff; stroke: #0000ff; stroke-linejoin: bevel"/>
     <use xlink:href="#md24e285783" x="217.20405" y="90.70705" style="fill: #0000ff; stroke: #0000ff; stroke-linejoin: bevel"/>
     <use xlink:href="#md24e285783" x="222.919799" y="134.635933" style="fill: #0000ff; stroke: #0000ff; stroke-linejoin: bevel"/>
     <use xlink:href="#md24e285783" x="228.635548" y="125.387747" style="fill: #0000ff; stroke: #0000ff; stroke-linejoin: bevel"/>
     <use xlink:href="#md24e285783" x="234.351297" y="158.52708" style="fill: #0000ff; stroke: #0000ff; stroke-linejoin: bevel"/>
     <use xlink:href="#md24e285783" x="240.067046" y="229.429839" style="fill: #0000ff; stroke: #0000ff; stroke-linejoin: bevel"/>
     <use xlink:href="#md24e285783" x="245.782795" y="176.25277" style="fill: #0000ff; stroke: #0000ff; stroke-linejoin: bevel"/>
     <use xlink:href="#md24e285783" x="251.498544" y="178.564816" style="fill: #0000ff; stroke: #0000ff; stroke-linejoin: bevel"/>
     <use xlink:href="#md24e285783" x="257.214293" y="187.813002" style="fill: #0000ff; stroke: #0000ff; stroke-linejoin: bevel"/>
     <use xlink:href="#md24e285783" x="262.930042" y="186.888184" style="fill: #0000ff; stroke: #0000ff; stroke-linejoin: bevel"/>
     <use xlink:href="#md24e285783" x="268.645791" y="158.52708" style="fill: #0000ff; stroke: #0000ff; stroke-linejoin: bevel"/>
     <use xlink:href="#md24e285783" x="274.36154" y="223.264382" style="fill: #0000ff; stroke: #0000ff; stroke-linejoin: bevel"/>
     <use xlink:href="#md24e285783" x="280.077289" y="275.670769" style="fill: #0000ff; stroke: #0000ff; stroke-linejoin: bevel"/>
     <use xlink:href="#md24e285783" x="285.793038" y="234.053932" style="fill: #0000ff; stroke: #0000ff; stroke-linejoin: bevel"/>
     <use xlink:href="#md24e285783" x="291.508787" y="214.632742" style="fill: #0000ff; stroke: #0000ff; stroke-linejoin: bevel"/>
     <use xlink:href="#md24e285783" x="297.224536" y="192.437095" style="fill: #0000ff; stroke: #0000ff; stroke-linejoin: bevel"/>
     <use xlink:href="#md24e285783" x="302.940286" y="209.08383" style="fill: #0000ff; stroke: #0000ff; stroke-linejoin: bevel"/>
     <use xlink:href="#md24e285783" x="308.656035" y="133.865251" style="fill: #0000ff; stroke: #0000ff; stroke-linejoin: bevel"/>
     <use xlink:href="#md24e285783" x="314.371784" y="208.621421" style="fill: #0000ff; stroke: #0000ff; stroke-linejoin: bevel"/>
     <use xlink:href="#md24e285783" x="320.087533" y="272.58804" style="fill: #0000ff; stroke: #0000ff; stroke-linejoin: bevel"/>
     <use xlink:href="#md24e285783" x="325.803282" y="227.580202" style="fill: #0000ff; stroke: #0000ff; stroke-linejoin: bevel"/>
     <use xlink:href="#md24e285783" x="331.519031" y="217.098925" style="fill: #0000ff; stroke: #0000ff; stroke-linejoin: bevel"/>
     <use xlink:href="#md24e285783" x="337.23478" y="169.31663" style="fill: #0000ff; stroke: #0000ff; stroke-linejoin: bevel"/>
     <use xlink:href="#md24e285783" x="342.950529" y="240.990072" style="fill: #0000ff; stroke: #0000ff; stroke-linejoin: bevel"/>
     <use xlink:href="#md24e285783" x="348.666278" y="260.257126" style="fill: #0000ff; stroke: #0000ff; stroke-linejoin: bevel"/>
     <use xlink:href="#md24e285783" x="354.382027" y="296.479187" style="fill: #0000ff; stroke: #0000ff; stroke-linejoin: bevel"/>
     <use xlink:href="#md24e285783" x="360.097776" y="257.174397" style="fill: #0000ff; stroke: #0000ff; stroke-linejoin: bevel"/>
     <use xlink:href="#md24e285783" x="365.813525" y="298.791234" style="fill: #0000ff; stroke: #0000ff; stroke-linejoin: bevel"/>
     <use xlink:href="#md24e285783" x="371.529274" y="358.904443" style="fill: #0000ff; stroke: #0000ff; stroke-linejoin: bevel"/>
     <use xlink:href="#md24e285783" x="377.245023" y="238.678025" style="fill: #0000ff; stroke: #0000ff; stroke-linejoin: bevel"/>
     <use xlink:href="#md24e285783" x="382.960772" y="289.543048" style="fill: #0000ff; stroke: #0000ff; stroke-linejoin: bevel"/>
     <use xlink:href="#md24e285783" x="388.676521" y="291.855094" style="fill: #0000ff; stroke: #0000ff; stroke-linejoin: bevel"/>
     <use xlink:href="#md24e285783" x="394.39227" y="354.28035" style="fill: #0000ff; stroke: #0000ff; stroke-linejoin: bevel"/>
     <use xlink:href="#md24e285783" x="400.108019" y="294.167141" style="fill: #0000ff; stroke: #0000ff; stroke-linejoin: bevel"/>
     <use xlink:href="#md24e285783" x="405.823768" y="317.287606" style="fill: #0000ff; stroke: #0000ff; stroke-linejoin: bevel"/>
     <use xlink:href="#md24e285783" x="411.539517" y="311.122148" style="fill: #0000ff; stroke: #0000ff; stroke-linejoin: bevel"/>
     <use xlink:href="#md24e285783" x="417.255266" y="286.240124" style="fill: #0000ff; stroke: #0000ff; stroke-linejoin: bevel"/>
     <use xlink:href="#md24e285783" x="422.971015" y="258.715761" style="fill: #0000ff; stroke: #0000ff; stroke-linejoin: bevel"/>
     <use xlink:href="#md24e285783" x="428.686764" y="247.926211" style="fill: #0000ff; stroke: #0000ff; stroke-linejoin: bevel"/>
     <use xlink:href="#md24e285783" x="434.402513" y="262.723309" style="fill: #0000ff; stroke: #0000ff; stroke-linejoin: bevel"/>
     <use xlink:href="#md24e285783" x="440.118262" y="241.760754" style="fill: #0000ff; stroke: #0000ff; stroke-linejoin: bevel"/>
     <use xlink:href="#md24e285783" x="445.834012" y="281.219681" style="fill: #0000ff; stroke: #0000ff; stroke-linejoin: bevel"/>
     <use xlink:href="#md24e285783" x="451.549761" y="300.332598" style="fill: #0000ff; stroke: #0000ff; stroke-linejoin: bevel"/>
     <use xlink:href="#md24e285783" x="457.26551" y="275.670769" style="fill: #0000ff; stroke: #0000ff; stroke-linejoin: bevel"/>
     <use xlink:href="#md24e285783" x="462.981259" y="266.422583" style="fill: #0000ff; stroke: #0000ff; stroke-linejoin: bevel"/>
     <use xlink:href="#md24e285783" x="468.697008" y="405.145372" style="fill: #0000ff; stroke: #0000ff; stroke-linejoin: bevel"/>
     <use xlink:href="#md24e285783" x="474.412757" y="380.483543" style="fill: #0000ff; stroke: #0000ff; stroke-linejoin: bevel"/>
     <use xlink:href="#md24e285783" x="480.128506" y="294.167141" style="fill: #0000ff; stroke: #0000ff; stroke-linejoin: bevel"/>
     <use xlink:href="#md24e285783" x="485.844255" y="301.56569" style="fill: #0000ff; stroke: #0000ff; stroke-linejoin: bevel"/>
     <use xlink:href="#md24e285783" x="491.560004" y="290.203633" style="fill: #0000ff; stroke: #0000ff; stroke-linejoin: bevel"/>
     <use xlink:href="#md24e285783" x="497.275753" y="349.656257" style="fill: #0000ff; stroke: #0000ff; stroke-linejoin: bevel"/>
     <use xlink:href="#md24e285783" x="502.991502" y="368.152629" style="fill: #0000ff; stroke: #0000ff; stroke-linejoin: bevel"/>
     <use xlink:href="#md24e285783" x="508.707251" y="315.746241" style="fill: #0000ff; stroke: #0000ff; stroke-linejoin: bevel"/>
     <use xlink:href="#md24e285783" x="514.423" y="327.46061" style="fill: #0000ff; stroke: #0000ff; stroke-linejoin: bevel"/>
     <use xlink:href="#md24e285783" x="520.138749" y="292.625777" style="fill: #0000ff; stroke: #0000ff; stroke-linejoin: bevel"/>
     <use xlink:href="#md24e285783" x="525.854498" y="210.933467" style="fill: #0000ff; stroke: #0000ff; stroke-linejoin: bevel"/>
     <use xlink:href="#md24e285783" x="531.570247" y="287.231001" style="fill: #0000ff; stroke: #0000ff; stroke-linejoin: bevel"/>
     <use xlink:href="#md24e285783" x="537.285996" y="272.58804" style="fill: #0000ff; stroke: #0000ff; stroke-linejoin: bevel"/>
     <use xlink:href="#md24e285783" x="543.001745" y="282.606908" style="fill: #0000ff; stroke: #0000ff; stroke-linejoin: bevel"/>
     <use xlink:href="#md24e285783" x="548.717494" y="204.76801" style="fill: #0000ff; stroke: #0000ff; stroke-linejoin: bevel"/>
     <use xlink:href="#md24e285783" x="554.433243" y="266.422583" style="fill: #0000ff; stroke: #0000ff; stroke-linejoin: bevel"/>
     <use xlink:href="#md24e285783" x="560.148992" y="210.933467" style="fill: #0000ff; stroke: #0000ff; stroke-linejoin: bevel"/>
     <use xlink:href="#md24e285783" x="565.864741" y="134.635933" style="fill: #0000ff; stroke: #0000ff; stroke-linejoin: bevel"/>
     <use xlink:href="#md24e285783" x="577.296239" y="247.926211" style="fill: #0000ff; stroke: #0000ff; stroke-linejoin: bevel"/>
     <use xlink:href="#md24e285783" x="583.011988" y="236.828388" style="fill: #0000ff; stroke: #0000ff; stroke-linejoin: bevel"/>
     <use xlink:href="#md24e285783" x="588.727738" y="181.647545" style="fill: #0000ff; stroke: #0000ff; stroke-linejoin: bevel"/>
     <use xlink:href="#md24e285783" x="594.443487" y="275.670769" style="fill: #0000ff; stroke: #0000ff; stroke-linejoin: bevel"/>
     <use xlink:href="#md24e285783" x="623.022232" y="266.422583" style="fill: #0000ff; stroke: #0000ff; stroke-linejoin: bevel"/>
     <use xlink:href="#md24e285783" x="628.737981" y="269.505312" style="fill: #0000ff; stroke: #0000ff; stroke-linejoin: bevel"/>
     <use xlink:href="#md24e285783" x="634.45373" y="342.720117" style="fill: #0000ff; stroke: #0000ff; stroke-linejoin: bevel"/>
     <use xlink:href="#md24e285783" x="640.169479" y="291.084412" style="fill: #0000ff; stroke: #0000ff; stroke-linejoin: bevel"/>
     <use xlink:href="#md24e285783" x="645.885228" y="368.152629" style="fill: #0000ff; stroke: #0000ff; stroke-linejoin: bevel"/>
     <use xlink:href="#md24e285783" x="668.748224" y="321.911699" style="fill: #0000ff; stroke: #0000ff; stroke-linejoin: bevel"/>
     <use xlink:href="#md24e285783" x="674.463973" y="386.649" style="fill: #0000ff; stroke: #0000ff; stroke-linejoin: bevel"/>
     <use xlink:href="#md24e285783" x="680.179722" y="303.415327" style="fill: #0000ff; stroke: #0000ff; stroke-linejoin: bevel"/>
     <use xlink:href="#md24e285783" x="720.189965" y="354.28035" style="fill: #0000ff; stroke: #0000ff; stroke-linejoin: bevel"/>
     <use xlink:href="#md24e285783" x="725.905714" y="409.769465" style="fill: #0000ff; stroke: #0000ff; stroke-linejoin: bevel"/>
     <use xlink:href="#md24e285783" x="731.621464" y="374.318086" style="fill: #0000ff; stroke: #0000ff; stroke-linejoin: bevel"/>
     <use xlink:href="#md24e285783" x="737.337213" y="321.911699" style="fill: #0000ff; stroke: #0000ff; stroke-linejoin: bevel"/>
     <use xlink:href="#md24e285783" x="743.052962" y="238.678025" style="fill: #0000ff; stroke: #0000ff; stroke-linejoin: bevel"/>
     <use xlink:href="#md24e285783" x="748.768711" y="257.174397" style="fill: #0000ff; stroke: #0000ff; stroke-linejoin: bevel"/>
     <use xlink:href="#md24e285783" x="754.48446" y="354.28035" style="fill: #0000ff; stroke: #0000ff; stroke-linejoin: bevel"/>
     <use xlink:href="#md24e285783" x="760.200209" y="298.791234" style="fill: #0000ff; stroke: #0000ff; stroke-linejoin: bevel"/>
     <use xlink:href="#md24e285783" x="765.915958" y="368.152629" style="fill: #0000ff; stroke: #0000ff; stroke-linejoin: bevel"/>
     <use xlink:href="#md24e285783" x="771.631707" y="271.046676" style="fill: #0000ff; stroke: #0000ff; stroke-linejoin: bevel"/>
     <use xlink:href="#md24e285783" x="777.347456" y="358.904443" style="fill: #0000ff; stroke: #0000ff; stroke-linejoin: bevel"/>
     <use xlink:href="#md24e285783" x="783.063205" y="361.987171" style="fill: #0000ff; stroke: #0000ff; stroke-linejoin: bevel"/>
     <use xlink:href="#md24e285783" x="805.926201" y="368.152629" style="fill: #0000ff; stroke: #0000ff; stroke-linejoin: bevel"/>
     <use xlink:href="#md24e285783" x="811.64195" y="395.897186" style="fill: #0000ff; stroke: #0000ff; stroke-linejoin: bevel"/>
     <use xlink:href="#md24e285783" x="817.357699" y="386.649" style="fill: #0000ff; stroke: #0000ff; stroke-linejoin: bevel"/>
     <use xlink:href="#md24e285783" x="823.073448" y="298.791234" style="fill: #0000ff; stroke: #0000ff; stroke-linejoin: bevel"/>
     <use xlink:href="#md24e285783" x="828.789197" y="451.386302" style="fill: #0000ff; stroke: #0000ff; stroke-linejoin: bevel"/>
     <use xlink:href="#md24e285783" x="857.367942" y="432.88993" style="fill: #0000ff; stroke: #0000ff; stroke-linejoin: bevel"/>
     <use xlink:href="#md24e285783" x="920.241182" y="358.904443" style="fill: #0000ff; stroke: #0000ff; stroke-linejoin: bevel"/>
    </g>
   </g>
   <g id="patch_3">
    <path d="M 68.023 622.6035 
L 68.023 35.0835 
" style="fill: none; stroke: #000000; stroke-width: 0.8; stroke-linejoin: miter; stroke-linecap: square"/>
   </g>
   <g id="patch_4">
    <path d="M 960.823 622.6035 
L 960.823 35.0835 
" style="fill: none; stroke: #000000; stroke-width: 0.8; stroke-linejoin: miter; stroke-linecap: square"/>
   </g>
   <g id="patch_5">
    <path d="M 68.023 622.6035 
L 960.823 622.6035 
" style="fill: none; stroke: #000000; stroke-width: 0.8; stroke-linejoin: miter; stroke-linecap: square"/>
   </g>
   <g id="patch_6">
    <path d="M 68.023 35.0835 
L 960.823 35.0835 
" style="fill: none; stroke: #000000; stroke-width: 0.8; stroke-linejoin: miter; stroke-linecap: square"/>
   </g>
   <g id="text_17">
    <!-- Body Water Percentage -->
    <g transform="translate(345.35125 29.0835) scale(0.288 -0.288)">
     <defs>
      <path id="DejaVuSans-42" d="M 1259 2228 
L 1259 519 
L 2272 519 
Q 2781 519 3026 730 
Q 3272 941 3272 1375 
Q 3272 1813 3026 2020 
Q 2781 2228 2272 2228 
L 1259 2228 
z
M 1259 4147 
L 1259 2741 
L 2194 2741 
Q 2656 2741 2882 2914 
Q 3109 3088 3109 3444 
Q 3109 3797 2882 3972 
Q 2656 4147 2194 4147 
L 1259 4147 
z
M 628 4666 
L 2241 4666 
Q 2963 4666 3353 4366 
Q 3744 4066 3744 3513 
Q 3744 3084 3544 2831 
Q 3344 2578 2956 2516 
Q 3422 2416 3680 2098 
Q 3938 1781 3938 1306 
Q 3938 681 3513 340 
Q 3088 0 2303 0 
L 628 0 
L 628 4666 
z
" transform="scale(0.015625)"/>
      <path id="DejaVuSans-6f" d="M 1959 3097 
Q 1497 3097 1228 2736 
Q 959 2375 959 1747 
Q 959 1119 1226 758 
Q 1494 397 1959 397 
Q 2419 397 2687 759 
Q 2956 1122 2956 1747 
Q 2956 2369 2687 2733 
Q 2419 3097 1959 3097 
z
M 1959 3584 
Q 2709 3584 3137 3096 
Q 3566 2609 3566 1747 
Q 3566 888 3137 398 
Q 2709 -91 1959 -91 
Q 1206 -91 779 398 
Q 353 888 353 1747 
Q 353 2609 779 3096 
Q 1206 3584 1959 3584 
z
" transform="scale(0.015625)"/>
      <path id="DejaVuSans-64" d="M 2906 2969 
L 2906 4863 
L 3481 4863 
L 3481 0 
L 2906 0 
L 2906 525 
Q 2725 213 2448 61 
Q 2172 -91 1784 -91 
Q 1150 -91 751 415 
Q 353 922 353 1747 
Q 353 2572 751 3078 
Q 1150 3584 1784 3584 
Q 2172 3584 2448 3432 
Q 2725 3281 2906 2969 
z
M 947 1747 
Q 947 1113 1208 752 
Q 1469 391 1925 391 
Q 2381 391 2643 752 
Q 2906 1113 2906 1747 
Q 2906 2381 2643 2742 
Q 2381 3103 1925 3103 
Q 1469 3103 1208 2742 
Q 947 2381 947 1747 
z
" transform="scale(0.015625)"/>
     </defs>
     <use xlink:href="#DejaVuSans-42"/>
     <use xlink:href="#DejaVuSans-6f" x="68.603516"/>
     <use xlink:href="#DejaVuSans-64" x="129.785156"/>
     <use xlink:href="#DejaVuSans-79" x="193.261719"/>
     <use xlink:href="#DejaVuSans-20" x="252.441406"/>
     <use xlink:href="#DejaVuSans-57" x="284.228516"/>
     <use xlink:href="#DejaVuSans-61" x="376.730469"/>
     <use xlink:href="#DejaVuSans-74" x="438.009766"/>
     <use xlink:href="#DejaVuSans-65" x="477.21875"/>
     <use xlink:href="#DejaVuSans-72" x="538.742188"/>
     <use xlink:href="#DejaVuSans-20" x="579.855469"/>
     <use xlink:href="#DejaVuSans-50" x="611.642578"/>
     <use xlink:href="#DejaVuSans-65" x="668.320312"/>
     <use xlink:href="#DejaVuSans-72" x="729.84375"/>
     <use xlink:href="#DejaVuSans-63" x="768.707031"/>
     <use xlink:href="#DejaVuSans-65" x="823.6875"/>
     <use xlink:href="#DejaVuSans-6e" x="885.210938"/>
     <use xlink:href="#DejaVuSans-74" x="948.589844"/>
     <use xlink:href="#DejaVuSans-61" x="987.798828"/>
     <use xlink:href="#DejaVuSans-67" x="1049.078125"/>
     <use xlink:href="#DejaVuSans-65" x="1112.554688"/>
    </g>
   </g>
  </g>
 </g>
 <defs>
  <clipPath id="pe800caa417">
   <rect x="68.023" y="35.0835" width="892.8" height="587.52"/>
  </clipPath>
 </defs>
</svg>
