<?xml version="1.0" encoding="utf-8" standalone="no"?>
<!DOCTYPE svg PUBLIC "-//W3C//DTD SVG 1.1//EN"
  "http://www.w3.org/Graphics/SVG/1.1/DTD/svg11.dtd">
<svg xmlns:xlink="http://www.w3.org/1999/xlink" width="968.023pt" height="700.466504pt" viewBox="0 0 968.023 700.466504" xmlns="http://www.w3.org/2000/svg" version="1.1">
 <metadata>
  <rdf:RDF xmlns:dc="http://purl.org/dc/elements/1.1/" xmlns:cc="http://creativecommons.org/ns#" xmlns:rdf="http://www.w3.org/1999/02/22-rdf-syntax-ns#">
   <cc:Work>
    <dc:type rdf:resource="http://purl.org/dc/dcmitype/StillImage"/>
    <dc:date>2024-11-25T19:18:27.520008</dc:date>
    <dc:format>image/svg+xml</dc:format>
    <dc:creator>
     <cc:Agent>
      <dc:title>Matplotlib v3.9.2, https://matplotlib.org/</dc:title>
     </cc:Agent>
    </dc:creator>
   </cc:Work>
  </rdf:RDF>
 </metadata>
 <defs>
  <style type="text/css">*{stroke-linejoin: round; stroke-linecap: butt}</style>
 </defs>
 <g id="figure_1">
  <g id="patch_1">
   <path d="M 0 700.466504 
L 968.023 700.466504 
L 968.023 0 
L 0 0 
z
" style="fill: #ffffff"/>
  </g>
  <g id="axes_1">
   <g id="patch_2">
    <path d="M 68.023 622.6035 
L 960.823 622.6035 
L 960.823 35.0835 
L 68.023 35.0835 
z
" style="fill: #ffffff"/>
   </g>
   <g id="PolyCollection_1">
    <defs>
     <path id="m18ca54264a" d="M 108.604818 -387.763127 
L 108.604818 -297.46961 
L 115.150273 -104.568459 
L 118.423 -329.838964 
L 121.695727 -333.301968 
L 124.968455 -373.022648 
L 128.241182 -291.134783 
L 131.513909 -354.868173 
L 134.786636 -361.928075 
L 138.059364 -355.17645 
L 141.332091 -337.992346 
L 144.604818 -266.509692 
L 147.877545 -299.838349 
L 151.150273 -365.887327 
L 154.423 -370.598873 
L 157.695727 -306.494876 
L 160.968455 -351.308307 
L 164.241182 -406.054669 
L 167.513909 -464.374723 
L 170.786636 -501.655201 
L 174.059364 -468.851186 
L 177.332091 -468.045798 
L 180.604818 -415.392283 
L 183.877545 -357.685443 
L 187.150273 -352.95171 
L 190.423 -386.292402 
L 193.695727 -374.066658 
L 196.968455 -368.044661 
L 200.241182 -415.392283 
L 203.513909 -362.703429 
L 206.786636 -301.863244 
L 210.059364 -353.921953 
L 213.332091 -358.227661 
L 216.604818 -387.79336 
L 219.877545 -391.879443 
L 223.150273 -435.464228 
L 226.423 -388.562698 
L 229.695727 -331.695474 
L 232.968455 -365.839472 
L 236.241182 -367.721415 
L 239.513909 -417.470545 
L 242.786636 -366.612742 
L 246.059364 -332.595512 
L 249.332091 -320.414323 
L 252.604818 -345.350098 
L 255.877545 -301.233099 
L 259.150273 -252.307734 
L 262.423 -350.158464 
L 265.695727 -308.760078 
L 268.968455 -342.24726 
L 272.241182 -274.341291 
L 275.513909 -304.996589 
L 278.786636 -266.249081 
L 282.059364 -277.32919 
L 285.332091 -309.601375 
L 288.604818 -324.473052 
L 291.877545 -342.631485 
L 295.150273 -305.350778 
L 298.423 -347.649471 
L 301.695727 -321.540827 
L 304.968455 -312.994573 
L 308.241182 -325.014233 
L 311.513909 -327.577526 
L 314.786636 -214.672839 
L 318.059364 -234.744783 
L 321.332091 -304.996589 
L 324.604818 -297.139906 
L 327.877545 -290.669976 
L 331.150273 -229.336268 
L 334.423 -244.780755 
L 337.695727 -287.433637 
L 340.968455 -265.015214 
L 344.241182 -296.70122 
L 347.513909 -372.739401 
L 350.786636 -292.504858 
L 354.059364 -322.55954 
L 357.332091 -336.124538 
L 360.604818 -366.298683 
L 363.877545 -327.577526 
L 367.150273 -372.739401 
L 370.423 -445.748393 
L 376.968455 -342.631485 
L 380.241182 -344.792712 
L 383.513909 -375.328025 
L 386.786636 -320.050547 
L 403.150273 -327.577526 
L 406.423 -325.068533 
L 409.695727 -250.794324 
L 412.968455 -307.505582 
L 416.241182 -244.780755 
L 429.332091 -282.415651 
L 432.604818 -229.726797 
L 435.877545 -297.46961 
L 458.786636 -285.700718 
L 462.059364 -210.909349 
L 465.332091 -239.762769 
L 468.604818 -295.187648 
L 471.877545 -350.158464 
L 475.150273 -335.104506 
L 478.423 -256.071224 
L 481.695727 -301.233099 
L 484.968455 -244.780755 
L 488.241182 -283.057548 
L 491.513909 -252.307734 
L 494.786636 -249.798741 
L 507.877545 -244.780755 
L 511.150273 -222.199818 
L 514.423 -229.726797 
L 517.695727 -312.092836 
L 520.968455 -177.037943 
L 537.332091 -192.091901 
L 573.332091 -252.307734 
L 589.695727 -237.253776 
L 592.968455 -252.307734 
L 599.513909 -214.672839 
L 609.332091 -267.361693 
L 651.877545 -177.037943 
L 759.877545 -478.11711 
L 763.150273 -498.601927 
L 766.423 -578.229962 
L 769.695727 -545.859923 
L 772.968455 -538.332943 
L 779.513909 -417.901277 
L 782.786636 -448.009193 
L 920.241182 -488.137966 
L 920.241182 -638.67755 
L 920.241182 -638.67755 
L 782.786636 -538.302711 
L 779.513909 -508.194794 
L 772.968455 -628.626461 
L 769.695727 -636.15344 
L 766.423 -622.600849 
L 763.150273 -623.195602 
L 759.877545 -568.410628 
L 651.877545 -267.33146 
L 609.332091 -357.655211 
L 599.513909 -304.966356 
L 592.968455 -342.601252 
L 589.695727 -327.547294 
L 573.332091 -342.601252 
L 537.332091 -282.385419 
L 520.968455 -267.33146 
L 517.695727 -380.66688 
L 514.423 -320.020315 
L 511.150273 -312.493335 
L 507.877545 -335.074273 
L 494.786636 -340.092259 
L 491.513909 -342.601252 
L 488.241182 -454.864043 
L 484.968455 -335.074273 
L 481.695727 -391.526617 
L 478.423 -346.364742 
L 475.150273 -425.398023 
L 471.877545 -440.451982 
L 468.604818 -359.937172 
L 465.332091 -330.056287 
L 462.059364 -301.202867 
L 458.786636 -316.735248 
L 435.877545 -387.763127 
L 432.604818 -320.020315 
L 429.332091 -372.709169 
L 416.241182 -335.074273 
L 412.968455 -397.7991 
L 409.695727 -370.45909 
L 406.423 -415.362051 
L 403.150273 -417.871044 
L 386.786636 -410.344065 
L 383.513909 -508.115164 
L 380.241182 -448.828526 
L 376.968455 -432.925002 
L 370.423 -514.219084 
L 367.150273 -463.032919 
L 363.877545 -417.871044 
L 360.604818 -479.50961 
L 357.332091 -382.979605 
L 354.059364 -412.853058 
L 350.786636 -419.072306 
L 347.513909 -463.032919 
L 344.241182 -406.094468 
L 340.968455 -381.077231 
L 337.695727 -377.727155 
L 334.423 -335.074273 
L 331.150273 -380.626677 
L 327.877545 -416.068415 
L 324.604818 -391.103622 
L 321.332091 -395.290106 
L 318.059364 -325.038301 
L 314.786636 -304.966356 
L 311.513909 -417.871044 
L 308.241182 -405.380379 
L 304.968455 -377.25615 
L 301.695727 -399.82141 
L 298.423 -437.942989 
L 295.150273 -446.119376 
L 291.877545 -432.925002 
L 288.604818 -433.520483 
L 285.332091 -403.588714 
L 282.059364 -395.358581 
L 278.786636 -396.402718 
L 275.513909 -395.290106 
L 272.241182 -328.094674 
L 268.968455 -361.802925 
L 265.695727 -399.053596 
L 262.423 -440.451982 
L 259.150273 -342.601252 
L 255.877545 -391.526617 
L 252.604818 -415.152431 
L 249.332091 -376.108883 
L 246.059364 -422.88903 
L 242.786636 -420.234214 
L 239.513909 -486.044589 
L 236.241182 -458.014933 
L 232.968455 -442.835723 
L 229.695727 -403.717124 
L 226.423 -450.973112 
L 223.150273 -525.757746 
L 219.877545 -446.903669 
L 216.604818 -478.086877 
L 213.332091 -471.523076 
L 210.059364 -444.215471 
L 206.786636 -428.531368 
L 203.513909 -452.996947 
L 200.241182 -505.685801 
L 196.968455 -506.867952 
L 193.695727 -499.340558 
L 190.423 -502.168773 
L 187.150273 -539.272954 
L 183.877545 -447.978961 
L 180.604818 -505.685801 
L 177.332091 -506.975637 
L 174.059364 -491.116291 
L 170.786636 -529.818578 
L 167.513909 -527.958765 
L 164.241182 -520.041402 
L 160.968455 -465.646565 
L 157.695727 -412.609267 
L 154.423 -477.216614 
L 151.150273 -447.304056 
L 147.877545 -350.268485 
L 144.604818 -367.539587 
L 141.332091 -417.492197 
L 138.059364 -445.469968 
L 134.786636 -453.772301 
L 131.513909 -398.107376 
L 128.241182 -321.838954 
L 124.968455 -443.932225 
L 121.695727 -370.748217 
L 118.423 -430.663565 
L 115.150273 -309.693027 
L 108.604818 -387.763127 
z
" style="stroke: #0000ff; stroke-opacity: 0.2"/>
    </defs>
    <g clip-path="url(#p2a82f472da)">
     <use xlink:href="#m18ca54264a" x="0" y="700.466504" style="fill: #0000ff; fill-opacity: 0.2; stroke: #0000ff; stroke-opacity: 0.2"/>
    </g>
   </g>
   <g id="matplotlib.axis_1">
    <g id="xtick_1">
     <g id="line2d_1">
      <path d="M 111.877545 622.6035 
L 111.877545 35.0835 
" clip-path="url(#p2a82f472da)" style="fill: none; stroke: #a5a391; stroke-opacity: 0.3; stroke-width: 0.8; stroke-linecap: square"/>
     </g>
     <g id="line2d_2">
      <defs>
       <path id="m459bb02e25" d="M 0 0 
L 0 -3.5 
" style="stroke: #000000; stroke-width: 0.8"/>
      </defs>
      <g>
       <use xlink:href="#m459bb02e25" x="111.877545" y="622.6035" style="stroke: #000000; stroke-width: 0.8"/>
      </g>
     </g>
     <g id="text_1">
      <!-- Jan 01, 20 -->
      <g transform="translate(22.502497 689.66438) rotate(-30) scale(0.2 -0.2)">
       <defs>
        <path id="DejaVuSans-4a" d="M 628 4666 
L 1259 4666 
L 1259 325 
Q 1259 -519 939 -900 
Q 619 -1281 -91 -1281 
L -331 -1281 
L -331 -750 
L -134 -750 
Q 284 -750 456 -515 
Q 628 -281 628 325 
L 628 4666 
z
" transform="scale(0.015625)"/>
        <path id="DejaVuSans-61" d="M 2194 1759 
Q 1497 1759 1228 1600 
Q 959 1441 959 1056 
Q 959 750 1161 570 
Q 1363 391 1709 391 
Q 2188 391 2477 730 
Q 2766 1069 2766 1631 
L 2766 1759 
L 2194 1759 
z
M 3341 1997 
L 3341 0 
L 2766 0 
L 2766 531 
Q 2569 213 2275 61 
Q 1981 -91 1556 -91 
Q 1019 -91 701 211 
Q 384 513 384 1019 
Q 384 1609 779 1909 
Q 1175 2209 1959 2209 
L 2766 2209 
L 2766 2266 
Q 2766 2663 2505 2880 
Q 2244 3097 1772 3097 
Q 1472 3097 1187 3025 
Q 903 2953 641 2809 
L 641 3341 
Q 956 3463 1253 3523 
Q 1550 3584 1831 3584 
Q 2591 3584 2966 3190 
Q 3341 2797 3341 1997 
z
" transform="scale(0.015625)"/>
        <path id="DejaVuSans-6e" d="M 3513 2113 
L 3513 0 
L 2938 0 
L 2938 2094 
Q 2938 2591 2744 2837 
Q 2550 3084 2163 3084 
Q 1697 3084 1428 2787 
Q 1159 2491 1159 1978 
L 1159 0 
L 581 0 
L 581 3500 
L 1159 3500 
L 1159 2956 
Q 1366 3272 1645 3428 
Q 1925 3584 2291 3584 
Q 2894 3584 3203 3211 
Q 3513 2838 3513 2113 
z
" transform="scale(0.015625)"/>
        <path id="DejaVuSans-20" transform="scale(0.015625)"/>
        <path id="DejaVuSans-30" d="M 2034 4250 
Q 1547 4250 1301 3770 
Q 1056 3291 1056 2328 
Q 1056 1369 1301 889 
Q 1547 409 2034 409 
Q 2525 409 2770 889 
Q 3016 1369 3016 2328 
Q 3016 3291 2770 3770 
Q 2525 4250 2034 4250 
z
M 2034 4750 
Q 2819 4750 3233 4129 
Q 3647 3509 3647 2328 
Q 3647 1150 3233 529 
Q 2819 -91 2034 -91 
Q 1250 -91 836 529 
Q 422 1150 422 2328 
Q 422 3509 836 4129 
Q 1250 4750 2034 4750 
z
" transform="scale(0.015625)"/>
        <path id="DejaVuSans-31" d="M 794 531 
L 1825 531 
L 1825 4091 
L 703 3866 
L 703 4441 
L 1819 4666 
L 2450 4666 
L 2450 531 
L 3481 531 
L 3481 0 
L 794 0 
L 794 531 
z
" transform="scale(0.015625)"/>
        <path id="DejaVuSans-2c" d="M 750 794 
L 1409 794 
L 1409 256 
L 897 -744 
L 494 -744 
L 750 256 
L 750 794 
z
" transform="scale(0.015625)"/>
        <path id="DejaVuSans-32" d="M 1228 531 
L 3431 531 
L 3431 0 
L 469 0 
L 469 531 
Q 828 903 1448 1529 
Q 2069 2156 2228 2338 
Q 2531 2678 2651 2914 
Q 2772 3150 2772 3378 
Q 2772 3750 2511 3984 
Q 2250 4219 1831 4219 
Q 1534 4219 1204 4116 
Q 875 4013 500 3803 
L 500 4441 
Q 881 4594 1212 4672 
Q 1544 4750 1819 4750 
Q 2544 4750 2975 4387 
Q 3406 4025 3406 3419 
Q 3406 3131 3298 2873 
Q 3191 2616 2906 2266 
Q 2828 2175 2409 1742 
Q 1991 1309 1228 531 
z
" transform="scale(0.015625)"/>
       </defs>
       <use xlink:href="#DejaVuSans-4a"/>
       <use xlink:href="#DejaVuSans-61" x="29.492188"/>
       <use xlink:href="#DejaVuSans-6e" x="90.771484"/>
       <use xlink:href="#DejaVuSans-20" x="154.150391"/>
       <use xlink:href="#DejaVuSans-30" x="185.9375"/>
       <use xlink:href="#DejaVuSans-31" x="249.560547"/>
       <use xlink:href="#DejaVuSans-2c" x="313.183594"/>
       <use xlink:href="#DejaVuSans-20" x="344.970703"/>
       <use xlink:href="#DejaVuSans-32" x="376.757812"/>
       <use xlink:href="#DejaVuSans-30" x="440.380859"/>
      </g>
     </g>
    </g>
    <g id="xtick_2">
     <g id="line2d_3">
      <path d="M 282.994429 622.6035 
L 282.994429 35.0835 
" clip-path="url(#p2a82f472da)" style="fill: none; stroke: #a5a391; stroke-opacity: 0.3; stroke-width: 0.8; stroke-linecap: square"/>
     </g>
     <g id="line2d_4">
      <g>
       <use xlink:href="#m459bb02e25" x="282.994429" y="622.6035" style="stroke: #000000; stroke-width: 0.8"/>
      </g>
     </g>
     <g id="text_2">
      <!-- Jan 01, 21 -->
      <g transform="translate(193.61938 689.66438) rotate(-30) scale(0.2 -0.2)">
       <use xlink:href="#DejaVuSans-4a"/>
       <use xlink:href="#DejaVuSans-61" x="29.492188"/>
       <use xlink:href="#DejaVuSans-6e" x="90.771484"/>
       <use xlink:href="#DejaVuSans-20" x="154.150391"/>
       <use xlink:href="#DejaVuSans-30" x="185.9375"/>
       <use xlink:href="#DejaVuSans-31" x="249.560547"/>
       <use xlink:href="#DejaVuSans-2c" x="313.183594"/>
       <use xlink:href="#DejaVuSans-20" x="344.970703"/>
       <use xlink:href="#DejaVuSans-32" x="376.757812"/>
       <use xlink:href="#DejaVuSans-31" x="440.380859"/>
      </g>
     </g>
    </g>
    <g id="xtick_3">
     <g id="line2d_5">
      <path d="M 453.643779 622.6035 
L 453.643779 35.0835 
" clip-path="url(#p2a82f472da)" style="fill: none; stroke: #a5a391; stroke-opacity: 0.3; stroke-width: 0.8; stroke-linecap: square"/>
     </g>
     <g id="line2d_6">
      <g>
       <use xlink:href="#m459bb02e25" x="453.643779" y="622.6035" style="stroke: #000000; stroke-width: 0.8"/>
      </g>
     </g>
     <g id="text_3">
      <!-- Jan 01, 22 -->
      <g transform="translate(364.268731 689.66438) rotate(-30) scale(0.2 -0.2)">
       <use xlink:href="#DejaVuSans-4a"/>
       <use xlink:href="#DejaVuSans-61" x="29.492188"/>
       <use xlink:href="#DejaVuSans-6e" x="90.771484"/>
       <use xlink:href="#DejaVuSans-20" x="154.150391"/>
       <use xlink:href="#DejaVuSans-30" x="185.9375"/>
       <use xlink:href="#DejaVuSans-31" x="249.560547"/>
       <use xlink:href="#DejaVuSans-2c" x="313.183594"/>
       <use xlink:href="#DejaVuSans-20" x="344.970703"/>
       <use xlink:href="#DejaVuSans-32" x="376.757812"/>
       <use xlink:href="#DejaVuSans-32" x="440.380859"/>
      </g>
     </g>
    </g>
    <g id="xtick_4">
     <g id="line2d_7">
      <path d="M 624.29313 622.6035 
L 624.29313 35.0835 
" clip-path="url(#p2a82f472da)" style="fill: none; stroke: #a5a391; stroke-opacity: 0.3; stroke-width: 0.8; stroke-linecap: square"/>
     </g>
     <g id="line2d_8">
      <g>
       <use xlink:href="#m459bb02e25" x="624.29313" y="622.6035" style="stroke: #000000; stroke-width: 0.8"/>
      </g>
     </g>
     <g id="text_4">
      <!-- Jan 01, 23 -->
      <g transform="translate(534.918082 689.66438) rotate(-30) scale(0.2 -0.2)">
       <defs>
        <path id="DejaVuSans-33" d="M 2597 2516 
Q 3050 2419 3304 2112 
Q 3559 1806 3559 1356 
Q 3559 666 3084 287 
Q 2609 -91 1734 -91 
Q 1441 -91 1130 -33 
Q 819 25 488 141 
L 488 750 
Q 750 597 1062 519 
Q 1375 441 1716 441 
Q 2309 441 2620 675 
Q 2931 909 2931 1356 
Q 2931 1769 2642 2001 
Q 2353 2234 1838 2234 
L 1294 2234 
L 1294 2753 
L 1863 2753 
Q 2328 2753 2575 2939 
Q 2822 3125 2822 3475 
Q 2822 3834 2567 4026 
Q 2313 4219 1838 4219 
Q 1578 4219 1281 4162 
Q 984 4106 628 3988 
L 628 4550 
Q 988 4650 1302 4700 
Q 1616 4750 1894 4750 
Q 2613 4750 3031 4423 
Q 3450 4097 3450 3541 
Q 3450 3153 3228 2886 
Q 3006 2619 2597 2516 
z
" transform="scale(0.015625)"/>
       </defs>
       <use xlink:href="#DejaVuSans-4a"/>
       <use xlink:href="#DejaVuSans-61" x="29.492188"/>
       <use xlink:href="#DejaVuSans-6e" x="90.771484"/>
       <use xlink:href="#DejaVuSans-20" x="154.150391"/>
       <use xlink:href="#DejaVuSans-30" x="185.9375"/>
       <use xlink:href="#DejaVuSans-31" x="249.560547"/>
       <use xlink:href="#DejaVuSans-2c" x="313.183594"/>
       <use xlink:href="#DejaVuSans-20" x="344.970703"/>
       <use xlink:href="#DejaVuSans-32" x="376.757812"/>
       <use xlink:href="#DejaVuSans-33" x="440.380859"/>
      </g>
     </g>
    </g>
    <g id="xtick_5">
     <g id="line2d_9">
      <path d="M 794.942481 622.6035 
L 794.942481 35.0835 
" clip-path="url(#p2a82f472da)" style="fill: none; stroke: #a5a391; stroke-opacity: 0.3; stroke-width: 0.8; stroke-linecap: square"/>
     </g>
     <g id="line2d_10">
      <g>
       <use xlink:href="#m459bb02e25" x="794.942481" y="622.6035" style="stroke: #000000; stroke-width: 0.8"/>
      </g>
     </g>
     <g id="text_5">
      <!-- Jan 01, 24 -->
      <g transform="translate(705.567432 689.66438) rotate(-30) scale(0.2 -0.2)">
       <defs>
        <path id="DejaVuSans-34" d="M 2419 4116 
L 825 1625 
L 2419 1625 
L 2419 4116 
z
M 2253 4666 
L 3047 4666 
L 3047 1625 
L 3713 1625 
L 3713 1100 
L 3047 1100 
L 3047 0 
L 2419 0 
L 2419 1100 
L 313 1100 
L 313 1709 
L 2253 4666 
z
" transform="scale(0.015625)"/>
       </defs>
       <use xlink:href="#DejaVuSans-4a"/>
       <use xlink:href="#DejaVuSans-61" x="29.492188"/>
       <use xlink:href="#DejaVuSans-6e" x="90.771484"/>
       <use xlink:href="#DejaVuSans-20" x="154.150391"/>
       <use xlink:href="#DejaVuSans-30" x="185.9375"/>
       <use xlink:href="#DejaVuSans-31" x="249.560547"/>
       <use xlink:href="#DejaVuSans-2c" x="313.183594"/>
       <use xlink:href="#DejaVuSans-20" x="344.970703"/>
       <use xlink:href="#DejaVuSans-32" x="376.757812"/>
       <use xlink:href="#DejaVuSans-34" x="440.380859"/>
      </g>
     </g>
    </g>
   </g>
   <g id="matplotlib.axis_2">
    <g id="ytick_1">
     <g id="line2d_11">
      <path d="M 68.023 621.294407 
L 960.823 621.294407 
" clip-path="url(#p2a82f472da)" style="fill: none; stroke: #a5a391; stroke-opacity: 0.3; stroke-width: 0.8; stroke-linecap: square"/>
     </g>
     <g id="line2d_12">
      <defs>
       <path id="mdb5d2d671f" d="M 0 0 
L 3.5 0 
" style="stroke: #000000; stroke-width: 0.8"/>
      </defs>
      <g>
       <use xlink:href="#mdb5d2d671f" x="68.023" y="621.294407" style="stroke: #000000; stroke-width: 0.8"/>
      </g>
     </g>
     <g id="text_6">
      <!-- 52 -->
      <g transform="translate(39.073 628.892845) scale(0.2 -0.2)">
       <defs>
        <path id="DejaVuSans-35" d="M 691 4666 
L 3169 4666 
L 3169 4134 
L 1269 4134 
L 1269 2991 
Q 1406 3038 1543 3061 
Q 1681 3084 1819 3084 
Q 2600 3084 3056 2656 
Q 3513 2228 3513 1497 
Q 3513 744 3044 326 
Q 2575 -91 1722 -91 
Q 1428 -91 1123 -41 
Q 819 9 494 109 
L 494 744 
Q 775 591 1075 516 
Q 1375 441 1709 441 
Q 2250 441 2565 725 
Q 2881 1009 2881 1497 
Q 2881 1984 2565 2268 
Q 2250 2553 1709 2553 
Q 1456 2553 1204 2497 
Q 953 2441 691 2322 
L 691 4666 
z
" transform="scale(0.015625)"/>
       </defs>
       <use xlink:href="#DejaVuSans-35"/>
       <use xlink:href="#DejaVuSans-32" x="63.623047"/>
      </g>
     </g>
    </g>
    <g id="ytick_2">
     <g id="line2d_13">
      <path d="M 68.023 546.024615 
L 960.823 546.024615 
" clip-path="url(#p2a82f472da)" style="fill: none; stroke: #a5a391; stroke-opacity: 0.3; stroke-width: 0.8; stroke-linecap: square"/>
     </g>
     <g id="line2d_14">
      <g>
       <use xlink:href="#mdb5d2d671f" x="68.023" y="546.024615" style="stroke: #000000; stroke-width: 0.8"/>
      </g>
     </g>
     <g id="text_7">
      <!-- 53 -->
      <g transform="translate(39.073 553.623053) scale(0.2 -0.2)">
       <use xlink:href="#DejaVuSans-35"/>
       <use xlink:href="#DejaVuSans-33" x="63.623047"/>
      </g>
     </g>
    </g>
    <g id="ytick_3">
     <g id="line2d_15">
      <path d="M 68.023 470.754824 
L 960.823 470.754824 
" clip-path="url(#p2a82f472da)" style="fill: none; stroke: #a5a391; stroke-opacity: 0.3; stroke-width: 0.8; stroke-linecap: square"/>
     </g>
     <g id="line2d_16">
      <g>
       <use xlink:href="#mdb5d2d671f" x="68.023" y="470.754824" style="stroke: #000000; stroke-width: 0.8"/>
      </g>
     </g>
     <g id="text_8">
      <!-- 54 -->
      <g transform="translate(39.073 478.353261) scale(0.2 -0.2)">
       <use xlink:href="#DejaVuSans-35"/>
       <use xlink:href="#DejaVuSans-34" x="63.623047"/>
      </g>
     </g>
    </g>
    <g id="ytick_4">
     <g id="line2d_17">
      <path d="M 68.023 395.485032 
L 960.823 395.485032 
" clip-path="url(#p2a82f472da)" style="fill: none; stroke: #a5a391; stroke-opacity: 0.3; stroke-width: 0.8; stroke-linecap: square"/>
     </g>
     <g id="line2d_18">
      <g>
       <use xlink:href="#mdb5d2d671f" x="68.023" y="395.485032" style="stroke: #000000; stroke-width: 0.8"/>
      </g>
     </g>
     <g id="text_9">
      <!-- 55 -->
      <g transform="translate(39.073 403.083469) scale(0.2 -0.2)">
       <use xlink:href="#DejaVuSans-35"/>
       <use xlink:href="#DejaVuSans-35" x="63.623047"/>
      </g>
     </g>
    </g>
    <g id="ytick_5">
     <g id="line2d_19">
      <path d="M 68.023 320.21524 
L 960.823 320.21524 
" clip-path="url(#p2a82f472da)" style="fill: none; stroke: #a5a391; stroke-opacity: 0.3; stroke-width: 0.8; stroke-linecap: square"/>
     </g>
     <g id="line2d_20">
      <g>
       <use xlink:href="#mdb5d2d671f" x="68.023" y="320.21524" style="stroke: #000000; stroke-width: 0.8"/>
      </g>
     </g>
     <g id="text_10">
      <!-- 56 -->
      <g transform="translate(39.073 327.813677) scale(0.2 -0.2)">
       <defs>
        <path id="DejaVuSans-36" d="M 2113 2584 
Q 1688 2584 1439 2293 
Q 1191 2003 1191 1497 
Q 1191 994 1439 701 
Q 1688 409 2113 409 
Q 2538 409 2786 701 
Q 3034 994 3034 1497 
Q 3034 2003 2786 2293 
Q 2538 2584 2113 2584 
z
M 3366 4563 
L 3366 3988 
Q 3128 4100 2886 4159 
Q 2644 4219 2406 4219 
Q 1781 4219 1451 3797 
Q 1122 3375 1075 2522 
Q 1259 2794 1537 2939 
Q 1816 3084 2150 3084 
Q 2853 3084 3261 2657 
Q 3669 2231 3669 1497 
Q 3669 778 3244 343 
Q 2819 -91 2113 -91 
Q 1303 -91 875 529 
Q 447 1150 447 2328 
Q 447 3434 972 4092 
Q 1497 4750 2381 4750 
Q 2619 4750 2861 4703 
Q 3103 4656 3366 4563 
z
" transform="scale(0.015625)"/>
       </defs>
       <use xlink:href="#DejaVuSans-35"/>
       <use xlink:href="#DejaVuSans-36" x="63.623047"/>
      </g>
     </g>
    </g>
    <g id="ytick_6">
     <g id="line2d_21">
      <path d="M 68.023 244.945448 
L 960.823 244.945448 
" clip-path="url(#p2a82f472da)" style="fill: none; stroke: #a5a391; stroke-opacity: 0.3; stroke-width: 0.8; stroke-linecap: square"/>
     </g>
     <g id="line2d_22">
      <g>
       <use xlink:href="#mdb5d2d671f" x="68.023" y="244.945448" style="stroke: #000000; stroke-width: 0.8"/>
      </g>
     </g>
     <g id="text_11">
      <!-- 57 -->
      <g transform="translate(39.073 252.543886) scale(0.2 -0.2)">
       <defs>
        <path id="DejaVuSans-37" d="M 525 4666 
L 3525 4666 
L 3525 4397 
L 1831 0 
L 1172 0 
L 2766 4134 
L 525 4134 
L 525 4666 
z
" transform="scale(0.015625)"/>
       </defs>
       <use xlink:href="#DejaVuSans-35"/>
       <use xlink:href="#DejaVuSans-37" x="63.623047"/>
      </g>
     </g>
    </g>
    <g id="ytick_7">
     <g id="line2d_23">
      <path d="M 68.023 169.675656 
L 960.823 169.675656 
" clip-path="url(#p2a82f472da)" style="fill: none; stroke: #a5a391; stroke-opacity: 0.3; stroke-width: 0.8; stroke-linecap: square"/>
     </g>
     <g id="line2d_24">
      <g>
       <use xlink:href="#mdb5d2d671f" x="68.023" y="169.675656" style="stroke: #000000; stroke-width: 0.8"/>
      </g>
     </g>
     <g id="text_12">
      <!-- 58 -->
      <g transform="translate(39.073 177.274094) scale(0.2 -0.2)">
       <defs>
        <path id="DejaVuSans-38" d="M 2034 2216 
Q 1584 2216 1326 1975 
Q 1069 1734 1069 1313 
Q 1069 891 1326 650 
Q 1584 409 2034 409 
Q 2484 409 2743 651 
Q 3003 894 3003 1313 
Q 3003 1734 2745 1975 
Q 2488 2216 2034 2216 
z
M 1403 2484 
Q 997 2584 770 2862 
Q 544 3141 544 3541 
Q 544 4100 942 4425 
Q 1341 4750 2034 4750 
Q 2731 4750 3128 4425 
Q 3525 4100 3525 3541 
Q 3525 3141 3298 2862 
Q 3072 2584 2669 2484 
Q 3125 2378 3379 2068 
Q 3634 1759 3634 1313 
Q 3634 634 3220 271 
Q 2806 -91 2034 -91 
Q 1263 -91 848 271 
Q 434 634 434 1313 
Q 434 1759 690 2068 
Q 947 2378 1403 2484 
z
M 1172 3481 
Q 1172 3119 1398 2916 
Q 1625 2713 2034 2713 
Q 2441 2713 2670 2916 
Q 2900 3119 2900 3481 
Q 2900 3844 2670 4047 
Q 2441 4250 2034 4250 
Q 1625 4250 1398 4047 
Q 1172 3844 1172 3481 
z
" transform="scale(0.015625)"/>
       </defs>
       <use xlink:href="#DejaVuSans-35"/>
       <use xlink:href="#DejaVuSans-38" x="63.623047"/>
      </g>
     </g>
    </g>
    <g id="ytick_8">
     <g id="line2d_25">
      <path d="M 68.023 94.405864 
L 960.823 94.405864 
" clip-path="url(#p2a82f472da)" style="fill: none; stroke: #a5a391; stroke-opacity: 0.3; stroke-width: 0.8; stroke-linecap: square"/>
     </g>
     <g id="line2d_26">
      <g>
       <use xlink:href="#mdb5d2d671f" x="68.023" y="94.405864" style="stroke: #000000; stroke-width: 0.8"/>
      </g>
     </g>
     <g id="text_13">
      <!-- 59 -->
      <g transform="translate(39.073 102.004302) scale(0.2 -0.2)">
       <defs>
        <path id="DejaVuSans-39" d="M 703 97 
L 703 672 
Q 941 559 1184 500 
Q 1428 441 1663 441 
Q 2288 441 2617 861 
Q 2947 1281 2994 2138 
Q 2813 1869 2534 1725 
Q 2256 1581 1919 1581 
Q 1219 1581 811 2004 
Q 403 2428 403 3163 
Q 403 3881 828 4315 
Q 1253 4750 1959 4750 
Q 2769 4750 3195 4129 
Q 3622 3509 3622 2328 
Q 3622 1225 3098 567 
Q 2575 -91 1691 -91 
Q 1453 -91 1209 -44 
Q 966 3 703 97 
z
M 1959 2075 
Q 2384 2075 2632 2365 
Q 2881 2656 2881 3163 
Q 2881 3666 2632 3958 
Q 2384 4250 1959 4250 
Q 1534 4250 1286 3958 
Q 1038 3666 1038 3163 
Q 1038 2656 1286 2365 
Q 1534 2075 1959 2075 
z
" transform="scale(0.015625)"/>
       </defs>
       <use xlink:href="#DejaVuSans-35"/>
       <use xlink:href="#DejaVuSans-39" x="63.623047"/>
      </g>
     </g>
    </g>
    <g id="text_14">
     <!-- Water Percentage [%] -->
     <g transform="translate(29.0835 486.4785) rotate(-90) scale(0.288 -0.288)">
      <defs>
       <path id="DejaVuSans-57" d="M 213 4666 
L 850 4666 
L 1831 722 
L 2809 4666 
L 3519 4666 
L 4500 722 
L 5478 4666 
L 6119 4666 
L 4947 0 
L 4153 0 
L 3169 4050 
L 2175 0 
L 1381 0 
L 213 4666 
z
" transform="scale(0.015625)"/>
       <path id="DejaVuSans-74" d="M 1172 4494 
L 1172 3500 
L 2356 3500 
L 2356 3053 
L 1172 3053 
L 1172 1153 
Q 1172 725 1289 603 
Q 1406 481 1766 481 
L 2356 481 
L 2356 0 
L 1766 0 
Q 1100 0 847 248 
Q 594 497 594 1153 
L 594 3053 
L 172 3053 
L 172 3500 
L 594 3500 
L 594 4494 
L 1172 4494 
z
" transform="scale(0.015625)"/>
       <path id="DejaVuSans-65" d="M 3597 1894 
L 3597 1613 
L 953 1613 
Q 991 1019 1311 708 
Q 1631 397 2203 397 
Q 2534 397 2845 478 
Q 3156 559 3463 722 
L 3463 178 
Q 3153 47 2828 -22 
Q 2503 -91 2169 -91 
Q 1331 -91 842 396 
Q 353 884 353 1716 
Q 353 2575 817 3079 
Q 1281 3584 2069 3584 
Q 2775 3584 3186 3129 
Q 3597 2675 3597 1894 
z
M 3022 2063 
Q 3016 2534 2758 2815 
Q 2500 3097 2075 3097 
Q 1594 3097 1305 2825 
Q 1016 2553 972 2059 
L 3022 2063 
z
" transform="scale(0.015625)"/>
       <path id="DejaVuSans-72" d="M 2631 2963 
Q 2534 3019 2420 3045 
Q 2306 3072 2169 3072 
Q 1681 3072 1420 2755 
Q 1159 2438 1159 1844 
L 1159 0 
L 581 0 
L 581 3500 
L 1159 3500 
L 1159 2956 
Q 1341 3275 1631 3429 
Q 1922 3584 2338 3584 
Q 2397 3584 2469 3576 
Q 2541 3569 2628 3553 
L 2631 2963 
z
" transform="scale(0.015625)"/>
       <path id="DejaVuSans-50" d="M 1259 4147 
L 1259 2394 
L 2053 2394 
Q 2494 2394 2734 2622 
Q 2975 2850 2975 3272 
Q 2975 3691 2734 3919 
Q 2494 4147 2053 4147 
L 1259 4147 
z
M 628 4666 
L 2053 4666 
Q 2838 4666 3239 4311 
Q 3641 3956 3641 3272 
Q 3641 2581 3239 2228 
Q 2838 1875 2053 1875 
L 1259 1875 
L 1259 0 
L 628 0 
L 628 4666 
z
" transform="scale(0.015625)"/>
       <path id="DejaVuSans-63" d="M 3122 3366 
L 3122 2828 
Q 2878 2963 2633 3030 
Q 2388 3097 2138 3097 
Q 1578 3097 1268 2742 
Q 959 2388 959 1747 
Q 959 1106 1268 751 
Q 1578 397 2138 397 
Q 2388 397 2633 464 
Q 2878 531 3122 666 
L 3122 134 
Q 2881 22 2623 -34 
Q 2366 -91 2075 -91 
Q 1284 -91 818 406 
Q 353 903 353 1747 
Q 353 2603 823 3093 
Q 1294 3584 2113 3584 
Q 2378 3584 2631 3529 
Q 2884 3475 3122 3366 
z
" transform="scale(0.015625)"/>
       <path id="DejaVuSans-67" d="M 2906 1791 
Q 2906 2416 2648 2759 
Q 2391 3103 1925 3103 
Q 1463 3103 1205 2759 
Q 947 2416 947 1791 
Q 947 1169 1205 825 
Q 1463 481 1925 481 
Q 2391 481 2648 825 
Q 2906 1169 2906 1791 
z
M 3481 434 
Q 3481 -459 3084 -895 
Q 2688 -1331 1869 -1331 
Q 1566 -1331 1297 -1286 
Q 1028 -1241 775 -1147 
L 775 -588 
Q 1028 -725 1275 -790 
Q 1522 -856 1778 -856 
Q 2344 -856 2625 -561 
Q 2906 -266 2906 331 
L 2906 616 
Q 2728 306 2450 153 
Q 2172 0 1784 0 
Q 1141 0 747 490 
Q 353 981 353 1791 
Q 353 2603 747 3093 
Q 1141 3584 1784 3584 
Q 2172 3584 2450 3431 
Q 2728 3278 2906 2969 
L 2906 3500 
L 3481 3500 
L 3481 434 
z
" transform="scale(0.015625)"/>
       <path id="DejaVuSans-5b" d="M 550 4863 
L 1875 4863 
L 1875 4416 
L 1125 4416 
L 1125 -397 
L 1875 -397 
L 1875 -844 
L 550 -844 
L 550 4863 
z
" transform="scale(0.015625)"/>
       <path id="DejaVuSans-25" d="M 4653 2053 
Q 4381 2053 4226 1822 
Q 4072 1591 4072 1178 
Q 4072 772 4226 539 
Q 4381 306 4653 306 
Q 4919 306 5073 539 
Q 5228 772 5228 1178 
Q 5228 1588 5073 1820 
Q 4919 2053 4653 2053 
z
M 4653 2450 
Q 5147 2450 5437 2106 
Q 5728 1763 5728 1178 
Q 5728 594 5436 251 
Q 5144 -91 4653 -91 
Q 4153 -91 3862 251 
Q 3572 594 3572 1178 
Q 3572 1766 3864 2108 
Q 4156 2450 4653 2450 
z
M 1428 4353 
Q 1159 4353 1004 4120 
Q 850 3888 850 3481 
Q 850 3069 1003 2837 
Q 1156 2606 1428 2606 
Q 1700 2606 1854 2837 
Q 2009 3069 2009 3481 
Q 2009 3884 1853 4118 
Q 1697 4353 1428 4353 
z
M 4250 4750 
L 4750 4750 
L 1831 -91 
L 1331 -91 
L 4250 4750 
z
M 1428 4750 
Q 1922 4750 2215 4408 
Q 2509 4066 2509 3481 
Q 2509 2891 2217 2550 
Q 1925 2209 1428 2209 
Q 931 2209 642 2551 
Q 353 2894 353 3481 
Q 353 4063 643 4406 
Q 934 4750 1428 4750 
z
" transform="scale(0.015625)"/>
       <path id="DejaVuSans-5d" d="M 1947 4863 
L 1947 -844 
L 622 -844 
L 622 -397 
L 1369 -397 
L 1369 4416 
L 622 4416 
L 622 4863 
L 1947 4863 
z
" transform="scale(0.015625)"/>
      </defs>
      <use xlink:href="#DejaVuSans-57"/>
      <use xlink:href="#DejaVuSans-61" x="92.501953"/>
      <use xlink:href="#DejaVuSans-74" x="153.78125"/>
      <use xlink:href="#DejaVuSans-65" x="192.990234"/>
      <use xlink:href="#DejaVuSans-72" x="254.513672"/>
      <use xlink:href="#DejaVuSans-20" x="295.626953"/>
      <use xlink:href="#DejaVuSans-50" x="327.414062"/>
      <use xlink:href="#DejaVuSans-65" x="384.091797"/>
      <use xlink:href="#DejaVuSans-72" x="445.615234"/>
      <use xlink:href="#DejaVuSans-63" x="484.478516"/>
      <use xlink:href="#DejaVuSans-65" x="539.458984"/>
      <use xlink:href="#DejaVuSans-6e" x="600.982422"/>
      <use xlink:href="#DejaVuSans-74" x="664.361328"/>
      <use xlink:href="#DejaVuSans-61" x="703.570312"/>
      <use xlink:href="#DejaVuSans-67" x="764.849609"/>
      <use xlink:href="#DejaVuSans-65" x="828.326172"/>
      <use xlink:href="#DejaVuSans-20" x="889.849609"/>
      <use xlink:href="#DejaVuSans-5b" x="921.636719"/>
      <use xlink:href="#DejaVuSans-25" x="960.650391"/>
      <use xlink:href="#DejaVuSans-5d" x="1055.669922"/>
     </g>
    </g>
   </g>
   <g id="line2d_27">
    <path d="M 108.604818 357.850136 
L 115.150273 493.335761 
L 118.423 320.21524 
L 121.695727 348.441412 
L 124.968455 291.989068 
L 128.241182 393.979636 
L 131.513909 323.978729 
L 134.786636 292.616316 
L 138.059364 300.143295 
L 141.332091 322.724233 
L 144.604818 383.441865 
L 147.877545 375.413087 
L 151.150273 293.870813 
L 154.423 276.558761 
L 157.695727 340.914433 
L 160.968455 291.989068 
L 164.241182 237.418469 
L 167.513909 204.29976 
L 170.786636 184.729615 
L 174.059364 220.482766 
L 177.332091 212.955786 
L 180.604818 239.927462 
L 183.877545 297.634302 
L 187.150273 254.354172 
L 190.423 256.235917 
L 193.695727 263.762896 
L 196.968455 263.010198 
L 200.241182 239.927462 
L 203.513909 292.616316 
L 206.786636 335.269198 
L 210.059364 301.397792 
L 213.332091 285.591136 
L 216.604818 267.526386 
L 219.877545 281.074948 
L 223.150273 219.855517 
L 226.423 280.698599 
L 229.695727 332.760205 
L 232.968455 296.128906 
L 236.241182 287.59833 
L 239.513909 248.708938 
L 242.786636 307.043026 
L 246.059364 322.724233 
L 249.332091 352.204901 
L 252.604818 320.21524 
L 255.877545 354.086646 
L 259.150273 403.012011 
L 262.423 305.161282 
L 265.695727 346.559667 
L 268.968455 348.441412 
L 272.241182 399.248521 
L 275.513909 350.323157 
L 278.786636 369.140605 
L 282.059364 364.122618 
L 285.332091 343.87146 
L 288.604818 321.469736 
L 291.877545 312.688261 
L 295.150273 324.731427 
L 298.423 307.670275 
L 301.695727 339.785386 
L 304.968455 355.341143 
L 308.241182 335.269198 
L 311.513909 327.742219 
L 314.786636 440.646907 
L 318.059364 420.574962 
L 321.332091 350.323157 
L 324.604818 356.34474 
L 327.877545 347.097308 
L 331.150273 395.485032 
L 334.423 410.53899 
L 337.695727 367.886108 
L 340.968455 377.420282 
L 344.241182 349.06866 
L 347.513909 282.580344 
L 350.786636 344.677922 
L 354.059364 332.760205 
L 357.332091 340.914433 
L 360.604818 277.562358 
L 363.877545 327.742219 
L 367.150273 282.580344 
L 370.423 220.482766 
L 376.968455 312.688261 
L 380.241182 303.655886 
L 383.513909 258.74491 
L 386.786636 335.269198 
L 403.150273 327.742219 
L 406.423 330.251212 
L 409.695727 389.839797 
L 412.968455 347.814164 
L 416.241182 410.53899 
L 429.332091 372.904094 
L 432.604818 425.592948 
L 435.877545 357.850136 
L 458.786636 399.248521 
L 462.059364 444.410396 
L 465.332091 415.556976 
L 468.604818 372.904094 
L 471.877545 305.161282 
L 475.150273 320.21524 
L 478.423 399.248521 
L 481.695727 354.086646 
L 484.968455 410.53899 
L 488.241182 331.505709 
L 491.513909 403.012011 
L 494.786636 405.521004 
L 507.877545 410.53899 
L 511.150273 433.119928 
L 514.423 425.592948 
L 517.695727 354.086646 
L 520.968455 478.281803 
L 537.332091 463.227844 
L 573.332091 403.012011 
L 589.695727 418.065969 
L 592.968455 403.012011 
L 599.513909 440.646907 
L 609.332091 387.958053 
L 651.877545 478.281803 
L 759.877545 177.202635 
L 763.150273 139.567739 
L 766.423 100.051099 
L 769.695727 109.459823 
L 772.968455 116.986802 
L 779.513909 237.418469 
L 782.786636 207.310552 
L 920.241182 137.058746 
" clip-path="url(#p2a82f472da)" style="fill: none; stroke: #0000ff; stroke-width: 1.5; stroke-linecap: square"/>
    <defs>
     <path id="me2ec3fc67a" d="M 0 -3 
L -0.673542 -0.927051 
L -2.85317 -0.927051 
L -1.089814 0.354102 
L -1.763356 2.427051 
L -0 1.145898 
L 1.763356 2.427051 
L 1.089814 0.354102 
L 2.85317 -0.927051 
L 0.673542 -0.927051 
z
" style="stroke: #0000ff; stroke-linejoin: bevel"/>
    </defs>
    <g clip-path="url(#p2a82f472da)">
     <use xlink:href="#me2ec3fc67a" x="108.604818" y="357.850136" style="fill: #0000ff; stroke: #0000ff; stroke-linejoin: bevel"/>
     <use xlink:href="#me2ec3fc67a" x="115.150273" y="493.335761" style="fill: #0000ff; stroke: #0000ff; stroke-linejoin: bevel"/>
     <use xlink:href="#me2ec3fc67a" x="118.423" y="320.21524" style="fill: #0000ff; stroke: #0000ff; stroke-linejoin: bevel"/>
     <use xlink:href="#me2ec3fc67a" x="121.695727" y="348.441412" style="fill: #0000ff; stroke: #0000ff; stroke-linejoin: bevel"/>
     <use xlink:href="#me2ec3fc67a" x="124.968455" y="291.989068" style="fill: #0000ff; stroke: #0000ff; stroke-linejoin: bevel"/>
     <use xlink:href="#me2ec3fc67a" x="128.241182" y="393.979636" style="fill: #0000ff; stroke: #0000ff; stroke-linejoin: bevel"/>
     <use xlink:href="#me2ec3fc67a" x="131.513909" y="323.978729" style="fill: #0000ff; stroke: #0000ff; stroke-linejoin: bevel"/>
     <use xlink:href="#me2ec3fc67a" x="134.786636" y="292.616316" style="fill: #0000ff; stroke: #0000ff; stroke-linejoin: bevel"/>
     <use xlink:href="#me2ec3fc67a" x="138.059364" y="300.143295" style="fill: #0000ff; stroke: #0000ff; stroke-linejoin: bevel"/>
     <use xlink:href="#me2ec3fc67a" x="141.332091" y="322.724233" style="fill: #0000ff; stroke: #0000ff; stroke-linejoin: bevel"/>
     <use xlink:href="#me2ec3fc67a" x="144.604818" y="383.441865" style="fill: #0000ff; stroke: #0000ff; stroke-linejoin: bevel"/>
     <use xlink:href="#me2ec3fc67a" x="147.877545" y="375.413087" style="fill: #0000ff; stroke: #0000ff; stroke-linejoin: bevel"/>
     <use xlink:href="#me2ec3fc67a" x="151.150273" y="293.870813" style="fill: #0000ff; stroke: #0000ff; stroke-linejoin: bevel"/>
     <use xlink:href="#me2ec3fc67a" x="154.423" y="276.558761" style="fill: #0000ff; stroke: #0000ff; stroke-linejoin: bevel"/>
     <use xlink:href="#me2ec3fc67a" x="157.695727" y="340.914433" style="fill: #0000ff; stroke: #0000ff; stroke-linejoin: bevel"/>
     <use xlink:href="#me2ec3fc67a" x="160.968455" y="291.989068" style="fill: #0000ff; stroke: #0000ff; stroke-linejoin: bevel"/>
     <use xlink:href="#me2ec3fc67a" x="164.241182" y="237.418469" style="fill: #0000ff; stroke: #0000ff; stroke-linejoin: bevel"/>
     <use xlink:href="#me2ec3fc67a" x="167.513909" y="204.29976" style="fill: #0000ff; stroke: #0000ff; stroke-linejoin: bevel"/>
     <use xlink:href="#me2ec3fc67a" x="170.786636" y="184.729615" style="fill: #0000ff; stroke: #0000ff; stroke-linejoin: bevel"/>
     <use xlink:href="#me2ec3fc67a" x="174.059364" y="220.482766" style="fill: #0000ff; stroke: #0000ff; stroke-linejoin: bevel"/>
     <use xlink:href="#me2ec3fc67a" x="177.332091" y="212.955786" style="fill: #0000ff; stroke: #0000ff; stroke-linejoin: bevel"/>
     <use xlink:href="#me2ec3fc67a" x="180.604818" y="239.927462" style="fill: #0000ff; stroke: #0000ff; stroke-linejoin: bevel"/>
     <use xlink:href="#me2ec3fc67a" x="183.877545" y="297.634302" style="fill: #0000ff; stroke: #0000ff; stroke-linejoin: bevel"/>
     <use xlink:href="#me2ec3fc67a" x="187.150273" y="254.354172" style="fill: #0000ff; stroke: #0000ff; stroke-linejoin: bevel"/>
     <use xlink:href="#me2ec3fc67a" x="190.423" y="256.235917" style="fill: #0000ff; stroke: #0000ff; stroke-linejoin: bevel"/>
     <use xlink:href="#me2ec3fc67a" x="193.695727" y="263.762896" style="fill: #0000ff; stroke: #0000ff; stroke-linejoin: bevel"/>
     <use xlink:href="#me2ec3fc67a" x="196.968455" y="263.010198" style="fill: #0000ff; stroke: #0000ff; stroke-linejoin: bevel"/>
     <use xlink:href="#me2ec3fc67a" x="200.241182" y="239.927462" style="fill: #0000ff; stroke: #0000ff; stroke-linejoin: bevel"/>
     <use xlink:href="#me2ec3fc67a" x="203.513909" y="292.616316" style="fill: #0000ff; stroke: #0000ff; stroke-linejoin: bevel"/>
     <use xlink:href="#me2ec3fc67a" x="206.786636" y="335.269198" style="fill: #0000ff; stroke: #0000ff; stroke-linejoin: bevel"/>
     <use xlink:href="#me2ec3fc67a" x="210.059364" y="301.397792" style="fill: #0000ff; stroke: #0000ff; stroke-linejoin: bevel"/>
     <use xlink:href="#me2ec3fc67a" x="213.332091" y="285.591136" style="fill: #0000ff; stroke: #0000ff; stroke-linejoin: bevel"/>
     <use xlink:href="#me2ec3fc67a" x="216.604818" y="267.526386" style="fill: #0000ff; stroke: #0000ff; stroke-linejoin: bevel"/>
     <use xlink:href="#me2ec3fc67a" x="219.877545" y="281.074948" style="fill: #0000ff; stroke: #0000ff; stroke-linejoin: bevel"/>
     <use xlink:href="#me2ec3fc67a" x="223.150273" y="219.855517" style="fill: #0000ff; stroke: #0000ff; stroke-linejoin: bevel"/>
     <use xlink:href="#me2ec3fc67a" x="226.423" y="280.698599" style="fill: #0000ff; stroke: #0000ff; stroke-linejoin: bevel"/>
     <use xlink:href="#me2ec3fc67a" x="229.695727" y="332.760205" style="fill: #0000ff; stroke: #0000ff; stroke-linejoin: bevel"/>
     <use xlink:href="#me2ec3fc67a" x="232.968455" y="296.128906" style="fill: #0000ff; stroke: #0000ff; stroke-linejoin: bevel"/>
     <use xlink:href="#me2ec3fc67a" x="236.241182" y="287.59833" style="fill: #0000ff; stroke: #0000ff; stroke-linejoin: bevel"/>
     <use xlink:href="#me2ec3fc67a" x="239.513909" y="248.708938" style="fill: #0000ff; stroke: #0000ff; stroke-linejoin: bevel"/>
     <use xlink:href="#me2ec3fc67a" x="242.786636" y="307.043026" style="fill: #0000ff; stroke: #0000ff; stroke-linejoin: bevel"/>
     <use xlink:href="#me2ec3fc67a" x="246.059364" y="322.724233" style="fill: #0000ff; stroke: #0000ff; stroke-linejoin: bevel"/>
     <use xlink:href="#me2ec3fc67a" x="249.332091" y="352.204901" style="fill: #0000ff; stroke: #0000ff; stroke-linejoin: bevel"/>
     <use xlink:href="#me2ec3fc67a" x="252.604818" y="320.21524" style="fill: #0000ff; stroke: #0000ff; stroke-linejoin: bevel"/>
     <use xlink:href="#me2ec3fc67a" x="255.877545" y="354.086646" style="fill: #0000ff; stroke: #0000ff; stroke-linejoin: bevel"/>
     <use xlink:href="#me2ec3fc67a" x="259.150273" y="403.012011" style="fill: #0000ff; stroke: #0000ff; stroke-linejoin: bevel"/>
     <use xlink:href="#me2ec3fc67a" x="262.423" y="305.161282" style="fill: #0000ff; stroke: #0000ff; stroke-linejoin: bevel"/>
     <use xlink:href="#me2ec3fc67a" x="265.695727" y="346.559667" style="fill: #0000ff; stroke: #0000ff; stroke-linejoin: bevel"/>
     <use xlink:href="#me2ec3fc67a" x="268.968455" y="348.441412" style="fill: #0000ff; stroke: #0000ff; stroke-linejoin: bevel"/>
     <use xlink:href="#me2ec3fc67a" x="272.241182" y="399.248521" style="fill: #0000ff; stroke: #0000ff; stroke-linejoin: bevel"/>
     <use xlink:href="#me2ec3fc67a" x="275.513909" y="350.323157" style="fill: #0000ff; stroke: #0000ff; stroke-linejoin: bevel"/>
     <use xlink:href="#me2ec3fc67a" x="278.786636" y="369.140605" style="fill: #0000ff; stroke: #0000ff; stroke-linejoin: bevel"/>
     <use xlink:href="#me2ec3fc67a" x="282.059364" y="364.122618" style="fill: #0000ff; stroke: #0000ff; stroke-linejoin: bevel"/>
     <use xlink:href="#me2ec3fc67a" x="285.332091" y="343.87146" style="fill: #0000ff; stroke: #0000ff; stroke-linejoin: bevel"/>
     <use xlink:href="#me2ec3fc67a" x="288.604818" y="321.469736" style="fill: #0000ff; stroke: #0000ff; stroke-linejoin: bevel"/>
     <use xlink:href="#me2ec3fc67a" x="291.877545" y="312.688261" style="fill: #0000ff; stroke: #0000ff; stroke-linejoin: bevel"/>
     <use xlink:href="#me2ec3fc67a" x="295.150273" y="324.731427" style="fill: #0000ff; stroke: #0000ff; stroke-linejoin: bevel"/>
     <use xlink:href="#me2ec3fc67a" x="298.423" y="307.670275" style="fill: #0000ff; stroke: #0000ff; stroke-linejoin: bevel"/>
     <use xlink:href="#me2ec3fc67a" x="301.695727" y="339.785386" style="fill: #0000ff; stroke: #0000ff; stroke-linejoin: bevel"/>
     <use xlink:href="#me2ec3fc67a" x="304.968455" y="355.341143" style="fill: #0000ff; stroke: #0000ff; stroke-linejoin: bevel"/>
     <use xlink:href="#me2ec3fc67a" x="308.241182" y="335.269198" style="fill: #0000ff; stroke: #0000ff; stroke-linejoin: bevel"/>
     <use xlink:href="#me2ec3fc67a" x="311.513909" y="327.742219" style="fill: #0000ff; stroke: #0000ff; stroke-linejoin: bevel"/>
     <use xlink:href="#me2ec3fc67a" x="314.786636" y="440.646907" style="fill: #0000ff; stroke: #0000ff; stroke-linejoin: bevel"/>
     <use xlink:href="#me2ec3fc67a" x="318.059364" y="420.574962" style="fill: #0000ff; stroke: #0000ff; stroke-linejoin: bevel"/>
     <use xlink:href="#me2ec3fc67a" x="321.332091" y="350.323157" style="fill: #0000ff; stroke: #0000ff; stroke-linejoin: bevel"/>
     <use xlink:href="#me2ec3fc67a" x="324.604818" y="356.34474" style="fill: #0000ff; stroke: #0000ff; stroke-linejoin: bevel"/>
     <use xlink:href="#me2ec3fc67a" x="327.877545" y="347.097308" style="fill: #0000ff; stroke: #0000ff; stroke-linejoin: bevel"/>
     <use xlink:href="#me2ec3fc67a" x="331.150273" y="395.485032" style="fill: #0000ff; stroke: #0000ff; stroke-linejoin: bevel"/>
     <use xlink:href="#me2ec3fc67a" x="334.423" y="410.53899" style="fill: #0000ff; stroke: #0000ff; stroke-linejoin: bevel"/>
     <use xlink:href="#me2ec3fc67a" x="337.695727" y="367.886108" style="fill: #0000ff; stroke: #0000ff; stroke-linejoin: bevel"/>
     <use xlink:href="#me2ec3fc67a" x="340.968455" y="377.420282" style="fill: #0000ff; stroke: #0000ff; stroke-linejoin: bevel"/>
     <use xlink:href="#me2ec3fc67a" x="344.241182" y="349.06866" style="fill: #0000ff; stroke: #0000ff; stroke-linejoin: bevel"/>
     <use xlink:href="#me2ec3fc67a" x="347.513909" y="282.580344" style="fill: #0000ff; stroke: #0000ff; stroke-linejoin: bevel"/>
     <use xlink:href="#me2ec3fc67a" x="350.786636" y="344.677922" style="fill: #0000ff; stroke: #0000ff; stroke-linejoin: bevel"/>
     <use xlink:href="#me2ec3fc67a" x="354.059364" y="332.760205" style="fill: #0000ff; stroke: #0000ff; stroke-linejoin: bevel"/>
     <use xlink:href="#me2ec3fc67a" x="357.332091" y="340.914433" style="fill: #0000ff; stroke: #0000ff; stroke-linejoin: bevel"/>
     <use xlink:href="#me2ec3fc67a" x="360.604818" y="277.562358" style="fill: #0000ff; stroke: #0000ff; stroke-linejoin: bevel"/>
     <use xlink:href="#me2ec3fc67a" x="363.877545" y="327.742219" style="fill: #0000ff; stroke: #0000ff; stroke-linejoin: bevel"/>
     <use xlink:href="#me2ec3fc67a" x="367.150273" y="282.580344" style="fill: #0000ff; stroke: #0000ff; stroke-linejoin: bevel"/>
     <use xlink:href="#me2ec3fc67a" x="370.423" y="220.482766" style="fill: #0000ff; stroke: #0000ff; stroke-linejoin: bevel"/>
     <use xlink:href="#me2ec3fc67a" x="376.968455" y="312.688261" style="fill: #0000ff; stroke: #0000ff; stroke-linejoin: bevel"/>
     <use xlink:href="#me2ec3fc67a" x="380.241182" y="303.655886" style="fill: #0000ff; stroke: #0000ff; stroke-linejoin: bevel"/>
     <use xlink:href="#me2ec3fc67a" x="383.513909" y="258.74491" style="fill: #0000ff; stroke: #0000ff; stroke-linejoin: bevel"/>
     <use xlink:href="#me2ec3fc67a" x="386.786636" y="335.269198" style="fill: #0000ff; stroke: #0000ff; stroke-linejoin: bevel"/>
     <use xlink:href="#me2ec3fc67a" x="403.150273" y="327.742219" style="fill: #0000ff; stroke: #0000ff; stroke-linejoin: bevel"/>
     <use xlink:href="#me2ec3fc67a" x="406.423" y="330.251212" style="fill: #0000ff; stroke: #0000ff; stroke-linejoin: bevel"/>
     <use xlink:href="#me2ec3fc67a" x="409.695727" y="389.839797" style="fill: #0000ff; stroke: #0000ff; stroke-linejoin: bevel"/>
     <use xlink:href="#me2ec3fc67a" x="412.968455" y="347.814164" style="fill: #0000ff; stroke: #0000ff; stroke-linejoin: bevel"/>
     <use xlink:href="#me2ec3fc67a" x="416.241182" y="410.53899" style="fill: #0000ff; stroke: #0000ff; stroke-linejoin: bevel"/>
     <use xlink:href="#me2ec3fc67a" x="429.332091" y="372.904094" style="fill: #0000ff; stroke: #0000ff; stroke-linejoin: bevel"/>
     <use xlink:href="#me2ec3fc67a" x="432.604818" y="425.592948" style="fill: #0000ff; stroke: #0000ff; stroke-linejoin: bevel"/>
     <use xlink:href="#me2ec3fc67a" x="435.877545" y="357.850136" style="fill: #0000ff; stroke: #0000ff; stroke-linejoin: bevel"/>
     <use xlink:href="#me2ec3fc67a" x="458.786636" y="399.248521" style="fill: #0000ff; stroke: #0000ff; stroke-linejoin: bevel"/>
     <use xlink:href="#me2ec3fc67a" x="462.059364" y="444.410396" style="fill: #0000ff; stroke: #0000ff; stroke-linejoin: bevel"/>
     <use xlink:href="#me2ec3fc67a" x="465.332091" y="415.556976" style="fill: #0000ff; stroke: #0000ff; stroke-linejoin: bevel"/>
     <use xlink:href="#me2ec3fc67a" x="468.604818" y="372.904094" style="fill: #0000ff; stroke: #0000ff; stroke-linejoin: bevel"/>
     <use xlink:href="#me2ec3fc67a" x="471.877545" y="305.161282" style="fill: #0000ff; stroke: #0000ff; stroke-linejoin: bevel"/>
     <use xlink:href="#me2ec3fc67a" x="475.150273" y="320.21524" style="fill: #0000ff; stroke: #0000ff; stroke-linejoin: bevel"/>
     <use xlink:href="#me2ec3fc67a" x="478.423" y="399.248521" style="fill: #0000ff; stroke: #0000ff; stroke-linejoin: bevel"/>
     <use xlink:href="#me2ec3fc67a" x="481.695727" y="354.086646" style="fill: #0000ff; stroke: #0000ff; stroke-linejoin: bevel"/>
     <use xlink:href="#me2ec3fc67a" x="484.968455" y="410.53899" style="fill: #0000ff; stroke: #0000ff; stroke-linejoin: bevel"/>
     <use xlink:href="#me2ec3fc67a" x="488.241182" y="331.505709" style="fill: #0000ff; stroke: #0000ff; stroke-linejoin: bevel"/>
     <use xlink:href="#me2ec3fc67a" x="491.513909" y="403.012011" style="fill: #0000ff; stroke: #0000ff; stroke-linejoin: bevel"/>
     <use xlink:href="#me2ec3fc67a" x="494.786636" y="405.521004" style="fill: #0000ff; stroke: #0000ff; stroke-linejoin: bevel"/>
     <use xlink:href="#me2ec3fc67a" x="507.877545" y="410.53899" style="fill: #0000ff; stroke: #0000ff; stroke-linejoin: bevel"/>
     <use xlink:href="#me2ec3fc67a" x="511.150273" y="433.119928" style="fill: #0000ff; stroke: #0000ff; stroke-linejoin: bevel"/>
     <use xlink:href="#me2ec3fc67a" x="514.423" y="425.592948" style="fill: #0000ff; stroke: #0000ff; stroke-linejoin: bevel"/>
     <use xlink:href="#me2ec3fc67a" x="517.695727" y="354.086646" style="fill: #0000ff; stroke: #0000ff; stroke-linejoin: bevel"/>
     <use xlink:href="#me2ec3fc67a" x="520.968455" y="478.281803" style="fill: #0000ff; stroke: #0000ff; stroke-linejoin: bevel"/>
     <use xlink:href="#me2ec3fc67a" x="537.332091" y="463.227844" style="fill: #0000ff; stroke: #0000ff; stroke-linejoin: bevel"/>
     <use xlink:href="#me2ec3fc67a" x="573.332091" y="403.012011" style="fill: #0000ff; stroke: #0000ff; stroke-linejoin: bevel"/>
     <use xlink:href="#me2ec3fc67a" x="589.695727" y="418.065969" style="fill: #0000ff; stroke: #0000ff; stroke-linejoin: bevel"/>
     <use xlink:href="#me2ec3fc67a" x="592.968455" y="403.012011" style="fill: #0000ff; stroke: #0000ff; stroke-linejoin: bevel"/>
     <use xlink:href="#me2ec3fc67a" x="599.513909" y="440.646907" style="fill: #0000ff; stroke: #0000ff; stroke-linejoin: bevel"/>
     <use xlink:href="#me2ec3fc67a" x="609.332091" y="387.958053" style="fill: #0000ff; stroke: #0000ff; stroke-linejoin: bevel"/>
     <use xlink:href="#me2ec3fc67a" x="651.877545" y="478.281803" style="fill: #0000ff; stroke: #0000ff; stroke-linejoin: bevel"/>
     <use xlink:href="#me2ec3fc67a" x="759.877545" y="177.202635" style="fill: #0000ff; stroke: #0000ff; stroke-linejoin: bevel"/>
     <use xlink:href="#me2ec3fc67a" x="763.150273" y="139.567739" style="fill: #0000ff; stroke: #0000ff; stroke-linejoin: bevel"/>
     <use xlink:href="#me2ec3fc67a" x="766.423" y="100.051099" style="fill: #0000ff; stroke: #0000ff; stroke-linejoin: bevel"/>
     <use xlink:href="#me2ec3fc67a" x="769.695727" y="109.459823" style="fill: #0000ff; stroke: #0000ff; stroke-linejoin: bevel"/>
     <use xlink:href="#me2ec3fc67a" x="772.968455" y="116.986802" style="fill: #0000ff; stroke: #0000ff; stroke-linejoin: bevel"/>
     <use xlink:href="#me2ec3fc67a" x="779.513909" y="237.418469" style="fill: #0000ff; stroke: #0000ff; stroke-linejoin: bevel"/>
     <use xlink:href="#me2ec3fc67a" x="782.786636" y="207.310552" style="fill: #0000ff; stroke: #0000ff; stroke-linejoin: bevel"/>
     <use xlink:href="#me2ec3fc67a" x="920.241182" y="137.058746" style="fill: #0000ff; stroke: #0000ff; stroke-linejoin: bevel"/>
    </g>
   </g>
   <g id="patch_3">
    <path d="M 68.023 622.6035 
L 68.023 35.0835 
" style="fill: none; stroke: #000000; stroke-width: 0.8; stroke-linejoin: miter; stroke-linecap: square"/>
   </g>
   <g id="patch_4">
    <path d="M 960.823 622.6035 
L 960.823 35.0835 
" style="fill: none; stroke: #000000; stroke-width: 0.8; stroke-linejoin: miter; stroke-linecap: square"/>
   </g>
   <g id="patch_5">
    <path d="M 68.023 622.6035 
L 960.823 622.6035 
" style="fill: none; stroke: #000000; stroke-width: 0.8; stroke-linejoin: miter; stroke-linecap: square"/>
   </g>
   <g id="patch_6">
    <path d="M 68.023 35.0835 
L 960.823 35.0835 
" style="fill: none; stroke: #000000; stroke-width: 0.8; stroke-linejoin: miter; stroke-linecap: square"/>
   </g>
   <g id="text_15">
    <!-- Body Water Percentage -->
    <g transform="translate(345.35125 29.0835) scale(0.288 -0.288)">
     <defs>
      <path id="DejaVuSans-42" d="M 1259 2228 
L 1259 519 
L 2272 519 
Q 2781 519 3026 730 
Q 3272 941 3272 1375 
Q 3272 1813 3026 2020 
Q 2781 2228 2272 2228 
L 1259 2228 
z
M 1259 4147 
L 1259 2741 
L 2194 2741 
Q 2656 2741 2882 2914 
Q 3109 3088 3109 3444 
Q 3109 3797 2882 3972 
Q 2656 4147 2194 4147 
L 1259 4147 
z
M 628 4666 
L 2241 4666 
Q 2963 4666 3353 4366 
Q 3744 4066 3744 3513 
Q 3744 3084 3544 2831 
Q 3344 2578 2956 2516 
Q 3422 2416 3680 2098 
Q 3938 1781 3938 1306 
Q 3938 681 3513 340 
Q 3088 0 2303 0 
L 628 0 
L 628 4666 
z
" transform="scale(0.015625)"/>
      <path id="DejaVuSans-6f" d="M 1959 3097 
Q 1497 3097 1228 2736 
Q 959 2375 959 1747 
Q 959 1119 1226 758 
Q 1494 397 1959 397 
Q 2419 397 2687 759 
Q 2956 1122 2956 1747 
Q 2956 2369 2687 2733 
Q 2419 3097 1959 3097 
z
M 1959 3584 
Q 2709 3584 3137 3096 
Q 3566 2609 3566 1747 
Q 3566 888 3137 398 
Q 2709 -91 1959 -91 
Q 1206 -91 779 398 
Q 353 888 353 1747 
Q 353 2609 779 3096 
Q 1206 3584 1959 3584 
z
" transform="scale(0.015625)"/>
      <path id="DejaVuSans-64" d="M 2906 2969 
L 2906 4863 
L 3481 4863 
L 3481 0 
L 2906 0 
L 2906 525 
Q 2725 213 2448 61 
Q 2172 -91 1784 -91 
Q 1150 -91 751 415 
Q 353 922 353 1747 
Q 353 2572 751 3078 
Q 1150 3584 1784 3584 
Q 2172 3584 2448 3432 
Q 2725 3281 2906 2969 
z
M 947 1747 
Q 947 1113 1208 752 
Q 1469 391 1925 391 
Q 2381 391 2643 752 
Q 2906 1113 2906 1747 
Q 2906 2381 2643 2742 
Q 2381 3103 1925 3103 
Q 1469 3103 1208 2742 
Q 947 2381 947 1747 
z
" transform="scale(0.015625)"/>
      <path id="DejaVuSans-79" d="M 2059 -325 
Q 1816 -950 1584 -1140 
Q 1353 -1331 966 -1331 
L 506 -1331 
L 506 -850 
L 844 -850 
Q 1081 -850 1212 -737 
Q 1344 -625 1503 -206 
L 1606 56 
L 191 3500 
L 800 3500 
L 1894 763 
L 2988 3500 
L 3597 3500 
L 2059 -325 
z
" transform="scale(0.015625)"/>
     </defs>
     <use xlink:href="#DejaVuSans-42"/>
     <use xlink:href="#DejaVuSans-6f" x="68.603516"/>
     <use xlink:href="#DejaVuSans-64" x="129.785156"/>
     <use xlink:href="#DejaVuSans-79" x="193.261719"/>
     <use xlink:href="#DejaVuSans-20" x="252.441406"/>
     <use xlink:href="#DejaVuSans-57" x="284.228516"/>
     <use xlink:href="#DejaVuSans-61" x="376.730469"/>
     <use xlink:href="#DejaVuSans-74" x="438.009766"/>
     <use xlink:href="#DejaVuSans-65" x="477.21875"/>
     <use xlink:href="#DejaVuSans-72" x="538.742188"/>
     <use xlink:href="#DejaVuSans-20" x="579.855469"/>
     <use xlink:href="#DejaVuSans-50" x="611.642578"/>
     <use xlink:href="#DejaVuSans-65" x="668.320312"/>
     <use xlink:href="#DejaVuSans-72" x="729.84375"/>
     <use xlink:href="#DejaVuSans-63" x="768.707031"/>
     <use xlink:href="#DejaVuSans-65" x="823.6875"/>
     <use xlink:href="#DejaVuSans-6e" x="885.210938"/>
     <use xlink:href="#DejaVuSans-74" x="948.589844"/>
     <use xlink:href="#DejaVuSans-61" x="987.798828"/>
     <use xlink:href="#DejaVuSans-67" x="1049.078125"/>
     <use xlink:href="#DejaVuSans-65" x="1112.554688"/>
    </g>
   </g>
  </g>
 </g>
 <defs>
  <clipPath id="p2a82f472da">
   <rect x="68.023" y="35.0835" width="892.8" height="587.52"/>
  </clipPath>
 </defs>
</svg>
