<?xml version="1.0" encoding="utf-8" standalone="no"?>
<!DOCTYPE svg PUBLIC "-//W3C//DTD SVG 1.1//EN"
  "http://www.w3.org/Graphics/SVG/1.1/DTD/svg11.dtd">
<svg xmlns:xlink="http://www.w3.org/1999/xlink" width="968.023pt" height="700.466504pt" viewBox="0 0 968.023 700.466504" xmlns="http://www.w3.org/2000/svg" version="1.1">
 <metadata>
  <rdf:RDF xmlns:dc="http://purl.org/dc/elements/1.1/" xmlns:cc="http://creativecommons.org/ns#" xmlns:rdf="http://www.w3.org/1999/02/22-rdf-syntax-ns#">
   <cc:Work>
    <dc:type rdf:resource="http://purl.org/dc/dcmitype/StillImage"/>
    <dc:date>2025-02-03T23:32:08.961595</dc:date>
    <dc:format>image/svg+xml</dc:format>
    <dc:creator>
     <cc:Agent>
      <dc:title>Matplotlib v3.10.0, https://matplotlib.org/</dc:title>
     </cc:Agent>
    </dc:creator>
   </cc:Work>
  </rdf:RDF>
 </metadata>
 <defs>
  <style type="text/css">*{stroke-linejoin: round; stroke-linecap: butt}</style>
 </defs>
 <g id="figure_1">
  <g id="patch_1">
   <path d="M 0 700.466504 
L 968.023 700.466504 
L 968.023 0 
L 0 0 
z
" style="fill: #ffffff"/>
  </g>
  <g id="axes_1">
   <g id="patch_2">
    <path d="M 68.023 622.6035 
L 960.823 622.6035 
L 960.823 35.0835 
L 68.023 35.0835 
z
" style="fill: #ffffff"/>
   </g>
   <g id="FillBetweenPolyCollection_1">
    <defs>
     <path id="mf84e2dc7ef" d="M 108.604818 -440.13062 
L 108.604818 -365.511994 
L 114.707347 -104.568459 
L 117.758612 -393.726552 
L 120.809876 -398.95116 
L 123.861141 -447.851924 
L 126.912405 -347.522091 
L 129.96367 -422.99099 
L 133.014934 -416.290542 
L 136.066199 -418.165508 
L 139.117463 -417.805501 
L 142.168728 -358.387576 
L 145.219992 -360.136982 
L 148.271257 -441.980262 
L 151.322522 -434.021139 
L 154.373786 -373.63377 
L 157.425051 -420.829532 
L 160.476315 -463.215461 
L 163.52758 -503.906815 
L 166.578844 -530.686896 
L 169.630109 -491.326172 
L 172.681373 -499.271701 
L 175.732638 -449.513128 
L 178.783902 -429.073111 
L 181.835167 -407.933707 
L 184.886431 -436.697364 
L 187.937696 -430.021837 
L 190.98896 -438.687246 
L 194.040225 -466.824174 
L 197.091489 -422.557356 
L 200.142754 -391.927913 
L 203.194018 -416.941338 
L 206.245283 -440.974556 
L 209.296548 -445.21402 
L 212.347812 -436.205099 
L 215.399077 -447.470976 
L 218.450341 -409.667752 
L 221.501606 -366.252091 
L 224.55287 -400.891059 
L 227.604135 -402.224087 
L 230.655399 -457.41562 
L 233.706664 -400.659535 
L 236.757928 -381.61227 
L 239.809193 -373.182324 
L 242.860457 -412.82421 
L 245.911722 -344.623936 
L 248.962986 -318.976897 
L 252.014251 -406.452684 
L 255.065515 -377.613599 
L 258.11678 -402.826121 
L 261.168044 -320.621273 
L 264.219309 -345.641094 
L 267.270573 -338.183496 
L 270.321838 -331.430458 
L 273.373103 -355.91311 
L 276.424367 -378.493637 
L 279.475632 -367.807921 
L 282.526896 -342.176189 
L 285.578161 -390.320712 
L 288.629425 -367.630937 
L 291.68069 -352.329159 
L 294.731954 -366.025238 
L 297.783219 -368.005299 
L 300.834483 -273.392774 
L 303.885748 -294.362993 
L 306.937012 -384.120793 
L 309.988277 -336.354004 
L 313.039541 -356.690718 
L 316.090806 -281.108229 
L 319.14207 -300.719579 
L 322.193335 -336.341519 
L 325.244599 -317.194478 
L 328.295864 -353.545332 
L 331.347129 -373.042996 
L 334.398393 -346.111513 
L 337.449658 -358.402775 
L 340.500922 -375.324504 
L 343.552187 -417.211709 
L 346.603451 -375.341916 
L 349.654716 -446.764198 
L 352.70598 -481.788105 
L 358.808509 -396.293637 
L 361.859774 -403.612492 
L 364.911038 -427.576158 
L 367.962303 -383.776643 
L 383.218625 -393.782076 
L 386.26989 -393.77025 
L 389.321154 -305.288346 
L 392.372419 -385.214944 
L 395.423684 -331.19934 
L 407.628742 -352.98107 
L 410.680006 -335.297545 
L 413.731271 -386.176396 
L 435.090122 -355.255896 
L 438.141387 -297.094209 
L 441.192651 -320.702336 
L 444.243916 -349.489135 
L 447.29518 -403.542448 
L 450.346445 -388.492647 
L 453.39771 -323.262715 
L 456.448974 -344.655663 
L 459.500239 -316.358347 
L 462.551503 -342.326652 
L 465.602768 -339.809822 
L 468.654032 -332.564426 
L 480.85909 -294.345114 
L 483.910355 -288.608701 
L 486.961619 -295.481509 
L 490.012884 -348.143838 
L 493.064148 -238.729856 
L 508.320471 -270.425696 
L 541.884381 -331.046664 
L 557.140703 -309.808818 
L 560.191968 -324.945758 
L 566.294497 -260.631183 
L 575.44829 -323.915285 
L 615.114729 -250.800817 
L 715.806459 -525.84236 
L 718.857723 -515.809659 
L 721.908988 -588.8731 
L 724.960252 -556.030574 
L 728.011517 -550.248753 
L 734.114046 -459.236482 
L 737.16531 -480.547289 
L 865.31842 -547.502086 
L 917.189917 -564.058924 
L 920.241182 -421.961927 
L 920.241182 -508.059645 
L 920.241182 -508.059645 
L 917.189917 -638.67755 
L 865.31842 -622.120712 
L 737.16531 -555.165914 
L 734.114046 -533.855107 
L 728.011517 -624.867379 
L 724.960252 -630.649199 
L 721.908988 -637.282662 
L 718.857723 -629.536179 
L 715.806459 -600.460985 
L 615.114729 -325.419442 
L 575.44829 -398.53391 
L 566.294497 -335.249808 
L 560.191968 -399.564383 
L 557.140703 -384.427444 
L 541.884381 -405.665289 
L 508.320471 -345.044321 
L 493.064148 -313.348481 
L 490.012884 -412.682006 
L 486.961619 -370.100134 
L 483.910355 -363.227327 
L 480.85909 -368.963739 
L 468.654032 -407.183051 
L 465.602768 -414.428447 
L 462.551503 -480.382965 
L 459.500239 -390.976973 
L 456.448974 -419.274289 
L 453.39771 -397.881341 
L 450.346445 -463.111273 
L 447.29518 -478.161073 
L 444.243916 -406.459274 
L 441.192651 -395.320961 
L 438.141387 -371.712835 
L 435.090122 -372.778315 
L 413.731271 -460.795021 
L 410.680006 -409.91617 
L 407.628742 -427.599696 
L 395.423684 -405.817966 
L 392.372419 -459.833569 
L 389.321154 -420.475141 
L 386.26989 -468.388875 
L 383.218625 -468.400701 
L 367.962303 -458.395268 
L 364.911038 -513.438797 
L 361.859774 -472.440751 
L 358.808509 -470.912262 
L 352.70598 -533.788725 
L 349.654716 -521.382823 
L 346.603451 -449.960542 
L 343.552187 -479.027158 
L 340.500922 -425.816051 
L 337.449658 -433.0214 
L 334.398393 -453.382148 
L 331.347129 -447.661621 
L 328.295864 -442.757135 
L 325.244599 -415.218188 
L 322.193335 -410.960144 
L 319.14207 -375.338204 
L 316.090806 -436.276116 
L 313.039541 -442.814138 
L 309.988277 -422.308034 
L 306.937012 -458.739418 
L 303.885748 -368.981618 
L 300.834483 -348.011399 
L 297.783219 -442.623924 
L 294.731954 -447.133338 
L 291.68069 -413.949347 
L 288.629425 -422.330962 
L 285.578161 -464.939337 
L 282.526896 -470.985832 
L 279.475632 -442.426546 
L 276.424367 -480.88291 
L 273.373103 -446.327781 
L 270.321838 -421.287038 
L 267.270573 -435.796411 
L 264.219309 -420.259719 
L 261.168044 -370.606392 
L 258.11678 -419.018052 
L 255.065515 -452.232225 
L 252.014251 -481.071309 
L 248.962986 -393.595522 
L 245.911722 -419.242561 
L 242.860457 -449.945 
L 239.809193 -414.521678 
L 236.757928 -456.230895 
L 233.706664 -469.474517 
L 230.655399 -491.377727 
L 227.604135 -476.842712 
L 224.55287 -480.125708 
L 221.501606 -453.600982 
L 218.450341 -462.631225 
L 215.399077 -522.089601 
L 212.347812 -477.892049 
L 209.296548 -519.832645 
L 206.245283 -497.568738 
L 203.194018 -491.559963 
L 200.142754 -496.278888 
L 197.091489 -497.175981 
L 194.040225 -541.442799 
L 190.98896 -535.753501 
L 187.937696 -538.711161 
L 184.886431 -507.542548 
L 181.835167 -557.042665 
L 178.783902 -503.691736 
L 175.732638 -524.131753 
L 172.681373 -541.341135 
L 169.630109 -540.534046 
L 166.578844 -535.823494 
L 163.52758 -542.713923 
L 160.476315 -538.251521 
L 157.425051 -505.018714 
L 154.373786 -468.890002 
L 151.322522 -506.285065 
L 148.271257 -475.728258 
L 145.219992 -407.706867 
L 142.168728 -451.182471 
L 139.117463 -484.033148 
L 136.066199 -492.784133 
L 133.014934 -497.946962 
L 129.96367 -469.095937 
L 126.912405 -402.477256 
L 123.861141 -477.287991 
L 120.809876 -418.836291 
L 117.758612 -471.057414 
L 114.707347 -347.654737 
L 108.604818 -440.13062 
z
" style="stroke: #a52a2a; stroke-opacity: 0.2"/>
    </defs>
    <g clip-path="url(#p9111b20336)">
     <use xlink:href="#mf84e2dc7ef" x="0" y="700.466504" style="fill: #a52a2a; fill-opacity: 0.2; stroke: #a52a2a; stroke-opacity: 0.2"/>
    </g>
   </g>
   <g id="matplotlib.axis_1">
    <g id="xtick_1">
     <g id="line2d_1">
      <path d="M 111.656083 622.6035 
L 111.656083 35.0835 
" clip-path="url(#p9111b20336)" style="fill: none; stroke: #a5a391; stroke-opacity: 0.3; stroke-width: 0.8; stroke-linecap: square"/>
     </g>
     <g id="line2d_2">
      <defs>
       <path id="m951d7b4266" d="M 0 0 
L 0 -3.5 
" style="stroke: #000000; stroke-width: 0.8"/>
      </defs>
      <g>
       <use xlink:href="#m951d7b4266" x="111.656083" y="622.6035" style="stroke: #000000; stroke-width: 0.8"/>
      </g>
     </g>
     <g id="text_1">
      <!-- Jan 01, 20 -->
      <g transform="translate(22.281035 689.66438) rotate(-30) scale(0.2 -0.2)">
       <defs>
        <path id="DejaVuSans-4a" d="M 628 4666 
L 1259 4666 
L 1259 325 
Q 1259 -519 939 -900 
Q 619 -1281 -91 -1281 
L -331 -1281 
L -331 -750 
L -134 -750 
Q 284 -750 456 -515 
Q 628 -281 628 325 
L 628 4666 
z
" transform="scale(0.015625)"/>
        <path id="DejaVuSans-61" d="M 2194 1759 
Q 1497 1759 1228 1600 
Q 959 1441 959 1056 
Q 959 750 1161 570 
Q 1363 391 1709 391 
Q 2188 391 2477 730 
Q 2766 1069 2766 1631 
L 2766 1759 
L 2194 1759 
z
M 3341 1997 
L 3341 0 
L 2766 0 
L 2766 531 
Q 2569 213 2275 61 
Q 1981 -91 1556 -91 
Q 1019 -91 701 211 
Q 384 513 384 1019 
Q 384 1609 779 1909 
Q 1175 2209 1959 2209 
L 2766 2209 
L 2766 2266 
Q 2766 2663 2505 2880 
Q 2244 3097 1772 3097 
Q 1472 3097 1187 3025 
Q 903 2953 641 2809 
L 641 3341 
Q 956 3463 1253 3523 
Q 1550 3584 1831 3584 
Q 2591 3584 2966 3190 
Q 3341 2797 3341 1997 
z
" transform="scale(0.015625)"/>
        <path id="DejaVuSans-6e" d="M 3513 2113 
L 3513 0 
L 2938 0 
L 2938 2094 
Q 2938 2591 2744 2837 
Q 2550 3084 2163 3084 
Q 1697 3084 1428 2787 
Q 1159 2491 1159 1978 
L 1159 0 
L 581 0 
L 581 3500 
L 1159 3500 
L 1159 2956 
Q 1366 3272 1645 3428 
Q 1925 3584 2291 3584 
Q 2894 3584 3203 3211 
Q 3513 2838 3513 2113 
z
" transform="scale(0.015625)"/>
        <path id="DejaVuSans-20" transform="scale(0.015625)"/>
        <path id="DejaVuSans-30" d="M 2034 4250 
Q 1547 4250 1301 3770 
Q 1056 3291 1056 2328 
Q 1056 1369 1301 889 
Q 1547 409 2034 409 
Q 2525 409 2770 889 
Q 3016 1369 3016 2328 
Q 3016 3291 2770 3770 
Q 2525 4250 2034 4250 
z
M 2034 4750 
Q 2819 4750 3233 4129 
Q 3647 3509 3647 2328 
Q 3647 1150 3233 529 
Q 2819 -91 2034 -91 
Q 1250 -91 836 529 
Q 422 1150 422 2328 
Q 422 3509 836 4129 
Q 1250 4750 2034 4750 
z
" transform="scale(0.015625)"/>
        <path id="DejaVuSans-31" d="M 794 531 
L 1825 531 
L 1825 4091 
L 703 3866 
L 703 4441 
L 1819 4666 
L 2450 4666 
L 2450 531 
L 3481 531 
L 3481 0 
L 794 0 
L 794 531 
z
" transform="scale(0.015625)"/>
        <path id="DejaVuSans-2c" d="M 750 794 
L 1409 794 
L 1409 256 
L 897 -744 
L 494 -744 
L 750 256 
L 750 794 
z
" transform="scale(0.015625)"/>
        <path id="DejaVuSans-32" d="M 1228 531 
L 3431 531 
L 3431 0 
L 469 0 
L 469 531 
Q 828 903 1448 1529 
Q 2069 2156 2228 2338 
Q 2531 2678 2651 2914 
Q 2772 3150 2772 3378 
Q 2772 3750 2511 3984 
Q 2250 4219 1831 4219 
Q 1534 4219 1204 4116 
Q 875 4013 500 3803 
L 500 4441 
Q 881 4594 1212 4672 
Q 1544 4750 1819 4750 
Q 2544 4750 2975 4387 
Q 3406 4025 3406 3419 
Q 3406 3131 3298 2873 
Q 3191 2616 2906 2266 
Q 2828 2175 2409 1742 
Q 1991 1309 1228 531 
z
" transform="scale(0.015625)"/>
       </defs>
       <use xlink:href="#DejaVuSans-4a"/>
       <use xlink:href="#DejaVuSans-61" transform="translate(29.492188 0)"/>
       <use xlink:href="#DejaVuSans-6e" transform="translate(90.771484 0)"/>
       <use xlink:href="#DejaVuSans-20" transform="translate(154.150391 0)"/>
       <use xlink:href="#DejaVuSans-30" transform="translate(185.9375 0)"/>
       <use xlink:href="#DejaVuSans-31" transform="translate(249.560547 0)"/>
       <use xlink:href="#DejaVuSans-2c" transform="translate(313.183594 0)"/>
       <use xlink:href="#DejaVuSans-20" transform="translate(344.970703 0)"/>
       <use xlink:href="#DejaVuSans-32" transform="translate(376.757812 0)"/>
       <use xlink:href="#DejaVuSans-30" transform="translate(440.380859 0)"/>
      </g>
     </g>
    </g>
    <g id="xtick_2">
     <g id="line2d_3">
      <path d="M 271.193628 622.6035 
L 271.193628 35.0835 
" clip-path="url(#p9111b20336)" style="fill: none; stroke: #a5a391; stroke-opacity: 0.3; stroke-width: 0.8; stroke-linecap: square"/>
     </g>
     <g id="line2d_4">
      <g>
       <use xlink:href="#m951d7b4266" x="271.193628" y="622.6035" style="stroke: #000000; stroke-width: 0.8"/>
      </g>
     </g>
     <g id="text_2">
      <!-- Jan 01, 21 -->
      <g transform="translate(181.81858 689.66438) rotate(-30) scale(0.2 -0.2)">
       <use xlink:href="#DejaVuSans-4a"/>
       <use xlink:href="#DejaVuSans-61" transform="translate(29.492188 0)"/>
       <use xlink:href="#DejaVuSans-6e" transform="translate(90.771484 0)"/>
       <use xlink:href="#DejaVuSans-20" transform="translate(154.150391 0)"/>
       <use xlink:href="#DejaVuSans-30" transform="translate(185.9375 0)"/>
       <use xlink:href="#DejaVuSans-31" transform="translate(249.560547 0)"/>
       <use xlink:href="#DejaVuSans-2c" transform="translate(313.183594 0)"/>
       <use xlink:href="#DejaVuSans-20" transform="translate(344.970703 0)"/>
       <use xlink:href="#DejaVuSans-32" transform="translate(376.757812 0)"/>
       <use xlink:href="#DejaVuSans-31" transform="translate(440.380859 0)"/>
      </g>
     </g>
    </g>
    <g id="xtick_3">
     <g id="line2d_5">
      <path d="M 430.295278 622.6035 
L 430.295278 35.0835 
" clip-path="url(#p9111b20336)" style="fill: none; stroke: #a5a391; stroke-opacity: 0.3; stroke-width: 0.8; stroke-linecap: square"/>
     </g>
     <g id="line2d_6">
      <g>
       <use xlink:href="#m951d7b4266" x="430.295278" y="622.6035" style="stroke: #000000; stroke-width: 0.8"/>
      </g>
     </g>
     <g id="text_3">
      <!-- Jan 01, 22 -->
      <g transform="translate(340.92023 689.66438) rotate(-30) scale(0.2 -0.2)">
       <use xlink:href="#DejaVuSans-4a"/>
       <use xlink:href="#DejaVuSans-61" transform="translate(29.492188 0)"/>
       <use xlink:href="#DejaVuSans-6e" transform="translate(90.771484 0)"/>
       <use xlink:href="#DejaVuSans-20" transform="translate(154.150391 0)"/>
       <use xlink:href="#DejaVuSans-30" transform="translate(185.9375 0)"/>
       <use xlink:href="#DejaVuSans-31" transform="translate(249.560547 0)"/>
       <use xlink:href="#DejaVuSans-2c" transform="translate(313.183594 0)"/>
       <use xlink:href="#DejaVuSans-20" transform="translate(344.970703 0)"/>
       <use xlink:href="#DejaVuSans-32" transform="translate(376.757812 0)"/>
       <use xlink:href="#DejaVuSans-32" transform="translate(440.380859 0)"/>
      </g>
     </g>
    </g>
    <g id="xtick_4">
     <g id="line2d_7">
      <path d="M 589.396928 622.6035 
L 589.396928 35.0835 
" clip-path="url(#p9111b20336)" style="fill: none; stroke: #a5a391; stroke-opacity: 0.3; stroke-width: 0.8; stroke-linecap: square"/>
     </g>
     <g id="line2d_8">
      <g>
       <use xlink:href="#m951d7b4266" x="589.396928" y="622.6035" style="stroke: #000000; stroke-width: 0.8"/>
      </g>
     </g>
     <g id="text_4">
      <!-- Jan 01, 23 -->
      <g transform="translate(500.02188 689.66438) rotate(-30) scale(0.2 -0.2)">
       <defs>
        <path id="DejaVuSans-33" d="M 2597 2516 
Q 3050 2419 3304 2112 
Q 3559 1806 3559 1356 
Q 3559 666 3084 287 
Q 2609 -91 1734 -91 
Q 1441 -91 1130 -33 
Q 819 25 488 141 
L 488 750 
Q 750 597 1062 519 
Q 1375 441 1716 441 
Q 2309 441 2620 675 
Q 2931 909 2931 1356 
Q 2931 1769 2642 2001 
Q 2353 2234 1838 2234 
L 1294 2234 
L 1294 2753 
L 1863 2753 
Q 2328 2753 2575 2939 
Q 2822 3125 2822 3475 
Q 2822 3834 2567 4026 
Q 2313 4219 1838 4219 
Q 1578 4219 1281 4162 
Q 984 4106 628 3988 
L 628 4550 
Q 988 4650 1302 4700 
Q 1616 4750 1894 4750 
Q 2613 4750 3031 4423 
Q 3450 4097 3450 3541 
Q 3450 3153 3228 2886 
Q 3006 2619 2597 2516 
z
" transform="scale(0.015625)"/>
       </defs>
       <use xlink:href="#DejaVuSans-4a"/>
       <use xlink:href="#DejaVuSans-61" transform="translate(29.492188 0)"/>
       <use xlink:href="#DejaVuSans-6e" transform="translate(90.771484 0)"/>
       <use xlink:href="#DejaVuSans-20" transform="translate(154.150391 0)"/>
       <use xlink:href="#DejaVuSans-30" transform="translate(185.9375 0)"/>
       <use xlink:href="#DejaVuSans-31" transform="translate(249.560547 0)"/>
       <use xlink:href="#DejaVuSans-2c" transform="translate(313.183594 0)"/>
       <use xlink:href="#DejaVuSans-20" transform="translate(344.970703 0)"/>
       <use xlink:href="#DejaVuSans-32" transform="translate(376.757812 0)"/>
       <use xlink:href="#DejaVuSans-33" transform="translate(440.380859 0)"/>
      </g>
     </g>
    </g>
    <g id="xtick_5">
     <g id="line2d_9">
      <path d="M 748.498579 622.6035 
L 748.498579 35.0835 
" clip-path="url(#p9111b20336)" style="fill: none; stroke: #a5a391; stroke-opacity: 0.3; stroke-width: 0.8; stroke-linecap: square"/>
     </g>
     <g id="line2d_10">
      <g>
       <use xlink:href="#m951d7b4266" x="748.498579" y="622.6035" style="stroke: #000000; stroke-width: 0.8"/>
      </g>
     </g>
     <g id="text_5">
      <!-- Jan 01, 24 -->
      <g transform="translate(659.12353 689.66438) rotate(-30) scale(0.2 -0.2)">
       <defs>
        <path id="DejaVuSans-34" d="M 2419 4116 
L 825 1625 
L 2419 1625 
L 2419 4116 
z
M 2253 4666 
L 3047 4666 
L 3047 1625 
L 3713 1625 
L 3713 1100 
L 3047 1100 
L 3047 0 
L 2419 0 
L 2419 1100 
L 313 1100 
L 313 1709 
L 2253 4666 
z
" transform="scale(0.015625)"/>
       </defs>
       <use xlink:href="#DejaVuSans-4a"/>
       <use xlink:href="#DejaVuSans-61" transform="translate(29.492188 0)"/>
       <use xlink:href="#DejaVuSans-6e" transform="translate(90.771484 0)"/>
       <use xlink:href="#DejaVuSans-20" transform="translate(154.150391 0)"/>
       <use xlink:href="#DejaVuSans-30" transform="translate(185.9375 0)"/>
       <use xlink:href="#DejaVuSans-31" transform="translate(249.560547 0)"/>
       <use xlink:href="#DejaVuSans-2c" transform="translate(313.183594 0)"/>
       <use xlink:href="#DejaVuSans-20" transform="translate(344.970703 0)"/>
       <use xlink:href="#DejaVuSans-32" transform="translate(376.757812 0)"/>
       <use xlink:href="#DejaVuSans-34" transform="translate(440.380859 0)"/>
      </g>
     </g>
    </g>
    <g id="xtick_6">
     <g id="line2d_11">
      <path d="M 908.036124 622.6035 
L 908.036124 35.0835 
" clip-path="url(#p9111b20336)" style="fill: none; stroke: #a5a391; stroke-opacity: 0.3; stroke-width: 0.8; stroke-linecap: square"/>
     </g>
     <g id="line2d_12">
      <g>
       <use xlink:href="#m951d7b4266" x="908.036124" y="622.6035" style="stroke: #000000; stroke-width: 0.8"/>
      </g>
     </g>
     <g id="text_6">
      <!-- Jan 01, 25 -->
      <g transform="translate(818.661076 689.66438) rotate(-30) scale(0.2 -0.2)">
       <defs>
        <path id="DejaVuSans-35" d="M 691 4666 
L 3169 4666 
L 3169 4134 
L 1269 4134 
L 1269 2991 
Q 1406 3038 1543 3061 
Q 1681 3084 1819 3084 
Q 2600 3084 3056 2656 
Q 3513 2228 3513 1497 
Q 3513 744 3044 326 
Q 2575 -91 1722 -91 
Q 1428 -91 1123 -41 
Q 819 9 494 109 
L 494 744 
Q 775 591 1075 516 
Q 1375 441 1709 441 
Q 2250 441 2565 725 
Q 2881 1009 2881 1497 
Q 2881 1984 2565 2268 
Q 2250 2553 1709 2553 
Q 1456 2553 1204 2497 
Q 953 2441 691 2322 
L 691 4666 
z
" transform="scale(0.015625)"/>
       </defs>
       <use xlink:href="#DejaVuSans-4a"/>
       <use xlink:href="#DejaVuSans-61" transform="translate(29.492188 0)"/>
       <use xlink:href="#DejaVuSans-6e" transform="translate(90.771484 0)"/>
       <use xlink:href="#DejaVuSans-20" transform="translate(154.150391 0)"/>
       <use xlink:href="#DejaVuSans-30" transform="translate(185.9375 0)"/>
       <use xlink:href="#DejaVuSans-31" transform="translate(249.560547 0)"/>
       <use xlink:href="#DejaVuSans-2c" transform="translate(313.183594 0)"/>
       <use xlink:href="#DejaVuSans-20" transform="translate(344.970703 0)"/>
       <use xlink:href="#DejaVuSans-32" transform="translate(376.757812 0)"/>
       <use xlink:href="#DejaVuSans-35" transform="translate(440.380859 0)"/>
      </g>
     </g>
    </g>
   </g>
   <g id="matplotlib.axis_2">
    <g id="ytick_1">
     <g id="line2d_13">
      <path d="M 68.023 566.940915 
L 960.823 566.940915 
" clip-path="url(#p9111b20336)" style="fill: none; stroke: #a5a391; stroke-opacity: 0.3; stroke-width: 0.8; stroke-linecap: square"/>
     </g>
     <g id="line2d_14">
      <defs>
       <path id="m3475d98f38" d="M 0 0 
L 3.5 0 
" style="stroke: #000000; stroke-width: 0.8"/>
      </defs>
      <g>
       <use xlink:href="#m3475d98f38" x="68.023" y="566.940915" style="stroke: #000000; stroke-width: 0.8"/>
      </g>
     </g>
     <g id="text_7">
      <!-- 68 -->
      <g transform="translate(39.073 574.539352) scale(0.2 -0.2)">
       <defs>
        <path id="DejaVuSans-36" d="M 2113 2584 
Q 1688 2584 1439 2293 
Q 1191 2003 1191 1497 
Q 1191 994 1439 701 
Q 1688 409 2113 409 
Q 2538 409 2786 701 
Q 3034 994 3034 1497 
Q 3034 2003 2786 2293 
Q 2538 2584 2113 2584 
z
M 3366 4563 
L 3366 3988 
Q 3128 4100 2886 4159 
Q 2644 4219 2406 4219 
Q 1781 4219 1451 3797 
Q 1122 3375 1075 2522 
Q 1259 2794 1537 2939 
Q 1816 3084 2150 3084 
Q 2853 3084 3261 2657 
Q 3669 2231 3669 1497 
Q 3669 778 3244 343 
Q 2819 -91 2113 -91 
Q 1303 -91 875 529 
Q 447 1150 447 2328 
Q 447 3434 972 4092 
Q 1497 4750 2381 4750 
Q 2619 4750 2861 4703 
Q 3103 4656 3366 4563 
z
" transform="scale(0.015625)"/>
        <path id="DejaVuSans-38" d="M 2034 2216 
Q 1584 2216 1326 1975 
Q 1069 1734 1069 1313 
Q 1069 891 1326 650 
Q 1584 409 2034 409 
Q 2484 409 2743 651 
Q 3003 894 3003 1313 
Q 3003 1734 2745 1975 
Q 2488 2216 2034 2216 
z
M 1403 2484 
Q 997 2584 770 2862 
Q 544 3141 544 3541 
Q 544 4100 942 4425 
Q 1341 4750 2034 4750 
Q 2731 4750 3128 4425 
Q 3525 4100 3525 3541 
Q 3525 3141 3298 2862 
Q 3072 2584 2669 2484 
Q 3125 2378 3379 2068 
Q 3634 1759 3634 1313 
Q 3634 634 3220 271 
Q 2806 -91 2034 -91 
Q 1263 -91 848 271 
Q 434 634 434 1313 
Q 434 1759 690 2068 
Q 947 2378 1403 2484 
z
M 1172 3481 
Q 1172 3119 1398 2916 
Q 1625 2713 2034 2713 
Q 2441 2713 2670 2916 
Q 2900 3119 2900 3481 
Q 2900 3844 2670 4047 
Q 2441 4250 2034 4250 
Q 1625 4250 1398 4047 
Q 1172 3844 1172 3481 
z
" transform="scale(0.015625)"/>
       </defs>
       <use xlink:href="#DejaVuSans-36"/>
       <use xlink:href="#DejaVuSans-38" transform="translate(63.623047 0)"/>
      </g>
     </g>
    </g>
    <g id="ytick_2">
     <g id="line2d_15">
      <path d="M 68.023 480.843196 
L 960.823 480.843196 
" clip-path="url(#p9111b20336)" style="fill: none; stroke: #a5a391; stroke-opacity: 0.3; stroke-width: 0.8; stroke-linecap: square"/>
     </g>
     <g id="line2d_16">
      <g>
       <use xlink:href="#m3475d98f38" x="68.023" y="480.843196" style="stroke: #000000; stroke-width: 0.8"/>
      </g>
     </g>
     <g id="text_8">
      <!-- 70 -->
      <g transform="translate(39.073 488.441634) scale(0.2 -0.2)">
       <defs>
        <path id="DejaVuSans-37" d="M 525 4666 
L 3525 4666 
L 3525 4397 
L 1831 0 
L 1172 0 
L 2766 4134 
L 525 4134 
L 525 4666 
z
" transform="scale(0.015625)"/>
       </defs>
       <use xlink:href="#DejaVuSans-37"/>
       <use xlink:href="#DejaVuSans-30" transform="translate(63.623047 0)"/>
      </g>
     </g>
    </g>
    <g id="ytick_3">
     <g id="line2d_17">
      <path d="M 68.023 394.745478 
L 960.823 394.745478 
" clip-path="url(#p9111b20336)" style="fill: none; stroke: #a5a391; stroke-opacity: 0.3; stroke-width: 0.8; stroke-linecap: square"/>
     </g>
     <g id="line2d_18">
      <g>
       <use xlink:href="#m3475d98f38" x="68.023" y="394.745478" style="stroke: #000000; stroke-width: 0.8"/>
      </g>
     </g>
     <g id="text_9">
      <!-- 72 -->
      <g transform="translate(39.073 402.343915) scale(0.2 -0.2)">
       <use xlink:href="#DejaVuSans-37"/>
       <use xlink:href="#DejaVuSans-32" transform="translate(63.623047 0)"/>
      </g>
     </g>
    </g>
    <g id="ytick_4">
     <g id="line2d_19">
      <path d="M 68.023 308.647759 
L 960.823 308.647759 
" clip-path="url(#p9111b20336)" style="fill: none; stroke: #a5a391; stroke-opacity: 0.3; stroke-width: 0.8; stroke-linecap: square"/>
     </g>
     <g id="line2d_20">
      <g>
       <use xlink:href="#m3475d98f38" x="68.023" y="308.647759" style="stroke: #000000; stroke-width: 0.8"/>
      </g>
     </g>
     <g id="text_10">
      <!-- 74 -->
      <g transform="translate(39.073 316.246197) scale(0.2 -0.2)">
       <use xlink:href="#DejaVuSans-37"/>
       <use xlink:href="#DejaVuSans-34" transform="translate(63.623047 0)"/>
      </g>
     </g>
    </g>
    <g id="ytick_5">
     <g id="line2d_21">
      <path d="M 68.023 222.550041 
L 960.823 222.550041 
" clip-path="url(#p9111b20336)" style="fill: none; stroke: #a5a391; stroke-opacity: 0.3; stroke-width: 0.8; stroke-linecap: square"/>
     </g>
     <g id="line2d_22">
      <g>
       <use xlink:href="#m3475d98f38" x="68.023" y="222.550041" style="stroke: #000000; stroke-width: 0.8"/>
      </g>
     </g>
     <g id="text_11">
      <!-- 76 -->
      <g transform="translate(39.073 230.148478) scale(0.2 -0.2)">
       <use xlink:href="#DejaVuSans-37"/>
       <use xlink:href="#DejaVuSans-36" transform="translate(63.623047 0)"/>
      </g>
     </g>
    </g>
    <g id="ytick_6">
     <g id="line2d_23">
      <path d="M 68.023 136.452322 
L 960.823 136.452322 
" clip-path="url(#p9111b20336)" style="fill: none; stroke: #a5a391; stroke-opacity: 0.3; stroke-width: 0.8; stroke-linecap: square"/>
     </g>
     <g id="line2d_24">
      <g>
       <use xlink:href="#m3475d98f38" x="68.023" y="136.452322" style="stroke: #000000; stroke-width: 0.8"/>
      </g>
     </g>
     <g id="text_12">
      <!-- 78 -->
      <g transform="translate(39.073 144.05076) scale(0.2 -0.2)">
       <use xlink:href="#DejaVuSans-37"/>
       <use xlink:href="#DejaVuSans-38" transform="translate(63.623047 0)"/>
      </g>
     </g>
    </g>
    <g id="ytick_7">
     <g id="line2d_25">
      <path d="M 68.023 50.354604 
L 960.823 50.354604 
" clip-path="url(#p9111b20336)" style="fill: none; stroke: #a5a391; stroke-opacity: 0.3; stroke-width: 0.8; stroke-linecap: square"/>
     </g>
     <g id="line2d_26">
      <g>
       <use xlink:href="#m3475d98f38" x="68.023" y="50.354604" style="stroke: #000000; stroke-width: 0.8"/>
      </g>
     </g>
     <g id="text_13">
      <!-- 80 -->
      <g transform="translate(39.073 57.953041) scale(0.2 -0.2)">
       <use xlink:href="#DejaVuSans-38"/>
       <use xlink:href="#DejaVuSans-30" transform="translate(63.623047 0)"/>
      </g>
     </g>
    </g>
    <g id="text_14">
     <!-- Muscle Mass Percentage [%] -->
     <g transform="translate(29.0835 534.56775) rotate(-90) scale(0.288 -0.288)">
      <defs>
       <path id="DejaVuSans-4d" d="M 628 4666 
L 1569 4666 
L 2759 1491 
L 3956 4666 
L 4897 4666 
L 4897 0 
L 4281 0 
L 4281 4097 
L 3078 897 
L 2444 897 
L 1241 4097 
L 1241 0 
L 628 0 
L 628 4666 
z
" transform="scale(0.015625)"/>
       <path id="DejaVuSans-75" d="M 544 1381 
L 544 3500 
L 1119 3500 
L 1119 1403 
Q 1119 906 1312 657 
Q 1506 409 1894 409 
Q 2359 409 2629 706 
Q 2900 1003 2900 1516 
L 2900 3500 
L 3475 3500 
L 3475 0 
L 2900 0 
L 2900 538 
Q 2691 219 2414 64 
Q 2138 -91 1772 -91 
Q 1169 -91 856 284 
Q 544 659 544 1381 
z
M 1991 3584 
L 1991 3584 
z
" transform="scale(0.015625)"/>
       <path id="DejaVuSans-73" d="M 2834 3397 
L 2834 2853 
Q 2591 2978 2328 3040 
Q 2066 3103 1784 3103 
Q 1356 3103 1142 2972 
Q 928 2841 928 2578 
Q 928 2378 1081 2264 
Q 1234 2150 1697 2047 
L 1894 2003 
Q 2506 1872 2764 1633 
Q 3022 1394 3022 966 
Q 3022 478 2636 193 
Q 2250 -91 1575 -91 
Q 1294 -91 989 -36 
Q 684 19 347 128 
L 347 722 
Q 666 556 975 473 
Q 1284 391 1588 391 
Q 1994 391 2212 530 
Q 2431 669 2431 922 
Q 2431 1156 2273 1281 
Q 2116 1406 1581 1522 
L 1381 1569 
Q 847 1681 609 1914 
Q 372 2147 372 2553 
Q 372 3047 722 3315 
Q 1072 3584 1716 3584 
Q 2034 3584 2315 3537 
Q 2597 3491 2834 3397 
z
" transform="scale(0.015625)"/>
       <path id="DejaVuSans-63" d="M 3122 3366 
L 3122 2828 
Q 2878 2963 2633 3030 
Q 2388 3097 2138 3097 
Q 1578 3097 1268 2742 
Q 959 2388 959 1747 
Q 959 1106 1268 751 
Q 1578 397 2138 397 
Q 2388 397 2633 464 
Q 2878 531 3122 666 
L 3122 134 
Q 2881 22 2623 -34 
Q 2366 -91 2075 -91 
Q 1284 -91 818 406 
Q 353 903 353 1747 
Q 353 2603 823 3093 
Q 1294 3584 2113 3584 
Q 2378 3584 2631 3529 
Q 2884 3475 3122 3366 
z
" transform="scale(0.015625)"/>
       <path id="DejaVuSans-6c" d="M 603 4863 
L 1178 4863 
L 1178 0 
L 603 0 
L 603 4863 
z
" transform="scale(0.015625)"/>
       <path id="DejaVuSans-65" d="M 3597 1894 
L 3597 1613 
L 953 1613 
Q 991 1019 1311 708 
Q 1631 397 2203 397 
Q 2534 397 2845 478 
Q 3156 559 3463 722 
L 3463 178 
Q 3153 47 2828 -22 
Q 2503 -91 2169 -91 
Q 1331 -91 842 396 
Q 353 884 353 1716 
Q 353 2575 817 3079 
Q 1281 3584 2069 3584 
Q 2775 3584 3186 3129 
Q 3597 2675 3597 1894 
z
M 3022 2063 
Q 3016 2534 2758 2815 
Q 2500 3097 2075 3097 
Q 1594 3097 1305 2825 
Q 1016 2553 972 2059 
L 3022 2063 
z
" transform="scale(0.015625)"/>
       <path id="DejaVuSans-50" d="M 1259 4147 
L 1259 2394 
L 2053 2394 
Q 2494 2394 2734 2622 
Q 2975 2850 2975 3272 
Q 2975 3691 2734 3919 
Q 2494 4147 2053 4147 
L 1259 4147 
z
M 628 4666 
L 2053 4666 
Q 2838 4666 3239 4311 
Q 3641 3956 3641 3272 
Q 3641 2581 3239 2228 
Q 2838 1875 2053 1875 
L 1259 1875 
L 1259 0 
L 628 0 
L 628 4666 
z
" transform="scale(0.015625)"/>
       <path id="DejaVuSans-72" d="M 2631 2963 
Q 2534 3019 2420 3045 
Q 2306 3072 2169 3072 
Q 1681 3072 1420 2755 
Q 1159 2438 1159 1844 
L 1159 0 
L 581 0 
L 581 3500 
L 1159 3500 
L 1159 2956 
Q 1341 3275 1631 3429 
Q 1922 3584 2338 3584 
Q 2397 3584 2469 3576 
Q 2541 3569 2628 3553 
L 2631 2963 
z
" transform="scale(0.015625)"/>
       <path id="DejaVuSans-74" d="M 1172 4494 
L 1172 3500 
L 2356 3500 
L 2356 3053 
L 1172 3053 
L 1172 1153 
Q 1172 725 1289 603 
Q 1406 481 1766 481 
L 2356 481 
L 2356 0 
L 1766 0 
Q 1100 0 847 248 
Q 594 497 594 1153 
L 594 3053 
L 172 3053 
L 172 3500 
L 594 3500 
L 594 4494 
L 1172 4494 
z
" transform="scale(0.015625)"/>
       <path id="DejaVuSans-67" d="M 2906 1791 
Q 2906 2416 2648 2759 
Q 2391 3103 1925 3103 
Q 1463 3103 1205 2759 
Q 947 2416 947 1791 
Q 947 1169 1205 825 
Q 1463 481 1925 481 
Q 2391 481 2648 825 
Q 2906 1169 2906 1791 
z
M 3481 434 
Q 3481 -459 3084 -895 
Q 2688 -1331 1869 -1331 
Q 1566 -1331 1297 -1286 
Q 1028 -1241 775 -1147 
L 775 -588 
Q 1028 -725 1275 -790 
Q 1522 -856 1778 -856 
Q 2344 -856 2625 -561 
Q 2906 -266 2906 331 
L 2906 616 
Q 2728 306 2450 153 
Q 2172 0 1784 0 
Q 1141 0 747 490 
Q 353 981 353 1791 
Q 353 2603 747 3093 
Q 1141 3584 1784 3584 
Q 2172 3584 2450 3431 
Q 2728 3278 2906 2969 
L 2906 3500 
L 3481 3500 
L 3481 434 
z
" transform="scale(0.015625)"/>
       <path id="DejaVuSans-5b" d="M 550 4863 
L 1875 4863 
L 1875 4416 
L 1125 4416 
L 1125 -397 
L 1875 -397 
L 1875 -844 
L 550 -844 
L 550 4863 
z
" transform="scale(0.015625)"/>
       <path id="DejaVuSans-25" d="M 4653 2053 
Q 4381 2053 4226 1822 
Q 4072 1591 4072 1178 
Q 4072 772 4226 539 
Q 4381 306 4653 306 
Q 4919 306 5073 539 
Q 5228 772 5228 1178 
Q 5228 1588 5073 1820 
Q 4919 2053 4653 2053 
z
M 4653 2450 
Q 5147 2450 5437 2106 
Q 5728 1763 5728 1178 
Q 5728 594 5436 251 
Q 5144 -91 4653 -91 
Q 4153 -91 3862 251 
Q 3572 594 3572 1178 
Q 3572 1766 3864 2108 
Q 4156 2450 4653 2450 
z
M 1428 4353 
Q 1159 4353 1004 4120 
Q 850 3888 850 3481 
Q 850 3069 1003 2837 
Q 1156 2606 1428 2606 
Q 1700 2606 1854 2837 
Q 2009 3069 2009 3481 
Q 2009 3884 1853 4118 
Q 1697 4353 1428 4353 
z
M 4250 4750 
L 4750 4750 
L 1831 -91 
L 1331 -91 
L 4250 4750 
z
M 1428 4750 
Q 1922 4750 2215 4408 
Q 2509 4066 2509 3481 
Q 2509 2891 2217 2550 
Q 1925 2209 1428 2209 
Q 931 2209 642 2551 
Q 353 2894 353 3481 
Q 353 4063 643 4406 
Q 934 4750 1428 4750 
z
" transform="scale(0.015625)"/>
       <path id="DejaVuSans-5d" d="M 1947 4863 
L 1947 -844 
L 622 -844 
L 622 -397 
L 1369 -397 
L 1369 4416 
L 622 4416 
L 622 4863 
L 1947 4863 
z
" transform="scale(0.015625)"/>
      </defs>
      <use xlink:href="#DejaVuSans-4d"/>
      <use xlink:href="#DejaVuSans-75" transform="translate(86.279297 0)"/>
      <use xlink:href="#DejaVuSans-73" transform="translate(149.658203 0)"/>
      <use xlink:href="#DejaVuSans-63" transform="translate(201.757812 0)"/>
      <use xlink:href="#DejaVuSans-6c" transform="translate(256.738281 0)"/>
      <use xlink:href="#DejaVuSans-65" transform="translate(284.521484 0)"/>
      <use xlink:href="#DejaVuSans-20" transform="translate(346.044922 0)"/>
      <use xlink:href="#DejaVuSans-4d" transform="translate(377.832031 0)"/>
      <use xlink:href="#DejaVuSans-61" transform="translate(464.111328 0)"/>
      <use xlink:href="#DejaVuSans-73" transform="translate(525.390625 0)"/>
      <use xlink:href="#DejaVuSans-73" transform="translate(577.490234 0)"/>
      <use xlink:href="#DejaVuSans-20" transform="translate(629.589844 0)"/>
      <use xlink:href="#DejaVuSans-50" transform="translate(661.376953 0)"/>
      <use xlink:href="#DejaVuSans-65" transform="translate(718.054688 0)"/>
      <use xlink:href="#DejaVuSans-72" transform="translate(779.578125 0)"/>
      <use xlink:href="#DejaVuSans-63" transform="translate(818.441406 0)"/>
      <use xlink:href="#DejaVuSans-65" transform="translate(873.421875 0)"/>
      <use xlink:href="#DejaVuSans-6e" transform="translate(934.945312 0)"/>
      <use xlink:href="#DejaVuSans-74" transform="translate(998.324219 0)"/>
      <use xlink:href="#DejaVuSans-61" transform="translate(1037.533203 0)"/>
      <use xlink:href="#DejaVuSans-67" transform="translate(1098.8125 0)"/>
      <use xlink:href="#DejaVuSans-65" transform="translate(1162.289062 0)"/>
      <use xlink:href="#DejaVuSans-20" transform="translate(1223.8125 0)"/>
      <use xlink:href="#DejaVuSans-5b" transform="translate(1255.599609 0)"/>
      <use xlink:href="#DejaVuSans-25" transform="translate(1294.613281 0)"/>
      <use xlink:href="#DejaVuSans-5d" transform="translate(1389.632812 0)"/>
     </g>
    </g>
   </g>
   <g id="line2d_27">
    <path d="M 108.604818 297.645197 
L 114.707347 474.354906 
L 117.758612 268.074521 
L 120.809876 291.572779 
L 123.861141 237.896547 
L 126.912405 325.46683 
L 129.96367 254.42304 
L 133.014934 243.347752 
L 136.066199 244.991683 
L 139.117463 249.54718 
L 142.168728 295.681481 
L 145.219992 316.54458 
L 148.271257 241.612244 
L 151.322522 230.313402 
L 154.373786 279.204618 
L 157.425051 237.542381 
L 160.476315 199.733013 
L 163.52758 177.156135 
L 166.578844 167.211309 
L 169.630109 184.536395 
L 172.681373 180.160086 
L 175.732638 213.644064 
L 178.783902 234.084081 
L 181.835167 217.978318 
L 184.886431 228.346548 
L 187.937696 216.100005 
L 190.98896 213.24613 
L 194.040225 196.333018 
L 197.091489 240.599835 
L 200.142754 256.363104 
L 203.194018 246.215854 
L 206.245283 231.194857 
L 209.296548 217.943172 
L 212.347812 243.41793 
L 215.399077 215.686216 
L 218.450341 264.317016 
L 221.501606 290.539968 
L 224.55287 259.958121 
L 227.604135 260.933105 
L 230.655399 226.069831 
L 233.706664 265.399478 
L 236.757928 281.544921 
L 239.809193 306.614504 
L 242.860457 269.081899 
L 245.911722 318.533256 
L 248.962986 344.180295 
L 252.014251 256.704508 
L 255.065515 285.543592 
L 258.11678 289.544418 
L 261.168044 354.852672 
L 264.219309 317.516098 
L 267.270573 313.476551 
L 270.321838 324.107756 
L 273.373103 299.346059 
L 276.424367 270.778231 
L 279.475632 295.349271 
L 282.526896 293.885494 
L 285.578161 272.83648 
L 288.629425 305.485555 
L 291.68069 317.327251 
L 294.731954 293.887216 
L 297.783219 295.151893 
L 300.834483 389.764418 
L 303.885748 368.794199 
L 306.937012 279.036399 
L 309.988277 321.135485 
L 313.039541 300.714076 
L 316.090806 341.774332 
L 319.14207 362.437613 
L 322.193335 326.815673 
L 325.244599 334.260171 
L 328.295864 302.315271 
L 331.347129 290.114196 
L 334.398393 300.719674 
L 337.449658 304.754416 
L 340.500922 299.896226 
L 343.552187 252.347071 
L 346.603451 287.815275 
L 349.654716 216.392994 
L 352.70598 192.678089 
L 358.808509 266.863555 
L 361.859774 262.439882 
L 364.911038 229.959026 
L 367.962303 279.380549 
L 383.218625 269.375116 
L 386.26989 269.386942 
L 389.321154 337.584761 
L 392.372419 277.942248 
L 395.423684 331.957851 
L 407.628742 310.176121 
L 410.680006 327.859647 
L 413.731271 276.980796 
L 435.090122 336.449399 
L 438.141387 366.062982 
L 441.192651 342.454856 
L 444.243916 322.4923 
L 447.29518 259.614743 
L 450.346445 274.664544 
L 453.39771 339.894476 
L 456.448974 318.501528 
L 459.500239 346.798844 
L 462.551503 289.111696 
L 465.602768 323.34737 
L 468.654032 330.592766 
L 480.85909 368.812078 
L 483.910355 374.54849 
L 486.961619 367.675682 
L 490.012884 320.053582 
L 493.064148 424.427336 
L 508.320471 392.731496 
L 541.884381 332.110528 
L 557.140703 353.348373 
L 560.191968 338.211434 
L 566.294497 402.526009 
L 575.44829 339.241907 
L 615.114729 412.356375 
L 715.806459 137.314832 
L 718.857723 127.793585 
L 721.908988 87.388623 
L 724.960252 107.126618 
L 728.011517 112.908438 
L 734.114046 203.92071 
L 737.16531 182.609903 
L 865.31842 115.655105 
L 917.189917 99.098267 
L 920.241182 235.455718 
" clip-path="url(#p9111b20336)" style="fill: none; stroke: #a52a2a; stroke-width: 1.5; stroke-linecap: square"/>
    <defs>
     <path id="m4e6fd57fc1" d="M 0 -3 
L -0.673542 -0.927051 
L -2.85317 -0.927051 
L -1.089814 0.354102 
L -1.763356 2.427051 
L -0 1.145898 
L 1.763356 2.427051 
L 1.089814 0.354102 
L 2.85317 -0.927051 
L 0.673542 -0.927051 
z
" style="stroke: #a52a2a; stroke-linejoin: bevel"/>
    </defs>
    <g clip-path="url(#p9111b20336)">
     <use xlink:href="#m4e6fd57fc1" x="108.604818" y="297.645197" style="fill: #a52a2a; stroke: #a52a2a; stroke-linejoin: bevel"/>
     <use xlink:href="#m4e6fd57fc1" x="114.707347" y="474.354906" style="fill: #a52a2a; stroke: #a52a2a; stroke-linejoin: bevel"/>
     <use xlink:href="#m4e6fd57fc1" x="117.758612" y="268.074521" style="fill: #a52a2a; stroke: #a52a2a; stroke-linejoin: bevel"/>
     <use xlink:href="#m4e6fd57fc1" x="120.809876" y="291.572779" style="fill: #a52a2a; stroke: #a52a2a; stroke-linejoin: bevel"/>
     <use xlink:href="#m4e6fd57fc1" x="123.861141" y="237.896547" style="fill: #a52a2a; stroke: #a52a2a; stroke-linejoin: bevel"/>
     <use xlink:href="#m4e6fd57fc1" x="126.912405" y="325.46683" style="fill: #a52a2a; stroke: #a52a2a; stroke-linejoin: bevel"/>
     <use xlink:href="#m4e6fd57fc1" x="129.96367" y="254.42304" style="fill: #a52a2a; stroke: #a52a2a; stroke-linejoin: bevel"/>
     <use xlink:href="#m4e6fd57fc1" x="133.014934" y="243.347752" style="fill: #a52a2a; stroke: #a52a2a; stroke-linejoin: bevel"/>
     <use xlink:href="#m4e6fd57fc1" x="136.066199" y="244.991683" style="fill: #a52a2a; stroke: #a52a2a; stroke-linejoin: bevel"/>
     <use xlink:href="#m4e6fd57fc1" x="139.117463" y="249.54718" style="fill: #a52a2a; stroke: #a52a2a; stroke-linejoin: bevel"/>
     <use xlink:href="#m4e6fd57fc1" x="142.168728" y="295.681481" style="fill: #a52a2a; stroke: #a52a2a; stroke-linejoin: bevel"/>
     <use xlink:href="#m4e6fd57fc1" x="145.219992" y="316.54458" style="fill: #a52a2a; stroke: #a52a2a; stroke-linejoin: bevel"/>
     <use xlink:href="#m4e6fd57fc1" x="148.271257" y="241.612244" style="fill: #a52a2a; stroke: #a52a2a; stroke-linejoin: bevel"/>
     <use xlink:href="#m4e6fd57fc1" x="151.322522" y="230.313402" style="fill: #a52a2a; stroke: #a52a2a; stroke-linejoin: bevel"/>
     <use xlink:href="#m4e6fd57fc1" x="154.373786" y="279.204618" style="fill: #a52a2a; stroke: #a52a2a; stroke-linejoin: bevel"/>
     <use xlink:href="#m4e6fd57fc1" x="157.425051" y="237.542381" style="fill: #a52a2a; stroke: #a52a2a; stroke-linejoin: bevel"/>
     <use xlink:href="#m4e6fd57fc1" x="160.476315" y="199.733013" style="fill: #a52a2a; stroke: #a52a2a; stroke-linejoin: bevel"/>
     <use xlink:href="#m4e6fd57fc1" x="163.52758" y="177.156135" style="fill: #a52a2a; stroke: #a52a2a; stroke-linejoin: bevel"/>
     <use xlink:href="#m4e6fd57fc1" x="166.578844" y="167.211309" style="fill: #a52a2a; stroke: #a52a2a; stroke-linejoin: bevel"/>
     <use xlink:href="#m4e6fd57fc1" x="169.630109" y="184.536395" style="fill: #a52a2a; stroke: #a52a2a; stroke-linejoin: bevel"/>
     <use xlink:href="#m4e6fd57fc1" x="172.681373" y="180.160086" style="fill: #a52a2a; stroke: #a52a2a; stroke-linejoin: bevel"/>
     <use xlink:href="#m4e6fd57fc1" x="175.732638" y="213.644064" style="fill: #a52a2a; stroke: #a52a2a; stroke-linejoin: bevel"/>
     <use xlink:href="#m4e6fd57fc1" x="178.783902" y="234.084081" style="fill: #a52a2a; stroke: #a52a2a; stroke-linejoin: bevel"/>
     <use xlink:href="#m4e6fd57fc1" x="181.835167" y="217.978318" style="fill: #a52a2a; stroke: #a52a2a; stroke-linejoin: bevel"/>
     <use xlink:href="#m4e6fd57fc1" x="184.886431" y="228.346548" style="fill: #a52a2a; stroke: #a52a2a; stroke-linejoin: bevel"/>
     <use xlink:href="#m4e6fd57fc1" x="187.937696" y="216.100005" style="fill: #a52a2a; stroke: #a52a2a; stroke-linejoin: bevel"/>
     <use xlink:href="#m4e6fd57fc1" x="190.98896" y="213.24613" style="fill: #a52a2a; stroke: #a52a2a; stroke-linejoin: bevel"/>
     <use xlink:href="#m4e6fd57fc1" x="194.040225" y="196.333018" style="fill: #a52a2a; stroke: #a52a2a; stroke-linejoin: bevel"/>
     <use xlink:href="#m4e6fd57fc1" x="197.091489" y="240.599835" style="fill: #a52a2a; stroke: #a52a2a; stroke-linejoin: bevel"/>
     <use xlink:href="#m4e6fd57fc1" x="200.142754" y="256.363104" style="fill: #a52a2a; stroke: #a52a2a; stroke-linejoin: bevel"/>
     <use xlink:href="#m4e6fd57fc1" x="203.194018" y="246.215854" style="fill: #a52a2a; stroke: #a52a2a; stroke-linejoin: bevel"/>
     <use xlink:href="#m4e6fd57fc1" x="206.245283" y="231.194857" style="fill: #a52a2a; stroke: #a52a2a; stroke-linejoin: bevel"/>
     <use xlink:href="#m4e6fd57fc1" x="209.296548" y="217.943172" style="fill: #a52a2a; stroke: #a52a2a; stroke-linejoin: bevel"/>
     <use xlink:href="#m4e6fd57fc1" x="212.347812" y="243.41793" style="fill: #a52a2a; stroke: #a52a2a; stroke-linejoin: bevel"/>
     <use xlink:href="#m4e6fd57fc1" x="215.399077" y="215.686216" style="fill: #a52a2a; stroke: #a52a2a; stroke-linejoin: bevel"/>
     <use xlink:href="#m4e6fd57fc1" x="218.450341" y="264.317016" style="fill: #a52a2a; stroke: #a52a2a; stroke-linejoin: bevel"/>
     <use xlink:href="#m4e6fd57fc1" x="221.501606" y="290.539968" style="fill: #a52a2a; stroke: #a52a2a; stroke-linejoin: bevel"/>
     <use xlink:href="#m4e6fd57fc1" x="224.55287" y="259.958121" style="fill: #a52a2a; stroke: #a52a2a; stroke-linejoin: bevel"/>
     <use xlink:href="#m4e6fd57fc1" x="227.604135" y="260.933105" style="fill: #a52a2a; stroke: #a52a2a; stroke-linejoin: bevel"/>
     <use xlink:href="#m4e6fd57fc1" x="230.655399" y="226.069831" style="fill: #a52a2a; stroke: #a52a2a; stroke-linejoin: bevel"/>
     <use xlink:href="#m4e6fd57fc1" x="233.706664" y="265.399478" style="fill: #a52a2a; stroke: #a52a2a; stroke-linejoin: bevel"/>
     <use xlink:href="#m4e6fd57fc1" x="236.757928" y="281.544921" style="fill: #a52a2a; stroke: #a52a2a; stroke-linejoin: bevel"/>
     <use xlink:href="#m4e6fd57fc1" x="239.809193" y="306.614504" style="fill: #a52a2a; stroke: #a52a2a; stroke-linejoin: bevel"/>
     <use xlink:href="#m4e6fd57fc1" x="242.860457" y="269.081899" style="fill: #a52a2a; stroke: #a52a2a; stroke-linejoin: bevel"/>
     <use xlink:href="#m4e6fd57fc1" x="245.911722" y="318.533256" style="fill: #a52a2a; stroke: #a52a2a; stroke-linejoin: bevel"/>
     <use xlink:href="#m4e6fd57fc1" x="248.962986" y="344.180295" style="fill: #a52a2a; stroke: #a52a2a; stroke-linejoin: bevel"/>
     <use xlink:href="#m4e6fd57fc1" x="252.014251" y="256.704508" style="fill: #a52a2a; stroke: #a52a2a; stroke-linejoin: bevel"/>
     <use xlink:href="#m4e6fd57fc1" x="255.065515" y="285.543592" style="fill: #a52a2a; stroke: #a52a2a; stroke-linejoin: bevel"/>
     <use xlink:href="#m4e6fd57fc1" x="258.11678" y="289.544418" style="fill: #a52a2a; stroke: #a52a2a; stroke-linejoin: bevel"/>
     <use xlink:href="#m4e6fd57fc1" x="261.168044" y="354.852672" style="fill: #a52a2a; stroke: #a52a2a; stroke-linejoin: bevel"/>
     <use xlink:href="#m4e6fd57fc1" x="264.219309" y="317.516098" style="fill: #a52a2a; stroke: #a52a2a; stroke-linejoin: bevel"/>
     <use xlink:href="#m4e6fd57fc1" x="267.270573" y="313.476551" style="fill: #a52a2a; stroke: #a52a2a; stroke-linejoin: bevel"/>
     <use xlink:href="#m4e6fd57fc1" x="270.321838" y="324.107756" style="fill: #a52a2a; stroke: #a52a2a; stroke-linejoin: bevel"/>
     <use xlink:href="#m4e6fd57fc1" x="273.373103" y="299.346059" style="fill: #a52a2a; stroke: #a52a2a; stroke-linejoin: bevel"/>
     <use xlink:href="#m4e6fd57fc1" x="276.424367" y="270.778231" style="fill: #a52a2a; stroke: #a52a2a; stroke-linejoin: bevel"/>
     <use xlink:href="#m4e6fd57fc1" x="279.475632" y="295.349271" style="fill: #a52a2a; stroke: #a52a2a; stroke-linejoin: bevel"/>
     <use xlink:href="#m4e6fd57fc1" x="282.526896" y="293.885494" style="fill: #a52a2a; stroke: #a52a2a; stroke-linejoin: bevel"/>
     <use xlink:href="#m4e6fd57fc1" x="285.578161" y="272.83648" style="fill: #a52a2a; stroke: #a52a2a; stroke-linejoin: bevel"/>
     <use xlink:href="#m4e6fd57fc1" x="288.629425" y="305.485555" style="fill: #a52a2a; stroke: #a52a2a; stroke-linejoin: bevel"/>
     <use xlink:href="#m4e6fd57fc1" x="291.68069" y="317.327251" style="fill: #a52a2a; stroke: #a52a2a; stroke-linejoin: bevel"/>
     <use xlink:href="#m4e6fd57fc1" x="294.731954" y="293.887216" style="fill: #a52a2a; stroke: #a52a2a; stroke-linejoin: bevel"/>
     <use xlink:href="#m4e6fd57fc1" x="297.783219" y="295.151893" style="fill: #a52a2a; stroke: #a52a2a; stroke-linejoin: bevel"/>
     <use xlink:href="#m4e6fd57fc1" x="300.834483" y="389.764418" style="fill: #a52a2a; stroke: #a52a2a; stroke-linejoin: bevel"/>
     <use xlink:href="#m4e6fd57fc1" x="303.885748" y="368.794199" style="fill: #a52a2a; stroke: #a52a2a; stroke-linejoin: bevel"/>
     <use xlink:href="#m4e6fd57fc1" x="306.937012" y="279.036399" style="fill: #a52a2a; stroke: #a52a2a; stroke-linejoin: bevel"/>
     <use xlink:href="#m4e6fd57fc1" x="309.988277" y="321.135485" style="fill: #a52a2a; stroke: #a52a2a; stroke-linejoin: bevel"/>
     <use xlink:href="#m4e6fd57fc1" x="313.039541" y="300.714076" style="fill: #a52a2a; stroke: #a52a2a; stroke-linejoin: bevel"/>
     <use xlink:href="#m4e6fd57fc1" x="316.090806" y="341.774332" style="fill: #a52a2a; stroke: #a52a2a; stroke-linejoin: bevel"/>
     <use xlink:href="#m4e6fd57fc1" x="319.14207" y="362.437613" style="fill: #a52a2a; stroke: #a52a2a; stroke-linejoin: bevel"/>
     <use xlink:href="#m4e6fd57fc1" x="322.193335" y="326.815673" style="fill: #a52a2a; stroke: #a52a2a; stroke-linejoin: bevel"/>
     <use xlink:href="#m4e6fd57fc1" x="325.244599" y="334.260171" style="fill: #a52a2a; stroke: #a52a2a; stroke-linejoin: bevel"/>
     <use xlink:href="#m4e6fd57fc1" x="328.295864" y="302.315271" style="fill: #a52a2a; stroke: #a52a2a; stroke-linejoin: bevel"/>
     <use xlink:href="#m4e6fd57fc1" x="331.347129" y="290.114196" style="fill: #a52a2a; stroke: #a52a2a; stroke-linejoin: bevel"/>
     <use xlink:href="#m4e6fd57fc1" x="334.398393" y="300.719674" style="fill: #a52a2a; stroke: #a52a2a; stroke-linejoin: bevel"/>
     <use xlink:href="#m4e6fd57fc1" x="337.449658" y="304.754416" style="fill: #a52a2a; stroke: #a52a2a; stroke-linejoin: bevel"/>
     <use xlink:href="#m4e6fd57fc1" x="340.500922" y="299.896226" style="fill: #a52a2a; stroke: #a52a2a; stroke-linejoin: bevel"/>
     <use xlink:href="#m4e6fd57fc1" x="343.552187" y="252.347071" style="fill: #a52a2a; stroke: #a52a2a; stroke-linejoin: bevel"/>
     <use xlink:href="#m4e6fd57fc1" x="346.603451" y="287.815275" style="fill: #a52a2a; stroke: #a52a2a; stroke-linejoin: bevel"/>
     <use xlink:href="#m4e6fd57fc1" x="349.654716" y="216.392994" style="fill: #a52a2a; stroke: #a52a2a; stroke-linejoin: bevel"/>
     <use xlink:href="#m4e6fd57fc1" x="352.70598" y="192.678089" style="fill: #a52a2a; stroke: #a52a2a; stroke-linejoin: bevel"/>
     <use xlink:href="#m4e6fd57fc1" x="358.808509" y="266.863555" style="fill: #a52a2a; stroke: #a52a2a; stroke-linejoin: bevel"/>
     <use xlink:href="#m4e6fd57fc1" x="361.859774" y="262.439882" style="fill: #a52a2a; stroke: #a52a2a; stroke-linejoin: bevel"/>
     <use xlink:href="#m4e6fd57fc1" x="364.911038" y="229.959026" style="fill: #a52a2a; stroke: #a52a2a; stroke-linejoin: bevel"/>
     <use xlink:href="#m4e6fd57fc1" x="367.962303" y="279.380549" style="fill: #a52a2a; stroke: #a52a2a; stroke-linejoin: bevel"/>
     <use xlink:href="#m4e6fd57fc1" x="383.218625" y="269.375116" style="fill: #a52a2a; stroke: #a52a2a; stroke-linejoin: bevel"/>
     <use xlink:href="#m4e6fd57fc1" x="386.26989" y="269.386942" style="fill: #a52a2a; stroke: #a52a2a; stroke-linejoin: bevel"/>
     <use xlink:href="#m4e6fd57fc1" x="389.321154" y="337.584761" style="fill: #a52a2a; stroke: #a52a2a; stroke-linejoin: bevel"/>
     <use xlink:href="#m4e6fd57fc1" x="392.372419" y="277.942248" style="fill: #a52a2a; stroke: #a52a2a; stroke-linejoin: bevel"/>
     <use xlink:href="#m4e6fd57fc1" x="395.423684" y="331.957851" style="fill: #a52a2a; stroke: #a52a2a; stroke-linejoin: bevel"/>
     <use xlink:href="#m4e6fd57fc1" x="407.628742" y="310.176121" style="fill: #a52a2a; stroke: #a52a2a; stroke-linejoin: bevel"/>
     <use xlink:href="#m4e6fd57fc1" x="410.680006" y="327.859647" style="fill: #a52a2a; stroke: #a52a2a; stroke-linejoin: bevel"/>
     <use xlink:href="#m4e6fd57fc1" x="413.731271" y="276.980796" style="fill: #a52a2a; stroke: #a52a2a; stroke-linejoin: bevel"/>
     <use xlink:href="#m4e6fd57fc1" x="435.090122" y="336.449399" style="fill: #a52a2a; stroke: #a52a2a; stroke-linejoin: bevel"/>
     <use xlink:href="#m4e6fd57fc1" x="438.141387" y="366.062982" style="fill: #a52a2a; stroke: #a52a2a; stroke-linejoin: bevel"/>
     <use xlink:href="#m4e6fd57fc1" x="441.192651" y="342.454856" style="fill: #a52a2a; stroke: #a52a2a; stroke-linejoin: bevel"/>
     <use xlink:href="#m4e6fd57fc1" x="444.243916" y="322.4923" style="fill: #a52a2a; stroke: #a52a2a; stroke-linejoin: bevel"/>
     <use xlink:href="#m4e6fd57fc1" x="447.29518" y="259.614743" style="fill: #a52a2a; stroke: #a52a2a; stroke-linejoin: bevel"/>
     <use xlink:href="#m4e6fd57fc1" x="450.346445" y="274.664544" style="fill: #a52a2a; stroke: #a52a2a; stroke-linejoin: bevel"/>
     <use xlink:href="#m4e6fd57fc1" x="453.39771" y="339.894476" style="fill: #a52a2a; stroke: #a52a2a; stroke-linejoin: bevel"/>
     <use xlink:href="#m4e6fd57fc1" x="456.448974" y="318.501528" style="fill: #a52a2a; stroke: #a52a2a; stroke-linejoin: bevel"/>
     <use xlink:href="#m4e6fd57fc1" x="459.500239" y="346.798844" style="fill: #a52a2a; stroke: #a52a2a; stroke-linejoin: bevel"/>
     <use xlink:href="#m4e6fd57fc1" x="462.551503" y="289.111696" style="fill: #a52a2a; stroke: #a52a2a; stroke-linejoin: bevel"/>
     <use xlink:href="#m4e6fd57fc1" x="465.602768" y="323.34737" style="fill: #a52a2a; stroke: #a52a2a; stroke-linejoin: bevel"/>
     <use xlink:href="#m4e6fd57fc1" x="468.654032" y="330.592766" style="fill: #a52a2a; stroke: #a52a2a; stroke-linejoin: bevel"/>
     <use xlink:href="#m4e6fd57fc1" x="480.85909" y="368.812078" style="fill: #a52a2a; stroke: #a52a2a; stroke-linejoin: bevel"/>
     <use xlink:href="#m4e6fd57fc1" x="483.910355" y="374.54849" style="fill: #a52a2a; stroke: #a52a2a; stroke-linejoin: bevel"/>
     <use xlink:href="#m4e6fd57fc1" x="486.961619" y="367.675682" style="fill: #a52a2a; stroke: #a52a2a; stroke-linejoin: bevel"/>
     <use xlink:href="#m4e6fd57fc1" x="490.012884" y="320.053582" style="fill: #a52a2a; stroke: #a52a2a; stroke-linejoin: bevel"/>
     <use xlink:href="#m4e6fd57fc1" x="493.064148" y="424.427336" style="fill: #a52a2a; stroke: #a52a2a; stroke-linejoin: bevel"/>
     <use xlink:href="#m4e6fd57fc1" x="508.320471" y="392.731496" style="fill: #a52a2a; stroke: #a52a2a; stroke-linejoin: bevel"/>
     <use xlink:href="#m4e6fd57fc1" x="541.884381" y="332.110528" style="fill: #a52a2a; stroke: #a52a2a; stroke-linejoin: bevel"/>
     <use xlink:href="#m4e6fd57fc1" x="557.140703" y="353.348373" style="fill: #a52a2a; stroke: #a52a2a; stroke-linejoin: bevel"/>
     <use xlink:href="#m4e6fd57fc1" x="560.191968" y="338.211434" style="fill: #a52a2a; stroke: #a52a2a; stroke-linejoin: bevel"/>
     <use xlink:href="#m4e6fd57fc1" x="566.294497" y="402.526009" style="fill: #a52a2a; stroke: #a52a2a; stroke-linejoin: bevel"/>
     <use xlink:href="#m4e6fd57fc1" x="575.44829" y="339.241907" style="fill: #a52a2a; stroke: #a52a2a; stroke-linejoin: bevel"/>
     <use xlink:href="#m4e6fd57fc1" x="615.114729" y="412.356375" style="fill: #a52a2a; stroke: #a52a2a; stroke-linejoin: bevel"/>
     <use xlink:href="#m4e6fd57fc1" x="715.806459" y="137.314832" style="fill: #a52a2a; stroke: #a52a2a; stroke-linejoin: bevel"/>
     <use xlink:href="#m4e6fd57fc1" x="718.857723" y="127.793585" style="fill: #a52a2a; stroke: #a52a2a; stroke-linejoin: bevel"/>
     <use xlink:href="#m4e6fd57fc1" x="721.908988" y="87.388623" style="fill: #a52a2a; stroke: #a52a2a; stroke-linejoin: bevel"/>
     <use xlink:href="#m4e6fd57fc1" x="724.960252" y="107.126618" style="fill: #a52a2a; stroke: #a52a2a; stroke-linejoin: bevel"/>
     <use xlink:href="#m4e6fd57fc1" x="728.011517" y="112.908438" style="fill: #a52a2a; stroke: #a52a2a; stroke-linejoin: bevel"/>
     <use xlink:href="#m4e6fd57fc1" x="734.114046" y="203.92071" style="fill: #a52a2a; stroke: #a52a2a; stroke-linejoin: bevel"/>
     <use xlink:href="#m4e6fd57fc1" x="737.16531" y="182.609903" style="fill: #a52a2a; stroke: #a52a2a; stroke-linejoin: bevel"/>
     <use xlink:href="#m4e6fd57fc1" x="865.31842" y="115.655105" style="fill: #a52a2a; stroke: #a52a2a; stroke-linejoin: bevel"/>
     <use xlink:href="#m4e6fd57fc1" x="917.189917" y="99.098267" style="fill: #a52a2a; stroke: #a52a2a; stroke-linejoin: bevel"/>
     <use xlink:href="#m4e6fd57fc1" x="920.241182" y="235.455718" style="fill: #a52a2a; stroke: #a52a2a; stroke-linejoin: bevel"/>
    </g>
   </g>
   <g id="patch_3">
    <path d="M 68.023 622.6035 
L 68.023 35.0835 
" style="fill: none; stroke: #000000; stroke-width: 0.8; stroke-linejoin: miter; stroke-linecap: square"/>
   </g>
   <g id="patch_4">
    <path d="M 960.823 622.6035 
L 960.823 35.0835 
" style="fill: none; stroke: #000000; stroke-width: 0.8; stroke-linejoin: miter; stroke-linecap: square"/>
   </g>
   <g id="patch_5">
    <path d="M 68.023 622.6035 
L 960.823 622.6035 
" style="fill: none; stroke: #000000; stroke-width: 0.8; stroke-linejoin: miter; stroke-linecap: square"/>
   </g>
   <g id="patch_6">
    <path d="M 68.023 35.0835 
L 960.823 35.0835 
" style="fill: none; stroke: #000000; stroke-width: 0.8; stroke-linejoin: miter; stroke-linecap: square"/>
   </g>
   <g id="text_15">
    <!-- Body Muscle Mass Percentage -->
    <g transform="translate(297.262 29.0835) scale(0.288 -0.288)">
     <defs>
      <path id="DejaVuSans-42" d="M 1259 2228 
L 1259 519 
L 2272 519 
Q 2781 519 3026 730 
Q 3272 941 3272 1375 
Q 3272 1813 3026 2020 
Q 2781 2228 2272 2228 
L 1259 2228 
z
M 1259 4147 
L 1259 2741 
L 2194 2741 
Q 2656 2741 2882 2914 
Q 3109 3088 3109 3444 
Q 3109 3797 2882 3972 
Q 2656 4147 2194 4147 
L 1259 4147 
z
M 628 4666 
L 2241 4666 
Q 2963 4666 3353 4366 
Q 3744 4066 3744 3513 
Q 3744 3084 3544 2831 
Q 3344 2578 2956 2516 
Q 3422 2416 3680 2098 
Q 3938 1781 3938 1306 
Q 3938 681 3513 340 
Q 3088 0 2303 0 
L 628 0 
L 628 4666 
z
" transform="scale(0.015625)"/>
      <path id="DejaVuSans-6f" d="M 1959 3097 
Q 1497 3097 1228 2736 
Q 959 2375 959 1747 
Q 959 1119 1226 758 
Q 1494 397 1959 397 
Q 2419 397 2687 759 
Q 2956 1122 2956 1747 
Q 2956 2369 2687 2733 
Q 2419 3097 1959 3097 
z
M 1959 3584 
Q 2709 3584 3137 3096 
Q 3566 2609 3566 1747 
Q 3566 888 3137 398 
Q 2709 -91 1959 -91 
Q 1206 -91 779 398 
Q 353 888 353 1747 
Q 353 2609 779 3096 
Q 1206 3584 1959 3584 
z
" transform="scale(0.015625)"/>
      <path id="DejaVuSans-64" d="M 2906 2969 
L 2906 4863 
L 3481 4863 
L 3481 0 
L 2906 0 
L 2906 525 
Q 2725 213 2448 61 
Q 2172 -91 1784 -91 
Q 1150 -91 751 415 
Q 353 922 353 1747 
Q 353 2572 751 3078 
Q 1150 3584 1784 3584 
Q 2172 3584 2448 3432 
Q 2725 3281 2906 2969 
z
M 947 1747 
Q 947 1113 1208 752 
Q 1469 391 1925 391 
Q 2381 391 2643 752 
Q 2906 1113 2906 1747 
Q 2906 2381 2643 2742 
Q 2381 3103 1925 3103 
Q 1469 3103 1208 2742 
Q 947 2381 947 1747 
z
" transform="scale(0.015625)"/>
      <path id="DejaVuSans-79" d="M 2059 -325 
Q 1816 -950 1584 -1140 
Q 1353 -1331 966 -1331 
L 506 -1331 
L 506 -850 
L 844 -850 
Q 1081 -850 1212 -737 
Q 1344 -625 1503 -206 
L 1606 56 
L 191 3500 
L 800 3500 
L 1894 763 
L 2988 3500 
L 3597 3500 
L 2059 -325 
z
" transform="scale(0.015625)"/>
     </defs>
     <use xlink:href="#DejaVuSans-42"/>
     <use xlink:href="#DejaVuSans-6f" transform="translate(68.603516 0)"/>
     <use xlink:href="#DejaVuSans-64" transform="translate(129.785156 0)"/>
     <use xlink:href="#DejaVuSans-79" transform="translate(193.261719 0)"/>
     <use xlink:href="#DejaVuSans-20" transform="translate(252.441406 0)"/>
     <use xlink:href="#DejaVuSans-4d" transform="translate(284.228516 0)"/>
     <use xlink:href="#DejaVuSans-75" transform="translate(370.507812 0)"/>
     <use xlink:href="#DejaVuSans-73" transform="translate(433.886719 0)"/>
     <use xlink:href="#DejaVuSans-63" transform="translate(485.986328 0)"/>
     <use xlink:href="#DejaVuSans-6c" transform="translate(540.966797 0)"/>
     <use xlink:href="#DejaVuSans-65" transform="translate(568.75 0)"/>
     <use xlink:href="#DejaVuSans-20" transform="translate(630.273438 0)"/>
     <use xlink:href="#DejaVuSans-4d" transform="translate(662.060547 0)"/>
     <use xlink:href="#DejaVuSans-61" transform="translate(748.339844 0)"/>
     <use xlink:href="#DejaVuSans-73" transform="translate(809.619141 0)"/>
     <use xlink:href="#DejaVuSans-73" transform="translate(861.71875 0)"/>
     <use xlink:href="#DejaVuSans-20" transform="translate(913.818359 0)"/>
     <use xlink:href="#DejaVuSans-50" transform="translate(945.605469 0)"/>
     <use xlink:href="#DejaVuSans-65" transform="translate(1002.283203 0)"/>
     <use xlink:href="#DejaVuSans-72" transform="translate(1063.806641 0)"/>
     <use xlink:href="#DejaVuSans-63" transform="translate(1102.669922 0)"/>
     <use xlink:href="#DejaVuSans-65" transform="translate(1157.650391 0)"/>
     <use xlink:href="#DejaVuSans-6e" transform="translate(1219.173828 0)"/>
     <use xlink:href="#DejaVuSans-74" transform="translate(1282.552734 0)"/>
     <use xlink:href="#DejaVuSans-61" transform="translate(1321.761719 0)"/>
     <use xlink:href="#DejaVuSans-67" transform="translate(1383.041016 0)"/>
     <use xlink:href="#DejaVuSans-65" transform="translate(1446.517578 0)"/>
    </g>
   </g>
  </g>
 </g>
 <defs>
  <clipPath id="p9111b20336">
   <rect x="68.023" y="35.0835" width="892.8" height="587.52"/>
  </clipPath>
 </defs>
</svg>
