<?xml version="1.0" encoding="utf-8" standalone="no"?>
<!DOCTYPE svg PUBLIC "-//W3C//DTD SVG 1.1//EN"
  "http://www.w3.org/Graphics/SVG/1.1/DTD/svg11.dtd">
<svg xmlns:xlink="http://www.w3.org/1999/xlink" width="980.748pt" height="700.466504pt" viewBox="0 0 980.748 700.466504" xmlns="http://www.w3.org/2000/svg" version="1.1">
 <metadata>
  <rdf:RDF xmlns:dc="http://purl.org/dc/elements/1.1/" xmlns:cc="http://creativecommons.org/ns#" xmlns:rdf="http://www.w3.org/1999/02/22-rdf-syntax-ns#">
   <cc:Work>
    <dc:type rdf:resource="http://purl.org/dc/dcmitype/StillImage"/>
    <dc:date>2024-12-25T19:17:05.042780</dc:date>
    <dc:format>image/svg+xml</dc:format>
    <dc:creator>
     <cc:Agent>
      <dc:title>Matplotlib v3.10.0, https://matplotlib.org/</dc:title>
     </cc:Agent>
    </dc:creator>
   </cc:Work>
  </rdf:RDF>
 </metadata>
 <defs>
  <style type="text/css">*{stroke-linejoin: round; stroke-linecap: butt}</style>
 </defs>
 <g id="figure_1">
  <g id="patch_1">
   <path d="M 0 700.466504 
L 980.748 700.466504 
L 980.748 0 
L 0 0 
z
" style="fill: #ffffff"/>
  </g>
  <g id="axes_1">
   <g id="patch_2">
    <path d="M 80.748 622.6035 
L 973.548 622.6035 
L 973.548 35.0835 
L 80.748 35.0835 
z
" style="fill: #ffffff"/>
   </g>
   <g id="FillBetweenPolyCollection_1">
    <defs>
     <path id="me9b0da1337" d="M 121.329818 -328.525164 
L 121.329818 -278.663537 
L 127.875273 -104.568459 
L 131.148 -288.124165 
L 134.420727 -302.972567 
L 137.693455 -338.434205 
L 140.966182 -268.348626 
L 144.238909 -301.291243 
L 147.511636 -300.239314 
L 150.784364 -303.566791 
L 154.057091 -345.669306 
L 157.329818 -299.106615 
L 160.602545 -266.255371 
L 163.875273 -339.191055 
L 167.148 -327.299183 
L 170.420727 -289.5031 
L 173.693455 -312.942364 
L 176.966182 -325.763123 
L 180.238909 -346.698745 
L 183.511636 -366.92548 
L 186.784364 -354.329899 
L 190.057091 -352.196344 
L 193.329818 -332.708898 
L 196.602545 -310.454926 
L 199.875273 -308.343391 
L 203.148 -318.758686 
L 206.420727 -315.779272 
L 209.693455 -339.192624 
L 212.966182 -381.98555 
L 216.238909 -340.656745 
L 219.511636 -319.913044 
L 222.784364 -350.194162 
L 226.057091 -369.551947 
L 229.329818 -366.089856 
L 232.602545 -392.831586 
L 235.875273 -415.366508 
L 239.148 -396.115958 
L 242.420727 -367.126704 
L 245.693455 -388.534174 
L 248.966182 -396.821532 
L 252.238909 -414.092816 
L 255.511636 -387.577818 
L 258.784364 -363.440573 
L 262.057091 -361.186031 
L 265.329818 -407.596312 
L 268.602545 -354.168085 
L 271.875273 -343.306027 
L 275.148 -401.060383 
L 278.420727 -420.930001 
L 281.693455 -438.609169 
L 284.966182 -397.863194 
L 288.238909 -416.956078 
L 291.511636 -388.428322 
L 294.784364 -429.893084 
L 298.057091 -454.126585 
L 301.329818 -461.115024 
L 304.602545 -443.183973 
L 307.875273 -436.120387 
L 311.148 -469.411869 
L 314.420727 -442.350949 
L 317.693455 -431.799638 
L 320.966182 -437.181868 
L 324.238909 -440.799619 
L 327.511636 -381.98555 
L 330.784364 -407.948518 
L 334.057091 -467.8223 
L 337.329818 -442.817331 
L 340.602545 -455.945468 
L 343.875273 -394.827656 
L 347.148 -406.623876 
L 350.420727 -413.247082 
L 353.693455 -407.576754 
L 356.966182 -429.894196 
L 360.238909 -453.516175 
L 363.511636 -421.172863 
L 366.784364 -427.553207 
L 370.057091 -437.065315 
L 373.329818 -446.667121 
L 376.602545 -433.646557 
L 379.875273 -440.799619 
L 383.148 -465.730433 
L 389.693455 -404.239522 
L 392.966182 -392.062845 
L 396.238909 -425.860364 
L 399.511636 -415.366508 
L 415.875273 -412.187369 
L 419.148 -407.418661 
L 422.420727 -341.142267 
L 425.693455 -405.299235 
L 428.966182 -364.500286 
L 442.057091 -362.910717 
L 445.329818 -356.552439 
L 448.602545 -397.881245 
L 471.511636 -360.700076 
L 474.784364 -355.757655 
L 478.057091 -354.433013 
L 481.329818 -353.496215 
L 484.602545 -411.392585 
L 487.875273 -351.783731 
L 491.148 -345.425453 
L 494.420727 -356.552439 
L 497.693455 -316.813203 
L 500.966182 -329.596399 
L 504.238909 -296.148801 
L 507.511636 -297.208514 
L 520.602545 -316.018419 
L 523.875273 -317.34306 
L 527.148 -316.283347 
L 530.420727 -361.508488 
L 533.693455 -296.148801 
L 550.057091 -334.298467 
L 586.057091 -359.731578 
L 602.420727 -310.454926 
L 605.693455 -310.454926 
L 612.238909 -296.148801 
L 622.057091 -316.813203 
L 664.602545 -278.663537 
L 772.602545 -551.009767 
L 775.875273 -524.084502 
L 779.148 -576.868286 
L 782.420727 -552.06948 
L 785.693455 -558.427757 
L 792.238909 -453.516175 
L 795.511636 -517.098952 
L 932.966182 -604.338925 
L 932.966182 -638.67755 
L 932.966182 -638.67755 
L 795.511636 -566.96058 
L 792.238909 -503.377802 
L 785.693455 -608.289385 
L 782.420727 -601.931107 
L 779.148 -615.281967 
L 775.875273 -612.430821 
L 772.602545 -600.871394 
L 664.602545 -328.525164 
L 622.057091 -366.674831 
L 612.238909 -346.010428 
L 605.693455 -360.316553 
L 602.420727 -360.316553 
L 586.057091 -409.593206 
L 550.057091 -384.160095 
L 533.693455 -346.010428 
L 530.420727 -400.663233 
L 527.148 -366.144974 
L 523.875273 -367.204687 
L 520.602545 -365.880046 
L 507.511636 -347.070141 
L 504.238909 -346.010428 
L 500.966182 -444.497093 
L 497.693455 -366.674831 
L 494.420727 -406.414067 
L 491.148 -395.287081 
L 487.875273 -401.645358 
L 484.602545 -461.254212 
L 481.329818 -392.779812 
L 478.057091 -404.294641 
L 474.784364 -405.619282 
L 471.511636 -392.729013 
L 448.602545 -447.742872 
L 445.329818 -406.414067 
L 442.057091 -412.772344 
L 428.966182 -414.361914 
L 425.693455 -455.160863 
L 422.420727 -417.850316 
L 419.148 -457.280289 
L 415.875273 -462.048997 
L 399.511636 -465.228136 
L 396.238909 -479.637534 
L 392.966182 -454.832927 
L 389.693455 -454.10115 
L 383.148 -494.342683 
L 379.875273 -490.661247 
L 376.602545 -483.508184 
L 373.329818 -495.390874 
L 370.057091 -461.014593 
L 366.784364 -477.414835 
L 363.511636 -472.138336 
L 360.238909 -503.377802 
L 356.966182 -496.268105 
L 353.693455 -485.734446 
L 350.420727 -463.10871 
L 347.148 -456.485504 
L 343.875273 -510.405314 
L 340.602545 -511.394251 
L 337.329818 -490.551018 
L 334.057091 -517.683927 
L 330.784364 -457.810145 
L 327.511636 -431.847178 
L 324.238909 -490.661247 
L 320.966182 -476.793734 
L 317.693455 -459.921992 
L 314.420727 -471.942567 
L 311.148 -519.273496 
L 307.875273 -511.872001 
L 304.602545 -493.045601 
L 301.329818 -536.048045 
L 298.057091 -510.94232 
L 294.784364 -483.552662 
L 291.511636 -469.117566 
L 288.238909 -466.817705 
L 284.966182 -428.686089 
L 281.693455 -451.522892 
L 278.420727 -470.791629 
L 275.148 -450.922011 
L 271.875273 -393.167655 
L 268.602545 -404.029713 
L 265.329818 -432.464312 
L 262.057091 -397.806551 
L 258.784364 -413.302201 
L 255.511636 -445.329743 
L 252.238909 -454.580057 
L 248.966182 -446.683159 
L 245.693455 -459.633253 
L 242.420727 -433.989469 
L 239.148 -429.638541 
L 235.875273 -465.228136 
L 232.602545 -419.093659 
L 229.329818 -415.951483 
L 226.057091 -409.310253 
L 222.784364 -400.055789 
L 219.511636 -383.285651 
L 216.238909 -390.518372 
L 212.966182 -431.847178 
L 209.693455 -414.236465 
L 206.420727 -394.731443 
L 203.148 -373.47198 
L 199.875273 -388.655984 
L 196.602545 -360.316553 
L 193.329818 -382.570525 
L 190.057091 -367.851787 
L 186.784364 -364.128663 
L 183.511636 -372.197485 
L 180.238909 -377.482267 
L 176.966182 -388.456587 
L 173.693455 -368.161316 
L 170.420727 -340.734358 
L 167.148 -378.442823 
L 163.875273 -356.21875 
L 160.602545 -305.962803 
L 157.329818 -353.861687 
L 154.057091 -381.796816 
L 150.784364 -353.428419 
L 147.511636 -343.509484 
L 144.238909 -336.629135 
L 140.966182 -294.332131 
L 137.693455 -348.232969 
L 134.420727 -313.753551 
L 131.148 -333.14358 
L 127.875273 -253.057842 
L 121.329818 -328.525164 
z
" style="stroke: #ff0000; stroke-opacity: 0.2"/>
    </defs>
    <g clip-path="url(#pf4d28539fa)">
     <use xlink:href="#me9b0da1337" x="0" y="700.466504" style="fill: #ff0000; fill-opacity: 0.2; stroke: #ff0000; stroke-opacity: 0.2"/>
    </g>
   </g>
   <g id="matplotlib.axis_1">
    <g id="xtick_1">
     <g id="line2d_1">
      <path d="M 124.602545 622.6035 
L 124.602545 35.0835 
" clip-path="url(#pf4d28539fa)" style="fill: none; stroke: #a5a391; stroke-opacity: 0.3; stroke-width: 0.8; stroke-linecap: square"/>
     </g>
     <g id="line2d_2">
      <defs>
       <path id="mfcde939553" d="M 0 0 
L 0 -3.5 
" style="stroke: #000000; stroke-width: 0.8"/>
      </defs>
      <g>
       <use xlink:href="#mfcde939553" x="124.602545" y="622.6035" style="stroke: #000000; stroke-width: 0.8"/>
      </g>
     </g>
     <g id="text_1">
      <!-- Jan 01, 20 -->
      <g transform="translate(35.227497 689.66438) rotate(-30) scale(0.2 -0.2)">
       <defs>
        <path id="DejaVuSans-4a" d="M 628 4666 
L 1259 4666 
L 1259 325 
Q 1259 -519 939 -900 
Q 619 -1281 -91 -1281 
L -331 -1281 
L -331 -750 
L -134 -750 
Q 284 -750 456 -515 
Q 628 -281 628 325 
L 628 4666 
z
" transform="scale(0.015625)"/>
        <path id="DejaVuSans-61" d="M 2194 1759 
Q 1497 1759 1228 1600 
Q 959 1441 959 1056 
Q 959 750 1161 570 
Q 1363 391 1709 391 
Q 2188 391 2477 730 
Q 2766 1069 2766 1631 
L 2766 1759 
L 2194 1759 
z
M 3341 1997 
L 3341 0 
L 2766 0 
L 2766 531 
Q 2569 213 2275 61 
Q 1981 -91 1556 -91 
Q 1019 -91 701 211 
Q 384 513 384 1019 
Q 384 1609 779 1909 
Q 1175 2209 1959 2209 
L 2766 2209 
L 2766 2266 
Q 2766 2663 2505 2880 
Q 2244 3097 1772 3097 
Q 1472 3097 1187 3025 
Q 903 2953 641 2809 
L 641 3341 
Q 956 3463 1253 3523 
Q 1550 3584 1831 3584 
Q 2591 3584 2966 3190 
Q 3341 2797 3341 1997 
z
" transform="scale(0.015625)"/>
        <path id="DejaVuSans-6e" d="M 3513 2113 
L 3513 0 
L 2938 0 
L 2938 2094 
Q 2938 2591 2744 2837 
Q 2550 3084 2163 3084 
Q 1697 3084 1428 2787 
Q 1159 2491 1159 1978 
L 1159 0 
L 581 0 
L 581 3500 
L 1159 3500 
L 1159 2956 
Q 1366 3272 1645 3428 
Q 1925 3584 2291 3584 
Q 2894 3584 3203 3211 
Q 3513 2838 3513 2113 
z
" transform="scale(0.015625)"/>
        <path id="DejaVuSans-20" transform="scale(0.015625)"/>
        <path id="DejaVuSans-30" d="M 2034 4250 
Q 1547 4250 1301 3770 
Q 1056 3291 1056 2328 
Q 1056 1369 1301 889 
Q 1547 409 2034 409 
Q 2525 409 2770 889 
Q 3016 1369 3016 2328 
Q 3016 3291 2770 3770 
Q 2525 4250 2034 4250 
z
M 2034 4750 
Q 2819 4750 3233 4129 
Q 3647 3509 3647 2328 
Q 3647 1150 3233 529 
Q 2819 -91 2034 -91 
Q 1250 -91 836 529 
Q 422 1150 422 2328 
Q 422 3509 836 4129 
Q 1250 4750 2034 4750 
z
" transform="scale(0.015625)"/>
        <path id="DejaVuSans-31" d="M 794 531 
L 1825 531 
L 1825 4091 
L 703 3866 
L 703 4441 
L 1819 4666 
L 2450 4666 
L 2450 531 
L 3481 531 
L 3481 0 
L 794 0 
L 794 531 
z
" transform="scale(0.015625)"/>
        <path id="DejaVuSans-2c" d="M 750 794 
L 1409 794 
L 1409 256 
L 897 -744 
L 494 -744 
L 750 256 
L 750 794 
z
" transform="scale(0.015625)"/>
        <path id="DejaVuSans-32" d="M 1228 531 
L 3431 531 
L 3431 0 
L 469 0 
L 469 531 
Q 828 903 1448 1529 
Q 2069 2156 2228 2338 
Q 2531 2678 2651 2914 
Q 2772 3150 2772 3378 
Q 2772 3750 2511 3984 
Q 2250 4219 1831 4219 
Q 1534 4219 1204 4116 
Q 875 4013 500 3803 
L 500 4441 
Q 881 4594 1212 4672 
Q 1544 4750 1819 4750 
Q 2544 4750 2975 4387 
Q 3406 4025 3406 3419 
Q 3406 3131 3298 2873 
Q 3191 2616 2906 2266 
Q 2828 2175 2409 1742 
Q 1991 1309 1228 531 
z
" transform="scale(0.015625)"/>
       </defs>
       <use xlink:href="#DejaVuSans-4a"/>
       <use xlink:href="#DejaVuSans-61" transform="translate(29.492188 0)"/>
       <use xlink:href="#DejaVuSans-6e" transform="translate(90.771484 0)"/>
       <use xlink:href="#DejaVuSans-20" transform="translate(154.150391 0)"/>
       <use xlink:href="#DejaVuSans-30" transform="translate(185.9375 0)"/>
       <use xlink:href="#DejaVuSans-31" transform="translate(249.560547 0)"/>
       <use xlink:href="#DejaVuSans-2c" transform="translate(313.183594 0)"/>
       <use xlink:href="#DejaVuSans-20" transform="translate(344.970703 0)"/>
       <use xlink:href="#DejaVuSans-32" transform="translate(376.757812 0)"/>
       <use xlink:href="#DejaVuSans-30" transform="translate(440.380859 0)"/>
      </g>
     </g>
    </g>
    <g id="xtick_2">
     <g id="line2d_3">
      <path d="M 295.719429 622.6035 
L 295.719429 35.0835 
" clip-path="url(#pf4d28539fa)" style="fill: none; stroke: #a5a391; stroke-opacity: 0.3; stroke-width: 0.8; stroke-linecap: square"/>
     </g>
     <g id="line2d_4">
      <g>
       <use xlink:href="#mfcde939553" x="295.719429" y="622.6035" style="stroke: #000000; stroke-width: 0.8"/>
      </g>
     </g>
     <g id="text_2">
      <!-- Jan 01, 21 -->
      <g transform="translate(206.34438 689.66438) rotate(-30) scale(0.2 -0.2)">
       <use xlink:href="#DejaVuSans-4a"/>
       <use xlink:href="#DejaVuSans-61" transform="translate(29.492188 0)"/>
       <use xlink:href="#DejaVuSans-6e" transform="translate(90.771484 0)"/>
       <use xlink:href="#DejaVuSans-20" transform="translate(154.150391 0)"/>
       <use xlink:href="#DejaVuSans-30" transform="translate(185.9375 0)"/>
       <use xlink:href="#DejaVuSans-31" transform="translate(249.560547 0)"/>
       <use xlink:href="#DejaVuSans-2c" transform="translate(313.183594 0)"/>
       <use xlink:href="#DejaVuSans-20" transform="translate(344.970703 0)"/>
       <use xlink:href="#DejaVuSans-32" transform="translate(376.757812 0)"/>
       <use xlink:href="#DejaVuSans-31" transform="translate(440.380859 0)"/>
      </g>
     </g>
    </g>
    <g id="xtick_3">
     <g id="line2d_5">
      <path d="M 466.368779 622.6035 
L 466.368779 35.0835 
" clip-path="url(#pf4d28539fa)" style="fill: none; stroke: #a5a391; stroke-opacity: 0.3; stroke-width: 0.8; stroke-linecap: square"/>
     </g>
     <g id="line2d_6">
      <g>
       <use xlink:href="#mfcde939553" x="466.368779" y="622.6035" style="stroke: #000000; stroke-width: 0.8"/>
      </g>
     </g>
     <g id="text_3">
      <!-- Jan 01, 22 -->
      <g transform="translate(376.993731 689.66438) rotate(-30) scale(0.2 -0.2)">
       <use xlink:href="#DejaVuSans-4a"/>
       <use xlink:href="#DejaVuSans-61" transform="translate(29.492188 0)"/>
       <use xlink:href="#DejaVuSans-6e" transform="translate(90.771484 0)"/>
       <use xlink:href="#DejaVuSans-20" transform="translate(154.150391 0)"/>
       <use xlink:href="#DejaVuSans-30" transform="translate(185.9375 0)"/>
       <use xlink:href="#DejaVuSans-31" transform="translate(249.560547 0)"/>
       <use xlink:href="#DejaVuSans-2c" transform="translate(313.183594 0)"/>
       <use xlink:href="#DejaVuSans-20" transform="translate(344.970703 0)"/>
       <use xlink:href="#DejaVuSans-32" transform="translate(376.757812 0)"/>
       <use xlink:href="#DejaVuSans-32" transform="translate(440.380859 0)"/>
      </g>
     </g>
    </g>
    <g id="xtick_4">
     <g id="line2d_7">
      <path d="M 637.01813 622.6035 
L 637.01813 35.0835 
" clip-path="url(#pf4d28539fa)" style="fill: none; stroke: #a5a391; stroke-opacity: 0.3; stroke-width: 0.8; stroke-linecap: square"/>
     </g>
     <g id="line2d_8">
      <g>
       <use xlink:href="#mfcde939553" x="637.01813" y="622.6035" style="stroke: #000000; stroke-width: 0.8"/>
      </g>
     </g>
     <g id="text_4">
      <!-- Jan 01, 23 -->
      <g transform="translate(547.643082 689.66438) rotate(-30) scale(0.2 -0.2)">
       <defs>
        <path id="DejaVuSans-33" d="M 2597 2516 
Q 3050 2419 3304 2112 
Q 3559 1806 3559 1356 
Q 3559 666 3084 287 
Q 2609 -91 1734 -91 
Q 1441 -91 1130 -33 
Q 819 25 488 141 
L 488 750 
Q 750 597 1062 519 
Q 1375 441 1716 441 
Q 2309 441 2620 675 
Q 2931 909 2931 1356 
Q 2931 1769 2642 2001 
Q 2353 2234 1838 2234 
L 1294 2234 
L 1294 2753 
L 1863 2753 
Q 2328 2753 2575 2939 
Q 2822 3125 2822 3475 
Q 2822 3834 2567 4026 
Q 2313 4219 1838 4219 
Q 1578 4219 1281 4162 
Q 984 4106 628 3988 
L 628 4550 
Q 988 4650 1302 4700 
Q 1616 4750 1894 4750 
Q 2613 4750 3031 4423 
Q 3450 4097 3450 3541 
Q 3450 3153 3228 2886 
Q 3006 2619 2597 2516 
z
" transform="scale(0.015625)"/>
       </defs>
       <use xlink:href="#DejaVuSans-4a"/>
       <use xlink:href="#DejaVuSans-61" transform="translate(29.492188 0)"/>
       <use xlink:href="#DejaVuSans-6e" transform="translate(90.771484 0)"/>
       <use xlink:href="#DejaVuSans-20" transform="translate(154.150391 0)"/>
       <use xlink:href="#DejaVuSans-30" transform="translate(185.9375 0)"/>
       <use xlink:href="#DejaVuSans-31" transform="translate(249.560547 0)"/>
       <use xlink:href="#DejaVuSans-2c" transform="translate(313.183594 0)"/>
       <use xlink:href="#DejaVuSans-20" transform="translate(344.970703 0)"/>
       <use xlink:href="#DejaVuSans-32" transform="translate(376.757812 0)"/>
       <use xlink:href="#DejaVuSans-33" transform="translate(440.380859 0)"/>
      </g>
     </g>
    </g>
    <g id="xtick_5">
     <g id="line2d_9">
      <path d="M 807.667481 622.6035 
L 807.667481 35.0835 
" clip-path="url(#pf4d28539fa)" style="fill: none; stroke: #a5a391; stroke-opacity: 0.3; stroke-width: 0.8; stroke-linecap: square"/>
     </g>
     <g id="line2d_10">
      <g>
       <use xlink:href="#mfcde939553" x="807.667481" y="622.6035" style="stroke: #000000; stroke-width: 0.8"/>
      </g>
     </g>
     <g id="text_5">
      <!-- Jan 01, 24 -->
      <g transform="translate(718.292432 689.66438) rotate(-30) scale(0.2 -0.2)">
       <defs>
        <path id="DejaVuSans-34" d="M 2419 4116 
L 825 1625 
L 2419 1625 
L 2419 4116 
z
M 2253 4666 
L 3047 4666 
L 3047 1625 
L 3713 1625 
L 3713 1100 
L 3047 1100 
L 3047 0 
L 2419 0 
L 2419 1100 
L 313 1100 
L 313 1709 
L 2253 4666 
z
" transform="scale(0.015625)"/>
       </defs>
       <use xlink:href="#DejaVuSans-4a"/>
       <use xlink:href="#DejaVuSans-61" transform="translate(29.492188 0)"/>
       <use xlink:href="#DejaVuSans-6e" transform="translate(90.771484 0)"/>
       <use xlink:href="#DejaVuSans-20" transform="translate(154.150391 0)"/>
       <use xlink:href="#DejaVuSans-30" transform="translate(185.9375 0)"/>
       <use xlink:href="#DejaVuSans-31" transform="translate(249.560547 0)"/>
       <use xlink:href="#DejaVuSans-2c" transform="translate(313.183594 0)"/>
       <use xlink:href="#DejaVuSans-20" transform="translate(344.970703 0)"/>
       <use xlink:href="#DejaVuSans-32" transform="translate(376.757812 0)"/>
       <use xlink:href="#DejaVuSans-34" transform="translate(440.380859 0)"/>
      </g>
     </g>
    </g>
   </g>
   <g id="matplotlib.axis_2">
    <g id="ytick_1">
     <g id="line2d_11">
      <path d="M 80.748 551.060389 
L 973.548 551.060389 
" clip-path="url(#pf4d28539fa)" style="fill: none; stroke: #a5a391; stroke-opacity: 0.3; stroke-width: 0.8; stroke-linecap: square"/>
     </g>
     <g id="line2d_12">
      <defs>
       <path id="me2ab6bae3c" d="M 0 0 
L 3.5 0 
" style="stroke: #000000; stroke-width: 0.8"/>
      </defs>
      <g>
       <use xlink:href="#me2ab6bae3c" x="80.748" y="551.060389" style="stroke: #000000; stroke-width: 0.8"/>
      </g>
     </g>
     <g id="text_6">
      <!-- 110 -->
      <g transform="translate(39.073 558.658826) scale(0.2 -0.2)">
       <use xlink:href="#DejaVuSans-31"/>
       <use xlink:href="#DejaVuSans-31" transform="translate(63.623047 0)"/>
       <use xlink:href="#DejaVuSans-30" transform="translate(127.246094 0)"/>
      </g>
     </g>
    </g>
    <g id="ytick_2">
     <g id="line2d_13">
      <path d="M 80.748 471.581917 
L 973.548 471.581917 
" clip-path="url(#pf4d28539fa)" style="fill: none; stroke: #a5a391; stroke-opacity: 0.3; stroke-width: 0.8; stroke-linecap: square"/>
     </g>
     <g id="line2d_14">
      <g>
       <use xlink:href="#me2ab6bae3c" x="80.748" y="471.581917" style="stroke: #000000; stroke-width: 0.8"/>
      </g>
     </g>
     <g id="text_7">
      <!-- 115 -->
      <g transform="translate(39.073 479.180354) scale(0.2 -0.2)">
       <defs>
        <path id="DejaVuSans-35" d="M 691 4666 
L 3169 4666 
L 3169 4134 
L 1269 4134 
L 1269 2991 
Q 1406 3038 1543 3061 
Q 1681 3084 1819 3084 
Q 2600 3084 3056 2656 
Q 3513 2228 3513 1497 
Q 3513 744 3044 326 
Q 2575 -91 1722 -91 
Q 1428 -91 1123 -41 
Q 819 9 494 109 
L 494 744 
Q 775 591 1075 516 
Q 1375 441 1709 441 
Q 2250 441 2565 725 
Q 2881 1009 2881 1497 
Q 2881 1984 2565 2268 
Q 2250 2553 1709 2553 
Q 1456 2553 1204 2497 
Q 953 2441 691 2322 
L 691 4666 
z
" transform="scale(0.015625)"/>
       </defs>
       <use xlink:href="#DejaVuSans-31"/>
       <use xlink:href="#DejaVuSans-31" transform="translate(63.623047 0)"/>
       <use xlink:href="#DejaVuSans-35" transform="translate(127.246094 0)"/>
      </g>
     </g>
    </g>
    <g id="ytick_3">
     <g id="line2d_15">
      <path d="M 80.748 392.103445 
L 973.548 392.103445 
" clip-path="url(#pf4d28539fa)" style="fill: none; stroke: #a5a391; stroke-opacity: 0.3; stroke-width: 0.8; stroke-linecap: square"/>
     </g>
     <g id="line2d_16">
      <g>
       <use xlink:href="#me2ab6bae3c" x="80.748" y="392.103445" style="stroke: #000000; stroke-width: 0.8"/>
      </g>
     </g>
     <g id="text_8">
      <!-- 120 -->
      <g transform="translate(39.073 399.701883) scale(0.2 -0.2)">
       <use xlink:href="#DejaVuSans-31"/>
       <use xlink:href="#DejaVuSans-32" transform="translate(63.623047 0)"/>
       <use xlink:href="#DejaVuSans-30" transform="translate(127.246094 0)"/>
      </g>
     </g>
    </g>
    <g id="ytick_4">
     <g id="line2d_17">
      <path d="M 80.748 312.624974 
L 973.548 312.624974 
" clip-path="url(#pf4d28539fa)" style="fill: none; stroke: #a5a391; stroke-opacity: 0.3; stroke-width: 0.8; stroke-linecap: square"/>
     </g>
     <g id="line2d_18">
      <g>
       <use xlink:href="#me2ab6bae3c" x="80.748" y="312.624974" style="stroke: #000000; stroke-width: 0.8"/>
      </g>
     </g>
     <g id="text_9">
      <!-- 125 -->
      <g transform="translate(39.073 320.223411) scale(0.2 -0.2)">
       <use xlink:href="#DejaVuSans-31"/>
       <use xlink:href="#DejaVuSans-32" transform="translate(63.623047 0)"/>
       <use xlink:href="#DejaVuSans-35" transform="translate(127.246094 0)"/>
      </g>
     </g>
    </g>
    <g id="ytick_5">
     <g id="line2d_19">
      <path d="M 80.748 233.146502 
L 973.548 233.146502 
" clip-path="url(#pf4d28539fa)" style="fill: none; stroke: #a5a391; stroke-opacity: 0.3; stroke-width: 0.8; stroke-linecap: square"/>
     </g>
     <g id="line2d_20">
      <g>
       <use xlink:href="#me2ab6bae3c" x="80.748" y="233.146502" style="stroke: #000000; stroke-width: 0.8"/>
      </g>
     </g>
     <g id="text_10">
      <!-- 130 -->
      <g transform="translate(39.073 240.744939) scale(0.2 -0.2)">
       <use xlink:href="#DejaVuSans-31"/>
       <use xlink:href="#DejaVuSans-33" transform="translate(63.623047 0)"/>
       <use xlink:href="#DejaVuSans-30" transform="translate(127.246094 0)"/>
      </g>
     </g>
    </g>
    <g id="ytick_6">
     <g id="line2d_21">
      <path d="M 80.748 153.66803 
L 973.548 153.66803 
" clip-path="url(#pf4d28539fa)" style="fill: none; stroke: #a5a391; stroke-opacity: 0.3; stroke-width: 0.8; stroke-linecap: square"/>
     </g>
     <g id="line2d_22">
      <g>
       <use xlink:href="#me2ab6bae3c" x="80.748" y="153.66803" style="stroke: #000000; stroke-width: 0.8"/>
      </g>
     </g>
     <g id="text_11">
      <!-- 135 -->
      <g transform="translate(39.073 161.266468) scale(0.2 -0.2)">
       <use xlink:href="#DejaVuSans-31"/>
       <use xlink:href="#DejaVuSans-33" transform="translate(63.623047 0)"/>
       <use xlink:href="#DejaVuSans-35" transform="translate(127.246094 0)"/>
      </g>
     </g>
    </g>
    <g id="ytick_7">
     <g id="line2d_23">
      <path d="M 80.748 74.189558 
L 973.548 74.189558 
" clip-path="url(#pf4d28539fa)" style="fill: none; stroke: #a5a391; stroke-opacity: 0.3; stroke-width: 0.8; stroke-linecap: square"/>
     </g>
     <g id="line2d_24">
      <g>
       <use xlink:href="#me2ab6bae3c" x="80.748" y="74.189558" style="stroke: #000000; stroke-width: 0.8"/>
      </g>
     </g>
     <g id="text_12">
      <!-- 140 -->
      <g transform="translate(39.073 81.787996) scale(0.2 -0.2)">
       <use xlink:href="#DejaVuSans-31"/>
       <use xlink:href="#DejaVuSans-34" transform="translate(63.623047 0)"/>
       <use xlink:href="#DejaVuSans-30" transform="translate(127.246094 0)"/>
      </g>
     </g>
    </g>
    <g id="text_13">
     <!-- Muscle Mass [lbs] -->
     <g transform="translate(29.0835 455.9595) rotate(-90) scale(0.288 -0.288)">
      <defs>
       <path id="DejaVuSans-4d" d="M 628 4666 
L 1569 4666 
L 2759 1491 
L 3956 4666 
L 4897 4666 
L 4897 0 
L 4281 0 
L 4281 4097 
L 3078 897 
L 2444 897 
L 1241 4097 
L 1241 0 
L 628 0 
L 628 4666 
z
" transform="scale(0.015625)"/>
       <path id="DejaVuSans-75" d="M 544 1381 
L 544 3500 
L 1119 3500 
L 1119 1403 
Q 1119 906 1312 657 
Q 1506 409 1894 409 
Q 2359 409 2629 706 
Q 2900 1003 2900 1516 
L 2900 3500 
L 3475 3500 
L 3475 0 
L 2900 0 
L 2900 538 
Q 2691 219 2414 64 
Q 2138 -91 1772 -91 
Q 1169 -91 856 284 
Q 544 659 544 1381 
z
M 1991 3584 
L 1991 3584 
z
" transform="scale(0.015625)"/>
       <path id="DejaVuSans-73" d="M 2834 3397 
L 2834 2853 
Q 2591 2978 2328 3040 
Q 2066 3103 1784 3103 
Q 1356 3103 1142 2972 
Q 928 2841 928 2578 
Q 928 2378 1081 2264 
Q 1234 2150 1697 2047 
L 1894 2003 
Q 2506 1872 2764 1633 
Q 3022 1394 3022 966 
Q 3022 478 2636 193 
Q 2250 -91 1575 -91 
Q 1294 -91 989 -36 
Q 684 19 347 128 
L 347 722 
Q 666 556 975 473 
Q 1284 391 1588 391 
Q 1994 391 2212 530 
Q 2431 669 2431 922 
Q 2431 1156 2273 1281 
Q 2116 1406 1581 1522 
L 1381 1569 
Q 847 1681 609 1914 
Q 372 2147 372 2553 
Q 372 3047 722 3315 
Q 1072 3584 1716 3584 
Q 2034 3584 2315 3537 
Q 2597 3491 2834 3397 
z
" transform="scale(0.015625)"/>
       <path id="DejaVuSans-63" d="M 3122 3366 
L 3122 2828 
Q 2878 2963 2633 3030 
Q 2388 3097 2138 3097 
Q 1578 3097 1268 2742 
Q 959 2388 959 1747 
Q 959 1106 1268 751 
Q 1578 397 2138 397 
Q 2388 397 2633 464 
Q 2878 531 3122 666 
L 3122 134 
Q 2881 22 2623 -34 
Q 2366 -91 2075 -91 
Q 1284 -91 818 406 
Q 353 903 353 1747 
Q 353 2603 823 3093 
Q 1294 3584 2113 3584 
Q 2378 3584 2631 3529 
Q 2884 3475 3122 3366 
z
" transform="scale(0.015625)"/>
       <path id="DejaVuSans-6c" d="M 603 4863 
L 1178 4863 
L 1178 0 
L 603 0 
L 603 4863 
z
" transform="scale(0.015625)"/>
       <path id="DejaVuSans-65" d="M 3597 1894 
L 3597 1613 
L 953 1613 
Q 991 1019 1311 708 
Q 1631 397 2203 397 
Q 2534 397 2845 478 
Q 3156 559 3463 722 
L 3463 178 
Q 3153 47 2828 -22 
Q 2503 -91 2169 -91 
Q 1331 -91 842 396 
Q 353 884 353 1716 
Q 353 2575 817 3079 
Q 1281 3584 2069 3584 
Q 2775 3584 3186 3129 
Q 3597 2675 3597 1894 
z
M 3022 2063 
Q 3016 2534 2758 2815 
Q 2500 3097 2075 3097 
Q 1594 3097 1305 2825 
Q 1016 2553 972 2059 
L 3022 2063 
z
" transform="scale(0.015625)"/>
       <path id="DejaVuSans-5b" d="M 550 4863 
L 1875 4863 
L 1875 4416 
L 1125 4416 
L 1125 -397 
L 1875 -397 
L 1875 -844 
L 550 -844 
L 550 4863 
z
" transform="scale(0.015625)"/>
       <path id="DejaVuSans-62" d="M 3116 1747 
Q 3116 2381 2855 2742 
Q 2594 3103 2138 3103 
Q 1681 3103 1420 2742 
Q 1159 2381 1159 1747 
Q 1159 1113 1420 752 
Q 1681 391 2138 391 
Q 2594 391 2855 752 
Q 3116 1113 3116 1747 
z
M 1159 2969 
Q 1341 3281 1617 3432 
Q 1894 3584 2278 3584 
Q 2916 3584 3314 3078 
Q 3713 2572 3713 1747 
Q 3713 922 3314 415 
Q 2916 -91 2278 -91 
Q 1894 -91 1617 61 
Q 1341 213 1159 525 
L 1159 0 
L 581 0 
L 581 4863 
L 1159 4863 
L 1159 2969 
z
" transform="scale(0.015625)"/>
       <path id="DejaVuSans-5d" d="M 1947 4863 
L 1947 -844 
L 622 -844 
L 622 -397 
L 1369 -397 
L 1369 4416 
L 622 4416 
L 622 4863 
L 1947 4863 
z
" transform="scale(0.015625)"/>
      </defs>
      <use xlink:href="#DejaVuSans-4d"/>
      <use xlink:href="#DejaVuSans-75" transform="translate(86.279297 0)"/>
      <use xlink:href="#DejaVuSans-73" transform="translate(149.658203 0)"/>
      <use xlink:href="#DejaVuSans-63" transform="translate(201.757812 0)"/>
      <use xlink:href="#DejaVuSans-6c" transform="translate(256.738281 0)"/>
      <use xlink:href="#DejaVuSans-65" transform="translate(284.521484 0)"/>
      <use xlink:href="#DejaVuSans-20" transform="translate(346.044922 0)"/>
      <use xlink:href="#DejaVuSans-4d" transform="translate(377.832031 0)"/>
      <use xlink:href="#DejaVuSans-61" transform="translate(464.111328 0)"/>
      <use xlink:href="#DejaVuSans-73" transform="translate(525.390625 0)"/>
      <use xlink:href="#DejaVuSans-73" transform="translate(577.490234 0)"/>
      <use xlink:href="#DejaVuSans-20" transform="translate(629.589844 0)"/>
      <use xlink:href="#DejaVuSans-5b" transform="translate(661.376953 0)"/>
      <use xlink:href="#DejaVuSans-6c" transform="translate(700.390625 0)"/>
      <use xlink:href="#DejaVuSans-62" transform="translate(728.173828 0)"/>
      <use xlink:href="#DejaVuSans-73" transform="translate(791.650391 0)"/>
      <use xlink:href="#DejaVuSans-5d" transform="translate(843.75 0)"/>
     </g>
    </g>
   </g>
   <g id="line2d_25">
    <path d="M 121.329818 396.872153 
L 127.875273 521.653354 
L 131.148 389.832632 
L 134.420727 392.103445 
L 137.693455 357.132918 
L 140.966182 419.126126 
L 144.238909 381.506316 
L 147.511636 378.592105 
L 150.784364 371.968899 
L 154.057091 336.733443 
L 157.329818 373.982354 
L 160.602545 414.357417 
L 163.875273 352.761602 
L 167.148 347.595501 
L 170.420727 385.347775 
L 173.693455 359.914664 
L 176.966182 343.356649 
L 180.238909 338.375998 
L 183.511636 330.905022 
L 186.784364 341.237223 
L 190.057091 340.442439 
L 193.329818 342.826793 
L 196.602545 365.080765 
L 199.875273 351.966817 
L 203.148 354.351171 
L 206.420727 345.211147 
L 209.693455 323.75196 
L 212.966182 293.55014 
L 216.238909 334.878946 
L 219.511636 348.867157 
L 222.784364 325.341529 
L 226.057091 311.035404 
L 229.329818 309.445835 
L 232.602545 294.503882 
L 235.875273 260.169182 
L 239.148 287.589255 
L 242.420727 299.908418 
L 245.693455 276.38279 
L 248.966182 278.714159 
L 252.238909 266.130068 
L 255.511636 284.012724 
L 258.784364 312.095117 
L 262.057091 320.970213 
L 265.329818 280.436192 
L 268.602545 321.367605 
L 271.875273 332.229663 
L 275.148 274.475307 
L 278.420727 254.605689 
L 281.693455 255.400474 
L 284.966182 287.191863 
L 288.238909 258.579613 
L 291.511636 271.693561 
L 294.784364 243.743631 
L 298.057091 217.932052 
L 301.329818 201.88497 
L 304.602545 232.351717 
L 307.875273 226.47031 
L 311.148 206.123821 
L 314.420727 243.319746 
L 317.693455 254.605689 
L 320.966182 243.478703 
L 324.238909 234.736071 
L 327.511636 293.55014 
L 330.784364 267.587173 
L 334.057091 207.713391 
L 337.329818 233.78233 
L 340.602545 216.796645 
L 343.875273 247.850019 
L 347.148 268.911814 
L 350.420727 262.288608 
L 353.693455 253.810904 
L 356.966182 237.385354 
L 360.238909 222.019516 
L 363.511636 253.810904 
L 366.784364 247.982483 
L 370.057091 251.42655 
L 373.329818 229.437506 
L 376.602545 241.889134 
L 379.875273 234.736071 
L 383.148 220.429946 
L 389.693455 271.296168 
L 392.966182 277.018618 
L 396.238909 247.717555 
L 399.511636 260.169182 
L 415.875273 263.348321 
L 419.148 268.117029 
L 422.420727 320.970213 
L 425.693455 270.236455 
L 428.966182 311.035404 
L 442.057091 312.624974 
L 445.329818 318.983251 
L 448.602545 277.654446 
L 471.511636 323.75196 
L 474.784364 319.778036 
L 478.057091 321.102677 
L 481.329818 327.328491 
L 484.602545 264.143106 
L 487.875273 323.75196 
L 491.148 330.110237 
L 494.420727 318.983251 
L 497.693455 358.722487 
L 500.966182 313.419758 
L 504.238909 379.38689 
L 507.511636 378.327177 
L 520.602545 359.517272 
L 523.875273 358.192631 
L 527.148 359.252344 
L 530.420727 319.380644 
L 533.693455 379.38689 
L 550.057091 341.237223 
L 586.057091 315.804112 
L 602.420727 365.080765 
L 605.693455 365.080765 
L 612.238909 379.38689 
L 622.057091 358.722487 
L 664.602545 396.872153 
L 772.602545 124.525924 
L 775.875273 132.208843 
L 779.148 104.391378 
L 782.420727 123.466211 
L 785.693455 117.107933 
L 792.238909 222.019516 
L 795.511636 158.436738 
L 932.966182 78.958267 
" clip-path="url(#pf4d28539fa)" style="fill: none; stroke: #ff0000; stroke-width: 1.5; stroke-linecap: square"/>
    <defs>
     <path id="m3d649f6517" d="M 0 -3 
L -0.673542 -0.927051 
L -2.85317 -0.927051 
L -1.089814 0.354102 
L -1.763356 2.427051 
L -0 1.145898 
L 1.763356 2.427051 
L 1.089814 0.354102 
L 2.85317 -0.927051 
L 0.673542 -0.927051 
z
" style="stroke: #ff0000; stroke-linejoin: bevel"/>
    </defs>
    <g clip-path="url(#pf4d28539fa)">
     <use xlink:href="#m3d649f6517" x="121.329818" y="396.872153" style="fill: #ff0000; stroke: #ff0000; stroke-linejoin: bevel"/>
     <use xlink:href="#m3d649f6517" x="127.875273" y="521.653354" style="fill: #ff0000; stroke: #ff0000; stroke-linejoin: bevel"/>
     <use xlink:href="#m3d649f6517" x="131.148" y="389.832632" style="fill: #ff0000; stroke: #ff0000; stroke-linejoin: bevel"/>
     <use xlink:href="#m3d649f6517" x="134.420727" y="392.103445" style="fill: #ff0000; stroke: #ff0000; stroke-linejoin: bevel"/>
     <use xlink:href="#m3d649f6517" x="137.693455" y="357.132918" style="fill: #ff0000; stroke: #ff0000; stroke-linejoin: bevel"/>
     <use xlink:href="#m3d649f6517" x="140.966182" y="419.126126" style="fill: #ff0000; stroke: #ff0000; stroke-linejoin: bevel"/>
     <use xlink:href="#m3d649f6517" x="144.238909" y="381.506316" style="fill: #ff0000; stroke: #ff0000; stroke-linejoin: bevel"/>
     <use xlink:href="#m3d649f6517" x="147.511636" y="378.592105" style="fill: #ff0000; stroke: #ff0000; stroke-linejoin: bevel"/>
     <use xlink:href="#m3d649f6517" x="150.784364" y="371.968899" style="fill: #ff0000; stroke: #ff0000; stroke-linejoin: bevel"/>
     <use xlink:href="#m3d649f6517" x="154.057091" y="336.733443" style="fill: #ff0000; stroke: #ff0000; stroke-linejoin: bevel"/>
     <use xlink:href="#m3d649f6517" x="157.329818" y="373.982354" style="fill: #ff0000; stroke: #ff0000; stroke-linejoin: bevel"/>
     <use xlink:href="#m3d649f6517" x="160.602545" y="414.357417" style="fill: #ff0000; stroke: #ff0000; stroke-linejoin: bevel"/>
     <use xlink:href="#m3d649f6517" x="163.875273" y="352.761602" style="fill: #ff0000; stroke: #ff0000; stroke-linejoin: bevel"/>
     <use xlink:href="#m3d649f6517" x="167.148" y="347.595501" style="fill: #ff0000; stroke: #ff0000; stroke-linejoin: bevel"/>
     <use xlink:href="#m3d649f6517" x="170.420727" y="385.347775" style="fill: #ff0000; stroke: #ff0000; stroke-linejoin: bevel"/>
     <use xlink:href="#m3d649f6517" x="173.693455" y="359.914664" style="fill: #ff0000; stroke: #ff0000; stroke-linejoin: bevel"/>
     <use xlink:href="#m3d649f6517" x="176.966182" y="343.356649" style="fill: #ff0000; stroke: #ff0000; stroke-linejoin: bevel"/>
     <use xlink:href="#m3d649f6517" x="180.238909" y="338.375998" style="fill: #ff0000; stroke: #ff0000; stroke-linejoin: bevel"/>
     <use xlink:href="#m3d649f6517" x="183.511636" y="330.905022" style="fill: #ff0000; stroke: #ff0000; stroke-linejoin: bevel"/>
     <use xlink:href="#m3d649f6517" x="186.784364" y="341.237223" style="fill: #ff0000; stroke: #ff0000; stroke-linejoin: bevel"/>
     <use xlink:href="#m3d649f6517" x="190.057091" y="340.442439" style="fill: #ff0000; stroke: #ff0000; stroke-linejoin: bevel"/>
     <use xlink:href="#m3d649f6517" x="193.329818" y="342.826793" style="fill: #ff0000; stroke: #ff0000; stroke-linejoin: bevel"/>
     <use xlink:href="#m3d649f6517" x="196.602545" y="365.080765" style="fill: #ff0000; stroke: #ff0000; stroke-linejoin: bevel"/>
     <use xlink:href="#m3d649f6517" x="199.875273" y="351.966817" style="fill: #ff0000; stroke: #ff0000; stroke-linejoin: bevel"/>
     <use xlink:href="#m3d649f6517" x="203.148" y="354.351171" style="fill: #ff0000; stroke: #ff0000; stroke-linejoin: bevel"/>
     <use xlink:href="#m3d649f6517" x="206.420727" y="345.211147" style="fill: #ff0000; stroke: #ff0000; stroke-linejoin: bevel"/>
     <use xlink:href="#m3d649f6517" x="209.693455" y="323.75196" style="fill: #ff0000; stroke: #ff0000; stroke-linejoin: bevel"/>
     <use xlink:href="#m3d649f6517" x="212.966182" y="293.55014" style="fill: #ff0000; stroke: #ff0000; stroke-linejoin: bevel"/>
     <use xlink:href="#m3d649f6517" x="216.238909" y="334.878946" style="fill: #ff0000; stroke: #ff0000; stroke-linejoin: bevel"/>
     <use xlink:href="#m3d649f6517" x="219.511636" y="348.867157" style="fill: #ff0000; stroke: #ff0000; stroke-linejoin: bevel"/>
     <use xlink:href="#m3d649f6517" x="222.784364" y="325.341529" style="fill: #ff0000; stroke: #ff0000; stroke-linejoin: bevel"/>
     <use xlink:href="#m3d649f6517" x="226.057091" y="311.035404" style="fill: #ff0000; stroke: #ff0000; stroke-linejoin: bevel"/>
     <use xlink:href="#m3d649f6517" x="229.329818" y="309.445835" style="fill: #ff0000; stroke: #ff0000; stroke-linejoin: bevel"/>
     <use xlink:href="#m3d649f6517" x="232.602545" y="294.503882" style="fill: #ff0000; stroke: #ff0000; stroke-linejoin: bevel"/>
     <use xlink:href="#m3d649f6517" x="235.875273" y="260.169182" style="fill: #ff0000; stroke: #ff0000; stroke-linejoin: bevel"/>
     <use xlink:href="#m3d649f6517" x="239.148" y="287.589255" style="fill: #ff0000; stroke: #ff0000; stroke-linejoin: bevel"/>
     <use xlink:href="#m3d649f6517" x="242.420727" y="299.908418" style="fill: #ff0000; stroke: #ff0000; stroke-linejoin: bevel"/>
     <use xlink:href="#m3d649f6517" x="245.693455" y="276.38279" style="fill: #ff0000; stroke: #ff0000; stroke-linejoin: bevel"/>
     <use xlink:href="#m3d649f6517" x="248.966182" y="278.714159" style="fill: #ff0000; stroke: #ff0000; stroke-linejoin: bevel"/>
     <use xlink:href="#m3d649f6517" x="252.238909" y="266.130068" style="fill: #ff0000; stroke: #ff0000; stroke-linejoin: bevel"/>
     <use xlink:href="#m3d649f6517" x="255.511636" y="284.012724" style="fill: #ff0000; stroke: #ff0000; stroke-linejoin: bevel"/>
     <use xlink:href="#m3d649f6517" x="258.784364" y="312.095117" style="fill: #ff0000; stroke: #ff0000; stroke-linejoin: bevel"/>
     <use xlink:href="#m3d649f6517" x="262.057091" y="320.970213" style="fill: #ff0000; stroke: #ff0000; stroke-linejoin: bevel"/>
     <use xlink:href="#m3d649f6517" x="265.329818" y="280.436192" style="fill: #ff0000; stroke: #ff0000; stroke-linejoin: bevel"/>
     <use xlink:href="#m3d649f6517" x="268.602545" y="321.367605" style="fill: #ff0000; stroke: #ff0000; stroke-linejoin: bevel"/>
     <use xlink:href="#m3d649f6517" x="271.875273" y="332.229663" style="fill: #ff0000; stroke: #ff0000; stroke-linejoin: bevel"/>
     <use xlink:href="#m3d649f6517" x="275.148" y="274.475307" style="fill: #ff0000; stroke: #ff0000; stroke-linejoin: bevel"/>
     <use xlink:href="#m3d649f6517" x="278.420727" y="254.605689" style="fill: #ff0000; stroke: #ff0000; stroke-linejoin: bevel"/>
     <use xlink:href="#m3d649f6517" x="281.693455" y="255.400474" style="fill: #ff0000; stroke: #ff0000; stroke-linejoin: bevel"/>
     <use xlink:href="#m3d649f6517" x="284.966182" y="287.191863" style="fill: #ff0000; stroke: #ff0000; stroke-linejoin: bevel"/>
     <use xlink:href="#m3d649f6517" x="288.238909" y="258.579613" style="fill: #ff0000; stroke: #ff0000; stroke-linejoin: bevel"/>
     <use xlink:href="#m3d649f6517" x="291.511636" y="271.693561" style="fill: #ff0000; stroke: #ff0000; stroke-linejoin: bevel"/>
     <use xlink:href="#m3d649f6517" x="294.784364" y="243.743631" style="fill: #ff0000; stroke: #ff0000; stroke-linejoin: bevel"/>
     <use xlink:href="#m3d649f6517" x="298.057091" y="217.932052" style="fill: #ff0000; stroke: #ff0000; stroke-linejoin: bevel"/>
     <use xlink:href="#m3d649f6517" x="301.329818" y="201.88497" style="fill: #ff0000; stroke: #ff0000; stroke-linejoin: bevel"/>
     <use xlink:href="#m3d649f6517" x="304.602545" y="232.351717" style="fill: #ff0000; stroke: #ff0000; stroke-linejoin: bevel"/>
     <use xlink:href="#m3d649f6517" x="307.875273" y="226.47031" style="fill: #ff0000; stroke: #ff0000; stroke-linejoin: bevel"/>
     <use xlink:href="#m3d649f6517" x="311.148" y="206.123821" style="fill: #ff0000; stroke: #ff0000; stroke-linejoin: bevel"/>
     <use xlink:href="#m3d649f6517" x="314.420727" y="243.319746" style="fill: #ff0000; stroke: #ff0000; stroke-linejoin: bevel"/>
     <use xlink:href="#m3d649f6517" x="317.693455" y="254.605689" style="fill: #ff0000; stroke: #ff0000; stroke-linejoin: bevel"/>
     <use xlink:href="#m3d649f6517" x="320.966182" y="243.478703" style="fill: #ff0000; stroke: #ff0000; stroke-linejoin: bevel"/>
     <use xlink:href="#m3d649f6517" x="324.238909" y="234.736071" style="fill: #ff0000; stroke: #ff0000; stroke-linejoin: bevel"/>
     <use xlink:href="#m3d649f6517" x="327.511636" y="293.55014" style="fill: #ff0000; stroke: #ff0000; stroke-linejoin: bevel"/>
     <use xlink:href="#m3d649f6517" x="330.784364" y="267.587173" style="fill: #ff0000; stroke: #ff0000; stroke-linejoin: bevel"/>
     <use xlink:href="#m3d649f6517" x="334.057091" y="207.713391" style="fill: #ff0000; stroke: #ff0000; stroke-linejoin: bevel"/>
     <use xlink:href="#m3d649f6517" x="337.329818" y="233.78233" style="fill: #ff0000; stroke: #ff0000; stroke-linejoin: bevel"/>
     <use xlink:href="#m3d649f6517" x="340.602545" y="216.796645" style="fill: #ff0000; stroke: #ff0000; stroke-linejoin: bevel"/>
     <use xlink:href="#m3d649f6517" x="343.875273" y="247.850019" style="fill: #ff0000; stroke: #ff0000; stroke-linejoin: bevel"/>
     <use xlink:href="#m3d649f6517" x="347.148" y="268.911814" style="fill: #ff0000; stroke: #ff0000; stroke-linejoin: bevel"/>
     <use xlink:href="#m3d649f6517" x="350.420727" y="262.288608" style="fill: #ff0000; stroke: #ff0000; stroke-linejoin: bevel"/>
     <use xlink:href="#m3d649f6517" x="353.693455" y="253.810904" style="fill: #ff0000; stroke: #ff0000; stroke-linejoin: bevel"/>
     <use xlink:href="#m3d649f6517" x="356.966182" y="237.385354" style="fill: #ff0000; stroke: #ff0000; stroke-linejoin: bevel"/>
     <use xlink:href="#m3d649f6517" x="360.238909" y="222.019516" style="fill: #ff0000; stroke: #ff0000; stroke-linejoin: bevel"/>
     <use xlink:href="#m3d649f6517" x="363.511636" y="253.810904" style="fill: #ff0000; stroke: #ff0000; stroke-linejoin: bevel"/>
     <use xlink:href="#m3d649f6517" x="366.784364" y="247.982483" style="fill: #ff0000; stroke: #ff0000; stroke-linejoin: bevel"/>
     <use xlink:href="#m3d649f6517" x="370.057091" y="251.42655" style="fill: #ff0000; stroke: #ff0000; stroke-linejoin: bevel"/>
     <use xlink:href="#m3d649f6517" x="373.329818" y="229.437506" style="fill: #ff0000; stroke: #ff0000; stroke-linejoin: bevel"/>
     <use xlink:href="#m3d649f6517" x="376.602545" y="241.889134" style="fill: #ff0000; stroke: #ff0000; stroke-linejoin: bevel"/>
     <use xlink:href="#m3d649f6517" x="379.875273" y="234.736071" style="fill: #ff0000; stroke: #ff0000; stroke-linejoin: bevel"/>
     <use xlink:href="#m3d649f6517" x="383.148" y="220.429946" style="fill: #ff0000; stroke: #ff0000; stroke-linejoin: bevel"/>
     <use xlink:href="#m3d649f6517" x="389.693455" y="271.296168" style="fill: #ff0000; stroke: #ff0000; stroke-linejoin: bevel"/>
     <use xlink:href="#m3d649f6517" x="392.966182" y="277.018618" style="fill: #ff0000; stroke: #ff0000; stroke-linejoin: bevel"/>
     <use xlink:href="#m3d649f6517" x="396.238909" y="247.717555" style="fill: #ff0000; stroke: #ff0000; stroke-linejoin: bevel"/>
     <use xlink:href="#m3d649f6517" x="399.511636" y="260.169182" style="fill: #ff0000; stroke: #ff0000; stroke-linejoin: bevel"/>
     <use xlink:href="#m3d649f6517" x="415.875273" y="263.348321" style="fill: #ff0000; stroke: #ff0000; stroke-linejoin: bevel"/>
     <use xlink:href="#m3d649f6517" x="419.148" y="268.117029" style="fill: #ff0000; stroke: #ff0000; stroke-linejoin: bevel"/>
     <use xlink:href="#m3d649f6517" x="422.420727" y="320.970213" style="fill: #ff0000; stroke: #ff0000; stroke-linejoin: bevel"/>
     <use xlink:href="#m3d649f6517" x="425.693455" y="270.236455" style="fill: #ff0000; stroke: #ff0000; stroke-linejoin: bevel"/>
     <use xlink:href="#m3d649f6517" x="428.966182" y="311.035404" style="fill: #ff0000; stroke: #ff0000; stroke-linejoin: bevel"/>
     <use xlink:href="#m3d649f6517" x="442.057091" y="312.624974" style="fill: #ff0000; stroke: #ff0000; stroke-linejoin: bevel"/>
     <use xlink:href="#m3d649f6517" x="445.329818" y="318.983251" style="fill: #ff0000; stroke: #ff0000; stroke-linejoin: bevel"/>
     <use xlink:href="#m3d649f6517" x="448.602545" y="277.654446" style="fill: #ff0000; stroke: #ff0000; stroke-linejoin: bevel"/>
     <use xlink:href="#m3d649f6517" x="471.511636" y="323.75196" style="fill: #ff0000; stroke: #ff0000; stroke-linejoin: bevel"/>
     <use xlink:href="#m3d649f6517" x="474.784364" y="319.778036" style="fill: #ff0000; stroke: #ff0000; stroke-linejoin: bevel"/>
     <use xlink:href="#m3d649f6517" x="478.057091" y="321.102677" style="fill: #ff0000; stroke: #ff0000; stroke-linejoin: bevel"/>
     <use xlink:href="#m3d649f6517" x="481.329818" y="327.328491" style="fill: #ff0000; stroke: #ff0000; stroke-linejoin: bevel"/>
     <use xlink:href="#m3d649f6517" x="484.602545" y="264.143106" style="fill: #ff0000; stroke: #ff0000; stroke-linejoin: bevel"/>
     <use xlink:href="#m3d649f6517" x="487.875273" y="323.75196" style="fill: #ff0000; stroke: #ff0000; stroke-linejoin: bevel"/>
     <use xlink:href="#m3d649f6517" x="491.148" y="330.110237" style="fill: #ff0000; stroke: #ff0000; stroke-linejoin: bevel"/>
     <use xlink:href="#m3d649f6517" x="494.420727" y="318.983251" style="fill: #ff0000; stroke: #ff0000; stroke-linejoin: bevel"/>
     <use xlink:href="#m3d649f6517" x="497.693455" y="358.722487" style="fill: #ff0000; stroke: #ff0000; stroke-linejoin: bevel"/>
     <use xlink:href="#m3d649f6517" x="500.966182" y="313.419758" style="fill: #ff0000; stroke: #ff0000; stroke-linejoin: bevel"/>
     <use xlink:href="#m3d649f6517" x="504.238909" y="379.38689" style="fill: #ff0000; stroke: #ff0000; stroke-linejoin: bevel"/>
     <use xlink:href="#m3d649f6517" x="507.511636" y="378.327177" style="fill: #ff0000; stroke: #ff0000; stroke-linejoin: bevel"/>
     <use xlink:href="#m3d649f6517" x="520.602545" y="359.517272" style="fill: #ff0000; stroke: #ff0000; stroke-linejoin: bevel"/>
     <use xlink:href="#m3d649f6517" x="523.875273" y="358.192631" style="fill: #ff0000; stroke: #ff0000; stroke-linejoin: bevel"/>
     <use xlink:href="#m3d649f6517" x="527.148" y="359.252344" style="fill: #ff0000; stroke: #ff0000; stroke-linejoin: bevel"/>
     <use xlink:href="#m3d649f6517" x="530.420727" y="319.380644" style="fill: #ff0000; stroke: #ff0000; stroke-linejoin: bevel"/>
     <use xlink:href="#m3d649f6517" x="533.693455" y="379.38689" style="fill: #ff0000; stroke: #ff0000; stroke-linejoin: bevel"/>
     <use xlink:href="#m3d649f6517" x="550.057091" y="341.237223" style="fill: #ff0000; stroke: #ff0000; stroke-linejoin: bevel"/>
     <use xlink:href="#m3d649f6517" x="586.057091" y="315.804112" style="fill: #ff0000; stroke: #ff0000; stroke-linejoin: bevel"/>
     <use xlink:href="#m3d649f6517" x="602.420727" y="365.080765" style="fill: #ff0000; stroke: #ff0000; stroke-linejoin: bevel"/>
     <use xlink:href="#m3d649f6517" x="605.693455" y="365.080765" style="fill: #ff0000; stroke: #ff0000; stroke-linejoin: bevel"/>
     <use xlink:href="#m3d649f6517" x="612.238909" y="379.38689" style="fill: #ff0000; stroke: #ff0000; stroke-linejoin: bevel"/>
     <use xlink:href="#m3d649f6517" x="622.057091" y="358.722487" style="fill: #ff0000; stroke: #ff0000; stroke-linejoin: bevel"/>
     <use xlink:href="#m3d649f6517" x="664.602545" y="396.872153" style="fill: #ff0000; stroke: #ff0000; stroke-linejoin: bevel"/>
     <use xlink:href="#m3d649f6517" x="772.602545" y="124.525924" style="fill: #ff0000; stroke: #ff0000; stroke-linejoin: bevel"/>
     <use xlink:href="#m3d649f6517" x="775.875273" y="132.208843" style="fill: #ff0000; stroke: #ff0000; stroke-linejoin: bevel"/>
     <use xlink:href="#m3d649f6517" x="779.148" y="104.391378" style="fill: #ff0000; stroke: #ff0000; stroke-linejoin: bevel"/>
     <use xlink:href="#m3d649f6517" x="782.420727" y="123.466211" style="fill: #ff0000; stroke: #ff0000; stroke-linejoin: bevel"/>
     <use xlink:href="#m3d649f6517" x="785.693455" y="117.107933" style="fill: #ff0000; stroke: #ff0000; stroke-linejoin: bevel"/>
     <use xlink:href="#m3d649f6517" x="792.238909" y="222.019516" style="fill: #ff0000; stroke: #ff0000; stroke-linejoin: bevel"/>
     <use xlink:href="#m3d649f6517" x="795.511636" y="158.436738" style="fill: #ff0000; stroke: #ff0000; stroke-linejoin: bevel"/>
     <use xlink:href="#m3d649f6517" x="932.966182" y="78.958267" style="fill: #ff0000; stroke: #ff0000; stroke-linejoin: bevel"/>
    </g>
   </g>
   <g id="patch_3">
    <path d="M 80.748 622.6035 
L 80.748 35.0835 
" style="fill: none; stroke: #000000; stroke-width: 0.8; stroke-linejoin: miter; stroke-linecap: square"/>
   </g>
   <g id="patch_4">
    <path d="M 973.548 622.6035 
L 973.548 35.0835 
" style="fill: none; stroke: #000000; stroke-width: 0.8; stroke-linejoin: miter; stroke-linecap: square"/>
   </g>
   <g id="patch_5">
    <path d="M 80.748 622.6035 
L 973.548 622.6035 
" style="fill: none; stroke: #000000; stroke-width: 0.8; stroke-linejoin: miter; stroke-linecap: square"/>
   </g>
   <g id="patch_6">
    <path d="M 80.748 35.0835 
L 973.548 35.0835 
" style="fill: none; stroke: #000000; stroke-width: 0.8; stroke-linejoin: miter; stroke-linecap: square"/>
   </g>
   <g id="text_14">
    <!-- Body Muscle Mass -->
    <g transform="translate(395.55675 29.0835) scale(0.288 -0.288)">
     <defs>
      <path id="DejaVuSans-42" d="M 1259 2228 
L 1259 519 
L 2272 519 
Q 2781 519 3026 730 
Q 3272 941 3272 1375 
Q 3272 1813 3026 2020 
Q 2781 2228 2272 2228 
L 1259 2228 
z
M 1259 4147 
L 1259 2741 
L 2194 2741 
Q 2656 2741 2882 2914 
Q 3109 3088 3109 3444 
Q 3109 3797 2882 3972 
Q 2656 4147 2194 4147 
L 1259 4147 
z
M 628 4666 
L 2241 4666 
Q 2963 4666 3353 4366 
Q 3744 4066 3744 3513 
Q 3744 3084 3544 2831 
Q 3344 2578 2956 2516 
Q 3422 2416 3680 2098 
Q 3938 1781 3938 1306 
Q 3938 681 3513 340 
Q 3088 0 2303 0 
L 628 0 
L 628 4666 
z
" transform="scale(0.015625)"/>
      <path id="DejaVuSans-6f" d="M 1959 3097 
Q 1497 3097 1228 2736 
Q 959 2375 959 1747 
Q 959 1119 1226 758 
Q 1494 397 1959 397 
Q 2419 397 2687 759 
Q 2956 1122 2956 1747 
Q 2956 2369 2687 2733 
Q 2419 3097 1959 3097 
z
M 1959 3584 
Q 2709 3584 3137 3096 
Q 3566 2609 3566 1747 
Q 3566 888 3137 398 
Q 2709 -91 1959 -91 
Q 1206 -91 779 398 
Q 353 888 353 1747 
Q 353 2609 779 3096 
Q 1206 3584 1959 3584 
z
" transform="scale(0.015625)"/>
      <path id="DejaVuSans-64" d="M 2906 2969 
L 2906 4863 
L 3481 4863 
L 3481 0 
L 2906 0 
L 2906 525 
Q 2725 213 2448 61 
Q 2172 -91 1784 -91 
Q 1150 -91 751 415 
Q 353 922 353 1747 
Q 353 2572 751 3078 
Q 1150 3584 1784 3584 
Q 2172 3584 2448 3432 
Q 2725 3281 2906 2969 
z
M 947 1747 
Q 947 1113 1208 752 
Q 1469 391 1925 391 
Q 2381 391 2643 752 
Q 2906 1113 2906 1747 
Q 2906 2381 2643 2742 
Q 2381 3103 1925 3103 
Q 1469 3103 1208 2742 
Q 947 2381 947 1747 
z
" transform="scale(0.015625)"/>
      <path id="DejaVuSans-79" d="M 2059 -325 
Q 1816 -950 1584 -1140 
Q 1353 -1331 966 -1331 
L 506 -1331 
L 506 -850 
L 844 -850 
Q 1081 -850 1212 -737 
Q 1344 -625 1503 -206 
L 1606 56 
L 191 3500 
L 800 3500 
L 1894 763 
L 2988 3500 
L 3597 3500 
L 2059 -325 
z
" transform="scale(0.015625)"/>
     </defs>
     <use xlink:href="#DejaVuSans-42"/>
     <use xlink:href="#DejaVuSans-6f" transform="translate(68.603516 0)"/>
     <use xlink:href="#DejaVuSans-64" transform="translate(129.785156 0)"/>
     <use xlink:href="#DejaVuSans-79" transform="translate(193.261719 0)"/>
     <use xlink:href="#DejaVuSans-20" transform="translate(252.441406 0)"/>
     <use xlink:href="#DejaVuSans-4d" transform="translate(284.228516 0)"/>
     <use xlink:href="#DejaVuSans-75" transform="translate(370.507812 0)"/>
     <use xlink:href="#DejaVuSans-73" transform="translate(433.886719 0)"/>
     <use xlink:href="#DejaVuSans-63" transform="translate(485.986328 0)"/>
     <use xlink:href="#DejaVuSans-6c" transform="translate(540.966797 0)"/>
     <use xlink:href="#DejaVuSans-65" transform="translate(568.75 0)"/>
     <use xlink:href="#DejaVuSans-20" transform="translate(630.273438 0)"/>
     <use xlink:href="#DejaVuSans-4d" transform="translate(662.060547 0)"/>
     <use xlink:href="#DejaVuSans-61" transform="translate(748.339844 0)"/>
     <use xlink:href="#DejaVuSans-73" transform="translate(809.619141 0)"/>
     <use xlink:href="#DejaVuSans-73" transform="translate(861.71875 0)"/>
    </g>
   </g>
  </g>
 </g>
 <defs>
  <clipPath id="pf4d28539fa">
   <rect x="80.748" y="35.0835" width="892.8" height="587.52"/>
  </clipPath>
 </defs>
</svg>
