<?xml version="1.0" encoding="utf-8" standalone="no"?>
<!DOCTYPE svg PUBLIC "-//W3C//DTD SVG 1.1//EN"
  "http://www.w3.org/Graphics/SVG/1.1/DTD/svg11.dtd">
<svg xmlns:xlink="http://www.w3.org/1999/xlink" width="968.023pt" height="700.466504pt" viewBox="0 0 968.023 700.466504" xmlns="http://www.w3.org/2000/svg" version="1.1">
 <metadata>
  <rdf:RDF xmlns:dc="http://purl.org/dc/elements/1.1/" xmlns:cc="http://creativecommons.org/ns#" xmlns:rdf="http://www.w3.org/1999/02/22-rdf-syntax-ns#">
   <cc:Work>
    <dc:type rdf:resource="http://purl.org/dc/dcmitype/StillImage"/>
    <dc:date>2023-10-16T19:14:49.258740</dc:date>
    <dc:format>image/svg+xml</dc:format>
    <dc:creator>
     <cc:Agent>
      <dc:title>Matplotlib v3.8.0, https://matplotlib.org/</dc:title>
     </cc:Agent>
    </dc:creator>
   </cc:Work>
  </rdf:RDF>
 </metadata>
 <defs>
  <style type="text/css">*{stroke-linejoin: round; stroke-linecap: butt}</style>
 </defs>
 <g id="figure_1">
  <g id="patch_1">
   <path d="M 0 700.466504 
L 968.023 700.466504 
L 968.023 0 
L 0 0 
z
" style="fill: #ffffff"/>
  </g>
  <g id="axes_1">
   <g id="patch_2">
    <path d="M 68.023 622.6035 
L 960.823 622.6035 
L 960.823 35.0835 
L 68.023 35.0835 
z
" style="fill: #ffffff"/>
   </g>
   <g id="PolyCollection_1">
    <defs>
     <path id="mdfb13345c0" d="M 108.604818 -434.438118 
L 108.604818 -361.276411 
L 116.761968 -104.568459 
L 120.840542 -388.91388 
L 124.919117 -394.05153 
L 128.997692 -442.138403 
L 133.076266 -343.478434 
L 137.154841 -417.691249 
L 141.233416 -411.102321 
L 145.31199 -413.053573 
L 149.390565 -412.592065 
L 153.46914 -354.163076 
L 157.547714 -355.883366 
L 161.626289 -436.364467 
L 165.704864 -428.537814 
L 169.783439 -369.155517 
L 173.862013 -415.565765 
L 177.940588 -457.246234 
L 182.019163 -497.260331 
L 186.097737 -523.594691 
L 190.176312 -484.889077 
L 194.254887 -492.702363 
L 198.333461 -443.879451 
L 202.412036 -423.779632 
L 206.490611 -402.884574 
L 210.569185 -431.169497 
L 214.64776 -424.605075 
L 218.726335 -433.12626 
L 222.80491 -460.902377 
L 226.883484 -417.372324 
L 230.962059 -387.145176 
L 235.040634 -411.849778 
L 239.119208 -435.375501 
L 243.197783 -439.651896 
L 247.276358 -430.685425 
L 251.354932 -441.871288 
L 255.433507 -404.589759 
L 259.512082 -361.896696 
L 263.590656 -395.959142 
L 267.669231 -397.377477 
L 271.747806 -451.542923 
L 275.826381 -395.731472 
L 279.904955 -377.108718 
L 283.98353 -368.711584 
L 288.062105 -407.693682 
L 292.140679 -340.736007 
L 296.219254 -315.515831 
L 300.297829 -401.535694 
L 304.376403 -373.1766 
L 308.454978 -397.861998 
L 312.533553 -317.025346 
L 316.612127 -341.736236 
L 320.690702 -334.295268 
L 324.769277 -327.654626 
L 328.847852 -351.729795 
L 332.926426 -373.934497 
L 337.005001 -363.534125 
L 341.083576 -338.221507 
L 345.16215 -385.672218 
L 349.240725 -363.252594 
L 353.3193 -348.205494 
L 357.397874 -361.673619 
L 361.476449 -363.728217 
L 365.555024 -270.690399 
L 369.633598 -291.311595 
L 373.712173 -379.575489 
L 377.790748 -332.496226 
L 381.869323 -352.49446 
L 385.947897 -278.169947 
L 390.026472 -297.562383 
L 394.105047 -332.591441 
L 398.183621 -313.655586 
L 402.262196 -349.401426 
L 406.340771 -368.682068 
L 410.419345 -342.091333 
L 414.49792 -354.285516 
L 418.576495 -370.818111 
L 422.655069 -412.008156 
L 426.733644 -370.942726 
L 430.812219 -441.176273 
L 434.890794 -475.509759 
L 443.047943 -391.545731 
L 447.126518 -398.635281 
L 451.205092 -422.200102 
L 455.283667 -379.237067 
L 475.67654 -389.075972 
L 479.755115 -389.064343 
L 483.83369 -301.947617 
L 487.912265 -380.651429 
L 491.990839 -327.534848 
L 508.305138 -348.954048 
L 512.383713 -331.564843 
L 516.462287 -381.596879 
L 545.01231 -351.083519 
L 549.090885 -293.997354 
L 553.16946 -317.212552 
L 557.248034 -345.412739 
L 561.326609 -398.673895 
L 565.405184 -383.87458 
L 569.483758 -319.730318 
L 573.562333 -340.767207 
L 577.640908 -312.940864 
L 581.719482 -338.369467 
L 585.798057 -336.002018 
L 589.876632 -328.877213 
L 606.190931 -291.294013 
L 610.269505 -285.653076 
L 614.34808 -292.411495 
L 618.426655 -344.089833 
L 622.505229 -236.604401 
L 642.898103 -267.772704 
L 687.762424 -327.384712 
L 708.155298 -306.500344 
L 712.233873 -321.385348 
L 720.391022 -258.141208 
L 732.626746 -320.372026 
L 785.648217 -248.474456 
L 920.241182 -554.012819 
L 920.241182 -638.67755 
L 920.241182 -638.67755 
L 785.648217 -321.636163 
L 732.626746 -393.533733 
L 720.391022 -331.302915 
L 712.233873 -394.547055 
L 708.155298 -379.662051 
L 687.762424 -400.546419 
L 642.898103 -340.93441 
L 622.505229 -309.766108 
L 618.426655 -407.553844 
L 614.34808 -365.573201 
L 610.269505 -358.814783 
L 606.190931 -364.45572 
L 589.876632 -402.038919 
L 585.798057 -409.163725 
L 581.719482 -474.128006 
L 577.640908 -386.102571 
L 573.562333 -413.928914 
L 569.483758 -392.892024 
L 565.405184 -457.036286 
L 561.326609 -471.835602 
L 557.248034 -401.434682 
L 553.16946 -390.374259 
L 549.090885 -367.15906 
L 545.01231 -368.3143 
L 516.462287 -454.758586 
L 512.383713 -404.726549 
L 508.305138 -422.115755 
L 491.990839 -400.696554 
L 487.912265 -453.813136 
L 483.83369 -415.217272 
L 479.755115 -462.22605 
L 475.67654 -462.237679 
L 455.283667 -452.398774 
L 451.205092 -506.633666 
L 447.126518 -466.317981 
L 443.047943 -464.707438 
L 434.890794 -526.644895 
L 430.812219 -514.33798 
L 426.733644 -444.104433 
L 422.655069 -472.794764 
L 418.576495 -420.46929 
L 414.49792 -427.447222 
L 410.419345 -447.576583 
L 406.340771 -441.843775 
L 402.262196 -437.12841 
L 398.183621 -410.047815 
L 394.105047 -405.753148 
L 390.026472 -370.72409 
L 385.947897 -430.75526 
L 381.869323 -437.184465 
L 377.790748 -417.019659 
L 373.712173 -452.737196 
L 369.633598 -364.473301 
L 365.555024 -343.852106 
L 361.476449 -436.889924 
L 357.397874 -441.431777 
L 353.3193 -408.800092 
L 349.240725 -417.042206 
L 345.16215 -458.833925 
L 341.083576 -464.887277 
L 337.005001 -436.695831 
L 332.926426 -474.61963 
L 328.847852 -440.639628 
L 324.769277 -416.015656 
L 320.690702 -430.283539 
L 316.612127 -414.897943 
L 312.533553 -366.178526 
L 308.454978 -413.784435 
L 304.376403 -446.338307 
L 300.297829 -474.697401 
L 296.219254 -388.677538 
L 292.140679 -413.897714 
L 288.062105 -444.196643 
L 283.98353 -409.362897 
L 279.904955 -450.270424 
L 275.826381 -463.401115 
L 271.747806 -484.939774 
L 267.669231 -470.539183 
L 263.590656 -473.875031 
L 259.512082 -447.791775 
L 255.433507 -456.671721 
L 251.354932 -515.032995 
L 247.276358 -471.678548 
L 243.197783 -512.813603 
L 239.119208 -491.027744 
L 235.040634 -485.011484 
L 230.962059 -489.759361 
L 226.883484 -490.534031 
L 222.80491 -534.064084 
L 218.726335 -528.57697 
L 214.64776 -531.485403 
L 210.569185 -500.835552 
L 206.490611 -549.511802 
L 202.412036 -496.941339 
L 198.333461 -517.041158 
L 194.254887 -534.071604 
L 190.176312 -533.277948 
L 186.097737 -528.645797 
L 182.019163 -535.421544 
L 177.940588 -531.033413 
L 173.862013 -498.353724 
L 169.783439 -462.826329 
L 165.704864 -499.598998 
L 161.626289 -469.550771 
L 157.547714 -402.66151 
L 153.46914 -445.413518 
L 149.390565 -477.717437 
L 145.31199 -486.21528 
L 141.233416 -491.399673 
L 137.154841 -463.028836 
L 133.076266 -397.51894 
L 128.997692 -471.084544 
L 124.919117 -413.605699 
L 120.840542 -464.957667 
L 116.761968 -343.608872 
L 108.604818 -434.438118 
z
" style="stroke: #a52a2a; stroke-opacity: 0.2"/>
    </defs>
    <g clip-path="url(#p9a6212e364)">
     <use xlink:href="#mdfb13345c0" x="0" y="700.466504" style="fill: #a52a2a; fill-opacity: 0.2; stroke: #a52a2a; stroke-opacity: 0.2"/>
    </g>
   </g>
   <g id="matplotlib.axis_1">
    <g id="xtick_1">
     <g id="line2d_1">
      <path d="M 112.683393 622.6035 
L 112.683393 35.0835 
" clip-path="url(#p9a6212e364)" style="fill: none; stroke: #a5a391; stroke-opacity: 0.3; stroke-width: 0.8; stroke-linecap: square"/>
     </g>
     <g id="line2d_2">
      <defs>
       <path id="m8ae8edd970" d="M 0 0 
L 0 -3.5 
" style="stroke: #000000; stroke-width: 0.8"/>
      </defs>
      <g>
       <use xlink:href="#m8ae8edd970" x="112.683393" y="622.6035" style="stroke: #000000; stroke-width: 0.8"/>
      </g>
     </g>
     <g id="text_1">
      <!-- Jan 01, 20 -->
      <g transform="translate(23.308345 689.66438) rotate(-30) scale(0.2 -0.2)">
       <defs>
        <path id="DejaVuSans-4a" d="M 628 4666 
L 1259 4666 
L 1259 325 
Q 1259 -519 939 -900 
Q 619 -1281 -91 -1281 
L -331 -1281 
L -331 -750 
L -134 -750 
Q 284 -750 456 -515 
Q 628 -281 628 325 
L 628 4666 
z
" transform="scale(0.015625)"/>
        <path id="DejaVuSans-61" d="M 2194 1759 
Q 1497 1759 1228 1600 
Q 959 1441 959 1056 
Q 959 750 1161 570 
Q 1363 391 1709 391 
Q 2188 391 2477 730 
Q 2766 1069 2766 1631 
L 2766 1759 
L 2194 1759 
z
M 3341 1997 
L 3341 0 
L 2766 0 
L 2766 531 
Q 2569 213 2275 61 
Q 1981 -91 1556 -91 
Q 1019 -91 701 211 
Q 384 513 384 1019 
Q 384 1609 779 1909 
Q 1175 2209 1959 2209 
L 2766 2209 
L 2766 2266 
Q 2766 2663 2505 2880 
Q 2244 3097 1772 3097 
Q 1472 3097 1187 3025 
Q 903 2953 641 2809 
L 641 3341 
Q 956 3463 1253 3523 
Q 1550 3584 1831 3584 
Q 2591 3584 2966 3190 
Q 3341 2797 3341 1997 
z
" transform="scale(0.015625)"/>
        <path id="DejaVuSans-6e" d="M 3513 2113 
L 3513 0 
L 2938 0 
L 2938 2094 
Q 2938 2591 2744 2837 
Q 2550 3084 2163 3084 
Q 1697 3084 1428 2787 
Q 1159 2491 1159 1978 
L 1159 0 
L 581 0 
L 581 3500 
L 1159 3500 
L 1159 2956 
Q 1366 3272 1645 3428 
Q 1925 3584 2291 3584 
Q 2894 3584 3203 3211 
Q 3513 2838 3513 2113 
z
" transform="scale(0.015625)"/>
        <path id="DejaVuSans-20" transform="scale(0.015625)"/>
        <path id="DejaVuSans-30" d="M 2034 4250 
Q 1547 4250 1301 3770 
Q 1056 3291 1056 2328 
Q 1056 1369 1301 889 
Q 1547 409 2034 409 
Q 2525 409 2770 889 
Q 3016 1369 3016 2328 
Q 3016 3291 2770 3770 
Q 2525 4250 2034 4250 
z
M 2034 4750 
Q 2819 4750 3233 4129 
Q 3647 3509 3647 2328 
Q 3647 1150 3233 529 
Q 2819 -91 2034 -91 
Q 1250 -91 836 529 
Q 422 1150 422 2328 
Q 422 3509 836 4129 
Q 1250 4750 2034 4750 
z
" transform="scale(0.015625)"/>
        <path id="DejaVuSans-31" d="M 794 531 
L 1825 531 
L 1825 4091 
L 703 3866 
L 703 4441 
L 1819 4666 
L 2450 4666 
L 2450 531 
L 3481 531 
L 3481 0 
L 794 0 
L 794 531 
z
" transform="scale(0.015625)"/>
        <path id="DejaVuSans-2c" d="M 750 794 
L 1409 794 
L 1409 256 
L 897 -744 
L 494 -744 
L 750 256 
L 750 794 
z
" transform="scale(0.015625)"/>
        <path id="DejaVuSans-32" d="M 1228 531 
L 3431 531 
L 3431 0 
L 469 0 
L 469 531 
Q 828 903 1448 1529 
Q 2069 2156 2228 2338 
Q 2531 2678 2651 2914 
Q 2772 3150 2772 3378 
Q 2772 3750 2511 3984 
Q 2250 4219 1831 4219 
Q 1534 4219 1204 4116 
Q 875 4013 500 3803 
L 500 4441 
Q 881 4594 1212 4672 
Q 1544 4750 1819 4750 
Q 2544 4750 2975 4387 
Q 3406 4025 3406 3419 
Q 3406 3131 3298 2873 
Q 3191 2616 2906 2266 
Q 2828 2175 2409 1742 
Q 1991 1309 1228 531 
z
" transform="scale(0.015625)"/>
       </defs>
       <use xlink:href="#DejaVuSans-4a"/>
       <use xlink:href="#DejaVuSans-61" x="29.492188"/>
       <use xlink:href="#DejaVuSans-6e" x="90.771484"/>
       <use xlink:href="#DejaVuSans-20" x="154.150391"/>
       <use xlink:href="#DejaVuSans-30" x="185.9375"/>
       <use xlink:href="#DejaVuSans-31" x="249.560547"/>
       <use xlink:href="#DejaVuSans-2c" x="313.183594"/>
       <use xlink:href="#DejaVuSans-20" x="344.970703"/>
       <use xlink:href="#DejaVuSans-32" x="376.757812"/>
       <use xlink:href="#DejaVuSans-30" x="440.380859"/>
      </g>
     </g>
    </g>
    <g id="xtick_2">
     <g id="line2d_3">
      <path d="M 218.726335 622.6035 
L 218.726335 35.0835 
" clip-path="url(#p9a6212e364)" style="fill: none; stroke: #a5a391; stroke-opacity: 0.3; stroke-width: 0.8; stroke-linecap: square"/>
     </g>
     <g id="line2d_4">
      <g>
       <use xlink:href="#m8ae8edd970" x="218.726335" y="622.6035" style="stroke: #000000; stroke-width: 0.8"/>
      </g>
     </g>
     <g id="text_2">
      <!-- Jul 01, 20 -->
      <g transform="translate(135.153657 686.31438) rotate(-30) scale(0.2 -0.2)">
       <defs>
        <path id="DejaVuSans-75" d="M 544 1381 
L 544 3500 
L 1119 3500 
L 1119 1403 
Q 1119 906 1312 657 
Q 1506 409 1894 409 
Q 2359 409 2629 706 
Q 2900 1003 2900 1516 
L 2900 3500 
L 3475 3500 
L 3475 0 
L 2900 0 
L 2900 538 
Q 2691 219 2414 64 
Q 2138 -91 1772 -91 
Q 1169 -91 856 284 
Q 544 659 544 1381 
z
M 1991 3584 
L 1991 3584 
z
" transform="scale(0.015625)"/>
        <path id="DejaVuSans-6c" d="M 603 4863 
L 1178 4863 
L 1178 0 
L 603 0 
L 603 4863 
z
" transform="scale(0.015625)"/>
       </defs>
       <use xlink:href="#DejaVuSans-4a"/>
       <use xlink:href="#DejaVuSans-75" x="29.492188"/>
       <use xlink:href="#DejaVuSans-6c" x="92.871094"/>
       <use xlink:href="#DejaVuSans-20" x="120.654297"/>
       <use xlink:href="#DejaVuSans-30" x="152.441406"/>
       <use xlink:href="#DejaVuSans-31" x="216.064453"/>
       <use xlink:href="#DejaVuSans-2c" x="279.6875"/>
       <use xlink:href="#DejaVuSans-20" x="311.474609"/>
       <use xlink:href="#DejaVuSans-32" x="343.261719"/>
       <use xlink:href="#DejaVuSans-30" x="406.884766"/>
      </g>
     </g>
    </g>
    <g id="xtick_3">
     <g id="line2d_5">
      <path d="M 325.934584 622.6035 
L 325.934584 35.0835 
" clip-path="url(#p9a6212e364)" style="fill: none; stroke: #a5a391; stroke-opacity: 0.3; stroke-width: 0.8; stroke-linecap: square"/>
     </g>
     <g id="line2d_6">
      <g>
       <use xlink:href="#m8ae8edd970" x="325.934584" y="622.6035" style="stroke: #000000; stroke-width: 0.8"/>
      </g>
     </g>
     <g id="text_3">
      <!-- Jan 01, 21 -->
      <g transform="translate(236.559536 689.66438) rotate(-30) scale(0.2 -0.2)">
       <use xlink:href="#DejaVuSans-4a"/>
       <use xlink:href="#DejaVuSans-61" x="29.492188"/>
       <use xlink:href="#DejaVuSans-6e" x="90.771484"/>
       <use xlink:href="#DejaVuSans-20" x="154.150391"/>
       <use xlink:href="#DejaVuSans-30" x="185.9375"/>
       <use xlink:href="#DejaVuSans-31" x="249.560547"/>
       <use xlink:href="#DejaVuSans-2c" x="313.183594"/>
       <use xlink:href="#DejaVuSans-20" x="344.970703"/>
       <use xlink:href="#DejaVuSans-32" x="376.757812"/>
       <use xlink:href="#DejaVuSans-31" x="440.380859"/>
      </g>
     </g>
    </g>
    <g id="xtick_4">
     <g id="line2d_7">
      <path d="M 431.394872 622.6035 
L 431.394872 35.0835 
" clip-path="url(#p9a6212e364)" style="fill: none; stroke: #a5a391; stroke-opacity: 0.3; stroke-width: 0.8; stroke-linecap: square"/>
     </g>
     <g id="line2d_8">
      <g>
       <use xlink:href="#m8ae8edd970" x="431.394872" y="622.6035" style="stroke: #000000; stroke-width: 0.8"/>
      </g>
     </g>
     <g id="text_4">
      <!-- Jul 01, 21 -->
      <g transform="translate(347.822194 686.31438) rotate(-30) scale(0.2 -0.2)">
       <use xlink:href="#DejaVuSans-4a"/>
       <use xlink:href="#DejaVuSans-75" x="29.492188"/>
       <use xlink:href="#DejaVuSans-6c" x="92.871094"/>
       <use xlink:href="#DejaVuSans-20" x="120.654297"/>
       <use xlink:href="#DejaVuSans-30" x="152.441406"/>
       <use xlink:href="#DejaVuSans-31" x="216.064453"/>
       <use xlink:href="#DejaVuSans-2c" x="279.6875"/>
       <use xlink:href="#DejaVuSans-20" x="311.474609"/>
       <use xlink:href="#DejaVuSans-32" x="343.261719"/>
       <use xlink:href="#DejaVuSans-31" x="406.884766"/>
      </g>
     </g>
    </g>
    <g id="xtick_5">
     <g id="line2d_9">
      <path d="M 538.603121 622.6035 
L 538.603121 35.0835 
" clip-path="url(#p9a6212e364)" style="fill: none; stroke: #a5a391; stroke-opacity: 0.3; stroke-width: 0.8; stroke-linecap: square"/>
     </g>
     <g id="line2d_10">
      <g>
       <use xlink:href="#m8ae8edd970" x="538.603121" y="622.6035" style="stroke: #000000; stroke-width: 0.8"/>
      </g>
     </g>
     <g id="text_5">
      <!-- Jan 01, 22 -->
      <g transform="translate(449.228073 689.66438) rotate(-30) scale(0.2 -0.2)">
       <use xlink:href="#DejaVuSans-4a"/>
       <use xlink:href="#DejaVuSans-61" x="29.492188"/>
       <use xlink:href="#DejaVuSans-6e" x="90.771484"/>
       <use xlink:href="#DejaVuSans-20" x="154.150391"/>
       <use xlink:href="#DejaVuSans-30" x="185.9375"/>
       <use xlink:href="#DejaVuSans-31" x="249.560547"/>
       <use xlink:href="#DejaVuSans-2c" x="313.183594"/>
       <use xlink:href="#DejaVuSans-20" x="344.970703"/>
       <use xlink:href="#DejaVuSans-32" x="376.757812"/>
       <use xlink:href="#DejaVuSans-32" x="440.380859"/>
      </g>
     </g>
    </g>
    <g id="xtick_6">
     <g id="line2d_11">
      <path d="M 644.06341 622.6035 
L 644.06341 35.0835 
" clip-path="url(#p9a6212e364)" style="fill: none; stroke: #a5a391; stroke-opacity: 0.3; stroke-width: 0.8; stroke-linecap: square"/>
     </g>
     <g id="line2d_12">
      <g>
       <use xlink:href="#m8ae8edd970" x="644.06341" y="622.6035" style="stroke: #000000; stroke-width: 0.8"/>
      </g>
     </g>
     <g id="text_6">
      <!-- Jul 01, 22 -->
      <g transform="translate(560.490732 686.31438) rotate(-30) scale(0.2 -0.2)">
       <use xlink:href="#DejaVuSans-4a"/>
       <use xlink:href="#DejaVuSans-75" x="29.492188"/>
       <use xlink:href="#DejaVuSans-6c" x="92.871094"/>
       <use xlink:href="#DejaVuSans-20" x="120.654297"/>
       <use xlink:href="#DejaVuSans-30" x="152.441406"/>
       <use xlink:href="#DejaVuSans-31" x="216.064453"/>
       <use xlink:href="#DejaVuSans-2c" x="279.6875"/>
       <use xlink:href="#DejaVuSans-20" x="311.474609"/>
       <use xlink:href="#DejaVuSans-32" x="343.261719"/>
       <use xlink:href="#DejaVuSans-32" x="406.884766"/>
      </g>
     </g>
    </g>
    <g id="xtick_7">
     <g id="line2d_13">
      <path d="M 751.271659 622.6035 
L 751.271659 35.0835 
" clip-path="url(#p9a6212e364)" style="fill: none; stroke: #a5a391; stroke-opacity: 0.3; stroke-width: 0.8; stroke-linecap: square"/>
     </g>
     <g id="line2d_14">
      <g>
       <use xlink:href="#m8ae8edd970" x="751.271659" y="622.6035" style="stroke: #000000; stroke-width: 0.8"/>
      </g>
     </g>
     <g id="text_7">
      <!-- Jan 01, 23 -->
      <g transform="translate(661.896611 689.66438) rotate(-30) scale(0.2 -0.2)">
       <defs>
        <path id="DejaVuSans-33" d="M 2597 2516 
Q 3050 2419 3304 2112 
Q 3559 1806 3559 1356 
Q 3559 666 3084 287 
Q 2609 -91 1734 -91 
Q 1441 -91 1130 -33 
Q 819 25 488 141 
L 488 750 
Q 750 597 1062 519 
Q 1375 441 1716 441 
Q 2309 441 2620 675 
Q 2931 909 2931 1356 
Q 2931 1769 2642 2001 
Q 2353 2234 1838 2234 
L 1294 2234 
L 1294 2753 
L 1863 2753 
Q 2328 2753 2575 2939 
Q 2822 3125 2822 3475 
Q 2822 3834 2567 4026 
Q 2313 4219 1838 4219 
Q 1578 4219 1281 4162 
Q 984 4106 628 3988 
L 628 4550 
Q 988 4650 1302 4700 
Q 1616 4750 1894 4750 
Q 2613 4750 3031 4423 
Q 3450 4097 3450 3541 
Q 3450 3153 3228 2886 
Q 3006 2619 2597 2516 
z
" transform="scale(0.015625)"/>
       </defs>
       <use xlink:href="#DejaVuSans-4a"/>
       <use xlink:href="#DejaVuSans-61" x="29.492188"/>
       <use xlink:href="#DejaVuSans-6e" x="90.771484"/>
       <use xlink:href="#DejaVuSans-20" x="154.150391"/>
       <use xlink:href="#DejaVuSans-30" x="185.9375"/>
       <use xlink:href="#DejaVuSans-31" x="249.560547"/>
       <use xlink:href="#DejaVuSans-2c" x="313.183594"/>
       <use xlink:href="#DejaVuSans-20" x="344.970703"/>
       <use xlink:href="#DejaVuSans-32" x="376.757812"/>
       <use xlink:href="#DejaVuSans-33" x="440.380859"/>
      </g>
     </g>
    </g>
    <g id="xtick_8">
     <g id="line2d_15">
      <path d="M 856.731947 622.6035 
L 856.731947 35.0835 
" clip-path="url(#p9a6212e364)" style="fill: none; stroke: #a5a391; stroke-opacity: 0.3; stroke-width: 0.8; stroke-linecap: square"/>
     </g>
     <g id="line2d_16">
      <g>
       <use xlink:href="#m8ae8edd970" x="856.731947" y="622.6035" style="stroke: #000000; stroke-width: 0.8"/>
      </g>
     </g>
     <g id="text_8">
      <!-- Jul 01, 23 -->
      <g transform="translate(773.159269 686.31438) rotate(-30) scale(0.2 -0.2)">
       <use xlink:href="#DejaVuSans-4a"/>
       <use xlink:href="#DejaVuSans-75" x="29.492188"/>
       <use xlink:href="#DejaVuSans-6c" x="92.871094"/>
       <use xlink:href="#DejaVuSans-20" x="120.654297"/>
       <use xlink:href="#DejaVuSans-30" x="152.441406"/>
       <use xlink:href="#DejaVuSans-31" x="216.064453"/>
       <use xlink:href="#DejaVuSans-2c" x="279.6875"/>
       <use xlink:href="#DejaVuSans-20" x="311.474609"/>
       <use xlink:href="#DejaVuSans-32" x="343.261719"/>
       <use xlink:href="#DejaVuSans-33" x="406.884766"/>
      </g>
     </g>
    </g>
   </g>
   <g id="matplotlib.axis_2">
    <g id="ytick_1">
     <g id="line2d_17">
      <path d="M 68.023 567.42287 
L 960.823 567.42287 
" clip-path="url(#p9a6212e364)" style="fill: none; stroke: #a5a391; stroke-opacity: 0.3; stroke-width: 0.8; stroke-linecap: square"/>
     </g>
     <g id="line2d_18">
      <defs>
       <path id="m33a8b3708e" d="M 0 0 
L 3.5 0 
" style="stroke: #000000; stroke-width: 0.8"/>
      </defs>
      <g>
       <use xlink:href="#m33a8b3708e" x="68.023" y="567.42287" style="stroke: #000000; stroke-width: 0.8"/>
      </g>
     </g>
     <g id="text_9">
      <!-- 68 -->
      <g transform="translate(39.073 575.021307) scale(0.2 -0.2)">
       <defs>
        <path id="DejaVuSans-36" d="M 2113 2584 
Q 1688 2584 1439 2293 
Q 1191 2003 1191 1497 
Q 1191 994 1439 701 
Q 1688 409 2113 409 
Q 2538 409 2786 701 
Q 3034 994 3034 1497 
Q 3034 2003 2786 2293 
Q 2538 2584 2113 2584 
z
M 3366 4563 
L 3366 3988 
Q 3128 4100 2886 4159 
Q 2644 4219 2406 4219 
Q 1781 4219 1451 3797 
Q 1122 3375 1075 2522 
Q 1259 2794 1537 2939 
Q 1816 3084 2150 3084 
Q 2853 3084 3261 2657 
Q 3669 2231 3669 1497 
Q 3669 778 3244 343 
Q 2819 -91 2113 -91 
Q 1303 -91 875 529 
Q 447 1150 447 2328 
Q 447 3434 972 4092 
Q 1497 4750 2381 4750 
Q 2619 4750 2861 4703 
Q 3103 4656 3366 4563 
z
" transform="scale(0.015625)"/>
        <path id="DejaVuSans-38" d="M 2034 2216 
Q 1584 2216 1326 1975 
Q 1069 1734 1069 1313 
Q 1069 891 1326 650 
Q 1584 409 2034 409 
Q 2484 409 2743 651 
Q 3003 894 3003 1313 
Q 3003 1734 2745 1975 
Q 2488 2216 2034 2216 
z
M 1403 2484 
Q 997 2584 770 2862 
Q 544 3141 544 3541 
Q 544 4100 942 4425 
Q 1341 4750 2034 4750 
Q 2731 4750 3128 4425 
Q 3525 4100 3525 3541 
Q 3525 3141 3298 2862 
Q 3072 2584 2669 2484 
Q 3125 2378 3379 2068 
Q 3634 1759 3634 1313 
Q 3634 634 3220 271 
Q 2806 -91 2034 -91 
Q 1263 -91 848 271 
Q 434 634 434 1313 
Q 434 1759 690 2068 
Q 947 2378 1403 2484 
z
M 1172 3481 
Q 1172 3119 1398 2916 
Q 1625 2713 2034 2713 
Q 2441 2713 2670 2916 
Q 2900 3119 2900 3481 
Q 2900 3844 2670 4047 
Q 2441 4250 2034 4250 
Q 1625 4250 1398 4047 
Q 1172 3844 1172 3481 
z
" transform="scale(0.015625)"/>
       </defs>
       <use xlink:href="#DejaVuSans-36"/>
       <use xlink:href="#DejaVuSans-38" x="63.623047"/>
      </g>
     </g>
    </g>
    <g id="ytick_2">
     <g id="line2d_19">
      <path d="M 68.023 482.758139 
L 960.823 482.758139 
" clip-path="url(#p9a6212e364)" style="fill: none; stroke: #a5a391; stroke-opacity: 0.3; stroke-width: 0.8; stroke-linecap: square"/>
     </g>
     <g id="line2d_20">
      <g>
       <use xlink:href="#m33a8b3708e" x="68.023" y="482.758139" style="stroke: #000000; stroke-width: 0.8"/>
      </g>
     </g>
     <g id="text_10">
      <!-- 70 -->
      <g transform="translate(39.073 490.356577) scale(0.2 -0.2)">
       <defs>
        <path id="DejaVuSans-37" d="M 525 4666 
L 3525 4666 
L 3525 4397 
L 1831 0 
L 1172 0 
L 2766 4134 
L 525 4134 
L 525 4666 
z
" transform="scale(0.015625)"/>
       </defs>
       <use xlink:href="#DejaVuSans-37"/>
       <use xlink:href="#DejaVuSans-30" x="63.623047"/>
      </g>
     </g>
    </g>
    <g id="ytick_3">
     <g id="line2d_21">
      <path d="M 68.023 398.093409 
L 960.823 398.093409 
" clip-path="url(#p9a6212e364)" style="fill: none; stroke: #a5a391; stroke-opacity: 0.3; stroke-width: 0.8; stroke-linecap: square"/>
     </g>
     <g id="line2d_22">
      <g>
       <use xlink:href="#m33a8b3708e" x="68.023" y="398.093409" style="stroke: #000000; stroke-width: 0.8"/>
      </g>
     </g>
     <g id="text_11">
      <!-- 72 -->
      <g transform="translate(39.073 405.691846) scale(0.2 -0.2)">
       <use xlink:href="#DejaVuSans-37"/>
       <use xlink:href="#DejaVuSans-32" x="63.623047"/>
      </g>
     </g>
    </g>
    <g id="ytick_4">
     <g id="line2d_23">
      <path d="M 68.023 313.428678 
L 960.823 313.428678 
" clip-path="url(#p9a6212e364)" style="fill: none; stroke: #a5a391; stroke-opacity: 0.3; stroke-width: 0.8; stroke-linecap: square"/>
     </g>
     <g id="line2d_24">
      <g>
       <use xlink:href="#m33a8b3708e" x="68.023" y="313.428678" style="stroke: #000000; stroke-width: 0.8"/>
      </g>
     </g>
     <g id="text_12">
      <!-- 74 -->
      <g transform="translate(39.073 321.027116) scale(0.2 -0.2)">
       <defs>
        <path id="DejaVuSans-34" d="M 2419 4116 
L 825 1625 
L 2419 1625 
L 2419 4116 
z
M 2253 4666 
L 3047 4666 
L 3047 1625 
L 3713 1625 
L 3713 1100 
L 3047 1100 
L 3047 0 
L 2419 0 
L 2419 1100 
L 313 1100 
L 313 1709 
L 2253 4666 
z
" transform="scale(0.015625)"/>
       </defs>
       <use xlink:href="#DejaVuSans-37"/>
       <use xlink:href="#DejaVuSans-34" x="63.623047"/>
      </g>
     </g>
    </g>
    <g id="ytick_5">
     <g id="line2d_25">
      <path d="M 68.023 228.763948 
L 960.823 228.763948 
" clip-path="url(#p9a6212e364)" style="fill: none; stroke: #a5a391; stroke-opacity: 0.3; stroke-width: 0.8; stroke-linecap: square"/>
     </g>
     <g id="line2d_26">
      <g>
       <use xlink:href="#m33a8b3708e" x="68.023" y="228.763948" style="stroke: #000000; stroke-width: 0.8"/>
      </g>
     </g>
     <g id="text_13">
      <!-- 76 -->
      <g transform="translate(39.073 236.362385) scale(0.2 -0.2)">
       <use xlink:href="#DejaVuSans-37"/>
       <use xlink:href="#DejaVuSans-36" x="63.623047"/>
      </g>
     </g>
    </g>
    <g id="ytick_6">
     <g id="line2d_27">
      <path d="M 68.023 144.099217 
L 960.823 144.099217 
" clip-path="url(#p9a6212e364)" style="fill: none; stroke: #a5a391; stroke-opacity: 0.3; stroke-width: 0.8; stroke-linecap: square"/>
     </g>
     <g id="line2d_28">
      <g>
       <use xlink:href="#m33a8b3708e" x="68.023" y="144.099217" style="stroke: #000000; stroke-width: 0.8"/>
      </g>
     </g>
     <g id="text_14">
      <!-- 78 -->
      <g transform="translate(39.073 151.697655) scale(0.2 -0.2)">
       <use xlink:href="#DejaVuSans-37"/>
       <use xlink:href="#DejaVuSans-38" x="63.623047"/>
      </g>
     </g>
    </g>
    <g id="ytick_7">
     <g id="line2d_29">
      <path d="M 68.023 59.434487 
L 960.823 59.434487 
" clip-path="url(#p9a6212e364)" style="fill: none; stroke: #a5a391; stroke-opacity: 0.3; stroke-width: 0.8; stroke-linecap: square"/>
     </g>
     <g id="line2d_30">
      <g>
       <use xlink:href="#m33a8b3708e" x="68.023" y="59.434487" style="stroke: #000000; stroke-width: 0.8"/>
      </g>
     </g>
     <g id="text_15">
      <!-- 80 -->
      <g transform="translate(39.073 67.032925) scale(0.2 -0.2)">
       <use xlink:href="#DejaVuSans-38"/>
       <use xlink:href="#DejaVuSans-30" x="63.623047"/>
      </g>
     </g>
    </g>
    <g id="text_16">
     <!-- Muscle Mass Percentage [%] -->
     <g transform="translate(29.0835 534.56775) rotate(-90) scale(0.288 -0.288)">
      <defs>
       <path id="DejaVuSans-4d" d="M 628 4666 
L 1569 4666 
L 2759 1491 
L 3956 4666 
L 4897 4666 
L 4897 0 
L 4281 0 
L 4281 4097 
L 3078 897 
L 2444 897 
L 1241 4097 
L 1241 0 
L 628 0 
L 628 4666 
z
" transform="scale(0.015625)"/>
       <path id="DejaVuSans-73" d="M 2834 3397 
L 2834 2853 
Q 2591 2978 2328 3040 
Q 2066 3103 1784 3103 
Q 1356 3103 1142 2972 
Q 928 2841 928 2578 
Q 928 2378 1081 2264 
Q 1234 2150 1697 2047 
L 1894 2003 
Q 2506 1872 2764 1633 
Q 3022 1394 3022 966 
Q 3022 478 2636 193 
Q 2250 -91 1575 -91 
Q 1294 -91 989 -36 
Q 684 19 347 128 
L 347 722 
Q 666 556 975 473 
Q 1284 391 1588 391 
Q 1994 391 2212 530 
Q 2431 669 2431 922 
Q 2431 1156 2273 1281 
Q 2116 1406 1581 1522 
L 1381 1569 
Q 847 1681 609 1914 
Q 372 2147 372 2553 
Q 372 3047 722 3315 
Q 1072 3584 1716 3584 
Q 2034 3584 2315 3537 
Q 2597 3491 2834 3397 
z
" transform="scale(0.015625)"/>
       <path id="DejaVuSans-63" d="M 3122 3366 
L 3122 2828 
Q 2878 2963 2633 3030 
Q 2388 3097 2138 3097 
Q 1578 3097 1268 2742 
Q 959 2388 959 1747 
Q 959 1106 1268 751 
Q 1578 397 2138 397 
Q 2388 397 2633 464 
Q 2878 531 3122 666 
L 3122 134 
Q 2881 22 2623 -34 
Q 2366 -91 2075 -91 
Q 1284 -91 818 406 
Q 353 903 353 1747 
Q 353 2603 823 3093 
Q 1294 3584 2113 3584 
Q 2378 3584 2631 3529 
Q 2884 3475 3122 3366 
z
" transform="scale(0.015625)"/>
       <path id="DejaVuSans-65" d="M 3597 1894 
L 3597 1613 
L 953 1613 
Q 991 1019 1311 708 
Q 1631 397 2203 397 
Q 2534 397 2845 478 
Q 3156 559 3463 722 
L 3463 178 
Q 3153 47 2828 -22 
Q 2503 -91 2169 -91 
Q 1331 -91 842 396 
Q 353 884 353 1716 
Q 353 2575 817 3079 
Q 1281 3584 2069 3584 
Q 2775 3584 3186 3129 
Q 3597 2675 3597 1894 
z
M 3022 2063 
Q 3016 2534 2758 2815 
Q 2500 3097 2075 3097 
Q 1594 3097 1305 2825 
Q 1016 2553 972 2059 
L 3022 2063 
z
" transform="scale(0.015625)"/>
       <path id="DejaVuSans-50" d="M 1259 4147 
L 1259 2394 
L 2053 2394 
Q 2494 2394 2734 2622 
Q 2975 2850 2975 3272 
Q 2975 3691 2734 3919 
Q 2494 4147 2053 4147 
L 1259 4147 
z
M 628 4666 
L 2053 4666 
Q 2838 4666 3239 4311 
Q 3641 3956 3641 3272 
Q 3641 2581 3239 2228 
Q 2838 1875 2053 1875 
L 1259 1875 
L 1259 0 
L 628 0 
L 628 4666 
z
" transform="scale(0.015625)"/>
       <path id="DejaVuSans-72" d="M 2631 2963 
Q 2534 3019 2420 3045 
Q 2306 3072 2169 3072 
Q 1681 3072 1420 2755 
Q 1159 2438 1159 1844 
L 1159 0 
L 581 0 
L 581 3500 
L 1159 3500 
L 1159 2956 
Q 1341 3275 1631 3429 
Q 1922 3584 2338 3584 
Q 2397 3584 2469 3576 
Q 2541 3569 2628 3553 
L 2631 2963 
z
" transform="scale(0.015625)"/>
       <path id="DejaVuSans-74" d="M 1172 4494 
L 1172 3500 
L 2356 3500 
L 2356 3053 
L 1172 3053 
L 1172 1153 
Q 1172 725 1289 603 
Q 1406 481 1766 481 
L 2356 481 
L 2356 0 
L 1766 0 
Q 1100 0 847 248 
Q 594 497 594 1153 
L 594 3053 
L 172 3053 
L 172 3500 
L 594 3500 
L 594 4494 
L 1172 4494 
z
" transform="scale(0.015625)"/>
       <path id="DejaVuSans-67" d="M 2906 1791 
Q 2906 2416 2648 2759 
Q 2391 3103 1925 3103 
Q 1463 3103 1205 2759 
Q 947 2416 947 1791 
Q 947 1169 1205 825 
Q 1463 481 1925 481 
Q 2391 481 2648 825 
Q 2906 1169 2906 1791 
z
M 3481 434 
Q 3481 -459 3084 -895 
Q 2688 -1331 1869 -1331 
Q 1566 -1331 1297 -1286 
Q 1028 -1241 775 -1147 
L 775 -588 
Q 1028 -725 1275 -790 
Q 1522 -856 1778 -856 
Q 2344 -856 2625 -561 
Q 2906 -266 2906 331 
L 2906 616 
Q 2728 306 2450 153 
Q 2172 0 1784 0 
Q 1141 0 747 490 
Q 353 981 353 1791 
Q 353 2603 747 3093 
Q 1141 3584 1784 3584 
Q 2172 3584 2450 3431 
Q 2728 3278 2906 2969 
L 2906 3500 
L 3481 3500 
L 3481 434 
z
" transform="scale(0.015625)"/>
       <path id="DejaVuSans-5b" d="M 550 4863 
L 1875 4863 
L 1875 4416 
L 1125 4416 
L 1125 -397 
L 1875 -397 
L 1875 -844 
L 550 -844 
L 550 4863 
z
" transform="scale(0.015625)"/>
       <path id="DejaVuSans-25" d="M 4653 2053 
Q 4381 2053 4226 1822 
Q 4072 1591 4072 1178 
Q 4072 772 4226 539 
Q 4381 306 4653 306 
Q 4919 306 5073 539 
Q 5228 772 5228 1178 
Q 5228 1588 5073 1820 
Q 4919 2053 4653 2053 
z
M 4653 2450 
Q 5147 2450 5437 2106 
Q 5728 1763 5728 1178 
Q 5728 594 5436 251 
Q 5144 -91 4653 -91 
Q 4153 -91 3862 251 
Q 3572 594 3572 1178 
Q 3572 1766 3864 2108 
Q 4156 2450 4653 2450 
z
M 1428 4353 
Q 1159 4353 1004 4120 
Q 850 3888 850 3481 
Q 850 3069 1003 2837 
Q 1156 2606 1428 2606 
Q 1700 2606 1854 2837 
Q 2009 3069 2009 3481 
Q 2009 3884 1853 4118 
Q 1697 4353 1428 4353 
z
M 4250 4750 
L 4750 4750 
L 1831 -91 
L 1331 -91 
L 4250 4750 
z
M 1428 4750 
Q 1922 4750 2215 4408 
Q 2509 4066 2509 3481 
Q 2509 2891 2217 2550 
Q 1925 2209 1428 2209 
Q 931 2209 642 2551 
Q 353 2894 353 3481 
Q 353 4063 643 4406 
Q 934 4750 1428 4750 
z
" transform="scale(0.015625)"/>
       <path id="DejaVuSans-5d" d="M 1947 4863 
L 1947 -844 
L 622 -844 
L 622 -397 
L 1369 -397 
L 1369 4416 
L 622 4416 
L 622 4863 
L 1947 4863 
z
" transform="scale(0.015625)"/>
      </defs>
      <use xlink:href="#DejaVuSans-4d"/>
      <use xlink:href="#DejaVuSans-75" x="86.279297"/>
      <use xlink:href="#DejaVuSans-73" x="149.658203"/>
      <use xlink:href="#DejaVuSans-63" x="201.757812"/>
      <use xlink:href="#DejaVuSans-6c" x="256.738281"/>
      <use xlink:href="#DejaVuSans-65" x="284.521484"/>
      <use xlink:href="#DejaVuSans-20" x="346.044922"/>
      <use xlink:href="#DejaVuSans-4d" x="377.832031"/>
      <use xlink:href="#DejaVuSans-61" x="464.111328"/>
      <use xlink:href="#DejaVuSans-73" x="525.390625"/>
      <use xlink:href="#DejaVuSans-73" x="577.490234"/>
      <use xlink:href="#DejaVuSans-20" x="629.589844"/>
      <use xlink:href="#DejaVuSans-50" x="661.376953"/>
      <use xlink:href="#DejaVuSans-65" x="718.054688"/>
      <use xlink:href="#DejaVuSans-72" x="779.578125"/>
      <use xlink:href="#DejaVuSans-63" x="818.441406"/>
      <use xlink:href="#DejaVuSans-65" x="873.421875"/>
      <use xlink:href="#DejaVuSans-6e" x="934.945312"/>
      <use xlink:href="#DejaVuSans-74" x="998.324219"/>
      <use xlink:href="#DejaVuSans-61" x="1037.533203"/>
      <use xlink:href="#DejaVuSans-67" x="1098.8125"/>
      <use xlink:href="#DejaVuSans-65" x="1162.289062"/>
      <use xlink:href="#DejaVuSans-20" x="1223.8125"/>
      <use xlink:href="#DejaVuSans-5b" x="1255.599609"/>
      <use xlink:href="#DejaVuSans-25" x="1294.613281"/>
      <use xlink:href="#DejaVuSans-5d" x="1389.632812"/>
     </g>
    </g>
   </g>
   <g id="line2d_31">
    <path d="M 108.604818 302.60924 
L 116.761968 476.377839 
L 120.840542 273.530731 
L 124.919117 296.63789 
L 128.997692 243.855031 
L 133.076266 329.967817 
L 137.154841 260.106462 
L 141.233416 249.215508 
L 145.31199 250.832078 
L 149.390565 255.311753 
L 153.46914 300.678207 
L 157.547714 321.194066 
L 161.626289 247.508885 
L 165.704864 236.398098 
L 169.783439 284.475582 
L 173.862013 243.50676 
L 177.940588 206.326681 
L 182.019163 184.125567 
L 186.097737 174.34626 
L 190.176312 191.382992 
L 194.254887 187.079521 
L 198.333461 220.0062 
L 202.412036 240.106019 
L 206.490611 224.268316 
L 210.569185 234.46398 
L 214.64776 222.421265 
L 218.726335 219.614889 
L 222.80491 202.983274 
L 226.883484 246.513327 
L 230.962059 262.014235 
L 235.040634 252.035873 
L 239.119208 237.264882 
L 243.197783 224.233755 
L 247.276358 249.284518 
L 251.354932 222.014363 
L 255.433507 269.835764 
L 259.512082 295.622269 
L 263.590656 265.549418 
L 267.669231 266.508174 
L 271.747806 232.225156 
L 275.826381 270.900211 
L 279.904955 286.776933 
L 283.98353 311.429264 
L 288.062105 274.521342 
L 292.140679 323.149643 
L 296.219254 348.36982 
L 300.297829 262.349957 
L 304.376403 290.709051 
L 308.454978 294.643288 
L 312.533553 358.864568 
L 316.612127 322.149414 
L 320.690702 318.177101 
L 324.769277 328.631363 
L 328.847852 304.281793 
L 332.926426 276.189441 
L 337.005001 300.351526 
L 341.083576 298.912112 
L 345.16215 278.213432 
L 349.240725 310.319105 
L 353.3193 321.963711 
L 357.397874 298.913806 
L 361.476449 300.157433 
L 365.555024 393.195252 
L 369.633598 372.574056 
L 373.712173 284.310162 
L 377.790748 325.708562 
L 381.869323 305.627042 
L 385.947897 346.003901 
L 390.026472 366.323267 
L 394.105047 331.29421 
L 398.183621 338.614804 
L 402.262196 307.201586 
L 406.340771 295.203583 
L 410.419345 305.632546 
L 414.49792 309.600135 
L 418.576495 304.822804 
L 422.655069 258.065044 
L 426.733644 292.942925 
L 430.812219 222.709378 
L 434.890794 199.389177 
L 443.047943 272.33992 
L 447.126518 267.989873 
L 451.205092 236.04962 
L 455.283667 284.648584 
L 475.67654 274.809679 
L 479.755115 274.821308 
L 483.83369 341.88406 
L 487.912265 283.234222 
L 491.990839 336.350803 
L 508.305138 314.931603 
L 512.383713 332.320808 
L 516.462287 282.288772 
L 545.01231 340.767595 
L 549.090885 369.888297 
L 553.16946 346.673098 
L 557.248034 327.042794 
L 561.326609 265.211755 
L 565.405184 280.011071 
L 569.483758 344.155333 
L 573.562333 323.118444 
L 577.640908 350.944786 
L 581.719482 294.217768 
L 585.798057 327.883632 
L 589.876632 335.008438 
L 606.190931 372.591637 
L 610.269505 378.232575 
L 614.34808 371.474156 
L 618.426655 324.644666 
L 622.505229 427.28125 
L 642.898103 396.112947 
L 687.762424 336.500939 
L 708.155298 357.385307 
L 712.233873 342.500303 
L 720.391022 405.744443 
L 732.626746 343.513625 
L 785.648217 415.411195 
L 920.241182 104.12132 
" clip-path="url(#p9a6212e364)" style="fill: none; stroke: #a52a2a; stroke-width: 1.5; stroke-linecap: square"/>
    <defs>
     <path id="m645ef8303e" d="M 0 -3 
L -0.673542 -0.927051 
L -2.85317 -0.927051 
L -1.089814 0.354102 
L -1.763356 2.427051 
L -0 1.145898 
L 1.763356 2.427051 
L 1.089814 0.354102 
L 2.85317 -0.927051 
L 0.673542 -0.927051 
z
" style="stroke: #a52a2a; stroke-linejoin: bevel"/>
    </defs>
    <g clip-path="url(#p9a6212e364)">
     <use xlink:href="#m645ef8303e" x="108.604818" y="302.60924" style="fill: #a52a2a; stroke: #a52a2a; stroke-linejoin: bevel"/>
     <use xlink:href="#m645ef8303e" x="116.761968" y="476.377839" style="fill: #a52a2a; stroke: #a52a2a; stroke-linejoin: bevel"/>
     <use xlink:href="#m645ef8303e" x="120.840542" y="273.530731" style="fill: #a52a2a; stroke: #a52a2a; stroke-linejoin: bevel"/>
     <use xlink:href="#m645ef8303e" x="124.919117" y="296.63789" style="fill: #a52a2a; stroke: #a52a2a; stroke-linejoin: bevel"/>
     <use xlink:href="#m645ef8303e" x="128.997692" y="243.855031" style="fill: #a52a2a; stroke: #a52a2a; stroke-linejoin: bevel"/>
     <use xlink:href="#m645ef8303e" x="133.076266" y="329.967817" style="fill: #a52a2a; stroke: #a52a2a; stroke-linejoin: bevel"/>
     <use xlink:href="#m645ef8303e" x="137.154841" y="260.106462" style="fill: #a52a2a; stroke: #a52a2a; stroke-linejoin: bevel"/>
     <use xlink:href="#m645ef8303e" x="141.233416" y="249.215508" style="fill: #a52a2a; stroke: #a52a2a; stroke-linejoin: bevel"/>
     <use xlink:href="#m645ef8303e" x="145.31199" y="250.832078" style="fill: #a52a2a; stroke: #a52a2a; stroke-linejoin: bevel"/>
     <use xlink:href="#m645ef8303e" x="149.390565" y="255.311753" style="fill: #a52a2a; stroke: #a52a2a; stroke-linejoin: bevel"/>
     <use xlink:href="#m645ef8303e" x="153.46914" y="300.678207" style="fill: #a52a2a; stroke: #a52a2a; stroke-linejoin: bevel"/>
     <use xlink:href="#m645ef8303e" x="157.547714" y="321.194066" style="fill: #a52a2a; stroke: #a52a2a; stroke-linejoin: bevel"/>
     <use xlink:href="#m645ef8303e" x="161.626289" y="247.508885" style="fill: #a52a2a; stroke: #a52a2a; stroke-linejoin: bevel"/>
     <use xlink:href="#m645ef8303e" x="165.704864" y="236.398098" style="fill: #a52a2a; stroke: #a52a2a; stroke-linejoin: bevel"/>
     <use xlink:href="#m645ef8303e" x="169.783439" y="284.475582" style="fill: #a52a2a; stroke: #a52a2a; stroke-linejoin: bevel"/>
     <use xlink:href="#m645ef8303e" x="173.862013" y="243.50676" style="fill: #a52a2a; stroke: #a52a2a; stroke-linejoin: bevel"/>
     <use xlink:href="#m645ef8303e" x="177.940588" y="206.326681" style="fill: #a52a2a; stroke: #a52a2a; stroke-linejoin: bevel"/>
     <use xlink:href="#m645ef8303e" x="182.019163" y="184.125567" style="fill: #a52a2a; stroke: #a52a2a; stroke-linejoin: bevel"/>
     <use xlink:href="#m645ef8303e" x="186.097737" y="174.34626" style="fill: #a52a2a; stroke: #a52a2a; stroke-linejoin: bevel"/>
     <use xlink:href="#m645ef8303e" x="190.176312" y="191.382992" style="fill: #a52a2a; stroke: #a52a2a; stroke-linejoin: bevel"/>
     <use xlink:href="#m645ef8303e" x="194.254887" y="187.079521" style="fill: #a52a2a; stroke: #a52a2a; stroke-linejoin: bevel"/>
     <use xlink:href="#m645ef8303e" x="198.333461" y="220.0062" style="fill: #a52a2a; stroke: #a52a2a; stroke-linejoin: bevel"/>
     <use xlink:href="#m645ef8303e" x="202.412036" y="240.106019" style="fill: #a52a2a; stroke: #a52a2a; stroke-linejoin: bevel"/>
     <use xlink:href="#m645ef8303e" x="206.490611" y="224.268316" style="fill: #a52a2a; stroke: #a52a2a; stroke-linejoin: bevel"/>
     <use xlink:href="#m645ef8303e" x="210.569185" y="234.46398" style="fill: #a52a2a; stroke: #a52a2a; stroke-linejoin: bevel"/>
     <use xlink:href="#m645ef8303e" x="214.64776" y="222.421265" style="fill: #a52a2a; stroke: #a52a2a; stroke-linejoin: bevel"/>
     <use xlink:href="#m645ef8303e" x="218.726335" y="219.614889" style="fill: #a52a2a; stroke: #a52a2a; stroke-linejoin: bevel"/>
     <use xlink:href="#m645ef8303e" x="222.80491" y="202.983274" style="fill: #a52a2a; stroke: #a52a2a; stroke-linejoin: bevel"/>
     <use xlink:href="#m645ef8303e" x="226.883484" y="246.513327" style="fill: #a52a2a; stroke: #a52a2a; stroke-linejoin: bevel"/>
     <use xlink:href="#m645ef8303e" x="230.962059" y="262.014235" style="fill: #a52a2a; stroke: #a52a2a; stroke-linejoin: bevel"/>
     <use xlink:href="#m645ef8303e" x="235.040634" y="252.035873" style="fill: #a52a2a; stroke: #a52a2a; stroke-linejoin: bevel"/>
     <use xlink:href="#m645ef8303e" x="239.119208" y="237.264882" style="fill: #a52a2a; stroke: #a52a2a; stroke-linejoin: bevel"/>
     <use xlink:href="#m645ef8303e" x="243.197783" y="224.233755" style="fill: #a52a2a; stroke: #a52a2a; stroke-linejoin: bevel"/>
     <use xlink:href="#m645ef8303e" x="247.276358" y="249.284518" style="fill: #a52a2a; stroke: #a52a2a; stroke-linejoin: bevel"/>
     <use xlink:href="#m645ef8303e" x="251.354932" y="222.014363" style="fill: #a52a2a; stroke: #a52a2a; stroke-linejoin: bevel"/>
     <use xlink:href="#m645ef8303e" x="255.433507" y="269.835764" style="fill: #a52a2a; stroke: #a52a2a; stroke-linejoin: bevel"/>
     <use xlink:href="#m645ef8303e" x="259.512082" y="295.622269" style="fill: #a52a2a; stroke: #a52a2a; stroke-linejoin: bevel"/>
     <use xlink:href="#m645ef8303e" x="263.590656" y="265.549418" style="fill: #a52a2a; stroke: #a52a2a; stroke-linejoin: bevel"/>
     <use xlink:href="#m645ef8303e" x="267.669231" y="266.508174" style="fill: #a52a2a; stroke: #a52a2a; stroke-linejoin: bevel"/>
     <use xlink:href="#m645ef8303e" x="271.747806" y="232.225156" style="fill: #a52a2a; stroke: #a52a2a; stroke-linejoin: bevel"/>
     <use xlink:href="#m645ef8303e" x="275.826381" y="270.900211" style="fill: #a52a2a; stroke: #a52a2a; stroke-linejoin: bevel"/>
     <use xlink:href="#m645ef8303e" x="279.904955" y="286.776933" style="fill: #a52a2a; stroke: #a52a2a; stroke-linejoin: bevel"/>
     <use xlink:href="#m645ef8303e" x="283.98353" y="311.429264" style="fill: #a52a2a; stroke: #a52a2a; stroke-linejoin: bevel"/>
     <use xlink:href="#m645ef8303e" x="288.062105" y="274.521342" style="fill: #a52a2a; stroke: #a52a2a; stroke-linejoin: bevel"/>
     <use xlink:href="#m645ef8303e" x="292.140679" y="323.149643" style="fill: #a52a2a; stroke: #a52a2a; stroke-linejoin: bevel"/>
     <use xlink:href="#m645ef8303e" x="296.219254" y="348.36982" style="fill: #a52a2a; stroke: #a52a2a; stroke-linejoin: bevel"/>
     <use xlink:href="#m645ef8303e" x="300.297829" y="262.349957" style="fill: #a52a2a; stroke: #a52a2a; stroke-linejoin: bevel"/>
     <use xlink:href="#m645ef8303e" x="304.376403" y="290.709051" style="fill: #a52a2a; stroke: #a52a2a; stroke-linejoin: bevel"/>
     <use xlink:href="#m645ef8303e" x="308.454978" y="294.643288" style="fill: #a52a2a; stroke: #a52a2a; stroke-linejoin: bevel"/>
     <use xlink:href="#m645ef8303e" x="312.533553" y="358.864568" style="fill: #a52a2a; stroke: #a52a2a; stroke-linejoin: bevel"/>
     <use xlink:href="#m645ef8303e" x="316.612127" y="322.149414" style="fill: #a52a2a; stroke: #a52a2a; stroke-linejoin: bevel"/>
     <use xlink:href="#m645ef8303e" x="320.690702" y="318.177101" style="fill: #a52a2a; stroke: #a52a2a; stroke-linejoin: bevel"/>
     <use xlink:href="#m645ef8303e" x="324.769277" y="328.631363" style="fill: #a52a2a; stroke: #a52a2a; stroke-linejoin: bevel"/>
     <use xlink:href="#m645ef8303e" x="328.847852" y="304.281793" style="fill: #a52a2a; stroke: #a52a2a; stroke-linejoin: bevel"/>
     <use xlink:href="#m645ef8303e" x="332.926426" y="276.189441" style="fill: #a52a2a; stroke: #a52a2a; stroke-linejoin: bevel"/>
     <use xlink:href="#m645ef8303e" x="337.005001" y="300.351526" style="fill: #a52a2a; stroke: #a52a2a; stroke-linejoin: bevel"/>
     <use xlink:href="#m645ef8303e" x="341.083576" y="298.912112" style="fill: #a52a2a; stroke: #a52a2a; stroke-linejoin: bevel"/>
     <use xlink:href="#m645ef8303e" x="345.16215" y="278.213432" style="fill: #a52a2a; stroke: #a52a2a; stroke-linejoin: bevel"/>
     <use xlink:href="#m645ef8303e" x="349.240725" y="310.319105" style="fill: #a52a2a; stroke: #a52a2a; stroke-linejoin: bevel"/>
     <use xlink:href="#m645ef8303e" x="353.3193" y="321.963711" style="fill: #a52a2a; stroke: #a52a2a; stroke-linejoin: bevel"/>
     <use xlink:href="#m645ef8303e" x="357.397874" y="298.913806" style="fill: #a52a2a; stroke: #a52a2a; stroke-linejoin: bevel"/>
     <use xlink:href="#m645ef8303e" x="361.476449" y="300.157433" style="fill: #a52a2a; stroke: #a52a2a; stroke-linejoin: bevel"/>
     <use xlink:href="#m645ef8303e" x="365.555024" y="393.195252" style="fill: #a52a2a; stroke: #a52a2a; stroke-linejoin: bevel"/>
     <use xlink:href="#m645ef8303e" x="369.633598" y="372.574056" style="fill: #a52a2a; stroke: #a52a2a; stroke-linejoin: bevel"/>
     <use xlink:href="#m645ef8303e" x="373.712173" y="284.310162" style="fill: #a52a2a; stroke: #a52a2a; stroke-linejoin: bevel"/>
     <use xlink:href="#m645ef8303e" x="377.790748" y="325.708562" style="fill: #a52a2a; stroke: #a52a2a; stroke-linejoin: bevel"/>
     <use xlink:href="#m645ef8303e" x="381.869323" y="305.627042" style="fill: #a52a2a; stroke: #a52a2a; stroke-linejoin: bevel"/>
     <use xlink:href="#m645ef8303e" x="385.947897" y="346.003901" style="fill: #a52a2a; stroke: #a52a2a; stroke-linejoin: bevel"/>
     <use xlink:href="#m645ef8303e" x="390.026472" y="366.323267" style="fill: #a52a2a; stroke: #a52a2a; stroke-linejoin: bevel"/>
     <use xlink:href="#m645ef8303e" x="394.105047" y="331.29421" style="fill: #a52a2a; stroke: #a52a2a; stroke-linejoin: bevel"/>
     <use xlink:href="#m645ef8303e" x="398.183621" y="338.614804" style="fill: #a52a2a; stroke: #a52a2a; stroke-linejoin: bevel"/>
     <use xlink:href="#m645ef8303e" x="402.262196" y="307.201586" style="fill: #a52a2a; stroke: #a52a2a; stroke-linejoin: bevel"/>
     <use xlink:href="#m645ef8303e" x="406.340771" y="295.203583" style="fill: #a52a2a; stroke: #a52a2a; stroke-linejoin: bevel"/>
     <use xlink:href="#m645ef8303e" x="410.419345" y="305.632546" style="fill: #a52a2a; stroke: #a52a2a; stroke-linejoin: bevel"/>
     <use xlink:href="#m645ef8303e" x="414.49792" y="309.600135" style="fill: #a52a2a; stroke: #a52a2a; stroke-linejoin: bevel"/>
     <use xlink:href="#m645ef8303e" x="418.576495" y="304.822804" style="fill: #a52a2a; stroke: #a52a2a; stroke-linejoin: bevel"/>
     <use xlink:href="#m645ef8303e" x="422.655069" y="258.065044" style="fill: #a52a2a; stroke: #a52a2a; stroke-linejoin: bevel"/>
     <use xlink:href="#m645ef8303e" x="426.733644" y="292.942925" style="fill: #a52a2a; stroke: #a52a2a; stroke-linejoin: bevel"/>
     <use xlink:href="#m645ef8303e" x="430.812219" y="222.709378" style="fill: #a52a2a; stroke: #a52a2a; stroke-linejoin: bevel"/>
     <use xlink:href="#m645ef8303e" x="434.890794" y="199.389177" style="fill: #a52a2a; stroke: #a52a2a; stroke-linejoin: bevel"/>
     <use xlink:href="#m645ef8303e" x="443.047943" y="272.33992" style="fill: #a52a2a; stroke: #a52a2a; stroke-linejoin: bevel"/>
     <use xlink:href="#m645ef8303e" x="447.126518" y="267.989873" style="fill: #a52a2a; stroke: #a52a2a; stroke-linejoin: bevel"/>
     <use xlink:href="#m645ef8303e" x="451.205092" y="236.04962" style="fill: #a52a2a; stroke: #a52a2a; stroke-linejoin: bevel"/>
     <use xlink:href="#m645ef8303e" x="455.283667" y="284.648584" style="fill: #a52a2a; stroke: #a52a2a; stroke-linejoin: bevel"/>
     <use xlink:href="#m645ef8303e" x="475.67654" y="274.809679" style="fill: #a52a2a; stroke: #a52a2a; stroke-linejoin: bevel"/>
     <use xlink:href="#m645ef8303e" x="479.755115" y="274.821308" style="fill: #a52a2a; stroke: #a52a2a; stroke-linejoin: bevel"/>
     <use xlink:href="#m645ef8303e" x="483.83369" y="341.88406" style="fill: #a52a2a; stroke: #a52a2a; stroke-linejoin: bevel"/>
     <use xlink:href="#m645ef8303e" x="487.912265" y="283.234222" style="fill: #a52a2a; stroke: #a52a2a; stroke-linejoin: bevel"/>
     <use xlink:href="#m645ef8303e" x="491.990839" y="336.350803" style="fill: #a52a2a; stroke: #a52a2a; stroke-linejoin: bevel"/>
     <use xlink:href="#m645ef8303e" x="508.305138" y="314.931603" style="fill: #a52a2a; stroke: #a52a2a; stroke-linejoin: bevel"/>
     <use xlink:href="#m645ef8303e" x="512.383713" y="332.320808" style="fill: #a52a2a; stroke: #a52a2a; stroke-linejoin: bevel"/>
     <use xlink:href="#m645ef8303e" x="516.462287" y="282.288772" style="fill: #a52a2a; stroke: #a52a2a; stroke-linejoin: bevel"/>
     <use xlink:href="#m645ef8303e" x="545.01231" y="340.767595" style="fill: #a52a2a; stroke: #a52a2a; stroke-linejoin: bevel"/>
     <use xlink:href="#m645ef8303e" x="549.090885" y="369.888297" style="fill: #a52a2a; stroke: #a52a2a; stroke-linejoin: bevel"/>
     <use xlink:href="#m645ef8303e" x="553.16946" y="346.673098" style="fill: #a52a2a; stroke: #a52a2a; stroke-linejoin: bevel"/>
     <use xlink:href="#m645ef8303e" x="557.248034" y="327.042794" style="fill: #a52a2a; stroke: #a52a2a; stroke-linejoin: bevel"/>
     <use xlink:href="#m645ef8303e" x="561.326609" y="265.211755" style="fill: #a52a2a; stroke: #a52a2a; stroke-linejoin: bevel"/>
     <use xlink:href="#m645ef8303e" x="565.405184" y="280.011071" style="fill: #a52a2a; stroke: #a52a2a; stroke-linejoin: bevel"/>
     <use xlink:href="#m645ef8303e" x="569.483758" y="344.155333" style="fill: #a52a2a; stroke: #a52a2a; stroke-linejoin: bevel"/>
     <use xlink:href="#m645ef8303e" x="573.562333" y="323.118444" style="fill: #a52a2a; stroke: #a52a2a; stroke-linejoin: bevel"/>
     <use xlink:href="#m645ef8303e" x="577.640908" y="350.944786" style="fill: #a52a2a; stroke: #a52a2a; stroke-linejoin: bevel"/>
     <use xlink:href="#m645ef8303e" x="581.719482" y="294.217768" style="fill: #a52a2a; stroke: #a52a2a; stroke-linejoin: bevel"/>
     <use xlink:href="#m645ef8303e" x="585.798057" y="327.883632" style="fill: #a52a2a; stroke: #a52a2a; stroke-linejoin: bevel"/>
     <use xlink:href="#m645ef8303e" x="589.876632" y="335.008438" style="fill: #a52a2a; stroke: #a52a2a; stroke-linejoin: bevel"/>
     <use xlink:href="#m645ef8303e" x="606.190931" y="372.591637" style="fill: #a52a2a; stroke: #a52a2a; stroke-linejoin: bevel"/>
     <use xlink:href="#m645ef8303e" x="610.269505" y="378.232575" style="fill: #a52a2a; stroke: #a52a2a; stroke-linejoin: bevel"/>
     <use xlink:href="#m645ef8303e" x="614.34808" y="371.474156" style="fill: #a52a2a; stroke: #a52a2a; stroke-linejoin: bevel"/>
     <use xlink:href="#m645ef8303e" x="618.426655" y="324.644666" style="fill: #a52a2a; stroke: #a52a2a; stroke-linejoin: bevel"/>
     <use xlink:href="#m645ef8303e" x="622.505229" y="427.28125" style="fill: #a52a2a; stroke: #a52a2a; stroke-linejoin: bevel"/>
     <use xlink:href="#m645ef8303e" x="642.898103" y="396.112947" style="fill: #a52a2a; stroke: #a52a2a; stroke-linejoin: bevel"/>
     <use xlink:href="#m645ef8303e" x="687.762424" y="336.500939" style="fill: #a52a2a; stroke: #a52a2a; stroke-linejoin: bevel"/>
     <use xlink:href="#m645ef8303e" x="708.155298" y="357.385307" style="fill: #a52a2a; stroke: #a52a2a; stroke-linejoin: bevel"/>
     <use xlink:href="#m645ef8303e" x="712.233873" y="342.500303" style="fill: #a52a2a; stroke: #a52a2a; stroke-linejoin: bevel"/>
     <use xlink:href="#m645ef8303e" x="720.391022" y="405.744443" style="fill: #a52a2a; stroke: #a52a2a; stroke-linejoin: bevel"/>
     <use xlink:href="#m645ef8303e" x="732.626746" y="343.513625" style="fill: #a52a2a; stroke: #a52a2a; stroke-linejoin: bevel"/>
     <use xlink:href="#m645ef8303e" x="785.648217" y="415.411195" style="fill: #a52a2a; stroke: #a52a2a; stroke-linejoin: bevel"/>
     <use xlink:href="#m645ef8303e" x="920.241182" y="104.12132" style="fill: #a52a2a; stroke: #a52a2a; stroke-linejoin: bevel"/>
    </g>
   </g>
   <g id="patch_3">
    <path d="M 68.023 622.6035 
L 68.023 35.0835 
" style="fill: none; stroke: #000000; stroke-width: 0.8; stroke-linejoin: miter; stroke-linecap: square"/>
   </g>
   <g id="patch_4">
    <path d="M 960.823 622.6035 
L 960.823 35.0835 
" style="fill: none; stroke: #000000; stroke-width: 0.8; stroke-linejoin: miter; stroke-linecap: square"/>
   </g>
   <g id="patch_5">
    <path d="M 68.023 622.6035 
L 960.823 622.6035 
" style="fill: none; stroke: #000000; stroke-width: 0.8; stroke-linejoin: miter; stroke-linecap: square"/>
   </g>
   <g id="patch_6">
    <path d="M 68.023 35.0835 
L 960.823 35.0835 
" style="fill: none; stroke: #000000; stroke-width: 0.8; stroke-linejoin: miter; stroke-linecap: square"/>
   </g>
   <g id="text_17">
    <!-- Body Muscle Mass Percentage -->
    <g transform="translate(297.262 29.0835) scale(0.288 -0.288)">
     <defs>
      <path id="DejaVuSans-42" d="M 1259 2228 
L 1259 519 
L 2272 519 
Q 2781 519 3026 730 
Q 3272 941 3272 1375 
Q 3272 1813 3026 2020 
Q 2781 2228 2272 2228 
L 1259 2228 
z
M 1259 4147 
L 1259 2741 
L 2194 2741 
Q 2656 2741 2882 2914 
Q 3109 3088 3109 3444 
Q 3109 3797 2882 3972 
Q 2656 4147 2194 4147 
L 1259 4147 
z
M 628 4666 
L 2241 4666 
Q 2963 4666 3353 4366 
Q 3744 4066 3744 3513 
Q 3744 3084 3544 2831 
Q 3344 2578 2956 2516 
Q 3422 2416 3680 2098 
Q 3938 1781 3938 1306 
Q 3938 681 3513 340 
Q 3088 0 2303 0 
L 628 0 
L 628 4666 
z
" transform="scale(0.015625)"/>
      <path id="DejaVuSans-6f" d="M 1959 3097 
Q 1497 3097 1228 2736 
Q 959 2375 959 1747 
Q 959 1119 1226 758 
Q 1494 397 1959 397 
Q 2419 397 2687 759 
Q 2956 1122 2956 1747 
Q 2956 2369 2687 2733 
Q 2419 3097 1959 3097 
z
M 1959 3584 
Q 2709 3584 3137 3096 
Q 3566 2609 3566 1747 
Q 3566 888 3137 398 
Q 2709 -91 1959 -91 
Q 1206 -91 779 398 
Q 353 888 353 1747 
Q 353 2609 779 3096 
Q 1206 3584 1959 3584 
z
" transform="scale(0.015625)"/>
      <path id="DejaVuSans-64" d="M 2906 2969 
L 2906 4863 
L 3481 4863 
L 3481 0 
L 2906 0 
L 2906 525 
Q 2725 213 2448 61 
Q 2172 -91 1784 -91 
Q 1150 -91 751 415 
Q 353 922 353 1747 
Q 353 2572 751 3078 
Q 1150 3584 1784 3584 
Q 2172 3584 2448 3432 
Q 2725 3281 2906 2969 
z
M 947 1747 
Q 947 1113 1208 752 
Q 1469 391 1925 391 
Q 2381 391 2643 752 
Q 2906 1113 2906 1747 
Q 2906 2381 2643 2742 
Q 2381 3103 1925 3103 
Q 1469 3103 1208 2742 
Q 947 2381 947 1747 
z
" transform="scale(0.015625)"/>
      <path id="DejaVuSans-79" d="M 2059 -325 
Q 1816 -950 1584 -1140 
Q 1353 -1331 966 -1331 
L 506 -1331 
L 506 -850 
L 844 -850 
Q 1081 -850 1212 -737 
Q 1344 -625 1503 -206 
L 1606 56 
L 191 3500 
L 800 3500 
L 1894 763 
L 2988 3500 
L 3597 3500 
L 2059 -325 
z
" transform="scale(0.015625)"/>
     </defs>
     <use xlink:href="#DejaVuSans-42"/>
     <use xlink:href="#DejaVuSans-6f" x="68.603516"/>
     <use xlink:href="#DejaVuSans-64" x="129.785156"/>
     <use xlink:href="#DejaVuSans-79" x="193.261719"/>
     <use xlink:href="#DejaVuSans-20" x="252.441406"/>
     <use xlink:href="#DejaVuSans-4d" x="284.228516"/>
     <use xlink:href="#DejaVuSans-75" x="370.507812"/>
     <use xlink:href="#DejaVuSans-73" x="433.886719"/>
     <use xlink:href="#DejaVuSans-63" x="485.986328"/>
     <use xlink:href="#DejaVuSans-6c" x="540.966797"/>
     <use xlink:href="#DejaVuSans-65" x="568.75"/>
     <use xlink:href="#DejaVuSans-20" x="630.273438"/>
     <use xlink:href="#DejaVuSans-4d" x="662.060547"/>
     <use xlink:href="#DejaVuSans-61" x="748.339844"/>
     <use xlink:href="#DejaVuSans-73" x="809.619141"/>
     <use xlink:href="#DejaVuSans-73" x="861.71875"/>
     <use xlink:href="#DejaVuSans-20" x="913.818359"/>
     <use xlink:href="#DejaVuSans-50" x="945.605469"/>
     <use xlink:href="#DejaVuSans-65" x="1002.283203"/>
     <use xlink:href="#DejaVuSans-72" x="1063.806641"/>
     <use xlink:href="#DejaVuSans-63" x="1102.669922"/>
     <use xlink:href="#DejaVuSans-65" x="1157.650391"/>
     <use xlink:href="#DejaVuSans-6e" x="1219.173828"/>
     <use xlink:href="#DejaVuSans-74" x="1282.552734"/>
     <use xlink:href="#DejaVuSans-61" x="1321.761719"/>
     <use xlink:href="#DejaVuSans-67" x="1383.041016"/>
     <use xlink:href="#DejaVuSans-65" x="1446.517578"/>
    </g>
   </g>
  </g>
 </g>
 <defs>
  <clipPath id="p9a6212e364">
   <rect x="68.023" y="35.0835" width="892.8" height="587.52"/>
  </clipPath>
 </defs>
</svg>
