<?xml version="1.0" encoding="utf-8" standalone="no"?>
<!DOCTYPE svg PUBLIC "-//W3C//DTD SVG 1.1//EN"
  "http://www.w3.org/Graphics/SVG/1.1/DTD/svg11.dtd">
<svg xmlns:xlink="http://www.w3.org/1999/xlink" width="999.82925pt" height="700.466504pt" viewBox="0 0 999.82925 700.466504" xmlns="http://www.w3.org/2000/svg" version="1.1">
 <metadata>
  <rdf:RDF xmlns:dc="http://purl.org/dc/elements/1.1/" xmlns:cc="http://creativecommons.org/ns#" xmlns:rdf="http://www.w3.org/1999/02/22-rdf-syntax-ns#">
   <cc:Work>
    <dc:type rdf:resource="http://purl.org/dc/dcmitype/StillImage"/>
    <dc:date>2023-10-18T19:14:40.015665</dc:date>
    <dc:format>image/svg+xml</dc:format>
    <dc:creator>
     <cc:Agent>
      <dc:title>Matplotlib v3.8.0, https://matplotlib.org/</dc:title>
     </cc:Agent>
    </dc:creator>
   </cc:Work>
  </rdf:RDF>
 </metadata>
 <defs>
  <style type="text/css">*{stroke-linejoin: round; stroke-linecap: butt}</style>
 </defs>
 <g id="figure_1">
  <g id="patch_1">
   <path d="M 0 700.466504 
L 999.82925 700.466504 
L 999.82925 0 
L 0 0 
z
" style="fill: #ffffff"/>
  </g>
  <g id="axes_1">
   <g id="patch_2">
    <path d="M 99.82925 622.6035 
L 992.62925 622.6035 
L 992.62925 35.0835 
L 99.82925 35.0835 
z
" style="fill: #ffffff"/>
   </g>
   <g id="PolyCollection_1">
    <defs>
     <path id="m1914fd7de5" d="M 140.411068 -227.164746 
L 140.411068 -166.684728 
L 144.489643 -163.908692 
L 148.568218 -104.568459 
L 152.646792 -131.00764 
L 156.725367 -145.94557 
L 160.803942 -156.340117 
L 164.882516 -120.757574 
L 168.961091 -119.822235 
L 173.039666 -124.366731 
L 177.11824 -141.655431 
L 181.196815 -217.921573 
L 185.27539 -209.973851 
L 189.353964 -127.298055 
L 193.432539 -161.69058 
L 197.511114 -174.382185 
L 201.589689 -156.155357 
L 205.668263 -136.790164 
L 209.746838 -135.116042 
L 213.825413 -116.540112 
L 217.903987 -136.009503 
L 221.982562 -115.260283 
L 226.061137 -118.841943 
L 230.139711 -165.480893 
L 234.218286 -133.695627 
L 238.296861 -150.900385 
L 242.375435 -154.629508 
L 246.45401 -148.249384 
L 250.532585 -193.147826 
L 254.61116 -258.635565 
L 258.689734 -208.685267 
L 262.768309 -209.905553 
L 266.846884 -221.666563 
L 270.925458 -259.05421 
L 275.004033 -249.15748 
L 279.082608 -311.145387 
L 283.161182 -347.761831 
L 287.239757 -361.531813 
L 291.318332 -359.715328 
L 295.396906 -365.856784 
L 299.475481 -365.407763 
L 303.554056 -342.626599 
L 307.632631 -362.904165 
L 311.711205 -320.550731 
L 315.78978 -336.739616 
L 319.868355 -381.493526 
L 323.946929 -370.117516 
L 328.025504 -348.77195 
L 332.104079 -392.11025 
L 336.182653 -463.586635 
L 340.261228 -458.89675 
L 344.339803 -495.277791 
L 348.418377 -513.070287 
L 352.496952 -450.020977 
L 356.575527 -532.789212 
L 360.654102 -562.84372 
L 364.732676 -563.043107 
L 368.811251 -524.066654 
L 372.889826 -528.161301 
L 376.9684 -546.614817 
L 381.046975 -523.433442 
L 385.12555 -499.937416 
L 389.204124 -490.804005 
L 393.282699 -540.561204 
L 397.361274 -534.181954 
L 401.439848 -543.533619 
L 405.518423 -579.048488 
L 409.596998 -555.277568 
L 413.675573 -565.992049 
L 417.754147 -534.196585 
L 421.832722 -548.743072 
L 425.911297 -504.141768 
L 429.989871 -530.120765 
L 434.068446 -509.310968 
L 438.147021 -562.553938 
L 442.225595 -482.659125 
L 446.30417 -512.18922 
L 450.382745 -481.080295 
L 454.461319 -462.184923 
L 458.539894 -480.081186 
L 462.618469 -425.099351 
L 466.697044 -410.612473 
L 474.854193 -414.102984 
L 478.932768 -365.508277 
L 483.011342 -397.226779 
L 487.089917 -458.088452 
L 507.48279 -436.095718 
L 511.561365 -417.323746 
L 515.63994 -377.963951 
L 519.718515 -411.214904 
L 523.797089 -408.604801 
L 536.032813 -364.619333 
L 540.111388 -381.113883 
L 544.189963 -392.11025 
L 548.268537 -414.102984 
L 576.81856 -365.348544 
L 580.897135 -447.092085 
L 584.97571 -396.727367 
L 589.054284 -350.601661 
L 593.132859 -381.113883 
L 597.211434 -304.139315 
L 601.290008 -375.6157 
L 605.368583 -375.6157 
L 609.447158 -326.132049 
L 613.525732 -301.633423 
L 617.604307 -243.659297 
L 621.682882 -224.638977 
L 637.997181 -331.630232 
L 642.075755 -363.101052 
L 646.15433 -341.740815 
L 650.232905 -377.358554 
L 654.311479 -392.11025 
L 674.704353 -436.095718 
L 719.568674 -405.855709 
L 739.961548 -320.633865 
L 744.040123 -298.641131 
L 752.197272 -359.121149 
L 764.432996 -315.135682 
L 817.454467 -331.630232 
L 952.047432 -579.048488 
L 952.047432 -579.048488 
L 952.047432 -579.048488 
L 817.454467 -331.630232 
L 764.432996 -315.135682 
L 752.197272 -359.121149 
L 744.040123 -298.641131 
L 739.961548 -320.633865 
L 719.568674 -405.855709 
L 674.704353 -436.095718 
L 654.311479 -392.11025 
L 650.232905 -382.120121 
L 646.15433 -369.170573 
L 642.075755 -373.468526 
L 637.997181 -381.113883 
L 621.682882 -288.337805 
L 617.604307 -243.659297 
L 613.525732 -394.616142 
L 609.447158 -326.132049 
L 605.368583 -381.113883 
L 601.290008 -392.11025 
L 597.211434 -304.139315 
L 593.132859 -458.088452 
L 589.054284 -378.637005 
L 584.97571 -420.482235 
L 580.897135 -447.092085 
L 576.81856 -421.621048 
L 548.268537 -414.102984 
L 544.189963 -392.11025 
L 540.111388 -381.113883 
L 536.032813 -364.619333 
L 523.797089 -425.099351 
L 519.718515 -453.645621 
L 515.63994 -425.500191 
L 511.561365 -432.874957 
L 507.48279 -436.095718 
L 487.089917 -458.088452 
L 483.011342 -432.811917 
L 478.932768 -423.11077 
L 474.854193 -414.102984 
L 466.697044 -436.837137 
L 462.618469 -425.099351 
L 458.539894 -546.059388 
L 454.461319 -516.304727 
L 450.382745 -536.813003 
L 446.30417 -535.944088 
L 442.225595 -526.986898 
L 438.147021 -562.553938 
L 434.068446 -580.975079 
L 429.989871 -579.592197 
L 425.911297 -582.478824 
L 421.832722 -638.67755 
L 417.754147 -626.649484 
L 413.675573 -615.668571 
L 409.596998 -609.417229 
L 405.518423 -579.048488 
L 401.439848 -607.232447 
L 397.361274 -557.936821 
L 393.282699 -540.561204 
L 389.204124 -546.332936 
L 385.12555 -555.526803 
L 381.046975 -548.891872 
L 376.9684 -600.485793 
L 372.889826 -588.149481 
L 368.811251 -568.052121 
L 364.732676 -596.886598 
L 360.654102 -609.391443 
L 356.575527 -594.151392 
L 352.496952 -512.890487 
L 348.418377 -524.066654 
L 344.339803 -519.866415 
L 340.261228 -509.512897 
L 336.182653 -496.575736 
L 332.104079 -392.11025 
L 328.025504 -420.786728 
L 323.946929 -375.6157 
L 319.868355 -410.97425 
L 315.78978 -376.0045 
L 311.711205 -361.037012 
L 307.632631 -402.072693 
L 303.554056 -392.11025 
L 299.475481 -411.481826 
L 295.396906 -418.363717 
L 291.318332 -404.345167 
L 287.239757 -384.201404 
L 283.161182 -385.142291 
L 279.082608 -343.317983 
L 275.004033 -265.65203 
L 270.925458 -285.445491 
L 266.846884 -298.641131 
L 262.768309 -231.228299 
L 258.689734 -252.975136 
L 254.61116 -269.00304 
L 250.532585 -243.587479 
L 246.45401 -198.865531 
L 242.375435 -184.238132 
L 238.296861 -171.472704 
L 234.218286 -172.182911 
L 230.139711 -186.215841 
L 226.061137 -154.047495 
L 221.982562 -165.87643 
L 217.903987 -145.127209 
L 213.825413 -157.448962 
L 209.746838 -176.26068 
L 205.668263 -202.077475 
L 201.589689 -179.96319 
L 197.511114 -200.773465 
L 193.432539 -221.162527 
L 189.353964 -176.747755 
L 185.27539 -224.56218 
L 181.196815 -260.233381 
L 177.11824 -162.390379 
L 173.039666 -144.857251 
L 168.961091 -165.896298 
L 164.882516 -186.220601 
L 160.803942 -196.272981 
L 156.725367 -192.92207 
L 152.646792 -153.66362 
L 148.568218 -142.400971 
L 144.489643 -257.431699 
L 140.411068 -227.164746 
z
" style="stroke: #bf00bf; stroke-opacity: 0.2"/>
    </defs>
    <g clip-path="url(#pd74b9a67c0)">
     <use xlink:href="#m1914fd7de5" x="0" y="700.466504" style="fill: #bf00bf; fill-opacity: 0.2; stroke: #bf00bf; stroke-opacity: 0.2"/>
    </g>
   </g>
   <g id="matplotlib.axis_1">
    <g id="xtick_1">
     <g id="line2d_1">
      <path d="M 144.489643 622.6035 
L 144.489643 35.0835 
" clip-path="url(#pd74b9a67c0)" style="fill: none; stroke: #a5a391; stroke-opacity: 0.3; stroke-width: 0.8; stroke-linecap: square"/>
     </g>
     <g id="line2d_2">
      <defs>
       <path id="mda15d03395" d="M 0 0 
L 0 -3.5 
" style="stroke: #000000; stroke-width: 0.8"/>
      </defs>
      <g>
       <use xlink:href="#mda15d03395" x="144.489643" y="622.6035" style="stroke: #000000; stroke-width: 0.8"/>
      </g>
     </g>
     <g id="text_1">
      <!-- Jan 01, 20 -->
      <g transform="translate(55.114595 689.66438) rotate(-30) scale(0.2 -0.2)">
       <defs>
        <path id="DejaVuSans-4a" d="M 628 4666 
L 1259 4666 
L 1259 325 
Q 1259 -519 939 -900 
Q 619 -1281 -91 -1281 
L -331 -1281 
L -331 -750 
L -134 -750 
Q 284 -750 456 -515 
Q 628 -281 628 325 
L 628 4666 
z
" transform="scale(0.015625)"/>
        <path id="DejaVuSans-61" d="M 2194 1759 
Q 1497 1759 1228 1600 
Q 959 1441 959 1056 
Q 959 750 1161 570 
Q 1363 391 1709 391 
Q 2188 391 2477 730 
Q 2766 1069 2766 1631 
L 2766 1759 
L 2194 1759 
z
M 3341 1997 
L 3341 0 
L 2766 0 
L 2766 531 
Q 2569 213 2275 61 
Q 1981 -91 1556 -91 
Q 1019 -91 701 211 
Q 384 513 384 1019 
Q 384 1609 779 1909 
Q 1175 2209 1959 2209 
L 2766 2209 
L 2766 2266 
Q 2766 2663 2505 2880 
Q 2244 3097 1772 3097 
Q 1472 3097 1187 3025 
Q 903 2953 641 2809 
L 641 3341 
Q 956 3463 1253 3523 
Q 1550 3584 1831 3584 
Q 2591 3584 2966 3190 
Q 3341 2797 3341 1997 
z
" transform="scale(0.015625)"/>
        <path id="DejaVuSans-6e" d="M 3513 2113 
L 3513 0 
L 2938 0 
L 2938 2094 
Q 2938 2591 2744 2837 
Q 2550 3084 2163 3084 
Q 1697 3084 1428 2787 
Q 1159 2491 1159 1978 
L 1159 0 
L 581 0 
L 581 3500 
L 1159 3500 
L 1159 2956 
Q 1366 3272 1645 3428 
Q 1925 3584 2291 3584 
Q 2894 3584 3203 3211 
Q 3513 2838 3513 2113 
z
" transform="scale(0.015625)"/>
        <path id="DejaVuSans-20" transform="scale(0.015625)"/>
        <path id="DejaVuSans-30" d="M 2034 4250 
Q 1547 4250 1301 3770 
Q 1056 3291 1056 2328 
Q 1056 1369 1301 889 
Q 1547 409 2034 409 
Q 2525 409 2770 889 
Q 3016 1369 3016 2328 
Q 3016 3291 2770 3770 
Q 2525 4250 2034 4250 
z
M 2034 4750 
Q 2819 4750 3233 4129 
Q 3647 3509 3647 2328 
Q 3647 1150 3233 529 
Q 2819 -91 2034 -91 
Q 1250 -91 836 529 
Q 422 1150 422 2328 
Q 422 3509 836 4129 
Q 1250 4750 2034 4750 
z
" transform="scale(0.015625)"/>
        <path id="DejaVuSans-31" d="M 794 531 
L 1825 531 
L 1825 4091 
L 703 3866 
L 703 4441 
L 1819 4666 
L 2450 4666 
L 2450 531 
L 3481 531 
L 3481 0 
L 794 0 
L 794 531 
z
" transform="scale(0.015625)"/>
        <path id="DejaVuSans-2c" d="M 750 794 
L 1409 794 
L 1409 256 
L 897 -744 
L 494 -744 
L 750 256 
L 750 794 
z
" transform="scale(0.015625)"/>
        <path id="DejaVuSans-32" d="M 1228 531 
L 3431 531 
L 3431 0 
L 469 0 
L 469 531 
Q 828 903 1448 1529 
Q 2069 2156 2228 2338 
Q 2531 2678 2651 2914 
Q 2772 3150 2772 3378 
Q 2772 3750 2511 3984 
Q 2250 4219 1831 4219 
Q 1534 4219 1204 4116 
Q 875 4013 500 3803 
L 500 4441 
Q 881 4594 1212 4672 
Q 1544 4750 1819 4750 
Q 2544 4750 2975 4387 
Q 3406 4025 3406 3419 
Q 3406 3131 3298 2873 
Q 3191 2616 2906 2266 
Q 2828 2175 2409 1742 
Q 1991 1309 1228 531 
z
" transform="scale(0.015625)"/>
       </defs>
       <use xlink:href="#DejaVuSans-4a"/>
       <use xlink:href="#DejaVuSans-61" x="29.492188"/>
       <use xlink:href="#DejaVuSans-6e" x="90.771484"/>
       <use xlink:href="#DejaVuSans-20" x="154.150391"/>
       <use xlink:href="#DejaVuSans-30" x="185.9375"/>
       <use xlink:href="#DejaVuSans-31" x="249.560547"/>
       <use xlink:href="#DejaVuSans-2c" x="313.183594"/>
       <use xlink:href="#DejaVuSans-20" x="344.970703"/>
       <use xlink:href="#DejaVuSans-32" x="376.757812"/>
       <use xlink:href="#DejaVuSans-30" x="440.380859"/>
      </g>
     </g>
    </g>
    <g id="xtick_2">
     <g id="line2d_3">
      <path d="M 250.532585 622.6035 
L 250.532585 35.0835 
" clip-path="url(#pd74b9a67c0)" style="fill: none; stroke: #a5a391; stroke-opacity: 0.3; stroke-width: 0.8; stroke-linecap: square"/>
     </g>
     <g id="line2d_4">
      <g>
       <use xlink:href="#mda15d03395" x="250.532585" y="622.6035" style="stroke: #000000; stroke-width: 0.8"/>
      </g>
     </g>
     <g id="text_2">
      <!-- Jul 01, 20 -->
      <g transform="translate(166.959907 686.31438) rotate(-30) scale(0.2 -0.2)">
       <defs>
        <path id="DejaVuSans-75" d="M 544 1381 
L 544 3500 
L 1119 3500 
L 1119 1403 
Q 1119 906 1312 657 
Q 1506 409 1894 409 
Q 2359 409 2629 706 
Q 2900 1003 2900 1516 
L 2900 3500 
L 3475 3500 
L 3475 0 
L 2900 0 
L 2900 538 
Q 2691 219 2414 64 
Q 2138 -91 1772 -91 
Q 1169 -91 856 284 
Q 544 659 544 1381 
z
M 1991 3584 
L 1991 3584 
z
" transform="scale(0.015625)"/>
        <path id="DejaVuSans-6c" d="M 603 4863 
L 1178 4863 
L 1178 0 
L 603 0 
L 603 4863 
z
" transform="scale(0.015625)"/>
       </defs>
       <use xlink:href="#DejaVuSans-4a"/>
       <use xlink:href="#DejaVuSans-75" x="29.492188"/>
       <use xlink:href="#DejaVuSans-6c" x="92.871094"/>
       <use xlink:href="#DejaVuSans-20" x="120.654297"/>
       <use xlink:href="#DejaVuSans-30" x="152.441406"/>
       <use xlink:href="#DejaVuSans-31" x="216.064453"/>
       <use xlink:href="#DejaVuSans-2c" x="279.6875"/>
       <use xlink:href="#DejaVuSans-20" x="311.474609"/>
       <use xlink:href="#DejaVuSans-32" x="343.261719"/>
       <use xlink:href="#DejaVuSans-30" x="406.884766"/>
      </g>
     </g>
    </g>
    <g id="xtick_3">
     <g id="line2d_5">
      <path d="M 357.740834 622.6035 
L 357.740834 35.0835 
" clip-path="url(#pd74b9a67c0)" style="fill: none; stroke: #a5a391; stroke-opacity: 0.3; stroke-width: 0.8; stroke-linecap: square"/>
     </g>
     <g id="line2d_6">
      <g>
       <use xlink:href="#mda15d03395" x="357.740834" y="622.6035" style="stroke: #000000; stroke-width: 0.8"/>
      </g>
     </g>
     <g id="text_3">
      <!-- Jan 01, 21 -->
      <g transform="translate(268.365786 689.66438) rotate(-30) scale(0.2 -0.2)">
       <use xlink:href="#DejaVuSans-4a"/>
       <use xlink:href="#DejaVuSans-61" x="29.492188"/>
       <use xlink:href="#DejaVuSans-6e" x="90.771484"/>
       <use xlink:href="#DejaVuSans-20" x="154.150391"/>
       <use xlink:href="#DejaVuSans-30" x="185.9375"/>
       <use xlink:href="#DejaVuSans-31" x="249.560547"/>
       <use xlink:href="#DejaVuSans-2c" x="313.183594"/>
       <use xlink:href="#DejaVuSans-20" x="344.970703"/>
       <use xlink:href="#DejaVuSans-32" x="376.757812"/>
       <use xlink:href="#DejaVuSans-31" x="440.380859"/>
      </g>
     </g>
    </g>
    <g id="xtick_4">
     <g id="line2d_7">
      <path d="M 463.201122 622.6035 
L 463.201122 35.0835 
" clip-path="url(#pd74b9a67c0)" style="fill: none; stroke: #a5a391; stroke-opacity: 0.3; stroke-width: 0.8; stroke-linecap: square"/>
     </g>
     <g id="line2d_8">
      <g>
       <use xlink:href="#mda15d03395" x="463.201122" y="622.6035" style="stroke: #000000; stroke-width: 0.8"/>
      </g>
     </g>
     <g id="text_4">
      <!-- Jul 01, 21 -->
      <g transform="translate(379.628444 686.31438) rotate(-30) scale(0.2 -0.2)">
       <use xlink:href="#DejaVuSans-4a"/>
       <use xlink:href="#DejaVuSans-75" x="29.492188"/>
       <use xlink:href="#DejaVuSans-6c" x="92.871094"/>
       <use xlink:href="#DejaVuSans-20" x="120.654297"/>
       <use xlink:href="#DejaVuSans-30" x="152.441406"/>
       <use xlink:href="#DejaVuSans-31" x="216.064453"/>
       <use xlink:href="#DejaVuSans-2c" x="279.6875"/>
       <use xlink:href="#DejaVuSans-20" x="311.474609"/>
       <use xlink:href="#DejaVuSans-32" x="343.261719"/>
       <use xlink:href="#DejaVuSans-31" x="406.884766"/>
      </g>
     </g>
    </g>
    <g id="xtick_5">
     <g id="line2d_9">
      <path d="M 570.409371 622.6035 
L 570.409371 35.0835 
" clip-path="url(#pd74b9a67c0)" style="fill: none; stroke: #a5a391; stroke-opacity: 0.3; stroke-width: 0.8; stroke-linecap: square"/>
     </g>
     <g id="line2d_10">
      <g>
       <use xlink:href="#mda15d03395" x="570.409371" y="622.6035" style="stroke: #000000; stroke-width: 0.8"/>
      </g>
     </g>
     <g id="text_5">
      <!-- Jan 01, 22 -->
      <g transform="translate(481.034323 689.66438) rotate(-30) scale(0.2 -0.2)">
       <use xlink:href="#DejaVuSans-4a"/>
       <use xlink:href="#DejaVuSans-61" x="29.492188"/>
       <use xlink:href="#DejaVuSans-6e" x="90.771484"/>
       <use xlink:href="#DejaVuSans-20" x="154.150391"/>
       <use xlink:href="#DejaVuSans-30" x="185.9375"/>
       <use xlink:href="#DejaVuSans-31" x="249.560547"/>
       <use xlink:href="#DejaVuSans-2c" x="313.183594"/>
       <use xlink:href="#DejaVuSans-20" x="344.970703"/>
       <use xlink:href="#DejaVuSans-32" x="376.757812"/>
       <use xlink:href="#DejaVuSans-32" x="440.380859"/>
      </g>
     </g>
    </g>
    <g id="xtick_6">
     <g id="line2d_11">
      <path d="M 675.86966 622.6035 
L 675.86966 35.0835 
" clip-path="url(#pd74b9a67c0)" style="fill: none; stroke: #a5a391; stroke-opacity: 0.3; stroke-width: 0.8; stroke-linecap: square"/>
     </g>
     <g id="line2d_12">
      <g>
       <use xlink:href="#mda15d03395" x="675.86966" y="622.6035" style="stroke: #000000; stroke-width: 0.8"/>
      </g>
     </g>
     <g id="text_6">
      <!-- Jul 01, 22 -->
      <g transform="translate(592.296982 686.31438) rotate(-30) scale(0.2 -0.2)">
       <use xlink:href="#DejaVuSans-4a"/>
       <use xlink:href="#DejaVuSans-75" x="29.492188"/>
       <use xlink:href="#DejaVuSans-6c" x="92.871094"/>
       <use xlink:href="#DejaVuSans-20" x="120.654297"/>
       <use xlink:href="#DejaVuSans-30" x="152.441406"/>
       <use xlink:href="#DejaVuSans-31" x="216.064453"/>
       <use xlink:href="#DejaVuSans-2c" x="279.6875"/>
       <use xlink:href="#DejaVuSans-20" x="311.474609"/>
       <use xlink:href="#DejaVuSans-32" x="343.261719"/>
       <use xlink:href="#DejaVuSans-32" x="406.884766"/>
      </g>
     </g>
    </g>
    <g id="xtick_7">
     <g id="line2d_13">
      <path d="M 783.077909 622.6035 
L 783.077909 35.0835 
" clip-path="url(#pd74b9a67c0)" style="fill: none; stroke: #a5a391; stroke-opacity: 0.3; stroke-width: 0.8; stroke-linecap: square"/>
     </g>
     <g id="line2d_14">
      <g>
       <use xlink:href="#mda15d03395" x="783.077909" y="622.6035" style="stroke: #000000; stroke-width: 0.8"/>
      </g>
     </g>
     <g id="text_7">
      <!-- Jan 01, 23 -->
      <g transform="translate(693.702861 689.66438) rotate(-30) scale(0.2 -0.2)">
       <defs>
        <path id="DejaVuSans-33" d="M 2597 2516 
Q 3050 2419 3304 2112 
Q 3559 1806 3559 1356 
Q 3559 666 3084 287 
Q 2609 -91 1734 -91 
Q 1441 -91 1130 -33 
Q 819 25 488 141 
L 488 750 
Q 750 597 1062 519 
Q 1375 441 1716 441 
Q 2309 441 2620 675 
Q 2931 909 2931 1356 
Q 2931 1769 2642 2001 
Q 2353 2234 1838 2234 
L 1294 2234 
L 1294 2753 
L 1863 2753 
Q 2328 2753 2575 2939 
Q 2822 3125 2822 3475 
Q 2822 3834 2567 4026 
Q 2313 4219 1838 4219 
Q 1578 4219 1281 4162 
Q 984 4106 628 3988 
L 628 4550 
Q 988 4650 1302 4700 
Q 1616 4750 1894 4750 
Q 2613 4750 3031 4423 
Q 3450 4097 3450 3541 
Q 3450 3153 3228 2886 
Q 3006 2619 2597 2516 
z
" transform="scale(0.015625)"/>
       </defs>
       <use xlink:href="#DejaVuSans-4a"/>
       <use xlink:href="#DejaVuSans-61" x="29.492188"/>
       <use xlink:href="#DejaVuSans-6e" x="90.771484"/>
       <use xlink:href="#DejaVuSans-20" x="154.150391"/>
       <use xlink:href="#DejaVuSans-30" x="185.9375"/>
       <use xlink:href="#DejaVuSans-31" x="249.560547"/>
       <use xlink:href="#DejaVuSans-2c" x="313.183594"/>
       <use xlink:href="#DejaVuSans-20" x="344.970703"/>
       <use xlink:href="#DejaVuSans-32" x="376.757812"/>
       <use xlink:href="#DejaVuSans-33" x="440.380859"/>
      </g>
     </g>
    </g>
    <g id="xtick_8">
     <g id="line2d_15">
      <path d="M 888.538197 622.6035 
L 888.538197 35.0835 
" clip-path="url(#pd74b9a67c0)" style="fill: none; stroke: #a5a391; stroke-opacity: 0.3; stroke-width: 0.8; stroke-linecap: square"/>
     </g>
     <g id="line2d_16">
      <g>
       <use xlink:href="#mda15d03395" x="888.538197" y="622.6035" style="stroke: #000000; stroke-width: 0.8"/>
      </g>
     </g>
     <g id="text_8">
      <!-- Jul 01, 23 -->
      <g transform="translate(804.965519 686.31438) rotate(-30) scale(0.2 -0.2)">
       <use xlink:href="#DejaVuSans-4a"/>
       <use xlink:href="#DejaVuSans-75" x="29.492188"/>
       <use xlink:href="#DejaVuSans-6c" x="92.871094"/>
       <use xlink:href="#DejaVuSans-20" x="120.654297"/>
       <use xlink:href="#DejaVuSans-30" x="152.441406"/>
       <use xlink:href="#DejaVuSans-31" x="216.064453"/>
       <use xlink:href="#DejaVuSans-2c" x="279.6875"/>
       <use xlink:href="#DejaVuSans-20" x="311.474609"/>
       <use xlink:href="#DejaVuSans-32" x="343.261719"/>
       <use xlink:href="#DejaVuSans-33" x="406.884766"/>
      </g>
     </g>
    </g>
   </g>
   <g id="matplotlib.axis_2">
    <g id="ytick_1">
     <g id="line2d_17">
      <path d="M 99.82925 566.770877 
L 992.62925 566.770877 
" clip-path="url(#pd74b9a67c0)" style="fill: none; stroke: #a5a391; stroke-opacity: 0.3; stroke-width: 0.8; stroke-linecap: square"/>
     </g>
     <g id="line2d_18">
      <defs>
       <path id="m57016fd132" d="M 0 0 
L 3.5 0 
" style="stroke: #000000; stroke-width: 0.8"/>
      </defs>
      <g>
       <use xlink:href="#m57016fd132" x="99.82925" y="566.770877" style="stroke: #000000; stroke-width: 0.8"/>
      </g>
     </g>
     <g id="text_9">
      <!-- 160.0 -->
      <g transform="translate(39.073 574.369315) scale(0.2 -0.2)">
       <defs>
        <path id="DejaVuSans-36" d="M 2113 2584 
Q 1688 2584 1439 2293 
Q 1191 2003 1191 1497 
Q 1191 994 1439 701 
Q 1688 409 2113 409 
Q 2538 409 2786 701 
Q 3034 994 3034 1497 
Q 3034 2003 2786 2293 
Q 2538 2584 2113 2584 
z
M 3366 4563 
L 3366 3988 
Q 3128 4100 2886 4159 
Q 2644 4219 2406 4219 
Q 1781 4219 1451 3797 
Q 1122 3375 1075 2522 
Q 1259 2794 1537 2939 
Q 1816 3084 2150 3084 
Q 2853 3084 3261 2657 
Q 3669 2231 3669 1497 
Q 3669 778 3244 343 
Q 2819 -91 2113 -91 
Q 1303 -91 875 529 
Q 447 1150 447 2328 
Q 447 3434 972 4092 
Q 1497 4750 2381 4750 
Q 2619 4750 2861 4703 
Q 3103 4656 3366 4563 
z
" transform="scale(0.015625)"/>
        <path id="DejaVuSans-2e" d="M 684 794 
L 1344 794 
L 1344 0 
L 684 0 
L 684 794 
z
" transform="scale(0.015625)"/>
       </defs>
       <use xlink:href="#DejaVuSans-31"/>
       <use xlink:href="#DejaVuSans-36" x="63.623047"/>
       <use xlink:href="#DejaVuSans-30" x="127.246094"/>
       <use xlink:href="#DejaVuSans-2e" x="190.869141"/>
       <use xlink:href="#DejaVuSans-30" x="222.65625"/>
      </g>
     </g>
    </g>
    <g id="ytick_2">
     <g id="line2d_19">
      <path d="M 99.82925 498.043584 
L 992.62925 498.043584 
" clip-path="url(#pd74b9a67c0)" style="fill: none; stroke: #a5a391; stroke-opacity: 0.3; stroke-width: 0.8; stroke-linecap: square"/>
     </g>
     <g id="line2d_20">
      <g>
       <use xlink:href="#m57016fd132" x="99.82925" y="498.043584" style="stroke: #000000; stroke-width: 0.8"/>
      </g>
     </g>
     <g id="text_10">
      <!-- 162.5 -->
      <g transform="translate(39.073 505.642021) scale(0.2 -0.2)">
       <defs>
        <path id="DejaVuSans-35" d="M 691 4666 
L 3169 4666 
L 3169 4134 
L 1269 4134 
L 1269 2991 
Q 1406 3038 1543 3061 
Q 1681 3084 1819 3084 
Q 2600 3084 3056 2656 
Q 3513 2228 3513 1497 
Q 3513 744 3044 326 
Q 2575 -91 1722 -91 
Q 1428 -91 1123 -41 
Q 819 9 494 109 
L 494 744 
Q 775 591 1075 516 
Q 1375 441 1709 441 
Q 2250 441 2565 725 
Q 2881 1009 2881 1497 
Q 2881 1984 2565 2268 
Q 2250 2553 1709 2553 
Q 1456 2553 1204 2497 
Q 953 2441 691 2322 
L 691 4666 
z
" transform="scale(0.015625)"/>
       </defs>
       <use xlink:href="#DejaVuSans-31"/>
       <use xlink:href="#DejaVuSans-36" x="63.623047"/>
       <use xlink:href="#DejaVuSans-32" x="127.246094"/>
       <use xlink:href="#DejaVuSans-2e" x="190.869141"/>
       <use xlink:href="#DejaVuSans-35" x="222.65625"/>
      </g>
     </g>
    </g>
    <g id="ytick_3">
     <g id="line2d_21">
      <path d="M 99.82925 429.31629 
L 992.62925 429.31629 
" clip-path="url(#pd74b9a67c0)" style="fill: none; stroke: #a5a391; stroke-opacity: 0.3; stroke-width: 0.8; stroke-linecap: square"/>
     </g>
     <g id="line2d_22">
      <g>
       <use xlink:href="#m57016fd132" x="99.82925" y="429.31629" style="stroke: #000000; stroke-width: 0.8"/>
      </g>
     </g>
     <g id="text_11">
      <!-- 165.0 -->
      <g transform="translate(39.073 436.914728) scale(0.2 -0.2)">
       <use xlink:href="#DejaVuSans-31"/>
       <use xlink:href="#DejaVuSans-36" x="63.623047"/>
       <use xlink:href="#DejaVuSans-35" x="127.246094"/>
       <use xlink:href="#DejaVuSans-2e" x="190.869141"/>
       <use xlink:href="#DejaVuSans-30" x="222.65625"/>
      </g>
     </g>
    </g>
    <g id="ytick_4">
     <g id="line2d_23">
      <path d="M 99.82925 360.588997 
L 992.62925 360.588997 
" clip-path="url(#pd74b9a67c0)" style="fill: none; stroke: #a5a391; stroke-opacity: 0.3; stroke-width: 0.8; stroke-linecap: square"/>
     </g>
     <g id="line2d_24">
      <g>
       <use xlink:href="#m57016fd132" x="99.82925" y="360.588997" style="stroke: #000000; stroke-width: 0.8"/>
      </g>
     </g>
     <g id="text_12">
      <!-- 167.5 -->
      <g transform="translate(39.073 368.187434) scale(0.2 -0.2)">
       <defs>
        <path id="DejaVuSans-37" d="M 525 4666 
L 3525 4666 
L 3525 4397 
L 1831 0 
L 1172 0 
L 2766 4134 
L 525 4134 
L 525 4666 
z
" transform="scale(0.015625)"/>
       </defs>
       <use xlink:href="#DejaVuSans-31"/>
       <use xlink:href="#DejaVuSans-36" x="63.623047"/>
       <use xlink:href="#DejaVuSans-37" x="127.246094"/>
       <use xlink:href="#DejaVuSans-2e" x="190.869141"/>
       <use xlink:href="#DejaVuSans-35" x="222.65625"/>
      </g>
     </g>
    </g>
    <g id="ytick_5">
     <g id="line2d_25">
      <path d="M 99.82925 291.861703 
L 992.62925 291.861703 
" clip-path="url(#pd74b9a67c0)" style="fill: none; stroke: #a5a391; stroke-opacity: 0.3; stroke-width: 0.8; stroke-linecap: square"/>
     </g>
     <g id="line2d_26">
      <g>
       <use xlink:href="#m57016fd132" x="99.82925" y="291.861703" style="stroke: #000000; stroke-width: 0.8"/>
      </g>
     </g>
     <g id="text_13">
      <!-- 170.0 -->
      <g transform="translate(39.073 299.460141) scale(0.2 -0.2)">
       <use xlink:href="#DejaVuSans-31"/>
       <use xlink:href="#DejaVuSans-37" x="63.623047"/>
       <use xlink:href="#DejaVuSans-30" x="127.246094"/>
       <use xlink:href="#DejaVuSans-2e" x="190.869141"/>
       <use xlink:href="#DejaVuSans-30" x="222.65625"/>
      </g>
     </g>
    </g>
    <g id="ytick_6">
     <g id="line2d_27">
      <path d="M 99.82925 223.13441 
L 992.62925 223.13441 
" clip-path="url(#pd74b9a67c0)" style="fill: none; stroke: #a5a391; stroke-opacity: 0.3; stroke-width: 0.8; stroke-linecap: square"/>
     </g>
     <g id="line2d_28">
      <g>
       <use xlink:href="#m57016fd132" x="99.82925" y="223.13441" style="stroke: #000000; stroke-width: 0.8"/>
      </g>
     </g>
     <g id="text_14">
      <!-- 172.5 -->
      <g transform="translate(39.073 230.732848) scale(0.2 -0.2)">
       <use xlink:href="#DejaVuSans-31"/>
       <use xlink:href="#DejaVuSans-37" x="63.623047"/>
       <use xlink:href="#DejaVuSans-32" x="127.246094"/>
       <use xlink:href="#DejaVuSans-2e" x="190.869141"/>
       <use xlink:href="#DejaVuSans-35" x="222.65625"/>
      </g>
     </g>
    </g>
    <g id="ytick_7">
     <g id="line2d_29">
      <path d="M 99.82925 154.407117 
L 992.62925 154.407117 
" clip-path="url(#pd74b9a67c0)" style="fill: none; stroke: #a5a391; stroke-opacity: 0.3; stroke-width: 0.8; stroke-linecap: square"/>
     </g>
     <g id="line2d_30">
      <g>
       <use xlink:href="#m57016fd132" x="99.82925" y="154.407117" style="stroke: #000000; stroke-width: 0.8"/>
      </g>
     </g>
     <g id="text_15">
      <!-- 175.0 -->
      <g transform="translate(39.073 162.005554) scale(0.2 -0.2)">
       <use xlink:href="#DejaVuSans-31"/>
       <use xlink:href="#DejaVuSans-37" x="63.623047"/>
       <use xlink:href="#DejaVuSans-35" x="127.246094"/>
       <use xlink:href="#DejaVuSans-2e" x="190.869141"/>
       <use xlink:href="#DejaVuSans-30" x="222.65625"/>
      </g>
     </g>
    </g>
    <g id="ytick_8">
     <g id="line2d_31">
      <path d="M 99.82925 85.679823 
L 992.62925 85.679823 
" clip-path="url(#pd74b9a67c0)" style="fill: none; stroke: #a5a391; stroke-opacity: 0.3; stroke-width: 0.8; stroke-linecap: square"/>
     </g>
     <g id="line2d_32">
      <g>
       <use xlink:href="#m57016fd132" x="99.82925" y="85.679823" style="stroke: #000000; stroke-width: 0.8"/>
      </g>
     </g>
     <g id="text_16">
      <!-- 177.5 -->
      <g transform="translate(39.073 93.278261) scale(0.2 -0.2)">
       <use xlink:href="#DejaVuSans-31"/>
       <use xlink:href="#DejaVuSans-37" x="63.623047"/>
       <use xlink:href="#DejaVuSans-37" x="127.246094"/>
       <use xlink:href="#DejaVuSans-2e" x="190.869141"/>
       <use xlink:href="#DejaVuSans-35" x="222.65625"/>
      </g>
     </g>
    </g>
    <g id="text_17">
     <!-- Weight [lbs] -->
     <g transform="translate(29.0835 415.46625) rotate(-90) scale(0.288 -0.288)">
      <defs>
       <path id="DejaVuSans-57" d="M 213 4666 
L 850 4666 
L 1831 722 
L 2809 4666 
L 3519 4666 
L 4500 722 
L 5478 4666 
L 6119 4666 
L 4947 0 
L 4153 0 
L 3169 4050 
L 2175 0 
L 1381 0 
L 213 4666 
z
" transform="scale(0.015625)"/>
       <path id="DejaVuSans-65" d="M 3597 1894 
L 3597 1613 
L 953 1613 
Q 991 1019 1311 708 
Q 1631 397 2203 397 
Q 2534 397 2845 478 
Q 3156 559 3463 722 
L 3463 178 
Q 3153 47 2828 -22 
Q 2503 -91 2169 -91 
Q 1331 -91 842 396 
Q 353 884 353 1716 
Q 353 2575 817 3079 
Q 1281 3584 2069 3584 
Q 2775 3584 3186 3129 
Q 3597 2675 3597 1894 
z
M 3022 2063 
Q 3016 2534 2758 2815 
Q 2500 3097 2075 3097 
Q 1594 3097 1305 2825 
Q 1016 2553 972 2059 
L 3022 2063 
z
" transform="scale(0.015625)"/>
       <path id="DejaVuSans-69" d="M 603 3500 
L 1178 3500 
L 1178 0 
L 603 0 
L 603 3500 
z
M 603 4863 
L 1178 4863 
L 1178 4134 
L 603 4134 
L 603 4863 
z
" transform="scale(0.015625)"/>
       <path id="DejaVuSans-67" d="M 2906 1791 
Q 2906 2416 2648 2759 
Q 2391 3103 1925 3103 
Q 1463 3103 1205 2759 
Q 947 2416 947 1791 
Q 947 1169 1205 825 
Q 1463 481 1925 481 
Q 2391 481 2648 825 
Q 2906 1169 2906 1791 
z
M 3481 434 
Q 3481 -459 3084 -895 
Q 2688 -1331 1869 -1331 
Q 1566 -1331 1297 -1286 
Q 1028 -1241 775 -1147 
L 775 -588 
Q 1028 -725 1275 -790 
Q 1522 -856 1778 -856 
Q 2344 -856 2625 -561 
Q 2906 -266 2906 331 
L 2906 616 
Q 2728 306 2450 153 
Q 2172 0 1784 0 
Q 1141 0 747 490 
Q 353 981 353 1791 
Q 353 2603 747 3093 
Q 1141 3584 1784 3584 
Q 2172 3584 2450 3431 
Q 2728 3278 2906 2969 
L 2906 3500 
L 3481 3500 
L 3481 434 
z
" transform="scale(0.015625)"/>
       <path id="DejaVuSans-68" d="M 3513 2113 
L 3513 0 
L 2938 0 
L 2938 2094 
Q 2938 2591 2744 2837 
Q 2550 3084 2163 3084 
Q 1697 3084 1428 2787 
Q 1159 2491 1159 1978 
L 1159 0 
L 581 0 
L 581 4863 
L 1159 4863 
L 1159 2956 
Q 1366 3272 1645 3428 
Q 1925 3584 2291 3584 
Q 2894 3584 3203 3211 
Q 3513 2838 3513 2113 
z
" transform="scale(0.015625)"/>
       <path id="DejaVuSans-74" d="M 1172 4494 
L 1172 3500 
L 2356 3500 
L 2356 3053 
L 1172 3053 
L 1172 1153 
Q 1172 725 1289 603 
Q 1406 481 1766 481 
L 2356 481 
L 2356 0 
L 1766 0 
Q 1100 0 847 248 
Q 594 497 594 1153 
L 594 3053 
L 172 3053 
L 172 3500 
L 594 3500 
L 594 4494 
L 1172 4494 
z
" transform="scale(0.015625)"/>
       <path id="DejaVuSans-5b" d="M 550 4863 
L 1875 4863 
L 1875 4416 
L 1125 4416 
L 1125 -397 
L 1875 -397 
L 1875 -844 
L 550 -844 
L 550 4863 
z
" transform="scale(0.015625)"/>
       <path id="DejaVuSans-62" d="M 3116 1747 
Q 3116 2381 2855 2742 
Q 2594 3103 2138 3103 
Q 1681 3103 1420 2742 
Q 1159 2381 1159 1747 
Q 1159 1113 1420 752 
Q 1681 391 2138 391 
Q 2594 391 2855 752 
Q 3116 1113 3116 1747 
z
M 1159 2969 
Q 1341 3281 1617 3432 
Q 1894 3584 2278 3584 
Q 2916 3584 3314 3078 
Q 3713 2572 3713 1747 
Q 3713 922 3314 415 
Q 2916 -91 2278 -91 
Q 1894 -91 1617 61 
Q 1341 213 1159 525 
L 1159 0 
L 581 0 
L 581 4863 
L 1159 4863 
L 1159 2969 
z
" transform="scale(0.015625)"/>
       <path id="DejaVuSans-73" d="M 2834 3397 
L 2834 2853 
Q 2591 2978 2328 3040 
Q 2066 3103 1784 3103 
Q 1356 3103 1142 2972 
Q 928 2841 928 2578 
Q 928 2378 1081 2264 
Q 1234 2150 1697 2047 
L 1894 2003 
Q 2506 1872 2764 1633 
Q 3022 1394 3022 966 
Q 3022 478 2636 193 
Q 2250 -91 1575 -91 
Q 1294 -91 989 -36 
Q 684 19 347 128 
L 347 722 
Q 666 556 975 473 
Q 1284 391 1588 391 
Q 1994 391 2212 530 
Q 2431 669 2431 922 
Q 2431 1156 2273 1281 
Q 2116 1406 1581 1522 
L 1381 1569 
Q 847 1681 609 1914 
Q 372 2147 372 2553 
Q 372 3047 722 3315 
Q 1072 3584 1716 3584 
Q 2034 3584 2315 3537 
Q 2597 3491 2834 3397 
z
" transform="scale(0.015625)"/>
       <path id="DejaVuSans-5d" d="M 1947 4863 
L 1947 -844 
L 622 -844 
L 622 -397 
L 1369 -397 
L 1369 4416 
L 622 4416 
L 622 4863 
L 1947 4863 
z
" transform="scale(0.015625)"/>
      </defs>
      <use xlink:href="#DejaVuSans-57"/>
      <use xlink:href="#DejaVuSans-65" x="93.001953"/>
      <use xlink:href="#DejaVuSans-69" x="154.525391"/>
      <use xlink:href="#DejaVuSans-67" x="182.308594"/>
      <use xlink:href="#DejaVuSans-68" x="245.785156"/>
      <use xlink:href="#DejaVuSans-74" x="309.164062"/>
      <use xlink:href="#DejaVuSans-20" x="348.373047"/>
      <use xlink:href="#DejaVuSans-5b" x="380.160156"/>
      <use xlink:href="#DejaVuSans-6c" x="419.173828"/>
      <use xlink:href="#DejaVuSans-62" x="446.957031"/>
      <use xlink:href="#DejaVuSans-73" x="510.433594"/>
      <use xlink:href="#DejaVuSans-5d" x="562.533203"/>
     </g>
    </g>
   </g>
   <g id="line2d_33">
    <path d="M 140.411068 503.541767 
L 144.489643 489.796309 
L 148.568218 576.981789 
L 152.646792 558.130875 
L 156.725367 531.032685 
L 160.803942 524.159955 
L 164.882516 546.977417 
L 168.961091 557.607238 
L 173.039666 565.854513 
L 177.11824 548.443599 
L 181.196815 461.389027 
L 185.27539 483.198488 
L 189.353964 548.443599 
L 193.432539 509.039951 
L 197.511114 512.888679 
L 201.589689 532.40723 
L 205.668263 531.032685 
L 209.746838 544.778143 
L 213.825413 563.471967 
L 217.903987 559.898148 
L 221.982562 559.898148 
L 226.061137 564.021785 
L 230.139711 524.618137 
L 234.218286 547.527235 
L 238.296861 539.27996 
L 242.375435 531.032685 
L 246.45401 526.909047 
L 250.532585 482.098852 
L 254.61116 436.647202 
L 258.689734 469.636302 
L 262.768309 479.899578 
L 266.846884 440.312657 
L 270.925458 428.216654 
L 275.004033 443.061749 
L 279.082608 373.234819 
L 283.161182 334.014443 
L 287.239757 327.599896 
L 291.318332 318.436257 
L 295.396906 308.356254 
L 299.475481 312.02171 
L 303.554056 333.09808 
L 307.632631 317.978075 
L 311.711205 359.672633 
L 315.78978 344.094446 
L 319.868355 304.232616 
L 323.946929 327.599896 
L 328.025504 315.687165 
L 332.104079 308.356254 
L 336.182653 220.385318 
L 340.261228 216.261681 
L 344.339803 192.894401 
L 348.418377 181.898034 
L 352.496952 219.010772 
L 356.575527 136.996202 
L 360.654102 114.348923 
L 364.732676 120.501652 
L 368.811251 154.407117 
L 372.889826 142.311113 
L 376.9684 126.916199 
L 381.046975 164.303847 
L 385.12555 172.734395 
L 389.204124 181.898034 
L 393.282699 159.9053 
L 397.361274 154.407117 
L 401.439848 125.083471 
L 405.518423 121.418016 
L 409.596998 118.119106 
L 413.675573 109.636194 
L 417.754147 120.04347 
L 421.832722 106.756193 
L 425.911297 157.156208 
L 429.989871 145.610023 
L 434.068446 155.323481 
L 438.147021 137.912566 
L 442.225595 195.643493 
L 446.30417 176.399851 
L 450.382745 191.519855 
L 454.461319 211.221679 
L 458.539894 187.396217 
L 462.618469 275.367153 
L 466.697044 276.741699 
L 474.854193 286.36352 
L 478.932768 306.156981 
L 483.011342 285.447156 
L 487.089917 242.378052 
L 507.48279 264.370786 
L 511.561365 275.367153 
L 515.63994 298.734433 
L 519.718515 268.036242 
L 523.797089 283.614428 
L 536.032813 335.847171 
L 540.111388 319.352621 
L 544.189963 308.356254 
L 548.268537 286.36352 
L 576.81856 306.981708 
L 580.897135 253.374419 
L 584.97571 291.861703 
L 589.054284 335.847171 
L 593.132859 280.865337 
L 597.211434 396.327189 
L 601.290008 316.603529 
L 605.368583 322.101713 
L 609.447158 374.334456 
L 613.525732 352.341722 
L 617.604307 456.807208 
L 621.682882 443.978113 
L 637.997181 344.094446 
L 642.075755 332.181716 
L 646.15433 345.01081 
L 650.232905 320.727167 
L 654.311479 308.356254 
L 674.704353 264.370786 
L 719.568674 294.610795 
L 739.961548 379.832639 
L 744.040123 401.825373 
L 752.197272 341.345355 
L 764.432996 385.330823 
L 817.454467 368.836272 
L 952.047432 121.418016 
" clip-path="url(#pd74b9a67c0)" style="fill: none; stroke: #bf00bf; stroke-width: 1.5; stroke-linecap: square"/>
    <defs>
     <path id="mf8b0c28a03" d="M 0 -3 
L -0.673542 -0.927051 
L -2.85317 -0.927051 
L -1.089814 0.354102 
L -1.763356 2.427051 
L -0 1.145898 
L 1.763356 2.427051 
L 1.089814 0.354102 
L 2.85317 -0.927051 
L 0.673542 -0.927051 
z
" style="stroke: #bf00bf; stroke-linejoin: bevel"/>
    </defs>
    <g clip-path="url(#pd74b9a67c0)">
     <use xlink:href="#mf8b0c28a03" x="140.411068" y="503.541767" style="fill: #bf00bf; stroke: #bf00bf; stroke-linejoin: bevel"/>
     <use xlink:href="#mf8b0c28a03" x="144.489643" y="489.796309" style="fill: #bf00bf; stroke: #bf00bf; stroke-linejoin: bevel"/>
     <use xlink:href="#mf8b0c28a03" x="148.568218" y="576.981789" style="fill: #bf00bf; stroke: #bf00bf; stroke-linejoin: bevel"/>
     <use xlink:href="#mf8b0c28a03" x="152.646792" y="558.130875" style="fill: #bf00bf; stroke: #bf00bf; stroke-linejoin: bevel"/>
     <use xlink:href="#mf8b0c28a03" x="156.725367" y="531.032685" style="fill: #bf00bf; stroke: #bf00bf; stroke-linejoin: bevel"/>
     <use xlink:href="#mf8b0c28a03" x="160.803942" y="524.159955" style="fill: #bf00bf; stroke: #bf00bf; stroke-linejoin: bevel"/>
     <use xlink:href="#mf8b0c28a03" x="164.882516" y="546.977417" style="fill: #bf00bf; stroke: #bf00bf; stroke-linejoin: bevel"/>
     <use xlink:href="#mf8b0c28a03" x="168.961091" y="557.607238" style="fill: #bf00bf; stroke: #bf00bf; stroke-linejoin: bevel"/>
     <use xlink:href="#mf8b0c28a03" x="173.039666" y="565.854513" style="fill: #bf00bf; stroke: #bf00bf; stroke-linejoin: bevel"/>
     <use xlink:href="#mf8b0c28a03" x="177.11824" y="548.443599" style="fill: #bf00bf; stroke: #bf00bf; stroke-linejoin: bevel"/>
     <use xlink:href="#mf8b0c28a03" x="181.196815" y="461.389027" style="fill: #bf00bf; stroke: #bf00bf; stroke-linejoin: bevel"/>
     <use xlink:href="#mf8b0c28a03" x="185.27539" y="483.198488" style="fill: #bf00bf; stroke: #bf00bf; stroke-linejoin: bevel"/>
     <use xlink:href="#mf8b0c28a03" x="189.353964" y="548.443599" style="fill: #bf00bf; stroke: #bf00bf; stroke-linejoin: bevel"/>
     <use xlink:href="#mf8b0c28a03" x="193.432539" y="509.039951" style="fill: #bf00bf; stroke: #bf00bf; stroke-linejoin: bevel"/>
     <use xlink:href="#mf8b0c28a03" x="197.511114" y="512.888679" style="fill: #bf00bf; stroke: #bf00bf; stroke-linejoin: bevel"/>
     <use xlink:href="#mf8b0c28a03" x="201.589689" y="532.40723" style="fill: #bf00bf; stroke: #bf00bf; stroke-linejoin: bevel"/>
     <use xlink:href="#mf8b0c28a03" x="205.668263" y="531.032685" style="fill: #bf00bf; stroke: #bf00bf; stroke-linejoin: bevel"/>
     <use xlink:href="#mf8b0c28a03" x="209.746838" y="544.778143" style="fill: #bf00bf; stroke: #bf00bf; stroke-linejoin: bevel"/>
     <use xlink:href="#mf8b0c28a03" x="213.825413" y="563.471967" style="fill: #bf00bf; stroke: #bf00bf; stroke-linejoin: bevel"/>
     <use xlink:href="#mf8b0c28a03" x="217.903987" y="559.898148" style="fill: #bf00bf; stroke: #bf00bf; stroke-linejoin: bevel"/>
     <use xlink:href="#mf8b0c28a03" x="221.982562" y="559.898148" style="fill: #bf00bf; stroke: #bf00bf; stroke-linejoin: bevel"/>
     <use xlink:href="#mf8b0c28a03" x="226.061137" y="564.021785" style="fill: #bf00bf; stroke: #bf00bf; stroke-linejoin: bevel"/>
     <use xlink:href="#mf8b0c28a03" x="230.139711" y="524.618137" style="fill: #bf00bf; stroke: #bf00bf; stroke-linejoin: bevel"/>
     <use xlink:href="#mf8b0c28a03" x="234.218286" y="547.527235" style="fill: #bf00bf; stroke: #bf00bf; stroke-linejoin: bevel"/>
     <use xlink:href="#mf8b0c28a03" x="238.296861" y="539.27996" style="fill: #bf00bf; stroke: #bf00bf; stroke-linejoin: bevel"/>
     <use xlink:href="#mf8b0c28a03" x="242.375435" y="531.032685" style="fill: #bf00bf; stroke: #bf00bf; stroke-linejoin: bevel"/>
     <use xlink:href="#mf8b0c28a03" x="246.45401" y="526.909047" style="fill: #bf00bf; stroke: #bf00bf; stroke-linejoin: bevel"/>
     <use xlink:href="#mf8b0c28a03" x="250.532585" y="482.098852" style="fill: #bf00bf; stroke: #bf00bf; stroke-linejoin: bevel"/>
     <use xlink:href="#mf8b0c28a03" x="254.61116" y="436.647202" style="fill: #bf00bf; stroke: #bf00bf; stroke-linejoin: bevel"/>
     <use xlink:href="#mf8b0c28a03" x="258.689734" y="469.636302" style="fill: #bf00bf; stroke: #bf00bf; stroke-linejoin: bevel"/>
     <use xlink:href="#mf8b0c28a03" x="262.768309" y="479.899578" style="fill: #bf00bf; stroke: #bf00bf; stroke-linejoin: bevel"/>
     <use xlink:href="#mf8b0c28a03" x="266.846884" y="440.312657" style="fill: #bf00bf; stroke: #bf00bf; stroke-linejoin: bevel"/>
     <use xlink:href="#mf8b0c28a03" x="270.925458" y="428.216654" style="fill: #bf00bf; stroke: #bf00bf; stroke-linejoin: bevel"/>
     <use xlink:href="#mf8b0c28a03" x="275.004033" y="443.061749" style="fill: #bf00bf; stroke: #bf00bf; stroke-linejoin: bevel"/>
     <use xlink:href="#mf8b0c28a03" x="279.082608" y="373.234819" style="fill: #bf00bf; stroke: #bf00bf; stroke-linejoin: bevel"/>
     <use xlink:href="#mf8b0c28a03" x="283.161182" y="334.014443" style="fill: #bf00bf; stroke: #bf00bf; stroke-linejoin: bevel"/>
     <use xlink:href="#mf8b0c28a03" x="287.239757" y="327.599896" style="fill: #bf00bf; stroke: #bf00bf; stroke-linejoin: bevel"/>
     <use xlink:href="#mf8b0c28a03" x="291.318332" y="318.436257" style="fill: #bf00bf; stroke: #bf00bf; stroke-linejoin: bevel"/>
     <use xlink:href="#mf8b0c28a03" x="295.396906" y="308.356254" style="fill: #bf00bf; stroke: #bf00bf; stroke-linejoin: bevel"/>
     <use xlink:href="#mf8b0c28a03" x="299.475481" y="312.02171" style="fill: #bf00bf; stroke: #bf00bf; stroke-linejoin: bevel"/>
     <use xlink:href="#mf8b0c28a03" x="303.554056" y="333.09808" style="fill: #bf00bf; stroke: #bf00bf; stroke-linejoin: bevel"/>
     <use xlink:href="#mf8b0c28a03" x="307.632631" y="317.978075" style="fill: #bf00bf; stroke: #bf00bf; stroke-linejoin: bevel"/>
     <use xlink:href="#mf8b0c28a03" x="311.711205" y="359.672633" style="fill: #bf00bf; stroke: #bf00bf; stroke-linejoin: bevel"/>
     <use xlink:href="#mf8b0c28a03" x="315.78978" y="344.094446" style="fill: #bf00bf; stroke: #bf00bf; stroke-linejoin: bevel"/>
     <use xlink:href="#mf8b0c28a03" x="319.868355" y="304.232616" style="fill: #bf00bf; stroke: #bf00bf; stroke-linejoin: bevel"/>
     <use xlink:href="#mf8b0c28a03" x="323.946929" y="327.599896" style="fill: #bf00bf; stroke: #bf00bf; stroke-linejoin: bevel"/>
     <use xlink:href="#mf8b0c28a03" x="328.025504" y="315.687165" style="fill: #bf00bf; stroke: #bf00bf; stroke-linejoin: bevel"/>
     <use xlink:href="#mf8b0c28a03" x="332.104079" y="308.356254" style="fill: #bf00bf; stroke: #bf00bf; stroke-linejoin: bevel"/>
     <use xlink:href="#mf8b0c28a03" x="336.182653" y="220.385318" style="fill: #bf00bf; stroke: #bf00bf; stroke-linejoin: bevel"/>
     <use xlink:href="#mf8b0c28a03" x="340.261228" y="216.261681" style="fill: #bf00bf; stroke: #bf00bf; stroke-linejoin: bevel"/>
     <use xlink:href="#mf8b0c28a03" x="344.339803" y="192.894401" style="fill: #bf00bf; stroke: #bf00bf; stroke-linejoin: bevel"/>
     <use xlink:href="#mf8b0c28a03" x="348.418377" y="181.898034" style="fill: #bf00bf; stroke: #bf00bf; stroke-linejoin: bevel"/>
     <use xlink:href="#mf8b0c28a03" x="352.496952" y="219.010772" style="fill: #bf00bf; stroke: #bf00bf; stroke-linejoin: bevel"/>
     <use xlink:href="#mf8b0c28a03" x="356.575527" y="136.996202" style="fill: #bf00bf; stroke: #bf00bf; stroke-linejoin: bevel"/>
     <use xlink:href="#mf8b0c28a03" x="360.654102" y="114.348923" style="fill: #bf00bf; stroke: #bf00bf; stroke-linejoin: bevel"/>
     <use xlink:href="#mf8b0c28a03" x="364.732676" y="120.501652" style="fill: #bf00bf; stroke: #bf00bf; stroke-linejoin: bevel"/>
     <use xlink:href="#mf8b0c28a03" x="368.811251" y="154.407117" style="fill: #bf00bf; stroke: #bf00bf; stroke-linejoin: bevel"/>
     <use xlink:href="#mf8b0c28a03" x="372.889826" y="142.311113" style="fill: #bf00bf; stroke: #bf00bf; stroke-linejoin: bevel"/>
     <use xlink:href="#mf8b0c28a03" x="376.9684" y="126.916199" style="fill: #bf00bf; stroke: #bf00bf; stroke-linejoin: bevel"/>
     <use xlink:href="#mf8b0c28a03" x="381.046975" y="164.303847" style="fill: #bf00bf; stroke: #bf00bf; stroke-linejoin: bevel"/>
     <use xlink:href="#mf8b0c28a03" x="385.12555" y="172.734395" style="fill: #bf00bf; stroke: #bf00bf; stroke-linejoin: bevel"/>
     <use xlink:href="#mf8b0c28a03" x="389.204124" y="181.898034" style="fill: #bf00bf; stroke: #bf00bf; stroke-linejoin: bevel"/>
     <use xlink:href="#mf8b0c28a03" x="393.282699" y="159.9053" style="fill: #bf00bf; stroke: #bf00bf; stroke-linejoin: bevel"/>
     <use xlink:href="#mf8b0c28a03" x="397.361274" y="154.407117" style="fill: #bf00bf; stroke: #bf00bf; stroke-linejoin: bevel"/>
     <use xlink:href="#mf8b0c28a03" x="401.439848" y="125.083471" style="fill: #bf00bf; stroke: #bf00bf; stroke-linejoin: bevel"/>
     <use xlink:href="#mf8b0c28a03" x="405.518423" y="121.418016" style="fill: #bf00bf; stroke: #bf00bf; stroke-linejoin: bevel"/>
     <use xlink:href="#mf8b0c28a03" x="409.596998" y="118.119106" style="fill: #bf00bf; stroke: #bf00bf; stroke-linejoin: bevel"/>
     <use xlink:href="#mf8b0c28a03" x="413.675573" y="109.636194" style="fill: #bf00bf; stroke: #bf00bf; stroke-linejoin: bevel"/>
     <use xlink:href="#mf8b0c28a03" x="417.754147" y="120.04347" style="fill: #bf00bf; stroke: #bf00bf; stroke-linejoin: bevel"/>
     <use xlink:href="#mf8b0c28a03" x="421.832722" y="106.756193" style="fill: #bf00bf; stroke: #bf00bf; stroke-linejoin: bevel"/>
     <use xlink:href="#mf8b0c28a03" x="425.911297" y="157.156208" style="fill: #bf00bf; stroke: #bf00bf; stroke-linejoin: bevel"/>
     <use xlink:href="#mf8b0c28a03" x="429.989871" y="145.610023" style="fill: #bf00bf; stroke: #bf00bf; stroke-linejoin: bevel"/>
     <use xlink:href="#mf8b0c28a03" x="434.068446" y="155.323481" style="fill: #bf00bf; stroke: #bf00bf; stroke-linejoin: bevel"/>
     <use xlink:href="#mf8b0c28a03" x="438.147021" y="137.912566" style="fill: #bf00bf; stroke: #bf00bf; stroke-linejoin: bevel"/>
     <use xlink:href="#mf8b0c28a03" x="442.225595" y="195.643493" style="fill: #bf00bf; stroke: #bf00bf; stroke-linejoin: bevel"/>
     <use xlink:href="#mf8b0c28a03" x="446.30417" y="176.399851" style="fill: #bf00bf; stroke: #bf00bf; stroke-linejoin: bevel"/>
     <use xlink:href="#mf8b0c28a03" x="450.382745" y="191.519855" style="fill: #bf00bf; stroke: #bf00bf; stroke-linejoin: bevel"/>
     <use xlink:href="#mf8b0c28a03" x="454.461319" y="211.221679" style="fill: #bf00bf; stroke: #bf00bf; stroke-linejoin: bevel"/>
     <use xlink:href="#mf8b0c28a03" x="458.539894" y="187.396217" style="fill: #bf00bf; stroke: #bf00bf; stroke-linejoin: bevel"/>
     <use xlink:href="#mf8b0c28a03" x="462.618469" y="275.367153" style="fill: #bf00bf; stroke: #bf00bf; stroke-linejoin: bevel"/>
     <use xlink:href="#mf8b0c28a03" x="466.697044" y="276.741699" style="fill: #bf00bf; stroke: #bf00bf; stroke-linejoin: bevel"/>
     <use xlink:href="#mf8b0c28a03" x="474.854193" y="286.36352" style="fill: #bf00bf; stroke: #bf00bf; stroke-linejoin: bevel"/>
     <use xlink:href="#mf8b0c28a03" x="478.932768" y="306.156981" style="fill: #bf00bf; stroke: #bf00bf; stroke-linejoin: bevel"/>
     <use xlink:href="#mf8b0c28a03" x="483.011342" y="285.447156" style="fill: #bf00bf; stroke: #bf00bf; stroke-linejoin: bevel"/>
     <use xlink:href="#mf8b0c28a03" x="487.089917" y="242.378052" style="fill: #bf00bf; stroke: #bf00bf; stroke-linejoin: bevel"/>
     <use xlink:href="#mf8b0c28a03" x="507.48279" y="264.370786" style="fill: #bf00bf; stroke: #bf00bf; stroke-linejoin: bevel"/>
     <use xlink:href="#mf8b0c28a03" x="511.561365" y="275.367153" style="fill: #bf00bf; stroke: #bf00bf; stroke-linejoin: bevel"/>
     <use xlink:href="#mf8b0c28a03" x="515.63994" y="298.734433" style="fill: #bf00bf; stroke: #bf00bf; stroke-linejoin: bevel"/>
     <use xlink:href="#mf8b0c28a03" x="519.718515" y="268.036242" style="fill: #bf00bf; stroke: #bf00bf; stroke-linejoin: bevel"/>
     <use xlink:href="#mf8b0c28a03" x="523.797089" y="283.614428" style="fill: #bf00bf; stroke: #bf00bf; stroke-linejoin: bevel"/>
     <use xlink:href="#mf8b0c28a03" x="536.032813" y="335.847171" style="fill: #bf00bf; stroke: #bf00bf; stroke-linejoin: bevel"/>
     <use xlink:href="#mf8b0c28a03" x="540.111388" y="319.352621" style="fill: #bf00bf; stroke: #bf00bf; stroke-linejoin: bevel"/>
     <use xlink:href="#mf8b0c28a03" x="544.189963" y="308.356254" style="fill: #bf00bf; stroke: #bf00bf; stroke-linejoin: bevel"/>
     <use xlink:href="#mf8b0c28a03" x="548.268537" y="286.36352" style="fill: #bf00bf; stroke: #bf00bf; stroke-linejoin: bevel"/>
     <use xlink:href="#mf8b0c28a03" x="576.81856" y="306.981708" style="fill: #bf00bf; stroke: #bf00bf; stroke-linejoin: bevel"/>
     <use xlink:href="#mf8b0c28a03" x="580.897135" y="253.374419" style="fill: #bf00bf; stroke: #bf00bf; stroke-linejoin: bevel"/>
     <use xlink:href="#mf8b0c28a03" x="584.97571" y="291.861703" style="fill: #bf00bf; stroke: #bf00bf; stroke-linejoin: bevel"/>
     <use xlink:href="#mf8b0c28a03" x="589.054284" y="335.847171" style="fill: #bf00bf; stroke: #bf00bf; stroke-linejoin: bevel"/>
     <use xlink:href="#mf8b0c28a03" x="593.132859" y="280.865337" style="fill: #bf00bf; stroke: #bf00bf; stroke-linejoin: bevel"/>
     <use xlink:href="#mf8b0c28a03" x="597.211434" y="396.327189" style="fill: #bf00bf; stroke: #bf00bf; stroke-linejoin: bevel"/>
     <use xlink:href="#mf8b0c28a03" x="601.290008" y="316.603529" style="fill: #bf00bf; stroke: #bf00bf; stroke-linejoin: bevel"/>
     <use xlink:href="#mf8b0c28a03" x="605.368583" y="322.101713" style="fill: #bf00bf; stroke: #bf00bf; stroke-linejoin: bevel"/>
     <use xlink:href="#mf8b0c28a03" x="609.447158" y="374.334456" style="fill: #bf00bf; stroke: #bf00bf; stroke-linejoin: bevel"/>
     <use xlink:href="#mf8b0c28a03" x="613.525732" y="352.341722" style="fill: #bf00bf; stroke: #bf00bf; stroke-linejoin: bevel"/>
     <use xlink:href="#mf8b0c28a03" x="617.604307" y="456.807208" style="fill: #bf00bf; stroke: #bf00bf; stroke-linejoin: bevel"/>
     <use xlink:href="#mf8b0c28a03" x="621.682882" y="443.978113" style="fill: #bf00bf; stroke: #bf00bf; stroke-linejoin: bevel"/>
     <use xlink:href="#mf8b0c28a03" x="637.997181" y="344.094446" style="fill: #bf00bf; stroke: #bf00bf; stroke-linejoin: bevel"/>
     <use xlink:href="#mf8b0c28a03" x="642.075755" y="332.181716" style="fill: #bf00bf; stroke: #bf00bf; stroke-linejoin: bevel"/>
     <use xlink:href="#mf8b0c28a03" x="646.15433" y="345.01081" style="fill: #bf00bf; stroke: #bf00bf; stroke-linejoin: bevel"/>
     <use xlink:href="#mf8b0c28a03" x="650.232905" y="320.727167" style="fill: #bf00bf; stroke: #bf00bf; stroke-linejoin: bevel"/>
     <use xlink:href="#mf8b0c28a03" x="654.311479" y="308.356254" style="fill: #bf00bf; stroke: #bf00bf; stroke-linejoin: bevel"/>
     <use xlink:href="#mf8b0c28a03" x="674.704353" y="264.370786" style="fill: #bf00bf; stroke: #bf00bf; stroke-linejoin: bevel"/>
     <use xlink:href="#mf8b0c28a03" x="719.568674" y="294.610795" style="fill: #bf00bf; stroke: #bf00bf; stroke-linejoin: bevel"/>
     <use xlink:href="#mf8b0c28a03" x="739.961548" y="379.832639" style="fill: #bf00bf; stroke: #bf00bf; stroke-linejoin: bevel"/>
     <use xlink:href="#mf8b0c28a03" x="744.040123" y="401.825373" style="fill: #bf00bf; stroke: #bf00bf; stroke-linejoin: bevel"/>
     <use xlink:href="#mf8b0c28a03" x="752.197272" y="341.345355" style="fill: #bf00bf; stroke: #bf00bf; stroke-linejoin: bevel"/>
     <use xlink:href="#mf8b0c28a03" x="764.432996" y="385.330823" style="fill: #bf00bf; stroke: #bf00bf; stroke-linejoin: bevel"/>
     <use xlink:href="#mf8b0c28a03" x="817.454467" y="368.836272" style="fill: #bf00bf; stroke: #bf00bf; stroke-linejoin: bevel"/>
     <use xlink:href="#mf8b0c28a03" x="952.047432" y="121.418016" style="fill: #bf00bf; stroke: #bf00bf; stroke-linejoin: bevel"/>
    </g>
   </g>
   <g id="patch_3">
    <path d="M 99.82925 622.6035 
L 99.82925 35.0835 
" style="fill: none; stroke: #000000; stroke-width: 0.8; stroke-linejoin: miter; stroke-linecap: square"/>
   </g>
   <g id="patch_4">
    <path d="M 992.62925 622.6035 
L 992.62925 35.0835 
" style="fill: none; stroke: #000000; stroke-width: 0.8; stroke-linejoin: miter; stroke-linecap: square"/>
   </g>
   <g id="patch_5">
    <path d="M 99.82925 622.6035 
L 992.62925 622.6035 
" style="fill: none; stroke: #000000; stroke-width: 0.8; stroke-linejoin: miter; stroke-linecap: square"/>
   </g>
   <g id="patch_6">
    <path d="M 99.82925 35.0835 
L 992.62925 35.0835 
" style="fill: none; stroke: #000000; stroke-width: 0.8; stroke-linejoin: miter; stroke-linecap: square"/>
   </g>
   <g id="text_18">
    <!-- Body Weight -->
    <g transform="translate(455.13125 29.0835) scale(0.288 -0.288)">
     <defs>
      <path id="DejaVuSans-42" d="M 1259 2228 
L 1259 519 
L 2272 519 
Q 2781 519 3026 730 
Q 3272 941 3272 1375 
Q 3272 1813 3026 2020 
Q 2781 2228 2272 2228 
L 1259 2228 
z
M 1259 4147 
L 1259 2741 
L 2194 2741 
Q 2656 2741 2882 2914 
Q 3109 3088 3109 3444 
Q 3109 3797 2882 3972 
Q 2656 4147 2194 4147 
L 1259 4147 
z
M 628 4666 
L 2241 4666 
Q 2963 4666 3353 4366 
Q 3744 4066 3744 3513 
Q 3744 3084 3544 2831 
Q 3344 2578 2956 2516 
Q 3422 2416 3680 2098 
Q 3938 1781 3938 1306 
Q 3938 681 3513 340 
Q 3088 0 2303 0 
L 628 0 
L 628 4666 
z
" transform="scale(0.015625)"/>
      <path id="DejaVuSans-6f" d="M 1959 3097 
Q 1497 3097 1228 2736 
Q 959 2375 959 1747 
Q 959 1119 1226 758 
Q 1494 397 1959 397 
Q 2419 397 2687 759 
Q 2956 1122 2956 1747 
Q 2956 2369 2687 2733 
Q 2419 3097 1959 3097 
z
M 1959 3584 
Q 2709 3584 3137 3096 
Q 3566 2609 3566 1747 
Q 3566 888 3137 398 
Q 2709 -91 1959 -91 
Q 1206 -91 779 398 
Q 353 888 353 1747 
Q 353 2609 779 3096 
Q 1206 3584 1959 3584 
z
" transform="scale(0.015625)"/>
      <path id="DejaVuSans-64" d="M 2906 2969 
L 2906 4863 
L 3481 4863 
L 3481 0 
L 2906 0 
L 2906 525 
Q 2725 213 2448 61 
Q 2172 -91 1784 -91 
Q 1150 -91 751 415 
Q 353 922 353 1747 
Q 353 2572 751 3078 
Q 1150 3584 1784 3584 
Q 2172 3584 2448 3432 
Q 2725 3281 2906 2969 
z
M 947 1747 
Q 947 1113 1208 752 
Q 1469 391 1925 391 
Q 2381 391 2643 752 
Q 2906 1113 2906 1747 
Q 2906 2381 2643 2742 
Q 2381 3103 1925 3103 
Q 1469 3103 1208 2742 
Q 947 2381 947 1747 
z
" transform="scale(0.015625)"/>
      <path id="DejaVuSans-79" d="M 2059 -325 
Q 1816 -950 1584 -1140 
Q 1353 -1331 966 -1331 
L 506 -1331 
L 506 -850 
L 844 -850 
Q 1081 -850 1212 -737 
Q 1344 -625 1503 -206 
L 1606 56 
L 191 3500 
L 800 3500 
L 1894 763 
L 2988 3500 
L 3597 3500 
L 2059 -325 
z
" transform="scale(0.015625)"/>
     </defs>
     <use xlink:href="#DejaVuSans-42"/>
     <use xlink:href="#DejaVuSans-6f" x="68.603516"/>
     <use xlink:href="#DejaVuSans-64" x="129.785156"/>
     <use xlink:href="#DejaVuSans-79" x="193.261719"/>
     <use xlink:href="#DejaVuSans-20" x="252.441406"/>
     <use xlink:href="#DejaVuSans-57" x="284.228516"/>
     <use xlink:href="#DejaVuSans-65" x="377.230469"/>
     <use xlink:href="#DejaVuSans-69" x="438.753906"/>
     <use xlink:href="#DejaVuSans-67" x="466.537109"/>
     <use xlink:href="#DejaVuSans-68" x="530.013672"/>
     <use xlink:href="#DejaVuSans-74" x="593.392578"/>
    </g>
   </g>
  </g>
 </g>
 <defs>
  <clipPath id="pd74b9a67c0">
   <rect x="99.82925" y="35.0835" width="892.8" height="587.52"/>
  </clipPath>
 </defs>
</svg>
