<?xml version="1.0" encoding="utf-8" standalone="no"?>
<!DOCTYPE svg PUBLIC "-//W3C//DTD SVG 1.1//EN"
  "http://www.w3.org/Graphics/SVG/1.1/DTD/svg11.dtd">
<svg xmlns:xlink="http://www.w3.org/1999/xlink" width="968.023pt" height="705.725879pt" viewBox="0 0 968.023 705.725879" xmlns="http://www.w3.org/2000/svg" version="1.1">
 <metadata>
  <rdf:RDF xmlns:dc="http://purl.org/dc/elements/1.1/" xmlns:cc="http://creativecommons.org/ns#" xmlns:rdf="http://www.w3.org/1999/02/22-rdf-syntax-ns#">
   <cc:Work>
    <dc:type rdf:resource="http://purl.org/dc/dcmitype/StillImage"/>
    <dc:date>2022-12-14T19:16:43.936905</dc:date>
    <dc:format>image/svg+xml</dc:format>
    <dc:creator>
     <cc:Agent>
      <dc:title>Matplotlib v3.6.2, https://matplotlib.org/</dc:title>
     </cc:Agent>
    </dc:creator>
   </cc:Work>
  </rdf:RDF>
 </metadata>
 <defs>
  <style type="text/css">*{stroke-linejoin: round; stroke-linecap: butt}</style>
 </defs>
 <g id="figure_1">
  <g id="patch_1">
   <path d="M 0 705.725879 
L 968.023 705.725879 
L 968.023 0 
L 0 0 
z
" style="fill: #ffffff"/>
  </g>
  <g id="axes_1">
   <g id="patch_2">
    <path d="M 68.023 622.6035 
L 960.823 622.6035 
L 960.823 35.0835 
L 68.023 35.0835 
z
" style="fill: #ffffff"/>
   </g>
   <g id="PolyCollection_1">
    <defs>
     <path id="me379fa6955" d="M 108.604818 -505.802706 
L 108.604818 -417.979541 
L 119.214444 -109.827834 
L 124.519257 -451.155503 
L 129.82407 -457.322729 
L 135.128882 -515.046113 
L 140.433695 -396.614886 
L 145.738508 -485.699799 
L 151.043321 -477.790463 
L 156.348134 -480.132742 
L 161.652947 -479.578749 
L 166.957759 -409.440709 
L 172.262572 -411.505741 
L 177.567385 -508.115093 
L 182.872198 -498.719994 
L 188.177011 -427.437604 
L 193.481824 -483.148372 
L 198.786636 -533.181523 
L 204.091449 -581.214365 
L 209.396262 -612.826078 
L 214.701075 -566.363936 
L 220.005888 -575.742989 
L 225.310701 -517.136064 
L 230.615513 -493.008282 
L 235.920326 -467.925897 
L 241.225139 -501.879061 
L 246.529952 -493.999142 
L 251.834765 -504.227955 
L 257.139578 -537.57035 
L 262.44439 -485.316963 
L 267.749203 -449.032355 
L 273.054016 -478.687709 
L 278.358829 -506.927939 
L 283.663642 -512.061316 
L 288.968455 -501.297982 
L 294.273267 -514.725469 
L 299.57808 -469.972797 
L 304.882893 -418.724131 
L 310.187706 -459.612622 
L 315.492519 -461.315188 
L 320.797332 -526.33528 
L 326.102144 -459.339327 
L 331.406957 -436.98461 
L 336.71177 -426.904709 
L 342.016583 -473.69874 
L 347.321396 -393.322883 
L 352.626209 -363.048634 
L 357.931021 -466.306704 
L 363.235834 -432.264504 
L 368.540647 -461.896806 
L 373.84546 -364.860653 
L 379.150273 -394.523555 
L 384.455086 -385.591432 
L 389.759898 -377.620019 
L 395.064711 -406.519802 
L 400.369524 -433.174283 
L 405.674337 -420.689696 
L 410.97915 -390.304482 
L 416.283963 -447.264219 
L 421.588775 -420.351747 
L 426.893588 -402.289239 
L 432.198401 -418.45635 
L 437.503214 -420.922685 
L 442.808027 -309.240275 
L 448.11284 -333.993917 
L 453.417652 -439.945718 
L 458.722465 -383.431865 
L 464.027278 -407.437706 
L 469.332091 -318.21871 
L 474.636904 -341.497351 
L 479.941717 -383.546161 
L 485.246529 -360.815599 
L 490.551342 -403.724834 
L 495.856155 -426.869277 
L 501.160968 -394.949813 
L 506.465781 -409.587685 
L 511.770594 -429.433379 
L 517.075406 -478.877826 
L 522.380219 -429.582966 
L 527.685032 -513.891175 
L 532.989845 -555.105022 
L 543.599471 -454.314772 
L 548.904283 -462.825054 
L 554.209096 -491.112217 
L 559.513909 -439.539477 
L 586.037973 -451.350079 
L 591.342786 -451.336119 
L 596.647599 -346.761376 
L 601.952412 -441.237274 
L 607.257225 -377.476237 
L 628.476476 -403.187802 
L 633.781289 -382.313835 
L 639.086102 -442.372191 
L 676.219791 -405.744015 
L 681.524604 -337.217897 
L 686.829417 -365.085375 
L 692.13423 -398.936822 
L 697.439043 -462.871406 
L 702.743856 -445.106338 
L 708.048668 -368.107695 
L 713.353481 -393.360334 
L 718.658294 -359.957649 
L 723.963107 -390.482092 
L 729.26792 -387.640212 
L 734.572733 -379.087609 
L 755.791984 -333.972813 
L 761.096797 -327.201443 
L 766.40161 -335.314235 
L 771.706422 -397.348807 
L 777.011235 -268.323512 
L 803.535299 -305.73788 
L 861.888241 -377.296015 
L 888.412305 -352.226461 
L 893.717118 -370.09439 
L 904.326743 -294.176252 
L 920.241182 -361.973897 
L 920.241182 -463.605269 
L 920.241182 -463.605269 
L 904.326743 -381.999417 
L 893.717118 -457.917555 
L 888.412305 -440.049626 
L 861.888241 -465.11918 
L 803.535299 -393.561045 
L 777.011235 -356.146678 
L 771.706422 -473.530879 
L 766.40161 -423.1374 
L 761.096797 -415.024608 
L 755.791984 -421.795978 
L 734.572733 -466.910774 
L 729.26792 -475.463377 
L 723.963107 -553.446368 
L 718.658294 -447.780814 
L 713.353481 -481.1835 
L 708.048668 -455.93086 
L 702.743856 -532.929503 
L 697.439043 -550.694571 
L 692.13423 -466.185448 
L 686.829417 -452.90854 
L 681.524604 -425.041062 
L 676.219791 -426.427809 
L 639.086102 -530.195356 
L 633.781289 -470.137 
L 628.476476 -491.010967 
L 607.257225 -465.299402 
L 601.952412 -529.060439 
L 596.647599 -482.730043 
L 591.342786 -539.159284 
L 586.037973 -539.173244 
L 559.513909 -527.362642 
L 554.209096 -592.466097 
L 548.904283 -544.07123 
L 543.599471 -542.137938 
L 532.989845 -616.487536 
L 527.685032 -601.71434 
L 522.380219 -517.406132 
L 517.075406 -551.845948 
L 511.770594 -489.034554 
L 506.465781 -497.41085 
L 501.160968 -521.574094 
L 495.856155 -514.692443 
L 490.551342 -509.032128 
L 485.246529 -476.524636 
L 479.941717 -471.369327 
L 474.636904 -429.320517 
L 469.332091 -501.381811 
L 464.027278 -509.099416 
L 458.722465 -484.893624 
L 453.417652 -527.768883 
L 448.11284 -421.817082 
L 442.808027 -397.06344 
L 437.503214 -508.74585 
L 432.198401 -514.197881 
L 426.893588 -475.026872 
L 421.588775 -484.920689 
L 416.283963 -535.087385 
L 410.97915 -542.353816 
L 405.674337 -508.512862 
L 400.369524 -554.036513 
L 395.064711 -513.246987 
L 389.759898 -483.688421 
L 384.455086 -500.815559 
L 379.150273 -482.346721 
L 373.84546 -423.86403 
L 368.540647 -481.010068 
L 363.235834 -520.087669 
L 357.931021 -554.129869 
L 352.626209 -450.871799 
L 347.321396 -481.146048 
L 342.016583 -517.51682 
L 336.71177 -475.702462 
L 331.406957 -524.807776 
L 326.102144 -540.56983 
L 320.797332 -566.424793 
L 315.492519 -549.138353 
L 310.187706 -553.142698 
L 304.882893 -521.83241 
L 299.57808 -532.491879 
L 294.273267 -602.548634 
L 288.968455 -550.506044 
L 283.663642 -599.884481 
L 278.358829 -573.73278 
L 273.054016 -566.510874 
L 267.749203 -572.210216 
L 262.44439 -573.140128 
L 257.139578 -625.393515 
L 251.834765 -618.806794 
L 246.529952 -622.298071 
L 241.225139 -585.506053 
L 235.920326 -643.936925 
L 230.615513 -580.831447 
L 225.310701 -604.959229 
L 220.005888 -625.402542 
L 214.701075 -624.449839 
L 209.396262 -618.889414 
L 204.091449 -627.023008 
L 198.786636 -621.755504 
L 193.481824 -582.526871 
L 188.177011 -539.879858 
L 182.872198 -584.021696 
L 177.567385 -547.951864 
L 172.262572 -467.658131 
L 166.957759 -518.977554 
L 161.652947 -557.755114 
L 156.348134 -567.955907 
L 151.043321 -574.179242 
L 145.738508 -540.122948 
L 140.433695 -461.485 
L 135.128882 -549.793003 
L 129.82407 -480.795513 
L 124.519257 -542.438312 
L 119.214444 -396.771464 
L 108.604818 -505.802706 
z
" style="stroke: #a52a2a; stroke-opacity: 0.2"/>
    </defs>
    <g clip-path="url(#p258140c436)">
     <use xlink:href="#me379fa6955" x="0" y="705.725879" style="fill: #a52a2a; fill-opacity: 0.2; stroke: #a52a2a; stroke-opacity: 0.2"/>
    </g>
   </g>
   <g id="matplotlib.axis_1">
    <g id="xtick_1">
     <g id="line2d_1">
      <path d="M 113.909631 622.6035 
L 113.909631 35.0835 
" clip-path="url(#p258140c436)" style="fill: none; stroke: #a5a391; stroke-opacity: 0.3; stroke-width: 0.8; stroke-linecap: square"/>
     </g>
     <g id="line2d_2">
      <defs>
       <path id="m436a69ea51" d="M 0 0 
L 0 -3.5 
" style="stroke: #000000; stroke-width: 0.8"/>
      </defs>
      <g>
       <use xlink:href="#m436a69ea51" x="113.909631" y="622.6035" style="stroke: #000000; stroke-width: 0.8"/>
      </g>
     </g>
     <g id="text_1">
      <!-- Jan 01, 20 -->
      <g transform="translate(24.534583 689.66438) rotate(-30) scale(0.2 -0.2)">
       <defs>
        <path id="DejaVuSans-4a" d="M 628 4666 
L 1259 4666 
L 1259 325 
Q 1259 -519 939 -900 
Q 619 -1281 -91 -1281 
L -331 -1281 
L -331 -750 
L -134 -750 
Q 284 -750 456 -515 
Q 628 -281 628 325 
L 628 4666 
z
" transform="scale(0.015625)"/>
        <path id="DejaVuSans-61" d="M 2194 1759 
Q 1497 1759 1228 1600 
Q 959 1441 959 1056 
Q 959 750 1161 570 
Q 1363 391 1709 391 
Q 2188 391 2477 730 
Q 2766 1069 2766 1631 
L 2766 1759 
L 2194 1759 
z
M 3341 1997 
L 3341 0 
L 2766 0 
L 2766 531 
Q 2569 213 2275 61 
Q 1981 -91 1556 -91 
Q 1019 -91 701 211 
Q 384 513 384 1019 
Q 384 1609 779 1909 
Q 1175 2209 1959 2209 
L 2766 2209 
L 2766 2266 
Q 2766 2663 2505 2880 
Q 2244 3097 1772 3097 
Q 1472 3097 1187 3025 
Q 903 2953 641 2809 
L 641 3341 
Q 956 3463 1253 3523 
Q 1550 3584 1831 3584 
Q 2591 3584 2966 3190 
Q 3341 2797 3341 1997 
z
" transform="scale(0.015625)"/>
        <path id="DejaVuSans-6e" d="M 3513 2113 
L 3513 0 
L 2938 0 
L 2938 2094 
Q 2938 2591 2744 2837 
Q 2550 3084 2163 3084 
Q 1697 3084 1428 2787 
Q 1159 2491 1159 1978 
L 1159 0 
L 581 0 
L 581 3500 
L 1159 3500 
L 1159 2956 
Q 1366 3272 1645 3428 
Q 1925 3584 2291 3584 
Q 2894 3584 3203 3211 
Q 3513 2838 3513 2113 
z
" transform="scale(0.015625)"/>
        <path id="DejaVuSans-20" transform="scale(0.015625)"/>
        <path id="DejaVuSans-30" d="M 2034 4250 
Q 1547 4250 1301 3770 
Q 1056 3291 1056 2328 
Q 1056 1369 1301 889 
Q 1547 409 2034 409 
Q 2525 409 2770 889 
Q 3016 1369 3016 2328 
Q 3016 3291 2770 3770 
Q 2525 4250 2034 4250 
z
M 2034 4750 
Q 2819 4750 3233 4129 
Q 3647 3509 3647 2328 
Q 3647 1150 3233 529 
Q 2819 -91 2034 -91 
Q 1250 -91 836 529 
Q 422 1150 422 2328 
Q 422 3509 836 4129 
Q 1250 4750 2034 4750 
z
" transform="scale(0.015625)"/>
        <path id="DejaVuSans-31" d="M 794 531 
L 1825 531 
L 1825 4091 
L 703 3866 
L 703 4441 
L 1819 4666 
L 2450 4666 
L 2450 531 
L 3481 531 
L 3481 0 
L 794 0 
L 794 531 
z
" transform="scale(0.015625)"/>
        <path id="DejaVuSans-2c" d="M 750 794 
L 1409 794 
L 1409 256 
L 897 -744 
L 494 -744 
L 750 256 
L 750 794 
z
" transform="scale(0.015625)"/>
        <path id="DejaVuSans-32" d="M 1228 531 
L 3431 531 
L 3431 0 
L 469 0 
L 469 531 
Q 828 903 1448 1529 
Q 2069 2156 2228 2338 
Q 2531 2678 2651 2914 
Q 2772 3150 2772 3378 
Q 2772 3750 2511 3984 
Q 2250 4219 1831 4219 
Q 1534 4219 1204 4116 
Q 875 4013 500 3803 
L 500 4441 
Q 881 4594 1212 4672 
Q 1544 4750 1819 4750 
Q 2544 4750 2975 4387 
Q 3406 4025 3406 3419 
Q 3406 3131 3298 2873 
Q 3191 2616 2906 2266 
Q 2828 2175 2409 1742 
Q 1991 1309 1228 531 
z
" transform="scale(0.015625)"/>
       </defs>
       <use xlink:href="#DejaVuSans-4a"/>
       <use xlink:href="#DejaVuSans-61" x="29.492188"/>
       <use xlink:href="#DejaVuSans-6e" x="90.771484"/>
       <use xlink:href="#DejaVuSans-20" x="154.150391"/>
       <use xlink:href="#DejaVuSans-30" x="185.9375"/>
       <use xlink:href="#DejaVuSans-31" x="249.560547"/>
       <use xlink:href="#DejaVuSans-2c" x="313.183594"/>
       <use xlink:href="#DejaVuSans-20" x="344.970703"/>
       <use xlink:href="#DejaVuSans-32" x="376.757812"/>
       <use xlink:href="#DejaVuSans-30" x="440.380859"/>
      </g>
     </g>
    </g>
    <g id="xtick_2">
     <g id="line2d_3">
      <path d="M 205.60711 622.6035 
L 205.60711 35.0835 
" clip-path="url(#p258140c436)" style="fill: none; stroke: #a5a391; stroke-opacity: 0.3; stroke-width: 0.8; stroke-linecap: square"/>
     </g>
     <g id="line2d_4">
      <g>
       <use xlink:href="#m436a69ea51" x="205.60711" y="622.6035" style="stroke: #000000; stroke-width: 0.8"/>
      </g>
     </g>
     <g id="text_2">
      <!-- May 01, 20 -->
      <g transform="translate(107.122557 694.923755) rotate(-30) scale(0.2 -0.2)">
       <defs>
        <path id="DejaVuSans-4d" d="M 628 4666 
L 1569 4666 
L 2759 1491 
L 3956 4666 
L 4897 4666 
L 4897 0 
L 4281 0 
L 4281 4097 
L 3078 897 
L 2444 897 
L 1241 4097 
L 1241 0 
L 628 0 
L 628 4666 
z
" transform="scale(0.015625)"/>
        <path id="DejaVuSans-79" d="M 2059 -325 
Q 1816 -950 1584 -1140 
Q 1353 -1331 966 -1331 
L 506 -1331 
L 506 -850 
L 844 -850 
Q 1081 -850 1212 -737 
Q 1344 -625 1503 -206 
L 1606 56 
L 191 3500 
L 800 3500 
L 1894 763 
L 2988 3500 
L 3597 3500 
L 2059 -325 
z
" transform="scale(0.015625)"/>
       </defs>
       <use xlink:href="#DejaVuSans-4d"/>
       <use xlink:href="#DejaVuSans-61" x="86.279297"/>
       <use xlink:href="#DejaVuSans-79" x="147.558594"/>
       <use xlink:href="#DejaVuSans-20" x="206.738281"/>
       <use xlink:href="#DejaVuSans-30" x="238.525391"/>
       <use xlink:href="#DejaVuSans-31" x="302.148438"/>
       <use xlink:href="#DejaVuSans-2c" x="365.771484"/>
       <use xlink:href="#DejaVuSans-20" x="397.558594"/>
       <use xlink:href="#DejaVuSans-32" x="429.345703"/>
       <use xlink:href="#DejaVuSans-30" x="492.96875"/>
      </g>
     </g>
    </g>
    <g id="xtick_3">
     <g id="line2d_5">
      <path d="M 298.82025 622.6035 
L 298.82025 35.0835 
" clip-path="url(#p258140c436)" style="fill: none; stroke: #a5a391; stroke-opacity: 0.3; stroke-width: 0.8; stroke-linecap: square"/>
     </g>
     <g id="line2d_6">
      <g>
       <use xlink:href="#m436a69ea51" x="298.82025" y="622.6035" style="stroke: #000000; stroke-width: 0.8"/>
      </g>
     </g>
     <g id="text_3">
      <!-- Sep 01, 20 -->
      <g transform="translate(203.49669 693.098755) rotate(-30) scale(0.2 -0.2)">
       <defs>
        <path id="DejaVuSans-53" d="M 3425 4513 
L 3425 3897 
Q 3066 4069 2747 4153 
Q 2428 4238 2131 4238 
Q 1616 4238 1336 4038 
Q 1056 3838 1056 3469 
Q 1056 3159 1242 3001 
Q 1428 2844 1947 2747 
L 2328 2669 
Q 3034 2534 3370 2195 
Q 3706 1856 3706 1288 
Q 3706 609 3251 259 
Q 2797 -91 1919 -91 
Q 1588 -91 1214 -16 
Q 841 59 441 206 
L 441 856 
Q 825 641 1194 531 
Q 1563 422 1919 422 
Q 2459 422 2753 634 
Q 3047 847 3047 1241 
Q 3047 1584 2836 1778 
Q 2625 1972 2144 2069 
L 1759 2144 
Q 1053 2284 737 2584 
Q 422 2884 422 3419 
Q 422 4038 858 4394 
Q 1294 4750 2059 4750 
Q 2388 4750 2728 4690 
Q 3069 4631 3425 4513 
z
" transform="scale(0.015625)"/>
        <path id="DejaVuSans-65" d="M 3597 1894 
L 3597 1613 
L 953 1613 
Q 991 1019 1311 708 
Q 1631 397 2203 397 
Q 2534 397 2845 478 
Q 3156 559 3463 722 
L 3463 178 
Q 3153 47 2828 -22 
Q 2503 -91 2169 -91 
Q 1331 -91 842 396 
Q 353 884 353 1716 
Q 353 2575 817 3079 
Q 1281 3584 2069 3584 
Q 2775 3584 3186 3129 
Q 3597 2675 3597 1894 
z
M 3022 2063 
Q 3016 2534 2758 2815 
Q 2500 3097 2075 3097 
Q 1594 3097 1305 2825 
Q 1016 2553 972 2059 
L 3022 2063 
z
" transform="scale(0.015625)"/>
        <path id="DejaVuSans-70" d="M 1159 525 
L 1159 -1331 
L 581 -1331 
L 581 3500 
L 1159 3500 
L 1159 2969 
Q 1341 3281 1617 3432 
Q 1894 3584 2278 3584 
Q 2916 3584 3314 3078 
Q 3713 2572 3713 1747 
Q 3713 922 3314 415 
Q 2916 -91 2278 -91 
Q 1894 -91 1617 61 
Q 1341 213 1159 525 
z
M 3116 1747 
Q 3116 2381 2855 2742 
Q 2594 3103 2138 3103 
Q 1681 3103 1420 2742 
Q 1159 2381 1159 1747 
Q 1159 1113 1420 752 
Q 1681 391 2138 391 
Q 2594 391 2855 752 
Q 3116 1113 3116 1747 
z
" transform="scale(0.015625)"/>
       </defs>
       <use xlink:href="#DejaVuSans-53"/>
       <use xlink:href="#DejaVuSans-65" x="63.476562"/>
       <use xlink:href="#DejaVuSans-70" x="125"/>
       <use xlink:href="#DejaVuSans-20" x="188.476562"/>
       <use xlink:href="#DejaVuSans-30" x="220.263672"/>
       <use xlink:href="#DejaVuSans-31" x="283.886719"/>
       <use xlink:href="#DejaVuSans-2c" x="347.509766"/>
       <use xlink:href="#DejaVuSans-20" x="379.296875"/>
       <use xlink:href="#DejaVuSans-32" x="411.083984"/>
       <use xlink:href="#DejaVuSans-30" x="474.707031"/>
      </g>
     </g>
    </g>
    <g id="xtick_4">
     <g id="line2d_7">
      <path d="M 391.275559 622.6035 
L 391.275559 35.0835 
" clip-path="url(#p258140c436)" style="fill: none; stroke: #a5a391; stroke-opacity: 0.3; stroke-width: 0.8; stroke-linecap: square"/>
     </g>
     <g id="line2d_8">
      <g>
       <use xlink:href="#m436a69ea51" x="391.275559" y="622.6035" style="stroke: #000000; stroke-width: 0.8"/>
      </g>
     </g>
     <g id="text_4">
      <!-- Jan 01, 21 -->
      <g transform="translate(301.900511 689.66438) rotate(-30) scale(0.2 -0.2)">
       <use xlink:href="#DejaVuSans-4a"/>
       <use xlink:href="#DejaVuSans-61" x="29.492188"/>
       <use xlink:href="#DejaVuSans-6e" x="90.771484"/>
       <use xlink:href="#DejaVuSans-20" x="154.150391"/>
       <use xlink:href="#DejaVuSans-30" x="185.9375"/>
       <use xlink:href="#DejaVuSans-31" x="249.560547"/>
       <use xlink:href="#DejaVuSans-2c" x="313.183594"/>
       <use xlink:href="#DejaVuSans-20" x="344.970703"/>
       <use xlink:href="#DejaVuSans-32" x="376.757812"/>
       <use xlink:href="#DejaVuSans-31" x="440.380859"/>
      </g>
     </g>
    </g>
    <g id="xtick_5">
     <g id="line2d_9">
      <path d="M 482.215208 622.6035 
L 482.215208 35.0835 
" clip-path="url(#p258140c436)" style="fill: none; stroke: #a5a391; stroke-opacity: 0.3; stroke-width: 0.8; stroke-linecap: square"/>
     </g>
     <g id="line2d_10">
      <g>
       <use xlink:href="#m436a69ea51" x="482.215208" y="622.6035" style="stroke: #000000; stroke-width: 0.8"/>
      </g>
     </g>
     <g id="text_5">
      <!-- May 01, 21 -->
      <g transform="translate(383.730655 694.923755) rotate(-30) scale(0.2 -0.2)">
       <use xlink:href="#DejaVuSans-4d"/>
       <use xlink:href="#DejaVuSans-61" x="86.279297"/>
       <use xlink:href="#DejaVuSans-79" x="147.558594"/>
       <use xlink:href="#DejaVuSans-20" x="206.738281"/>
       <use xlink:href="#DejaVuSans-30" x="238.525391"/>
       <use xlink:href="#DejaVuSans-31" x="302.148438"/>
       <use xlink:href="#DejaVuSans-2c" x="365.771484"/>
       <use xlink:href="#DejaVuSans-20" x="397.558594"/>
       <use xlink:href="#DejaVuSans-32" x="429.345703"/>
       <use xlink:href="#DejaVuSans-31" x="492.96875"/>
      </g>
     </g>
    </g>
    <g id="xtick_6">
     <g id="line2d_11">
      <path d="M 575.428348 622.6035 
L 575.428348 35.0835 
" clip-path="url(#p258140c436)" style="fill: none; stroke: #a5a391; stroke-opacity: 0.3; stroke-width: 0.8; stroke-linecap: square"/>
     </g>
     <g id="line2d_12">
      <g>
       <use xlink:href="#m436a69ea51" x="575.428348" y="622.6035" style="stroke: #000000; stroke-width: 0.8"/>
      </g>
     </g>
     <g id="text_6">
      <!-- Sep 01, 21 -->
      <g transform="translate(480.104787 693.098755) rotate(-30) scale(0.2 -0.2)">
       <use xlink:href="#DejaVuSans-53"/>
       <use xlink:href="#DejaVuSans-65" x="63.476562"/>
       <use xlink:href="#DejaVuSans-70" x="125"/>
       <use xlink:href="#DejaVuSans-20" x="188.476562"/>
       <use xlink:href="#DejaVuSans-30" x="220.263672"/>
       <use xlink:href="#DejaVuSans-31" x="283.886719"/>
       <use xlink:href="#DejaVuSans-2c" x="347.509766"/>
       <use xlink:href="#DejaVuSans-20" x="379.296875"/>
       <use xlink:href="#DejaVuSans-32" x="411.083984"/>
       <use xlink:href="#DejaVuSans-31" x="474.707031"/>
      </g>
     </g>
    </g>
    <g id="xtick_7">
     <g id="line2d_13">
      <path d="M 667.883657 622.6035 
L 667.883657 35.0835 
" clip-path="url(#p258140c436)" style="fill: none; stroke: #a5a391; stroke-opacity: 0.3; stroke-width: 0.8; stroke-linecap: square"/>
     </g>
     <g id="line2d_14">
      <g>
       <use xlink:href="#m436a69ea51" x="667.883657" y="622.6035" style="stroke: #000000; stroke-width: 0.8"/>
      </g>
     </g>
     <g id="text_7">
      <!-- Jan 01, 22 -->
      <g transform="translate(578.508609 689.66438) rotate(-30) scale(0.2 -0.2)">
       <use xlink:href="#DejaVuSans-4a"/>
       <use xlink:href="#DejaVuSans-61" x="29.492188"/>
       <use xlink:href="#DejaVuSans-6e" x="90.771484"/>
       <use xlink:href="#DejaVuSans-20" x="154.150391"/>
       <use xlink:href="#DejaVuSans-30" x="185.9375"/>
       <use xlink:href="#DejaVuSans-31" x="249.560547"/>
       <use xlink:href="#DejaVuSans-2c" x="313.183594"/>
       <use xlink:href="#DejaVuSans-20" x="344.970703"/>
       <use xlink:href="#DejaVuSans-32" x="376.757812"/>
       <use xlink:href="#DejaVuSans-32" x="440.380859"/>
      </g>
     </g>
    </g>
    <g id="xtick_8">
     <g id="line2d_15">
      <path d="M 758.823306 622.6035 
L 758.823306 35.0835 
" clip-path="url(#p258140c436)" style="fill: none; stroke: #a5a391; stroke-opacity: 0.3; stroke-width: 0.8; stroke-linecap: square"/>
     </g>
     <g id="line2d_16">
      <g>
       <use xlink:href="#m436a69ea51" x="758.823306" y="622.6035" style="stroke: #000000; stroke-width: 0.8"/>
      </g>
     </g>
     <g id="text_8">
      <!-- May 01, 22 -->
      <g transform="translate(660.338753 694.923755) rotate(-30) scale(0.2 -0.2)">
       <use xlink:href="#DejaVuSans-4d"/>
       <use xlink:href="#DejaVuSans-61" x="86.279297"/>
       <use xlink:href="#DejaVuSans-79" x="147.558594"/>
       <use xlink:href="#DejaVuSans-20" x="206.738281"/>
       <use xlink:href="#DejaVuSans-30" x="238.525391"/>
       <use xlink:href="#DejaVuSans-31" x="302.148438"/>
       <use xlink:href="#DejaVuSans-2c" x="365.771484"/>
       <use xlink:href="#DejaVuSans-20" x="397.558594"/>
       <use xlink:href="#DejaVuSans-32" x="429.345703"/>
       <use xlink:href="#DejaVuSans-32" x="492.96875"/>
      </g>
     </g>
    </g>
    <g id="xtick_9">
     <g id="line2d_17">
      <path d="M 852.036445 622.6035 
L 852.036445 35.0835 
" clip-path="url(#p258140c436)" style="fill: none; stroke: #a5a391; stroke-opacity: 0.3; stroke-width: 0.8; stroke-linecap: square"/>
     </g>
     <g id="line2d_18">
      <g>
       <use xlink:href="#m436a69ea51" x="852.036445" y="622.6035" style="stroke: #000000; stroke-width: 0.8"/>
      </g>
     </g>
     <g id="text_9">
      <!-- Sep 01, 22 -->
      <g transform="translate(756.712885 693.098755) rotate(-30) scale(0.2 -0.2)">
       <use xlink:href="#DejaVuSans-53"/>
       <use xlink:href="#DejaVuSans-65" x="63.476562"/>
       <use xlink:href="#DejaVuSans-70" x="125"/>
       <use xlink:href="#DejaVuSans-20" x="188.476562"/>
       <use xlink:href="#DejaVuSans-30" x="220.263672"/>
       <use xlink:href="#DejaVuSans-31" x="283.886719"/>
       <use xlink:href="#DejaVuSans-2c" x="347.509766"/>
       <use xlink:href="#DejaVuSans-20" x="379.296875"/>
       <use xlink:href="#DejaVuSans-32" x="411.083984"/>
       <use xlink:href="#DejaVuSans-32" x="474.707031"/>
      </g>
     </g>
    </g>
    <g id="xtick_10">
     <g id="line2d_19">
      <path d="M 944.491755 622.6035 
L 944.491755 35.0835 
" clip-path="url(#p258140c436)" style="fill: none; stroke: #a5a391; stroke-opacity: 0.3; stroke-width: 0.8; stroke-linecap: square"/>
     </g>
     <g id="line2d_20">
      <g>
       <use xlink:href="#m436a69ea51" x="944.491755" y="622.6035" style="stroke: #000000; stroke-width: 0.8"/>
      </g>
     </g>
     <g id="text_10">
      <!-- Jan 01, 23 -->
      <g transform="translate(855.116707 689.66438) rotate(-30) scale(0.2 -0.2)">
       <defs>
        <path id="DejaVuSans-33" d="M 2597 2516 
Q 3050 2419 3304 2112 
Q 3559 1806 3559 1356 
Q 3559 666 3084 287 
Q 2609 -91 1734 -91 
Q 1441 -91 1130 -33 
Q 819 25 488 141 
L 488 750 
Q 750 597 1062 519 
Q 1375 441 1716 441 
Q 2309 441 2620 675 
Q 2931 909 2931 1356 
Q 2931 1769 2642 2001 
Q 2353 2234 1838 2234 
L 1294 2234 
L 1294 2753 
L 1863 2753 
Q 2328 2753 2575 2939 
Q 2822 3125 2822 3475 
Q 2822 3834 2567 4026 
Q 2313 4219 1838 4219 
Q 1578 4219 1281 4162 
Q 984 4106 628 3988 
L 628 4550 
Q 988 4650 1302 4700 
Q 1616 4750 1894 4750 
Q 2613 4750 3031 4423 
Q 3450 4097 3450 3541 
Q 3450 3153 3228 2886 
Q 3006 2619 2597 2516 
z
" transform="scale(0.015625)"/>
       </defs>
       <use xlink:href="#DejaVuSans-4a"/>
       <use xlink:href="#DejaVuSans-61" x="29.492188"/>
       <use xlink:href="#DejaVuSans-6e" x="90.771484"/>
       <use xlink:href="#DejaVuSans-20" x="154.150391"/>
       <use xlink:href="#DejaVuSans-30" x="185.9375"/>
       <use xlink:href="#DejaVuSans-31" x="249.560547"/>
       <use xlink:href="#DejaVuSans-2c" x="313.183594"/>
       <use xlink:href="#DejaVuSans-20" x="344.970703"/>
       <use xlink:href="#DejaVuSans-32" x="376.757812"/>
       <use xlink:href="#DejaVuSans-33" x="440.380859"/>
      </g>
     </g>
    </g>
   </g>
   <g id="matplotlib.axis_2">
    <g id="ytick_1">
     <g id="line2d_21">
      <path d="M 68.023 561.716502 
L 960.823 561.716502 
" clip-path="url(#p258140c436)" style="fill: none; stroke: #a5a391; stroke-opacity: 0.3; stroke-width: 0.8; stroke-linecap: square"/>
     </g>
     <g id="line2d_22">
      <defs>
       <path id="m703d9545ed" d="M 0 0 
L 3.5 0 
" style="stroke: #000000; stroke-width: 0.8"/>
      </defs>
      <g>
       <use xlink:href="#m703d9545ed" x="68.023" y="561.716502" style="stroke: #000000; stroke-width: 0.8"/>
      </g>
     </g>
     <g id="text_11">
      <!-- 68 -->
      <g transform="translate(39.073 569.314939) scale(0.2 -0.2)">
       <defs>
        <path id="DejaVuSans-36" d="M 2113 2584 
Q 1688 2584 1439 2293 
Q 1191 2003 1191 1497 
Q 1191 994 1439 701 
Q 1688 409 2113 409 
Q 2538 409 2786 701 
Q 3034 994 3034 1497 
Q 3034 2003 2786 2293 
Q 2538 2584 2113 2584 
z
M 3366 4563 
L 3366 3988 
Q 3128 4100 2886 4159 
Q 2644 4219 2406 4219 
Q 1781 4219 1451 3797 
Q 1122 3375 1075 2522 
Q 1259 2794 1537 2939 
Q 1816 3084 2150 3084 
Q 2853 3084 3261 2657 
Q 3669 2231 3669 1497 
Q 3669 778 3244 343 
Q 2819 -91 2113 -91 
Q 1303 -91 875 529 
Q 447 1150 447 2328 
Q 447 3434 972 4092 
Q 1497 4750 2381 4750 
Q 2619 4750 2861 4703 
Q 3103 4656 3366 4563 
z
" transform="scale(0.015625)"/>
        <path id="DejaVuSans-38" d="M 2034 2216 
Q 1584 2216 1326 1975 
Q 1069 1734 1069 1313 
Q 1069 891 1326 650 
Q 1584 409 2034 409 
Q 2484 409 2743 651 
Q 3003 894 3003 1313 
Q 3003 1734 2745 1975 
Q 2488 2216 2034 2216 
z
M 1403 2484 
Q 997 2584 770 2862 
Q 544 3141 544 3541 
Q 544 4100 942 4425 
Q 1341 4750 2034 4750 
Q 2731 4750 3128 4425 
Q 3525 4100 3525 3541 
Q 3525 3141 3298 2862 
Q 3072 2584 2669 2484 
Q 3125 2378 3379 2068 
Q 3634 1759 3634 1313 
Q 3634 634 3220 271 
Q 2806 -91 2034 -91 
Q 1263 -91 848 271 
Q 434 634 434 1313 
Q 434 1759 690 2068 
Q 947 2378 1403 2484 
z
M 1172 3481 
Q 1172 3119 1398 2916 
Q 1625 2713 2034 2713 
Q 2441 2713 2670 2916 
Q 2900 3119 2900 3481 
Q 2900 3844 2670 4047 
Q 2441 4250 2034 4250 
Q 1625 4250 1398 4047 
Q 1172 3844 1172 3481 
z
" transform="scale(0.015625)"/>
       </defs>
       <use xlink:href="#DejaVuSans-36"/>
       <use xlink:href="#DejaVuSans-38" x="63.623047"/>
      </g>
     </g>
    </g>
    <g id="ytick_2">
     <g id="line2d_23">
      <path d="M 68.023 460.08513 
L 960.823 460.08513 
" clip-path="url(#p258140c436)" style="fill: none; stroke: #a5a391; stroke-opacity: 0.3; stroke-width: 0.8; stroke-linecap: square"/>
     </g>
     <g id="line2d_24">
      <g>
       <use xlink:href="#m703d9545ed" x="68.023" y="460.08513" style="stroke: #000000; stroke-width: 0.8"/>
      </g>
     </g>
     <g id="text_12">
      <!-- 70 -->
      <g transform="translate(39.073 467.683568) scale(0.2 -0.2)">
       <defs>
        <path id="DejaVuSans-37" d="M 525 4666 
L 3525 4666 
L 3525 4397 
L 1831 0 
L 1172 0 
L 2766 4134 
L 525 4134 
L 525 4666 
z
" transform="scale(0.015625)"/>
       </defs>
       <use xlink:href="#DejaVuSans-37"/>
       <use xlink:href="#DejaVuSans-30" x="63.623047"/>
      </g>
     </g>
    </g>
    <g id="ytick_3">
     <g id="line2d_25">
      <path d="M 68.023 358.453759 
L 960.823 358.453759 
" clip-path="url(#p258140c436)" style="fill: none; stroke: #a5a391; stroke-opacity: 0.3; stroke-width: 0.8; stroke-linecap: square"/>
     </g>
     <g id="line2d_26">
      <g>
       <use xlink:href="#m703d9545ed" x="68.023" y="358.453759" style="stroke: #000000; stroke-width: 0.8"/>
      </g>
     </g>
     <g id="text_13">
      <!-- 72 -->
      <g transform="translate(39.073 366.052196) scale(0.2 -0.2)">
       <use xlink:href="#DejaVuSans-37"/>
       <use xlink:href="#DejaVuSans-32" x="63.623047"/>
      </g>
     </g>
    </g>
    <g id="ytick_4">
     <g id="line2d_27">
      <path d="M 68.023 256.822387 
L 960.823 256.822387 
" clip-path="url(#p258140c436)" style="fill: none; stroke: #a5a391; stroke-opacity: 0.3; stroke-width: 0.8; stroke-linecap: square"/>
     </g>
     <g id="line2d_28">
      <g>
       <use xlink:href="#m703d9545ed" x="68.023" y="256.822387" style="stroke: #000000; stroke-width: 0.8"/>
      </g>
     </g>
     <g id="text_14">
      <!-- 74 -->
      <g transform="translate(39.073 264.420825) scale(0.2 -0.2)">
       <defs>
        <path id="DejaVuSans-34" d="M 2419 4116 
L 825 1625 
L 2419 1625 
L 2419 4116 
z
M 2253 4666 
L 3047 4666 
L 3047 1625 
L 3713 1625 
L 3713 1100 
L 3047 1100 
L 3047 0 
L 2419 0 
L 2419 1100 
L 313 1100 
L 313 1709 
L 2253 4666 
z
" transform="scale(0.015625)"/>
       </defs>
       <use xlink:href="#DejaVuSans-37"/>
       <use xlink:href="#DejaVuSans-34" x="63.623047"/>
      </g>
     </g>
    </g>
    <g id="ytick_5">
     <g id="line2d_29">
      <path d="M 68.023 155.191016 
L 960.823 155.191016 
" clip-path="url(#p258140c436)" style="fill: none; stroke: #a5a391; stroke-opacity: 0.3; stroke-width: 0.8; stroke-linecap: square"/>
     </g>
     <g id="line2d_30">
      <g>
       <use xlink:href="#m703d9545ed" x="68.023" y="155.191016" style="stroke: #000000; stroke-width: 0.8"/>
      </g>
     </g>
     <g id="text_15">
      <!-- 76 -->
      <g transform="translate(39.073 162.789453) scale(0.2 -0.2)">
       <use xlink:href="#DejaVuSans-37"/>
       <use xlink:href="#DejaVuSans-36" x="63.623047"/>
      </g>
     </g>
    </g>
    <g id="ytick_6">
     <g id="line2d_31">
      <path d="M 68.023 53.559644 
L 960.823 53.559644 
" clip-path="url(#p258140c436)" style="fill: none; stroke: #a5a391; stroke-opacity: 0.3; stroke-width: 0.8; stroke-linecap: square"/>
     </g>
     <g id="line2d_32">
      <g>
       <use xlink:href="#m703d9545ed" x="68.023" y="53.559644" style="stroke: #000000; stroke-width: 0.8"/>
      </g>
     </g>
     <g id="text_16">
      <!-- 78 -->
      <g transform="translate(39.073 61.158082) scale(0.2 -0.2)">
       <use xlink:href="#DejaVuSans-37"/>
       <use xlink:href="#DejaVuSans-38" x="63.623047"/>
      </g>
     </g>
    </g>
    <g id="text_17">
     <!-- Muscle Mass Percentage [%] -->
     <g transform="translate(29.0835 534.56775) rotate(-90) scale(0.288 -0.288)">
      <defs>
       <path id="DejaVuSans-75" d="M 544 1381 
L 544 3500 
L 1119 3500 
L 1119 1403 
Q 1119 906 1312 657 
Q 1506 409 1894 409 
Q 2359 409 2629 706 
Q 2900 1003 2900 1516 
L 2900 3500 
L 3475 3500 
L 3475 0 
L 2900 0 
L 2900 538 
Q 2691 219 2414 64 
Q 2138 -91 1772 -91 
Q 1169 -91 856 284 
Q 544 659 544 1381 
z
M 1991 3584 
L 1991 3584 
z
" transform="scale(0.015625)"/>
       <path id="DejaVuSans-73" d="M 2834 3397 
L 2834 2853 
Q 2591 2978 2328 3040 
Q 2066 3103 1784 3103 
Q 1356 3103 1142 2972 
Q 928 2841 928 2578 
Q 928 2378 1081 2264 
Q 1234 2150 1697 2047 
L 1894 2003 
Q 2506 1872 2764 1633 
Q 3022 1394 3022 966 
Q 3022 478 2636 193 
Q 2250 -91 1575 -91 
Q 1294 -91 989 -36 
Q 684 19 347 128 
L 347 722 
Q 666 556 975 473 
Q 1284 391 1588 391 
Q 1994 391 2212 530 
Q 2431 669 2431 922 
Q 2431 1156 2273 1281 
Q 2116 1406 1581 1522 
L 1381 1569 
Q 847 1681 609 1914 
Q 372 2147 372 2553 
Q 372 3047 722 3315 
Q 1072 3584 1716 3584 
Q 2034 3584 2315 3537 
Q 2597 3491 2834 3397 
z
" transform="scale(0.015625)"/>
       <path id="DejaVuSans-63" d="M 3122 3366 
L 3122 2828 
Q 2878 2963 2633 3030 
Q 2388 3097 2138 3097 
Q 1578 3097 1268 2742 
Q 959 2388 959 1747 
Q 959 1106 1268 751 
Q 1578 397 2138 397 
Q 2388 397 2633 464 
Q 2878 531 3122 666 
L 3122 134 
Q 2881 22 2623 -34 
Q 2366 -91 2075 -91 
Q 1284 -91 818 406 
Q 353 903 353 1747 
Q 353 2603 823 3093 
Q 1294 3584 2113 3584 
Q 2378 3584 2631 3529 
Q 2884 3475 3122 3366 
z
" transform="scale(0.015625)"/>
       <path id="DejaVuSans-6c" d="M 603 4863 
L 1178 4863 
L 1178 0 
L 603 0 
L 603 4863 
z
" transform="scale(0.015625)"/>
       <path id="DejaVuSans-50" d="M 1259 4147 
L 1259 2394 
L 2053 2394 
Q 2494 2394 2734 2622 
Q 2975 2850 2975 3272 
Q 2975 3691 2734 3919 
Q 2494 4147 2053 4147 
L 1259 4147 
z
M 628 4666 
L 2053 4666 
Q 2838 4666 3239 4311 
Q 3641 3956 3641 3272 
Q 3641 2581 3239 2228 
Q 2838 1875 2053 1875 
L 1259 1875 
L 1259 0 
L 628 0 
L 628 4666 
z
" transform="scale(0.015625)"/>
       <path id="DejaVuSans-72" d="M 2631 2963 
Q 2534 3019 2420 3045 
Q 2306 3072 2169 3072 
Q 1681 3072 1420 2755 
Q 1159 2438 1159 1844 
L 1159 0 
L 581 0 
L 581 3500 
L 1159 3500 
L 1159 2956 
Q 1341 3275 1631 3429 
Q 1922 3584 2338 3584 
Q 2397 3584 2469 3576 
Q 2541 3569 2628 3553 
L 2631 2963 
z
" transform="scale(0.015625)"/>
       <path id="DejaVuSans-74" d="M 1172 4494 
L 1172 3500 
L 2356 3500 
L 2356 3053 
L 1172 3053 
L 1172 1153 
Q 1172 725 1289 603 
Q 1406 481 1766 481 
L 2356 481 
L 2356 0 
L 1766 0 
Q 1100 0 847 248 
Q 594 497 594 1153 
L 594 3053 
L 172 3053 
L 172 3500 
L 594 3500 
L 594 4494 
L 1172 4494 
z
" transform="scale(0.015625)"/>
       <path id="DejaVuSans-67" d="M 2906 1791 
Q 2906 2416 2648 2759 
Q 2391 3103 1925 3103 
Q 1463 3103 1205 2759 
Q 947 2416 947 1791 
Q 947 1169 1205 825 
Q 1463 481 1925 481 
Q 2391 481 2648 825 
Q 2906 1169 2906 1791 
z
M 3481 434 
Q 3481 -459 3084 -895 
Q 2688 -1331 1869 -1331 
Q 1566 -1331 1297 -1286 
Q 1028 -1241 775 -1147 
L 775 -588 
Q 1028 -725 1275 -790 
Q 1522 -856 1778 -856 
Q 2344 -856 2625 -561 
Q 2906 -266 2906 331 
L 2906 616 
Q 2728 306 2450 153 
Q 2172 0 1784 0 
Q 1141 0 747 490 
Q 353 981 353 1791 
Q 353 2603 747 3093 
Q 1141 3584 1784 3584 
Q 2172 3584 2450 3431 
Q 2728 3278 2906 2969 
L 2906 3500 
L 3481 3500 
L 3481 434 
z
" transform="scale(0.015625)"/>
       <path id="DejaVuSans-5b" d="M 550 4863 
L 1875 4863 
L 1875 4416 
L 1125 4416 
L 1125 -397 
L 1875 -397 
L 1875 -844 
L 550 -844 
L 550 4863 
z
" transform="scale(0.015625)"/>
       <path id="DejaVuSans-25" d="M 4653 2053 
Q 4381 2053 4226 1822 
Q 4072 1591 4072 1178 
Q 4072 772 4226 539 
Q 4381 306 4653 306 
Q 4919 306 5073 539 
Q 5228 772 5228 1178 
Q 5228 1588 5073 1820 
Q 4919 2053 4653 2053 
z
M 4653 2450 
Q 5147 2450 5437 2106 
Q 5728 1763 5728 1178 
Q 5728 594 5436 251 
Q 5144 -91 4653 -91 
Q 4153 -91 3862 251 
Q 3572 594 3572 1178 
Q 3572 1766 3864 2108 
Q 4156 2450 4653 2450 
z
M 1428 4353 
Q 1159 4353 1004 4120 
Q 850 3888 850 3481 
Q 850 3069 1003 2837 
Q 1156 2606 1428 2606 
Q 1700 2606 1854 2837 
Q 2009 3069 2009 3481 
Q 2009 3884 1853 4118 
Q 1697 4353 1428 4353 
z
M 4250 4750 
L 4750 4750 
L 1831 -91 
L 1331 -91 
L 4250 4750 
z
M 1428 4750 
Q 1922 4750 2215 4408 
Q 2509 4066 2509 3481 
Q 2509 2891 2217 2550 
Q 1925 2209 1428 2209 
Q 931 2209 642 2551 
Q 353 2894 353 3481 
Q 353 4063 643 4406 
Q 934 4750 1428 4750 
z
" transform="scale(0.015625)"/>
       <path id="DejaVuSans-5d" d="M 1947 4863 
L 1947 -844 
L 622 -844 
L 622 -397 
L 1369 -397 
L 1369 4416 
L 622 4416 
L 622 4863 
L 1947 4863 
z
" transform="scale(0.015625)"/>
      </defs>
      <use xlink:href="#DejaVuSans-4d"/>
      <use xlink:href="#DejaVuSans-75" x="86.279297"/>
      <use xlink:href="#DejaVuSans-73" x="149.658203"/>
      <use xlink:href="#DejaVuSans-63" x="201.757812"/>
      <use xlink:href="#DejaVuSans-6c" x="256.738281"/>
      <use xlink:href="#DejaVuSans-65" x="284.521484"/>
      <use xlink:href="#DejaVuSans-20" x="346.044922"/>
      <use xlink:href="#DejaVuSans-4d" x="377.832031"/>
      <use xlink:href="#DejaVuSans-61" x="464.111328"/>
      <use xlink:href="#DejaVuSans-73" x="525.390625"/>
      <use xlink:href="#DejaVuSans-73" x="577.490234"/>
      <use xlink:href="#DejaVuSans-20" x="629.589844"/>
      <use xlink:href="#DejaVuSans-50" x="661.376953"/>
      <use xlink:href="#DejaVuSans-65" x="718.054688"/>
      <use xlink:href="#DejaVuSans-72" x="779.578125"/>
      <use xlink:href="#DejaVuSans-63" x="818.441406"/>
      <use xlink:href="#DejaVuSans-65" x="873.421875"/>
      <use xlink:href="#DejaVuSans-6e" x="934.945312"/>
      <use xlink:href="#DejaVuSans-74" x="998.324219"/>
      <use xlink:href="#DejaVuSans-61" x="1037.533203"/>
      <use xlink:href="#DejaVuSans-67" x="1098.8125"/>
      <use xlink:href="#DejaVuSans-65" x="1162.289062"/>
      <use xlink:href="#DejaVuSans-20" x="1223.8125"/>
      <use xlink:href="#DejaVuSans-5b" x="1255.599609"/>
      <use xlink:href="#DejaVuSans-25" x="1294.613281"/>
      <use xlink:href="#DejaVuSans-5d" x="1389.632812"/>
     </g>
    </g>
   </g>
   <g id="line2d_33">
    <path d="M 108.604818 243.834755 
L 119.214444 452.426231 
L 124.519257 208.928971 
L 129.82407 236.666758 
L 135.128882 173.306321 
L 140.433695 276.675936 
L 145.738508 192.814506 
L 151.043321 179.741027 
L 156.348134 181.681554 
L 161.652947 187.058948 
L 166.957759 241.516748 
L 172.262572 266.143943 
L 177.567385 177.692401 
L 182.872198 164.355034 
L 188.177011 222.067148 
L 193.481824 172.888258 
L 198.786636 128.257366 
L 204.091449 101.607193 
L 209.396262 89.868133 
L 214.701075 110.318992 
L 220.005888 105.153114 
L 225.310701 144.678233 
L 230.615513 168.806015 
L 235.920326 149.794468 
L 241.225139 162.033322 
L 246.529952 147.577272 
L 251.834765 144.208504 
L 257.139578 124.243947 
L 262.44439 176.497334 
L 267.749203 195.104594 
L 273.054016 183.126588 
L 278.358829 165.39552 
L 283.663642 149.752981 
L 288.968455 179.823866 
L 294.273267 147.088827 
L 299.57808 204.493541 
L 304.882893 235.447609 
L 310.187706 199.348219 
L 315.492519 200.499109 
L 320.797332 159.345842 
L 326.102144 205.771301 
L 331.406957 224.829686 
L 336.71177 254.422294 
L 342.016583 210.118099 
L 347.321396 268.491414 
L 352.626209 298.765663 
L 357.931021 195.507593 
L 363.235834 229.549792 
L 368.540647 234.272442 
L 373.84546 311.363538 
L 379.150273 267.290741 
L 384.455086 262.522384 
L 389.759898 275.071659 
L 395.064711 245.842485 
L 400.369524 212.120481 
L 405.674337 241.1246 
L 410.97915 239.396731 
L 416.283963 214.550077 
L 421.588775 253.089661 
L 426.893588 267.067824 
L 432.198401 239.398764 
L 437.503214 240.891612 
L 442.808027 352.574021 
L 448.11284 327.820379 
L 453.417652 221.868578 
L 458.722465 271.563135 
L 464.027278 247.457318 
L 469.332091 295.925619 
L 474.636904 320.316945 
L 479.941717 278.268135 
L 485.246529 287.055762 
L 490.551342 249.347398 
L 495.856155 234.945019 
L 501.160968 247.463926 
L 506.465781 252.226612 
L 511.770594 246.491913 
L 517.075406 190.363992 
L 522.380219 232.23133 
L 527.685032 147.923122 
L 532.989845 119.9296 
L 543.599471 207.499524 
L 548.904283 202.277738 
L 554.209096 163.936722 
L 559.513909 222.27482 
L 586.037973 210.464218 
L 591.342786 210.478178 
L 596.647599 290.98017 
L 601.952412 220.577022 
L 607.257225 284.33806 
L 628.476476 258.626494 
L 633.781289 279.500462 
L 639.086102 219.442106 
L 676.219791 289.639967 
L 681.524604 324.5964 
L 686.829417 296.728922 
L 692.13423 273.164744 
L 697.439043 198.94289 
L 702.743856 216.707959 
L 708.048668 293.706602 
L 713.353481 268.453962 
L 718.658294 301.856648 
L 723.963107 233.761649 
L 729.26792 274.174085 
L 734.572733 282.726687 
L 755.791984 327.841484 
L 761.096797 334.612854 
L 766.40161 326.500062 
L 771.706422 270.286036 
L 777.011235 393.490784 
L 803.535299 356.076417 
L 861.888241 284.518282 
L 888.412305 309.587836 
L 893.717118 291.719906 
L 904.326743 367.638045 
L 920.241182 292.936296 
" clip-path="url(#p258140c436)" style="fill: none; stroke: #a52a2a; stroke-width: 1.5; stroke-linecap: square"/>
    <defs>
     <path id="me899d22d33" d="M 0 -3 
L -0.673542 -0.927051 
L -2.85317 -0.927051 
L -1.089814 0.354102 
L -1.763356 2.427051 
L -0 1.145898 
L 1.763356 2.427051 
L 1.089814 0.354102 
L 2.85317 -0.927051 
L 0.673542 -0.927051 
z
" style="stroke: #a52a2a; stroke-linejoin: bevel"/>
    </defs>
    <g clip-path="url(#p258140c436)">
     <use xlink:href="#me899d22d33" x="108.604818" y="243.834755" style="fill: #a52a2a; stroke: #a52a2a; stroke-linejoin: bevel"/>
     <use xlink:href="#me899d22d33" x="119.214444" y="452.426231" style="fill: #a52a2a; stroke: #a52a2a; stroke-linejoin: bevel"/>
     <use xlink:href="#me899d22d33" x="124.519257" y="208.928971" style="fill: #a52a2a; stroke: #a52a2a; stroke-linejoin: bevel"/>
     <use xlink:href="#me899d22d33" x="129.82407" y="236.666758" style="fill: #a52a2a; stroke: #a52a2a; stroke-linejoin: bevel"/>
     <use xlink:href="#me899d22d33" x="135.128882" y="173.306321" style="fill: #a52a2a; stroke: #a52a2a; stroke-linejoin: bevel"/>
     <use xlink:href="#me899d22d33" x="140.433695" y="276.675936" style="fill: #a52a2a; stroke: #a52a2a; stroke-linejoin: bevel"/>
     <use xlink:href="#me899d22d33" x="145.738508" y="192.814506" style="fill: #a52a2a; stroke: #a52a2a; stroke-linejoin: bevel"/>
     <use xlink:href="#me899d22d33" x="151.043321" y="179.741027" style="fill: #a52a2a; stroke: #a52a2a; stroke-linejoin: bevel"/>
     <use xlink:href="#me899d22d33" x="156.348134" y="181.681554" style="fill: #a52a2a; stroke: #a52a2a; stroke-linejoin: bevel"/>
     <use xlink:href="#me899d22d33" x="161.652947" y="187.058948" style="fill: #a52a2a; stroke: #a52a2a; stroke-linejoin: bevel"/>
     <use xlink:href="#me899d22d33" x="166.957759" y="241.516748" style="fill: #a52a2a; stroke: #a52a2a; stroke-linejoin: bevel"/>
     <use xlink:href="#me899d22d33" x="172.262572" y="266.143943" style="fill: #a52a2a; stroke: #a52a2a; stroke-linejoin: bevel"/>
     <use xlink:href="#me899d22d33" x="177.567385" y="177.692401" style="fill: #a52a2a; stroke: #a52a2a; stroke-linejoin: bevel"/>
     <use xlink:href="#me899d22d33" x="182.872198" y="164.355034" style="fill: #a52a2a; stroke: #a52a2a; stroke-linejoin: bevel"/>
     <use xlink:href="#me899d22d33" x="188.177011" y="222.067148" style="fill: #a52a2a; stroke: #a52a2a; stroke-linejoin: bevel"/>
     <use xlink:href="#me899d22d33" x="193.481824" y="172.888258" style="fill: #a52a2a; stroke: #a52a2a; stroke-linejoin: bevel"/>
     <use xlink:href="#me899d22d33" x="198.786636" y="128.257366" style="fill: #a52a2a; stroke: #a52a2a; stroke-linejoin: bevel"/>
     <use xlink:href="#me899d22d33" x="204.091449" y="101.607193" style="fill: #a52a2a; stroke: #a52a2a; stroke-linejoin: bevel"/>
     <use xlink:href="#me899d22d33" x="209.396262" y="89.868133" style="fill: #a52a2a; stroke: #a52a2a; stroke-linejoin: bevel"/>
     <use xlink:href="#me899d22d33" x="214.701075" y="110.318992" style="fill: #a52a2a; stroke: #a52a2a; stroke-linejoin: bevel"/>
     <use xlink:href="#me899d22d33" x="220.005888" y="105.153114" style="fill: #a52a2a; stroke: #a52a2a; stroke-linejoin: bevel"/>
     <use xlink:href="#me899d22d33" x="225.310701" y="144.678233" style="fill: #a52a2a; stroke: #a52a2a; stroke-linejoin: bevel"/>
     <use xlink:href="#me899d22d33" x="230.615513" y="168.806015" style="fill: #a52a2a; stroke: #a52a2a; stroke-linejoin: bevel"/>
     <use xlink:href="#me899d22d33" x="235.920326" y="149.794468" style="fill: #a52a2a; stroke: #a52a2a; stroke-linejoin: bevel"/>
     <use xlink:href="#me899d22d33" x="241.225139" y="162.033322" style="fill: #a52a2a; stroke: #a52a2a; stroke-linejoin: bevel"/>
     <use xlink:href="#me899d22d33" x="246.529952" y="147.577272" style="fill: #a52a2a; stroke: #a52a2a; stroke-linejoin: bevel"/>
     <use xlink:href="#me899d22d33" x="251.834765" y="144.208504" style="fill: #a52a2a; stroke: #a52a2a; stroke-linejoin: bevel"/>
     <use xlink:href="#me899d22d33" x="257.139578" y="124.243947" style="fill: #a52a2a; stroke: #a52a2a; stroke-linejoin: bevel"/>
     <use xlink:href="#me899d22d33" x="262.44439" y="176.497334" style="fill: #a52a2a; stroke: #a52a2a; stroke-linejoin: bevel"/>
     <use xlink:href="#me899d22d33" x="267.749203" y="195.104594" style="fill: #a52a2a; stroke: #a52a2a; stroke-linejoin: bevel"/>
     <use xlink:href="#me899d22d33" x="273.054016" y="183.126588" style="fill: #a52a2a; stroke: #a52a2a; stroke-linejoin: bevel"/>
     <use xlink:href="#me899d22d33" x="278.358829" y="165.39552" style="fill: #a52a2a; stroke: #a52a2a; stroke-linejoin: bevel"/>
     <use xlink:href="#me899d22d33" x="283.663642" y="149.752981" style="fill: #a52a2a; stroke: #a52a2a; stroke-linejoin: bevel"/>
     <use xlink:href="#me899d22d33" x="288.968455" y="179.823866" style="fill: #a52a2a; stroke: #a52a2a; stroke-linejoin: bevel"/>
     <use xlink:href="#me899d22d33" x="294.273267" y="147.088827" style="fill: #a52a2a; stroke: #a52a2a; stroke-linejoin: bevel"/>
     <use xlink:href="#me899d22d33" x="299.57808" y="204.493541" style="fill: #a52a2a; stroke: #a52a2a; stroke-linejoin: bevel"/>
     <use xlink:href="#me899d22d33" x="304.882893" y="235.447609" style="fill: #a52a2a; stroke: #a52a2a; stroke-linejoin: bevel"/>
     <use xlink:href="#me899d22d33" x="310.187706" y="199.348219" style="fill: #a52a2a; stroke: #a52a2a; stroke-linejoin: bevel"/>
     <use xlink:href="#me899d22d33" x="315.492519" y="200.499109" style="fill: #a52a2a; stroke: #a52a2a; stroke-linejoin: bevel"/>
     <use xlink:href="#me899d22d33" x="320.797332" y="159.345842" style="fill: #a52a2a; stroke: #a52a2a; stroke-linejoin: bevel"/>
     <use xlink:href="#me899d22d33" x="326.102144" y="205.771301" style="fill: #a52a2a; stroke: #a52a2a; stroke-linejoin: bevel"/>
     <use xlink:href="#me899d22d33" x="331.406957" y="224.829686" style="fill: #a52a2a; stroke: #a52a2a; stroke-linejoin: bevel"/>
     <use xlink:href="#me899d22d33" x="336.71177" y="254.422294" style="fill: #a52a2a; stroke: #a52a2a; stroke-linejoin: bevel"/>
     <use xlink:href="#me899d22d33" x="342.016583" y="210.118099" style="fill: #a52a2a; stroke: #a52a2a; stroke-linejoin: bevel"/>
     <use xlink:href="#me899d22d33" x="347.321396" y="268.491414" style="fill: #a52a2a; stroke: #a52a2a; stroke-linejoin: bevel"/>
     <use xlink:href="#me899d22d33" x="352.626209" y="298.765663" style="fill: #a52a2a; stroke: #a52a2a; stroke-linejoin: bevel"/>
     <use xlink:href="#me899d22d33" x="357.931021" y="195.507593" style="fill: #a52a2a; stroke: #a52a2a; stroke-linejoin: bevel"/>
     <use xlink:href="#me899d22d33" x="363.235834" y="229.549792" style="fill: #a52a2a; stroke: #a52a2a; stroke-linejoin: bevel"/>
     <use xlink:href="#me899d22d33" x="368.540647" y="234.272442" style="fill: #a52a2a; stroke: #a52a2a; stroke-linejoin: bevel"/>
     <use xlink:href="#me899d22d33" x="373.84546" y="311.363538" style="fill: #a52a2a; stroke: #a52a2a; stroke-linejoin: bevel"/>
     <use xlink:href="#me899d22d33" x="379.150273" y="267.290741" style="fill: #a52a2a; stroke: #a52a2a; stroke-linejoin: bevel"/>
     <use xlink:href="#me899d22d33" x="384.455086" y="262.522384" style="fill: #a52a2a; stroke: #a52a2a; stroke-linejoin: bevel"/>
     <use xlink:href="#me899d22d33" x="389.759898" y="275.071659" style="fill: #a52a2a; stroke: #a52a2a; stroke-linejoin: bevel"/>
     <use xlink:href="#me899d22d33" x="395.064711" y="245.842485" style="fill: #a52a2a; stroke: #a52a2a; stroke-linejoin: bevel"/>
     <use xlink:href="#me899d22d33" x="400.369524" y="212.120481" style="fill: #a52a2a; stroke: #a52a2a; stroke-linejoin: bevel"/>
     <use xlink:href="#me899d22d33" x="405.674337" y="241.1246" style="fill: #a52a2a; stroke: #a52a2a; stroke-linejoin: bevel"/>
     <use xlink:href="#me899d22d33" x="410.97915" y="239.396731" style="fill: #a52a2a; stroke: #a52a2a; stroke-linejoin: bevel"/>
     <use xlink:href="#me899d22d33" x="416.283963" y="214.550077" style="fill: #a52a2a; stroke: #a52a2a; stroke-linejoin: bevel"/>
     <use xlink:href="#me899d22d33" x="421.588775" y="253.089661" style="fill: #a52a2a; stroke: #a52a2a; stroke-linejoin: bevel"/>
     <use xlink:href="#me899d22d33" x="426.893588" y="267.067824" style="fill: #a52a2a; stroke: #a52a2a; stroke-linejoin: bevel"/>
     <use xlink:href="#me899d22d33" x="432.198401" y="239.398764" style="fill: #a52a2a; stroke: #a52a2a; stroke-linejoin: bevel"/>
     <use xlink:href="#me899d22d33" x="437.503214" y="240.891612" style="fill: #a52a2a; stroke: #a52a2a; stroke-linejoin: bevel"/>
     <use xlink:href="#me899d22d33" x="442.808027" y="352.574021" style="fill: #a52a2a; stroke: #a52a2a; stroke-linejoin: bevel"/>
     <use xlink:href="#me899d22d33" x="448.11284" y="327.820379" style="fill: #a52a2a; stroke: #a52a2a; stroke-linejoin: bevel"/>
     <use xlink:href="#me899d22d33" x="453.417652" y="221.868578" style="fill: #a52a2a; stroke: #a52a2a; stroke-linejoin: bevel"/>
     <use xlink:href="#me899d22d33" x="458.722465" y="271.563135" style="fill: #a52a2a; stroke: #a52a2a; stroke-linejoin: bevel"/>
     <use xlink:href="#me899d22d33" x="464.027278" y="247.457318" style="fill: #a52a2a; stroke: #a52a2a; stroke-linejoin: bevel"/>
     <use xlink:href="#me899d22d33" x="469.332091" y="295.925619" style="fill: #a52a2a; stroke: #a52a2a; stroke-linejoin: bevel"/>
     <use xlink:href="#me899d22d33" x="474.636904" y="320.316945" style="fill: #a52a2a; stroke: #a52a2a; stroke-linejoin: bevel"/>
     <use xlink:href="#me899d22d33" x="479.941717" y="278.268135" style="fill: #a52a2a; stroke: #a52a2a; stroke-linejoin: bevel"/>
     <use xlink:href="#me899d22d33" x="485.246529" y="287.055762" style="fill: #a52a2a; stroke: #a52a2a; stroke-linejoin: bevel"/>
     <use xlink:href="#me899d22d33" x="490.551342" y="249.347398" style="fill: #a52a2a; stroke: #a52a2a; stroke-linejoin: bevel"/>
     <use xlink:href="#me899d22d33" x="495.856155" y="234.945019" style="fill: #a52a2a; stroke: #a52a2a; stroke-linejoin: bevel"/>
     <use xlink:href="#me899d22d33" x="501.160968" y="247.463926" style="fill: #a52a2a; stroke: #a52a2a; stroke-linejoin: bevel"/>
     <use xlink:href="#me899d22d33" x="506.465781" y="252.226612" style="fill: #a52a2a; stroke: #a52a2a; stroke-linejoin: bevel"/>
     <use xlink:href="#me899d22d33" x="511.770594" y="246.491913" style="fill: #a52a2a; stroke: #a52a2a; stroke-linejoin: bevel"/>
     <use xlink:href="#me899d22d33" x="517.075406" y="190.363992" style="fill: #a52a2a; stroke: #a52a2a; stroke-linejoin: bevel"/>
     <use xlink:href="#me899d22d33" x="522.380219" y="232.23133" style="fill: #a52a2a; stroke: #a52a2a; stroke-linejoin: bevel"/>
     <use xlink:href="#me899d22d33" x="527.685032" y="147.923122" style="fill: #a52a2a; stroke: #a52a2a; stroke-linejoin: bevel"/>
     <use xlink:href="#me899d22d33" x="532.989845" y="119.9296" style="fill: #a52a2a; stroke: #a52a2a; stroke-linejoin: bevel"/>
     <use xlink:href="#me899d22d33" x="543.599471" y="207.499524" style="fill: #a52a2a; stroke: #a52a2a; stroke-linejoin: bevel"/>
     <use xlink:href="#me899d22d33" x="548.904283" y="202.277738" style="fill: #a52a2a; stroke: #a52a2a; stroke-linejoin: bevel"/>
     <use xlink:href="#me899d22d33" x="554.209096" y="163.936722" style="fill: #a52a2a; stroke: #a52a2a; stroke-linejoin: bevel"/>
     <use xlink:href="#me899d22d33" x="559.513909" y="222.27482" style="fill: #a52a2a; stroke: #a52a2a; stroke-linejoin: bevel"/>
     <use xlink:href="#me899d22d33" x="586.037973" y="210.464218" style="fill: #a52a2a; stroke: #a52a2a; stroke-linejoin: bevel"/>
     <use xlink:href="#me899d22d33" x="591.342786" y="210.478178" style="fill: #a52a2a; stroke: #a52a2a; stroke-linejoin: bevel"/>
     <use xlink:href="#me899d22d33" x="596.647599" y="290.98017" style="fill: #a52a2a; stroke: #a52a2a; stroke-linejoin: bevel"/>
     <use xlink:href="#me899d22d33" x="601.952412" y="220.577022" style="fill: #a52a2a; stroke: #a52a2a; stroke-linejoin: bevel"/>
     <use xlink:href="#me899d22d33" x="607.257225" y="284.33806" style="fill: #a52a2a; stroke: #a52a2a; stroke-linejoin: bevel"/>
     <use xlink:href="#me899d22d33" x="628.476476" y="258.626494" style="fill: #a52a2a; stroke: #a52a2a; stroke-linejoin: bevel"/>
     <use xlink:href="#me899d22d33" x="633.781289" y="279.500462" style="fill: #a52a2a; stroke: #a52a2a; stroke-linejoin: bevel"/>
     <use xlink:href="#me899d22d33" x="639.086102" y="219.442106" style="fill: #a52a2a; stroke: #a52a2a; stroke-linejoin: bevel"/>
     <use xlink:href="#me899d22d33" x="676.219791" y="289.639967" style="fill: #a52a2a; stroke: #a52a2a; stroke-linejoin: bevel"/>
     <use xlink:href="#me899d22d33" x="681.524604" y="324.5964" style="fill: #a52a2a; stroke: #a52a2a; stroke-linejoin: bevel"/>
     <use xlink:href="#me899d22d33" x="686.829417" y="296.728922" style="fill: #a52a2a; stroke: #a52a2a; stroke-linejoin: bevel"/>
     <use xlink:href="#me899d22d33" x="692.13423" y="273.164744" style="fill: #a52a2a; stroke: #a52a2a; stroke-linejoin: bevel"/>
     <use xlink:href="#me899d22d33" x="697.439043" y="198.94289" style="fill: #a52a2a; stroke: #a52a2a; stroke-linejoin: bevel"/>
     <use xlink:href="#me899d22d33" x="702.743856" y="216.707959" style="fill: #a52a2a; stroke: #a52a2a; stroke-linejoin: bevel"/>
     <use xlink:href="#me899d22d33" x="708.048668" y="293.706602" style="fill: #a52a2a; stroke: #a52a2a; stroke-linejoin: bevel"/>
     <use xlink:href="#me899d22d33" x="713.353481" y="268.453962" style="fill: #a52a2a; stroke: #a52a2a; stroke-linejoin: bevel"/>
     <use xlink:href="#me899d22d33" x="718.658294" y="301.856648" style="fill: #a52a2a; stroke: #a52a2a; stroke-linejoin: bevel"/>
     <use xlink:href="#me899d22d33" x="723.963107" y="233.761649" style="fill: #a52a2a; stroke: #a52a2a; stroke-linejoin: bevel"/>
     <use xlink:href="#me899d22d33" x="729.26792" y="274.174085" style="fill: #a52a2a; stroke: #a52a2a; stroke-linejoin: bevel"/>
     <use xlink:href="#me899d22d33" x="734.572733" y="282.726687" style="fill: #a52a2a; stroke: #a52a2a; stroke-linejoin: bevel"/>
     <use xlink:href="#me899d22d33" x="755.791984" y="327.841484" style="fill: #a52a2a; stroke: #a52a2a; stroke-linejoin: bevel"/>
     <use xlink:href="#me899d22d33" x="761.096797" y="334.612854" style="fill: #a52a2a; stroke: #a52a2a; stroke-linejoin: bevel"/>
     <use xlink:href="#me899d22d33" x="766.40161" y="326.500062" style="fill: #a52a2a; stroke: #a52a2a; stroke-linejoin: bevel"/>
     <use xlink:href="#me899d22d33" x="771.706422" y="270.286036" style="fill: #a52a2a; stroke: #a52a2a; stroke-linejoin: bevel"/>
     <use xlink:href="#me899d22d33" x="777.011235" y="393.490784" style="fill: #a52a2a; stroke: #a52a2a; stroke-linejoin: bevel"/>
     <use xlink:href="#me899d22d33" x="803.535299" y="356.076417" style="fill: #a52a2a; stroke: #a52a2a; stroke-linejoin: bevel"/>
     <use xlink:href="#me899d22d33" x="861.888241" y="284.518282" style="fill: #a52a2a; stroke: #a52a2a; stroke-linejoin: bevel"/>
     <use xlink:href="#me899d22d33" x="888.412305" y="309.587836" style="fill: #a52a2a; stroke: #a52a2a; stroke-linejoin: bevel"/>
     <use xlink:href="#me899d22d33" x="893.717118" y="291.719906" style="fill: #a52a2a; stroke: #a52a2a; stroke-linejoin: bevel"/>
     <use xlink:href="#me899d22d33" x="904.326743" y="367.638045" style="fill: #a52a2a; stroke: #a52a2a; stroke-linejoin: bevel"/>
     <use xlink:href="#me899d22d33" x="920.241182" y="292.936296" style="fill: #a52a2a; stroke: #a52a2a; stroke-linejoin: bevel"/>
    </g>
   </g>
   <g id="patch_3">
    <path d="M 68.023 622.6035 
L 68.023 35.0835 
" style="fill: none; stroke: #000000; stroke-width: 0.8; stroke-linejoin: miter; stroke-linecap: square"/>
   </g>
   <g id="patch_4">
    <path d="M 960.823 622.6035 
L 960.823 35.0835 
" style="fill: none; stroke: #000000; stroke-width: 0.8; stroke-linejoin: miter; stroke-linecap: square"/>
   </g>
   <g id="patch_5">
    <path d="M 68.023 622.6035 
L 960.823 622.6035 
" style="fill: none; stroke: #000000; stroke-width: 0.8; stroke-linejoin: miter; stroke-linecap: square"/>
   </g>
   <g id="patch_6">
    <path d="M 68.023 35.0835 
L 960.823 35.0835 
" style="fill: none; stroke: #000000; stroke-width: 0.8; stroke-linejoin: miter; stroke-linecap: square"/>
   </g>
   <g id="text_18">
    <!-- Body Muscle Mass Percentage -->
    <g transform="translate(297.262 29.0835) scale(0.288 -0.288)">
     <defs>
      <path id="DejaVuSans-42" d="M 1259 2228 
L 1259 519 
L 2272 519 
Q 2781 519 3026 730 
Q 3272 941 3272 1375 
Q 3272 1813 3026 2020 
Q 2781 2228 2272 2228 
L 1259 2228 
z
M 1259 4147 
L 1259 2741 
L 2194 2741 
Q 2656 2741 2882 2914 
Q 3109 3088 3109 3444 
Q 3109 3797 2882 3972 
Q 2656 4147 2194 4147 
L 1259 4147 
z
M 628 4666 
L 2241 4666 
Q 2963 4666 3353 4366 
Q 3744 4066 3744 3513 
Q 3744 3084 3544 2831 
Q 3344 2578 2956 2516 
Q 3422 2416 3680 2098 
Q 3938 1781 3938 1306 
Q 3938 681 3513 340 
Q 3088 0 2303 0 
L 628 0 
L 628 4666 
z
" transform="scale(0.015625)"/>
      <path id="DejaVuSans-6f" d="M 1959 3097 
Q 1497 3097 1228 2736 
Q 959 2375 959 1747 
Q 959 1119 1226 758 
Q 1494 397 1959 397 
Q 2419 397 2687 759 
Q 2956 1122 2956 1747 
Q 2956 2369 2687 2733 
Q 2419 3097 1959 3097 
z
M 1959 3584 
Q 2709 3584 3137 3096 
Q 3566 2609 3566 1747 
Q 3566 888 3137 398 
Q 2709 -91 1959 -91 
Q 1206 -91 779 398 
Q 353 888 353 1747 
Q 353 2609 779 3096 
Q 1206 3584 1959 3584 
z
" transform="scale(0.015625)"/>
      <path id="DejaVuSans-64" d="M 2906 2969 
L 2906 4863 
L 3481 4863 
L 3481 0 
L 2906 0 
L 2906 525 
Q 2725 213 2448 61 
Q 2172 -91 1784 -91 
Q 1150 -91 751 415 
Q 353 922 353 1747 
Q 353 2572 751 3078 
Q 1150 3584 1784 3584 
Q 2172 3584 2448 3432 
Q 2725 3281 2906 2969 
z
M 947 1747 
Q 947 1113 1208 752 
Q 1469 391 1925 391 
Q 2381 391 2643 752 
Q 2906 1113 2906 1747 
Q 2906 2381 2643 2742 
Q 2381 3103 1925 3103 
Q 1469 3103 1208 2742 
Q 947 2381 947 1747 
z
" transform="scale(0.015625)"/>
     </defs>
     <use xlink:href="#DejaVuSans-42"/>
     <use xlink:href="#DejaVuSans-6f" x="68.603516"/>
     <use xlink:href="#DejaVuSans-64" x="129.785156"/>
     <use xlink:href="#DejaVuSans-79" x="193.261719"/>
     <use xlink:href="#DejaVuSans-20" x="252.441406"/>
     <use xlink:href="#DejaVuSans-4d" x="284.228516"/>
     <use xlink:href="#DejaVuSans-75" x="370.507812"/>
     <use xlink:href="#DejaVuSans-73" x="433.886719"/>
     <use xlink:href="#DejaVuSans-63" x="485.986328"/>
     <use xlink:href="#DejaVuSans-6c" x="540.966797"/>
     <use xlink:href="#DejaVuSans-65" x="568.75"/>
     <use xlink:href="#DejaVuSans-20" x="630.273438"/>
     <use xlink:href="#DejaVuSans-4d" x="662.060547"/>
     <use xlink:href="#DejaVuSans-61" x="748.339844"/>
     <use xlink:href="#DejaVuSans-73" x="809.619141"/>
     <use xlink:href="#DejaVuSans-73" x="861.71875"/>
     <use xlink:href="#DejaVuSans-20" x="913.818359"/>
     <use xlink:href="#DejaVuSans-50" x="945.605469"/>
     <use xlink:href="#DejaVuSans-65" x="1002.283203"/>
     <use xlink:href="#DejaVuSans-72" x="1063.806641"/>
     <use xlink:href="#DejaVuSans-63" x="1102.669922"/>
     <use xlink:href="#DejaVuSans-65" x="1157.650391"/>
     <use xlink:href="#DejaVuSans-6e" x="1219.173828"/>
     <use xlink:href="#DejaVuSans-74" x="1282.552734"/>
     <use xlink:href="#DejaVuSans-61" x="1321.761719"/>
     <use xlink:href="#DejaVuSans-67" x="1383.041016"/>
     <use xlink:href="#DejaVuSans-65" x="1446.517578"/>
    </g>
   </g>
  </g>
 </g>
 <defs>
  <clipPath id="p258140c436">
   <rect x="68.023" y="35.0835" width="892.8" height="587.52"/>
  </clipPath>
 </defs>
</svg>
