<?xml version="1.0" encoding="utf-8" standalone="no"?>
<!DOCTYPE svg PUBLIC "-//W3C//DTD SVG 1.1//EN"
  "http://www.w3.org/Graphics/SVG/1.1/DTD/svg11.dtd">
<svg xmlns:xlink="http://www.w3.org/1999/xlink" width="999.82925pt" height="705.725879pt" viewBox="0 0 999.82925 705.725879" xmlns="http://www.w3.org/2000/svg" version="1.1">
 <metadata>
  <rdf:RDF xmlns:dc="http://purl.org/dc/elements/1.1/" xmlns:cc="http://creativecommons.org/ns#" xmlns:rdf="http://www.w3.org/1999/02/22-rdf-syntax-ns#">
   <cc:Work>
    <dc:type rdf:resource="http://purl.org/dc/dcmitype/StillImage"/>
    <dc:date>2022-10-24T19:32:02.859237</dc:date>
    <dc:format>image/svg+xml</dc:format>
    <dc:creator>
     <cc:Agent>
      <dc:title>Matplotlib v3.6.1, https://matplotlib.org/</dc:title>
     </cc:Agent>
    </dc:creator>
   </cc:Work>
  </rdf:RDF>
 </metadata>
 <defs>
  <style type="text/css">*{stroke-linejoin: round; stroke-linecap: butt}</style>
 </defs>
 <g id="figure_1">
  <g id="patch_1">
   <path d="M 0 705.725879 
L 999.82925 705.725879 
L 999.82925 0 
L 0 0 
z
" style="fill: #ffffff"/>
  </g>
  <g id="axes_1">
   <g id="patch_2">
    <path d="M 99.82925 622.6035 
L 992.62925 622.6035 
L 992.62925 35.0835 
L 99.82925 35.0835 
z
" style="fill: #ffffff"/>
   </g>
   <g id="PolyCollection_1">
    <defs>
     <path id="mb07c83f08d" d="M 140.411068 -232.424121 
L 140.411068 -171.944103 
L 145.932404 -169.168067 
L 151.45374 -109.827834 
L 156.975076 -136.267015 
L 162.496411 -151.204945 
L 168.017747 -161.599492 
L 173.539083 -126.016949 
L 179.060419 -125.08161 
L 184.581755 -129.626106 
L 190.10309 -146.914806 
L 195.624426 -223.180948 
L 201.145762 -215.233226 
L 206.667098 -132.55743 
L 212.188434 -166.949955 
L 217.709769 -179.64156 
L 223.231105 -161.414732 
L 228.752441 -142.049539 
L 234.273777 -140.375417 
L 239.795113 -121.799487 
L 245.316449 -141.268878 
L 250.837784 -120.519658 
L 256.35912 -124.101318 
L 261.880456 -170.740268 
L 267.401792 -138.955002 
L 272.923128 -156.15976 
L 278.444463 -159.888883 
L 283.965799 -153.508759 
L 289.487135 -198.407201 
L 295.008471 -263.89494 
L 300.529807 -213.944642 
L 306.051142 -215.164928 
L 311.572478 -226.925938 
L 317.093814 -264.313585 
L 322.61515 -254.416855 
L 328.136486 -316.404762 
L 333.657821 -353.021206 
L 339.179157 -366.791188 
L 344.700493 -364.974703 
L 350.221829 -371.116159 
L 355.743165 -370.667138 
L 361.2645 -347.885974 
L 366.785836 -368.16354 
L 372.307172 -325.810106 
L 377.828508 -341.998991 
L 383.349844 -386.752901 
L 388.871179 -375.376891 
L 394.392515 -354.031325 
L 399.913851 -397.369625 
L 405.435187 -468.84601 
L 410.956523 -464.156125 
L 416.477859 -500.537166 
L 421.999194 -518.329662 
L 427.52053 -455.280352 
L 433.041866 -538.048587 
L 438.563202 -568.103095 
L 444.084538 -568.302482 
L 449.605873 -529.326029 
L 455.127209 -533.420676 
L 460.648545 -551.874192 
L 466.169881 -528.692817 
L 471.691217 -505.196791 
L 477.212552 -496.06338 
L 482.733888 -545.820579 
L 488.255224 -539.441329 
L 493.77656 -548.792994 
L 499.297896 -584.307863 
L 504.819231 -560.536943 
L 510.340567 -571.251424 
L 515.861903 -539.45596 
L 521.383239 -554.002447 
L 526.904575 -509.401143 
L 532.42591 -535.38014 
L 537.947246 -514.570343 
L 543.468582 -567.813313 
L 548.989918 -487.9185 
L 554.511254 -517.448595 
L 560.03259 -486.33967 
L 565.553925 -467.444298 
L 571.075261 -485.340561 
L 576.596597 -430.358726 
L 582.117933 -415.871848 
L 593.160604 -419.362359 
L 598.68194 -370.767652 
L 604.203276 -402.486154 
L 609.724612 -463.347827 
L 637.331291 -441.355093 
L 642.852627 -422.583121 
L 648.373962 -383.223326 
L 653.895298 -416.474279 
L 659.416634 -413.864176 
L 675.980641 -369.878708 
L 681.501977 -386.373258 
L 687.023313 -397.369625 
L 692.544649 -419.362359 
L 731.194 -370.607919 
L 736.715335 -452.35146 
L 742.236671 -401.986742 
L 747.758007 -355.861036 
L 753.279343 -386.373258 
L 758.800679 -309.39869 
L 764.322014 -380.875075 
L 769.84335 -380.875075 
L 775.364686 -331.391424 
L 780.886022 -306.892798 
L 786.407358 -248.918672 
L 791.928693 -229.898352 
L 814.014037 -336.889607 
L 819.535372 -368.360427 
L 825.056708 -347.00019 
L 830.578044 -382.617929 
L 836.09938 -397.369625 
L 863.706059 -441.355093 
L 924.440753 -411.115084 
L 952.047432 -325.89324 
L 952.047432 -325.89324 
L 952.047432 -325.89324 
L 924.440753 -411.115084 
L 863.706059 -441.355093 
L 836.09938 -397.369625 
L 830.578044 -387.379496 
L 825.056708 -374.429948 
L 819.535372 -378.727901 
L 814.014037 -386.373258 
L 791.928693 -293.59718 
L 786.407358 -248.918672 
L 780.886022 -399.875517 
L 775.364686 -331.391424 
L 769.84335 -386.373258 
L 764.322014 -397.369625 
L 758.800679 -309.39869 
L 753.279343 -463.347827 
L 747.758007 -383.89638 
L 742.236671 -425.74161 
L 736.715335 -452.35146 
L 731.194 -426.880423 
L 692.544649 -419.362359 
L 687.023313 -397.369625 
L 681.501977 -386.373258 
L 675.980641 -369.878708 
L 659.416634 -430.358726 
L 653.895298 -458.904996 
L 648.373962 -430.759566 
L 642.852627 -438.134332 
L 637.331291 -441.355093 
L 609.724612 -463.347827 
L 604.203276 -438.071292 
L 598.68194 -428.370145 
L 593.160604 -419.362359 
L 582.117933 -442.096512 
L 576.596597 -430.358726 
L 571.075261 -551.318763 
L 565.553925 -521.564102 
L 560.03259 -542.072378 
L 554.511254 -541.203463 
L 548.989918 -532.246273 
L 543.468582 -567.813313 
L 537.947246 -586.234454 
L 532.42591 -584.851572 
L 526.904575 -587.738199 
L 521.383239 -643.936925 
L 515.861903 -631.908859 
L 510.340567 -620.927946 
L 504.819231 -614.676604 
L 499.297896 -584.307863 
L 493.77656 -612.491822 
L 488.255224 -563.196196 
L 482.733888 -545.820579 
L 477.212552 -551.592311 
L 471.691217 -560.786178 
L 466.169881 -554.151247 
L 460.648545 -605.745168 
L 455.127209 -593.408856 
L 449.605873 -573.311496 
L 444.084538 -602.145973 
L 438.563202 -614.650818 
L 433.041866 -599.410767 
L 427.52053 -518.149862 
L 421.999194 -529.326029 
L 416.477859 -525.12579 
L 410.956523 -514.772272 
L 405.435187 -501.835111 
L 399.913851 -397.369625 
L 394.392515 -426.046103 
L 388.871179 -380.875075 
L 383.349844 -416.233625 
L 377.828508 -381.263875 
L 372.307172 -366.296387 
L 366.785836 -407.332068 
L 361.2645 -397.369625 
L 355.743165 -416.741201 
L 350.221829 -423.623092 
L 344.700493 -409.604542 
L 339.179157 -389.460779 
L 333.657821 -390.401666 
L 328.136486 -348.577358 
L 322.61515 -270.911405 
L 317.093814 -290.704866 
L 311.572478 -303.900506 
L 306.051142 -236.487674 
L 300.529807 -258.234511 
L 295.008471 -274.262415 
L 289.487135 -248.846854 
L 283.965799 -204.124906 
L 278.444463 -189.497507 
L 272.923128 -176.732079 
L 267.401792 -177.442286 
L 261.880456 -191.475216 
L 256.35912 -159.30687 
L 250.837784 -171.135805 
L 245.316449 -150.386584 
L 239.795113 -162.708337 
L 234.273777 -181.520055 
L 228.752441 -207.33685 
L 223.231105 -185.222565 
L 217.709769 -206.03284 
L 212.188434 -226.421902 
L 206.667098 -182.00713 
L 201.145762 -229.821555 
L 195.624426 -265.492756 
L 190.10309 -167.649754 
L 184.581755 -150.116626 
L 179.060419 -171.155673 
L 173.539083 -191.479976 
L 168.017747 -201.532356 
L 162.496411 -198.181445 
L 156.975076 -158.922995 
L 151.45374 -147.660346 
L 145.932404 -262.691074 
L 140.411068 -232.424121 
z
" style="stroke: #bf00bf; stroke-opacity: 0.2"/>
    </defs>
    <g clip-path="url(#p45195b3281)">
     <use xlink:href="#mb07c83f08d" x="0" y="705.725879" style="fill: #bf00bf; fill-opacity: 0.2; stroke: #bf00bf; stroke-opacity: 0.2"/>
    </g>
   </g>
   <g id="matplotlib.axis_1">
    <g id="xtick_1">
     <g id="line2d_1">
      <path d="M 145.932404 622.6035 
L 145.932404 35.0835 
" clip-path="url(#p45195b3281)" style="fill: none; stroke: #a5a391; stroke-opacity: 0.3; stroke-width: 0.8; stroke-linecap: square"/>
     </g>
     <g id="line2d_2">
      <defs>
       <path id="m3dc3acde34" d="M 0 0 
L 0 -3.5 
" style="stroke: #000000; stroke-width: 0.8"/>
      </defs>
      <g>
       <use xlink:href="#m3dc3acde34" x="145.932404" y="622.6035" style="stroke: #000000; stroke-width: 0.8"/>
      </g>
     </g>
     <g id="text_1">
      <!-- Jan 01, 20 -->
      <g transform="translate(56.557356 689.66438) rotate(-30) scale(0.2 -0.2)">
       <defs>
        <path id="DejaVuSans-4a" d="M 628 4666 
L 1259 4666 
L 1259 325 
Q 1259 -519 939 -900 
Q 619 -1281 -91 -1281 
L -331 -1281 
L -331 -750 
L -134 -750 
Q 284 -750 456 -515 
Q 628 -281 628 325 
L 628 4666 
z
" transform="scale(0.015625)"/>
        <path id="DejaVuSans-61" d="M 2194 1759 
Q 1497 1759 1228 1600 
Q 959 1441 959 1056 
Q 959 750 1161 570 
Q 1363 391 1709 391 
Q 2188 391 2477 730 
Q 2766 1069 2766 1631 
L 2766 1759 
L 2194 1759 
z
M 3341 1997 
L 3341 0 
L 2766 0 
L 2766 531 
Q 2569 213 2275 61 
Q 1981 -91 1556 -91 
Q 1019 -91 701 211 
Q 384 513 384 1019 
Q 384 1609 779 1909 
Q 1175 2209 1959 2209 
L 2766 2209 
L 2766 2266 
Q 2766 2663 2505 2880 
Q 2244 3097 1772 3097 
Q 1472 3097 1187 3025 
Q 903 2953 641 2809 
L 641 3341 
Q 956 3463 1253 3523 
Q 1550 3584 1831 3584 
Q 2591 3584 2966 3190 
Q 3341 2797 3341 1997 
z
" transform="scale(0.015625)"/>
        <path id="DejaVuSans-6e" d="M 3513 2113 
L 3513 0 
L 2938 0 
L 2938 2094 
Q 2938 2591 2744 2837 
Q 2550 3084 2163 3084 
Q 1697 3084 1428 2787 
Q 1159 2491 1159 1978 
L 1159 0 
L 581 0 
L 581 3500 
L 1159 3500 
L 1159 2956 
Q 1366 3272 1645 3428 
Q 1925 3584 2291 3584 
Q 2894 3584 3203 3211 
Q 3513 2838 3513 2113 
z
" transform="scale(0.015625)"/>
        <path id="DejaVuSans-20" transform="scale(0.015625)"/>
        <path id="DejaVuSans-30" d="M 2034 4250 
Q 1547 4250 1301 3770 
Q 1056 3291 1056 2328 
Q 1056 1369 1301 889 
Q 1547 409 2034 409 
Q 2525 409 2770 889 
Q 3016 1369 3016 2328 
Q 3016 3291 2770 3770 
Q 2525 4250 2034 4250 
z
M 2034 4750 
Q 2819 4750 3233 4129 
Q 3647 3509 3647 2328 
Q 3647 1150 3233 529 
Q 2819 -91 2034 -91 
Q 1250 -91 836 529 
Q 422 1150 422 2328 
Q 422 3509 836 4129 
Q 1250 4750 2034 4750 
z
" transform="scale(0.015625)"/>
        <path id="DejaVuSans-31" d="M 794 531 
L 1825 531 
L 1825 4091 
L 703 3866 
L 703 4441 
L 1819 4666 
L 2450 4666 
L 2450 531 
L 3481 531 
L 3481 0 
L 794 0 
L 794 531 
z
" transform="scale(0.015625)"/>
        <path id="DejaVuSans-2c" d="M 750 794 
L 1409 794 
L 1409 256 
L 897 -744 
L 494 -744 
L 750 256 
L 750 794 
z
" transform="scale(0.015625)"/>
        <path id="DejaVuSans-32" d="M 1228 531 
L 3431 531 
L 3431 0 
L 469 0 
L 469 531 
Q 828 903 1448 1529 
Q 2069 2156 2228 2338 
Q 2531 2678 2651 2914 
Q 2772 3150 2772 3378 
Q 2772 3750 2511 3984 
Q 2250 4219 1831 4219 
Q 1534 4219 1204 4116 
Q 875 4013 500 3803 
L 500 4441 
Q 881 4594 1212 4672 
Q 1544 4750 1819 4750 
Q 2544 4750 2975 4387 
Q 3406 4025 3406 3419 
Q 3406 3131 3298 2873 
Q 3191 2616 2906 2266 
Q 2828 2175 2409 1742 
Q 1991 1309 1228 531 
z
" transform="scale(0.015625)"/>
       </defs>
       <use xlink:href="#DejaVuSans-4a"/>
       <use xlink:href="#DejaVuSans-61" x="29.492188"/>
       <use xlink:href="#DejaVuSans-6e" x="90.771484"/>
       <use xlink:href="#DejaVuSans-20" x="154.150391"/>
       <use xlink:href="#DejaVuSans-30" x="185.9375"/>
       <use xlink:href="#DejaVuSans-31" x="249.560547"/>
       <use xlink:href="#DejaVuSans-2c" x="313.183594"/>
       <use xlink:href="#DejaVuSans-20" x="344.970703"/>
       <use xlink:href="#DejaVuSans-32" x="376.757812"/>
       <use xlink:href="#DejaVuSans-30" x="440.380859"/>
      </g>
     </g>
    </g>
    <g id="xtick_2">
     <g id="line2d_3">
      <path d="M 241.372637 622.6035 
L 241.372637 35.0835 
" clip-path="url(#p45195b3281)" style="fill: none; stroke: #a5a391; stroke-opacity: 0.3; stroke-width: 0.8; stroke-linecap: square"/>
     </g>
     <g id="line2d_4">
      <g>
       <use xlink:href="#m3dc3acde34" x="241.372637" y="622.6035" style="stroke: #000000; stroke-width: 0.8"/>
      </g>
     </g>
     <g id="text_2">
      <!-- May 01, 20 -->
      <g transform="translate(142.888084 694.923755) rotate(-30) scale(0.2 -0.2)">
       <defs>
        <path id="DejaVuSans-4d" d="M 628 4666 
L 1569 4666 
L 2759 1491 
L 3956 4666 
L 4897 4666 
L 4897 0 
L 4281 0 
L 4281 4097 
L 3078 897 
L 2444 897 
L 1241 4097 
L 1241 0 
L 628 0 
L 628 4666 
z
" transform="scale(0.015625)"/>
        <path id="DejaVuSans-79" d="M 2059 -325 
Q 1816 -950 1584 -1140 
Q 1353 -1331 966 -1331 
L 506 -1331 
L 506 -850 
L 844 -850 
Q 1081 -850 1212 -737 
Q 1344 -625 1503 -206 
L 1606 56 
L 191 3500 
L 800 3500 
L 1894 763 
L 2988 3500 
L 3597 3500 
L 2059 -325 
z
" transform="scale(0.015625)"/>
       </defs>
       <use xlink:href="#DejaVuSans-4d"/>
       <use xlink:href="#DejaVuSans-61" x="86.279297"/>
       <use xlink:href="#DejaVuSans-79" x="147.558594"/>
       <use xlink:href="#DejaVuSans-20" x="206.738281"/>
       <use xlink:href="#DejaVuSans-30" x="238.525391"/>
       <use xlink:href="#DejaVuSans-31" x="302.148438"/>
       <use xlink:href="#DejaVuSans-2c" x="365.771484"/>
       <use xlink:href="#DejaVuSans-20" x="397.558594"/>
       <use xlink:href="#DejaVuSans-32" x="429.345703"/>
       <use xlink:href="#DejaVuSans-30" x="492.96875"/>
      </g>
     </g>
    </g>
    <g id="xtick_3">
     <g id="line2d_5">
      <path d="M 338.390395 622.6035 
L 338.390395 35.0835 
" clip-path="url(#p45195b3281)" style="fill: none; stroke: #a5a391; stroke-opacity: 0.3; stroke-width: 0.8; stroke-linecap: square"/>
     </g>
     <g id="line2d_6">
      <g>
       <use xlink:href="#m3dc3acde34" x="338.390395" y="622.6035" style="stroke: #000000; stroke-width: 0.8"/>
      </g>
     </g>
     <g id="text_3">
      <!-- Sep 01, 20 -->
      <g transform="translate(243.066835 693.098755) rotate(-30) scale(0.2 -0.2)">
       <defs>
        <path id="DejaVuSans-53" d="M 3425 4513 
L 3425 3897 
Q 3066 4069 2747 4153 
Q 2428 4238 2131 4238 
Q 1616 4238 1336 4038 
Q 1056 3838 1056 3469 
Q 1056 3159 1242 3001 
Q 1428 2844 1947 2747 
L 2328 2669 
Q 3034 2534 3370 2195 
Q 3706 1856 3706 1288 
Q 3706 609 3251 259 
Q 2797 -91 1919 -91 
Q 1588 -91 1214 -16 
Q 841 59 441 206 
L 441 856 
Q 825 641 1194 531 
Q 1563 422 1919 422 
Q 2459 422 2753 634 
Q 3047 847 3047 1241 
Q 3047 1584 2836 1778 
Q 2625 1972 2144 2069 
L 1759 2144 
Q 1053 2284 737 2584 
Q 422 2884 422 3419 
Q 422 4038 858 4394 
Q 1294 4750 2059 4750 
Q 2388 4750 2728 4690 
Q 3069 4631 3425 4513 
z
" transform="scale(0.015625)"/>
        <path id="DejaVuSans-65" d="M 3597 1894 
L 3597 1613 
L 953 1613 
Q 991 1019 1311 708 
Q 1631 397 2203 397 
Q 2534 397 2845 478 
Q 3156 559 3463 722 
L 3463 178 
Q 3153 47 2828 -22 
Q 2503 -91 2169 -91 
Q 1331 -91 842 396 
Q 353 884 353 1716 
Q 353 2575 817 3079 
Q 1281 3584 2069 3584 
Q 2775 3584 3186 3129 
Q 3597 2675 3597 1894 
z
M 3022 2063 
Q 3016 2534 2758 2815 
Q 2500 3097 2075 3097 
Q 1594 3097 1305 2825 
Q 1016 2553 972 2059 
L 3022 2063 
z
" transform="scale(0.015625)"/>
        <path id="DejaVuSans-70" d="M 1159 525 
L 1159 -1331 
L 581 -1331 
L 581 3500 
L 1159 3500 
L 1159 2969 
Q 1341 3281 1617 3432 
Q 1894 3584 2278 3584 
Q 2916 3584 3314 3078 
Q 3713 2572 3713 1747 
Q 3713 922 3314 415 
Q 2916 -91 2278 -91 
Q 1894 -91 1617 61 
Q 1341 213 1159 525 
z
M 3116 1747 
Q 3116 2381 2855 2742 
Q 2594 3103 2138 3103 
Q 1681 3103 1420 2742 
Q 1159 2381 1159 1747 
Q 1159 1113 1420 752 
Q 1681 391 2138 391 
Q 2594 391 2855 752 
Q 3116 1113 3116 1747 
z
" transform="scale(0.015625)"/>
       </defs>
       <use xlink:href="#DejaVuSans-53"/>
       <use xlink:href="#DejaVuSans-65" x="63.476562"/>
       <use xlink:href="#DejaVuSans-70" x="125"/>
       <use xlink:href="#DejaVuSans-20" x="188.476562"/>
       <use xlink:href="#DejaVuSans-30" x="220.263672"/>
       <use xlink:href="#DejaVuSans-31" x="283.886719"/>
       <use xlink:href="#DejaVuSans-2c" x="347.509766"/>
       <use xlink:href="#DejaVuSans-20" x="379.296875"/>
       <use xlink:href="#DejaVuSans-32" x="411.083984"/>
       <use xlink:href="#DejaVuSans-30" x="474.707031"/>
      </g>
     </g>
    </g>
    <g id="xtick_4">
     <g id="line2d_7">
      <path d="M 434.61939 622.6035 
L 434.61939 35.0835 
" clip-path="url(#p45195b3281)" style="fill: none; stroke: #a5a391; stroke-opacity: 0.3; stroke-width: 0.8; stroke-linecap: square"/>
     </g>
     <g id="line2d_8">
      <g>
       <use xlink:href="#m3dc3acde34" x="434.61939" y="622.6035" style="stroke: #000000; stroke-width: 0.8"/>
      </g>
     </g>
     <g id="text_4">
      <!-- Jan 01, 21 -->
      <g transform="translate(345.244342 689.66438) rotate(-30) scale(0.2 -0.2)">
       <use xlink:href="#DejaVuSans-4a"/>
       <use xlink:href="#DejaVuSans-61" x="29.492188"/>
       <use xlink:href="#DejaVuSans-6e" x="90.771484"/>
       <use xlink:href="#DejaVuSans-20" x="154.150391"/>
       <use xlink:href="#DejaVuSans-30" x="185.9375"/>
       <use xlink:href="#DejaVuSans-31" x="249.560547"/>
       <use xlink:href="#DejaVuSans-2c" x="313.183594"/>
       <use xlink:href="#DejaVuSans-20" x="344.970703"/>
       <use xlink:href="#DejaVuSans-32" x="376.757812"/>
       <use xlink:href="#DejaVuSans-31" x="440.380859"/>
      </g>
     </g>
    </g>
    <g id="xtick_5">
     <g id="line2d_9">
      <path d="M 529.270861 622.6035 
L 529.270861 35.0835 
" clip-path="url(#p45195b3281)" style="fill: none; stroke: #a5a391; stroke-opacity: 0.3; stroke-width: 0.8; stroke-linecap: square"/>
     </g>
     <g id="line2d_10">
      <g>
       <use xlink:href="#m3dc3acde34" x="529.270861" y="622.6035" style="stroke: #000000; stroke-width: 0.8"/>
      </g>
     </g>
     <g id="text_5">
      <!-- May 01, 21 -->
      <g transform="translate(430.786309 694.923755) rotate(-30) scale(0.2 -0.2)">
       <use xlink:href="#DejaVuSans-4d"/>
       <use xlink:href="#DejaVuSans-61" x="86.279297"/>
       <use xlink:href="#DejaVuSans-79" x="147.558594"/>
       <use xlink:href="#DejaVuSans-20" x="206.738281"/>
       <use xlink:href="#DejaVuSans-30" x="238.525391"/>
       <use xlink:href="#DejaVuSans-31" x="302.148438"/>
       <use xlink:href="#DejaVuSans-2c" x="365.771484"/>
       <use xlink:href="#DejaVuSans-20" x="397.558594"/>
       <use xlink:href="#DejaVuSans-32" x="429.345703"/>
       <use xlink:href="#DejaVuSans-31" x="492.96875"/>
      </g>
     </g>
    </g>
    <g id="xtick_6">
     <g id="line2d_11">
      <path d="M 626.288619 622.6035 
L 626.288619 35.0835 
" clip-path="url(#p45195b3281)" style="fill: none; stroke: #a5a391; stroke-opacity: 0.3; stroke-width: 0.8; stroke-linecap: square"/>
     </g>
     <g id="line2d_12">
      <g>
       <use xlink:href="#m3dc3acde34" x="626.288619" y="622.6035" style="stroke: #000000; stroke-width: 0.8"/>
      </g>
     </g>
     <g id="text_6">
      <!-- Sep 01, 21 -->
      <g transform="translate(530.965059 693.098755) rotate(-30) scale(0.2 -0.2)">
       <use xlink:href="#DejaVuSans-53"/>
       <use xlink:href="#DejaVuSans-65" x="63.476562"/>
       <use xlink:href="#DejaVuSans-70" x="125"/>
       <use xlink:href="#DejaVuSans-20" x="188.476562"/>
       <use xlink:href="#DejaVuSans-30" x="220.263672"/>
       <use xlink:href="#DejaVuSans-31" x="283.886719"/>
       <use xlink:href="#DejaVuSans-2c" x="347.509766"/>
       <use xlink:href="#DejaVuSans-20" x="379.296875"/>
       <use xlink:href="#DejaVuSans-32" x="411.083984"/>
       <use xlink:href="#DejaVuSans-31" x="474.707031"/>
      </g>
     </g>
    </g>
    <g id="xtick_7">
     <g id="line2d_13">
      <path d="M 722.517615 622.6035 
L 722.517615 35.0835 
" clip-path="url(#p45195b3281)" style="fill: none; stroke: #a5a391; stroke-opacity: 0.3; stroke-width: 0.8; stroke-linecap: square"/>
     </g>
     <g id="line2d_14">
      <g>
       <use xlink:href="#m3dc3acde34" x="722.517615" y="622.6035" style="stroke: #000000; stroke-width: 0.8"/>
      </g>
     </g>
     <g id="text_7">
      <!-- Jan 01, 22 -->
      <g transform="translate(633.142566 689.66438) rotate(-30) scale(0.2 -0.2)">
       <use xlink:href="#DejaVuSans-4a"/>
       <use xlink:href="#DejaVuSans-61" x="29.492188"/>
       <use xlink:href="#DejaVuSans-6e" x="90.771484"/>
       <use xlink:href="#DejaVuSans-20" x="154.150391"/>
       <use xlink:href="#DejaVuSans-30" x="185.9375"/>
       <use xlink:href="#DejaVuSans-31" x="249.560547"/>
       <use xlink:href="#DejaVuSans-2c" x="313.183594"/>
       <use xlink:href="#DejaVuSans-20" x="344.970703"/>
       <use xlink:href="#DejaVuSans-32" x="376.757812"/>
       <use xlink:href="#DejaVuSans-32" x="440.380859"/>
      </g>
     </g>
    </g>
    <g id="xtick_8">
     <g id="line2d_15">
      <path d="M 817.169086 622.6035 
L 817.169086 35.0835 
" clip-path="url(#p45195b3281)" style="fill: none; stroke: #a5a391; stroke-opacity: 0.3; stroke-width: 0.8; stroke-linecap: square"/>
     </g>
     <g id="line2d_16">
      <g>
       <use xlink:href="#m3dc3acde34" x="817.169086" y="622.6035" style="stroke: #000000; stroke-width: 0.8"/>
      </g>
     </g>
     <g id="text_8">
      <!-- May 01, 22 -->
      <g transform="translate(718.684533 694.923755) rotate(-30) scale(0.2 -0.2)">
       <use xlink:href="#DejaVuSans-4d"/>
       <use xlink:href="#DejaVuSans-61" x="86.279297"/>
       <use xlink:href="#DejaVuSans-79" x="147.558594"/>
       <use xlink:href="#DejaVuSans-20" x="206.738281"/>
       <use xlink:href="#DejaVuSans-30" x="238.525391"/>
       <use xlink:href="#DejaVuSans-31" x="302.148438"/>
       <use xlink:href="#DejaVuSans-2c" x="365.771484"/>
       <use xlink:href="#DejaVuSans-20" x="397.558594"/>
       <use xlink:href="#DejaVuSans-32" x="429.345703"/>
       <use xlink:href="#DejaVuSans-32" x="492.96875"/>
      </g>
     </g>
    </g>
    <g id="xtick_9">
     <g id="line2d_17">
      <path d="M 914.186843 622.6035 
L 914.186843 35.0835 
" clip-path="url(#p45195b3281)" style="fill: none; stroke: #a5a391; stroke-opacity: 0.3; stroke-width: 0.8; stroke-linecap: square"/>
     </g>
     <g id="line2d_18">
      <g>
       <use xlink:href="#m3dc3acde34" x="914.186843" y="622.6035" style="stroke: #000000; stroke-width: 0.8"/>
      </g>
     </g>
     <g id="text_9">
      <!-- Sep 01, 22 -->
      <g transform="translate(818.863283 693.098755) rotate(-30) scale(0.2 -0.2)">
       <use xlink:href="#DejaVuSans-53"/>
       <use xlink:href="#DejaVuSans-65" x="63.476562"/>
       <use xlink:href="#DejaVuSans-70" x="125"/>
       <use xlink:href="#DejaVuSans-20" x="188.476562"/>
       <use xlink:href="#DejaVuSans-30" x="220.263672"/>
       <use xlink:href="#DejaVuSans-31" x="283.886719"/>
       <use xlink:href="#DejaVuSans-2c" x="347.509766"/>
       <use xlink:href="#DejaVuSans-20" x="379.296875"/>
       <use xlink:href="#DejaVuSans-32" x="411.083984"/>
       <use xlink:href="#DejaVuSans-32" x="474.707031"/>
      </g>
     </g>
    </g>
   </g>
   <g id="matplotlib.axis_2">
    <g id="ytick_1">
     <g id="line2d_19">
      <path d="M 99.82925 566.770877 
L 992.62925 566.770877 
" clip-path="url(#p45195b3281)" style="fill: none; stroke: #a5a391; stroke-opacity: 0.3; stroke-width: 0.8; stroke-linecap: square"/>
     </g>
     <g id="line2d_20">
      <defs>
       <path id="m1c500a9a0c" d="M 0 0 
L 3.5 0 
" style="stroke: #000000; stroke-width: 0.8"/>
      </defs>
      <g>
       <use xlink:href="#m1c500a9a0c" x="99.82925" y="566.770877" style="stroke: #000000; stroke-width: 0.8"/>
      </g>
     </g>
     <g id="text_10">
      <!-- 160.0 -->
      <g transform="translate(39.073 574.369315) scale(0.2 -0.2)">
       <defs>
        <path id="DejaVuSans-36" d="M 2113 2584 
Q 1688 2584 1439 2293 
Q 1191 2003 1191 1497 
Q 1191 994 1439 701 
Q 1688 409 2113 409 
Q 2538 409 2786 701 
Q 3034 994 3034 1497 
Q 3034 2003 2786 2293 
Q 2538 2584 2113 2584 
z
M 3366 4563 
L 3366 3988 
Q 3128 4100 2886 4159 
Q 2644 4219 2406 4219 
Q 1781 4219 1451 3797 
Q 1122 3375 1075 2522 
Q 1259 2794 1537 2939 
Q 1816 3084 2150 3084 
Q 2853 3084 3261 2657 
Q 3669 2231 3669 1497 
Q 3669 778 3244 343 
Q 2819 -91 2113 -91 
Q 1303 -91 875 529 
Q 447 1150 447 2328 
Q 447 3434 972 4092 
Q 1497 4750 2381 4750 
Q 2619 4750 2861 4703 
Q 3103 4656 3366 4563 
z
" transform="scale(0.015625)"/>
        <path id="DejaVuSans-2e" d="M 684 794 
L 1344 794 
L 1344 0 
L 684 0 
L 684 794 
z
" transform="scale(0.015625)"/>
       </defs>
       <use xlink:href="#DejaVuSans-31"/>
       <use xlink:href="#DejaVuSans-36" x="63.623047"/>
       <use xlink:href="#DejaVuSans-30" x="127.246094"/>
       <use xlink:href="#DejaVuSans-2e" x="190.869141"/>
       <use xlink:href="#DejaVuSans-30" x="222.65625"/>
      </g>
     </g>
    </g>
    <g id="ytick_2">
     <g id="line2d_21">
      <path d="M 99.82925 498.043584 
L 992.62925 498.043584 
" clip-path="url(#p45195b3281)" style="fill: none; stroke: #a5a391; stroke-opacity: 0.3; stroke-width: 0.8; stroke-linecap: square"/>
     </g>
     <g id="line2d_22">
      <g>
       <use xlink:href="#m1c500a9a0c" x="99.82925" y="498.043584" style="stroke: #000000; stroke-width: 0.8"/>
      </g>
     </g>
     <g id="text_11">
      <!-- 162.5 -->
      <g transform="translate(39.073 505.642021) scale(0.2 -0.2)">
       <defs>
        <path id="DejaVuSans-35" d="M 691 4666 
L 3169 4666 
L 3169 4134 
L 1269 4134 
L 1269 2991 
Q 1406 3038 1543 3061 
Q 1681 3084 1819 3084 
Q 2600 3084 3056 2656 
Q 3513 2228 3513 1497 
Q 3513 744 3044 326 
Q 2575 -91 1722 -91 
Q 1428 -91 1123 -41 
Q 819 9 494 109 
L 494 744 
Q 775 591 1075 516 
Q 1375 441 1709 441 
Q 2250 441 2565 725 
Q 2881 1009 2881 1497 
Q 2881 1984 2565 2268 
Q 2250 2553 1709 2553 
Q 1456 2553 1204 2497 
Q 953 2441 691 2322 
L 691 4666 
z
" transform="scale(0.015625)"/>
       </defs>
       <use xlink:href="#DejaVuSans-31"/>
       <use xlink:href="#DejaVuSans-36" x="63.623047"/>
       <use xlink:href="#DejaVuSans-32" x="127.246094"/>
       <use xlink:href="#DejaVuSans-2e" x="190.869141"/>
       <use xlink:href="#DejaVuSans-35" x="222.65625"/>
      </g>
     </g>
    </g>
    <g id="ytick_3">
     <g id="line2d_23">
      <path d="M 99.82925 429.31629 
L 992.62925 429.31629 
" clip-path="url(#p45195b3281)" style="fill: none; stroke: #a5a391; stroke-opacity: 0.3; stroke-width: 0.8; stroke-linecap: square"/>
     </g>
     <g id="line2d_24">
      <g>
       <use xlink:href="#m1c500a9a0c" x="99.82925" y="429.31629" style="stroke: #000000; stroke-width: 0.8"/>
      </g>
     </g>
     <g id="text_12">
      <!-- 165.0 -->
      <g transform="translate(39.073 436.914728) scale(0.2 -0.2)">
       <use xlink:href="#DejaVuSans-31"/>
       <use xlink:href="#DejaVuSans-36" x="63.623047"/>
       <use xlink:href="#DejaVuSans-35" x="127.246094"/>
       <use xlink:href="#DejaVuSans-2e" x="190.869141"/>
       <use xlink:href="#DejaVuSans-30" x="222.65625"/>
      </g>
     </g>
    </g>
    <g id="ytick_4">
     <g id="line2d_25">
      <path d="M 99.82925 360.588997 
L 992.62925 360.588997 
" clip-path="url(#p45195b3281)" style="fill: none; stroke: #a5a391; stroke-opacity: 0.3; stroke-width: 0.8; stroke-linecap: square"/>
     </g>
     <g id="line2d_26">
      <g>
       <use xlink:href="#m1c500a9a0c" x="99.82925" y="360.588997" style="stroke: #000000; stroke-width: 0.8"/>
      </g>
     </g>
     <g id="text_13">
      <!-- 167.5 -->
      <g transform="translate(39.073 368.187434) scale(0.2 -0.2)">
       <defs>
        <path id="DejaVuSans-37" d="M 525 4666 
L 3525 4666 
L 3525 4397 
L 1831 0 
L 1172 0 
L 2766 4134 
L 525 4134 
L 525 4666 
z
" transform="scale(0.015625)"/>
       </defs>
       <use xlink:href="#DejaVuSans-31"/>
       <use xlink:href="#DejaVuSans-36" x="63.623047"/>
       <use xlink:href="#DejaVuSans-37" x="127.246094"/>
       <use xlink:href="#DejaVuSans-2e" x="190.869141"/>
       <use xlink:href="#DejaVuSans-35" x="222.65625"/>
      </g>
     </g>
    </g>
    <g id="ytick_5">
     <g id="line2d_27">
      <path d="M 99.82925 291.861703 
L 992.62925 291.861703 
" clip-path="url(#p45195b3281)" style="fill: none; stroke: #a5a391; stroke-opacity: 0.3; stroke-width: 0.8; stroke-linecap: square"/>
     </g>
     <g id="line2d_28">
      <g>
       <use xlink:href="#m1c500a9a0c" x="99.82925" y="291.861703" style="stroke: #000000; stroke-width: 0.8"/>
      </g>
     </g>
     <g id="text_14">
      <!-- 170.0 -->
      <g transform="translate(39.073 299.460141) scale(0.2 -0.2)">
       <use xlink:href="#DejaVuSans-31"/>
       <use xlink:href="#DejaVuSans-37" x="63.623047"/>
       <use xlink:href="#DejaVuSans-30" x="127.246094"/>
       <use xlink:href="#DejaVuSans-2e" x="190.869141"/>
       <use xlink:href="#DejaVuSans-30" x="222.65625"/>
      </g>
     </g>
    </g>
    <g id="ytick_6">
     <g id="line2d_29">
      <path d="M 99.82925 223.13441 
L 992.62925 223.13441 
" clip-path="url(#p45195b3281)" style="fill: none; stroke: #a5a391; stroke-opacity: 0.3; stroke-width: 0.8; stroke-linecap: square"/>
     </g>
     <g id="line2d_30">
      <g>
       <use xlink:href="#m1c500a9a0c" x="99.82925" y="223.13441" style="stroke: #000000; stroke-width: 0.8"/>
      </g>
     </g>
     <g id="text_15">
      <!-- 172.5 -->
      <g transform="translate(39.073 230.732848) scale(0.2 -0.2)">
       <use xlink:href="#DejaVuSans-31"/>
       <use xlink:href="#DejaVuSans-37" x="63.623047"/>
       <use xlink:href="#DejaVuSans-32" x="127.246094"/>
       <use xlink:href="#DejaVuSans-2e" x="190.869141"/>
       <use xlink:href="#DejaVuSans-35" x="222.65625"/>
      </g>
     </g>
    </g>
    <g id="ytick_7">
     <g id="line2d_31">
      <path d="M 99.82925 154.407117 
L 992.62925 154.407117 
" clip-path="url(#p45195b3281)" style="fill: none; stroke: #a5a391; stroke-opacity: 0.3; stroke-width: 0.8; stroke-linecap: square"/>
     </g>
     <g id="line2d_32">
      <g>
       <use xlink:href="#m1c500a9a0c" x="99.82925" y="154.407117" style="stroke: #000000; stroke-width: 0.8"/>
      </g>
     </g>
     <g id="text_16">
      <!-- 175.0 -->
      <g transform="translate(39.073 162.005554) scale(0.2 -0.2)">
       <use xlink:href="#DejaVuSans-31"/>
       <use xlink:href="#DejaVuSans-37" x="63.623047"/>
       <use xlink:href="#DejaVuSans-35" x="127.246094"/>
       <use xlink:href="#DejaVuSans-2e" x="190.869141"/>
       <use xlink:href="#DejaVuSans-30" x="222.65625"/>
      </g>
     </g>
    </g>
    <g id="ytick_8">
     <g id="line2d_33">
      <path d="M 99.82925 85.679823 
L 992.62925 85.679823 
" clip-path="url(#p45195b3281)" style="fill: none; stroke: #a5a391; stroke-opacity: 0.3; stroke-width: 0.8; stroke-linecap: square"/>
     </g>
     <g id="line2d_34">
      <g>
       <use xlink:href="#m1c500a9a0c" x="99.82925" y="85.679823" style="stroke: #000000; stroke-width: 0.8"/>
      </g>
     </g>
     <g id="text_17">
      <!-- 177.5 -->
      <g transform="translate(39.073 93.278261) scale(0.2 -0.2)">
       <use xlink:href="#DejaVuSans-31"/>
       <use xlink:href="#DejaVuSans-37" x="63.623047"/>
       <use xlink:href="#DejaVuSans-37" x="127.246094"/>
       <use xlink:href="#DejaVuSans-2e" x="190.869141"/>
       <use xlink:href="#DejaVuSans-35" x="222.65625"/>
      </g>
     </g>
    </g>
    <g id="text_18">
     <!-- Weight [lbs] -->
     <g transform="translate(29.0835 415.46625) rotate(-90) scale(0.288 -0.288)">
      <defs>
       <path id="DejaVuSans-57" d="M 213 4666 
L 850 4666 
L 1831 722 
L 2809 4666 
L 3519 4666 
L 4500 722 
L 5478 4666 
L 6119 4666 
L 4947 0 
L 4153 0 
L 3169 4050 
L 2175 0 
L 1381 0 
L 213 4666 
z
" transform="scale(0.015625)"/>
       <path id="DejaVuSans-69" d="M 603 3500 
L 1178 3500 
L 1178 0 
L 603 0 
L 603 3500 
z
M 603 4863 
L 1178 4863 
L 1178 4134 
L 603 4134 
L 603 4863 
z
" transform="scale(0.015625)"/>
       <path id="DejaVuSans-67" d="M 2906 1791 
Q 2906 2416 2648 2759 
Q 2391 3103 1925 3103 
Q 1463 3103 1205 2759 
Q 947 2416 947 1791 
Q 947 1169 1205 825 
Q 1463 481 1925 481 
Q 2391 481 2648 825 
Q 2906 1169 2906 1791 
z
M 3481 434 
Q 3481 -459 3084 -895 
Q 2688 -1331 1869 -1331 
Q 1566 -1331 1297 -1286 
Q 1028 -1241 775 -1147 
L 775 -588 
Q 1028 -725 1275 -790 
Q 1522 -856 1778 -856 
Q 2344 -856 2625 -561 
Q 2906 -266 2906 331 
L 2906 616 
Q 2728 306 2450 153 
Q 2172 0 1784 0 
Q 1141 0 747 490 
Q 353 981 353 1791 
Q 353 2603 747 3093 
Q 1141 3584 1784 3584 
Q 2172 3584 2450 3431 
Q 2728 3278 2906 2969 
L 2906 3500 
L 3481 3500 
L 3481 434 
z
" transform="scale(0.015625)"/>
       <path id="DejaVuSans-68" d="M 3513 2113 
L 3513 0 
L 2938 0 
L 2938 2094 
Q 2938 2591 2744 2837 
Q 2550 3084 2163 3084 
Q 1697 3084 1428 2787 
Q 1159 2491 1159 1978 
L 1159 0 
L 581 0 
L 581 4863 
L 1159 4863 
L 1159 2956 
Q 1366 3272 1645 3428 
Q 1925 3584 2291 3584 
Q 2894 3584 3203 3211 
Q 3513 2838 3513 2113 
z
" transform="scale(0.015625)"/>
       <path id="DejaVuSans-74" d="M 1172 4494 
L 1172 3500 
L 2356 3500 
L 2356 3053 
L 1172 3053 
L 1172 1153 
Q 1172 725 1289 603 
Q 1406 481 1766 481 
L 2356 481 
L 2356 0 
L 1766 0 
Q 1100 0 847 248 
Q 594 497 594 1153 
L 594 3053 
L 172 3053 
L 172 3500 
L 594 3500 
L 594 4494 
L 1172 4494 
z
" transform="scale(0.015625)"/>
       <path id="DejaVuSans-5b" d="M 550 4863 
L 1875 4863 
L 1875 4416 
L 1125 4416 
L 1125 -397 
L 1875 -397 
L 1875 -844 
L 550 -844 
L 550 4863 
z
" transform="scale(0.015625)"/>
       <path id="DejaVuSans-6c" d="M 603 4863 
L 1178 4863 
L 1178 0 
L 603 0 
L 603 4863 
z
" transform="scale(0.015625)"/>
       <path id="DejaVuSans-62" d="M 3116 1747 
Q 3116 2381 2855 2742 
Q 2594 3103 2138 3103 
Q 1681 3103 1420 2742 
Q 1159 2381 1159 1747 
Q 1159 1113 1420 752 
Q 1681 391 2138 391 
Q 2594 391 2855 752 
Q 3116 1113 3116 1747 
z
M 1159 2969 
Q 1341 3281 1617 3432 
Q 1894 3584 2278 3584 
Q 2916 3584 3314 3078 
Q 3713 2572 3713 1747 
Q 3713 922 3314 415 
Q 2916 -91 2278 -91 
Q 1894 -91 1617 61 
Q 1341 213 1159 525 
L 1159 0 
L 581 0 
L 581 4863 
L 1159 4863 
L 1159 2969 
z
" transform="scale(0.015625)"/>
       <path id="DejaVuSans-73" d="M 2834 3397 
L 2834 2853 
Q 2591 2978 2328 3040 
Q 2066 3103 1784 3103 
Q 1356 3103 1142 2972 
Q 928 2841 928 2578 
Q 928 2378 1081 2264 
Q 1234 2150 1697 2047 
L 1894 2003 
Q 2506 1872 2764 1633 
Q 3022 1394 3022 966 
Q 3022 478 2636 193 
Q 2250 -91 1575 -91 
Q 1294 -91 989 -36 
Q 684 19 347 128 
L 347 722 
Q 666 556 975 473 
Q 1284 391 1588 391 
Q 1994 391 2212 530 
Q 2431 669 2431 922 
Q 2431 1156 2273 1281 
Q 2116 1406 1581 1522 
L 1381 1569 
Q 847 1681 609 1914 
Q 372 2147 372 2553 
Q 372 3047 722 3315 
Q 1072 3584 1716 3584 
Q 2034 3584 2315 3537 
Q 2597 3491 2834 3397 
z
" transform="scale(0.015625)"/>
       <path id="DejaVuSans-5d" d="M 1947 4863 
L 1947 -844 
L 622 -844 
L 622 -397 
L 1369 -397 
L 1369 4416 
L 622 4416 
L 622 4863 
L 1947 4863 
z
" transform="scale(0.015625)"/>
      </defs>
      <use xlink:href="#DejaVuSans-57"/>
      <use xlink:href="#DejaVuSans-65" x="93.001953"/>
      <use xlink:href="#DejaVuSans-69" x="154.525391"/>
      <use xlink:href="#DejaVuSans-67" x="182.308594"/>
      <use xlink:href="#DejaVuSans-68" x="245.785156"/>
      <use xlink:href="#DejaVuSans-74" x="309.164062"/>
      <use xlink:href="#DejaVuSans-20" x="348.373047"/>
      <use xlink:href="#DejaVuSans-5b" x="380.160156"/>
      <use xlink:href="#DejaVuSans-6c" x="419.173828"/>
      <use xlink:href="#DejaVuSans-62" x="446.957031"/>
      <use xlink:href="#DejaVuSans-73" x="510.433594"/>
      <use xlink:href="#DejaVuSans-5d" x="562.533203"/>
     </g>
    </g>
   </g>
   <g id="line2d_35">
    <path d="M 140.411068 503.541767 
L 145.932404 489.796309 
L 151.45374 576.981789 
L 156.975076 558.130875 
L 162.496411 531.032685 
L 168.017747 524.159955 
L 173.539083 546.977417 
L 179.060419 557.607238 
L 184.581755 565.854513 
L 190.10309 548.443599 
L 195.624426 461.389027 
L 201.145762 483.198488 
L 206.667098 548.443599 
L 212.188434 509.039951 
L 217.709769 512.888679 
L 223.231105 532.40723 
L 228.752441 531.032685 
L 234.273777 544.778143 
L 239.795113 563.471967 
L 245.316449 559.898148 
L 250.837784 559.898148 
L 256.35912 564.021785 
L 261.880456 524.618137 
L 267.401792 547.527235 
L 272.923128 539.27996 
L 278.444463 531.032685 
L 283.965799 526.909047 
L 289.487135 482.098852 
L 295.008471 436.647202 
L 300.529807 469.636302 
L 306.051142 479.899578 
L 311.572478 440.312657 
L 317.093814 428.216654 
L 322.61515 443.061749 
L 328.136486 373.234819 
L 333.657821 334.014443 
L 339.179157 327.599896 
L 344.700493 318.436257 
L 350.221829 308.356254 
L 355.743165 312.02171 
L 361.2645 333.09808 
L 366.785836 317.978075 
L 372.307172 359.672633 
L 377.828508 344.094446 
L 383.349844 304.232616 
L 388.871179 327.599896 
L 394.392515 315.687165 
L 399.913851 308.356254 
L 405.435187 220.385318 
L 410.956523 216.261681 
L 416.477859 192.894401 
L 421.999194 181.898034 
L 427.52053 219.010772 
L 433.041866 136.996202 
L 438.563202 114.348923 
L 444.084538 120.501652 
L 449.605873 154.407117 
L 455.127209 142.311113 
L 460.648545 126.916199 
L 466.169881 164.303847 
L 471.691217 172.734395 
L 477.212552 181.898034 
L 482.733888 159.9053 
L 488.255224 154.407117 
L 493.77656 125.083471 
L 499.297896 121.418016 
L 504.819231 118.119106 
L 510.340567 109.636194 
L 515.861903 120.04347 
L 521.383239 106.756193 
L 526.904575 157.156208 
L 532.42591 145.610023 
L 537.947246 155.323481 
L 543.468582 137.912566 
L 548.989918 195.643493 
L 554.511254 176.399851 
L 560.03259 191.519855 
L 565.553925 211.221679 
L 571.075261 187.396217 
L 576.596597 275.367153 
L 582.117933 276.741699 
L 593.160604 286.36352 
L 598.68194 306.156981 
L 604.203276 285.447156 
L 609.724612 242.378052 
L 637.331291 264.370786 
L 642.852627 275.367153 
L 648.373962 298.734433 
L 653.895298 268.036242 
L 659.416634 283.614428 
L 675.980641 335.847171 
L 681.501977 319.352621 
L 687.023313 308.356254 
L 692.544649 286.36352 
L 731.194 306.981708 
L 736.715335 253.374419 
L 742.236671 291.861703 
L 747.758007 335.847171 
L 753.279343 280.865337 
L 758.800679 396.327189 
L 764.322014 316.603529 
L 769.84335 322.101713 
L 775.364686 374.334456 
L 780.886022 352.341722 
L 786.407358 456.807208 
L 791.928693 443.978113 
L 814.014037 344.094446 
L 819.535372 332.181716 
L 825.056708 345.01081 
L 830.578044 320.727167 
L 836.09938 308.356254 
L 863.706059 264.370786 
L 924.440753 294.610795 
L 952.047432 379.832639 
" clip-path="url(#p45195b3281)" style="fill: none; stroke: #bf00bf; stroke-width: 1.5; stroke-linecap: square"/>
    <defs>
     <path id="md15c6b071d" d="M 0 -3 
L -0.673542 -0.927051 
L -2.85317 -0.927051 
L -1.089814 0.354102 
L -1.763356 2.427051 
L -0 1.145898 
L 1.763356 2.427051 
L 1.089814 0.354102 
L 2.85317 -0.927051 
L 0.673542 -0.927051 
z
" style="stroke: #bf00bf; stroke-linejoin: bevel"/>
    </defs>
    <g clip-path="url(#p45195b3281)">
     <use xlink:href="#md15c6b071d" x="140.411068" y="503.541767" style="fill: #bf00bf; stroke: #bf00bf; stroke-linejoin: bevel"/>
     <use xlink:href="#md15c6b071d" x="145.932404" y="489.796309" style="fill: #bf00bf; stroke: #bf00bf; stroke-linejoin: bevel"/>
     <use xlink:href="#md15c6b071d" x="151.45374" y="576.981789" style="fill: #bf00bf; stroke: #bf00bf; stroke-linejoin: bevel"/>
     <use xlink:href="#md15c6b071d" x="156.975076" y="558.130875" style="fill: #bf00bf; stroke: #bf00bf; stroke-linejoin: bevel"/>
     <use xlink:href="#md15c6b071d" x="162.496411" y="531.032685" style="fill: #bf00bf; stroke: #bf00bf; stroke-linejoin: bevel"/>
     <use xlink:href="#md15c6b071d" x="168.017747" y="524.159955" style="fill: #bf00bf; stroke: #bf00bf; stroke-linejoin: bevel"/>
     <use xlink:href="#md15c6b071d" x="173.539083" y="546.977417" style="fill: #bf00bf; stroke: #bf00bf; stroke-linejoin: bevel"/>
     <use xlink:href="#md15c6b071d" x="179.060419" y="557.607238" style="fill: #bf00bf; stroke: #bf00bf; stroke-linejoin: bevel"/>
     <use xlink:href="#md15c6b071d" x="184.581755" y="565.854513" style="fill: #bf00bf; stroke: #bf00bf; stroke-linejoin: bevel"/>
     <use xlink:href="#md15c6b071d" x="190.10309" y="548.443599" style="fill: #bf00bf; stroke: #bf00bf; stroke-linejoin: bevel"/>
     <use xlink:href="#md15c6b071d" x="195.624426" y="461.389027" style="fill: #bf00bf; stroke: #bf00bf; stroke-linejoin: bevel"/>
     <use xlink:href="#md15c6b071d" x="201.145762" y="483.198488" style="fill: #bf00bf; stroke: #bf00bf; stroke-linejoin: bevel"/>
     <use xlink:href="#md15c6b071d" x="206.667098" y="548.443599" style="fill: #bf00bf; stroke: #bf00bf; stroke-linejoin: bevel"/>
     <use xlink:href="#md15c6b071d" x="212.188434" y="509.039951" style="fill: #bf00bf; stroke: #bf00bf; stroke-linejoin: bevel"/>
     <use xlink:href="#md15c6b071d" x="217.709769" y="512.888679" style="fill: #bf00bf; stroke: #bf00bf; stroke-linejoin: bevel"/>
     <use xlink:href="#md15c6b071d" x="223.231105" y="532.40723" style="fill: #bf00bf; stroke: #bf00bf; stroke-linejoin: bevel"/>
     <use xlink:href="#md15c6b071d" x="228.752441" y="531.032685" style="fill: #bf00bf; stroke: #bf00bf; stroke-linejoin: bevel"/>
     <use xlink:href="#md15c6b071d" x="234.273777" y="544.778143" style="fill: #bf00bf; stroke: #bf00bf; stroke-linejoin: bevel"/>
     <use xlink:href="#md15c6b071d" x="239.795113" y="563.471967" style="fill: #bf00bf; stroke: #bf00bf; stroke-linejoin: bevel"/>
     <use xlink:href="#md15c6b071d" x="245.316449" y="559.898148" style="fill: #bf00bf; stroke: #bf00bf; stroke-linejoin: bevel"/>
     <use xlink:href="#md15c6b071d" x="250.837784" y="559.898148" style="fill: #bf00bf; stroke: #bf00bf; stroke-linejoin: bevel"/>
     <use xlink:href="#md15c6b071d" x="256.35912" y="564.021785" style="fill: #bf00bf; stroke: #bf00bf; stroke-linejoin: bevel"/>
     <use xlink:href="#md15c6b071d" x="261.880456" y="524.618137" style="fill: #bf00bf; stroke: #bf00bf; stroke-linejoin: bevel"/>
     <use xlink:href="#md15c6b071d" x="267.401792" y="547.527235" style="fill: #bf00bf; stroke: #bf00bf; stroke-linejoin: bevel"/>
     <use xlink:href="#md15c6b071d" x="272.923128" y="539.27996" style="fill: #bf00bf; stroke: #bf00bf; stroke-linejoin: bevel"/>
     <use xlink:href="#md15c6b071d" x="278.444463" y="531.032685" style="fill: #bf00bf; stroke: #bf00bf; stroke-linejoin: bevel"/>
     <use xlink:href="#md15c6b071d" x="283.965799" y="526.909047" style="fill: #bf00bf; stroke: #bf00bf; stroke-linejoin: bevel"/>
     <use xlink:href="#md15c6b071d" x="289.487135" y="482.098852" style="fill: #bf00bf; stroke: #bf00bf; stroke-linejoin: bevel"/>
     <use xlink:href="#md15c6b071d" x="295.008471" y="436.647202" style="fill: #bf00bf; stroke: #bf00bf; stroke-linejoin: bevel"/>
     <use xlink:href="#md15c6b071d" x="300.529807" y="469.636302" style="fill: #bf00bf; stroke: #bf00bf; stroke-linejoin: bevel"/>
     <use xlink:href="#md15c6b071d" x="306.051142" y="479.899578" style="fill: #bf00bf; stroke: #bf00bf; stroke-linejoin: bevel"/>
     <use xlink:href="#md15c6b071d" x="311.572478" y="440.312657" style="fill: #bf00bf; stroke: #bf00bf; stroke-linejoin: bevel"/>
     <use xlink:href="#md15c6b071d" x="317.093814" y="428.216654" style="fill: #bf00bf; stroke: #bf00bf; stroke-linejoin: bevel"/>
     <use xlink:href="#md15c6b071d" x="322.61515" y="443.061749" style="fill: #bf00bf; stroke: #bf00bf; stroke-linejoin: bevel"/>
     <use xlink:href="#md15c6b071d" x="328.136486" y="373.234819" style="fill: #bf00bf; stroke: #bf00bf; stroke-linejoin: bevel"/>
     <use xlink:href="#md15c6b071d" x="333.657821" y="334.014443" style="fill: #bf00bf; stroke: #bf00bf; stroke-linejoin: bevel"/>
     <use xlink:href="#md15c6b071d" x="339.179157" y="327.599896" style="fill: #bf00bf; stroke: #bf00bf; stroke-linejoin: bevel"/>
     <use xlink:href="#md15c6b071d" x="344.700493" y="318.436257" style="fill: #bf00bf; stroke: #bf00bf; stroke-linejoin: bevel"/>
     <use xlink:href="#md15c6b071d" x="350.221829" y="308.356254" style="fill: #bf00bf; stroke: #bf00bf; stroke-linejoin: bevel"/>
     <use xlink:href="#md15c6b071d" x="355.743165" y="312.02171" style="fill: #bf00bf; stroke: #bf00bf; stroke-linejoin: bevel"/>
     <use xlink:href="#md15c6b071d" x="361.2645" y="333.09808" style="fill: #bf00bf; stroke: #bf00bf; stroke-linejoin: bevel"/>
     <use xlink:href="#md15c6b071d" x="366.785836" y="317.978075" style="fill: #bf00bf; stroke: #bf00bf; stroke-linejoin: bevel"/>
     <use xlink:href="#md15c6b071d" x="372.307172" y="359.672633" style="fill: #bf00bf; stroke: #bf00bf; stroke-linejoin: bevel"/>
     <use xlink:href="#md15c6b071d" x="377.828508" y="344.094446" style="fill: #bf00bf; stroke: #bf00bf; stroke-linejoin: bevel"/>
     <use xlink:href="#md15c6b071d" x="383.349844" y="304.232616" style="fill: #bf00bf; stroke: #bf00bf; stroke-linejoin: bevel"/>
     <use xlink:href="#md15c6b071d" x="388.871179" y="327.599896" style="fill: #bf00bf; stroke: #bf00bf; stroke-linejoin: bevel"/>
     <use xlink:href="#md15c6b071d" x="394.392515" y="315.687165" style="fill: #bf00bf; stroke: #bf00bf; stroke-linejoin: bevel"/>
     <use xlink:href="#md15c6b071d" x="399.913851" y="308.356254" style="fill: #bf00bf; stroke: #bf00bf; stroke-linejoin: bevel"/>
     <use xlink:href="#md15c6b071d" x="405.435187" y="220.385318" style="fill: #bf00bf; stroke: #bf00bf; stroke-linejoin: bevel"/>
     <use xlink:href="#md15c6b071d" x="410.956523" y="216.261681" style="fill: #bf00bf; stroke: #bf00bf; stroke-linejoin: bevel"/>
     <use xlink:href="#md15c6b071d" x="416.477859" y="192.894401" style="fill: #bf00bf; stroke: #bf00bf; stroke-linejoin: bevel"/>
     <use xlink:href="#md15c6b071d" x="421.999194" y="181.898034" style="fill: #bf00bf; stroke: #bf00bf; stroke-linejoin: bevel"/>
     <use xlink:href="#md15c6b071d" x="427.52053" y="219.010772" style="fill: #bf00bf; stroke: #bf00bf; stroke-linejoin: bevel"/>
     <use xlink:href="#md15c6b071d" x="433.041866" y="136.996202" style="fill: #bf00bf; stroke: #bf00bf; stroke-linejoin: bevel"/>
     <use xlink:href="#md15c6b071d" x="438.563202" y="114.348923" style="fill: #bf00bf; stroke: #bf00bf; stroke-linejoin: bevel"/>
     <use xlink:href="#md15c6b071d" x="444.084538" y="120.501652" style="fill: #bf00bf; stroke: #bf00bf; stroke-linejoin: bevel"/>
     <use xlink:href="#md15c6b071d" x="449.605873" y="154.407117" style="fill: #bf00bf; stroke: #bf00bf; stroke-linejoin: bevel"/>
     <use xlink:href="#md15c6b071d" x="455.127209" y="142.311113" style="fill: #bf00bf; stroke: #bf00bf; stroke-linejoin: bevel"/>
     <use xlink:href="#md15c6b071d" x="460.648545" y="126.916199" style="fill: #bf00bf; stroke: #bf00bf; stroke-linejoin: bevel"/>
     <use xlink:href="#md15c6b071d" x="466.169881" y="164.303847" style="fill: #bf00bf; stroke: #bf00bf; stroke-linejoin: bevel"/>
     <use xlink:href="#md15c6b071d" x="471.691217" y="172.734395" style="fill: #bf00bf; stroke: #bf00bf; stroke-linejoin: bevel"/>
     <use xlink:href="#md15c6b071d" x="477.212552" y="181.898034" style="fill: #bf00bf; stroke: #bf00bf; stroke-linejoin: bevel"/>
     <use xlink:href="#md15c6b071d" x="482.733888" y="159.9053" style="fill: #bf00bf; stroke: #bf00bf; stroke-linejoin: bevel"/>
     <use xlink:href="#md15c6b071d" x="488.255224" y="154.407117" style="fill: #bf00bf; stroke: #bf00bf; stroke-linejoin: bevel"/>
     <use xlink:href="#md15c6b071d" x="493.77656" y="125.083471" style="fill: #bf00bf; stroke: #bf00bf; stroke-linejoin: bevel"/>
     <use xlink:href="#md15c6b071d" x="499.297896" y="121.418016" style="fill: #bf00bf; stroke: #bf00bf; stroke-linejoin: bevel"/>
     <use xlink:href="#md15c6b071d" x="504.819231" y="118.119106" style="fill: #bf00bf; stroke: #bf00bf; stroke-linejoin: bevel"/>
     <use xlink:href="#md15c6b071d" x="510.340567" y="109.636194" style="fill: #bf00bf; stroke: #bf00bf; stroke-linejoin: bevel"/>
     <use xlink:href="#md15c6b071d" x="515.861903" y="120.04347" style="fill: #bf00bf; stroke: #bf00bf; stroke-linejoin: bevel"/>
     <use xlink:href="#md15c6b071d" x="521.383239" y="106.756193" style="fill: #bf00bf; stroke: #bf00bf; stroke-linejoin: bevel"/>
     <use xlink:href="#md15c6b071d" x="526.904575" y="157.156208" style="fill: #bf00bf; stroke: #bf00bf; stroke-linejoin: bevel"/>
     <use xlink:href="#md15c6b071d" x="532.42591" y="145.610023" style="fill: #bf00bf; stroke: #bf00bf; stroke-linejoin: bevel"/>
     <use xlink:href="#md15c6b071d" x="537.947246" y="155.323481" style="fill: #bf00bf; stroke: #bf00bf; stroke-linejoin: bevel"/>
     <use xlink:href="#md15c6b071d" x="543.468582" y="137.912566" style="fill: #bf00bf; stroke: #bf00bf; stroke-linejoin: bevel"/>
     <use xlink:href="#md15c6b071d" x="548.989918" y="195.643493" style="fill: #bf00bf; stroke: #bf00bf; stroke-linejoin: bevel"/>
     <use xlink:href="#md15c6b071d" x="554.511254" y="176.399851" style="fill: #bf00bf; stroke: #bf00bf; stroke-linejoin: bevel"/>
     <use xlink:href="#md15c6b071d" x="560.03259" y="191.519855" style="fill: #bf00bf; stroke: #bf00bf; stroke-linejoin: bevel"/>
     <use xlink:href="#md15c6b071d" x="565.553925" y="211.221679" style="fill: #bf00bf; stroke: #bf00bf; stroke-linejoin: bevel"/>
     <use xlink:href="#md15c6b071d" x="571.075261" y="187.396217" style="fill: #bf00bf; stroke: #bf00bf; stroke-linejoin: bevel"/>
     <use xlink:href="#md15c6b071d" x="576.596597" y="275.367153" style="fill: #bf00bf; stroke: #bf00bf; stroke-linejoin: bevel"/>
     <use xlink:href="#md15c6b071d" x="582.117933" y="276.741699" style="fill: #bf00bf; stroke: #bf00bf; stroke-linejoin: bevel"/>
     <use xlink:href="#md15c6b071d" x="593.160604" y="286.36352" style="fill: #bf00bf; stroke: #bf00bf; stroke-linejoin: bevel"/>
     <use xlink:href="#md15c6b071d" x="598.68194" y="306.156981" style="fill: #bf00bf; stroke: #bf00bf; stroke-linejoin: bevel"/>
     <use xlink:href="#md15c6b071d" x="604.203276" y="285.447156" style="fill: #bf00bf; stroke: #bf00bf; stroke-linejoin: bevel"/>
     <use xlink:href="#md15c6b071d" x="609.724612" y="242.378052" style="fill: #bf00bf; stroke: #bf00bf; stroke-linejoin: bevel"/>
     <use xlink:href="#md15c6b071d" x="637.331291" y="264.370786" style="fill: #bf00bf; stroke: #bf00bf; stroke-linejoin: bevel"/>
     <use xlink:href="#md15c6b071d" x="642.852627" y="275.367153" style="fill: #bf00bf; stroke: #bf00bf; stroke-linejoin: bevel"/>
     <use xlink:href="#md15c6b071d" x="648.373962" y="298.734433" style="fill: #bf00bf; stroke: #bf00bf; stroke-linejoin: bevel"/>
     <use xlink:href="#md15c6b071d" x="653.895298" y="268.036242" style="fill: #bf00bf; stroke: #bf00bf; stroke-linejoin: bevel"/>
     <use xlink:href="#md15c6b071d" x="659.416634" y="283.614428" style="fill: #bf00bf; stroke: #bf00bf; stroke-linejoin: bevel"/>
     <use xlink:href="#md15c6b071d" x="675.980641" y="335.847171" style="fill: #bf00bf; stroke: #bf00bf; stroke-linejoin: bevel"/>
     <use xlink:href="#md15c6b071d" x="681.501977" y="319.352621" style="fill: #bf00bf; stroke: #bf00bf; stroke-linejoin: bevel"/>
     <use xlink:href="#md15c6b071d" x="687.023313" y="308.356254" style="fill: #bf00bf; stroke: #bf00bf; stroke-linejoin: bevel"/>
     <use xlink:href="#md15c6b071d" x="692.544649" y="286.36352" style="fill: #bf00bf; stroke: #bf00bf; stroke-linejoin: bevel"/>
     <use xlink:href="#md15c6b071d" x="731.194" y="306.981708" style="fill: #bf00bf; stroke: #bf00bf; stroke-linejoin: bevel"/>
     <use xlink:href="#md15c6b071d" x="736.715335" y="253.374419" style="fill: #bf00bf; stroke: #bf00bf; stroke-linejoin: bevel"/>
     <use xlink:href="#md15c6b071d" x="742.236671" y="291.861703" style="fill: #bf00bf; stroke: #bf00bf; stroke-linejoin: bevel"/>
     <use xlink:href="#md15c6b071d" x="747.758007" y="335.847171" style="fill: #bf00bf; stroke: #bf00bf; stroke-linejoin: bevel"/>
     <use xlink:href="#md15c6b071d" x="753.279343" y="280.865337" style="fill: #bf00bf; stroke: #bf00bf; stroke-linejoin: bevel"/>
     <use xlink:href="#md15c6b071d" x="758.800679" y="396.327189" style="fill: #bf00bf; stroke: #bf00bf; stroke-linejoin: bevel"/>
     <use xlink:href="#md15c6b071d" x="764.322014" y="316.603529" style="fill: #bf00bf; stroke: #bf00bf; stroke-linejoin: bevel"/>
     <use xlink:href="#md15c6b071d" x="769.84335" y="322.101713" style="fill: #bf00bf; stroke: #bf00bf; stroke-linejoin: bevel"/>
     <use xlink:href="#md15c6b071d" x="775.364686" y="374.334456" style="fill: #bf00bf; stroke: #bf00bf; stroke-linejoin: bevel"/>
     <use xlink:href="#md15c6b071d" x="780.886022" y="352.341722" style="fill: #bf00bf; stroke: #bf00bf; stroke-linejoin: bevel"/>
     <use xlink:href="#md15c6b071d" x="786.407358" y="456.807208" style="fill: #bf00bf; stroke: #bf00bf; stroke-linejoin: bevel"/>
     <use xlink:href="#md15c6b071d" x="791.928693" y="443.978113" style="fill: #bf00bf; stroke: #bf00bf; stroke-linejoin: bevel"/>
     <use xlink:href="#md15c6b071d" x="814.014037" y="344.094446" style="fill: #bf00bf; stroke: #bf00bf; stroke-linejoin: bevel"/>
     <use xlink:href="#md15c6b071d" x="819.535372" y="332.181716" style="fill: #bf00bf; stroke: #bf00bf; stroke-linejoin: bevel"/>
     <use xlink:href="#md15c6b071d" x="825.056708" y="345.01081" style="fill: #bf00bf; stroke: #bf00bf; stroke-linejoin: bevel"/>
     <use xlink:href="#md15c6b071d" x="830.578044" y="320.727167" style="fill: #bf00bf; stroke: #bf00bf; stroke-linejoin: bevel"/>
     <use xlink:href="#md15c6b071d" x="836.09938" y="308.356254" style="fill: #bf00bf; stroke: #bf00bf; stroke-linejoin: bevel"/>
     <use xlink:href="#md15c6b071d" x="863.706059" y="264.370786" style="fill: #bf00bf; stroke: #bf00bf; stroke-linejoin: bevel"/>
     <use xlink:href="#md15c6b071d" x="924.440753" y="294.610795" style="fill: #bf00bf; stroke: #bf00bf; stroke-linejoin: bevel"/>
     <use xlink:href="#md15c6b071d" x="952.047432" y="379.832639" style="fill: #bf00bf; stroke: #bf00bf; stroke-linejoin: bevel"/>
    </g>
   </g>
   <g id="patch_3">
    <path d="M 99.82925 622.6035 
L 99.82925 35.0835 
" style="fill: none; stroke: #000000; stroke-width: 0.8; stroke-linejoin: miter; stroke-linecap: square"/>
   </g>
   <g id="patch_4">
    <path d="M 992.62925 622.6035 
L 992.62925 35.0835 
" style="fill: none; stroke: #000000; stroke-width: 0.8; stroke-linejoin: miter; stroke-linecap: square"/>
   </g>
   <g id="patch_5">
    <path d="M 99.82925 622.6035 
L 992.62925 622.6035 
" style="fill: none; stroke: #000000; stroke-width: 0.8; stroke-linejoin: miter; stroke-linecap: square"/>
   </g>
   <g id="patch_6">
    <path d="M 99.82925 35.0835 
L 992.62925 35.0835 
" style="fill: none; stroke: #000000; stroke-width: 0.8; stroke-linejoin: miter; stroke-linecap: square"/>
   </g>
   <g id="text_19">
    <!-- Body Weight -->
    <g transform="translate(455.13125 29.0835) scale(0.288 -0.288)">
     <defs>
      <path id="DejaVuSans-42" d="M 1259 2228 
L 1259 519 
L 2272 519 
Q 2781 519 3026 730 
Q 3272 941 3272 1375 
Q 3272 1813 3026 2020 
Q 2781 2228 2272 2228 
L 1259 2228 
z
M 1259 4147 
L 1259 2741 
L 2194 2741 
Q 2656 2741 2882 2914 
Q 3109 3088 3109 3444 
Q 3109 3797 2882 3972 
Q 2656 4147 2194 4147 
L 1259 4147 
z
M 628 4666 
L 2241 4666 
Q 2963 4666 3353 4366 
Q 3744 4066 3744 3513 
Q 3744 3084 3544 2831 
Q 3344 2578 2956 2516 
Q 3422 2416 3680 2098 
Q 3938 1781 3938 1306 
Q 3938 681 3513 340 
Q 3088 0 2303 0 
L 628 0 
L 628 4666 
z
" transform="scale(0.015625)"/>
      <path id="DejaVuSans-6f" d="M 1959 3097 
Q 1497 3097 1228 2736 
Q 959 2375 959 1747 
Q 959 1119 1226 758 
Q 1494 397 1959 397 
Q 2419 397 2687 759 
Q 2956 1122 2956 1747 
Q 2956 2369 2687 2733 
Q 2419 3097 1959 3097 
z
M 1959 3584 
Q 2709 3584 3137 3096 
Q 3566 2609 3566 1747 
Q 3566 888 3137 398 
Q 2709 -91 1959 -91 
Q 1206 -91 779 398 
Q 353 888 353 1747 
Q 353 2609 779 3096 
Q 1206 3584 1959 3584 
z
" transform="scale(0.015625)"/>
      <path id="DejaVuSans-64" d="M 2906 2969 
L 2906 4863 
L 3481 4863 
L 3481 0 
L 2906 0 
L 2906 525 
Q 2725 213 2448 61 
Q 2172 -91 1784 -91 
Q 1150 -91 751 415 
Q 353 922 353 1747 
Q 353 2572 751 3078 
Q 1150 3584 1784 3584 
Q 2172 3584 2448 3432 
Q 2725 3281 2906 2969 
z
M 947 1747 
Q 947 1113 1208 752 
Q 1469 391 1925 391 
Q 2381 391 2643 752 
Q 2906 1113 2906 1747 
Q 2906 2381 2643 2742 
Q 2381 3103 1925 3103 
Q 1469 3103 1208 2742 
Q 947 2381 947 1747 
z
" transform="scale(0.015625)"/>
     </defs>
     <use xlink:href="#DejaVuSans-42"/>
     <use xlink:href="#DejaVuSans-6f" x="68.603516"/>
     <use xlink:href="#DejaVuSans-64" x="129.785156"/>
     <use xlink:href="#DejaVuSans-79" x="193.261719"/>
     <use xlink:href="#DejaVuSans-20" x="252.441406"/>
     <use xlink:href="#DejaVuSans-57" x="284.228516"/>
     <use xlink:href="#DejaVuSans-65" x="377.230469"/>
     <use xlink:href="#DejaVuSans-69" x="438.753906"/>
     <use xlink:href="#DejaVuSans-67" x="466.537109"/>
     <use xlink:href="#DejaVuSans-68" x="530.013672"/>
     <use xlink:href="#DejaVuSans-74" x="593.392578"/>
    </g>
   </g>
  </g>
 </g>
 <defs>
  <clipPath id="p45195b3281">
   <rect x="99.82925" y="35.0835" width="892.8" height="587.52"/>
  </clipPath>
 </defs>
</svg>
