<?xml version="1.0" encoding="utf-8" standalone="no"?>
<!DOCTYPE svg PUBLIC "-//W3C//DTD SVG 1.1//EN"
  "http://www.w3.org/Graphics/SVG/1.1/DTD/svg11.dtd">
<svg xmlns:xlink="http://www.w3.org/1999/xlink" width="968.023pt" height="700.466504pt" viewBox="0 0 968.023 700.466504" xmlns="http://www.w3.org/2000/svg" version="1.1">
 <metadata>
  <rdf:RDF xmlns:dc="http://purl.org/dc/elements/1.1/" xmlns:cc="http://creativecommons.org/ns#" xmlns:rdf="http://www.w3.org/1999/02/22-rdf-syntax-ns#">
   <cc:Work>
    <dc:type rdf:resource="http://purl.org/dc/dcmitype/StillImage"/>
    <dc:date>2023-10-23T19:14:16.943614</dc:date>
    <dc:format>image/svg+xml</dc:format>
    <dc:creator>
     <cc:Agent>
      <dc:title>Matplotlib v3.8.0, https://matplotlib.org/</dc:title>
     </cc:Agent>
    </dc:creator>
   </cc:Work>
  </rdf:RDF>
 </metadata>
 <defs>
  <style type="text/css">*{stroke-linejoin: round; stroke-linecap: butt}</style>
 </defs>
 <g id="figure_1">
  <g id="patch_1">
   <path d="M 0 700.466504 
L 968.023 700.466504 
L 968.023 0 
L 0 0 
z
" style="fill: #ffffff"/>
  </g>
  <g id="axes_1">
   <g id="patch_2">
    <path d="M 68.023 622.6035 
L 960.823 622.6035 
L 960.823 35.0835 
L 68.023 35.0835 
z
" style="fill: #ffffff"/>
   </g>
   <g id="PolyCollection_1">
    <defs>
     <path id="meef5cc445a" d="M 108.604818 -430.708127 
L 108.604818 -326.531436 
L 116.721182 -104.568459 
L 120.779364 -363.909865 
L 124.837545 -367.89663 
L 128.895727 -413.62484 
L 132.953909 -319.351894 
L 137.012091 -392.724603 
L 141.070273 -400.852275 
L 145.128455 -392.966112 
L 149.186636 -373.296401 
L 153.244818 -291.002396 
L 157.303 -329.371826 
L 161.361182 -405.410342 
L 165.419364 -410.834483 
L 169.477545 -337.035116 
L 173.535727 -388.626327 
L 177.593909 -451.652769 
L 181.652091 -518.793404 
L 185.710273 -561.712346 
L 189.768455 -523.946908 
L 193.826636 -523.01971 
L 197.884818 -462.289253 
L 201.943 -395.854577 
L 206.001182 -390.518286 
L 210.059364 -428.90157 
L 214.117545 -414.826751 
L 218.175727 -407.89396 
L 222.233909 -462.289253 
L 226.292091 -401.631505 
L 230.350273 -331.702975 
L 234.408455 -391.52188 
L 238.466636 -396.592195 
L 242.524818 -430.516147 
L 246.583 -435.33362 
L 250.641182 -485.396967 
L 254.699364 -431.515236 
L 258.757545 -366.047163 
L 262.815727 -405.355249 
L 266.873909 -407.408433 
L 270.932091 -464.795232 
L 274.990273 -406.245471 
L 279.048455 -366.969934 
L 283.106636 -353.059801 
L 287.164818 -381.766972 
L 291.223 -330.864132 
L 295.281182 -274.53908 
L 299.339364 -387.189184 
L 303.397545 -339.529524 
L 307.455727 -378.194847 
L 311.513909 -300.018481 
L 315.572091 -335.196828 
L 319.630273 -290.702369 
L 323.688455 -303.458283 
L 327.746636 -340.611454 
L 331.804818 -357.73239 
L 335.863 -378.523791 
L 339.921182 -335.717979 
L 343.979364 -384.30072 
L 348.037545 -354.356682 
L 352.095727 -344.517855 
L 356.153909 -358.355422 
L 360.212091 -361.193006 
L 364.270273 -231.212117 
L 368.328455 -254.31983 
L 372.386636 -335.196828 
L 376.444818 -326.265259 
L 380.503 -318.816788 
L 384.561182 -248.2067 
L 388.619364 -265.873687 
L 392.677545 -314.977579 
L 396.735727 -289.281887 
L 400.793909 -325.760224 
L 404.852091 -413.185362 
L 408.910273 -320.929186 
L 412.968455 -355.416078 
L 417.026636 -371.146098 
L 421.084818 -405.883913 
L 425.143 -361.193006 
L 429.201182 -413.185362 
L 433.259364 -497.349946 
L 441.375727 -378.523791 
L 445.433909 -381.125284 
L 449.492091 -416.278892 
L 453.550273 -352.527613 
L 473.841182 -361.193006 
L 477.899364 -358.304542 
L 481.957545 -272.910167 
L 486.015727 -338.085292 
L 490.073909 -265.873687 
L 506.306636 -309.20065 
L 510.364818 -248.542902 
L 514.423 -326.531436 
L 542.830273 -313.095957 
L 546.888455 -226.87942 
L 550.946636 -260.096759 
L 555.004818 -324.017733 
L 559.063 -387.189184 
L 563.121182 -369.858399 
L 567.179364 -278.871776 
L 571.237545 -330.864132 
L 575.295727 -265.873687 
L 579.353909 -310.053023 
L 583.412091 -274.53908 
L 587.470273 -271.650616 
L 603.703 -265.873687 
L 607.761182 -239.877509 
L 611.819364 -248.542902 
L 615.877545 -343.479736 
L 619.935727 -187.885154 
L 640.226636 -205.215939 
L 684.866636 -274.53908 
L 705.157545 -257.208295 
L 709.215727 -274.53908 
L 717.332091 -231.212117 
L 729.506636 -291.869865 
L 782.263 -187.885154 
L 916.183 -534.500858 
L 920.241182 -430.612137 
L 920.241182 -603.919989 
L 920.241182 -603.919989 
L 916.183 -638.67755 
L 782.263 -292.061845 
L 729.506636 -396.046556 
L 717.332091 -335.388808 
L 709.215727 -378.715771 
L 705.157545 -361.384986 
L 684.866636 -378.715771 
L 640.226636 -309.39263 
L 619.935727 -292.061845 
L 615.877545 -422.425219 
L 611.819364 -352.719593 
L 607.761182 -344.054201 
L 603.703 -370.050378 
L 587.470273 -375.827307 
L 583.412091 -378.715771 
L 579.353909 -507.844288 
L 575.295727 -370.050378 
L 571.237545 -435.040823 
L 567.179364 -383.048467 
L 563.121182 -474.03509 
L 559.063 -491.365875 
L 555.004818 -398.560259 
L 550.946636 -364.27345 
L 546.888455 -331.056112 
L 542.830273 -348.824286 
L 514.423 -430.708127 
L 510.364818 -352.719593 
L 506.306636 -413.377342 
L 490.073909 -370.050378 
L 486.015727 -442.261984 
L 481.957545 -410.673559 
L 477.899364 -462.481233 
L 473.841182 -465.369697 
L 453.550273 -456.704305 
L 449.492091 -569.149342 
L 445.433909 -500.895932 
L 441.375727 -482.700483 
L 433.259364 -576.176447 
L 429.201182 -517.362053 
L 425.143 -465.369697 
L 421.084818 -536.217359 
L 417.026636 -425.087732 
L 412.968455 -459.592769 
L 408.910273 -466.639251 
L 404.852091 -517.362053 
L 400.793909 -451.698588 
L 396.735727 -422.897633 
L 392.677545 -419.15427 
L 388.619364 -370.050378 
L 384.561182 -422.378936 
L 380.503 -463.181039 
L 376.444818 -434.440461 
L 372.386636 -439.373519 
L 368.328455 -358.496522 
L 364.270273 -335.388808 
L 360.212091 -465.369697 
L 356.153909 -450.876497 
L 352.095727 -418.498636 
L 348.037545 -444.476765 
L 343.979364 -488.477411 
L 339.921182 -497.777039 
L 335.863 -482.700483 
L 331.804818 -483.272634 
L 327.746636 -448.813852 
L 323.688455 -439.338958 
L 319.630273 -440.541015 
L 315.572091 -439.373519 
L 311.513909 -361.901762 
L 307.455727 -400.708197 
L 303.397545 -443.706216 
L 299.339364 -491.365875 
L 295.281182 -378.715771 
L 291.223 -435.040823 
L 287.164818 -462.126517 
L 283.106636 -417.177851 
L 279.048455 -471.146626 
L 274.990273 -467.976891 
L 270.932091 -543.740716 
L 266.873909 -511.585125 
L 262.815727 -493.996752 
L 258.757545 -448.961684 
L 254.699364 -503.364876 
L 250.641182 -589.573658 
L 246.583 -498.679952 
L 242.524818 -534.692838 
L 238.466636 -527.022906 
L 234.408455 -495.698571 
L 230.350273 -477.528943 
L 226.292091 -505.808196 
L 222.233909 -566.465945 
L 218.175727 -567.713496 
L 214.117545 -559.047627 
L 210.059364 -562.303593 
L 206.001182 -605.019574 
L 201.943 -500.031268 
L 197.884818 -566.465945 
L 193.826636 -567.837469 
L 189.768455 -549.579485 
L 185.710273 -594.135277 
L 181.652091 -591.994177 
L 177.593909 -582.879357 
L 173.535727 -520.257606 
L 169.477545 -459.198713 
L 165.419364 -533.57756 
L 161.361182 -499.140895 
L 157.303 -387.429238 
L 153.244818 -407.312497 
L 149.186636 -464.820159 
L 145.128455 -497.142804 
L 141.070273 -506.587426 
L 137.012091 -442.503493 
L 132.953909 -354.699899 
L 128.895727 -495.259093 
L 124.837545 -411.006414 
L 120.779364 -479.983623 
L 116.721182 -340.716969 
L 108.604818 -430.708127 
z
" style="stroke: #0000ff; stroke-opacity: 0.2"/>
    </defs>
    <g clip-path="url(#pd1507cdb43)">
     <use xlink:href="#meef5cc445a" x="0" y="700.466504" style="fill: #0000ff; fill-opacity: 0.2; stroke: #0000ff; stroke-opacity: 0.2"/>
    </g>
   </g>
   <g id="matplotlib.axis_1">
    <g id="xtick_1">
     <g id="line2d_1">
      <path d="M 112.663 622.6035 
L 112.663 35.0835 
" clip-path="url(#pd1507cdb43)" style="fill: none; stroke: #a5a391; stroke-opacity: 0.3; stroke-width: 0.8; stroke-linecap: square"/>
     </g>
     <g id="line2d_2">
      <defs>
       <path id="m02583925d0" d="M 0 0 
L 0 -3.5 
" style="stroke: #000000; stroke-width: 0.8"/>
      </defs>
      <g>
       <use xlink:href="#m02583925d0" x="112.663" y="622.6035" style="stroke: #000000; stroke-width: 0.8"/>
      </g>
     </g>
     <g id="text_1">
      <!-- Jan 01, 20 -->
      <g transform="translate(23.287952 689.66438) rotate(-30) scale(0.2 -0.2)">
       <defs>
        <path id="DejaVuSans-4a" d="M 628 4666 
L 1259 4666 
L 1259 325 
Q 1259 -519 939 -900 
Q 619 -1281 -91 -1281 
L -331 -1281 
L -331 -750 
L -134 -750 
Q 284 -750 456 -515 
Q 628 -281 628 325 
L 628 4666 
z
" transform="scale(0.015625)"/>
        <path id="DejaVuSans-61" d="M 2194 1759 
Q 1497 1759 1228 1600 
Q 959 1441 959 1056 
Q 959 750 1161 570 
Q 1363 391 1709 391 
Q 2188 391 2477 730 
Q 2766 1069 2766 1631 
L 2766 1759 
L 2194 1759 
z
M 3341 1997 
L 3341 0 
L 2766 0 
L 2766 531 
Q 2569 213 2275 61 
Q 1981 -91 1556 -91 
Q 1019 -91 701 211 
Q 384 513 384 1019 
Q 384 1609 779 1909 
Q 1175 2209 1959 2209 
L 2766 2209 
L 2766 2266 
Q 2766 2663 2505 2880 
Q 2244 3097 1772 3097 
Q 1472 3097 1187 3025 
Q 903 2953 641 2809 
L 641 3341 
Q 956 3463 1253 3523 
Q 1550 3584 1831 3584 
Q 2591 3584 2966 3190 
Q 3341 2797 3341 1997 
z
" transform="scale(0.015625)"/>
        <path id="DejaVuSans-6e" d="M 3513 2113 
L 3513 0 
L 2938 0 
L 2938 2094 
Q 2938 2591 2744 2837 
Q 2550 3084 2163 3084 
Q 1697 3084 1428 2787 
Q 1159 2491 1159 1978 
L 1159 0 
L 581 0 
L 581 3500 
L 1159 3500 
L 1159 2956 
Q 1366 3272 1645 3428 
Q 1925 3584 2291 3584 
Q 2894 3584 3203 3211 
Q 3513 2838 3513 2113 
z
" transform="scale(0.015625)"/>
        <path id="DejaVuSans-20" transform="scale(0.015625)"/>
        <path id="DejaVuSans-30" d="M 2034 4250 
Q 1547 4250 1301 3770 
Q 1056 3291 1056 2328 
Q 1056 1369 1301 889 
Q 1547 409 2034 409 
Q 2525 409 2770 889 
Q 3016 1369 3016 2328 
Q 3016 3291 2770 3770 
Q 2525 4250 2034 4250 
z
M 2034 4750 
Q 2819 4750 3233 4129 
Q 3647 3509 3647 2328 
Q 3647 1150 3233 529 
Q 2819 -91 2034 -91 
Q 1250 -91 836 529 
Q 422 1150 422 2328 
Q 422 3509 836 4129 
Q 1250 4750 2034 4750 
z
" transform="scale(0.015625)"/>
        <path id="DejaVuSans-31" d="M 794 531 
L 1825 531 
L 1825 4091 
L 703 3866 
L 703 4441 
L 1819 4666 
L 2450 4666 
L 2450 531 
L 3481 531 
L 3481 0 
L 794 0 
L 794 531 
z
" transform="scale(0.015625)"/>
        <path id="DejaVuSans-2c" d="M 750 794 
L 1409 794 
L 1409 256 
L 897 -744 
L 494 -744 
L 750 256 
L 750 794 
z
" transform="scale(0.015625)"/>
        <path id="DejaVuSans-32" d="M 1228 531 
L 3431 531 
L 3431 0 
L 469 0 
L 469 531 
Q 828 903 1448 1529 
Q 2069 2156 2228 2338 
Q 2531 2678 2651 2914 
Q 2772 3150 2772 3378 
Q 2772 3750 2511 3984 
Q 2250 4219 1831 4219 
Q 1534 4219 1204 4116 
Q 875 4013 500 3803 
L 500 4441 
Q 881 4594 1212 4672 
Q 1544 4750 1819 4750 
Q 2544 4750 2975 4387 
Q 3406 4025 3406 3419 
Q 3406 3131 3298 2873 
Q 3191 2616 2906 2266 
Q 2828 2175 2409 1742 
Q 1991 1309 1228 531 
z
" transform="scale(0.015625)"/>
       </defs>
       <use xlink:href="#DejaVuSans-4a"/>
       <use xlink:href="#DejaVuSans-61" x="29.492188"/>
       <use xlink:href="#DejaVuSans-6e" x="90.771484"/>
       <use xlink:href="#DejaVuSans-20" x="154.150391"/>
       <use xlink:href="#DejaVuSans-30" x="185.9375"/>
       <use xlink:href="#DejaVuSans-31" x="249.560547"/>
       <use xlink:href="#DejaVuSans-2c" x="313.183594"/>
       <use xlink:href="#DejaVuSans-20" x="344.970703"/>
       <use xlink:href="#DejaVuSans-32" x="376.757812"/>
       <use xlink:href="#DejaVuSans-30" x="440.380859"/>
      </g>
     </g>
    </g>
    <g id="xtick_2">
     <g id="line2d_3">
      <path d="M 218.175727 622.6035 
L 218.175727 35.0835 
" clip-path="url(#pd1507cdb43)" style="fill: none; stroke: #a5a391; stroke-opacity: 0.3; stroke-width: 0.8; stroke-linecap: square"/>
     </g>
     <g id="line2d_4">
      <g>
       <use xlink:href="#m02583925d0" x="218.175727" y="622.6035" style="stroke: #000000; stroke-width: 0.8"/>
      </g>
     </g>
     <g id="text_2">
      <!-- Jul 01, 20 -->
      <g transform="translate(134.603049 686.31438) rotate(-30) scale(0.2 -0.2)">
       <defs>
        <path id="DejaVuSans-75" d="M 544 1381 
L 544 3500 
L 1119 3500 
L 1119 1403 
Q 1119 906 1312 657 
Q 1506 409 1894 409 
Q 2359 409 2629 706 
Q 2900 1003 2900 1516 
L 2900 3500 
L 3475 3500 
L 3475 0 
L 2900 0 
L 2900 538 
Q 2691 219 2414 64 
Q 2138 -91 1772 -91 
Q 1169 -91 856 284 
Q 544 659 544 1381 
z
M 1991 3584 
L 1991 3584 
z
" transform="scale(0.015625)"/>
        <path id="DejaVuSans-6c" d="M 603 4863 
L 1178 4863 
L 1178 0 
L 603 0 
L 603 4863 
z
" transform="scale(0.015625)"/>
       </defs>
       <use xlink:href="#DejaVuSans-4a"/>
       <use xlink:href="#DejaVuSans-75" x="29.492188"/>
       <use xlink:href="#DejaVuSans-6c" x="92.871094"/>
       <use xlink:href="#DejaVuSans-20" x="120.654297"/>
       <use xlink:href="#DejaVuSans-30" x="152.441406"/>
       <use xlink:href="#DejaVuSans-31" x="216.064453"/>
       <use xlink:href="#DejaVuSans-2c" x="279.6875"/>
       <use xlink:href="#DejaVuSans-20" x="311.474609"/>
       <use xlink:href="#DejaVuSans-32" x="343.261719"/>
       <use xlink:href="#DejaVuSans-30" x="406.884766"/>
      </g>
     </g>
    </g>
    <g id="xtick_3">
     <g id="line2d_5">
      <path d="M 324.847935 622.6035 
L 324.847935 35.0835 
" clip-path="url(#pd1507cdb43)" style="fill: none; stroke: #a5a391; stroke-opacity: 0.3; stroke-width: 0.8; stroke-linecap: square"/>
     </g>
     <g id="line2d_6">
      <g>
       <use xlink:href="#m02583925d0" x="324.847935" y="622.6035" style="stroke: #000000; stroke-width: 0.8"/>
      </g>
     </g>
     <g id="text_3">
      <!-- Jan 01, 21 -->
      <g transform="translate(235.472887 689.66438) rotate(-30) scale(0.2 -0.2)">
       <use xlink:href="#DejaVuSans-4a"/>
       <use xlink:href="#DejaVuSans-61" x="29.492188"/>
       <use xlink:href="#DejaVuSans-6e" x="90.771484"/>
       <use xlink:href="#DejaVuSans-20" x="154.150391"/>
       <use xlink:href="#DejaVuSans-30" x="185.9375"/>
       <use xlink:href="#DejaVuSans-31" x="249.560547"/>
       <use xlink:href="#DejaVuSans-2c" x="313.183594"/>
       <use xlink:href="#DejaVuSans-20" x="344.970703"/>
       <use xlink:href="#DejaVuSans-32" x="376.757812"/>
       <use xlink:href="#DejaVuSans-31" x="440.380859"/>
      </g>
     </g>
    </g>
    <g id="xtick_4">
     <g id="line2d_7">
      <path d="M 429.780922 622.6035 
L 429.780922 35.0835 
" clip-path="url(#pd1507cdb43)" style="fill: none; stroke: #a5a391; stroke-opacity: 0.3; stroke-width: 0.8; stroke-linecap: square"/>
     </g>
     <g id="line2d_8">
      <g>
       <use xlink:href="#m02583925d0" x="429.780922" y="622.6035" style="stroke: #000000; stroke-width: 0.8"/>
      </g>
     </g>
     <g id="text_4">
      <!-- Jul 01, 21 -->
      <g transform="translate(346.208244 686.31438) rotate(-30) scale(0.2 -0.2)">
       <use xlink:href="#DejaVuSans-4a"/>
       <use xlink:href="#DejaVuSans-75" x="29.492188"/>
       <use xlink:href="#DejaVuSans-6c" x="92.871094"/>
       <use xlink:href="#DejaVuSans-20" x="120.654297"/>
       <use xlink:href="#DejaVuSans-30" x="152.441406"/>
       <use xlink:href="#DejaVuSans-31" x="216.064453"/>
       <use xlink:href="#DejaVuSans-2c" x="279.6875"/>
       <use xlink:href="#DejaVuSans-20" x="311.474609"/>
       <use xlink:href="#DejaVuSans-32" x="343.261719"/>
       <use xlink:href="#DejaVuSans-31" x="406.884766"/>
      </g>
     </g>
    </g>
    <g id="xtick_5">
     <g id="line2d_9">
      <path d="M 536.45313 622.6035 
L 536.45313 35.0835 
" clip-path="url(#pd1507cdb43)" style="fill: none; stroke: #a5a391; stroke-opacity: 0.3; stroke-width: 0.8; stroke-linecap: square"/>
     </g>
     <g id="line2d_10">
      <g>
       <use xlink:href="#m02583925d0" x="536.45313" y="622.6035" style="stroke: #000000; stroke-width: 0.8"/>
      </g>
     </g>
     <g id="text_5">
      <!-- Jan 01, 22 -->
      <g transform="translate(447.078082 689.66438) rotate(-30) scale(0.2 -0.2)">
       <use xlink:href="#DejaVuSans-4a"/>
       <use xlink:href="#DejaVuSans-61" x="29.492188"/>
       <use xlink:href="#DejaVuSans-6e" x="90.771484"/>
       <use xlink:href="#DejaVuSans-20" x="154.150391"/>
       <use xlink:href="#DejaVuSans-30" x="185.9375"/>
       <use xlink:href="#DejaVuSans-31" x="249.560547"/>
       <use xlink:href="#DejaVuSans-2c" x="313.183594"/>
       <use xlink:href="#DejaVuSans-20" x="344.970703"/>
       <use xlink:href="#DejaVuSans-32" x="376.757812"/>
       <use xlink:href="#DejaVuSans-32" x="440.380859"/>
      </g>
     </g>
    </g>
    <g id="xtick_6">
     <g id="line2d_11">
      <path d="M 641.386117 622.6035 
L 641.386117 35.0835 
" clip-path="url(#pd1507cdb43)" style="fill: none; stroke: #a5a391; stroke-opacity: 0.3; stroke-width: 0.8; stroke-linecap: square"/>
     </g>
     <g id="line2d_12">
      <g>
       <use xlink:href="#m02583925d0" x="641.386117" y="622.6035" style="stroke: #000000; stroke-width: 0.8"/>
      </g>
     </g>
     <g id="text_6">
      <!-- Jul 01, 22 -->
      <g transform="translate(557.813439 686.31438) rotate(-30) scale(0.2 -0.2)">
       <use xlink:href="#DejaVuSans-4a"/>
       <use xlink:href="#DejaVuSans-75" x="29.492188"/>
       <use xlink:href="#DejaVuSans-6c" x="92.871094"/>
       <use xlink:href="#DejaVuSans-20" x="120.654297"/>
       <use xlink:href="#DejaVuSans-30" x="152.441406"/>
       <use xlink:href="#DejaVuSans-31" x="216.064453"/>
       <use xlink:href="#DejaVuSans-2c" x="279.6875"/>
       <use xlink:href="#DejaVuSans-20" x="311.474609"/>
       <use xlink:href="#DejaVuSans-32" x="343.261719"/>
       <use xlink:href="#DejaVuSans-32" x="406.884766"/>
      </g>
     </g>
    </g>
    <g id="xtick_7">
     <g id="line2d_13">
      <path d="M 748.058325 622.6035 
L 748.058325 35.0835 
" clip-path="url(#pd1507cdb43)" style="fill: none; stroke: #a5a391; stroke-opacity: 0.3; stroke-width: 0.8; stroke-linecap: square"/>
     </g>
     <g id="line2d_14">
      <g>
       <use xlink:href="#m02583925d0" x="748.058325" y="622.6035" style="stroke: #000000; stroke-width: 0.8"/>
      </g>
     </g>
     <g id="text_7">
      <!-- Jan 01, 23 -->
      <g transform="translate(658.683276 689.66438) rotate(-30) scale(0.2 -0.2)">
       <defs>
        <path id="DejaVuSans-33" d="M 2597 2516 
Q 3050 2419 3304 2112 
Q 3559 1806 3559 1356 
Q 3559 666 3084 287 
Q 2609 -91 1734 -91 
Q 1441 -91 1130 -33 
Q 819 25 488 141 
L 488 750 
Q 750 597 1062 519 
Q 1375 441 1716 441 
Q 2309 441 2620 675 
Q 2931 909 2931 1356 
Q 2931 1769 2642 2001 
Q 2353 2234 1838 2234 
L 1294 2234 
L 1294 2753 
L 1863 2753 
Q 2328 2753 2575 2939 
Q 2822 3125 2822 3475 
Q 2822 3834 2567 4026 
Q 2313 4219 1838 4219 
Q 1578 4219 1281 4162 
Q 984 4106 628 3988 
L 628 4550 
Q 988 4650 1302 4700 
Q 1616 4750 1894 4750 
Q 2613 4750 3031 4423 
Q 3450 4097 3450 3541 
Q 3450 3153 3228 2886 
Q 3006 2619 2597 2516 
z
" transform="scale(0.015625)"/>
       </defs>
       <use xlink:href="#DejaVuSans-4a"/>
       <use xlink:href="#DejaVuSans-61" x="29.492188"/>
       <use xlink:href="#DejaVuSans-6e" x="90.771484"/>
       <use xlink:href="#DejaVuSans-20" x="154.150391"/>
       <use xlink:href="#DejaVuSans-30" x="185.9375"/>
       <use xlink:href="#DejaVuSans-31" x="249.560547"/>
       <use xlink:href="#DejaVuSans-2c" x="313.183594"/>
       <use xlink:href="#DejaVuSans-20" x="344.970703"/>
       <use xlink:href="#DejaVuSans-32" x="376.757812"/>
       <use xlink:href="#DejaVuSans-33" x="440.380859"/>
      </g>
     </g>
    </g>
    <g id="xtick_8">
     <g id="line2d_15">
      <path d="M 852.991312 622.6035 
L 852.991312 35.0835 
" clip-path="url(#pd1507cdb43)" style="fill: none; stroke: #a5a391; stroke-opacity: 0.3; stroke-width: 0.8; stroke-linecap: square"/>
     </g>
     <g id="line2d_16">
      <g>
       <use xlink:href="#m02583925d0" x="852.991312" y="622.6035" style="stroke: #000000; stroke-width: 0.8"/>
      </g>
     </g>
     <g id="text_8">
      <!-- Jul 01, 23 -->
      <g transform="translate(769.418634 686.31438) rotate(-30) scale(0.2 -0.2)">
       <use xlink:href="#DejaVuSans-4a"/>
       <use xlink:href="#DejaVuSans-75" x="29.492188"/>
       <use xlink:href="#DejaVuSans-6c" x="92.871094"/>
       <use xlink:href="#DejaVuSans-20" x="120.654297"/>
       <use xlink:href="#DejaVuSans-30" x="152.441406"/>
       <use xlink:href="#DejaVuSans-31" x="216.064453"/>
       <use xlink:href="#DejaVuSans-2c" x="279.6875"/>
       <use xlink:href="#DejaVuSans-20" x="311.474609"/>
       <use xlink:href="#DejaVuSans-32" x="343.261719"/>
       <use xlink:href="#DejaVuSans-33" x="406.884766"/>
      </g>
     </g>
    </g>
    <g id="xtick_9">
     <g id="line2d_17">
      <path d="M 959.663519 622.6035 
L 959.663519 35.0835 
" clip-path="url(#pd1507cdb43)" style="fill: none; stroke: #a5a391; stroke-opacity: 0.3; stroke-width: 0.8; stroke-linecap: square"/>
     </g>
     <g id="line2d_18">
      <g>
       <use xlink:href="#m02583925d0" x="959.663519" y="622.6035" style="stroke: #000000; stroke-width: 0.8"/>
      </g>
     </g>
     <g id="text_9">
      <!-- Jan 01, 24 -->
      <g transform="translate(870.288471 689.66438) rotate(-30) scale(0.2 -0.2)">
       <defs>
        <path id="DejaVuSans-34" d="M 2419 4116 
L 825 1625 
L 2419 1625 
L 2419 4116 
z
M 2253 4666 
L 3047 4666 
L 3047 1625 
L 3713 1625 
L 3713 1100 
L 3047 1100 
L 3047 0 
L 2419 0 
L 2419 1100 
L 313 1100 
L 313 1709 
L 2253 4666 
z
" transform="scale(0.015625)"/>
       </defs>
       <use xlink:href="#DejaVuSans-4a"/>
       <use xlink:href="#DejaVuSans-61" x="29.492188"/>
       <use xlink:href="#DejaVuSans-6e" x="90.771484"/>
       <use xlink:href="#DejaVuSans-20" x="154.150391"/>
       <use xlink:href="#DejaVuSans-30" x="185.9375"/>
       <use xlink:href="#DejaVuSans-31" x="249.560547"/>
       <use xlink:href="#DejaVuSans-2c" x="313.183594"/>
       <use xlink:href="#DejaVuSans-20" x="344.970703"/>
       <use xlink:href="#DejaVuSans-32" x="376.757812"/>
       <use xlink:href="#DejaVuSans-34" x="440.380859"/>
      </g>
     </g>
    </g>
   </g>
   <g id="matplotlib.axis_2">
    <g id="ytick_1">
     <g id="line2d_19">
      <path d="M 68.023 538.481538 
L 960.823 538.481538 
" clip-path="url(#pd1507cdb43)" style="fill: none; stroke: #a5a391; stroke-opacity: 0.3; stroke-width: 0.8; stroke-linecap: square"/>
     </g>
     <g id="line2d_20">
      <defs>
       <path id="mcdeb0a8417" d="M 0 0 
L 3.5 0 
" style="stroke: #000000; stroke-width: 0.8"/>
      </defs>
      <g>
       <use xlink:href="#mcdeb0a8417" x="68.023" y="538.481538" style="stroke: #000000; stroke-width: 0.8"/>
      </g>
     </g>
     <g id="text_10">
      <!-- 53 -->
      <g transform="translate(39.073 546.079976) scale(0.2 -0.2)">
       <defs>
        <path id="DejaVuSans-35" d="M 691 4666 
L 3169 4666 
L 3169 4134 
L 1269 4134 
L 1269 2991 
Q 1406 3038 1543 3061 
Q 1681 3084 1819 3084 
Q 2600 3084 3056 2656 
Q 3513 2228 3513 1497 
Q 3513 744 3044 326 
Q 2575 -91 1722 -91 
Q 1428 -91 1123 -41 
Q 819 9 494 109 
L 494 744 
Q 775 591 1075 516 
Q 1375 441 1709 441 
Q 2250 441 2565 725 
Q 2881 1009 2881 1497 
Q 2881 1984 2565 2268 
Q 2250 2553 1709 2553 
Q 1456 2553 1204 2497 
Q 953 2441 691 2322 
L 691 4666 
z
" transform="scale(0.015625)"/>
       </defs>
       <use xlink:href="#DejaVuSans-35"/>
       <use xlink:href="#DejaVuSans-33" x="63.623047"/>
      </g>
     </g>
    </g>
    <g id="ytick_2">
     <g id="line2d_21">
      <path d="M 68.023 451.827612 
L 960.823 451.827612 
" clip-path="url(#pd1507cdb43)" style="fill: none; stroke: #a5a391; stroke-opacity: 0.3; stroke-width: 0.8; stroke-linecap: square"/>
     </g>
     <g id="line2d_22">
      <g>
       <use xlink:href="#mcdeb0a8417" x="68.023" y="451.827612" style="stroke: #000000; stroke-width: 0.8"/>
      </g>
     </g>
     <g id="text_11">
      <!-- 54 -->
      <g transform="translate(39.073 459.42605) scale(0.2 -0.2)">
       <use xlink:href="#DejaVuSans-35"/>
       <use xlink:href="#DejaVuSans-34" x="63.623047"/>
      </g>
     </g>
    </g>
    <g id="ytick_3">
     <g id="line2d_23">
      <path d="M 68.023 365.173686 
L 960.823 365.173686 
" clip-path="url(#pd1507cdb43)" style="fill: none; stroke: #a5a391; stroke-opacity: 0.3; stroke-width: 0.8; stroke-linecap: square"/>
     </g>
     <g id="line2d_24">
      <g>
       <use xlink:href="#mcdeb0a8417" x="68.023" y="365.173686" style="stroke: #000000; stroke-width: 0.8"/>
      </g>
     </g>
     <g id="text_12">
      <!-- 55 -->
      <g transform="translate(39.073 372.772124) scale(0.2 -0.2)">
       <use xlink:href="#DejaVuSans-35"/>
       <use xlink:href="#DejaVuSans-35" x="63.623047"/>
      </g>
     </g>
    </g>
    <g id="ytick_4">
     <g id="line2d_25">
      <path d="M 68.023 278.51976 
L 960.823 278.51976 
" clip-path="url(#pd1507cdb43)" style="fill: none; stroke: #a5a391; stroke-opacity: 0.3; stroke-width: 0.8; stroke-linecap: square"/>
     </g>
     <g id="line2d_26">
      <g>
       <use xlink:href="#mcdeb0a8417" x="68.023" y="278.51976" style="stroke: #000000; stroke-width: 0.8"/>
      </g>
     </g>
     <g id="text_13">
      <!-- 56 -->
      <g transform="translate(39.073 286.118197) scale(0.2 -0.2)">
       <defs>
        <path id="DejaVuSans-36" d="M 2113 2584 
Q 1688 2584 1439 2293 
Q 1191 2003 1191 1497 
Q 1191 994 1439 701 
Q 1688 409 2113 409 
Q 2538 409 2786 701 
Q 3034 994 3034 1497 
Q 3034 2003 2786 2293 
Q 2538 2584 2113 2584 
z
M 3366 4563 
L 3366 3988 
Q 3128 4100 2886 4159 
Q 2644 4219 2406 4219 
Q 1781 4219 1451 3797 
Q 1122 3375 1075 2522 
Q 1259 2794 1537 2939 
Q 1816 3084 2150 3084 
Q 2853 3084 3261 2657 
Q 3669 2231 3669 1497 
Q 3669 778 3244 343 
Q 2819 -91 2113 -91 
Q 1303 -91 875 529 
Q 447 1150 447 2328 
Q 447 3434 972 4092 
Q 1497 4750 2381 4750 
Q 2619 4750 2861 4703 
Q 3103 4656 3366 4563 
z
" transform="scale(0.015625)"/>
       </defs>
       <use xlink:href="#DejaVuSans-35"/>
       <use xlink:href="#DejaVuSans-36" x="63.623047"/>
      </g>
     </g>
    </g>
    <g id="ytick_5">
     <g id="line2d_27">
      <path d="M 68.023 191.865834 
L 960.823 191.865834 
" clip-path="url(#pd1507cdb43)" style="fill: none; stroke: #a5a391; stroke-opacity: 0.3; stroke-width: 0.8; stroke-linecap: square"/>
     </g>
     <g id="line2d_28">
      <g>
       <use xlink:href="#mcdeb0a8417" x="68.023" y="191.865834" style="stroke: #000000; stroke-width: 0.8"/>
      </g>
     </g>
     <g id="text_14">
      <!-- 57 -->
      <g transform="translate(39.073 199.464271) scale(0.2 -0.2)">
       <defs>
        <path id="DejaVuSans-37" d="M 525 4666 
L 3525 4666 
L 3525 4397 
L 1831 0 
L 1172 0 
L 2766 4134 
L 525 4134 
L 525 4666 
z
" transform="scale(0.015625)"/>
       </defs>
       <use xlink:href="#DejaVuSans-35"/>
       <use xlink:href="#DejaVuSans-37" x="63.623047"/>
      </g>
     </g>
    </g>
    <g id="ytick_6">
     <g id="line2d_29">
      <path d="M 68.023 105.211908 
L 960.823 105.211908 
" clip-path="url(#pd1507cdb43)" style="fill: none; stroke: #a5a391; stroke-opacity: 0.3; stroke-width: 0.8; stroke-linecap: square"/>
     </g>
     <g id="line2d_30">
      <g>
       <use xlink:href="#mcdeb0a8417" x="68.023" y="105.211908" style="stroke: #000000; stroke-width: 0.8"/>
      </g>
     </g>
     <g id="text_15">
      <!-- 58 -->
      <g transform="translate(39.073 112.810345) scale(0.2 -0.2)">
       <defs>
        <path id="DejaVuSans-38" d="M 2034 2216 
Q 1584 2216 1326 1975 
Q 1069 1734 1069 1313 
Q 1069 891 1326 650 
Q 1584 409 2034 409 
Q 2484 409 2743 651 
Q 3003 894 3003 1313 
Q 3003 1734 2745 1975 
Q 2488 2216 2034 2216 
z
M 1403 2484 
Q 997 2584 770 2862 
Q 544 3141 544 3541 
Q 544 4100 942 4425 
Q 1341 4750 2034 4750 
Q 2731 4750 3128 4425 
Q 3525 4100 3525 3541 
Q 3525 3141 3298 2862 
Q 3072 2584 2669 2484 
Q 3125 2378 3379 2068 
Q 3634 1759 3634 1313 
Q 3634 634 3220 271 
Q 2806 -91 2034 -91 
Q 1263 -91 848 271 
Q 434 634 434 1313 
Q 434 1759 690 2068 
Q 947 2378 1403 2484 
z
M 1172 3481 
Q 1172 3119 1398 2916 
Q 1625 2713 2034 2713 
Q 2441 2713 2670 2916 
Q 2900 3119 2900 3481 
Q 2900 3844 2670 4047 
Q 2441 4250 2034 4250 
Q 1625 4250 1398 4047 
Q 1172 3844 1172 3481 
z
" transform="scale(0.015625)"/>
       </defs>
       <use xlink:href="#DejaVuSans-35"/>
       <use xlink:href="#DejaVuSans-38" x="63.623047"/>
      </g>
     </g>
    </g>
    <g id="text_16">
     <!-- Water Percentage [%] -->
     <g transform="translate(29.0835 486.4785) rotate(-90) scale(0.288 -0.288)">
      <defs>
       <path id="DejaVuSans-57" d="M 213 4666 
L 850 4666 
L 1831 722 
L 2809 4666 
L 3519 4666 
L 4500 722 
L 5478 4666 
L 6119 4666 
L 4947 0 
L 4153 0 
L 3169 4050 
L 2175 0 
L 1381 0 
L 213 4666 
z
" transform="scale(0.015625)"/>
       <path id="DejaVuSans-74" d="M 1172 4494 
L 1172 3500 
L 2356 3500 
L 2356 3053 
L 1172 3053 
L 1172 1153 
Q 1172 725 1289 603 
Q 1406 481 1766 481 
L 2356 481 
L 2356 0 
L 1766 0 
Q 1100 0 847 248 
Q 594 497 594 1153 
L 594 3053 
L 172 3053 
L 172 3500 
L 594 3500 
L 594 4494 
L 1172 4494 
z
" transform="scale(0.015625)"/>
       <path id="DejaVuSans-65" d="M 3597 1894 
L 3597 1613 
L 953 1613 
Q 991 1019 1311 708 
Q 1631 397 2203 397 
Q 2534 397 2845 478 
Q 3156 559 3463 722 
L 3463 178 
Q 3153 47 2828 -22 
Q 2503 -91 2169 -91 
Q 1331 -91 842 396 
Q 353 884 353 1716 
Q 353 2575 817 3079 
Q 1281 3584 2069 3584 
Q 2775 3584 3186 3129 
Q 3597 2675 3597 1894 
z
M 3022 2063 
Q 3016 2534 2758 2815 
Q 2500 3097 2075 3097 
Q 1594 3097 1305 2825 
Q 1016 2553 972 2059 
L 3022 2063 
z
" transform="scale(0.015625)"/>
       <path id="DejaVuSans-72" d="M 2631 2963 
Q 2534 3019 2420 3045 
Q 2306 3072 2169 3072 
Q 1681 3072 1420 2755 
Q 1159 2438 1159 1844 
L 1159 0 
L 581 0 
L 581 3500 
L 1159 3500 
L 1159 2956 
Q 1341 3275 1631 3429 
Q 1922 3584 2338 3584 
Q 2397 3584 2469 3576 
Q 2541 3569 2628 3553 
L 2631 2963 
z
" transform="scale(0.015625)"/>
       <path id="DejaVuSans-50" d="M 1259 4147 
L 1259 2394 
L 2053 2394 
Q 2494 2394 2734 2622 
Q 2975 2850 2975 3272 
Q 2975 3691 2734 3919 
Q 2494 4147 2053 4147 
L 1259 4147 
z
M 628 4666 
L 2053 4666 
Q 2838 4666 3239 4311 
Q 3641 3956 3641 3272 
Q 3641 2581 3239 2228 
Q 2838 1875 2053 1875 
L 1259 1875 
L 1259 0 
L 628 0 
L 628 4666 
z
" transform="scale(0.015625)"/>
       <path id="DejaVuSans-63" d="M 3122 3366 
L 3122 2828 
Q 2878 2963 2633 3030 
Q 2388 3097 2138 3097 
Q 1578 3097 1268 2742 
Q 959 2388 959 1747 
Q 959 1106 1268 751 
Q 1578 397 2138 397 
Q 2388 397 2633 464 
Q 2878 531 3122 666 
L 3122 134 
Q 2881 22 2623 -34 
Q 2366 -91 2075 -91 
Q 1284 -91 818 406 
Q 353 903 353 1747 
Q 353 2603 823 3093 
Q 1294 3584 2113 3584 
Q 2378 3584 2631 3529 
Q 2884 3475 3122 3366 
z
" transform="scale(0.015625)"/>
       <path id="DejaVuSans-67" d="M 2906 1791 
Q 2906 2416 2648 2759 
Q 2391 3103 1925 3103 
Q 1463 3103 1205 2759 
Q 947 2416 947 1791 
Q 947 1169 1205 825 
Q 1463 481 1925 481 
Q 2391 481 2648 825 
Q 2906 1169 2906 1791 
z
M 3481 434 
Q 3481 -459 3084 -895 
Q 2688 -1331 1869 -1331 
Q 1566 -1331 1297 -1286 
Q 1028 -1241 775 -1147 
L 775 -588 
Q 1028 -725 1275 -790 
Q 1522 -856 1778 -856 
Q 2344 -856 2625 -561 
Q 2906 -266 2906 331 
L 2906 616 
Q 2728 306 2450 153 
Q 2172 0 1784 0 
Q 1141 0 747 490 
Q 353 981 353 1791 
Q 353 2603 747 3093 
Q 1141 3584 1784 3584 
Q 2172 3584 2450 3431 
Q 2728 3278 2906 2969 
L 2906 3500 
L 3481 3500 
L 3481 434 
z
" transform="scale(0.015625)"/>
       <path id="DejaVuSans-5b" d="M 550 4863 
L 1875 4863 
L 1875 4416 
L 1125 4416 
L 1125 -397 
L 1875 -397 
L 1875 -844 
L 550 -844 
L 550 4863 
z
" transform="scale(0.015625)"/>
       <path id="DejaVuSans-25" d="M 4653 2053 
Q 4381 2053 4226 1822 
Q 4072 1591 4072 1178 
Q 4072 772 4226 539 
Q 4381 306 4653 306 
Q 4919 306 5073 539 
Q 5228 772 5228 1178 
Q 5228 1588 5073 1820 
Q 4919 2053 4653 2053 
z
M 4653 2450 
Q 5147 2450 5437 2106 
Q 5728 1763 5728 1178 
Q 5728 594 5436 251 
Q 5144 -91 4653 -91 
Q 4153 -91 3862 251 
Q 3572 594 3572 1178 
Q 3572 1766 3864 2108 
Q 4156 2450 4653 2450 
z
M 1428 4353 
Q 1159 4353 1004 4120 
Q 850 3888 850 3481 
Q 850 3069 1003 2837 
Q 1156 2606 1428 2606 
Q 1700 2606 1854 2837 
Q 2009 3069 2009 3481 
Q 2009 3884 1853 4118 
Q 1697 4353 1428 4353 
z
M 4250 4750 
L 4750 4750 
L 1831 -91 
L 1331 -91 
L 4250 4750 
z
M 1428 4750 
Q 1922 4750 2215 4408 
Q 2509 4066 2509 3481 
Q 2509 2891 2217 2550 
Q 1925 2209 1428 2209 
Q 931 2209 642 2551 
Q 353 2894 353 3481 
Q 353 4063 643 4406 
Q 934 4750 1428 4750 
z
" transform="scale(0.015625)"/>
       <path id="DejaVuSans-5d" d="M 1947 4863 
L 1947 -844 
L 622 -844 
L 622 -397 
L 1369 -397 
L 1369 4416 
L 622 4416 
L 622 4863 
L 1947 4863 
z
" transform="scale(0.015625)"/>
      </defs>
      <use xlink:href="#DejaVuSans-57"/>
      <use xlink:href="#DejaVuSans-61" x="92.501953"/>
      <use xlink:href="#DejaVuSans-74" x="153.78125"/>
      <use xlink:href="#DejaVuSans-65" x="192.990234"/>
      <use xlink:href="#DejaVuSans-72" x="254.513672"/>
      <use xlink:href="#DejaVuSans-20" x="295.626953"/>
      <use xlink:href="#DejaVuSans-50" x="327.414062"/>
      <use xlink:href="#DejaVuSans-65" x="384.091797"/>
      <use xlink:href="#DejaVuSans-72" x="445.615234"/>
      <use xlink:href="#DejaVuSans-63" x="484.478516"/>
      <use xlink:href="#DejaVuSans-65" x="539.458984"/>
      <use xlink:href="#DejaVuSans-6e" x="600.982422"/>
      <use xlink:href="#DejaVuSans-74" x="664.361328"/>
      <use xlink:href="#DejaVuSans-61" x="703.570312"/>
      <use xlink:href="#DejaVuSans-67" x="764.849609"/>
      <use xlink:href="#DejaVuSans-65" x="828.326172"/>
      <use xlink:href="#DejaVuSans-20" x="889.849609"/>
      <use xlink:href="#DejaVuSans-5b" x="921.636719"/>
      <use xlink:href="#DejaVuSans-25" x="960.650391"/>
      <use xlink:href="#DejaVuSans-5d" x="1055.669922"/>
     </g>
    </g>
   </g>
   <g id="line2d_31">
    <path d="M 108.604818 321.846723 
L 116.721182 477.82379 
L 120.779364 278.51976 
L 124.837545 311.014982 
L 128.895727 246.024538 
L 132.953909 363.440608 
L 137.012091 282.852456 
L 141.070273 246.746654 
L 145.128455 255.412046 
L 149.186636 281.408224 
L 153.244818 351.309058 
L 157.303 342.065972 
L 161.361182 248.190886 
L 165.419364 228.260483 
L 169.477545 302.34959 
L 173.535727 246.024538 
L 177.593909 183.200441 
L 181.652091 145.072714 
L 185.710273 122.542693 
L 189.768455 163.703308 
L 193.826636 155.037915 
L 197.884818 186.088905 
L 201.943 252.523582 
L 206.001182 202.697575 
L 210.059364 204.863923 
L 214.117545 213.529315 
L 218.175727 212.662776 
L 222.233909 186.088905 
L 226.292091 246.746654 
L 230.350273 295.850545 
L 234.408455 256.856278 
L 238.466636 238.658954 
L 242.524818 217.862012 
L 246.583 233.459718 
L 250.641182 162.981192 
L 254.699364 233.026449 
L 258.757545 292.962081 
L 262.815727 250.790504 
L 266.873909 240.969725 
L 270.932091 196.19853 
L 274.990273 263.355323 
L 279.048455 281.408224 
L 283.106636 315.347679 
L 287.164818 278.51976 
L 291.223 317.514027 
L 295.281182 373.839079 
L 299.339364 261.188975 
L 303.397545 308.848634 
L 307.455727 311.014982 
L 311.513909 369.506382 
L 315.572091 313.18133 
L 319.630273 334.844812 
L 323.688455 329.067884 
L 327.746636 305.753851 
L 331.804818 279.963992 
L 335.863 269.854367 
L 339.921182 283.718996 
L 343.979364 264.077439 
L 348.037545 301.049781 
L 352.095727 318.958259 
L 356.153909 295.850545 
L 360.212091 287.185153 
L 364.270273 417.166042 
L 368.328455 394.058328 
L 372.386636 313.18133 
L 376.444818 320.113645 
L 380.503 309.467591 
L 384.561182 365.173686 
L 388.619364 382.504471 
L 392.677545 333.40058 
L 396.735727 344.376744 
L 400.793909 311.737098 
L 404.852091 235.192797 
L 408.910273 306.682286 
L 412.968455 292.962081 
L 417.026636 302.34959 
L 421.084818 229.415868 
L 425.143 287.185153 
L 429.201182 235.192797 
L 433.259364 163.703308 
L 441.375727 269.854367 
L 445.433909 259.455896 
L 449.492091 207.752387 
L 453.550273 295.850545 
L 473.841182 287.185153 
L 477.899364 290.073617 
L 481.957545 358.674642 
L 486.015727 310.292866 
L 490.073909 382.504471 
L 506.306636 339.177508 
L 510.364818 399.835257 
L 514.423 321.846723 
L 542.830273 369.506382 
L 546.888455 421.498738 
L 550.946636 388.2814 
L 555.004818 339.177508 
L 559.063 261.188975 
L 563.121182 278.51976 
L 567.179364 369.506382 
L 571.237545 317.514027 
L 575.295727 382.504471 
L 579.353909 291.517849 
L 583.412091 373.839079 
L 587.470273 376.727543 
L 603.703 382.504471 
L 607.761182 408.500649 
L 611.819364 399.835257 
L 615.877545 317.514027 
L 619.935727 460.493005 
L 640.226636 443.16222 
L 684.866636 373.839079 
L 705.157545 391.169864 
L 709.215727 373.839079 
L 717.332091 417.166042 
L 729.506636 356.508294 
L 782.263 460.493005 
L 916.183 113.8773 
L 920.241182 183.200441 
" clip-path="url(#pd1507cdb43)" style="fill: none; stroke: #0000ff; stroke-width: 1.5; stroke-linecap: square"/>
    <defs>
     <path id="m0723cf6817" d="M 0 -3 
L -0.673542 -0.927051 
L -2.85317 -0.927051 
L -1.089814 0.354102 
L -1.763356 2.427051 
L -0 1.145898 
L 1.763356 2.427051 
L 1.089814 0.354102 
L 2.85317 -0.927051 
L 0.673542 -0.927051 
z
" style="stroke: #0000ff; stroke-linejoin: bevel"/>
    </defs>
    <g clip-path="url(#pd1507cdb43)">
     <use xlink:href="#m0723cf6817" x="108.604818" y="321.846723" style="fill: #0000ff; stroke: #0000ff; stroke-linejoin: bevel"/>
     <use xlink:href="#m0723cf6817" x="116.721182" y="477.82379" style="fill: #0000ff; stroke: #0000ff; stroke-linejoin: bevel"/>
     <use xlink:href="#m0723cf6817" x="120.779364" y="278.51976" style="fill: #0000ff; stroke: #0000ff; stroke-linejoin: bevel"/>
     <use xlink:href="#m0723cf6817" x="124.837545" y="311.014982" style="fill: #0000ff; stroke: #0000ff; stroke-linejoin: bevel"/>
     <use xlink:href="#m0723cf6817" x="128.895727" y="246.024538" style="fill: #0000ff; stroke: #0000ff; stroke-linejoin: bevel"/>
     <use xlink:href="#m0723cf6817" x="132.953909" y="363.440608" style="fill: #0000ff; stroke: #0000ff; stroke-linejoin: bevel"/>
     <use xlink:href="#m0723cf6817" x="137.012091" y="282.852456" style="fill: #0000ff; stroke: #0000ff; stroke-linejoin: bevel"/>
     <use xlink:href="#m0723cf6817" x="141.070273" y="246.746654" style="fill: #0000ff; stroke: #0000ff; stroke-linejoin: bevel"/>
     <use xlink:href="#m0723cf6817" x="145.128455" y="255.412046" style="fill: #0000ff; stroke: #0000ff; stroke-linejoin: bevel"/>
     <use xlink:href="#m0723cf6817" x="149.186636" y="281.408224" style="fill: #0000ff; stroke: #0000ff; stroke-linejoin: bevel"/>
     <use xlink:href="#m0723cf6817" x="153.244818" y="351.309058" style="fill: #0000ff; stroke: #0000ff; stroke-linejoin: bevel"/>
     <use xlink:href="#m0723cf6817" x="157.303" y="342.065972" style="fill: #0000ff; stroke: #0000ff; stroke-linejoin: bevel"/>
     <use xlink:href="#m0723cf6817" x="161.361182" y="248.190886" style="fill: #0000ff; stroke: #0000ff; stroke-linejoin: bevel"/>
     <use xlink:href="#m0723cf6817" x="165.419364" y="228.260483" style="fill: #0000ff; stroke: #0000ff; stroke-linejoin: bevel"/>
     <use xlink:href="#m0723cf6817" x="169.477545" y="302.34959" style="fill: #0000ff; stroke: #0000ff; stroke-linejoin: bevel"/>
     <use xlink:href="#m0723cf6817" x="173.535727" y="246.024538" style="fill: #0000ff; stroke: #0000ff; stroke-linejoin: bevel"/>
     <use xlink:href="#m0723cf6817" x="177.593909" y="183.200441" style="fill: #0000ff; stroke: #0000ff; stroke-linejoin: bevel"/>
     <use xlink:href="#m0723cf6817" x="181.652091" y="145.072714" style="fill: #0000ff; stroke: #0000ff; stroke-linejoin: bevel"/>
     <use xlink:href="#m0723cf6817" x="185.710273" y="122.542693" style="fill: #0000ff; stroke: #0000ff; stroke-linejoin: bevel"/>
     <use xlink:href="#m0723cf6817" x="189.768455" y="163.703308" style="fill: #0000ff; stroke: #0000ff; stroke-linejoin: bevel"/>
     <use xlink:href="#m0723cf6817" x="193.826636" y="155.037915" style="fill: #0000ff; stroke: #0000ff; stroke-linejoin: bevel"/>
     <use xlink:href="#m0723cf6817" x="197.884818" y="186.088905" style="fill: #0000ff; stroke: #0000ff; stroke-linejoin: bevel"/>
     <use xlink:href="#m0723cf6817" x="201.943" y="252.523582" style="fill: #0000ff; stroke: #0000ff; stroke-linejoin: bevel"/>
     <use xlink:href="#m0723cf6817" x="206.001182" y="202.697575" style="fill: #0000ff; stroke: #0000ff; stroke-linejoin: bevel"/>
     <use xlink:href="#m0723cf6817" x="210.059364" y="204.863923" style="fill: #0000ff; stroke: #0000ff; stroke-linejoin: bevel"/>
     <use xlink:href="#m0723cf6817" x="214.117545" y="213.529315" style="fill: #0000ff; stroke: #0000ff; stroke-linejoin: bevel"/>
     <use xlink:href="#m0723cf6817" x="218.175727" y="212.662776" style="fill: #0000ff; stroke: #0000ff; stroke-linejoin: bevel"/>
     <use xlink:href="#m0723cf6817" x="222.233909" y="186.088905" style="fill: #0000ff; stroke: #0000ff; stroke-linejoin: bevel"/>
     <use xlink:href="#m0723cf6817" x="226.292091" y="246.746654" style="fill: #0000ff; stroke: #0000ff; stroke-linejoin: bevel"/>
     <use xlink:href="#m0723cf6817" x="230.350273" y="295.850545" style="fill: #0000ff; stroke: #0000ff; stroke-linejoin: bevel"/>
     <use xlink:href="#m0723cf6817" x="234.408455" y="256.856278" style="fill: #0000ff; stroke: #0000ff; stroke-linejoin: bevel"/>
     <use xlink:href="#m0723cf6817" x="238.466636" y="238.658954" style="fill: #0000ff; stroke: #0000ff; stroke-linejoin: bevel"/>
     <use xlink:href="#m0723cf6817" x="242.524818" y="217.862012" style="fill: #0000ff; stroke: #0000ff; stroke-linejoin: bevel"/>
     <use xlink:href="#m0723cf6817" x="246.583" y="233.459718" style="fill: #0000ff; stroke: #0000ff; stroke-linejoin: bevel"/>
     <use xlink:href="#m0723cf6817" x="250.641182" y="162.981192" style="fill: #0000ff; stroke: #0000ff; stroke-linejoin: bevel"/>
     <use xlink:href="#m0723cf6817" x="254.699364" y="233.026449" style="fill: #0000ff; stroke: #0000ff; stroke-linejoin: bevel"/>
     <use xlink:href="#m0723cf6817" x="258.757545" y="292.962081" style="fill: #0000ff; stroke: #0000ff; stroke-linejoin: bevel"/>
     <use xlink:href="#m0723cf6817" x="262.815727" y="250.790504" style="fill: #0000ff; stroke: #0000ff; stroke-linejoin: bevel"/>
     <use xlink:href="#m0723cf6817" x="266.873909" y="240.969725" style="fill: #0000ff; stroke: #0000ff; stroke-linejoin: bevel"/>
     <use xlink:href="#m0723cf6817" x="270.932091" y="196.19853" style="fill: #0000ff; stroke: #0000ff; stroke-linejoin: bevel"/>
     <use xlink:href="#m0723cf6817" x="274.990273" y="263.355323" style="fill: #0000ff; stroke: #0000ff; stroke-linejoin: bevel"/>
     <use xlink:href="#m0723cf6817" x="279.048455" y="281.408224" style="fill: #0000ff; stroke: #0000ff; stroke-linejoin: bevel"/>
     <use xlink:href="#m0723cf6817" x="283.106636" y="315.347679" style="fill: #0000ff; stroke: #0000ff; stroke-linejoin: bevel"/>
     <use xlink:href="#m0723cf6817" x="287.164818" y="278.51976" style="fill: #0000ff; stroke: #0000ff; stroke-linejoin: bevel"/>
     <use xlink:href="#m0723cf6817" x="291.223" y="317.514027" style="fill: #0000ff; stroke: #0000ff; stroke-linejoin: bevel"/>
     <use xlink:href="#m0723cf6817" x="295.281182" y="373.839079" style="fill: #0000ff; stroke: #0000ff; stroke-linejoin: bevel"/>
     <use xlink:href="#m0723cf6817" x="299.339364" y="261.188975" style="fill: #0000ff; stroke: #0000ff; stroke-linejoin: bevel"/>
     <use xlink:href="#m0723cf6817" x="303.397545" y="308.848634" style="fill: #0000ff; stroke: #0000ff; stroke-linejoin: bevel"/>
     <use xlink:href="#m0723cf6817" x="307.455727" y="311.014982" style="fill: #0000ff; stroke: #0000ff; stroke-linejoin: bevel"/>
     <use xlink:href="#m0723cf6817" x="311.513909" y="369.506382" style="fill: #0000ff; stroke: #0000ff; stroke-linejoin: bevel"/>
     <use xlink:href="#m0723cf6817" x="315.572091" y="313.18133" style="fill: #0000ff; stroke: #0000ff; stroke-linejoin: bevel"/>
     <use xlink:href="#m0723cf6817" x="319.630273" y="334.844812" style="fill: #0000ff; stroke: #0000ff; stroke-linejoin: bevel"/>
     <use xlink:href="#m0723cf6817" x="323.688455" y="329.067884" style="fill: #0000ff; stroke: #0000ff; stroke-linejoin: bevel"/>
     <use xlink:href="#m0723cf6817" x="327.746636" y="305.753851" style="fill: #0000ff; stroke: #0000ff; stroke-linejoin: bevel"/>
     <use xlink:href="#m0723cf6817" x="331.804818" y="279.963992" style="fill: #0000ff; stroke: #0000ff; stroke-linejoin: bevel"/>
     <use xlink:href="#m0723cf6817" x="335.863" y="269.854367" style="fill: #0000ff; stroke: #0000ff; stroke-linejoin: bevel"/>
     <use xlink:href="#m0723cf6817" x="339.921182" y="283.718996" style="fill: #0000ff; stroke: #0000ff; stroke-linejoin: bevel"/>
     <use xlink:href="#m0723cf6817" x="343.979364" y="264.077439" style="fill: #0000ff; stroke: #0000ff; stroke-linejoin: bevel"/>
     <use xlink:href="#m0723cf6817" x="348.037545" y="301.049781" style="fill: #0000ff; stroke: #0000ff; stroke-linejoin: bevel"/>
     <use xlink:href="#m0723cf6817" x="352.095727" y="318.958259" style="fill: #0000ff; stroke: #0000ff; stroke-linejoin: bevel"/>
     <use xlink:href="#m0723cf6817" x="356.153909" y="295.850545" style="fill: #0000ff; stroke: #0000ff; stroke-linejoin: bevel"/>
     <use xlink:href="#m0723cf6817" x="360.212091" y="287.185153" style="fill: #0000ff; stroke: #0000ff; stroke-linejoin: bevel"/>
     <use xlink:href="#m0723cf6817" x="364.270273" y="417.166042" style="fill: #0000ff; stroke: #0000ff; stroke-linejoin: bevel"/>
     <use xlink:href="#m0723cf6817" x="368.328455" y="394.058328" style="fill: #0000ff; stroke: #0000ff; stroke-linejoin: bevel"/>
     <use xlink:href="#m0723cf6817" x="372.386636" y="313.18133" style="fill: #0000ff; stroke: #0000ff; stroke-linejoin: bevel"/>
     <use xlink:href="#m0723cf6817" x="376.444818" y="320.113645" style="fill: #0000ff; stroke: #0000ff; stroke-linejoin: bevel"/>
     <use xlink:href="#m0723cf6817" x="380.503" y="309.467591" style="fill: #0000ff; stroke: #0000ff; stroke-linejoin: bevel"/>
     <use xlink:href="#m0723cf6817" x="384.561182" y="365.173686" style="fill: #0000ff; stroke: #0000ff; stroke-linejoin: bevel"/>
     <use xlink:href="#m0723cf6817" x="388.619364" y="382.504471" style="fill: #0000ff; stroke: #0000ff; stroke-linejoin: bevel"/>
     <use xlink:href="#m0723cf6817" x="392.677545" y="333.40058" style="fill: #0000ff; stroke: #0000ff; stroke-linejoin: bevel"/>
     <use xlink:href="#m0723cf6817" x="396.735727" y="344.376744" style="fill: #0000ff; stroke: #0000ff; stroke-linejoin: bevel"/>
     <use xlink:href="#m0723cf6817" x="400.793909" y="311.737098" style="fill: #0000ff; stroke: #0000ff; stroke-linejoin: bevel"/>
     <use xlink:href="#m0723cf6817" x="404.852091" y="235.192797" style="fill: #0000ff; stroke: #0000ff; stroke-linejoin: bevel"/>
     <use xlink:href="#m0723cf6817" x="408.910273" y="306.682286" style="fill: #0000ff; stroke: #0000ff; stroke-linejoin: bevel"/>
     <use xlink:href="#m0723cf6817" x="412.968455" y="292.962081" style="fill: #0000ff; stroke: #0000ff; stroke-linejoin: bevel"/>
     <use xlink:href="#m0723cf6817" x="417.026636" y="302.34959" style="fill: #0000ff; stroke: #0000ff; stroke-linejoin: bevel"/>
     <use xlink:href="#m0723cf6817" x="421.084818" y="229.415868" style="fill: #0000ff; stroke: #0000ff; stroke-linejoin: bevel"/>
     <use xlink:href="#m0723cf6817" x="425.143" y="287.185153" style="fill: #0000ff; stroke: #0000ff; stroke-linejoin: bevel"/>
     <use xlink:href="#m0723cf6817" x="429.201182" y="235.192797" style="fill: #0000ff; stroke: #0000ff; stroke-linejoin: bevel"/>
     <use xlink:href="#m0723cf6817" x="433.259364" y="163.703308" style="fill: #0000ff; stroke: #0000ff; stroke-linejoin: bevel"/>
     <use xlink:href="#m0723cf6817" x="441.375727" y="269.854367" style="fill: #0000ff; stroke: #0000ff; stroke-linejoin: bevel"/>
     <use xlink:href="#m0723cf6817" x="445.433909" y="259.455896" style="fill: #0000ff; stroke: #0000ff; stroke-linejoin: bevel"/>
     <use xlink:href="#m0723cf6817" x="449.492091" y="207.752387" style="fill: #0000ff; stroke: #0000ff; stroke-linejoin: bevel"/>
     <use xlink:href="#m0723cf6817" x="453.550273" y="295.850545" style="fill: #0000ff; stroke: #0000ff; stroke-linejoin: bevel"/>
     <use xlink:href="#m0723cf6817" x="473.841182" y="287.185153" style="fill: #0000ff; stroke: #0000ff; stroke-linejoin: bevel"/>
     <use xlink:href="#m0723cf6817" x="477.899364" y="290.073617" style="fill: #0000ff; stroke: #0000ff; stroke-linejoin: bevel"/>
     <use xlink:href="#m0723cf6817" x="481.957545" y="358.674642" style="fill: #0000ff; stroke: #0000ff; stroke-linejoin: bevel"/>
     <use xlink:href="#m0723cf6817" x="486.015727" y="310.292866" style="fill: #0000ff; stroke: #0000ff; stroke-linejoin: bevel"/>
     <use xlink:href="#m0723cf6817" x="490.073909" y="382.504471" style="fill: #0000ff; stroke: #0000ff; stroke-linejoin: bevel"/>
     <use xlink:href="#m0723cf6817" x="506.306636" y="339.177508" style="fill: #0000ff; stroke: #0000ff; stroke-linejoin: bevel"/>
     <use xlink:href="#m0723cf6817" x="510.364818" y="399.835257" style="fill: #0000ff; stroke: #0000ff; stroke-linejoin: bevel"/>
     <use xlink:href="#m0723cf6817" x="514.423" y="321.846723" style="fill: #0000ff; stroke: #0000ff; stroke-linejoin: bevel"/>
     <use xlink:href="#m0723cf6817" x="542.830273" y="369.506382" style="fill: #0000ff; stroke: #0000ff; stroke-linejoin: bevel"/>
     <use xlink:href="#m0723cf6817" x="546.888455" y="421.498738" style="fill: #0000ff; stroke: #0000ff; stroke-linejoin: bevel"/>
     <use xlink:href="#m0723cf6817" x="550.946636" y="388.2814" style="fill: #0000ff; stroke: #0000ff; stroke-linejoin: bevel"/>
     <use xlink:href="#m0723cf6817" x="555.004818" y="339.177508" style="fill: #0000ff; stroke: #0000ff; stroke-linejoin: bevel"/>
     <use xlink:href="#m0723cf6817" x="559.063" y="261.188975" style="fill: #0000ff; stroke: #0000ff; stroke-linejoin: bevel"/>
     <use xlink:href="#m0723cf6817" x="563.121182" y="278.51976" style="fill: #0000ff; stroke: #0000ff; stroke-linejoin: bevel"/>
     <use xlink:href="#m0723cf6817" x="567.179364" y="369.506382" style="fill: #0000ff; stroke: #0000ff; stroke-linejoin: bevel"/>
     <use xlink:href="#m0723cf6817" x="571.237545" y="317.514027" style="fill: #0000ff; stroke: #0000ff; stroke-linejoin: bevel"/>
     <use xlink:href="#m0723cf6817" x="575.295727" y="382.504471" style="fill: #0000ff; stroke: #0000ff; stroke-linejoin: bevel"/>
     <use xlink:href="#m0723cf6817" x="579.353909" y="291.517849" style="fill: #0000ff; stroke: #0000ff; stroke-linejoin: bevel"/>
     <use xlink:href="#m0723cf6817" x="583.412091" y="373.839079" style="fill: #0000ff; stroke: #0000ff; stroke-linejoin: bevel"/>
     <use xlink:href="#m0723cf6817" x="587.470273" y="376.727543" style="fill: #0000ff; stroke: #0000ff; stroke-linejoin: bevel"/>
     <use xlink:href="#m0723cf6817" x="603.703" y="382.504471" style="fill: #0000ff; stroke: #0000ff; stroke-linejoin: bevel"/>
     <use xlink:href="#m0723cf6817" x="607.761182" y="408.500649" style="fill: #0000ff; stroke: #0000ff; stroke-linejoin: bevel"/>
     <use xlink:href="#m0723cf6817" x="611.819364" y="399.835257" style="fill: #0000ff; stroke: #0000ff; stroke-linejoin: bevel"/>
     <use xlink:href="#m0723cf6817" x="615.877545" y="317.514027" style="fill: #0000ff; stroke: #0000ff; stroke-linejoin: bevel"/>
     <use xlink:href="#m0723cf6817" x="619.935727" y="460.493005" style="fill: #0000ff; stroke: #0000ff; stroke-linejoin: bevel"/>
     <use xlink:href="#m0723cf6817" x="640.226636" y="443.16222" style="fill: #0000ff; stroke: #0000ff; stroke-linejoin: bevel"/>
     <use xlink:href="#m0723cf6817" x="684.866636" y="373.839079" style="fill: #0000ff; stroke: #0000ff; stroke-linejoin: bevel"/>
     <use xlink:href="#m0723cf6817" x="705.157545" y="391.169864" style="fill: #0000ff; stroke: #0000ff; stroke-linejoin: bevel"/>
     <use xlink:href="#m0723cf6817" x="709.215727" y="373.839079" style="fill: #0000ff; stroke: #0000ff; stroke-linejoin: bevel"/>
     <use xlink:href="#m0723cf6817" x="717.332091" y="417.166042" style="fill: #0000ff; stroke: #0000ff; stroke-linejoin: bevel"/>
     <use xlink:href="#m0723cf6817" x="729.506636" y="356.508294" style="fill: #0000ff; stroke: #0000ff; stroke-linejoin: bevel"/>
     <use xlink:href="#m0723cf6817" x="782.263" y="460.493005" style="fill: #0000ff; stroke: #0000ff; stroke-linejoin: bevel"/>
     <use xlink:href="#m0723cf6817" x="916.183" y="113.8773" style="fill: #0000ff; stroke: #0000ff; stroke-linejoin: bevel"/>
     <use xlink:href="#m0723cf6817" x="920.241182" y="183.200441" style="fill: #0000ff; stroke: #0000ff; stroke-linejoin: bevel"/>
    </g>
   </g>
   <g id="patch_3">
    <path d="M 68.023 622.6035 
L 68.023 35.0835 
" style="fill: none; stroke: #000000; stroke-width: 0.8; stroke-linejoin: miter; stroke-linecap: square"/>
   </g>
   <g id="patch_4">
    <path d="M 960.823 622.6035 
L 960.823 35.0835 
" style="fill: none; stroke: #000000; stroke-width: 0.8; stroke-linejoin: miter; stroke-linecap: square"/>
   </g>
   <g id="patch_5">
    <path d="M 68.023 622.6035 
L 960.823 622.6035 
" style="fill: none; stroke: #000000; stroke-width: 0.8; stroke-linejoin: miter; stroke-linecap: square"/>
   </g>
   <g id="patch_6">
    <path d="M 68.023 35.0835 
L 960.823 35.0835 
" style="fill: none; stroke: #000000; stroke-width: 0.8; stroke-linejoin: miter; stroke-linecap: square"/>
   </g>
   <g id="text_17">
    <!-- Body Water Percentage -->
    <g transform="translate(345.35125 29.0835) scale(0.288 -0.288)">
     <defs>
      <path id="DejaVuSans-42" d="M 1259 2228 
L 1259 519 
L 2272 519 
Q 2781 519 3026 730 
Q 3272 941 3272 1375 
Q 3272 1813 3026 2020 
Q 2781 2228 2272 2228 
L 1259 2228 
z
M 1259 4147 
L 1259 2741 
L 2194 2741 
Q 2656 2741 2882 2914 
Q 3109 3088 3109 3444 
Q 3109 3797 2882 3972 
Q 2656 4147 2194 4147 
L 1259 4147 
z
M 628 4666 
L 2241 4666 
Q 2963 4666 3353 4366 
Q 3744 4066 3744 3513 
Q 3744 3084 3544 2831 
Q 3344 2578 2956 2516 
Q 3422 2416 3680 2098 
Q 3938 1781 3938 1306 
Q 3938 681 3513 340 
Q 3088 0 2303 0 
L 628 0 
L 628 4666 
z
" transform="scale(0.015625)"/>
      <path id="DejaVuSans-6f" d="M 1959 3097 
Q 1497 3097 1228 2736 
Q 959 2375 959 1747 
Q 959 1119 1226 758 
Q 1494 397 1959 397 
Q 2419 397 2687 759 
Q 2956 1122 2956 1747 
Q 2956 2369 2687 2733 
Q 2419 3097 1959 3097 
z
M 1959 3584 
Q 2709 3584 3137 3096 
Q 3566 2609 3566 1747 
Q 3566 888 3137 398 
Q 2709 -91 1959 -91 
Q 1206 -91 779 398 
Q 353 888 353 1747 
Q 353 2609 779 3096 
Q 1206 3584 1959 3584 
z
" transform="scale(0.015625)"/>
      <path id="DejaVuSans-64" d="M 2906 2969 
L 2906 4863 
L 3481 4863 
L 3481 0 
L 2906 0 
L 2906 525 
Q 2725 213 2448 61 
Q 2172 -91 1784 -91 
Q 1150 -91 751 415 
Q 353 922 353 1747 
Q 353 2572 751 3078 
Q 1150 3584 1784 3584 
Q 2172 3584 2448 3432 
Q 2725 3281 2906 2969 
z
M 947 1747 
Q 947 1113 1208 752 
Q 1469 391 1925 391 
Q 2381 391 2643 752 
Q 2906 1113 2906 1747 
Q 2906 2381 2643 2742 
Q 2381 3103 1925 3103 
Q 1469 3103 1208 2742 
Q 947 2381 947 1747 
z
" transform="scale(0.015625)"/>
      <path id="DejaVuSans-79" d="M 2059 -325 
Q 1816 -950 1584 -1140 
Q 1353 -1331 966 -1331 
L 506 -1331 
L 506 -850 
L 844 -850 
Q 1081 -850 1212 -737 
Q 1344 -625 1503 -206 
L 1606 56 
L 191 3500 
L 800 3500 
L 1894 763 
L 2988 3500 
L 3597 3500 
L 2059 -325 
z
" transform="scale(0.015625)"/>
     </defs>
     <use xlink:href="#DejaVuSans-42"/>
     <use xlink:href="#DejaVuSans-6f" x="68.603516"/>
     <use xlink:href="#DejaVuSans-64" x="129.785156"/>
     <use xlink:href="#DejaVuSans-79" x="193.261719"/>
     <use xlink:href="#DejaVuSans-20" x="252.441406"/>
     <use xlink:href="#DejaVuSans-57" x="284.228516"/>
     <use xlink:href="#DejaVuSans-61" x="376.730469"/>
     <use xlink:href="#DejaVuSans-74" x="438.009766"/>
     <use xlink:href="#DejaVuSans-65" x="477.21875"/>
     <use xlink:href="#DejaVuSans-72" x="538.742188"/>
     <use xlink:href="#DejaVuSans-20" x="579.855469"/>
     <use xlink:href="#DejaVuSans-50" x="611.642578"/>
     <use xlink:href="#DejaVuSans-65" x="668.320312"/>
     <use xlink:href="#DejaVuSans-72" x="729.84375"/>
     <use xlink:href="#DejaVuSans-63" x="768.707031"/>
     <use xlink:href="#DejaVuSans-65" x="823.6875"/>
     <use xlink:href="#DejaVuSans-6e" x="885.210938"/>
     <use xlink:href="#DejaVuSans-74" x="948.589844"/>
     <use xlink:href="#DejaVuSans-61" x="987.798828"/>
     <use xlink:href="#DejaVuSans-67" x="1049.078125"/>
     <use xlink:href="#DejaVuSans-65" x="1112.554688"/>
    </g>
   </g>
  </g>
 </g>
 <defs>
  <clipPath id="pd1507cdb43">
   <rect x="68.023" y="35.0835" width="892.8" height="587.52"/>
  </clipPath>
 </defs>
</svg>
