<?xml version="1.0" encoding="utf-8" standalone="no"?>
<!DOCTYPE svg PUBLIC "-//W3C//DTD SVG 1.1//EN"
  "http://www.w3.org/Graphics/SVG/1.1/DTD/svg11.dtd">
<svg xmlns:xlink="http://www.w3.org/1999/xlink" width="968.023pt" height="700.466504pt" viewBox="0 0 968.023 700.466504" xmlns="http://www.w3.org/2000/svg" version="1.1">
 <metadata>
  <rdf:RDF xmlns:dc="http://purl.org/dc/elements/1.1/" xmlns:cc="http://creativecommons.org/ns#" xmlns:rdf="http://www.w3.org/1999/02/22-rdf-syntax-ns#">
   <cc:Work>
    <dc:type rdf:resource="http://purl.org/dc/dcmitype/StillImage"/>
    <dc:date>2024-09-26T19:17:40.134192</dc:date>
    <dc:format>image/svg+xml</dc:format>
    <dc:creator>
     <cc:Agent>
      <dc:title>Matplotlib v3.9.2, https://matplotlib.org/</dc:title>
     </cc:Agent>
    </dc:creator>
   </cc:Work>
  </rdf:RDF>
 </metadata>
 <defs>
  <style type="text/css">*{stroke-linejoin: round; stroke-linecap: butt}</style>
 </defs>
 <g id="figure_1">
  <g id="patch_1">
   <path d="M 0 700.466504 
L 968.023 700.466504 
L 968.023 0 
L 0 0 
z
" style="fill: #ffffff"/>
  </g>
  <g id="axes_1">
   <g id="patch_2">
    <path d="M 68.023 622.6035 
L 960.823 622.6035 
L 960.823 35.0835 
L 68.023 35.0835 
z
" style="fill: #ffffff"/>
   </g>
   <g id="PolyCollection_1">
    <defs>
     <path id="m1e3e1a382b" d="M 108.604818 -436.962433 
L 108.604818 -363.048314 
L 115.150273 -104.568459 
L 118.423 -390.996486 
L 121.695727 -396.171766 
L 124.968455 -444.610837 
L 128.241182 -345.228261 
L 131.513909 -419.984626 
L 134.786636 -413.34744 
L 138.059364 -415.204704 
L 141.332091 -414.848096 
L 144.604818 -355.99116 
L 147.877545 -357.72405 
L 151.150273 -438.794612 
L 154.423 -430.910634 
L 157.695727 -371.093409 
L 160.968455 -417.843575 
L 164.241182 -459.829321 
L 167.513909 -500.13649 
L 170.786636 -526.663729 
L 174.059364 -487.674626 
L 177.332091 -495.545138 
L 180.604818 -446.256357 
L 183.877545 -426.009323 
L 187.150273 -405.069505 
L 190.423 -433.561592 
L 193.695727 -426.949092 
L 196.968455 -435.532687 
L 200.241182 -463.403962 
L 203.513909 -419.555086 
L 206.786636 -389.214828 
L 210.059364 -413.992091 
L 213.332091 -437.798402 
L 216.604818 -441.997839 
L 219.877545 -433.073975 
L 223.150273 -444.233486 
L 226.423 -406.787179 
L 229.695727 -363.781423 
L 232.968455 -398.093349 
L 236.241182 -399.413792 
L 239.513909 -454.084238 
L 242.786636 -397.864011 
L 246.059364 -378.99658 
L 249.332091 -370.646225 
L 252.604818 -409.913835 
L 255.877545 -342.357469 
L 259.150273 -316.952574 
L 262.423 -403.602465 
L 265.695727 -375.035663 
L 268.968455 -400.010142 
L 272.241182 -318.581426 
L 275.513909 -343.365024 
L 278.786636 -335.977836 
L 282.059364 -329.288556 
L 285.332091 -353.540057 
L 288.604818 -375.907392 
L 291.877545 -365.322564 
L 295.150273 -339.932832 
L 298.423 -387.622802 
L 301.695727 -365.147251 
L 304.968455 -349.989944 
L 308.241182 -363.556712 
L 311.513909 -365.518079 
L 314.786636 -271.798831 
L 318.059364 -292.571061 
L 321.332091 -381.481419 
L 324.604818 -334.165617 
L 327.877545 -354.310323 
L 331.150273 -279.441441 
L 334.423 -298.867632 
L 337.695727 -334.15325 
L 340.968455 -315.186984 
L 344.241182 -351.194635 
L 347.513909 -370.508212 
L 350.786636 -343.831001 
L 354.059364 -356.006216 
L 357.332091 -372.76818 
L 360.604818 -414.25991 
L 363.877545 -372.785428 
L 367.150273 -443.53338 
L 370.423 -478.226612 
L 376.968455 -393.539334 
L 380.241182 -400.789089 
L 383.513909 -424.526504 
L 386.786636 -381.140518 
L 403.150273 -391.051486 
L 406.423 -391.039771 
L 409.695727 -303.393263 
L 412.968455 -382.56524 
L 416.241182 -329.059621 
L 429.332091 -350.6357 
L 432.604818 -333.119132 
L 435.877545 -383.517614 
L 458.786636 -352.889048 
L 462.059364 -295.276491 
L 465.332091 -318.661723 
L 468.604818 -347.176734 
L 471.877545 -400.719706 
L 475.150273 -385.811997 
L 478.423 -321.197929 
L 481.695727 -342.388897 
L 484.968455 -314.358748 
L 488.241182 -340.081875 
L 491.513909 -337.588807 
L 494.786636 -330.411818 
L 507.877545 -292.553351 
L 511.150273 -286.871098 
L 514.423 -293.679017 
L 517.695727 -345.844138 
L 520.968455 -237.46318 
L 537.332091 -268.859766 
L 573.332091 -328.908386 
L 589.695727 -307.871056 
L 592.968455 -322.865081 
L 599.513909 -259.157728 
L 609.332091 -321.844337 
L 651.877545 -249.420174 
L 759.877545 -521.864932 
L 763.150273 -511.926954 
L 766.423 -584.300572 
L 769.695727 -551.768126 
L 772.968455 -546.040894 
L 779.513909 -455.887908 
L 782.786636 -476.997511 
L 920.241182 -553.392717 
L 920.241182 -638.67755 
L 920.241182 -638.67755 
L 782.786636 -550.91163 
L 779.513909 -529.802027 
L 772.968455 -619.955013 
L 769.695727 -625.682245 
L 766.423 -632.253078 
L 763.150273 -624.579733 
L 759.877545 -595.779051 
L 651.877545 -323.334293 
L 609.332091 -395.758456 
L 599.513909 -333.071846 
L 592.968455 -396.7792 
L 589.695727 -381.785175 
L 573.332091 -402.822505 
L 537.332091 -342.773885 
L 520.968455 -311.377299 
L 517.695727 -409.772974 
L 514.423 -367.593136 
L 511.150273 -360.785217 
L 507.877545 -366.46747 
L 494.786636 -404.325936 
L 491.513909 -411.502926 
L 488.241182 -476.834738 
L 484.968455 -388.272867 
L 481.695727 -416.303016 
L 478.423 -395.112047 
L 475.150273 -459.726116 
L 471.877545 -474.633825 
L 468.604818 -403.608993 
L 465.332091 -392.575842 
L 462.059364 -369.19061 
L 458.786636 -370.24603 
L 435.877545 -457.431733 
L 432.604818 -407.033251 
L 429.332091 -424.549819 
L 416.241182 -402.97374 
L 412.968455 -456.479358 
L 409.695727 -417.49253 
L 406.423 -464.95389 
L 403.150273 -464.965605 
L 386.786636 -455.054637 
L 383.513909 -509.578477 
L 380.241182 -468.967511 
L 376.968455 -467.453452 
L 370.423 -529.736272 
L 367.150273 -517.447499 
L 363.877545 -446.699546 
L 360.604818 -475.491732 
L 357.332091 -422.783015 
L 354.059364 -429.920335 
L 350.786636 -450.088848 
L 347.513909 -444.422331 
L 344.241182 -439.56415 
L 340.968455 -412.28521 
L 337.695727 -408.067369 
L 334.423 -372.781751 
L 331.150273 -433.144321 
L 327.877545 -439.620615 
L 324.604818 -419.308118 
L 321.332091 -455.395538 
L 318.059364 -366.48518 
L 314.786636 -345.71295 
L 311.513909 -439.432197 
L 308.241182 -443.899036 
L 304.968455 -411.028349 
L 301.695727 -419.33083 
L 298.423 -461.536921 
L 295.150273 -467.526328 
L 291.877545 -439.236683 
L 288.604818 -477.329963 
L 285.332091 -443.101084 
L 282.059364 -418.296762 
L 278.786636 -432.669145 
L 275.513909 -417.279142 
L 272.241182 -368.094614 
L 268.968455 -416.049199 
L 265.695727 -448.949782 
L 262.423 -477.516584 
L 259.150273 -390.866693 
L 255.877545 -416.271588 
L 252.604818 -446.684152 
L 249.332091 -411.595276 
L 246.059364 -452.910699 
L 242.786636 -466.029282 
L 239.513909 -487.725695 
L 236.241182 -473.327911 
L 232.968455 -476.579911 
L 229.695727 -450.305615 
L 226.423 -459.2506 
L 223.150273 -518.147604 
L 219.877545 -474.36734 
L 216.604818 -515.911957 
L 213.332091 -493.858254 
L 210.059364 -487.90621 
L 206.786636 -492.580581 
L 203.513909 -493.469205 
L 200.241182 -537.318081 
L 196.968455 -531.682498 
L 193.695727 -534.612233 
L 190.423 -503.737897 
L 187.150273 -552.770661 
L 183.877545 -499.923441 
L 180.604818 -520.170475 
L 177.332091 -537.217376 
L 174.059364 -536.417907 
L 170.786636 -531.751829 
L 167.513909 -538.577204 
L 164.241182 -534.156933 
L 160.968455 -501.237891 
L 157.695727 -465.450285 
L 154.423 -502.492286 
L 151.150273 -472.223979 
L 147.877545 -404.844807 
L 144.604818 -447.909939 
L 141.332091 -480.450459 
L 138.059364 -489.118822 
L 134.786636 -494.232907 
L 131.513909 -465.654276 
L 128.241182 -399.664571 
L 124.968455 -473.768986 
L 121.695727 -415.869153 
L 118.423 -467.597234 
L 115.150273 -345.359655 
L 108.604818 -436.962433 
z
" style="stroke: #a52a2a; stroke-opacity: 0.2"/>
    </defs>
    <g clip-path="url(#pe5995bad79)">
     <use xlink:href="#m1e3e1a382b" x="0" y="700.466504" style="fill: #a52a2a; fill-opacity: 0.2; stroke: #a52a2a; stroke-opacity: 0.2"/>
    </g>
   </g>
   <g id="matplotlib.axis_1">
    <g id="xtick_1">
     <g id="line2d_1">
      <path d="M 111.877545 622.6035 
L 111.877545 35.0835 
" clip-path="url(#pe5995bad79)" style="fill: none; stroke: #a5a391; stroke-opacity: 0.3; stroke-width: 0.8; stroke-linecap: square"/>
     </g>
     <g id="line2d_2">
      <defs>
       <path id="mdf0a4c0e39" d="M 0 0 
L 0 -3.5 
" style="stroke: #000000; stroke-width: 0.8"/>
      </defs>
      <g>
       <use xlink:href="#mdf0a4c0e39" x="111.877545" y="622.6035" style="stroke: #000000; stroke-width: 0.8"/>
      </g>
     </g>
     <g id="text_1">
      <!-- Jan 01, 20 -->
      <g transform="translate(22.502497 689.66438) rotate(-30) scale(0.2 -0.2)">
       <defs>
        <path id="DejaVuSans-4a" d="M 628 4666 
L 1259 4666 
L 1259 325 
Q 1259 -519 939 -900 
Q 619 -1281 -91 -1281 
L -331 -1281 
L -331 -750 
L -134 -750 
Q 284 -750 456 -515 
Q 628 -281 628 325 
L 628 4666 
z
" transform="scale(0.015625)"/>
        <path id="DejaVuSans-61" d="M 2194 1759 
Q 1497 1759 1228 1600 
Q 959 1441 959 1056 
Q 959 750 1161 570 
Q 1363 391 1709 391 
Q 2188 391 2477 730 
Q 2766 1069 2766 1631 
L 2766 1759 
L 2194 1759 
z
M 3341 1997 
L 3341 0 
L 2766 0 
L 2766 531 
Q 2569 213 2275 61 
Q 1981 -91 1556 -91 
Q 1019 -91 701 211 
Q 384 513 384 1019 
Q 384 1609 779 1909 
Q 1175 2209 1959 2209 
L 2766 2209 
L 2766 2266 
Q 2766 2663 2505 2880 
Q 2244 3097 1772 3097 
Q 1472 3097 1187 3025 
Q 903 2953 641 2809 
L 641 3341 
Q 956 3463 1253 3523 
Q 1550 3584 1831 3584 
Q 2591 3584 2966 3190 
Q 3341 2797 3341 1997 
z
" transform="scale(0.015625)"/>
        <path id="DejaVuSans-6e" d="M 3513 2113 
L 3513 0 
L 2938 0 
L 2938 2094 
Q 2938 2591 2744 2837 
Q 2550 3084 2163 3084 
Q 1697 3084 1428 2787 
Q 1159 2491 1159 1978 
L 1159 0 
L 581 0 
L 581 3500 
L 1159 3500 
L 1159 2956 
Q 1366 3272 1645 3428 
Q 1925 3584 2291 3584 
Q 2894 3584 3203 3211 
Q 3513 2838 3513 2113 
z
" transform="scale(0.015625)"/>
        <path id="DejaVuSans-20" transform="scale(0.015625)"/>
        <path id="DejaVuSans-30" d="M 2034 4250 
Q 1547 4250 1301 3770 
Q 1056 3291 1056 2328 
Q 1056 1369 1301 889 
Q 1547 409 2034 409 
Q 2525 409 2770 889 
Q 3016 1369 3016 2328 
Q 3016 3291 2770 3770 
Q 2525 4250 2034 4250 
z
M 2034 4750 
Q 2819 4750 3233 4129 
Q 3647 3509 3647 2328 
Q 3647 1150 3233 529 
Q 2819 -91 2034 -91 
Q 1250 -91 836 529 
Q 422 1150 422 2328 
Q 422 3509 836 4129 
Q 1250 4750 2034 4750 
z
" transform="scale(0.015625)"/>
        <path id="DejaVuSans-31" d="M 794 531 
L 1825 531 
L 1825 4091 
L 703 3866 
L 703 4441 
L 1819 4666 
L 2450 4666 
L 2450 531 
L 3481 531 
L 3481 0 
L 794 0 
L 794 531 
z
" transform="scale(0.015625)"/>
        <path id="DejaVuSans-2c" d="M 750 794 
L 1409 794 
L 1409 256 
L 897 -744 
L 494 -744 
L 750 256 
L 750 794 
z
" transform="scale(0.015625)"/>
        <path id="DejaVuSans-32" d="M 1228 531 
L 3431 531 
L 3431 0 
L 469 0 
L 469 531 
Q 828 903 1448 1529 
Q 2069 2156 2228 2338 
Q 2531 2678 2651 2914 
Q 2772 3150 2772 3378 
Q 2772 3750 2511 3984 
Q 2250 4219 1831 4219 
Q 1534 4219 1204 4116 
Q 875 4013 500 3803 
L 500 4441 
Q 881 4594 1212 4672 
Q 1544 4750 1819 4750 
Q 2544 4750 2975 4387 
Q 3406 4025 3406 3419 
Q 3406 3131 3298 2873 
Q 3191 2616 2906 2266 
Q 2828 2175 2409 1742 
Q 1991 1309 1228 531 
z
" transform="scale(0.015625)"/>
       </defs>
       <use xlink:href="#DejaVuSans-4a"/>
       <use xlink:href="#DejaVuSans-61" x="29.492188"/>
       <use xlink:href="#DejaVuSans-6e" x="90.771484"/>
       <use xlink:href="#DejaVuSans-20" x="154.150391"/>
       <use xlink:href="#DejaVuSans-30" x="185.9375"/>
       <use xlink:href="#DejaVuSans-31" x="249.560547"/>
       <use xlink:href="#DejaVuSans-2c" x="313.183594"/>
       <use xlink:href="#DejaVuSans-20" x="344.970703"/>
       <use xlink:href="#DejaVuSans-32" x="376.757812"/>
       <use xlink:href="#DejaVuSans-30" x="440.380859"/>
      </g>
     </g>
    </g>
    <g id="xtick_2">
     <g id="line2d_3">
      <path d="M 282.994429 622.6035 
L 282.994429 35.0835 
" clip-path="url(#pe5995bad79)" style="fill: none; stroke: #a5a391; stroke-opacity: 0.3; stroke-width: 0.8; stroke-linecap: square"/>
     </g>
     <g id="line2d_4">
      <g>
       <use xlink:href="#mdf0a4c0e39" x="282.994429" y="622.6035" style="stroke: #000000; stroke-width: 0.8"/>
      </g>
     </g>
     <g id="text_2">
      <!-- Jan 01, 21 -->
      <g transform="translate(193.61938 689.66438) rotate(-30) scale(0.2 -0.2)">
       <use xlink:href="#DejaVuSans-4a"/>
       <use xlink:href="#DejaVuSans-61" x="29.492188"/>
       <use xlink:href="#DejaVuSans-6e" x="90.771484"/>
       <use xlink:href="#DejaVuSans-20" x="154.150391"/>
       <use xlink:href="#DejaVuSans-30" x="185.9375"/>
       <use xlink:href="#DejaVuSans-31" x="249.560547"/>
       <use xlink:href="#DejaVuSans-2c" x="313.183594"/>
       <use xlink:href="#DejaVuSans-20" x="344.970703"/>
       <use xlink:href="#DejaVuSans-32" x="376.757812"/>
       <use xlink:href="#DejaVuSans-31" x="440.380859"/>
      </g>
     </g>
    </g>
    <g id="xtick_3">
     <g id="line2d_5">
      <path d="M 453.643779 622.6035 
L 453.643779 35.0835 
" clip-path="url(#pe5995bad79)" style="fill: none; stroke: #a5a391; stroke-opacity: 0.3; stroke-width: 0.8; stroke-linecap: square"/>
     </g>
     <g id="line2d_6">
      <g>
       <use xlink:href="#mdf0a4c0e39" x="453.643779" y="622.6035" style="stroke: #000000; stroke-width: 0.8"/>
      </g>
     </g>
     <g id="text_3">
      <!-- Jan 01, 22 -->
      <g transform="translate(364.268731 689.66438) rotate(-30) scale(0.2 -0.2)">
       <use xlink:href="#DejaVuSans-4a"/>
       <use xlink:href="#DejaVuSans-61" x="29.492188"/>
       <use xlink:href="#DejaVuSans-6e" x="90.771484"/>
       <use xlink:href="#DejaVuSans-20" x="154.150391"/>
       <use xlink:href="#DejaVuSans-30" x="185.9375"/>
       <use xlink:href="#DejaVuSans-31" x="249.560547"/>
       <use xlink:href="#DejaVuSans-2c" x="313.183594"/>
       <use xlink:href="#DejaVuSans-20" x="344.970703"/>
       <use xlink:href="#DejaVuSans-32" x="376.757812"/>
       <use xlink:href="#DejaVuSans-32" x="440.380859"/>
      </g>
     </g>
    </g>
    <g id="xtick_4">
     <g id="line2d_7">
      <path d="M 624.29313 622.6035 
L 624.29313 35.0835 
" clip-path="url(#pe5995bad79)" style="fill: none; stroke: #a5a391; stroke-opacity: 0.3; stroke-width: 0.8; stroke-linecap: square"/>
     </g>
     <g id="line2d_8">
      <g>
       <use xlink:href="#mdf0a4c0e39" x="624.29313" y="622.6035" style="stroke: #000000; stroke-width: 0.8"/>
      </g>
     </g>
     <g id="text_4">
      <!-- Jan 01, 23 -->
      <g transform="translate(534.918082 689.66438) rotate(-30) scale(0.2 -0.2)">
       <defs>
        <path id="DejaVuSans-33" d="M 2597 2516 
Q 3050 2419 3304 2112 
Q 3559 1806 3559 1356 
Q 3559 666 3084 287 
Q 2609 -91 1734 -91 
Q 1441 -91 1130 -33 
Q 819 25 488 141 
L 488 750 
Q 750 597 1062 519 
Q 1375 441 1716 441 
Q 2309 441 2620 675 
Q 2931 909 2931 1356 
Q 2931 1769 2642 2001 
Q 2353 2234 1838 2234 
L 1294 2234 
L 1294 2753 
L 1863 2753 
Q 2328 2753 2575 2939 
Q 2822 3125 2822 3475 
Q 2822 3834 2567 4026 
Q 2313 4219 1838 4219 
Q 1578 4219 1281 4162 
Q 984 4106 628 3988 
L 628 4550 
Q 988 4650 1302 4700 
Q 1616 4750 1894 4750 
Q 2613 4750 3031 4423 
Q 3450 4097 3450 3541 
Q 3450 3153 3228 2886 
Q 3006 2619 2597 2516 
z
" transform="scale(0.015625)"/>
       </defs>
       <use xlink:href="#DejaVuSans-4a"/>
       <use xlink:href="#DejaVuSans-61" x="29.492188"/>
       <use xlink:href="#DejaVuSans-6e" x="90.771484"/>
       <use xlink:href="#DejaVuSans-20" x="154.150391"/>
       <use xlink:href="#DejaVuSans-30" x="185.9375"/>
       <use xlink:href="#DejaVuSans-31" x="249.560547"/>
       <use xlink:href="#DejaVuSans-2c" x="313.183594"/>
       <use xlink:href="#DejaVuSans-20" x="344.970703"/>
       <use xlink:href="#DejaVuSans-32" x="376.757812"/>
       <use xlink:href="#DejaVuSans-33" x="440.380859"/>
      </g>
     </g>
    </g>
    <g id="xtick_5">
     <g id="line2d_9">
      <path d="M 794.942481 622.6035 
L 794.942481 35.0835 
" clip-path="url(#pe5995bad79)" style="fill: none; stroke: #a5a391; stroke-opacity: 0.3; stroke-width: 0.8; stroke-linecap: square"/>
     </g>
     <g id="line2d_10">
      <g>
       <use xlink:href="#mdf0a4c0e39" x="794.942481" y="622.6035" style="stroke: #000000; stroke-width: 0.8"/>
      </g>
     </g>
     <g id="text_5">
      <!-- Jan 01, 24 -->
      <g transform="translate(705.567432 689.66438) rotate(-30) scale(0.2 -0.2)">
       <defs>
        <path id="DejaVuSans-34" d="M 2419 4116 
L 825 1625 
L 2419 1625 
L 2419 4116 
z
M 2253 4666 
L 3047 4666 
L 3047 1625 
L 3713 1625 
L 3713 1100 
L 3047 1100 
L 3047 0 
L 2419 0 
L 2419 1100 
L 313 1100 
L 313 1709 
L 2253 4666 
z
" transform="scale(0.015625)"/>
       </defs>
       <use xlink:href="#DejaVuSans-4a"/>
       <use xlink:href="#DejaVuSans-61" x="29.492188"/>
       <use xlink:href="#DejaVuSans-6e" x="90.771484"/>
       <use xlink:href="#DejaVuSans-20" x="154.150391"/>
       <use xlink:href="#DejaVuSans-30" x="185.9375"/>
       <use xlink:href="#DejaVuSans-31" x="249.560547"/>
       <use xlink:href="#DejaVuSans-2c" x="313.183594"/>
       <use xlink:href="#DejaVuSans-20" x="344.970703"/>
       <use xlink:href="#DejaVuSans-32" x="376.757812"/>
       <use xlink:href="#DejaVuSans-34" x="440.380859"/>
      </g>
     </g>
    </g>
   </g>
   <g id="matplotlib.axis_2">
    <g id="ytick_1">
     <g id="line2d_11">
      <path d="M 68.023 567.214311 
L 960.823 567.214311 
" clip-path="url(#pe5995bad79)" style="fill: none; stroke: #a5a391; stroke-opacity: 0.3; stroke-width: 0.8; stroke-linecap: square"/>
     </g>
     <g id="line2d_12">
      <defs>
       <path id="mdb20393ebd" d="M 0 0 
L 3.5 0 
" style="stroke: #000000; stroke-width: 0.8"/>
      </defs>
      <g>
       <use xlink:href="#mdb20393ebd" x="68.023" y="567.214311" style="stroke: #000000; stroke-width: 0.8"/>
      </g>
     </g>
     <g id="text_6">
      <!-- 68 -->
      <g transform="translate(39.073 574.812749) scale(0.2 -0.2)">
       <defs>
        <path id="DejaVuSans-36" d="M 2113 2584 
Q 1688 2584 1439 2293 
Q 1191 2003 1191 1497 
Q 1191 994 1439 701 
Q 1688 409 2113 409 
Q 2538 409 2786 701 
Q 3034 994 3034 1497 
Q 3034 2003 2786 2293 
Q 2538 2584 2113 2584 
z
M 3366 4563 
L 3366 3988 
Q 3128 4100 2886 4159 
Q 2644 4219 2406 4219 
Q 1781 4219 1451 3797 
Q 1122 3375 1075 2522 
Q 1259 2794 1537 2939 
Q 1816 3084 2150 3084 
Q 2853 3084 3261 2657 
Q 3669 2231 3669 1497 
Q 3669 778 3244 343 
Q 2819 -91 2113 -91 
Q 1303 -91 875 529 
Q 447 1150 447 2328 
Q 447 3434 972 4092 
Q 1497 4750 2381 4750 
Q 2619 4750 2861 4703 
Q 3103 4656 3366 4563 
z
" transform="scale(0.015625)"/>
        <path id="DejaVuSans-38" d="M 2034 2216 
Q 1584 2216 1326 1975 
Q 1069 1734 1069 1313 
Q 1069 891 1326 650 
Q 1584 409 2034 409 
Q 2484 409 2743 651 
Q 3003 894 3003 1313 
Q 3003 1734 2745 1975 
Q 2488 2216 2034 2216 
z
M 1403 2484 
Q 997 2584 770 2862 
Q 544 3141 544 3541 
Q 544 4100 942 4425 
Q 1341 4750 2034 4750 
Q 2731 4750 3128 4425 
Q 3525 4100 3525 3541 
Q 3525 3141 3298 2862 
Q 3072 2584 2669 2484 
Q 3125 2378 3379 2068 
Q 3634 1759 3634 1313 
Q 3634 634 3220 271 
Q 2806 -91 2034 -91 
Q 1263 -91 848 271 
Q 434 634 434 1313 
Q 434 1759 690 2068 
Q 947 2378 1403 2484 
z
M 1172 3481 
Q 1172 3119 1398 2916 
Q 1625 2713 2034 2713 
Q 2441 2713 2670 2916 
Q 2900 3119 2900 3481 
Q 2900 3844 2670 4047 
Q 2441 4250 2034 4250 
Q 1625 4250 1398 4047 
Q 1172 3844 1172 3481 
z
" transform="scale(0.015625)"/>
       </defs>
       <use xlink:href="#DejaVuSans-36"/>
       <use xlink:href="#DejaVuSans-38" x="63.623047"/>
      </g>
     </g>
    </g>
    <g id="ytick_2">
     <g id="line2d_13">
      <path d="M 68.023 481.929479 
L 960.823 481.929479 
" clip-path="url(#pe5995bad79)" style="fill: none; stroke: #a5a391; stroke-opacity: 0.3; stroke-width: 0.8; stroke-linecap: square"/>
     </g>
     <g id="line2d_14">
      <g>
       <use xlink:href="#mdb20393ebd" x="68.023" y="481.929479" style="stroke: #000000; stroke-width: 0.8"/>
      </g>
     </g>
     <g id="text_7">
      <!-- 70 -->
      <g transform="translate(39.073 489.527916) scale(0.2 -0.2)">
       <defs>
        <path id="DejaVuSans-37" d="M 525 4666 
L 3525 4666 
L 3525 4397 
L 1831 0 
L 1172 0 
L 2766 4134 
L 525 4134 
L 525 4666 
z
" transform="scale(0.015625)"/>
       </defs>
       <use xlink:href="#DejaVuSans-37"/>
       <use xlink:href="#DejaVuSans-30" x="63.623047"/>
      </g>
     </g>
    </g>
    <g id="ytick_3">
     <g id="line2d_15">
      <path d="M 68.023 396.644646 
L 960.823 396.644646 
" clip-path="url(#pe5995bad79)" style="fill: none; stroke: #a5a391; stroke-opacity: 0.3; stroke-width: 0.8; stroke-linecap: square"/>
     </g>
     <g id="line2d_16">
      <g>
       <use xlink:href="#mdb20393ebd" x="68.023" y="396.644646" style="stroke: #000000; stroke-width: 0.8"/>
      </g>
     </g>
     <g id="text_8">
      <!-- 72 -->
      <g transform="translate(39.073 404.243083) scale(0.2 -0.2)">
       <use xlink:href="#DejaVuSans-37"/>
       <use xlink:href="#DejaVuSans-32" x="63.623047"/>
      </g>
     </g>
    </g>
    <g id="ytick_4">
     <g id="line2d_17">
      <path d="M 68.023 311.359813 
L 960.823 311.359813 
" clip-path="url(#pe5995bad79)" style="fill: none; stroke: #a5a391; stroke-opacity: 0.3; stroke-width: 0.8; stroke-linecap: square"/>
     </g>
     <g id="line2d_18">
      <g>
       <use xlink:href="#mdb20393ebd" x="68.023" y="311.359813" style="stroke: #000000; stroke-width: 0.8"/>
      </g>
     </g>
     <g id="text_9">
      <!-- 74 -->
      <g transform="translate(39.073 318.95825) scale(0.2 -0.2)">
       <use xlink:href="#DejaVuSans-37"/>
       <use xlink:href="#DejaVuSans-34" x="63.623047"/>
      </g>
     </g>
    </g>
    <g id="ytick_5">
     <g id="line2d_19">
      <path d="M 68.023 226.07498 
L 960.823 226.07498 
" clip-path="url(#pe5995bad79)" style="fill: none; stroke: #a5a391; stroke-opacity: 0.3; stroke-width: 0.8; stroke-linecap: square"/>
     </g>
     <g id="line2d_20">
      <g>
       <use xlink:href="#mdb20393ebd" x="68.023" y="226.07498" style="stroke: #000000; stroke-width: 0.8"/>
      </g>
     </g>
     <g id="text_10">
      <!-- 76 -->
      <g transform="translate(39.073 233.673417) scale(0.2 -0.2)">
       <use xlink:href="#DejaVuSans-37"/>
       <use xlink:href="#DejaVuSans-36" x="63.623047"/>
      </g>
     </g>
    </g>
    <g id="ytick_6">
     <g id="line2d_21">
      <path d="M 68.023 140.790147 
L 960.823 140.790147 
" clip-path="url(#pe5995bad79)" style="fill: none; stroke: #a5a391; stroke-opacity: 0.3; stroke-width: 0.8; stroke-linecap: square"/>
     </g>
     <g id="line2d_22">
      <g>
       <use xlink:href="#mdb20393ebd" x="68.023" y="140.790147" style="stroke: #000000; stroke-width: 0.8"/>
      </g>
     </g>
     <g id="text_11">
      <!-- 78 -->
      <g transform="translate(39.073 148.388584) scale(0.2 -0.2)">
       <use xlink:href="#DejaVuSans-37"/>
       <use xlink:href="#DejaVuSans-38" x="63.623047"/>
      </g>
     </g>
    </g>
    <g id="ytick_7">
     <g id="line2d_23">
      <path d="M 68.023 55.505314 
L 960.823 55.505314 
" clip-path="url(#pe5995bad79)" style="fill: none; stroke: #a5a391; stroke-opacity: 0.3; stroke-width: 0.8; stroke-linecap: square"/>
     </g>
     <g id="line2d_24">
      <g>
       <use xlink:href="#mdb20393ebd" x="68.023" y="55.505314" style="stroke: #000000; stroke-width: 0.8"/>
      </g>
     </g>
     <g id="text_12">
      <!-- 80 -->
      <g transform="translate(39.073 63.103751) scale(0.2 -0.2)">
       <use xlink:href="#DejaVuSans-38"/>
       <use xlink:href="#DejaVuSans-30" x="63.623047"/>
      </g>
     </g>
    </g>
    <g id="text_13">
     <!-- Muscle Mass Percentage [%] -->
     <g transform="translate(29.0835 534.56775) rotate(-90) scale(0.288 -0.288)">
      <defs>
       <path id="DejaVuSans-4d" d="M 628 4666 
L 1569 4666 
L 2759 1491 
L 3956 4666 
L 4897 4666 
L 4897 0 
L 4281 0 
L 4281 4097 
L 3078 897 
L 2444 897 
L 1241 4097 
L 1241 0 
L 628 0 
L 628 4666 
z
" transform="scale(0.015625)"/>
       <path id="DejaVuSans-75" d="M 544 1381 
L 544 3500 
L 1119 3500 
L 1119 1403 
Q 1119 906 1312 657 
Q 1506 409 1894 409 
Q 2359 409 2629 706 
Q 2900 1003 2900 1516 
L 2900 3500 
L 3475 3500 
L 3475 0 
L 2900 0 
L 2900 538 
Q 2691 219 2414 64 
Q 2138 -91 1772 -91 
Q 1169 -91 856 284 
Q 544 659 544 1381 
z
M 1991 3584 
L 1991 3584 
z
" transform="scale(0.015625)"/>
       <path id="DejaVuSans-73" d="M 2834 3397 
L 2834 2853 
Q 2591 2978 2328 3040 
Q 2066 3103 1784 3103 
Q 1356 3103 1142 2972 
Q 928 2841 928 2578 
Q 928 2378 1081 2264 
Q 1234 2150 1697 2047 
L 1894 2003 
Q 2506 1872 2764 1633 
Q 3022 1394 3022 966 
Q 3022 478 2636 193 
Q 2250 -91 1575 -91 
Q 1294 -91 989 -36 
Q 684 19 347 128 
L 347 722 
Q 666 556 975 473 
Q 1284 391 1588 391 
Q 1994 391 2212 530 
Q 2431 669 2431 922 
Q 2431 1156 2273 1281 
Q 2116 1406 1581 1522 
L 1381 1569 
Q 847 1681 609 1914 
Q 372 2147 372 2553 
Q 372 3047 722 3315 
Q 1072 3584 1716 3584 
Q 2034 3584 2315 3537 
Q 2597 3491 2834 3397 
z
" transform="scale(0.015625)"/>
       <path id="DejaVuSans-63" d="M 3122 3366 
L 3122 2828 
Q 2878 2963 2633 3030 
Q 2388 3097 2138 3097 
Q 1578 3097 1268 2742 
Q 959 2388 959 1747 
Q 959 1106 1268 751 
Q 1578 397 2138 397 
Q 2388 397 2633 464 
Q 2878 531 3122 666 
L 3122 134 
Q 2881 22 2623 -34 
Q 2366 -91 2075 -91 
Q 1284 -91 818 406 
Q 353 903 353 1747 
Q 353 2603 823 3093 
Q 1294 3584 2113 3584 
Q 2378 3584 2631 3529 
Q 2884 3475 3122 3366 
z
" transform="scale(0.015625)"/>
       <path id="DejaVuSans-6c" d="M 603 4863 
L 1178 4863 
L 1178 0 
L 603 0 
L 603 4863 
z
" transform="scale(0.015625)"/>
       <path id="DejaVuSans-65" d="M 3597 1894 
L 3597 1613 
L 953 1613 
Q 991 1019 1311 708 
Q 1631 397 2203 397 
Q 2534 397 2845 478 
Q 3156 559 3463 722 
L 3463 178 
Q 3153 47 2828 -22 
Q 2503 -91 2169 -91 
Q 1331 -91 842 396 
Q 353 884 353 1716 
Q 353 2575 817 3079 
Q 1281 3584 2069 3584 
Q 2775 3584 3186 3129 
Q 3597 2675 3597 1894 
z
M 3022 2063 
Q 3016 2534 2758 2815 
Q 2500 3097 2075 3097 
Q 1594 3097 1305 2825 
Q 1016 2553 972 2059 
L 3022 2063 
z
" transform="scale(0.015625)"/>
       <path id="DejaVuSans-50" d="M 1259 4147 
L 1259 2394 
L 2053 2394 
Q 2494 2394 2734 2622 
Q 2975 2850 2975 3272 
Q 2975 3691 2734 3919 
Q 2494 4147 2053 4147 
L 1259 4147 
z
M 628 4666 
L 2053 4666 
Q 2838 4666 3239 4311 
Q 3641 3956 3641 3272 
Q 3641 2581 3239 2228 
Q 2838 1875 2053 1875 
L 1259 1875 
L 1259 0 
L 628 0 
L 628 4666 
z
" transform="scale(0.015625)"/>
       <path id="DejaVuSans-72" d="M 2631 2963 
Q 2534 3019 2420 3045 
Q 2306 3072 2169 3072 
Q 1681 3072 1420 2755 
Q 1159 2438 1159 1844 
L 1159 0 
L 581 0 
L 581 3500 
L 1159 3500 
L 1159 2956 
Q 1341 3275 1631 3429 
Q 1922 3584 2338 3584 
Q 2397 3584 2469 3576 
Q 2541 3569 2628 3553 
L 2631 2963 
z
" transform="scale(0.015625)"/>
       <path id="DejaVuSans-74" d="M 1172 4494 
L 1172 3500 
L 2356 3500 
L 2356 3053 
L 1172 3053 
L 1172 1153 
Q 1172 725 1289 603 
Q 1406 481 1766 481 
L 2356 481 
L 2356 0 
L 1766 0 
Q 1100 0 847 248 
Q 594 497 594 1153 
L 594 3053 
L 172 3053 
L 172 3500 
L 594 3500 
L 594 4494 
L 1172 4494 
z
" transform="scale(0.015625)"/>
       <path id="DejaVuSans-67" d="M 2906 1791 
Q 2906 2416 2648 2759 
Q 2391 3103 1925 3103 
Q 1463 3103 1205 2759 
Q 947 2416 947 1791 
Q 947 1169 1205 825 
Q 1463 481 1925 481 
Q 2391 481 2648 825 
Q 2906 1169 2906 1791 
z
M 3481 434 
Q 3481 -459 3084 -895 
Q 2688 -1331 1869 -1331 
Q 1566 -1331 1297 -1286 
Q 1028 -1241 775 -1147 
L 775 -588 
Q 1028 -725 1275 -790 
Q 1522 -856 1778 -856 
Q 2344 -856 2625 -561 
Q 2906 -266 2906 331 
L 2906 616 
Q 2728 306 2450 153 
Q 2172 0 1784 0 
Q 1141 0 747 490 
Q 353 981 353 1791 
Q 353 2603 747 3093 
Q 1141 3584 1784 3584 
Q 2172 3584 2450 3431 
Q 2728 3278 2906 2969 
L 2906 3500 
L 3481 3500 
L 3481 434 
z
" transform="scale(0.015625)"/>
       <path id="DejaVuSans-5b" d="M 550 4863 
L 1875 4863 
L 1875 4416 
L 1125 4416 
L 1125 -397 
L 1875 -397 
L 1875 -844 
L 550 -844 
L 550 4863 
z
" transform="scale(0.015625)"/>
       <path id="DejaVuSans-25" d="M 4653 2053 
Q 4381 2053 4226 1822 
Q 4072 1591 4072 1178 
Q 4072 772 4226 539 
Q 4381 306 4653 306 
Q 4919 306 5073 539 
Q 5228 772 5228 1178 
Q 5228 1588 5073 1820 
Q 4919 2053 4653 2053 
z
M 4653 2450 
Q 5147 2450 5437 2106 
Q 5728 1763 5728 1178 
Q 5728 594 5436 251 
Q 5144 -91 4653 -91 
Q 4153 -91 3862 251 
Q 3572 594 3572 1178 
Q 3572 1766 3864 2108 
Q 4156 2450 4653 2450 
z
M 1428 4353 
Q 1159 4353 1004 4120 
Q 850 3888 850 3481 
Q 850 3069 1003 2837 
Q 1156 2606 1428 2606 
Q 1700 2606 1854 2837 
Q 2009 3069 2009 3481 
Q 2009 3884 1853 4118 
Q 1697 4353 1428 4353 
z
M 4250 4750 
L 4750 4750 
L 1831 -91 
L 1331 -91 
L 4250 4750 
z
M 1428 4750 
Q 1922 4750 2215 4408 
Q 2509 4066 2509 3481 
Q 2509 2891 2217 2550 
Q 1925 2209 1428 2209 
Q 931 2209 642 2551 
Q 353 2894 353 3481 
Q 353 4063 643 4406 
Q 934 4750 1428 4750 
z
" transform="scale(0.015625)"/>
       <path id="DejaVuSans-5d" d="M 1947 4863 
L 1947 -844 
L 622 -844 
L 622 -397 
L 1369 -397 
L 1369 4416 
L 622 4416 
L 622 4863 
L 1947 4863 
z
" transform="scale(0.015625)"/>
      </defs>
      <use xlink:href="#DejaVuSans-4d"/>
      <use xlink:href="#DejaVuSans-75" x="86.279297"/>
      <use xlink:href="#DejaVuSans-73" x="149.658203"/>
      <use xlink:href="#DejaVuSans-63" x="201.757812"/>
      <use xlink:href="#DejaVuSans-6c" x="256.738281"/>
      <use xlink:href="#DejaVuSans-65" x="284.521484"/>
      <use xlink:href="#DejaVuSans-20" x="346.044922"/>
      <use xlink:href="#DejaVuSans-4d" x="377.832031"/>
      <use xlink:href="#DejaVuSans-61" x="464.111328"/>
      <use xlink:href="#DejaVuSans-73" x="525.390625"/>
      <use xlink:href="#DejaVuSans-73" x="577.490234"/>
      <use xlink:href="#DejaVuSans-20" x="629.589844"/>
      <use xlink:href="#DejaVuSans-50" x="661.376953"/>
      <use xlink:href="#DejaVuSans-65" x="718.054688"/>
      <use xlink:href="#DejaVuSans-72" x="779.578125"/>
      <use xlink:href="#DejaVuSans-63" x="818.441406"/>
      <use xlink:href="#DejaVuSans-65" x="873.421875"/>
      <use xlink:href="#DejaVuSans-6e" x="934.945312"/>
      <use xlink:href="#DejaVuSans-74" x="998.324219"/>
      <use xlink:href="#DejaVuSans-61" x="1037.533203"/>
      <use xlink:href="#DejaVuSans-67" x="1098.8125"/>
      <use xlink:href="#DejaVuSans-65" x="1162.289062"/>
      <use xlink:href="#DejaVuSans-20" x="1223.8125"/>
      <use xlink:href="#DejaVuSans-5b" x="1255.599609"/>
      <use xlink:href="#DejaVuSans-25" x="1294.613281"/>
      <use xlink:href="#DejaVuSans-5d" x="1389.632812"/>
     </g>
    </g>
   </g>
   <g id="line2d_25">
    <path d="M 108.604818 300.461131 
L 115.150273 475.502447 
L 118.423 271.169644 
L 121.695727 294.446045 
L 124.968455 241.276593 
L 128.241182 328.020088 
L 131.513909 257.647053 
L 134.786636 246.676331 
L 138.059364 248.304741 
L 141.332091 252.817227 
L 144.604818 298.515954 
L 147.877545 319.182076 
L 151.150273 244.957209 
L 154.423 233.765044 
L 157.695727 282.194657 
L 160.968455 240.925771 
L 164.241182 203.473377 
L 167.513909 181.109657 
L 170.786636 171.258725 
L 174.059364 188.420238 
L 177.332091 184.085247 
L 180.604818 217.253088 
L 183.877545 237.500122 
L 187.150273 221.546421 
L 190.423 231.81676 
L 193.695727 219.685842 
L 196.968455 216.858912 
L 200.241182 200.105483 
L 203.513909 243.954359 
L 206.786636 259.568799 
L 210.059364 249.517354 
L 213.332091 234.638177 
L 216.604818 221.511606 
L 219.877545 246.745847 
L 223.150273 219.275959 
L 226.423 267.447615 
L 229.695727 293.422985 
L 232.968455 263.129874 
L 236.241182 264.095653 
L 239.513909 229.561538 
L 242.786636 268.519858 
L 246.059364 284.512864 
L 249.332091 309.345754 
L 252.604818 272.167511 
L 255.877545 321.151976 
L 259.150273 346.55687 
L 262.423 259.90698 
L 265.695727 288.473782 
L 268.968455 292.436834 
L 272.241182 357.128485 
L 275.513909 320.144421 
L 278.786636 316.143014 
L 282.059364 326.673845 
L 285.332091 302.145934 
L 288.604818 273.847827 
L 291.877545 298.186881 
L 295.150273 296.736924 
L 298.423 275.886643 
L 301.695727 308.227464 
L 304.968455 319.957358 
L 308.241182 296.73863 
L 311.513909 297.991366 
L 314.786636 391.710614 
L 318.059364 370.938384 
L 321.332091 282.028026 
L 324.604818 323.729637 
L 327.877545 303.501035 
L 331.150273 344.173623 
L 334.423 364.641813 
L 337.695727 329.356195 
L 340.968455 336.730407 
L 344.241182 305.087112 
L 347.513909 293.001232 
L 350.786636 303.50658 
L 354.059364 307.503229 
L 357.332091 302.690907 
L 360.604818 255.590683 
L 363.877545 290.724017 
L 367.150273 219.976064 
L 370.423 196.485062 
L 376.968455 269.970111 
L 380.241182 265.588204 
L 383.513909 233.414014 
L 386.786636 282.368927 
L 403.150273 272.457959 
L 406.423 272.469674 
L 409.695727 340.023607 
L 412.968455 280.944205 
L 416.241182 334.449824 
L 429.332091 312.873745 
L 432.604818 330.390313 
L 435.877545 279.991831 
L 458.786636 338.898965 
L 462.059364 368.232954 
L 465.332091 344.847722 
L 468.604818 325.073641 
L 471.877545 262.789739 
L 475.150273 277.697448 
L 478.423 342.311516 
L 481.695727 321.120548 
L 484.968455 349.150697 
L 488.241182 292.008198 
L 491.513909 325.920638 
L 494.786636 333.097627 
L 507.877545 370.956094 
L 511.150273 376.638346 
L 514.423 369.830428 
L 517.695727 322.657948 
L 520.968455 426.046265 
L 537.332091 394.649679 
L 573.332091 334.601059 
L 589.695727 355.638389 
L 592.968455 340.644364 
L 599.513909 404.351717 
L 609.332091 341.665107 
L 651.877545 414.089271 
L 759.877545 141.644513 
L 763.150273 132.213161 
L 766.423 92.189679 
L 769.695727 111.741319 
L 772.968455 117.468551 
L 779.513909 207.621536 
L 782.786636 186.511934 
L 920.241182 104.431371 
" clip-path="url(#pe5995bad79)" style="fill: none; stroke: #a52a2a; stroke-width: 1.5; stroke-linecap: square"/>
    <defs>
     <path id="ma0aba405dd" d="M 0 -3 
L -0.673542 -0.927051 
L -2.85317 -0.927051 
L -1.089814 0.354102 
L -1.763356 2.427051 
L -0 1.145898 
L 1.763356 2.427051 
L 1.089814 0.354102 
L 2.85317 -0.927051 
L 0.673542 -0.927051 
z
" style="stroke: #a52a2a; stroke-linejoin: bevel"/>
    </defs>
    <g clip-path="url(#pe5995bad79)">
     <use xlink:href="#ma0aba405dd" x="108.604818" y="300.461131" style="fill: #a52a2a; stroke: #a52a2a; stroke-linejoin: bevel"/>
     <use xlink:href="#ma0aba405dd" x="115.150273" y="475.502447" style="fill: #a52a2a; stroke: #a52a2a; stroke-linejoin: bevel"/>
     <use xlink:href="#ma0aba405dd" x="118.423" y="271.169644" style="fill: #a52a2a; stroke: #a52a2a; stroke-linejoin: bevel"/>
     <use xlink:href="#ma0aba405dd" x="121.695727" y="294.446045" style="fill: #a52a2a; stroke: #a52a2a; stroke-linejoin: bevel"/>
     <use xlink:href="#ma0aba405dd" x="124.968455" y="241.276593" style="fill: #a52a2a; stroke: #a52a2a; stroke-linejoin: bevel"/>
     <use xlink:href="#ma0aba405dd" x="128.241182" y="328.020088" style="fill: #a52a2a; stroke: #a52a2a; stroke-linejoin: bevel"/>
     <use xlink:href="#ma0aba405dd" x="131.513909" y="257.647053" style="fill: #a52a2a; stroke: #a52a2a; stroke-linejoin: bevel"/>
     <use xlink:href="#ma0aba405dd" x="134.786636" y="246.676331" style="fill: #a52a2a; stroke: #a52a2a; stroke-linejoin: bevel"/>
     <use xlink:href="#ma0aba405dd" x="138.059364" y="248.304741" style="fill: #a52a2a; stroke: #a52a2a; stroke-linejoin: bevel"/>
     <use xlink:href="#ma0aba405dd" x="141.332091" y="252.817227" style="fill: #a52a2a; stroke: #a52a2a; stroke-linejoin: bevel"/>
     <use xlink:href="#ma0aba405dd" x="144.604818" y="298.515954" style="fill: #a52a2a; stroke: #a52a2a; stroke-linejoin: bevel"/>
     <use xlink:href="#ma0aba405dd" x="147.877545" y="319.182076" style="fill: #a52a2a; stroke: #a52a2a; stroke-linejoin: bevel"/>
     <use xlink:href="#ma0aba405dd" x="151.150273" y="244.957209" style="fill: #a52a2a; stroke: #a52a2a; stroke-linejoin: bevel"/>
     <use xlink:href="#ma0aba405dd" x="154.423" y="233.765044" style="fill: #a52a2a; stroke: #a52a2a; stroke-linejoin: bevel"/>
     <use xlink:href="#ma0aba405dd" x="157.695727" y="282.194657" style="fill: #a52a2a; stroke: #a52a2a; stroke-linejoin: bevel"/>
     <use xlink:href="#ma0aba405dd" x="160.968455" y="240.925771" style="fill: #a52a2a; stroke: #a52a2a; stroke-linejoin: bevel"/>
     <use xlink:href="#ma0aba405dd" x="164.241182" y="203.473377" style="fill: #a52a2a; stroke: #a52a2a; stroke-linejoin: bevel"/>
     <use xlink:href="#ma0aba405dd" x="167.513909" y="181.109657" style="fill: #a52a2a; stroke: #a52a2a; stroke-linejoin: bevel"/>
     <use xlink:href="#ma0aba405dd" x="170.786636" y="171.258725" style="fill: #a52a2a; stroke: #a52a2a; stroke-linejoin: bevel"/>
     <use xlink:href="#ma0aba405dd" x="174.059364" y="188.420238" style="fill: #a52a2a; stroke: #a52a2a; stroke-linejoin: bevel"/>
     <use xlink:href="#ma0aba405dd" x="177.332091" y="184.085247" style="fill: #a52a2a; stroke: #a52a2a; stroke-linejoin: bevel"/>
     <use xlink:href="#ma0aba405dd" x="180.604818" y="217.253088" style="fill: #a52a2a; stroke: #a52a2a; stroke-linejoin: bevel"/>
     <use xlink:href="#ma0aba405dd" x="183.877545" y="237.500122" style="fill: #a52a2a; stroke: #a52a2a; stroke-linejoin: bevel"/>
     <use xlink:href="#ma0aba405dd" x="187.150273" y="221.546421" style="fill: #a52a2a; stroke: #a52a2a; stroke-linejoin: bevel"/>
     <use xlink:href="#ma0aba405dd" x="190.423" y="231.81676" style="fill: #a52a2a; stroke: #a52a2a; stroke-linejoin: bevel"/>
     <use xlink:href="#ma0aba405dd" x="193.695727" y="219.685842" style="fill: #a52a2a; stroke: #a52a2a; stroke-linejoin: bevel"/>
     <use xlink:href="#ma0aba405dd" x="196.968455" y="216.858912" style="fill: #a52a2a; stroke: #a52a2a; stroke-linejoin: bevel"/>
     <use xlink:href="#ma0aba405dd" x="200.241182" y="200.105483" style="fill: #a52a2a; stroke: #a52a2a; stroke-linejoin: bevel"/>
     <use xlink:href="#ma0aba405dd" x="203.513909" y="243.954359" style="fill: #a52a2a; stroke: #a52a2a; stroke-linejoin: bevel"/>
     <use xlink:href="#ma0aba405dd" x="206.786636" y="259.568799" style="fill: #a52a2a; stroke: #a52a2a; stroke-linejoin: bevel"/>
     <use xlink:href="#ma0aba405dd" x="210.059364" y="249.517354" style="fill: #a52a2a; stroke: #a52a2a; stroke-linejoin: bevel"/>
     <use xlink:href="#ma0aba405dd" x="213.332091" y="234.638177" style="fill: #a52a2a; stroke: #a52a2a; stroke-linejoin: bevel"/>
     <use xlink:href="#ma0aba405dd" x="216.604818" y="221.511606" style="fill: #a52a2a; stroke: #a52a2a; stroke-linejoin: bevel"/>
     <use xlink:href="#ma0aba405dd" x="219.877545" y="246.745847" style="fill: #a52a2a; stroke: #a52a2a; stroke-linejoin: bevel"/>
     <use xlink:href="#ma0aba405dd" x="223.150273" y="219.275959" style="fill: #a52a2a; stroke: #a52a2a; stroke-linejoin: bevel"/>
     <use xlink:href="#ma0aba405dd" x="226.423" y="267.447615" style="fill: #a52a2a; stroke: #a52a2a; stroke-linejoin: bevel"/>
     <use xlink:href="#ma0aba405dd" x="229.695727" y="293.422985" style="fill: #a52a2a; stroke: #a52a2a; stroke-linejoin: bevel"/>
     <use xlink:href="#ma0aba405dd" x="232.968455" y="263.129874" style="fill: #a52a2a; stroke: #a52a2a; stroke-linejoin: bevel"/>
     <use xlink:href="#ma0aba405dd" x="236.241182" y="264.095653" style="fill: #a52a2a; stroke: #a52a2a; stroke-linejoin: bevel"/>
     <use xlink:href="#ma0aba405dd" x="239.513909" y="229.561538" style="fill: #a52a2a; stroke: #a52a2a; stroke-linejoin: bevel"/>
     <use xlink:href="#ma0aba405dd" x="242.786636" y="268.519858" style="fill: #a52a2a; stroke: #a52a2a; stroke-linejoin: bevel"/>
     <use xlink:href="#ma0aba405dd" x="246.059364" y="284.512864" style="fill: #a52a2a; stroke: #a52a2a; stroke-linejoin: bevel"/>
     <use xlink:href="#ma0aba405dd" x="249.332091" y="309.345754" style="fill: #a52a2a; stroke: #a52a2a; stroke-linejoin: bevel"/>
     <use xlink:href="#ma0aba405dd" x="252.604818" y="272.167511" style="fill: #a52a2a; stroke: #a52a2a; stroke-linejoin: bevel"/>
     <use xlink:href="#ma0aba405dd" x="255.877545" y="321.151976" style="fill: #a52a2a; stroke: #a52a2a; stroke-linejoin: bevel"/>
     <use xlink:href="#ma0aba405dd" x="259.150273" y="346.55687" style="fill: #a52a2a; stroke: #a52a2a; stroke-linejoin: bevel"/>
     <use xlink:href="#ma0aba405dd" x="262.423" y="259.90698" style="fill: #a52a2a; stroke: #a52a2a; stroke-linejoin: bevel"/>
     <use xlink:href="#ma0aba405dd" x="265.695727" y="288.473782" style="fill: #a52a2a; stroke: #a52a2a; stroke-linejoin: bevel"/>
     <use xlink:href="#ma0aba405dd" x="268.968455" y="292.436834" style="fill: #a52a2a; stroke: #a52a2a; stroke-linejoin: bevel"/>
     <use xlink:href="#ma0aba405dd" x="272.241182" y="357.128485" style="fill: #a52a2a; stroke: #a52a2a; stroke-linejoin: bevel"/>
     <use xlink:href="#ma0aba405dd" x="275.513909" y="320.144421" style="fill: #a52a2a; stroke: #a52a2a; stroke-linejoin: bevel"/>
     <use xlink:href="#ma0aba405dd" x="278.786636" y="316.143014" style="fill: #a52a2a; stroke: #a52a2a; stroke-linejoin: bevel"/>
     <use xlink:href="#ma0aba405dd" x="282.059364" y="326.673845" style="fill: #a52a2a; stroke: #a52a2a; stroke-linejoin: bevel"/>
     <use xlink:href="#ma0aba405dd" x="285.332091" y="302.145934" style="fill: #a52a2a; stroke: #a52a2a; stroke-linejoin: bevel"/>
     <use xlink:href="#ma0aba405dd" x="288.604818" y="273.847827" style="fill: #a52a2a; stroke: #a52a2a; stroke-linejoin: bevel"/>
     <use xlink:href="#ma0aba405dd" x="291.877545" y="298.186881" style="fill: #a52a2a; stroke: #a52a2a; stroke-linejoin: bevel"/>
     <use xlink:href="#ma0aba405dd" x="295.150273" y="296.736924" style="fill: #a52a2a; stroke: #a52a2a; stroke-linejoin: bevel"/>
     <use xlink:href="#ma0aba405dd" x="298.423" y="275.886643" style="fill: #a52a2a; stroke: #a52a2a; stroke-linejoin: bevel"/>
     <use xlink:href="#ma0aba405dd" x="301.695727" y="308.227464" style="fill: #a52a2a; stroke: #a52a2a; stroke-linejoin: bevel"/>
     <use xlink:href="#ma0aba405dd" x="304.968455" y="319.957358" style="fill: #a52a2a; stroke: #a52a2a; stroke-linejoin: bevel"/>
     <use xlink:href="#ma0aba405dd" x="308.241182" y="296.73863" style="fill: #a52a2a; stroke: #a52a2a; stroke-linejoin: bevel"/>
     <use xlink:href="#ma0aba405dd" x="311.513909" y="297.991366" style="fill: #a52a2a; stroke: #a52a2a; stroke-linejoin: bevel"/>
     <use xlink:href="#ma0aba405dd" x="314.786636" y="391.710614" style="fill: #a52a2a; stroke: #a52a2a; stroke-linejoin: bevel"/>
     <use xlink:href="#ma0aba405dd" x="318.059364" y="370.938384" style="fill: #a52a2a; stroke: #a52a2a; stroke-linejoin: bevel"/>
     <use xlink:href="#ma0aba405dd" x="321.332091" y="282.028026" style="fill: #a52a2a; stroke: #a52a2a; stroke-linejoin: bevel"/>
     <use xlink:href="#ma0aba405dd" x="324.604818" y="323.729637" style="fill: #a52a2a; stroke: #a52a2a; stroke-linejoin: bevel"/>
     <use xlink:href="#ma0aba405dd" x="327.877545" y="303.501035" style="fill: #a52a2a; stroke: #a52a2a; stroke-linejoin: bevel"/>
     <use xlink:href="#ma0aba405dd" x="331.150273" y="344.173623" style="fill: #a52a2a; stroke: #a52a2a; stroke-linejoin: bevel"/>
     <use xlink:href="#ma0aba405dd" x="334.423" y="364.641813" style="fill: #a52a2a; stroke: #a52a2a; stroke-linejoin: bevel"/>
     <use xlink:href="#ma0aba405dd" x="337.695727" y="329.356195" style="fill: #a52a2a; stroke: #a52a2a; stroke-linejoin: bevel"/>
     <use xlink:href="#ma0aba405dd" x="340.968455" y="336.730407" style="fill: #a52a2a; stroke: #a52a2a; stroke-linejoin: bevel"/>
     <use xlink:href="#ma0aba405dd" x="344.241182" y="305.087112" style="fill: #a52a2a; stroke: #a52a2a; stroke-linejoin: bevel"/>
     <use xlink:href="#ma0aba405dd" x="347.513909" y="293.001232" style="fill: #a52a2a; stroke: #a52a2a; stroke-linejoin: bevel"/>
     <use xlink:href="#ma0aba405dd" x="350.786636" y="303.50658" style="fill: #a52a2a; stroke: #a52a2a; stroke-linejoin: bevel"/>
     <use xlink:href="#ma0aba405dd" x="354.059364" y="307.503229" style="fill: #a52a2a; stroke: #a52a2a; stroke-linejoin: bevel"/>
     <use xlink:href="#ma0aba405dd" x="357.332091" y="302.690907" style="fill: #a52a2a; stroke: #a52a2a; stroke-linejoin: bevel"/>
     <use xlink:href="#ma0aba405dd" x="360.604818" y="255.590683" style="fill: #a52a2a; stroke: #a52a2a; stroke-linejoin: bevel"/>
     <use xlink:href="#ma0aba405dd" x="363.877545" y="290.724017" style="fill: #a52a2a; stroke: #a52a2a; stroke-linejoin: bevel"/>
     <use xlink:href="#ma0aba405dd" x="367.150273" y="219.976064" style="fill: #a52a2a; stroke: #a52a2a; stroke-linejoin: bevel"/>
     <use xlink:href="#ma0aba405dd" x="370.423" y="196.485062" style="fill: #a52a2a; stroke: #a52a2a; stroke-linejoin: bevel"/>
     <use xlink:href="#ma0aba405dd" x="376.968455" y="269.970111" style="fill: #a52a2a; stroke: #a52a2a; stroke-linejoin: bevel"/>
     <use xlink:href="#ma0aba405dd" x="380.241182" y="265.588204" style="fill: #a52a2a; stroke: #a52a2a; stroke-linejoin: bevel"/>
     <use xlink:href="#ma0aba405dd" x="383.513909" y="233.414014" style="fill: #a52a2a; stroke: #a52a2a; stroke-linejoin: bevel"/>
     <use xlink:href="#ma0aba405dd" x="386.786636" y="282.368927" style="fill: #a52a2a; stroke: #a52a2a; stroke-linejoin: bevel"/>
     <use xlink:href="#ma0aba405dd" x="403.150273" y="272.457959" style="fill: #a52a2a; stroke: #a52a2a; stroke-linejoin: bevel"/>
     <use xlink:href="#ma0aba405dd" x="406.423" y="272.469674" style="fill: #a52a2a; stroke: #a52a2a; stroke-linejoin: bevel"/>
     <use xlink:href="#ma0aba405dd" x="409.695727" y="340.023607" style="fill: #a52a2a; stroke: #a52a2a; stroke-linejoin: bevel"/>
     <use xlink:href="#ma0aba405dd" x="412.968455" y="280.944205" style="fill: #a52a2a; stroke: #a52a2a; stroke-linejoin: bevel"/>
     <use xlink:href="#ma0aba405dd" x="416.241182" y="334.449824" style="fill: #a52a2a; stroke: #a52a2a; stroke-linejoin: bevel"/>
     <use xlink:href="#ma0aba405dd" x="429.332091" y="312.873745" style="fill: #a52a2a; stroke: #a52a2a; stroke-linejoin: bevel"/>
     <use xlink:href="#ma0aba405dd" x="432.604818" y="330.390313" style="fill: #a52a2a; stroke: #a52a2a; stroke-linejoin: bevel"/>
     <use xlink:href="#ma0aba405dd" x="435.877545" y="279.991831" style="fill: #a52a2a; stroke: #a52a2a; stroke-linejoin: bevel"/>
     <use xlink:href="#ma0aba405dd" x="458.786636" y="338.898965" style="fill: #a52a2a; stroke: #a52a2a; stroke-linejoin: bevel"/>
     <use xlink:href="#ma0aba405dd" x="462.059364" y="368.232954" style="fill: #a52a2a; stroke: #a52a2a; stroke-linejoin: bevel"/>
     <use xlink:href="#ma0aba405dd" x="465.332091" y="344.847722" style="fill: #a52a2a; stroke: #a52a2a; stroke-linejoin: bevel"/>
     <use xlink:href="#ma0aba405dd" x="468.604818" y="325.073641" style="fill: #a52a2a; stroke: #a52a2a; stroke-linejoin: bevel"/>
     <use xlink:href="#ma0aba405dd" x="471.877545" y="262.789739" style="fill: #a52a2a; stroke: #a52a2a; stroke-linejoin: bevel"/>
     <use xlink:href="#ma0aba405dd" x="475.150273" y="277.697448" style="fill: #a52a2a; stroke: #a52a2a; stroke-linejoin: bevel"/>
     <use xlink:href="#ma0aba405dd" x="478.423" y="342.311516" style="fill: #a52a2a; stroke: #a52a2a; stroke-linejoin: bevel"/>
     <use xlink:href="#ma0aba405dd" x="481.695727" y="321.120548" style="fill: #a52a2a; stroke: #a52a2a; stroke-linejoin: bevel"/>
     <use xlink:href="#ma0aba405dd" x="484.968455" y="349.150697" style="fill: #a52a2a; stroke: #a52a2a; stroke-linejoin: bevel"/>
     <use xlink:href="#ma0aba405dd" x="488.241182" y="292.008198" style="fill: #a52a2a; stroke: #a52a2a; stroke-linejoin: bevel"/>
     <use xlink:href="#ma0aba405dd" x="491.513909" y="325.920638" style="fill: #a52a2a; stroke: #a52a2a; stroke-linejoin: bevel"/>
     <use xlink:href="#ma0aba405dd" x="494.786636" y="333.097627" style="fill: #a52a2a; stroke: #a52a2a; stroke-linejoin: bevel"/>
     <use xlink:href="#ma0aba405dd" x="507.877545" y="370.956094" style="fill: #a52a2a; stroke: #a52a2a; stroke-linejoin: bevel"/>
     <use xlink:href="#ma0aba405dd" x="511.150273" y="376.638346" style="fill: #a52a2a; stroke: #a52a2a; stroke-linejoin: bevel"/>
     <use xlink:href="#ma0aba405dd" x="514.423" y="369.830428" style="fill: #a52a2a; stroke: #a52a2a; stroke-linejoin: bevel"/>
     <use xlink:href="#ma0aba405dd" x="517.695727" y="322.657948" style="fill: #a52a2a; stroke: #a52a2a; stroke-linejoin: bevel"/>
     <use xlink:href="#ma0aba405dd" x="520.968455" y="426.046265" style="fill: #a52a2a; stroke: #a52a2a; stroke-linejoin: bevel"/>
     <use xlink:href="#ma0aba405dd" x="537.332091" y="394.649679" style="fill: #a52a2a; stroke: #a52a2a; stroke-linejoin: bevel"/>
     <use xlink:href="#ma0aba405dd" x="573.332091" y="334.601059" style="fill: #a52a2a; stroke: #a52a2a; stroke-linejoin: bevel"/>
     <use xlink:href="#ma0aba405dd" x="589.695727" y="355.638389" style="fill: #a52a2a; stroke: #a52a2a; stroke-linejoin: bevel"/>
     <use xlink:href="#ma0aba405dd" x="592.968455" y="340.644364" style="fill: #a52a2a; stroke: #a52a2a; stroke-linejoin: bevel"/>
     <use xlink:href="#ma0aba405dd" x="599.513909" y="404.351717" style="fill: #a52a2a; stroke: #a52a2a; stroke-linejoin: bevel"/>
     <use xlink:href="#ma0aba405dd" x="609.332091" y="341.665107" style="fill: #a52a2a; stroke: #a52a2a; stroke-linejoin: bevel"/>
     <use xlink:href="#ma0aba405dd" x="651.877545" y="414.089271" style="fill: #a52a2a; stroke: #a52a2a; stroke-linejoin: bevel"/>
     <use xlink:href="#ma0aba405dd" x="759.877545" y="141.644513" style="fill: #a52a2a; stroke: #a52a2a; stroke-linejoin: bevel"/>
     <use xlink:href="#ma0aba405dd" x="763.150273" y="132.213161" style="fill: #a52a2a; stroke: #a52a2a; stroke-linejoin: bevel"/>
     <use xlink:href="#ma0aba405dd" x="766.423" y="92.189679" style="fill: #a52a2a; stroke: #a52a2a; stroke-linejoin: bevel"/>
     <use xlink:href="#ma0aba405dd" x="769.695727" y="111.741319" style="fill: #a52a2a; stroke: #a52a2a; stroke-linejoin: bevel"/>
     <use xlink:href="#ma0aba405dd" x="772.968455" y="117.468551" style="fill: #a52a2a; stroke: #a52a2a; stroke-linejoin: bevel"/>
     <use xlink:href="#ma0aba405dd" x="779.513909" y="207.621536" style="fill: #a52a2a; stroke: #a52a2a; stroke-linejoin: bevel"/>
     <use xlink:href="#ma0aba405dd" x="782.786636" y="186.511934" style="fill: #a52a2a; stroke: #a52a2a; stroke-linejoin: bevel"/>
     <use xlink:href="#ma0aba405dd" x="920.241182" y="104.431371" style="fill: #a52a2a; stroke: #a52a2a; stroke-linejoin: bevel"/>
    </g>
   </g>
   <g id="patch_3">
    <path d="M 68.023 622.6035 
L 68.023 35.0835 
" style="fill: none; stroke: #000000; stroke-width: 0.8; stroke-linejoin: miter; stroke-linecap: square"/>
   </g>
   <g id="patch_4">
    <path d="M 960.823 622.6035 
L 960.823 35.0835 
" style="fill: none; stroke: #000000; stroke-width: 0.8; stroke-linejoin: miter; stroke-linecap: square"/>
   </g>
   <g id="patch_5">
    <path d="M 68.023 622.6035 
L 960.823 622.6035 
" style="fill: none; stroke: #000000; stroke-width: 0.8; stroke-linejoin: miter; stroke-linecap: square"/>
   </g>
   <g id="patch_6">
    <path d="M 68.023 35.0835 
L 960.823 35.0835 
" style="fill: none; stroke: #000000; stroke-width: 0.8; stroke-linejoin: miter; stroke-linecap: square"/>
   </g>
   <g id="text_14">
    <!-- Body Muscle Mass Percentage -->
    <g transform="translate(297.262 29.0835) scale(0.288 -0.288)">
     <defs>
      <path id="DejaVuSans-42" d="M 1259 2228 
L 1259 519 
L 2272 519 
Q 2781 519 3026 730 
Q 3272 941 3272 1375 
Q 3272 1813 3026 2020 
Q 2781 2228 2272 2228 
L 1259 2228 
z
M 1259 4147 
L 1259 2741 
L 2194 2741 
Q 2656 2741 2882 2914 
Q 3109 3088 3109 3444 
Q 3109 3797 2882 3972 
Q 2656 4147 2194 4147 
L 1259 4147 
z
M 628 4666 
L 2241 4666 
Q 2963 4666 3353 4366 
Q 3744 4066 3744 3513 
Q 3744 3084 3544 2831 
Q 3344 2578 2956 2516 
Q 3422 2416 3680 2098 
Q 3938 1781 3938 1306 
Q 3938 681 3513 340 
Q 3088 0 2303 0 
L 628 0 
L 628 4666 
z
" transform="scale(0.015625)"/>
      <path id="DejaVuSans-6f" d="M 1959 3097 
Q 1497 3097 1228 2736 
Q 959 2375 959 1747 
Q 959 1119 1226 758 
Q 1494 397 1959 397 
Q 2419 397 2687 759 
Q 2956 1122 2956 1747 
Q 2956 2369 2687 2733 
Q 2419 3097 1959 3097 
z
M 1959 3584 
Q 2709 3584 3137 3096 
Q 3566 2609 3566 1747 
Q 3566 888 3137 398 
Q 2709 -91 1959 -91 
Q 1206 -91 779 398 
Q 353 888 353 1747 
Q 353 2609 779 3096 
Q 1206 3584 1959 3584 
z
" transform="scale(0.015625)"/>
      <path id="DejaVuSans-64" d="M 2906 2969 
L 2906 4863 
L 3481 4863 
L 3481 0 
L 2906 0 
L 2906 525 
Q 2725 213 2448 61 
Q 2172 -91 1784 -91 
Q 1150 -91 751 415 
Q 353 922 353 1747 
Q 353 2572 751 3078 
Q 1150 3584 1784 3584 
Q 2172 3584 2448 3432 
Q 2725 3281 2906 2969 
z
M 947 1747 
Q 947 1113 1208 752 
Q 1469 391 1925 391 
Q 2381 391 2643 752 
Q 2906 1113 2906 1747 
Q 2906 2381 2643 2742 
Q 2381 3103 1925 3103 
Q 1469 3103 1208 2742 
Q 947 2381 947 1747 
z
" transform="scale(0.015625)"/>
      <path id="DejaVuSans-79" d="M 2059 -325 
Q 1816 -950 1584 -1140 
Q 1353 -1331 966 -1331 
L 506 -1331 
L 506 -850 
L 844 -850 
Q 1081 -850 1212 -737 
Q 1344 -625 1503 -206 
L 1606 56 
L 191 3500 
L 800 3500 
L 1894 763 
L 2988 3500 
L 3597 3500 
L 2059 -325 
z
" transform="scale(0.015625)"/>
     </defs>
     <use xlink:href="#DejaVuSans-42"/>
     <use xlink:href="#DejaVuSans-6f" x="68.603516"/>
     <use xlink:href="#DejaVuSans-64" x="129.785156"/>
     <use xlink:href="#DejaVuSans-79" x="193.261719"/>
     <use xlink:href="#DejaVuSans-20" x="252.441406"/>
     <use xlink:href="#DejaVuSans-4d" x="284.228516"/>
     <use xlink:href="#DejaVuSans-75" x="370.507812"/>
     <use xlink:href="#DejaVuSans-73" x="433.886719"/>
     <use xlink:href="#DejaVuSans-63" x="485.986328"/>
     <use xlink:href="#DejaVuSans-6c" x="540.966797"/>
     <use xlink:href="#DejaVuSans-65" x="568.75"/>
     <use xlink:href="#DejaVuSans-20" x="630.273438"/>
     <use xlink:href="#DejaVuSans-4d" x="662.060547"/>
     <use xlink:href="#DejaVuSans-61" x="748.339844"/>
     <use xlink:href="#DejaVuSans-73" x="809.619141"/>
     <use xlink:href="#DejaVuSans-73" x="861.71875"/>
     <use xlink:href="#DejaVuSans-20" x="913.818359"/>
     <use xlink:href="#DejaVuSans-50" x="945.605469"/>
     <use xlink:href="#DejaVuSans-65" x="1002.283203"/>
     <use xlink:href="#DejaVuSans-72" x="1063.806641"/>
     <use xlink:href="#DejaVuSans-63" x="1102.669922"/>
     <use xlink:href="#DejaVuSans-65" x="1157.650391"/>
     <use xlink:href="#DejaVuSans-6e" x="1219.173828"/>
     <use xlink:href="#DejaVuSans-74" x="1282.552734"/>
     <use xlink:href="#DejaVuSans-61" x="1321.761719"/>
     <use xlink:href="#DejaVuSans-67" x="1383.041016"/>
     <use xlink:href="#DejaVuSans-65" x="1446.517578"/>
    </g>
   </g>
  </g>
 </g>
 <defs>
  <clipPath id="pe5995bad79">
   <rect x="68.023" y="35.0835" width="892.8" height="587.52"/>
  </clipPath>
 </defs>
</svg>
