<?xml version="1.0" encoding="utf-8" standalone="no"?>
<!DOCTYPE svg PUBLIC "-//W3C//DTD SVG 1.1//EN"
  "http://www.w3.org/Graphics/SVG/1.1/DTD/svg11.dtd">
<svg xmlns:xlink="http://www.w3.org/1999/xlink" width="980.748pt" height="705.725879pt" viewBox="0 0 980.748 705.725879" xmlns="http://www.w3.org/2000/svg" version="1.1">
 <metadata>
  <rdf:RDF xmlns:dc="http://purl.org/dc/elements/1.1/" xmlns:cc="http://creativecommons.org/ns#" xmlns:rdf="http://www.w3.org/1999/02/22-rdf-syntax-ns#">
   <cc:Work>
    <dc:type rdf:resource="http://purl.org/dc/dcmitype/StillImage"/>
    <dc:date>2022-10-11T19:26:48.778464</dc:date>
    <dc:format>image/svg+xml</dc:format>
    <dc:creator>
     <cc:Agent>
      <dc:title>Matplotlib v3.6.1, https://matplotlib.org/</dc:title>
     </cc:Agent>
    </dc:creator>
   </cc:Work>
  </rdf:RDF>
 </metadata>
 <defs>
  <style type="text/css">*{stroke-linejoin: round; stroke-linecap: butt}</style>
 </defs>
 <g id="figure_1">
  <g id="patch_1">
   <path d="M 0 705.725879 
L 980.748 705.725879 
L 980.748 0 
L 0 0 
z
" style="fill: #ffffff"/>
  </g>
  <g id="axes_1">
   <g id="patch_2">
    <path d="M 80.748 622.6035 
L 973.548 622.6035 
L 973.548 35.0835 
L 80.748 35.0835 
z
" style="fill: #ffffff"/>
   </g>
   <g id="PolyCollection_1">
    <defs>
     <path id="m76d48117e1" d="M 121.329818 -386.7701 
L 121.329818 -325.615891 
L 132.761316 -109.827834 
L 138.477065 -337.043152 
L 144.192814 -355.423317 
L 149.908563 -399.319677 
L 155.624312 -312.563905 
L 161.340061 -353.342082 
L 167.05581 -352.039947 
L 172.77156 -356.442505 
L 178.487309 -408.275683 
L 184.203058 -350.63783 
L 189.918807 -309.972759 
L 195.634556 -400.256548 
L 201.350305 -385.536137 
L 207.066054 -338.750073 
L 212.781803 -367.764479 
L 218.497552 -383.634718 
L 224.213301 -409.549979 
L 229.92905 -434.587739 
L 235.644799 -418.996239 
L 241.360548 -416.355208 
L 247.076297 -392.516202 
L 252.792046 -364.969015 
L 258.507795 -362.071618 
L 264.223544 -374.964241 
L 269.939293 -371.276159 
L 275.655042 -400.258491 
L 281.370791 -453.513544 
L 287.08654 -402.354483 
L 292.802289 -376.393169 
L 298.518038 -414.16042 
L 304.233787 -437.838925 
L 309.949536 -433.836982 
L 315.665286 -466.655738 
L 321.381035 -494.834324 
L 327.096784 -470.721314 
L 332.812533 -434.836826 
L 338.528282 -461.336166 
L 344.244031 -471.878335 
L 349.95978 -492.974055 
L 355.675529 -460.152336 
L 361.391278 -430.557555 
L 367.107027 -427.483136 
L 372.822776 -484.932326 
L 378.538525 -419.079561 
L 384.254274 -405.63391 
L 389.970023 -477.125419 
L 395.685772 -501.721121 
L 401.401521 -523.32174 
L 407.11727 -472.884139 
L 412.833019 -496.801981 
L 418.548768 -461.205137 
L 424.264517 -512.532492 
L 429.980266 -542.530049 
L 435.696015 -551.180722 
L 441.411764 -529.268308 
L 447.127513 -520.240989 
L 452.843262 -561.734635 
L 458.559012 -527.953521 
L 464.274761 -514.89253 
L 469.99051 -521.554949 
L 475.706259 -526.316824 
L 481.422008 -453.513544 
L 487.137757 -485.651929 
L 492.853506 -559.766979 
L 498.569255 -528.530834 
L 504.285004 -544.781562 
L 510.000753 -469.126584 
L 515.716502 -484.012215 
L 521.432251 -492.210783 
L 527.148 -484.908116 
L 532.863749 -512.533869 
L 538.579498 -542.058073 
L 544.295247 -501.738125 
L 550.010996 -509.919689 
L 555.726745 -521.410673 
L 561.442494 -533.296316 
L 567.158243 -517.462371 
L 572.873992 -526.316824 
L 578.589741 -556.893928 
L 590.021239 -481.060731 
L 595.736988 -465.704149 
L 601.452738 -507.540571 
L 607.168487 -494.834324 
L 635.747232 -490.899012 
L 641.462981 -484.996043 
L 647.17873 -402.671865 
L 652.894479 -482.372502 
L 658.610228 -431.869326 
L 681.473224 -429.90167 
L 687.188973 -422.031045 
L 692.904722 -473.190106 
L 732.914965 -426.881594 
L 738.630714 -421.047217 
L 744.346464 -419.407503 
L 750.062213 -417.96426 
L 755.777962 -489.915184 
L 761.493711 -416.128076 
L 767.20946 -408.257451 
L 772.925209 -422.031045 
L 778.640958 -372.83964 
L 784.356707 -388.379757 
L 790.072456 -347.260109 
L 795.788205 -348.57188 
L 818.651201 -371.855812 
L 824.36695 -373.495525 
L 830.082699 -372.183754 
L 835.798448 -427.882291 
L 841.514197 -347.260109 
L 870.092942 -394.483858 
L 932.966182 -436.8669 
L 932.966182 -476.220024 
L 932.966182 -476.220024 
L 870.092942 -455.638068 
L 841.514197 -408.414319 
L 835.798448 -476.35018 
L 830.082699 -433.337964 
L 824.36695 -434.649735 
L 818.651201 -433.010021 
L 795.788205 -409.726089 
L 790.072456 -408.414319 
L 784.356707 -530.610136 
L 778.640958 -433.993849 
L 772.925209 -483.185254 
L 767.20946 -469.411661 
L 761.493711 -477.282286 
L 755.777962 -551.069393 
L 750.062213 -466.591649 
L 744.346464 -480.561713 
L 738.630714 -482.201426 
L 732.914965 -466.528768 
L 692.904722 -534.344316 
L 687.188973 -483.185254 
L 681.473224 -491.055879 
L 658.610228 -493.023535 
L 652.894479 -543.526711 
L 647.17873 -497.625294 
L 641.462981 -546.150253 
L 635.747232 -552.053221 
L 607.168487 -555.988534 
L 601.452738 -574.108901 
L 595.736988 -543.404398 
L 590.021239 -542.21494 
L 578.589741 -592.31174 
L 572.873992 -587.471033 
L 567.158243 -578.61658 
L 561.442494 -593.609249 
L 555.726745 -551.056403 
L 550.010996 -571.073898 
L 544.295247 -564.825982 
L 538.579498 -603.212283 
L 532.863749 -594.695134 
L 527.148 -581.655992 
L 521.432251 -553.364992 
L 515.716502 -545.166425 
L 510.000753 -612.194946 
L 504.285004 -613.419106 
L 498.569255 -587.61821 
L 492.853506 -620.921189 
L 487.137757 -546.806138 
L 481.422008 -514.667754 
L 475.706259 -587.471033 
L 469.99051 -570.588689 
L 464.274761 -549.703922 
L 458.559012 -564.583649 
L 452.843262 -622.888845 
L 447.127513 -614.010492 
L 441.411764 -590.422517 
L 435.696015 -643.936925 
L 429.980266 -612.859681 
L 424.264517 -578.955261 
L 418.548768 -561.086707 
L 412.833019 -557.95619 
L 407.11727 -511.038408 
L 401.401521 -539.307055 
L 395.685772 -562.875331 
L 389.970023 -538.279628 
L 384.254274 -466.788119 
L 378.538525 -480.23377 
L 372.822776 -515.715299 
L 367.107027 -472.814023 
L 361.391278 -491.711765 
L 355.675529 -531.640836 
L 349.95978 -543.091382 
L 344.244031 -533.032545 
L 338.528282 -549.346505 
L 332.812533 -517.603222 
L 327.096784 -512.217406 
L 321.381035 -555.988534 
L 315.665286 -499.164372 
L 309.949536 -494.991192 
L 304.233787 -487.053936 
L 298.518038 -475.31463 
L 292.802289 -454.839257 
L 287.08654 -463.508692 
L 281.370791 -514.667754 
L 275.655042 -493.151871 
L 269.939293 -469.007486 
L 264.223544 -442.691357 
L 258.507795 -461.486949 
L 252.792046 -426.123224 
L 247.076297 -453.670411 
L 241.360548 -435.734374 
L 235.644799 -431.125686 
L 229.92905 -441.113717 
L 224.213301 -447.655509 
L 218.497552 -461.240125 
L 212.781803 -436.117525 
L 207.066054 -402.166933 
L 201.350305 -448.844539 
L 195.634556 -421.334362 
L 189.918807 -359.124796 
L 184.203058 -418.41666 
L 178.487309 -452.996295 
L 172.77156 -417.596714 
L 167.05581 -405.602137 
L 161.340061 -397.085262 
L 155.624312 -344.727712 
L 149.908563 -411.449124 
L 144.192814 -368.768611 
L 138.477065 -392.770651 
L 132.761316 -293.636134 
L 121.329818 -386.7701 
z
" style="stroke: #ff0000; stroke-opacity: 0.2"/>
    </defs>
    <g clip-path="url(#pf61295d2ea)">
     <use xlink:href="#m76d48117e1" x="0" y="705.725879" style="fill: #ff0000; fill-opacity: 0.2; stroke: #ff0000; stroke-opacity: 0.2"/>
    </g>
   </g>
   <g id="matplotlib.axis_1">
    <g id="xtick_1">
     <g id="line2d_1">
      <path d="M 127.045567 622.6035 
L 127.045567 35.0835 
" clip-path="url(#pf61295d2ea)" style="fill: none; stroke: #a5a391; stroke-opacity: 0.3; stroke-width: 0.8; stroke-linecap: square"/>
     </g>
     <g id="line2d_2">
      <defs>
       <path id="m0c13c99d38" d="M 0 0 
L 0 -3.5 
" style="stroke: #000000; stroke-width: 0.8"/>
      </defs>
      <g>
       <use xlink:href="#m0c13c99d38" x="127.045567" y="622.6035" style="stroke: #000000; stroke-width: 0.8"/>
      </g>
     </g>
     <g id="text_1">
      <!-- Jan 01, 20 -->
      <g transform="translate(37.670519 689.66438) rotate(-30) scale(0.2 -0.2)">
       <defs>
        <path id="DejaVuSans-4a" d="M 628 4666 
L 1259 4666 
L 1259 325 
Q 1259 -519 939 -900 
Q 619 -1281 -91 -1281 
L -331 -1281 
L -331 -750 
L -134 -750 
Q 284 -750 456 -515 
Q 628 -281 628 325 
L 628 4666 
z
" transform="scale(0.015625)"/>
        <path id="DejaVuSans-61" d="M 2194 1759 
Q 1497 1759 1228 1600 
Q 959 1441 959 1056 
Q 959 750 1161 570 
Q 1363 391 1709 391 
Q 2188 391 2477 730 
Q 2766 1069 2766 1631 
L 2766 1759 
L 2194 1759 
z
M 3341 1997 
L 3341 0 
L 2766 0 
L 2766 531 
Q 2569 213 2275 61 
Q 1981 -91 1556 -91 
Q 1019 -91 701 211 
Q 384 513 384 1019 
Q 384 1609 779 1909 
Q 1175 2209 1959 2209 
L 2766 2209 
L 2766 2266 
Q 2766 2663 2505 2880 
Q 2244 3097 1772 3097 
Q 1472 3097 1187 3025 
Q 903 2953 641 2809 
L 641 3341 
Q 956 3463 1253 3523 
Q 1550 3584 1831 3584 
Q 2591 3584 2966 3190 
Q 3341 2797 3341 1997 
z
" transform="scale(0.015625)"/>
        <path id="DejaVuSans-6e" d="M 3513 2113 
L 3513 0 
L 2938 0 
L 2938 2094 
Q 2938 2591 2744 2837 
Q 2550 3084 2163 3084 
Q 1697 3084 1428 2787 
Q 1159 2491 1159 1978 
L 1159 0 
L 581 0 
L 581 3500 
L 1159 3500 
L 1159 2956 
Q 1366 3272 1645 3428 
Q 1925 3584 2291 3584 
Q 2894 3584 3203 3211 
Q 3513 2838 3513 2113 
z
" transform="scale(0.015625)"/>
        <path id="DejaVuSans-20" transform="scale(0.015625)"/>
        <path id="DejaVuSans-30" d="M 2034 4250 
Q 1547 4250 1301 3770 
Q 1056 3291 1056 2328 
Q 1056 1369 1301 889 
Q 1547 409 2034 409 
Q 2525 409 2770 889 
Q 3016 1369 3016 2328 
Q 3016 3291 2770 3770 
Q 2525 4250 2034 4250 
z
M 2034 4750 
Q 2819 4750 3233 4129 
Q 3647 3509 3647 2328 
Q 3647 1150 3233 529 
Q 2819 -91 2034 -91 
Q 1250 -91 836 529 
Q 422 1150 422 2328 
Q 422 3509 836 4129 
Q 1250 4750 2034 4750 
z
" transform="scale(0.015625)"/>
        <path id="DejaVuSans-31" d="M 794 531 
L 1825 531 
L 1825 4091 
L 703 3866 
L 703 4441 
L 1819 4666 
L 2450 4666 
L 2450 531 
L 3481 531 
L 3481 0 
L 794 0 
L 794 531 
z
" transform="scale(0.015625)"/>
        <path id="DejaVuSans-2c" d="M 750 794 
L 1409 794 
L 1409 256 
L 897 -744 
L 494 -744 
L 750 256 
L 750 794 
z
" transform="scale(0.015625)"/>
        <path id="DejaVuSans-32" d="M 1228 531 
L 3431 531 
L 3431 0 
L 469 0 
L 469 531 
Q 828 903 1448 1529 
Q 2069 2156 2228 2338 
Q 2531 2678 2651 2914 
Q 2772 3150 2772 3378 
Q 2772 3750 2511 3984 
Q 2250 4219 1831 4219 
Q 1534 4219 1204 4116 
Q 875 4013 500 3803 
L 500 4441 
Q 881 4594 1212 4672 
Q 1544 4750 1819 4750 
Q 2544 4750 2975 4387 
Q 3406 4025 3406 3419 
Q 3406 3131 3298 2873 
Q 3191 2616 2906 2266 
Q 2828 2175 2409 1742 
Q 1991 1309 1228 531 
z
" transform="scale(0.015625)"/>
       </defs>
       <use xlink:href="#DejaVuSans-4a"/>
       <use xlink:href="#DejaVuSans-61" x="29.492188"/>
       <use xlink:href="#DejaVuSans-6e" x="90.771484"/>
       <use xlink:href="#DejaVuSans-20" x="154.150391"/>
       <use xlink:href="#DejaVuSans-30" x="185.9375"/>
       <use xlink:href="#DejaVuSans-31" x="249.560547"/>
       <use xlink:href="#DejaVuSans-2c" x="313.183594"/>
       <use xlink:href="#DejaVuSans-20" x="344.970703"/>
       <use xlink:href="#DejaVuSans-32" x="376.757812"/>
       <use xlink:href="#DejaVuSans-30" x="440.380859"/>
      </g>
     </g>
    </g>
    <g id="xtick_2">
     <g id="line2d_3">
      <path d="M 225.846372 622.6035 
L 225.846372 35.0835 
" clip-path="url(#pf61295d2ea)" style="fill: none; stroke: #a5a391; stroke-opacity: 0.3; stroke-width: 0.8; stroke-linecap: square"/>
     </g>
     <g id="line2d_4">
      <g>
       <use xlink:href="#m0c13c99d38" x="225.846372" y="622.6035" style="stroke: #000000; stroke-width: 0.8"/>
      </g>
     </g>
     <g id="text_2">
      <!-- May 01, 20 -->
      <g transform="translate(127.361819 694.923755) rotate(-30) scale(0.2 -0.2)">
       <defs>
        <path id="DejaVuSans-4d" d="M 628 4666 
L 1569 4666 
L 2759 1491 
L 3956 4666 
L 4897 4666 
L 4897 0 
L 4281 0 
L 4281 4097 
L 3078 897 
L 2444 897 
L 1241 4097 
L 1241 0 
L 628 0 
L 628 4666 
z
" transform="scale(0.015625)"/>
        <path id="DejaVuSans-79" d="M 2059 -325 
Q 1816 -950 1584 -1140 
Q 1353 -1331 966 -1331 
L 506 -1331 
L 506 -850 
L 844 -850 
Q 1081 -850 1212 -737 
Q 1344 -625 1503 -206 
L 1606 56 
L 191 3500 
L 800 3500 
L 1894 763 
L 2988 3500 
L 3597 3500 
L 2059 -325 
z
" transform="scale(0.015625)"/>
       </defs>
       <use xlink:href="#DejaVuSans-4d"/>
       <use xlink:href="#DejaVuSans-61" x="86.279297"/>
       <use xlink:href="#DejaVuSans-79" x="147.558594"/>
       <use xlink:href="#DejaVuSans-20" x="206.738281"/>
       <use xlink:href="#DejaVuSans-30" x="238.525391"/>
       <use xlink:href="#DejaVuSans-31" x="302.148438"/>
       <use xlink:href="#DejaVuSans-2c" x="365.771484"/>
       <use xlink:href="#DejaVuSans-20" x="397.558594"/>
       <use xlink:href="#DejaVuSans-32" x="429.345703"/>
       <use xlink:href="#DejaVuSans-30" x="492.96875"/>
      </g>
     </g>
    </g>
    <g id="xtick_3">
     <g id="line2d_5">
      <path d="M 326.280248 622.6035 
L 326.280248 35.0835 
" clip-path="url(#pf61295d2ea)" style="fill: none; stroke: #a5a391; stroke-opacity: 0.3; stroke-width: 0.8; stroke-linecap: square"/>
     </g>
     <g id="line2d_6">
      <g>
       <use xlink:href="#m0c13c99d38" x="326.280248" y="622.6035" style="stroke: #000000; stroke-width: 0.8"/>
      </g>
     </g>
     <g id="text_3">
      <!-- Sep 01, 20 -->
      <g transform="translate(230.956688 693.098755) rotate(-30) scale(0.2 -0.2)">
       <defs>
        <path id="DejaVuSans-53" d="M 3425 4513 
L 3425 3897 
Q 3066 4069 2747 4153 
Q 2428 4238 2131 4238 
Q 1616 4238 1336 4038 
Q 1056 3838 1056 3469 
Q 1056 3159 1242 3001 
Q 1428 2844 1947 2747 
L 2328 2669 
Q 3034 2534 3370 2195 
Q 3706 1856 3706 1288 
Q 3706 609 3251 259 
Q 2797 -91 1919 -91 
Q 1588 -91 1214 -16 
Q 841 59 441 206 
L 441 856 
Q 825 641 1194 531 
Q 1563 422 1919 422 
Q 2459 422 2753 634 
Q 3047 847 3047 1241 
Q 3047 1584 2836 1778 
Q 2625 1972 2144 2069 
L 1759 2144 
Q 1053 2284 737 2584 
Q 422 2884 422 3419 
Q 422 4038 858 4394 
Q 1294 4750 2059 4750 
Q 2388 4750 2728 4690 
Q 3069 4631 3425 4513 
z
" transform="scale(0.015625)"/>
        <path id="DejaVuSans-65" d="M 3597 1894 
L 3597 1613 
L 953 1613 
Q 991 1019 1311 708 
Q 1631 397 2203 397 
Q 2534 397 2845 478 
Q 3156 559 3463 722 
L 3463 178 
Q 3153 47 2828 -22 
Q 2503 -91 2169 -91 
Q 1331 -91 842 396 
Q 353 884 353 1716 
Q 353 2575 817 3079 
Q 1281 3584 2069 3584 
Q 2775 3584 3186 3129 
Q 3597 2675 3597 1894 
z
M 3022 2063 
Q 3016 2534 2758 2815 
Q 2500 3097 2075 3097 
Q 1594 3097 1305 2825 
Q 1016 2553 972 2059 
L 3022 2063 
z
" transform="scale(0.015625)"/>
        <path id="DejaVuSans-70" d="M 1159 525 
L 1159 -1331 
L 581 -1331 
L 581 3500 
L 1159 3500 
L 1159 2969 
Q 1341 3281 1617 3432 
Q 1894 3584 2278 3584 
Q 2916 3584 3314 3078 
Q 3713 2572 3713 1747 
Q 3713 922 3314 415 
Q 2916 -91 2278 -91 
Q 1894 -91 1617 61 
Q 1341 213 1159 525 
z
M 3116 1747 
Q 3116 2381 2855 2742 
Q 2594 3103 2138 3103 
Q 1681 3103 1420 2742 
Q 1159 2381 1159 1747 
Q 1159 1113 1420 752 
Q 1681 391 2138 391 
Q 2594 391 2855 752 
Q 3116 1113 3116 1747 
z
" transform="scale(0.015625)"/>
       </defs>
       <use xlink:href="#DejaVuSans-53"/>
       <use xlink:href="#DejaVuSans-65" x="63.476562"/>
       <use xlink:href="#DejaVuSans-70" x="125"/>
       <use xlink:href="#DejaVuSans-20" x="188.476562"/>
       <use xlink:href="#DejaVuSans-30" x="220.263672"/>
       <use xlink:href="#DejaVuSans-31" x="283.886719"/>
       <use xlink:href="#DejaVuSans-2c" x="347.509766"/>
       <use xlink:href="#DejaVuSans-20" x="379.296875"/>
       <use xlink:href="#DejaVuSans-32" x="411.083984"/>
       <use xlink:href="#DejaVuSans-30" x="474.707031"/>
      </g>
     </g>
    </g>
    <g id="xtick_4">
     <g id="line2d_7">
      <path d="M 425.897588 622.6035 
L 425.897588 35.0835 
" clip-path="url(#pf61295d2ea)" style="fill: none; stroke: #a5a391; stroke-opacity: 0.3; stroke-width: 0.8; stroke-linecap: square"/>
     </g>
     <g id="line2d_8">
      <g>
       <use xlink:href="#m0c13c99d38" x="425.897588" y="622.6035" style="stroke: #000000; stroke-width: 0.8"/>
      </g>
     </g>
     <g id="text_4">
      <!-- Jan 01, 21 -->
      <g transform="translate(336.52254 689.66438) rotate(-30) scale(0.2 -0.2)">
       <use xlink:href="#DejaVuSans-4a"/>
       <use xlink:href="#DejaVuSans-61" x="29.492188"/>
       <use xlink:href="#DejaVuSans-6e" x="90.771484"/>
       <use xlink:href="#DejaVuSans-20" x="154.150391"/>
       <use xlink:href="#DejaVuSans-30" x="185.9375"/>
       <use xlink:href="#DejaVuSans-31" x="249.560547"/>
       <use xlink:href="#DejaVuSans-2c" x="313.183594"/>
       <use xlink:href="#DejaVuSans-20" x="344.970703"/>
       <use xlink:href="#DejaVuSans-32" x="376.757812"/>
       <use xlink:href="#DejaVuSans-31" x="440.380859"/>
      </g>
     </g>
    </g>
    <g id="xtick_5">
     <g id="line2d_9">
      <path d="M 523.881858 622.6035 
L 523.881858 35.0835 
" clip-path="url(#pf61295d2ea)" style="fill: none; stroke: #a5a391; stroke-opacity: 0.3; stroke-width: 0.8; stroke-linecap: square"/>
     </g>
     <g id="line2d_10">
      <g>
       <use xlink:href="#m0c13c99d38" x="523.881858" y="622.6035" style="stroke: #000000; stroke-width: 0.8"/>
      </g>
     </g>
     <g id="text_5">
      <!-- May 01, 21 -->
      <g transform="translate(425.397305 694.923755) rotate(-30) scale(0.2 -0.2)">
       <use xlink:href="#DejaVuSans-4d"/>
       <use xlink:href="#DejaVuSans-61" x="86.279297"/>
       <use xlink:href="#DejaVuSans-79" x="147.558594"/>
       <use xlink:href="#DejaVuSans-20" x="206.738281"/>
       <use xlink:href="#DejaVuSans-30" x="238.525391"/>
       <use xlink:href="#DejaVuSans-31" x="302.148438"/>
       <use xlink:href="#DejaVuSans-2c" x="365.771484"/>
       <use xlink:href="#DejaVuSans-20" x="397.558594"/>
       <use xlink:href="#DejaVuSans-32" x="429.345703"/>
       <use xlink:href="#DejaVuSans-31" x="492.96875"/>
      </g>
     </g>
    </g>
    <g id="xtick_6">
     <g id="line2d_11">
      <path d="M 624.315734 622.6035 
L 624.315734 35.0835 
" clip-path="url(#pf61295d2ea)" style="fill: none; stroke: #a5a391; stroke-opacity: 0.3; stroke-width: 0.8; stroke-linecap: square"/>
     </g>
     <g id="line2d_12">
      <g>
       <use xlink:href="#m0c13c99d38" x="624.315734" y="622.6035" style="stroke: #000000; stroke-width: 0.8"/>
      </g>
     </g>
     <g id="text_6">
      <!-- Sep 01, 21 -->
      <g transform="translate(528.992173 693.098755) rotate(-30) scale(0.2 -0.2)">
       <use xlink:href="#DejaVuSans-53"/>
       <use xlink:href="#DejaVuSans-65" x="63.476562"/>
       <use xlink:href="#DejaVuSans-70" x="125"/>
       <use xlink:href="#DejaVuSans-20" x="188.476562"/>
       <use xlink:href="#DejaVuSans-30" x="220.263672"/>
       <use xlink:href="#DejaVuSans-31" x="283.886719"/>
       <use xlink:href="#DejaVuSans-2c" x="347.509766"/>
       <use xlink:href="#DejaVuSans-20" x="379.296875"/>
       <use xlink:href="#DejaVuSans-32" x="411.083984"/>
       <use xlink:href="#DejaVuSans-31" x="474.707031"/>
      </g>
     </g>
    </g>
    <g id="xtick_7">
     <g id="line2d_13">
      <path d="M 723.933074 622.6035 
L 723.933074 35.0835 
" clip-path="url(#pf61295d2ea)" style="fill: none; stroke: #a5a391; stroke-opacity: 0.3; stroke-width: 0.8; stroke-linecap: square"/>
     </g>
     <g id="line2d_14">
      <g>
       <use xlink:href="#m0c13c99d38" x="723.933074" y="622.6035" style="stroke: #000000; stroke-width: 0.8"/>
      </g>
     </g>
     <g id="text_7">
      <!-- Jan 01, 22 -->
      <g transform="translate(634.558026 689.66438) rotate(-30) scale(0.2 -0.2)">
       <use xlink:href="#DejaVuSans-4a"/>
       <use xlink:href="#DejaVuSans-61" x="29.492188"/>
       <use xlink:href="#DejaVuSans-6e" x="90.771484"/>
       <use xlink:href="#DejaVuSans-20" x="154.150391"/>
       <use xlink:href="#DejaVuSans-30" x="185.9375"/>
       <use xlink:href="#DejaVuSans-31" x="249.560547"/>
       <use xlink:href="#DejaVuSans-2c" x="313.183594"/>
       <use xlink:href="#DejaVuSans-20" x="344.970703"/>
       <use xlink:href="#DejaVuSans-32" x="376.757812"/>
       <use xlink:href="#DejaVuSans-32" x="440.380859"/>
      </g>
     </g>
    </g>
    <g id="xtick_8">
     <g id="line2d_15">
      <path d="M 821.917343 622.6035 
L 821.917343 35.0835 
" clip-path="url(#pf61295d2ea)" style="fill: none; stroke: #a5a391; stroke-opacity: 0.3; stroke-width: 0.8; stroke-linecap: square"/>
     </g>
     <g id="line2d_16">
      <g>
       <use xlink:href="#m0c13c99d38" x="821.917343" y="622.6035" style="stroke: #000000; stroke-width: 0.8"/>
      </g>
     </g>
     <g id="text_8">
      <!-- May 01, 22 -->
      <g transform="translate(723.43279 694.923755) rotate(-30) scale(0.2 -0.2)">
       <use xlink:href="#DejaVuSans-4d"/>
       <use xlink:href="#DejaVuSans-61" x="86.279297"/>
       <use xlink:href="#DejaVuSans-79" x="147.558594"/>
       <use xlink:href="#DejaVuSans-20" x="206.738281"/>
       <use xlink:href="#DejaVuSans-30" x="238.525391"/>
       <use xlink:href="#DejaVuSans-31" x="302.148438"/>
       <use xlink:href="#DejaVuSans-2c" x="365.771484"/>
       <use xlink:href="#DejaVuSans-20" x="397.558594"/>
       <use xlink:href="#DejaVuSans-32" x="429.345703"/>
       <use xlink:href="#DejaVuSans-32" x="492.96875"/>
      </g>
     </g>
    </g>
    <g id="xtick_9">
     <g id="line2d_17">
      <path d="M 922.351219 622.6035 
L 922.351219 35.0835 
" clip-path="url(#pf61295d2ea)" style="fill: none; stroke: #a5a391; stroke-opacity: 0.3; stroke-width: 0.8; stroke-linecap: square"/>
     </g>
     <g id="line2d_18">
      <g>
       <use xlink:href="#m0c13c99d38" x="922.351219" y="622.6035" style="stroke: #000000; stroke-width: 0.8"/>
      </g>
     </g>
     <g id="text_9">
      <!-- Sep 01, 22 -->
      <g transform="translate(827.027659 693.098755) rotate(-30) scale(0.2 -0.2)">
       <use xlink:href="#DejaVuSans-53"/>
       <use xlink:href="#DejaVuSans-65" x="63.476562"/>
       <use xlink:href="#DejaVuSans-70" x="125"/>
       <use xlink:href="#DejaVuSans-20" x="188.476562"/>
       <use xlink:href="#DejaVuSans-30" x="220.263672"/>
       <use xlink:href="#DejaVuSans-31" x="283.886719"/>
       <use xlink:href="#DejaVuSans-2c" x="347.509766"/>
       <use xlink:href="#DejaVuSans-20" x="379.296875"/>
       <use xlink:href="#DejaVuSans-32" x="411.083984"/>
       <use xlink:href="#DejaVuSans-32" x="474.707031"/>
      </g>
     </g>
    </g>
   </g>
   <g id="matplotlib.axis_2">
    <g id="ytick_1">
     <g id="line2d_19">
      <path d="M 80.748 540.395535 
L 973.548 540.395535 
" clip-path="url(#pf61295d2ea)" style="fill: none; stroke: #a5a391; stroke-opacity: 0.3; stroke-width: 0.8; stroke-linecap: square"/>
     </g>
     <g id="line2d_20">
      <defs>
       <path id="mda515b44b3" d="M 0 0 
L 3.5 0 
" style="stroke: #000000; stroke-width: 0.8"/>
      </defs>
      <g>
       <use xlink:href="#mda515b44b3" x="80.748" y="540.395535" style="stroke: #000000; stroke-width: 0.8"/>
      </g>
     </g>
     <g id="text_10">
      <!-- 110 -->
      <g transform="translate(39.073 547.993973) scale(0.2 -0.2)">
       <use xlink:href="#DejaVuSans-31"/>
       <use xlink:href="#DejaVuSans-31" x="63.623047"/>
       <use xlink:href="#DejaVuSans-30" x="127.246094"/>
      </g>
     </g>
    </g>
    <g id="ytick_2">
     <g id="line2d_21">
      <path d="M 80.748 442.012725 
L 973.548 442.012725 
" clip-path="url(#pf61295d2ea)" style="fill: none; stroke: #a5a391; stroke-opacity: 0.3; stroke-width: 0.8; stroke-linecap: square"/>
     </g>
     <g id="line2d_22">
      <g>
       <use xlink:href="#mda515b44b3" x="80.748" y="442.012725" style="stroke: #000000; stroke-width: 0.8"/>
      </g>
     </g>
     <g id="text_11">
      <!-- 115 -->
      <g transform="translate(39.073 449.611163) scale(0.2 -0.2)">
       <defs>
        <path id="DejaVuSans-35" d="M 691 4666 
L 3169 4666 
L 3169 4134 
L 1269 4134 
L 1269 2991 
Q 1406 3038 1543 3061 
Q 1681 3084 1819 3084 
Q 2600 3084 3056 2656 
Q 3513 2228 3513 1497 
Q 3513 744 3044 326 
Q 2575 -91 1722 -91 
Q 1428 -91 1123 -41 
Q 819 9 494 109 
L 494 744 
Q 775 591 1075 516 
Q 1375 441 1709 441 
Q 2250 441 2565 725 
Q 2881 1009 2881 1497 
Q 2881 1984 2565 2268 
Q 2250 2553 1709 2553 
Q 1456 2553 1204 2497 
Q 953 2441 691 2322 
L 691 4666 
z
" transform="scale(0.015625)"/>
       </defs>
       <use xlink:href="#DejaVuSans-31"/>
       <use xlink:href="#DejaVuSans-31" x="63.623047"/>
       <use xlink:href="#DejaVuSans-35" x="127.246094"/>
      </g>
     </g>
    </g>
    <g id="ytick_3">
     <g id="line2d_23">
      <path d="M 80.748 343.629915 
L 973.548 343.629915 
" clip-path="url(#pf61295d2ea)" style="fill: none; stroke: #a5a391; stroke-opacity: 0.3; stroke-width: 0.8; stroke-linecap: square"/>
     </g>
     <g id="line2d_24">
      <g>
       <use xlink:href="#mda515b44b3" x="80.748" y="343.629915" style="stroke: #000000; stroke-width: 0.8"/>
      </g>
     </g>
     <g id="text_12">
      <!-- 120 -->
      <g transform="translate(39.073 351.228352) scale(0.2 -0.2)">
       <use xlink:href="#DejaVuSans-31"/>
       <use xlink:href="#DejaVuSans-32" x="63.623047"/>
       <use xlink:href="#DejaVuSans-30" x="127.246094"/>
      </g>
     </g>
    </g>
    <g id="ytick_4">
     <g id="line2d_25">
      <path d="M 80.748 245.247105 
L 973.548 245.247105 
" clip-path="url(#pf61295d2ea)" style="fill: none; stroke: #a5a391; stroke-opacity: 0.3; stroke-width: 0.8; stroke-linecap: square"/>
     </g>
     <g id="line2d_26">
      <g>
       <use xlink:href="#mda515b44b3" x="80.748" y="245.247105" style="stroke: #000000; stroke-width: 0.8"/>
      </g>
     </g>
     <g id="text_13">
      <!-- 125 -->
      <g transform="translate(39.073 252.845542) scale(0.2 -0.2)">
       <use xlink:href="#DejaVuSans-31"/>
       <use xlink:href="#DejaVuSans-32" x="63.623047"/>
       <use xlink:href="#DejaVuSans-35" x="127.246094"/>
      </g>
     </g>
    </g>
    <g id="ytick_5">
     <g id="line2d_27">
      <path d="M 80.748 146.864295 
L 973.548 146.864295 
" clip-path="url(#pf61295d2ea)" style="fill: none; stroke: #a5a391; stroke-opacity: 0.3; stroke-width: 0.8; stroke-linecap: square"/>
     </g>
     <g id="line2d_28">
      <g>
       <use xlink:href="#mda515b44b3" x="80.748" y="146.864295" style="stroke: #000000; stroke-width: 0.8"/>
      </g>
     </g>
     <g id="text_14">
      <!-- 130 -->
      <g transform="translate(39.073 154.462732) scale(0.2 -0.2)">
       <defs>
        <path id="DejaVuSans-33" d="M 2597 2516 
Q 3050 2419 3304 2112 
Q 3559 1806 3559 1356 
Q 3559 666 3084 287 
Q 2609 -91 1734 -91 
Q 1441 -91 1130 -33 
Q 819 25 488 141 
L 488 750 
Q 750 597 1062 519 
Q 1375 441 1716 441 
Q 2309 441 2620 675 
Q 2931 909 2931 1356 
Q 2931 1769 2642 2001 
Q 2353 2234 1838 2234 
L 1294 2234 
L 1294 2753 
L 1863 2753 
Q 2328 2753 2575 2939 
Q 2822 3125 2822 3475 
Q 2822 3834 2567 4026 
Q 2313 4219 1838 4219 
Q 1578 4219 1281 4162 
Q 984 4106 628 3988 
L 628 4550 
Q 988 4650 1302 4700 
Q 1616 4750 1894 4750 
Q 2613 4750 3031 4423 
Q 3450 4097 3450 3541 
Q 3450 3153 3228 2886 
Q 3006 2619 2597 2516 
z
" transform="scale(0.015625)"/>
       </defs>
       <use xlink:href="#DejaVuSans-31"/>
       <use xlink:href="#DejaVuSans-33" x="63.623047"/>
       <use xlink:href="#DejaVuSans-30" x="127.246094"/>
      </g>
     </g>
    </g>
    <g id="ytick_6">
     <g id="line2d_29">
      <path d="M 80.748 48.481485 
L 973.548 48.481485 
" clip-path="url(#pf61295d2ea)" style="fill: none; stroke: #a5a391; stroke-opacity: 0.3; stroke-width: 0.8; stroke-linecap: square"/>
     </g>
     <g id="line2d_30">
      <g>
       <use xlink:href="#mda515b44b3" x="80.748" y="48.481485" style="stroke: #000000; stroke-width: 0.8"/>
      </g>
     </g>
     <g id="text_15">
      <!-- 135 -->
      <g transform="translate(39.073 56.079922) scale(0.2 -0.2)">
       <use xlink:href="#DejaVuSans-31"/>
       <use xlink:href="#DejaVuSans-33" x="63.623047"/>
       <use xlink:href="#DejaVuSans-35" x="127.246094"/>
      </g>
     </g>
    </g>
    <g id="text_16">
     <!-- Muscle Mass [lbs] -->
     <g transform="translate(29.0835 455.9595) rotate(-90) scale(0.288 -0.288)">
      <defs>
       <path id="DejaVuSans-75" d="M 544 1381 
L 544 3500 
L 1119 3500 
L 1119 1403 
Q 1119 906 1312 657 
Q 1506 409 1894 409 
Q 2359 409 2629 706 
Q 2900 1003 2900 1516 
L 2900 3500 
L 3475 3500 
L 3475 0 
L 2900 0 
L 2900 538 
Q 2691 219 2414 64 
Q 2138 -91 1772 -91 
Q 1169 -91 856 284 
Q 544 659 544 1381 
z
M 1991 3584 
L 1991 3584 
z
" transform="scale(0.015625)"/>
       <path id="DejaVuSans-73" d="M 2834 3397 
L 2834 2853 
Q 2591 2978 2328 3040 
Q 2066 3103 1784 3103 
Q 1356 3103 1142 2972 
Q 928 2841 928 2578 
Q 928 2378 1081 2264 
Q 1234 2150 1697 2047 
L 1894 2003 
Q 2506 1872 2764 1633 
Q 3022 1394 3022 966 
Q 3022 478 2636 193 
Q 2250 -91 1575 -91 
Q 1294 -91 989 -36 
Q 684 19 347 128 
L 347 722 
Q 666 556 975 473 
Q 1284 391 1588 391 
Q 1994 391 2212 530 
Q 2431 669 2431 922 
Q 2431 1156 2273 1281 
Q 2116 1406 1581 1522 
L 1381 1569 
Q 847 1681 609 1914 
Q 372 2147 372 2553 
Q 372 3047 722 3315 
Q 1072 3584 1716 3584 
Q 2034 3584 2315 3537 
Q 2597 3491 2834 3397 
z
" transform="scale(0.015625)"/>
       <path id="DejaVuSans-63" d="M 3122 3366 
L 3122 2828 
Q 2878 2963 2633 3030 
Q 2388 3097 2138 3097 
Q 1578 3097 1268 2742 
Q 959 2388 959 1747 
Q 959 1106 1268 751 
Q 1578 397 2138 397 
Q 2388 397 2633 464 
Q 2878 531 3122 666 
L 3122 134 
Q 2881 22 2623 -34 
Q 2366 -91 2075 -91 
Q 1284 -91 818 406 
Q 353 903 353 1747 
Q 353 2603 823 3093 
Q 1294 3584 2113 3584 
Q 2378 3584 2631 3529 
Q 2884 3475 3122 3366 
z
" transform="scale(0.015625)"/>
       <path id="DejaVuSans-6c" d="M 603 4863 
L 1178 4863 
L 1178 0 
L 603 0 
L 603 4863 
z
" transform="scale(0.015625)"/>
       <path id="DejaVuSans-5b" d="M 550 4863 
L 1875 4863 
L 1875 4416 
L 1125 4416 
L 1125 -397 
L 1875 -397 
L 1875 -844 
L 550 -844 
L 550 4863 
z
" transform="scale(0.015625)"/>
       <path id="DejaVuSans-62" d="M 3116 1747 
Q 3116 2381 2855 2742 
Q 2594 3103 2138 3103 
Q 1681 3103 1420 2742 
Q 1159 2381 1159 1747 
Q 1159 1113 1420 752 
Q 1681 391 2138 391 
Q 2594 391 2855 752 
Q 3116 1113 3116 1747 
z
M 1159 2969 
Q 1341 3281 1617 3432 
Q 1894 3584 2278 3584 
Q 2916 3584 3314 3078 
Q 3713 2572 3713 1747 
Q 3713 922 3314 415 
Q 2916 -91 2278 -91 
Q 1894 -91 1617 61 
Q 1341 213 1159 525 
L 1159 0 
L 581 0 
L 581 4863 
L 1159 4863 
L 1159 2969 
z
" transform="scale(0.015625)"/>
       <path id="DejaVuSans-5d" d="M 1947 4863 
L 1947 -844 
L 622 -844 
L 622 -397 
L 1369 -397 
L 1369 4416 
L 622 4416 
L 622 4863 
L 1947 4863 
z
" transform="scale(0.015625)"/>
      </defs>
      <use xlink:href="#DejaVuSans-4d"/>
      <use xlink:href="#DejaVuSans-75" x="86.279297"/>
      <use xlink:href="#DejaVuSans-73" x="149.658203"/>
      <use xlink:href="#DejaVuSans-63" x="201.757812"/>
      <use xlink:href="#DejaVuSans-6c" x="256.738281"/>
      <use xlink:href="#DejaVuSans-65" x="284.521484"/>
      <use xlink:href="#DejaVuSans-20" x="346.044922"/>
      <use xlink:href="#DejaVuSans-4d" x="377.832031"/>
      <use xlink:href="#DejaVuSans-61" x="464.111328"/>
      <use xlink:href="#DejaVuSans-73" x="525.390625"/>
      <use xlink:href="#DejaVuSans-73" x="577.490234"/>
      <use xlink:href="#DejaVuSans-20" x="629.589844"/>
      <use xlink:href="#DejaVuSans-5b" x="661.376953"/>
      <use xlink:href="#DejaVuSans-6c" x="700.390625"/>
      <use xlink:href="#DejaVuSans-62" x="728.173828"/>
      <use xlink:href="#DejaVuSans-73" x="791.650391"/>
      <use xlink:href="#DejaVuSans-5d" x="843.75"/>
     </g>
    </g>
   </g>
   <g id="line2d_31">
    <path d="M 121.329818 349.532884 
L 132.761316 503.993895 
L 138.477065 340.818978 
L 144.192814 343.629915 
L 149.908563 300.341478 
L 155.624312 377.08007 
L 161.340061 330.512207 
L 167.05581 326.904837 
L 172.77156 318.70627 
L 178.487309 275.089891 
L 184.203058 321.198634 
L 189.918807 371.177102 
L 195.634556 294.930424 
L 201.350305 288.535541 
L 207.066054 335.267376 
L 212.781803 303.784877 
L 218.497552 283.288458 
L 224.213301 277.123135 
L 229.92905 267.875151 
L 235.644799 280.664916 
L 241.360548 279.681088 
L 247.076297 282.632573 
L 252.792046 310.17976 
L 258.507795 293.946596 
L 264.223544 296.89808 
L 269.939293 285.584057 
L 275.655042 259.020698 
L 281.370791 221.63523 
L 287.08654 272.794292 
L 292.802289 290.109666 
L 298.518038 260.988354 
L 304.233787 243.279449 
L 309.949536 241.311792 
L 315.665286 222.815824 
L 321.381035 180.31445 
L 327.096784 214.25652 
L 332.812533 229.505855 
L 338.528282 200.384543 
L 344.244031 203.270439 
L 349.95978 187.693161 
L 355.675529 209.829293 
L 361.391278 244.591219 
L 367.107027 255.5773 
L 372.822776 205.402067 
L 378.538525 256.069214 
L 384.254274 269.514865 
L 389.970023 198.023356 
L 395.685772 173.427653 
L 401.401521 174.411482 
L 407.11727 213.764606 
L 412.833019 178.346794 
L 418.548768 194.579958 
L 424.264517 159.982003 
L 429.980266 128.031014 
L 435.696015 108.167056 
L 441.411764 145.880467 
L 447.127513 138.600139 
L 452.843262 113.414139 
L 458.559012 159.457294 
L 464.274761 173.427653 
L 469.99051 159.65406 
L 475.706259 148.831951 
L 481.422008 221.63523 
L 487.137757 189.496846 
L 492.853506 115.381795 
L 498.569255 147.651357 
L 504.285004 126.625545 
L 510.000753 165.065115 
L 515.716502 191.136559 
L 521.432251 182.937992 
L 527.148 172.443825 
L 532.863749 152.111378 
L 538.579498 133.090701 
L 544.295247 172.443825 
L 550.010996 165.229086 
L 555.726745 169.492341 
L 561.442494 142.273097 
L 567.158243 157.686404 
L 572.873992 148.831951 
L 578.589741 131.123045 
L 590.021239 194.088044 
L 595.736988 201.171606 
L 601.452738 164.901143 
L 607.168487 180.31445 
L 635.747232 184.249763 
L 641.462981 190.152731 
L 647.17873 255.5773 
L 652.894479 192.776273 
L 658.610228 243.279449 
L 681.473224 245.247105 
L 687.188973 253.11773 
L 692.904722 201.958668 
L 732.914965 259.020698 
L 738.630714 254.101558 
L 744.346464 255.741271 
L 750.062213 263.447925 
L 755.777962 185.233591 
L 761.493711 259.020698 
L 767.20946 266.891323 
L 772.925209 253.11773 
L 778.640958 302.309135 
L 784.356707 246.230933 
L 790.072456 327.888665 
L 795.788205 326.576895 
L 818.651201 303.292963 
L 824.36695 301.653249 
L 830.082699 302.96502 
L 835.798448 253.609644 
L 841.514197 327.888665 
L 870.092942 280.664916 
L 932.966182 249.182417 
" clip-path="url(#pf61295d2ea)" style="fill: none; stroke: #ff0000; stroke-width: 1.5; stroke-linecap: square"/>
    <defs>
     <path id="mc0b930c579" d="M 0 -3 
L -0.673542 -0.927051 
L -2.85317 -0.927051 
L -1.089814 0.354102 
L -1.763356 2.427051 
L -0 1.145898 
L 1.763356 2.427051 
L 1.089814 0.354102 
L 2.85317 -0.927051 
L 0.673542 -0.927051 
z
" style="stroke: #ff0000; stroke-linejoin: bevel"/>
    </defs>
    <g clip-path="url(#pf61295d2ea)">
     <use xlink:href="#mc0b930c579" x="121.329818" y="349.532884" style="fill: #ff0000; stroke: #ff0000; stroke-linejoin: bevel"/>
     <use xlink:href="#mc0b930c579" x="132.761316" y="503.993895" style="fill: #ff0000; stroke: #ff0000; stroke-linejoin: bevel"/>
     <use xlink:href="#mc0b930c579" x="138.477065" y="340.818978" style="fill: #ff0000; stroke: #ff0000; stroke-linejoin: bevel"/>
     <use xlink:href="#mc0b930c579" x="144.192814" y="343.629915" style="fill: #ff0000; stroke: #ff0000; stroke-linejoin: bevel"/>
     <use xlink:href="#mc0b930c579" x="149.908563" y="300.341478" style="fill: #ff0000; stroke: #ff0000; stroke-linejoin: bevel"/>
     <use xlink:href="#mc0b930c579" x="155.624312" y="377.08007" style="fill: #ff0000; stroke: #ff0000; stroke-linejoin: bevel"/>
     <use xlink:href="#mc0b930c579" x="161.340061" y="330.512207" style="fill: #ff0000; stroke: #ff0000; stroke-linejoin: bevel"/>
     <use xlink:href="#mc0b930c579" x="167.05581" y="326.904837" style="fill: #ff0000; stroke: #ff0000; stroke-linejoin: bevel"/>
     <use xlink:href="#mc0b930c579" x="172.77156" y="318.70627" style="fill: #ff0000; stroke: #ff0000; stroke-linejoin: bevel"/>
     <use xlink:href="#mc0b930c579" x="178.487309" y="275.089891" style="fill: #ff0000; stroke: #ff0000; stroke-linejoin: bevel"/>
     <use xlink:href="#mc0b930c579" x="184.203058" y="321.198634" style="fill: #ff0000; stroke: #ff0000; stroke-linejoin: bevel"/>
     <use xlink:href="#mc0b930c579" x="189.918807" y="371.177102" style="fill: #ff0000; stroke: #ff0000; stroke-linejoin: bevel"/>
     <use xlink:href="#mc0b930c579" x="195.634556" y="294.930424" style="fill: #ff0000; stroke: #ff0000; stroke-linejoin: bevel"/>
     <use xlink:href="#mc0b930c579" x="201.350305" y="288.535541" style="fill: #ff0000; stroke: #ff0000; stroke-linejoin: bevel"/>
     <use xlink:href="#mc0b930c579" x="207.066054" y="335.267376" style="fill: #ff0000; stroke: #ff0000; stroke-linejoin: bevel"/>
     <use xlink:href="#mc0b930c579" x="212.781803" y="303.784877" style="fill: #ff0000; stroke: #ff0000; stroke-linejoin: bevel"/>
     <use xlink:href="#mc0b930c579" x="218.497552" y="283.288458" style="fill: #ff0000; stroke: #ff0000; stroke-linejoin: bevel"/>
     <use xlink:href="#mc0b930c579" x="224.213301" y="277.123135" style="fill: #ff0000; stroke: #ff0000; stroke-linejoin: bevel"/>
     <use xlink:href="#mc0b930c579" x="229.92905" y="267.875151" style="fill: #ff0000; stroke: #ff0000; stroke-linejoin: bevel"/>
     <use xlink:href="#mc0b930c579" x="235.644799" y="280.664916" style="fill: #ff0000; stroke: #ff0000; stroke-linejoin: bevel"/>
     <use xlink:href="#mc0b930c579" x="241.360548" y="279.681088" style="fill: #ff0000; stroke: #ff0000; stroke-linejoin: bevel"/>
     <use xlink:href="#mc0b930c579" x="247.076297" y="282.632573" style="fill: #ff0000; stroke: #ff0000; stroke-linejoin: bevel"/>
     <use xlink:href="#mc0b930c579" x="252.792046" y="310.17976" style="fill: #ff0000; stroke: #ff0000; stroke-linejoin: bevel"/>
     <use xlink:href="#mc0b930c579" x="258.507795" y="293.946596" style="fill: #ff0000; stroke: #ff0000; stroke-linejoin: bevel"/>
     <use xlink:href="#mc0b930c579" x="264.223544" y="296.89808" style="fill: #ff0000; stroke: #ff0000; stroke-linejoin: bevel"/>
     <use xlink:href="#mc0b930c579" x="269.939293" y="285.584057" style="fill: #ff0000; stroke: #ff0000; stroke-linejoin: bevel"/>
     <use xlink:href="#mc0b930c579" x="275.655042" y="259.020698" style="fill: #ff0000; stroke: #ff0000; stroke-linejoin: bevel"/>
     <use xlink:href="#mc0b930c579" x="281.370791" y="221.63523" style="fill: #ff0000; stroke: #ff0000; stroke-linejoin: bevel"/>
     <use xlink:href="#mc0b930c579" x="287.08654" y="272.794292" style="fill: #ff0000; stroke: #ff0000; stroke-linejoin: bevel"/>
     <use xlink:href="#mc0b930c579" x="292.802289" y="290.109666" style="fill: #ff0000; stroke: #ff0000; stroke-linejoin: bevel"/>
     <use xlink:href="#mc0b930c579" x="298.518038" y="260.988354" style="fill: #ff0000; stroke: #ff0000; stroke-linejoin: bevel"/>
     <use xlink:href="#mc0b930c579" x="304.233787" y="243.279449" style="fill: #ff0000; stroke: #ff0000; stroke-linejoin: bevel"/>
     <use xlink:href="#mc0b930c579" x="309.949536" y="241.311792" style="fill: #ff0000; stroke: #ff0000; stroke-linejoin: bevel"/>
     <use xlink:href="#mc0b930c579" x="315.665286" y="222.815824" style="fill: #ff0000; stroke: #ff0000; stroke-linejoin: bevel"/>
     <use xlink:href="#mc0b930c579" x="321.381035" y="180.31445" style="fill: #ff0000; stroke: #ff0000; stroke-linejoin: bevel"/>
     <use xlink:href="#mc0b930c579" x="327.096784" y="214.25652" style="fill: #ff0000; stroke: #ff0000; stroke-linejoin: bevel"/>
     <use xlink:href="#mc0b930c579" x="332.812533" y="229.505855" style="fill: #ff0000; stroke: #ff0000; stroke-linejoin: bevel"/>
     <use xlink:href="#mc0b930c579" x="338.528282" y="200.384543" style="fill: #ff0000; stroke: #ff0000; stroke-linejoin: bevel"/>
     <use xlink:href="#mc0b930c579" x="344.244031" y="203.270439" style="fill: #ff0000; stroke: #ff0000; stroke-linejoin: bevel"/>
     <use xlink:href="#mc0b930c579" x="349.95978" y="187.693161" style="fill: #ff0000; stroke: #ff0000; stroke-linejoin: bevel"/>
     <use xlink:href="#mc0b930c579" x="355.675529" y="209.829293" style="fill: #ff0000; stroke: #ff0000; stroke-linejoin: bevel"/>
     <use xlink:href="#mc0b930c579" x="361.391278" y="244.591219" style="fill: #ff0000; stroke: #ff0000; stroke-linejoin: bevel"/>
     <use xlink:href="#mc0b930c579" x="367.107027" y="255.5773" style="fill: #ff0000; stroke: #ff0000; stroke-linejoin: bevel"/>
     <use xlink:href="#mc0b930c579" x="372.822776" y="205.402067" style="fill: #ff0000; stroke: #ff0000; stroke-linejoin: bevel"/>
     <use xlink:href="#mc0b930c579" x="378.538525" y="256.069214" style="fill: #ff0000; stroke: #ff0000; stroke-linejoin: bevel"/>
     <use xlink:href="#mc0b930c579" x="384.254274" y="269.514865" style="fill: #ff0000; stroke: #ff0000; stroke-linejoin: bevel"/>
     <use xlink:href="#mc0b930c579" x="389.970023" y="198.023356" style="fill: #ff0000; stroke: #ff0000; stroke-linejoin: bevel"/>
     <use xlink:href="#mc0b930c579" x="395.685772" y="173.427653" style="fill: #ff0000; stroke: #ff0000; stroke-linejoin: bevel"/>
     <use xlink:href="#mc0b930c579" x="401.401521" y="174.411482" style="fill: #ff0000; stroke: #ff0000; stroke-linejoin: bevel"/>
     <use xlink:href="#mc0b930c579" x="407.11727" y="213.764606" style="fill: #ff0000; stroke: #ff0000; stroke-linejoin: bevel"/>
     <use xlink:href="#mc0b930c579" x="412.833019" y="178.346794" style="fill: #ff0000; stroke: #ff0000; stroke-linejoin: bevel"/>
     <use xlink:href="#mc0b930c579" x="418.548768" y="194.579958" style="fill: #ff0000; stroke: #ff0000; stroke-linejoin: bevel"/>
     <use xlink:href="#mc0b930c579" x="424.264517" y="159.982003" style="fill: #ff0000; stroke: #ff0000; stroke-linejoin: bevel"/>
     <use xlink:href="#mc0b930c579" x="429.980266" y="128.031014" style="fill: #ff0000; stroke: #ff0000; stroke-linejoin: bevel"/>
     <use xlink:href="#mc0b930c579" x="435.696015" y="108.167056" style="fill: #ff0000; stroke: #ff0000; stroke-linejoin: bevel"/>
     <use xlink:href="#mc0b930c579" x="441.411764" y="145.880467" style="fill: #ff0000; stroke: #ff0000; stroke-linejoin: bevel"/>
     <use xlink:href="#mc0b930c579" x="447.127513" y="138.600139" style="fill: #ff0000; stroke: #ff0000; stroke-linejoin: bevel"/>
     <use xlink:href="#mc0b930c579" x="452.843262" y="113.414139" style="fill: #ff0000; stroke: #ff0000; stroke-linejoin: bevel"/>
     <use xlink:href="#mc0b930c579" x="458.559012" y="159.457294" style="fill: #ff0000; stroke: #ff0000; stroke-linejoin: bevel"/>
     <use xlink:href="#mc0b930c579" x="464.274761" y="173.427653" style="fill: #ff0000; stroke: #ff0000; stroke-linejoin: bevel"/>
     <use xlink:href="#mc0b930c579" x="469.99051" y="159.65406" style="fill: #ff0000; stroke: #ff0000; stroke-linejoin: bevel"/>
     <use xlink:href="#mc0b930c579" x="475.706259" y="148.831951" style="fill: #ff0000; stroke: #ff0000; stroke-linejoin: bevel"/>
     <use xlink:href="#mc0b930c579" x="481.422008" y="221.63523" style="fill: #ff0000; stroke: #ff0000; stroke-linejoin: bevel"/>
     <use xlink:href="#mc0b930c579" x="487.137757" y="189.496846" style="fill: #ff0000; stroke: #ff0000; stroke-linejoin: bevel"/>
     <use xlink:href="#mc0b930c579" x="492.853506" y="115.381795" style="fill: #ff0000; stroke: #ff0000; stroke-linejoin: bevel"/>
     <use xlink:href="#mc0b930c579" x="498.569255" y="147.651357" style="fill: #ff0000; stroke: #ff0000; stroke-linejoin: bevel"/>
     <use xlink:href="#mc0b930c579" x="504.285004" y="126.625545" style="fill: #ff0000; stroke: #ff0000; stroke-linejoin: bevel"/>
     <use xlink:href="#mc0b930c579" x="510.000753" y="165.065115" style="fill: #ff0000; stroke: #ff0000; stroke-linejoin: bevel"/>
     <use xlink:href="#mc0b930c579" x="515.716502" y="191.136559" style="fill: #ff0000; stroke: #ff0000; stroke-linejoin: bevel"/>
     <use xlink:href="#mc0b930c579" x="521.432251" y="182.937992" style="fill: #ff0000; stroke: #ff0000; stroke-linejoin: bevel"/>
     <use xlink:href="#mc0b930c579" x="527.148" y="172.443825" style="fill: #ff0000; stroke: #ff0000; stroke-linejoin: bevel"/>
     <use xlink:href="#mc0b930c579" x="532.863749" y="152.111378" style="fill: #ff0000; stroke: #ff0000; stroke-linejoin: bevel"/>
     <use xlink:href="#mc0b930c579" x="538.579498" y="133.090701" style="fill: #ff0000; stroke: #ff0000; stroke-linejoin: bevel"/>
     <use xlink:href="#mc0b930c579" x="544.295247" y="172.443825" style="fill: #ff0000; stroke: #ff0000; stroke-linejoin: bevel"/>
     <use xlink:href="#mc0b930c579" x="550.010996" y="165.229086" style="fill: #ff0000; stroke: #ff0000; stroke-linejoin: bevel"/>
     <use xlink:href="#mc0b930c579" x="555.726745" y="169.492341" style="fill: #ff0000; stroke: #ff0000; stroke-linejoin: bevel"/>
     <use xlink:href="#mc0b930c579" x="561.442494" y="142.273097" style="fill: #ff0000; stroke: #ff0000; stroke-linejoin: bevel"/>
     <use xlink:href="#mc0b930c579" x="567.158243" y="157.686404" style="fill: #ff0000; stroke: #ff0000; stroke-linejoin: bevel"/>
     <use xlink:href="#mc0b930c579" x="572.873992" y="148.831951" style="fill: #ff0000; stroke: #ff0000; stroke-linejoin: bevel"/>
     <use xlink:href="#mc0b930c579" x="578.589741" y="131.123045" style="fill: #ff0000; stroke: #ff0000; stroke-linejoin: bevel"/>
     <use xlink:href="#mc0b930c579" x="590.021239" y="194.088044" style="fill: #ff0000; stroke: #ff0000; stroke-linejoin: bevel"/>
     <use xlink:href="#mc0b930c579" x="595.736988" y="201.171606" style="fill: #ff0000; stroke: #ff0000; stroke-linejoin: bevel"/>
     <use xlink:href="#mc0b930c579" x="601.452738" y="164.901143" style="fill: #ff0000; stroke: #ff0000; stroke-linejoin: bevel"/>
     <use xlink:href="#mc0b930c579" x="607.168487" y="180.31445" style="fill: #ff0000; stroke: #ff0000; stroke-linejoin: bevel"/>
     <use xlink:href="#mc0b930c579" x="635.747232" y="184.249763" style="fill: #ff0000; stroke: #ff0000; stroke-linejoin: bevel"/>
     <use xlink:href="#mc0b930c579" x="641.462981" y="190.152731" style="fill: #ff0000; stroke: #ff0000; stroke-linejoin: bevel"/>
     <use xlink:href="#mc0b930c579" x="647.17873" y="255.5773" style="fill: #ff0000; stroke: #ff0000; stroke-linejoin: bevel"/>
     <use xlink:href="#mc0b930c579" x="652.894479" y="192.776273" style="fill: #ff0000; stroke: #ff0000; stroke-linejoin: bevel"/>
     <use xlink:href="#mc0b930c579" x="658.610228" y="243.279449" style="fill: #ff0000; stroke: #ff0000; stroke-linejoin: bevel"/>
     <use xlink:href="#mc0b930c579" x="681.473224" y="245.247105" style="fill: #ff0000; stroke: #ff0000; stroke-linejoin: bevel"/>
     <use xlink:href="#mc0b930c579" x="687.188973" y="253.11773" style="fill: #ff0000; stroke: #ff0000; stroke-linejoin: bevel"/>
     <use xlink:href="#mc0b930c579" x="692.904722" y="201.958668" style="fill: #ff0000; stroke: #ff0000; stroke-linejoin: bevel"/>
     <use xlink:href="#mc0b930c579" x="732.914965" y="259.020698" style="fill: #ff0000; stroke: #ff0000; stroke-linejoin: bevel"/>
     <use xlink:href="#mc0b930c579" x="738.630714" y="254.101558" style="fill: #ff0000; stroke: #ff0000; stroke-linejoin: bevel"/>
     <use xlink:href="#mc0b930c579" x="744.346464" y="255.741271" style="fill: #ff0000; stroke: #ff0000; stroke-linejoin: bevel"/>
     <use xlink:href="#mc0b930c579" x="750.062213" y="263.447925" style="fill: #ff0000; stroke: #ff0000; stroke-linejoin: bevel"/>
     <use xlink:href="#mc0b930c579" x="755.777962" y="185.233591" style="fill: #ff0000; stroke: #ff0000; stroke-linejoin: bevel"/>
     <use xlink:href="#mc0b930c579" x="761.493711" y="259.020698" style="fill: #ff0000; stroke: #ff0000; stroke-linejoin: bevel"/>
     <use xlink:href="#mc0b930c579" x="767.20946" y="266.891323" style="fill: #ff0000; stroke: #ff0000; stroke-linejoin: bevel"/>
     <use xlink:href="#mc0b930c579" x="772.925209" y="253.11773" style="fill: #ff0000; stroke: #ff0000; stroke-linejoin: bevel"/>
     <use xlink:href="#mc0b930c579" x="778.640958" y="302.309135" style="fill: #ff0000; stroke: #ff0000; stroke-linejoin: bevel"/>
     <use xlink:href="#mc0b930c579" x="784.356707" y="246.230933" style="fill: #ff0000; stroke: #ff0000; stroke-linejoin: bevel"/>
     <use xlink:href="#mc0b930c579" x="790.072456" y="327.888665" style="fill: #ff0000; stroke: #ff0000; stroke-linejoin: bevel"/>
     <use xlink:href="#mc0b930c579" x="795.788205" y="326.576895" style="fill: #ff0000; stroke: #ff0000; stroke-linejoin: bevel"/>
     <use xlink:href="#mc0b930c579" x="818.651201" y="303.292963" style="fill: #ff0000; stroke: #ff0000; stroke-linejoin: bevel"/>
     <use xlink:href="#mc0b930c579" x="824.36695" y="301.653249" style="fill: #ff0000; stroke: #ff0000; stroke-linejoin: bevel"/>
     <use xlink:href="#mc0b930c579" x="830.082699" y="302.96502" style="fill: #ff0000; stroke: #ff0000; stroke-linejoin: bevel"/>
     <use xlink:href="#mc0b930c579" x="835.798448" y="253.609644" style="fill: #ff0000; stroke: #ff0000; stroke-linejoin: bevel"/>
     <use xlink:href="#mc0b930c579" x="841.514197" y="327.888665" style="fill: #ff0000; stroke: #ff0000; stroke-linejoin: bevel"/>
     <use xlink:href="#mc0b930c579" x="870.092942" y="280.664916" style="fill: #ff0000; stroke: #ff0000; stroke-linejoin: bevel"/>
     <use xlink:href="#mc0b930c579" x="932.966182" y="249.182417" style="fill: #ff0000; stroke: #ff0000; stroke-linejoin: bevel"/>
    </g>
   </g>
   <g id="patch_3">
    <path d="M 80.748 622.6035 
L 80.748 35.0835 
" style="fill: none; stroke: #000000; stroke-width: 0.8; stroke-linejoin: miter; stroke-linecap: square"/>
   </g>
   <g id="patch_4">
    <path d="M 973.548 622.6035 
L 973.548 35.0835 
" style="fill: none; stroke: #000000; stroke-width: 0.8; stroke-linejoin: miter; stroke-linecap: square"/>
   </g>
   <g id="patch_5">
    <path d="M 80.748 622.6035 
L 973.548 622.6035 
" style="fill: none; stroke: #000000; stroke-width: 0.8; stroke-linejoin: miter; stroke-linecap: square"/>
   </g>
   <g id="patch_6">
    <path d="M 80.748 35.0835 
L 973.548 35.0835 
" style="fill: none; stroke: #000000; stroke-width: 0.8; stroke-linejoin: miter; stroke-linecap: square"/>
   </g>
   <g id="text_17">
    <!-- Body Muscle Mass -->
    <g transform="translate(395.55675 29.0835) scale(0.288 -0.288)">
     <defs>
      <path id="DejaVuSans-42" d="M 1259 2228 
L 1259 519 
L 2272 519 
Q 2781 519 3026 730 
Q 3272 941 3272 1375 
Q 3272 1813 3026 2020 
Q 2781 2228 2272 2228 
L 1259 2228 
z
M 1259 4147 
L 1259 2741 
L 2194 2741 
Q 2656 2741 2882 2914 
Q 3109 3088 3109 3444 
Q 3109 3797 2882 3972 
Q 2656 4147 2194 4147 
L 1259 4147 
z
M 628 4666 
L 2241 4666 
Q 2963 4666 3353 4366 
Q 3744 4066 3744 3513 
Q 3744 3084 3544 2831 
Q 3344 2578 2956 2516 
Q 3422 2416 3680 2098 
Q 3938 1781 3938 1306 
Q 3938 681 3513 340 
Q 3088 0 2303 0 
L 628 0 
L 628 4666 
z
" transform="scale(0.015625)"/>
      <path id="DejaVuSans-6f" d="M 1959 3097 
Q 1497 3097 1228 2736 
Q 959 2375 959 1747 
Q 959 1119 1226 758 
Q 1494 397 1959 397 
Q 2419 397 2687 759 
Q 2956 1122 2956 1747 
Q 2956 2369 2687 2733 
Q 2419 3097 1959 3097 
z
M 1959 3584 
Q 2709 3584 3137 3096 
Q 3566 2609 3566 1747 
Q 3566 888 3137 398 
Q 2709 -91 1959 -91 
Q 1206 -91 779 398 
Q 353 888 353 1747 
Q 353 2609 779 3096 
Q 1206 3584 1959 3584 
z
" transform="scale(0.015625)"/>
      <path id="DejaVuSans-64" d="M 2906 2969 
L 2906 4863 
L 3481 4863 
L 3481 0 
L 2906 0 
L 2906 525 
Q 2725 213 2448 61 
Q 2172 -91 1784 -91 
Q 1150 -91 751 415 
Q 353 922 353 1747 
Q 353 2572 751 3078 
Q 1150 3584 1784 3584 
Q 2172 3584 2448 3432 
Q 2725 3281 2906 2969 
z
M 947 1747 
Q 947 1113 1208 752 
Q 1469 391 1925 391 
Q 2381 391 2643 752 
Q 2906 1113 2906 1747 
Q 2906 2381 2643 2742 
Q 2381 3103 1925 3103 
Q 1469 3103 1208 2742 
Q 947 2381 947 1747 
z
" transform="scale(0.015625)"/>
     </defs>
     <use xlink:href="#DejaVuSans-42"/>
     <use xlink:href="#DejaVuSans-6f" x="68.603516"/>
     <use xlink:href="#DejaVuSans-64" x="129.785156"/>
     <use xlink:href="#DejaVuSans-79" x="193.261719"/>
     <use xlink:href="#DejaVuSans-20" x="252.441406"/>
     <use xlink:href="#DejaVuSans-4d" x="284.228516"/>
     <use xlink:href="#DejaVuSans-75" x="370.507812"/>
     <use xlink:href="#DejaVuSans-73" x="433.886719"/>
     <use xlink:href="#DejaVuSans-63" x="485.986328"/>
     <use xlink:href="#DejaVuSans-6c" x="540.966797"/>
     <use xlink:href="#DejaVuSans-65" x="568.75"/>
     <use xlink:href="#DejaVuSans-20" x="630.273438"/>
     <use xlink:href="#DejaVuSans-4d" x="662.060547"/>
     <use xlink:href="#DejaVuSans-61" x="748.339844"/>
     <use xlink:href="#DejaVuSans-73" x="809.619141"/>
     <use xlink:href="#DejaVuSans-73" x="861.71875"/>
    </g>
   </g>
  </g>
 </g>
 <defs>
  <clipPath id="pf61295d2ea">
   <rect x="80.748" y="35.0835" width="892.8" height="587.52"/>
  </clipPath>
 </defs>
</svg>
