<?xml version="1.0" encoding="utf-8" standalone="no"?>
<!DOCTYPE svg PUBLIC "-//W3C//DTD SVG 1.1//EN"
  "http://www.w3.org/Graphics/SVG/1.1/DTD/svg11.dtd">
<svg xmlns:xlink="http://www.w3.org/1999/xlink" width="968.023pt" height="700.466504pt" viewBox="0 0 968.023 700.466504" xmlns="http://www.w3.org/2000/svg" version="1.1">
 <metadata>
  <rdf:RDF xmlns:dc="http://purl.org/dc/elements/1.1/" xmlns:cc="http://creativecommons.org/ns#" xmlns:rdf="http://www.w3.org/1999/02/22-rdf-syntax-ns#">
   <cc:Work>
    <dc:type rdf:resource="http://purl.org/dc/dcmitype/StillImage"/>
    <dc:date>2023-10-22T19:14:12.057829</dc:date>
    <dc:format>image/svg+xml</dc:format>
    <dc:creator>
     <cc:Agent>
      <dc:title>Matplotlib v3.8.0, https://matplotlib.org/</dc:title>
     </cc:Agent>
    </dc:creator>
   </cc:Work>
  </rdf:RDF>
 </metadata>
 <defs>
  <style type="text/css">*{stroke-linejoin: round; stroke-linecap: butt}</style>
 </defs>
 <g id="figure_1">
  <g id="patch_1">
   <path d="M 0 700.466504 
L 968.023 700.466504 
L 968.023 0 
L 0 0 
z
" style="fill: #ffffff"/>
  </g>
  <g id="axes_1">
   <g id="patch_2">
    <path d="M 68.023 622.6035 
L 960.823 622.6035 
L 960.823 35.0835 
L 68.023 35.0835 
z
" style="fill: #ffffff"/>
   </g>
   <g id="PolyCollection_1">
    <defs>
     <path id="md74a2a352f" d="M 108.604818 -339.949466 
L 108.604818 -261.529976 
L 116.761968 -368.93771 
L 120.840542 -222.754182 
L 124.919117 -273.670468 
L 128.997692 -213.339663 
L 133.076266 -318.902308 
L 137.154841 -251.574688 
L 141.233416 -201.406295 
L 145.31199 -209.421985 
L 149.390565 -241.67277 
L 153.46914 -284.092439 
L 157.547714 -295.798374 
L 161.626289 -209.736851 
L 165.704864 -192.044837 
L 169.783439 -241.278192 
L 173.862013 -192.32785 
L 177.940588 -159.453481 
L 182.019163 -147.340525 
L 186.097737 -146.587692 
L 190.176312 -174.69173 
L 194.254887 -160.02262 
L 198.333461 -164.976933 
L 202.412036 -206.356809 
L 206.490611 -141.251017 
L 210.569185 -172.244992 
L 214.64776 -175.197356 
L 218.726335 -175.902966 
L 222.80491 -174.172461 
L 226.883484 -212.487161 
L 230.962059 -232.395208 
L 235.040634 -220.150101 
L 239.119208 -202.292432 
L 243.197783 -197.161281 
L 247.276358 -227.036026 
L 251.354932 -166.509521 
L 255.433507 -227.596989 
L 259.512082 -264.599633 
L 263.590656 -237.841725 
L 267.669231 -218.617513 
L 271.747806 -203.957928 
L 275.826381 -252.083536 
L 279.904955 -244.671509 
L 283.98353 -285.175533 
L 288.062105 -256.775085 
L 292.140679 -275.323268 
L 296.219254 -318.235732 
L 300.297829 -233.943393 
L 304.376403 -275.323268 
L 308.454978 -306.85343 
L 312.533553 -339.333024 
L 316.612127 -282.219914 
L 320.690702 -275.517117 
L 324.769277 -285.980373 
L 328.847852 -280.89611 
L 332.926426 -259.415613 
L 337.005001 -254.633331 
L 341.083576 -242.636575 
L 345.16215 -252.334449 
L 349.240725 -278.429299 
L 353.3193 -295.033769 
L 357.397874 -273.46103 
L 361.476449 -261.529976 
L 365.555024 -362.680784 
L 369.633598 -348.887492 
L 373.712173 -289.11656 
L 377.790748 -287.996282 
L 381.869323 -273.805804 
L 385.947897 -294.33738 
L 390.026472 -337.393082 
L 394.105047 -296.7795 
L 398.183621 -298.393227 
L 402.262196 -275.408072 
L 406.340771 -229.345629 
L 410.419345 -262.967368 
L 414.49792 -266.12774 
L 418.576495 -289.184898 
L 422.655069 -216.392681 
L 426.733644 -263.828858 
L 430.812219 -215.552337 
L 434.890794 -185.381042 
L 443.047943 -243.138921 
L 447.126518 -230.958339 
L 451.205092 -189.669017 
L 455.283667 -256.932212 
L 475.67654 -256.932212 
L 479.755115 -256.932212 
L 483.83369 -293.223935 
L 487.912265 -273.79068 
L 491.990839 -330.496436 
L 508.305138 -289.11656 
L 512.383713 -344.289728 
L 516.462287 -279.921032 
L 545.01231 -337.086094 
L 549.090885 -364.979666 
L 553.16946 -330.496436 
L 557.248034 -298.398297 
L 561.326609 -236.242275 
L 565.405184 -238.541157 
L 569.483758 -328.197554 
L 573.562333 -275.323268 
L 577.640908 -325.898672 
L 581.719482 -225.285656 
L 585.798057 -307.507616 
L 589.876632 -316.703144 
L 606.190931 -328.197554 
L 610.269505 -350.42008 
L 614.34808 -341.224552 
L 618.426655 -282.136531 
L 622.505229 -399.462895 
L 642.898103 -385.669604 
L 687.762424 -321.300908 
L 708.155298 -330.496436 
L 712.233873 -314.404262 
L 720.391022 -358.08302 
L 732.626746 -302.909852 
L 785.648217 -390.267367 
L 920.241182 -104.568459 
L 920.241182 -196.523738 
L 920.241182 -196.523738 
L 785.648217 -468.686857 
L 732.626746 -381.329342 
L 720.391022 -436.502509 
L 712.233873 -392.823752 
L 708.155298 -408.915926 
L 687.762424 -399.720398 
L 642.898103 -464.089093 
L 622.505229 -477.882385 
L 618.426655 -344.630613 
L 614.34808 -419.644041 
L 610.269505 -428.839569 
L 606.190931 -406.617044 
L 589.876632 -395.122634 
L 585.798057 -385.927106 
L 581.719482 -366.998259 
L 577.640908 -404.318162 
L 573.562333 -353.742758 
L 569.483758 -406.617044 
L 565.405184 -316.960646 
L 561.326609 -314.661764 
L 557.248034 -360.553196 
L 553.16946 -408.915926 
L 549.090885 -443.399155 
L 545.01231 -367.843038 
L 516.462287 -358.340522 
L 512.383713 -422.709217 
L 508.305138 -367.53605 
L 491.990839 -408.915926 
L 487.912265 -352.21017 
L 483.83369 -404.80855 
L 479.755115 -335.351702 
L 475.67654 -335.351702 
L 455.283667 -335.351702 
L 451.205092 -287.670799 
L 447.126518 -311.669725 
L 443.047943 -321.55841 
L 434.890794 -236.785606 
L 430.812219 -293.971826 
L 426.733644 -342.248348 
L 422.655069 -302.32701 
L 418.576495 -332.984482 
L 414.49792 -344.54723 
L 410.419345 -370.696422 
L 406.340771 -307.765118 
L 402.262196 -368.983834 
L 398.183621 -400.558812 
L 394.105047 -375.19899 
L 390.026472 -415.812572 
L 385.947897 -438.178336 
L 381.869323 -377.592219 
L 377.790748 -385.208279 
L 373.712173 -367.53605 
L 369.633598 -427.306981 
L 365.555024 -441.100273 
L 361.476449 -339.949466 
L 357.397874 -341.811705 
L 353.3193 -355.488489 
L 349.240725 -348.797622 
L 345.16215 -330.753938 
L 341.083576 -366.19929 
L 337.005001 -333.05282 
L 332.926426 -343.596418 
L 328.847852 -358.679091 
L 324.769277 -389.063293 
L 320.690702 -397.227667 
L 316.612127 -360.639404 
L 312.533553 -388.584928 
L 308.454978 -324.511478 
L 304.376403 -353.742758 
L 300.297829 -312.362882 
L 296.219254 -396.655222 
L 292.140679 -353.742758 
L 288.062105 -312.52001 
L 283.98353 -334.694966 
L 279.904955 -323.090998 
L 275.826381 -294.222739 
L 271.747806 -250.393068 
L 267.669231 -297.037002 
L 263.590656 -295.590811 
L 259.512082 -326.151694 
L 255.433507 -277.32941 
L 251.354932 -244.929011 
L 247.276358 -269.614398 
L 243.197783 -275.580771 
L 239.119208 -294.357992 
L 235.040634 -298.56959 
L 230.962059 -337.819439 
L 226.883484 -290.90665 
L 222.80491 -252.591951 
L 218.726335 -282.126241 
L 214.64776 -274.555876 
L 210.569185 -259.117184 
L 206.490611 -294.708923 
L 202.412036 -284.776299 
L 198.333461 -243.396423 
L 194.254887 -193.177568 
L 190.176312 -194.600632 
L 186.097737 -167.531503 
L 182.019163 -192.985925 
L 177.940588 -241.256935 
L 173.862013 -294.207494 
L 169.783439 -334.913549 
L 165.704864 -273.340793 
L 161.626289 -283.695139 
L 157.547714 -343.995768 
L 153.46914 -381.755699 
L 149.390565 -307.698681 
L 145.31199 -287.841474 
L 141.233416 -283.596461 
L 137.154841 -290.133823 
L 133.076266 -356.141358 
L 128.997692 -275.494562 
L 124.919117 -314.015683 
L 120.840542 -313.042918 
L 116.761968 -638.67755 
L 108.604818 -339.949466 
z
" style="stroke: #bfbf00; stroke-opacity: 0.2"/>
    </defs>
    <g clip-path="url(#p978c2a105e)">
     <use xlink:href="#md74a2a352f" x="0" y="700.466504" style="fill: #bfbf00; fill-opacity: 0.2; stroke: #bfbf00; stroke-opacity: 0.2"/>
    </g>
   </g>
   <g id="matplotlib.axis_1">
    <g id="xtick_1">
     <g id="line2d_1">
      <path d="M 112.683393 622.6035 
L 112.683393 35.0835 
" clip-path="url(#p978c2a105e)" style="fill: none; stroke: #a5a391; stroke-opacity: 0.3; stroke-width: 0.8; stroke-linecap: square"/>
     </g>
     <g id="line2d_2">
      <defs>
       <path id="mee12207cce" d="M 0 0 
L 0 -3.5 
" style="stroke: #000000; stroke-width: 0.8"/>
      </defs>
      <g>
       <use xlink:href="#mee12207cce" x="112.683393" y="622.6035" style="stroke: #000000; stroke-width: 0.8"/>
      </g>
     </g>
     <g id="text_1">
      <!-- Jan 01, 20 -->
      <g transform="translate(23.308345 689.66438) rotate(-30) scale(0.2 -0.2)">
       <defs>
        <path id="DejaVuSans-4a" d="M 628 4666 
L 1259 4666 
L 1259 325 
Q 1259 -519 939 -900 
Q 619 -1281 -91 -1281 
L -331 -1281 
L -331 -750 
L -134 -750 
Q 284 -750 456 -515 
Q 628 -281 628 325 
L 628 4666 
z
" transform="scale(0.015625)"/>
        <path id="DejaVuSans-61" d="M 2194 1759 
Q 1497 1759 1228 1600 
Q 959 1441 959 1056 
Q 959 750 1161 570 
Q 1363 391 1709 391 
Q 2188 391 2477 730 
Q 2766 1069 2766 1631 
L 2766 1759 
L 2194 1759 
z
M 3341 1997 
L 3341 0 
L 2766 0 
L 2766 531 
Q 2569 213 2275 61 
Q 1981 -91 1556 -91 
Q 1019 -91 701 211 
Q 384 513 384 1019 
Q 384 1609 779 1909 
Q 1175 2209 1959 2209 
L 2766 2209 
L 2766 2266 
Q 2766 2663 2505 2880 
Q 2244 3097 1772 3097 
Q 1472 3097 1187 3025 
Q 903 2953 641 2809 
L 641 3341 
Q 956 3463 1253 3523 
Q 1550 3584 1831 3584 
Q 2591 3584 2966 3190 
Q 3341 2797 3341 1997 
z
" transform="scale(0.015625)"/>
        <path id="DejaVuSans-6e" d="M 3513 2113 
L 3513 0 
L 2938 0 
L 2938 2094 
Q 2938 2591 2744 2837 
Q 2550 3084 2163 3084 
Q 1697 3084 1428 2787 
Q 1159 2491 1159 1978 
L 1159 0 
L 581 0 
L 581 3500 
L 1159 3500 
L 1159 2956 
Q 1366 3272 1645 3428 
Q 1925 3584 2291 3584 
Q 2894 3584 3203 3211 
Q 3513 2838 3513 2113 
z
" transform="scale(0.015625)"/>
        <path id="DejaVuSans-20" transform="scale(0.015625)"/>
        <path id="DejaVuSans-30" d="M 2034 4250 
Q 1547 4250 1301 3770 
Q 1056 3291 1056 2328 
Q 1056 1369 1301 889 
Q 1547 409 2034 409 
Q 2525 409 2770 889 
Q 3016 1369 3016 2328 
Q 3016 3291 2770 3770 
Q 2525 4250 2034 4250 
z
M 2034 4750 
Q 2819 4750 3233 4129 
Q 3647 3509 3647 2328 
Q 3647 1150 3233 529 
Q 2819 -91 2034 -91 
Q 1250 -91 836 529 
Q 422 1150 422 2328 
Q 422 3509 836 4129 
Q 1250 4750 2034 4750 
z
" transform="scale(0.015625)"/>
        <path id="DejaVuSans-31" d="M 794 531 
L 1825 531 
L 1825 4091 
L 703 3866 
L 703 4441 
L 1819 4666 
L 2450 4666 
L 2450 531 
L 3481 531 
L 3481 0 
L 794 0 
L 794 531 
z
" transform="scale(0.015625)"/>
        <path id="DejaVuSans-2c" d="M 750 794 
L 1409 794 
L 1409 256 
L 897 -744 
L 494 -744 
L 750 256 
L 750 794 
z
" transform="scale(0.015625)"/>
        <path id="DejaVuSans-32" d="M 1228 531 
L 3431 531 
L 3431 0 
L 469 0 
L 469 531 
Q 828 903 1448 1529 
Q 2069 2156 2228 2338 
Q 2531 2678 2651 2914 
Q 2772 3150 2772 3378 
Q 2772 3750 2511 3984 
Q 2250 4219 1831 4219 
Q 1534 4219 1204 4116 
Q 875 4013 500 3803 
L 500 4441 
Q 881 4594 1212 4672 
Q 1544 4750 1819 4750 
Q 2544 4750 2975 4387 
Q 3406 4025 3406 3419 
Q 3406 3131 3298 2873 
Q 3191 2616 2906 2266 
Q 2828 2175 2409 1742 
Q 1991 1309 1228 531 
z
" transform="scale(0.015625)"/>
       </defs>
       <use xlink:href="#DejaVuSans-4a"/>
       <use xlink:href="#DejaVuSans-61" x="29.492188"/>
       <use xlink:href="#DejaVuSans-6e" x="90.771484"/>
       <use xlink:href="#DejaVuSans-20" x="154.150391"/>
       <use xlink:href="#DejaVuSans-30" x="185.9375"/>
       <use xlink:href="#DejaVuSans-31" x="249.560547"/>
       <use xlink:href="#DejaVuSans-2c" x="313.183594"/>
       <use xlink:href="#DejaVuSans-20" x="344.970703"/>
       <use xlink:href="#DejaVuSans-32" x="376.757812"/>
       <use xlink:href="#DejaVuSans-30" x="440.380859"/>
      </g>
     </g>
    </g>
    <g id="xtick_2">
     <g id="line2d_3">
      <path d="M 218.726335 622.6035 
L 218.726335 35.0835 
" clip-path="url(#p978c2a105e)" style="fill: none; stroke: #a5a391; stroke-opacity: 0.3; stroke-width: 0.8; stroke-linecap: square"/>
     </g>
     <g id="line2d_4">
      <g>
       <use xlink:href="#mee12207cce" x="218.726335" y="622.6035" style="stroke: #000000; stroke-width: 0.8"/>
      </g>
     </g>
     <g id="text_2">
      <!-- Jul 01, 20 -->
      <g transform="translate(135.153657 686.31438) rotate(-30) scale(0.2 -0.2)">
       <defs>
        <path id="DejaVuSans-75" d="M 544 1381 
L 544 3500 
L 1119 3500 
L 1119 1403 
Q 1119 906 1312 657 
Q 1506 409 1894 409 
Q 2359 409 2629 706 
Q 2900 1003 2900 1516 
L 2900 3500 
L 3475 3500 
L 3475 0 
L 2900 0 
L 2900 538 
Q 2691 219 2414 64 
Q 2138 -91 1772 -91 
Q 1169 -91 856 284 
Q 544 659 544 1381 
z
M 1991 3584 
L 1991 3584 
z
" transform="scale(0.015625)"/>
        <path id="DejaVuSans-6c" d="M 603 4863 
L 1178 4863 
L 1178 0 
L 603 0 
L 603 4863 
z
" transform="scale(0.015625)"/>
       </defs>
       <use xlink:href="#DejaVuSans-4a"/>
       <use xlink:href="#DejaVuSans-75" x="29.492188"/>
       <use xlink:href="#DejaVuSans-6c" x="92.871094"/>
       <use xlink:href="#DejaVuSans-20" x="120.654297"/>
       <use xlink:href="#DejaVuSans-30" x="152.441406"/>
       <use xlink:href="#DejaVuSans-31" x="216.064453"/>
       <use xlink:href="#DejaVuSans-2c" x="279.6875"/>
       <use xlink:href="#DejaVuSans-20" x="311.474609"/>
       <use xlink:href="#DejaVuSans-32" x="343.261719"/>
       <use xlink:href="#DejaVuSans-30" x="406.884766"/>
      </g>
     </g>
    </g>
    <g id="xtick_3">
     <g id="line2d_5">
      <path d="M 325.934584 622.6035 
L 325.934584 35.0835 
" clip-path="url(#p978c2a105e)" style="fill: none; stroke: #a5a391; stroke-opacity: 0.3; stroke-width: 0.8; stroke-linecap: square"/>
     </g>
     <g id="line2d_6">
      <g>
       <use xlink:href="#mee12207cce" x="325.934584" y="622.6035" style="stroke: #000000; stroke-width: 0.8"/>
      </g>
     </g>
     <g id="text_3">
      <!-- Jan 01, 21 -->
      <g transform="translate(236.559536 689.66438) rotate(-30) scale(0.2 -0.2)">
       <use xlink:href="#DejaVuSans-4a"/>
       <use xlink:href="#DejaVuSans-61" x="29.492188"/>
       <use xlink:href="#DejaVuSans-6e" x="90.771484"/>
       <use xlink:href="#DejaVuSans-20" x="154.150391"/>
       <use xlink:href="#DejaVuSans-30" x="185.9375"/>
       <use xlink:href="#DejaVuSans-31" x="249.560547"/>
       <use xlink:href="#DejaVuSans-2c" x="313.183594"/>
       <use xlink:href="#DejaVuSans-20" x="344.970703"/>
       <use xlink:href="#DejaVuSans-32" x="376.757812"/>
       <use xlink:href="#DejaVuSans-31" x="440.380859"/>
      </g>
     </g>
    </g>
    <g id="xtick_4">
     <g id="line2d_7">
      <path d="M 431.394872 622.6035 
L 431.394872 35.0835 
" clip-path="url(#p978c2a105e)" style="fill: none; stroke: #a5a391; stroke-opacity: 0.3; stroke-width: 0.8; stroke-linecap: square"/>
     </g>
     <g id="line2d_8">
      <g>
       <use xlink:href="#mee12207cce" x="431.394872" y="622.6035" style="stroke: #000000; stroke-width: 0.8"/>
      </g>
     </g>
     <g id="text_4">
      <!-- Jul 01, 21 -->
      <g transform="translate(347.822194 686.31438) rotate(-30) scale(0.2 -0.2)">
       <use xlink:href="#DejaVuSans-4a"/>
       <use xlink:href="#DejaVuSans-75" x="29.492188"/>
       <use xlink:href="#DejaVuSans-6c" x="92.871094"/>
       <use xlink:href="#DejaVuSans-20" x="120.654297"/>
       <use xlink:href="#DejaVuSans-30" x="152.441406"/>
       <use xlink:href="#DejaVuSans-31" x="216.064453"/>
       <use xlink:href="#DejaVuSans-2c" x="279.6875"/>
       <use xlink:href="#DejaVuSans-20" x="311.474609"/>
       <use xlink:href="#DejaVuSans-32" x="343.261719"/>
       <use xlink:href="#DejaVuSans-31" x="406.884766"/>
      </g>
     </g>
    </g>
    <g id="xtick_5">
     <g id="line2d_9">
      <path d="M 538.603121 622.6035 
L 538.603121 35.0835 
" clip-path="url(#p978c2a105e)" style="fill: none; stroke: #a5a391; stroke-opacity: 0.3; stroke-width: 0.8; stroke-linecap: square"/>
     </g>
     <g id="line2d_10">
      <g>
       <use xlink:href="#mee12207cce" x="538.603121" y="622.6035" style="stroke: #000000; stroke-width: 0.8"/>
      </g>
     </g>
     <g id="text_5">
      <!-- Jan 01, 22 -->
      <g transform="translate(449.228073 689.66438) rotate(-30) scale(0.2 -0.2)">
       <use xlink:href="#DejaVuSans-4a"/>
       <use xlink:href="#DejaVuSans-61" x="29.492188"/>
       <use xlink:href="#DejaVuSans-6e" x="90.771484"/>
       <use xlink:href="#DejaVuSans-20" x="154.150391"/>
       <use xlink:href="#DejaVuSans-30" x="185.9375"/>
       <use xlink:href="#DejaVuSans-31" x="249.560547"/>
       <use xlink:href="#DejaVuSans-2c" x="313.183594"/>
       <use xlink:href="#DejaVuSans-20" x="344.970703"/>
       <use xlink:href="#DejaVuSans-32" x="376.757812"/>
       <use xlink:href="#DejaVuSans-32" x="440.380859"/>
      </g>
     </g>
    </g>
    <g id="xtick_6">
     <g id="line2d_11">
      <path d="M 644.06341 622.6035 
L 644.06341 35.0835 
" clip-path="url(#p978c2a105e)" style="fill: none; stroke: #a5a391; stroke-opacity: 0.3; stroke-width: 0.8; stroke-linecap: square"/>
     </g>
     <g id="line2d_12">
      <g>
       <use xlink:href="#mee12207cce" x="644.06341" y="622.6035" style="stroke: #000000; stroke-width: 0.8"/>
      </g>
     </g>
     <g id="text_6">
      <!-- Jul 01, 22 -->
      <g transform="translate(560.490732 686.31438) rotate(-30) scale(0.2 -0.2)">
       <use xlink:href="#DejaVuSans-4a"/>
       <use xlink:href="#DejaVuSans-75" x="29.492188"/>
       <use xlink:href="#DejaVuSans-6c" x="92.871094"/>
       <use xlink:href="#DejaVuSans-20" x="120.654297"/>
       <use xlink:href="#DejaVuSans-30" x="152.441406"/>
       <use xlink:href="#DejaVuSans-31" x="216.064453"/>
       <use xlink:href="#DejaVuSans-2c" x="279.6875"/>
       <use xlink:href="#DejaVuSans-20" x="311.474609"/>
       <use xlink:href="#DejaVuSans-32" x="343.261719"/>
       <use xlink:href="#DejaVuSans-32" x="406.884766"/>
      </g>
     </g>
    </g>
    <g id="xtick_7">
     <g id="line2d_13">
      <path d="M 751.271659 622.6035 
L 751.271659 35.0835 
" clip-path="url(#p978c2a105e)" style="fill: none; stroke: #a5a391; stroke-opacity: 0.3; stroke-width: 0.8; stroke-linecap: square"/>
     </g>
     <g id="line2d_14">
      <g>
       <use xlink:href="#mee12207cce" x="751.271659" y="622.6035" style="stroke: #000000; stroke-width: 0.8"/>
      </g>
     </g>
     <g id="text_7">
      <!-- Jan 01, 23 -->
      <g transform="translate(661.896611 689.66438) rotate(-30) scale(0.2 -0.2)">
       <defs>
        <path id="DejaVuSans-33" d="M 2597 2516 
Q 3050 2419 3304 2112 
Q 3559 1806 3559 1356 
Q 3559 666 3084 287 
Q 2609 -91 1734 -91 
Q 1441 -91 1130 -33 
Q 819 25 488 141 
L 488 750 
Q 750 597 1062 519 
Q 1375 441 1716 441 
Q 2309 441 2620 675 
Q 2931 909 2931 1356 
Q 2931 1769 2642 2001 
Q 2353 2234 1838 2234 
L 1294 2234 
L 1294 2753 
L 1863 2753 
Q 2328 2753 2575 2939 
Q 2822 3125 2822 3475 
Q 2822 3834 2567 4026 
Q 2313 4219 1838 4219 
Q 1578 4219 1281 4162 
Q 984 4106 628 3988 
L 628 4550 
Q 988 4650 1302 4700 
Q 1616 4750 1894 4750 
Q 2613 4750 3031 4423 
Q 3450 4097 3450 3541 
Q 3450 3153 3228 2886 
Q 3006 2619 2597 2516 
z
" transform="scale(0.015625)"/>
       </defs>
       <use xlink:href="#DejaVuSans-4a"/>
       <use xlink:href="#DejaVuSans-61" x="29.492188"/>
       <use xlink:href="#DejaVuSans-6e" x="90.771484"/>
       <use xlink:href="#DejaVuSans-20" x="154.150391"/>
       <use xlink:href="#DejaVuSans-30" x="185.9375"/>
       <use xlink:href="#DejaVuSans-31" x="249.560547"/>
       <use xlink:href="#DejaVuSans-2c" x="313.183594"/>
       <use xlink:href="#DejaVuSans-20" x="344.970703"/>
       <use xlink:href="#DejaVuSans-32" x="376.757812"/>
       <use xlink:href="#DejaVuSans-33" x="440.380859"/>
      </g>
     </g>
    </g>
    <g id="xtick_8">
     <g id="line2d_15">
      <path d="M 856.731947 622.6035 
L 856.731947 35.0835 
" clip-path="url(#p978c2a105e)" style="fill: none; stroke: #a5a391; stroke-opacity: 0.3; stroke-width: 0.8; stroke-linecap: square"/>
     </g>
     <g id="line2d_16">
      <g>
       <use xlink:href="#mee12207cce" x="856.731947" y="622.6035" style="stroke: #000000; stroke-width: 0.8"/>
      </g>
     </g>
     <g id="text_8">
      <!-- Jul 01, 23 -->
      <g transform="translate(773.159269 686.31438) rotate(-30) scale(0.2 -0.2)">
       <use xlink:href="#DejaVuSans-4a"/>
       <use xlink:href="#DejaVuSans-75" x="29.492188"/>
       <use xlink:href="#DejaVuSans-6c" x="92.871094"/>
       <use xlink:href="#DejaVuSans-20" x="120.654297"/>
       <use xlink:href="#DejaVuSans-30" x="152.441406"/>
       <use xlink:href="#DejaVuSans-31" x="216.064453"/>
       <use xlink:href="#DejaVuSans-2c" x="279.6875"/>
       <use xlink:href="#DejaVuSans-20" x="311.474609"/>
       <use xlink:href="#DejaVuSans-32" x="343.261719"/>
       <use xlink:href="#DejaVuSans-33" x="406.884766"/>
      </g>
     </g>
    </g>
   </g>
   <g id="matplotlib.axis_2">
    <g id="ytick_1">
     <g id="line2d_17">
      <path d="M 68.023 560.648522 
L 960.823 560.648522 
" clip-path="url(#p978c2a105e)" style="fill: none; stroke: #a5a391; stroke-opacity: 0.3; stroke-width: 0.8; stroke-linecap: square"/>
     </g>
     <g id="line2d_18">
      <defs>
       <path id="m7e21a283d3" d="M 0 0 
L 3.5 0 
" style="stroke: #000000; stroke-width: 0.8"/>
      </defs>
      <g>
       <use xlink:href="#m7e21a283d3" x="68.023" y="560.648522" style="stroke: #000000; stroke-width: 0.8"/>
      </g>
     </g>
     <g id="text_9">
      <!-- 18 -->
      <g transform="translate(39.073 568.246959) scale(0.2 -0.2)">
       <defs>
        <path id="DejaVuSans-38" d="M 2034 2216 
Q 1584 2216 1326 1975 
Q 1069 1734 1069 1313 
Q 1069 891 1326 650 
Q 1584 409 2034 409 
Q 2484 409 2743 651 
Q 3003 894 3003 1313 
Q 3003 1734 2745 1975 
Q 2488 2216 2034 2216 
z
M 1403 2484 
Q 997 2584 770 2862 
Q 544 3141 544 3541 
Q 544 4100 942 4425 
Q 1341 4750 2034 4750 
Q 2731 4750 3128 4425 
Q 3525 4100 3525 3541 
Q 3525 3141 3298 2862 
Q 3072 2584 2669 2484 
Q 3125 2378 3379 2068 
Q 3634 1759 3634 1313 
Q 3634 634 3220 271 
Q 2806 -91 2034 -91 
Q 1263 -91 848 271 
Q 434 634 434 1313 
Q 434 1759 690 2068 
Q 947 2378 1403 2484 
z
M 1172 3481 
Q 1172 3119 1398 2916 
Q 1625 2713 2034 2713 
Q 2441 2713 2670 2916 
Q 2900 3119 2900 3481 
Q 2900 3844 2670 4047 
Q 2441 4250 2034 4250 
Q 1625 4250 1398 4047 
Q 1172 3844 1172 3481 
z
" transform="scale(0.015625)"/>
       </defs>
       <use xlink:href="#DejaVuSans-31"/>
       <use xlink:href="#DejaVuSans-38" x="63.623047"/>
      </g>
     </g>
    </g>
    <g id="ytick_2">
     <g id="line2d_19">
      <path d="M 68.023 468.693242 
L 960.823 468.693242 
" clip-path="url(#p978c2a105e)" style="fill: none; stroke: #a5a391; stroke-opacity: 0.3; stroke-width: 0.8; stroke-linecap: square"/>
     </g>
     <g id="line2d_20">
      <g>
       <use xlink:href="#m7e21a283d3" x="68.023" y="468.693242" style="stroke: #000000; stroke-width: 0.8"/>
      </g>
     </g>
     <g id="text_10">
      <!-- 20 -->
      <g transform="translate(39.073 476.29168) scale(0.2 -0.2)">
       <use xlink:href="#DejaVuSans-32"/>
       <use xlink:href="#DejaVuSans-30" x="63.623047"/>
      </g>
     </g>
    </g>
    <g id="ytick_3">
     <g id="line2d_21">
      <path d="M 68.023 376.737963 
L 960.823 376.737963 
" clip-path="url(#p978c2a105e)" style="fill: none; stroke: #a5a391; stroke-opacity: 0.3; stroke-width: 0.8; stroke-linecap: square"/>
     </g>
     <g id="line2d_22">
      <g>
       <use xlink:href="#m7e21a283d3" x="68.023" y="376.737963" style="stroke: #000000; stroke-width: 0.8"/>
      </g>
     </g>
     <g id="text_11">
      <!-- 22 -->
      <g transform="translate(39.073 384.336401) scale(0.2 -0.2)">
       <use xlink:href="#DejaVuSans-32"/>
       <use xlink:href="#DejaVuSans-32" x="63.623047"/>
      </g>
     </g>
    </g>
    <g id="ytick_4">
     <g id="line2d_23">
      <path d="M 68.023 284.782684 
L 960.823 284.782684 
" clip-path="url(#p978c2a105e)" style="fill: none; stroke: #a5a391; stroke-opacity: 0.3; stroke-width: 0.8; stroke-linecap: square"/>
     </g>
     <g id="line2d_24">
      <g>
       <use xlink:href="#m7e21a283d3" x="68.023" y="284.782684" style="stroke: #000000; stroke-width: 0.8"/>
      </g>
     </g>
     <g id="text_12">
      <!-- 24 -->
      <g transform="translate(39.073 292.381121) scale(0.2 -0.2)">
       <defs>
        <path id="DejaVuSans-34" d="M 2419 4116 
L 825 1625 
L 2419 1625 
L 2419 4116 
z
M 2253 4666 
L 3047 4666 
L 3047 1625 
L 3713 1625 
L 3713 1100 
L 3047 1100 
L 3047 0 
L 2419 0 
L 2419 1100 
L 313 1100 
L 313 1709 
L 2253 4666 
z
" transform="scale(0.015625)"/>
       </defs>
       <use xlink:href="#DejaVuSans-32"/>
       <use xlink:href="#DejaVuSans-34" x="63.623047"/>
      </g>
     </g>
    </g>
    <g id="ytick_5">
     <g id="line2d_25">
      <path d="M 68.023 192.827405 
L 960.823 192.827405 
" clip-path="url(#p978c2a105e)" style="fill: none; stroke: #a5a391; stroke-opacity: 0.3; stroke-width: 0.8; stroke-linecap: square"/>
     </g>
     <g id="line2d_26">
      <g>
       <use xlink:href="#m7e21a283d3" x="68.023" y="192.827405" style="stroke: #000000; stroke-width: 0.8"/>
      </g>
     </g>
     <g id="text_13">
      <!-- 26 -->
      <g transform="translate(39.073 200.425842) scale(0.2 -0.2)">
       <defs>
        <path id="DejaVuSans-36" d="M 2113 2584 
Q 1688 2584 1439 2293 
Q 1191 2003 1191 1497 
Q 1191 994 1439 701 
Q 1688 409 2113 409 
Q 2538 409 2786 701 
Q 3034 994 3034 1497 
Q 3034 2003 2786 2293 
Q 2538 2584 2113 2584 
z
M 3366 4563 
L 3366 3988 
Q 3128 4100 2886 4159 
Q 2644 4219 2406 4219 
Q 1781 4219 1451 3797 
Q 1122 3375 1075 2522 
Q 1259 2794 1537 2939 
Q 1816 3084 2150 3084 
Q 2853 3084 3261 2657 
Q 3669 2231 3669 1497 
Q 3669 778 3244 343 
Q 2819 -91 2113 -91 
Q 1303 -91 875 529 
Q 447 1150 447 2328 
Q 447 3434 972 4092 
Q 1497 4750 2381 4750 
Q 2619 4750 2861 4703 
Q 3103 4656 3366 4563 
z
" transform="scale(0.015625)"/>
       </defs>
       <use xlink:href="#DejaVuSans-32"/>
       <use xlink:href="#DejaVuSans-36" x="63.623047"/>
      </g>
     </g>
    </g>
    <g id="ytick_6">
     <g id="line2d_27">
      <path d="M 68.023 100.872125 
L 960.823 100.872125 
" clip-path="url(#p978c2a105e)" style="fill: none; stroke: #a5a391; stroke-opacity: 0.3; stroke-width: 0.8; stroke-linecap: square"/>
     </g>
     <g id="line2d_28">
      <g>
       <use xlink:href="#m7e21a283d3" x="68.023" y="100.872125" style="stroke: #000000; stroke-width: 0.8"/>
      </g>
     </g>
     <g id="text_14">
      <!-- 28 -->
      <g transform="translate(39.073 108.470563) scale(0.2 -0.2)">
       <use xlink:href="#DejaVuSans-32"/>
       <use xlink:href="#DejaVuSans-38" x="63.623047"/>
      </g>
     </g>
    </g>
    <g id="text_15">
     <!-- Fat Percentage [%] -->
     <g transform="translate(29.0835 465.3465) rotate(-90) scale(0.288 -0.288)">
      <defs>
       <path id="DejaVuSans-46" d="M 628 4666 
L 3309 4666 
L 3309 4134 
L 1259 4134 
L 1259 2759 
L 3109 2759 
L 3109 2228 
L 1259 2228 
L 1259 0 
L 628 0 
L 628 4666 
z
" transform="scale(0.015625)"/>
       <path id="DejaVuSans-74" d="M 1172 4494 
L 1172 3500 
L 2356 3500 
L 2356 3053 
L 1172 3053 
L 1172 1153 
Q 1172 725 1289 603 
Q 1406 481 1766 481 
L 2356 481 
L 2356 0 
L 1766 0 
Q 1100 0 847 248 
Q 594 497 594 1153 
L 594 3053 
L 172 3053 
L 172 3500 
L 594 3500 
L 594 4494 
L 1172 4494 
z
" transform="scale(0.015625)"/>
       <path id="DejaVuSans-50" d="M 1259 4147 
L 1259 2394 
L 2053 2394 
Q 2494 2394 2734 2622 
Q 2975 2850 2975 3272 
Q 2975 3691 2734 3919 
Q 2494 4147 2053 4147 
L 1259 4147 
z
M 628 4666 
L 2053 4666 
Q 2838 4666 3239 4311 
Q 3641 3956 3641 3272 
Q 3641 2581 3239 2228 
Q 2838 1875 2053 1875 
L 1259 1875 
L 1259 0 
L 628 0 
L 628 4666 
z
" transform="scale(0.015625)"/>
       <path id="DejaVuSans-65" d="M 3597 1894 
L 3597 1613 
L 953 1613 
Q 991 1019 1311 708 
Q 1631 397 2203 397 
Q 2534 397 2845 478 
Q 3156 559 3463 722 
L 3463 178 
Q 3153 47 2828 -22 
Q 2503 -91 2169 -91 
Q 1331 -91 842 396 
Q 353 884 353 1716 
Q 353 2575 817 3079 
Q 1281 3584 2069 3584 
Q 2775 3584 3186 3129 
Q 3597 2675 3597 1894 
z
M 3022 2063 
Q 3016 2534 2758 2815 
Q 2500 3097 2075 3097 
Q 1594 3097 1305 2825 
Q 1016 2553 972 2059 
L 3022 2063 
z
" transform="scale(0.015625)"/>
       <path id="DejaVuSans-72" d="M 2631 2963 
Q 2534 3019 2420 3045 
Q 2306 3072 2169 3072 
Q 1681 3072 1420 2755 
Q 1159 2438 1159 1844 
L 1159 0 
L 581 0 
L 581 3500 
L 1159 3500 
L 1159 2956 
Q 1341 3275 1631 3429 
Q 1922 3584 2338 3584 
Q 2397 3584 2469 3576 
Q 2541 3569 2628 3553 
L 2631 2963 
z
" transform="scale(0.015625)"/>
       <path id="DejaVuSans-63" d="M 3122 3366 
L 3122 2828 
Q 2878 2963 2633 3030 
Q 2388 3097 2138 3097 
Q 1578 3097 1268 2742 
Q 959 2388 959 1747 
Q 959 1106 1268 751 
Q 1578 397 2138 397 
Q 2388 397 2633 464 
Q 2878 531 3122 666 
L 3122 134 
Q 2881 22 2623 -34 
Q 2366 -91 2075 -91 
Q 1284 -91 818 406 
Q 353 903 353 1747 
Q 353 2603 823 3093 
Q 1294 3584 2113 3584 
Q 2378 3584 2631 3529 
Q 2884 3475 3122 3366 
z
" transform="scale(0.015625)"/>
       <path id="DejaVuSans-67" d="M 2906 1791 
Q 2906 2416 2648 2759 
Q 2391 3103 1925 3103 
Q 1463 3103 1205 2759 
Q 947 2416 947 1791 
Q 947 1169 1205 825 
Q 1463 481 1925 481 
Q 2391 481 2648 825 
Q 2906 1169 2906 1791 
z
M 3481 434 
Q 3481 -459 3084 -895 
Q 2688 -1331 1869 -1331 
Q 1566 -1331 1297 -1286 
Q 1028 -1241 775 -1147 
L 775 -588 
Q 1028 -725 1275 -790 
Q 1522 -856 1778 -856 
Q 2344 -856 2625 -561 
Q 2906 -266 2906 331 
L 2906 616 
Q 2728 306 2450 153 
Q 2172 0 1784 0 
Q 1141 0 747 490 
Q 353 981 353 1791 
Q 353 2603 747 3093 
Q 1141 3584 1784 3584 
Q 2172 3584 2450 3431 
Q 2728 3278 2906 2969 
L 2906 3500 
L 3481 3500 
L 3481 434 
z
" transform="scale(0.015625)"/>
       <path id="DejaVuSans-5b" d="M 550 4863 
L 1875 4863 
L 1875 4416 
L 1125 4416 
L 1125 -397 
L 1875 -397 
L 1875 -844 
L 550 -844 
L 550 4863 
z
" transform="scale(0.015625)"/>
       <path id="DejaVuSans-25" d="M 4653 2053 
Q 4381 2053 4226 1822 
Q 4072 1591 4072 1178 
Q 4072 772 4226 539 
Q 4381 306 4653 306 
Q 4919 306 5073 539 
Q 5228 772 5228 1178 
Q 5228 1588 5073 1820 
Q 4919 2053 4653 2053 
z
M 4653 2450 
Q 5147 2450 5437 2106 
Q 5728 1763 5728 1178 
Q 5728 594 5436 251 
Q 5144 -91 4653 -91 
Q 4153 -91 3862 251 
Q 3572 594 3572 1178 
Q 3572 1766 3864 2108 
Q 4156 2450 4653 2450 
z
M 1428 4353 
Q 1159 4353 1004 4120 
Q 850 3888 850 3481 
Q 850 3069 1003 2837 
Q 1156 2606 1428 2606 
Q 1700 2606 1854 2837 
Q 2009 3069 2009 3481 
Q 2009 3884 1853 4118 
Q 1697 4353 1428 4353 
z
M 4250 4750 
L 4750 4750 
L 1831 -91 
L 1331 -91 
L 4250 4750 
z
M 1428 4750 
Q 1922 4750 2215 4408 
Q 2509 4066 2509 3481 
Q 2509 2891 2217 2550 
Q 1925 2209 1428 2209 
Q 931 2209 642 2551 
Q 353 2894 353 3481 
Q 353 4063 643 4406 
Q 934 4750 1428 4750 
z
" transform="scale(0.015625)"/>
       <path id="DejaVuSans-5d" d="M 1947 4863 
L 1947 -844 
L 622 -844 
L 622 -397 
L 1369 -397 
L 1369 4416 
L 622 4416 
L 622 4863 
L 1947 4863 
z
" transform="scale(0.015625)"/>
      </defs>
      <use xlink:href="#DejaVuSans-46"/>
      <use xlink:href="#DejaVuSans-61" x="48.394531"/>
      <use xlink:href="#DejaVuSans-74" x="109.673828"/>
      <use xlink:href="#DejaVuSans-20" x="148.882812"/>
      <use xlink:href="#DejaVuSans-50" x="180.669922"/>
      <use xlink:href="#DejaVuSans-65" x="237.347656"/>
      <use xlink:href="#DejaVuSans-72" x="298.871094"/>
      <use xlink:href="#DejaVuSans-63" x="337.734375"/>
      <use xlink:href="#DejaVuSans-65" x="392.714844"/>
      <use xlink:href="#DejaVuSans-6e" x="454.238281"/>
      <use xlink:href="#DejaVuSans-74" x="517.617188"/>
      <use xlink:href="#DejaVuSans-61" x="556.826172"/>
      <use xlink:href="#DejaVuSans-67" x="618.105469"/>
      <use xlink:href="#DejaVuSans-65" x="681.582031"/>
      <use xlink:href="#DejaVuSans-20" x="743.105469"/>
      <use xlink:href="#DejaVuSans-5b" x="774.892578"/>
      <use xlink:href="#DejaVuSans-25" x="813.90625"/>
      <use xlink:href="#DejaVuSans-5d" x="908.925781"/>
     </g>
    </g>
   </g>
   <g id="line2d_29">
    <path d="M 108.604818 399.726783 
L 116.761968 196.658874 
L 120.840542 432.567954 
L 124.919117 406.623429 
L 128.997692 456.049392 
L 133.076266 362.944671 
L 137.154841 429.612249 
L 141.233416 457.965126 
L 145.31199 451.834775 
L 149.390565 425.780779 
L 153.46914 367.542435 
L 157.547714 380.569433 
L 161.626289 453.75051 
L 165.704864 467.77369 
L 169.783439 412.370634 
L 173.862013 457.198833 
L 177.940588 500.111296 
L 182.019163 530.30328 
L 186.097737 543.406907 
L 190.176312 515.820323 
L 194.254887 523.86641 
L 198.333461 496.279826 
L 202.412036 454.899951 
L 206.490611 482.486534 
L 210.569185 484.785416 
L 214.64776 475.589888 
L 218.726335 471.451901 
L 222.80491 487.084298 
L 226.883484 448.769599 
L 230.962059 415.35918 
L 235.040634 441.106659 
L 239.119208 452.141292 
L 243.197783 464.095478 
L 247.276358 452.141292 
L 251.354932 494.747238 
L 255.433507 448.003305 
L 259.512082 405.090841 
L 263.590656 433.750236 
L 267.669231 442.639247 
L 271.747806 473.291006 
L 275.826381 427.313367 
L 279.904955 416.585251 
L 283.98353 390.531255 
L 288.062105 415.818957 
L 292.140679 385.933491 
L 296.219254 343.021027 
L 300.297829 427.313367 
L 304.376403 385.933491 
L 308.454978 384.78405 
L 312.533553 336.507528 
L 316.612127 379.036845 
L 320.690702 364.094112 
L 324.769277 362.944671 
L 328.847852 380.678904 
L 332.926426 398.960489 
L 337.005001 406.623429 
L 341.083576 396.048572 
L 345.16215 408.922311 
L 349.240725 386.853044 
L 353.3193 375.205375 
L 357.397874 392.830137 
L 361.476449 399.726783 
L 365.555024 298.575976 
L 369.633598 312.369268 
L 373.712173 372.140199 
L 377.790748 363.864224 
L 381.869323 374.767493 
L 385.947897 334.208646 
L 390.026472 323.863678 
L 394.105047 364.477259 
L 398.183621 350.990485 
L 402.262196 378.270551 
L 406.340771 431.911131 
L 410.419345 383.634609 
L 414.49792 395.129019 
L 418.576495 389.381814 
L 422.655069 441.106659 
L 426.733644 397.427901 
L 430.812219 445.704423 
L 434.890794 489.38318 
L 443.047943 418.117839 
L 447.126518 429.152472 
L 451.205092 461.796596 
L 455.283667 404.324547 
L 475.67654 404.324547 
L 479.755115 404.324547 
L 483.83369 351.450261 
L 487.912265 387.466079 
L 491.990839 330.760323 
L 508.305138 372.140199 
L 512.383713 316.967032 
L 516.462287 381.335727 
L 545.01231 348.001938 
L 549.090885 296.277094 
L 553.16946 330.760323 
L 557.248034 370.990758 
L 561.326609 425.014485 
L 565.405184 422.715603 
L 569.483758 333.059205 
L 573.562333 385.933491 
L 577.640908 335.358087 
L 581.719482 404.324547 
L 585.798057 353.749143 
L 589.876632 344.553615 
L 606.190931 333.059205 
L 610.269505 310.83668 
L 614.34808 320.032208 
L 618.426655 387.082932 
L 622.505229 261.793864 
L 642.898103 275.587156 
L 687.762424 339.955851 
L 708.155298 330.760323 
L 712.233873 346.852497 
L 720.391022 303.17374 
L 732.626746 358.346907 
L 785.648217 270.989392 
L 920.241182 549.920406 
" clip-path="url(#p978c2a105e)" style="fill: none; stroke: #bfbf00; stroke-width: 1.5; stroke-linecap: square"/>
    <defs>
     <path id="mde11c64b2f" d="M 0 -3 
L -0.673542 -0.927051 
L -2.85317 -0.927051 
L -1.089814 0.354102 
L -1.763356 2.427051 
L -0 1.145898 
L 1.763356 2.427051 
L 1.089814 0.354102 
L 2.85317 -0.927051 
L 0.673542 -0.927051 
z
" style="stroke: #bfbf00; stroke-linejoin: bevel"/>
    </defs>
    <g clip-path="url(#p978c2a105e)">
     <use xlink:href="#mde11c64b2f" x="108.604818" y="399.726783" style="fill: #bfbf00; stroke: #bfbf00; stroke-linejoin: bevel"/>
     <use xlink:href="#mde11c64b2f" x="116.761968" y="196.658874" style="fill: #bfbf00; stroke: #bfbf00; stroke-linejoin: bevel"/>
     <use xlink:href="#mde11c64b2f" x="120.840542" y="432.567954" style="fill: #bfbf00; stroke: #bfbf00; stroke-linejoin: bevel"/>
     <use xlink:href="#mde11c64b2f" x="124.919117" y="406.623429" style="fill: #bfbf00; stroke: #bfbf00; stroke-linejoin: bevel"/>
     <use xlink:href="#mde11c64b2f" x="128.997692" y="456.049392" style="fill: #bfbf00; stroke: #bfbf00; stroke-linejoin: bevel"/>
     <use xlink:href="#mde11c64b2f" x="133.076266" y="362.944671" style="fill: #bfbf00; stroke: #bfbf00; stroke-linejoin: bevel"/>
     <use xlink:href="#mde11c64b2f" x="137.154841" y="429.612249" style="fill: #bfbf00; stroke: #bfbf00; stroke-linejoin: bevel"/>
     <use xlink:href="#mde11c64b2f" x="141.233416" y="457.965126" style="fill: #bfbf00; stroke: #bfbf00; stroke-linejoin: bevel"/>
     <use xlink:href="#mde11c64b2f" x="145.31199" y="451.834775" style="fill: #bfbf00; stroke: #bfbf00; stroke-linejoin: bevel"/>
     <use xlink:href="#mde11c64b2f" x="149.390565" y="425.780779" style="fill: #bfbf00; stroke: #bfbf00; stroke-linejoin: bevel"/>
     <use xlink:href="#mde11c64b2f" x="153.46914" y="367.542435" style="fill: #bfbf00; stroke: #bfbf00; stroke-linejoin: bevel"/>
     <use xlink:href="#mde11c64b2f" x="157.547714" y="380.569433" style="fill: #bfbf00; stroke: #bfbf00; stroke-linejoin: bevel"/>
     <use xlink:href="#mde11c64b2f" x="161.626289" y="453.75051" style="fill: #bfbf00; stroke: #bfbf00; stroke-linejoin: bevel"/>
     <use xlink:href="#mde11c64b2f" x="165.704864" y="467.77369" style="fill: #bfbf00; stroke: #bfbf00; stroke-linejoin: bevel"/>
     <use xlink:href="#mde11c64b2f" x="169.783439" y="412.370634" style="fill: #bfbf00; stroke: #bfbf00; stroke-linejoin: bevel"/>
     <use xlink:href="#mde11c64b2f" x="173.862013" y="457.198833" style="fill: #bfbf00; stroke: #bfbf00; stroke-linejoin: bevel"/>
     <use xlink:href="#mde11c64b2f" x="177.940588" y="500.111296" style="fill: #bfbf00; stroke: #bfbf00; stroke-linejoin: bevel"/>
     <use xlink:href="#mde11c64b2f" x="182.019163" y="530.30328" style="fill: #bfbf00; stroke: #bfbf00; stroke-linejoin: bevel"/>
     <use xlink:href="#mde11c64b2f" x="186.097737" y="543.406907" style="fill: #bfbf00; stroke: #bfbf00; stroke-linejoin: bevel"/>
     <use xlink:href="#mde11c64b2f" x="190.176312" y="515.820323" style="fill: #bfbf00; stroke: #bfbf00; stroke-linejoin: bevel"/>
     <use xlink:href="#mde11c64b2f" x="194.254887" y="523.86641" style="fill: #bfbf00; stroke: #bfbf00; stroke-linejoin: bevel"/>
     <use xlink:href="#mde11c64b2f" x="198.333461" y="496.279826" style="fill: #bfbf00; stroke: #bfbf00; stroke-linejoin: bevel"/>
     <use xlink:href="#mde11c64b2f" x="202.412036" y="454.899951" style="fill: #bfbf00; stroke: #bfbf00; stroke-linejoin: bevel"/>
     <use xlink:href="#mde11c64b2f" x="206.490611" y="482.486534" style="fill: #bfbf00; stroke: #bfbf00; stroke-linejoin: bevel"/>
     <use xlink:href="#mde11c64b2f" x="210.569185" y="484.785416" style="fill: #bfbf00; stroke: #bfbf00; stroke-linejoin: bevel"/>
     <use xlink:href="#mde11c64b2f" x="214.64776" y="475.589888" style="fill: #bfbf00; stroke: #bfbf00; stroke-linejoin: bevel"/>
     <use xlink:href="#mde11c64b2f" x="218.726335" y="471.451901" style="fill: #bfbf00; stroke: #bfbf00; stroke-linejoin: bevel"/>
     <use xlink:href="#mde11c64b2f" x="222.80491" y="487.084298" style="fill: #bfbf00; stroke: #bfbf00; stroke-linejoin: bevel"/>
     <use xlink:href="#mde11c64b2f" x="226.883484" y="448.769599" style="fill: #bfbf00; stroke: #bfbf00; stroke-linejoin: bevel"/>
     <use xlink:href="#mde11c64b2f" x="230.962059" y="415.35918" style="fill: #bfbf00; stroke: #bfbf00; stroke-linejoin: bevel"/>
     <use xlink:href="#mde11c64b2f" x="235.040634" y="441.106659" style="fill: #bfbf00; stroke: #bfbf00; stroke-linejoin: bevel"/>
     <use xlink:href="#mde11c64b2f" x="239.119208" y="452.141292" style="fill: #bfbf00; stroke: #bfbf00; stroke-linejoin: bevel"/>
     <use xlink:href="#mde11c64b2f" x="243.197783" y="464.095478" style="fill: #bfbf00; stroke: #bfbf00; stroke-linejoin: bevel"/>
     <use xlink:href="#mde11c64b2f" x="247.276358" y="452.141292" style="fill: #bfbf00; stroke: #bfbf00; stroke-linejoin: bevel"/>
     <use xlink:href="#mde11c64b2f" x="251.354932" y="494.747238" style="fill: #bfbf00; stroke: #bfbf00; stroke-linejoin: bevel"/>
     <use xlink:href="#mde11c64b2f" x="255.433507" y="448.003305" style="fill: #bfbf00; stroke: #bfbf00; stroke-linejoin: bevel"/>
     <use xlink:href="#mde11c64b2f" x="259.512082" y="405.090841" style="fill: #bfbf00; stroke: #bfbf00; stroke-linejoin: bevel"/>
     <use xlink:href="#mde11c64b2f" x="263.590656" y="433.750236" style="fill: #bfbf00; stroke: #bfbf00; stroke-linejoin: bevel"/>
     <use xlink:href="#mde11c64b2f" x="267.669231" y="442.639247" style="fill: #bfbf00; stroke: #bfbf00; stroke-linejoin: bevel"/>
     <use xlink:href="#mde11c64b2f" x="271.747806" y="473.291006" style="fill: #bfbf00; stroke: #bfbf00; stroke-linejoin: bevel"/>
     <use xlink:href="#mde11c64b2f" x="275.826381" y="427.313367" style="fill: #bfbf00; stroke: #bfbf00; stroke-linejoin: bevel"/>
     <use xlink:href="#mde11c64b2f" x="279.904955" y="416.585251" style="fill: #bfbf00; stroke: #bfbf00; stroke-linejoin: bevel"/>
     <use xlink:href="#mde11c64b2f" x="283.98353" y="390.531255" style="fill: #bfbf00; stroke: #bfbf00; stroke-linejoin: bevel"/>
     <use xlink:href="#mde11c64b2f" x="288.062105" y="415.818957" style="fill: #bfbf00; stroke: #bfbf00; stroke-linejoin: bevel"/>
     <use xlink:href="#mde11c64b2f" x="292.140679" y="385.933491" style="fill: #bfbf00; stroke: #bfbf00; stroke-linejoin: bevel"/>
     <use xlink:href="#mde11c64b2f" x="296.219254" y="343.021027" style="fill: #bfbf00; stroke: #bfbf00; stroke-linejoin: bevel"/>
     <use xlink:href="#mde11c64b2f" x="300.297829" y="427.313367" style="fill: #bfbf00; stroke: #bfbf00; stroke-linejoin: bevel"/>
     <use xlink:href="#mde11c64b2f" x="304.376403" y="385.933491" style="fill: #bfbf00; stroke: #bfbf00; stroke-linejoin: bevel"/>
     <use xlink:href="#mde11c64b2f" x="308.454978" y="384.78405" style="fill: #bfbf00; stroke: #bfbf00; stroke-linejoin: bevel"/>
     <use xlink:href="#mde11c64b2f" x="312.533553" y="336.507528" style="fill: #bfbf00; stroke: #bfbf00; stroke-linejoin: bevel"/>
     <use xlink:href="#mde11c64b2f" x="316.612127" y="379.036845" style="fill: #bfbf00; stroke: #bfbf00; stroke-linejoin: bevel"/>
     <use xlink:href="#mde11c64b2f" x="320.690702" y="364.094112" style="fill: #bfbf00; stroke: #bfbf00; stroke-linejoin: bevel"/>
     <use xlink:href="#mde11c64b2f" x="324.769277" y="362.944671" style="fill: #bfbf00; stroke: #bfbf00; stroke-linejoin: bevel"/>
     <use xlink:href="#mde11c64b2f" x="328.847852" y="380.678904" style="fill: #bfbf00; stroke: #bfbf00; stroke-linejoin: bevel"/>
     <use xlink:href="#mde11c64b2f" x="332.926426" y="398.960489" style="fill: #bfbf00; stroke: #bfbf00; stroke-linejoin: bevel"/>
     <use xlink:href="#mde11c64b2f" x="337.005001" y="406.623429" style="fill: #bfbf00; stroke: #bfbf00; stroke-linejoin: bevel"/>
     <use xlink:href="#mde11c64b2f" x="341.083576" y="396.048572" style="fill: #bfbf00; stroke: #bfbf00; stroke-linejoin: bevel"/>
     <use xlink:href="#mde11c64b2f" x="345.16215" y="408.922311" style="fill: #bfbf00; stroke: #bfbf00; stroke-linejoin: bevel"/>
     <use xlink:href="#mde11c64b2f" x="349.240725" y="386.853044" style="fill: #bfbf00; stroke: #bfbf00; stroke-linejoin: bevel"/>
     <use xlink:href="#mde11c64b2f" x="353.3193" y="375.205375" style="fill: #bfbf00; stroke: #bfbf00; stroke-linejoin: bevel"/>
     <use xlink:href="#mde11c64b2f" x="357.397874" y="392.830137" style="fill: #bfbf00; stroke: #bfbf00; stroke-linejoin: bevel"/>
     <use xlink:href="#mde11c64b2f" x="361.476449" y="399.726783" style="fill: #bfbf00; stroke: #bfbf00; stroke-linejoin: bevel"/>
     <use xlink:href="#mde11c64b2f" x="365.555024" y="298.575976" style="fill: #bfbf00; stroke: #bfbf00; stroke-linejoin: bevel"/>
     <use xlink:href="#mde11c64b2f" x="369.633598" y="312.369268" style="fill: #bfbf00; stroke: #bfbf00; stroke-linejoin: bevel"/>
     <use xlink:href="#mde11c64b2f" x="373.712173" y="372.140199" style="fill: #bfbf00; stroke: #bfbf00; stroke-linejoin: bevel"/>
     <use xlink:href="#mde11c64b2f" x="377.790748" y="363.864224" style="fill: #bfbf00; stroke: #bfbf00; stroke-linejoin: bevel"/>
     <use xlink:href="#mde11c64b2f" x="381.869323" y="374.767493" style="fill: #bfbf00; stroke: #bfbf00; stroke-linejoin: bevel"/>
     <use xlink:href="#mde11c64b2f" x="385.947897" y="334.208646" style="fill: #bfbf00; stroke: #bfbf00; stroke-linejoin: bevel"/>
     <use xlink:href="#mde11c64b2f" x="390.026472" y="323.863678" style="fill: #bfbf00; stroke: #bfbf00; stroke-linejoin: bevel"/>
     <use xlink:href="#mde11c64b2f" x="394.105047" y="364.477259" style="fill: #bfbf00; stroke: #bfbf00; stroke-linejoin: bevel"/>
     <use xlink:href="#mde11c64b2f" x="398.183621" y="350.990485" style="fill: #bfbf00; stroke: #bfbf00; stroke-linejoin: bevel"/>
     <use xlink:href="#mde11c64b2f" x="402.262196" y="378.270551" style="fill: #bfbf00; stroke: #bfbf00; stroke-linejoin: bevel"/>
     <use xlink:href="#mde11c64b2f" x="406.340771" y="431.911131" style="fill: #bfbf00; stroke: #bfbf00; stroke-linejoin: bevel"/>
     <use xlink:href="#mde11c64b2f" x="410.419345" y="383.634609" style="fill: #bfbf00; stroke: #bfbf00; stroke-linejoin: bevel"/>
     <use xlink:href="#mde11c64b2f" x="414.49792" y="395.129019" style="fill: #bfbf00; stroke: #bfbf00; stroke-linejoin: bevel"/>
     <use xlink:href="#mde11c64b2f" x="418.576495" y="389.381814" style="fill: #bfbf00; stroke: #bfbf00; stroke-linejoin: bevel"/>
     <use xlink:href="#mde11c64b2f" x="422.655069" y="441.106659" style="fill: #bfbf00; stroke: #bfbf00; stroke-linejoin: bevel"/>
     <use xlink:href="#mde11c64b2f" x="426.733644" y="397.427901" style="fill: #bfbf00; stroke: #bfbf00; stroke-linejoin: bevel"/>
     <use xlink:href="#mde11c64b2f" x="430.812219" y="445.704423" style="fill: #bfbf00; stroke: #bfbf00; stroke-linejoin: bevel"/>
     <use xlink:href="#mde11c64b2f" x="434.890794" y="489.38318" style="fill: #bfbf00; stroke: #bfbf00; stroke-linejoin: bevel"/>
     <use xlink:href="#mde11c64b2f" x="443.047943" y="418.117839" style="fill: #bfbf00; stroke: #bfbf00; stroke-linejoin: bevel"/>
     <use xlink:href="#mde11c64b2f" x="447.126518" y="429.152472" style="fill: #bfbf00; stroke: #bfbf00; stroke-linejoin: bevel"/>
     <use xlink:href="#mde11c64b2f" x="451.205092" y="461.796596" style="fill: #bfbf00; stroke: #bfbf00; stroke-linejoin: bevel"/>
     <use xlink:href="#mde11c64b2f" x="455.283667" y="404.324547" style="fill: #bfbf00; stroke: #bfbf00; stroke-linejoin: bevel"/>
     <use xlink:href="#mde11c64b2f" x="475.67654" y="404.324547" style="fill: #bfbf00; stroke: #bfbf00; stroke-linejoin: bevel"/>
     <use xlink:href="#mde11c64b2f" x="479.755115" y="404.324547" style="fill: #bfbf00; stroke: #bfbf00; stroke-linejoin: bevel"/>
     <use xlink:href="#mde11c64b2f" x="483.83369" y="351.450261" style="fill: #bfbf00; stroke: #bfbf00; stroke-linejoin: bevel"/>
     <use xlink:href="#mde11c64b2f" x="487.912265" y="387.466079" style="fill: #bfbf00; stroke: #bfbf00; stroke-linejoin: bevel"/>
     <use xlink:href="#mde11c64b2f" x="491.990839" y="330.760323" style="fill: #bfbf00; stroke: #bfbf00; stroke-linejoin: bevel"/>
     <use xlink:href="#mde11c64b2f" x="508.305138" y="372.140199" style="fill: #bfbf00; stroke: #bfbf00; stroke-linejoin: bevel"/>
     <use xlink:href="#mde11c64b2f" x="512.383713" y="316.967032" style="fill: #bfbf00; stroke: #bfbf00; stroke-linejoin: bevel"/>
     <use xlink:href="#mde11c64b2f" x="516.462287" y="381.335727" style="fill: #bfbf00; stroke: #bfbf00; stroke-linejoin: bevel"/>
     <use xlink:href="#mde11c64b2f" x="545.01231" y="348.001938" style="fill: #bfbf00; stroke: #bfbf00; stroke-linejoin: bevel"/>
     <use xlink:href="#mde11c64b2f" x="549.090885" y="296.277094" style="fill: #bfbf00; stroke: #bfbf00; stroke-linejoin: bevel"/>
     <use xlink:href="#mde11c64b2f" x="553.16946" y="330.760323" style="fill: #bfbf00; stroke: #bfbf00; stroke-linejoin: bevel"/>
     <use xlink:href="#mde11c64b2f" x="557.248034" y="370.990758" style="fill: #bfbf00; stroke: #bfbf00; stroke-linejoin: bevel"/>
     <use xlink:href="#mde11c64b2f" x="561.326609" y="425.014485" style="fill: #bfbf00; stroke: #bfbf00; stroke-linejoin: bevel"/>
     <use xlink:href="#mde11c64b2f" x="565.405184" y="422.715603" style="fill: #bfbf00; stroke: #bfbf00; stroke-linejoin: bevel"/>
     <use xlink:href="#mde11c64b2f" x="569.483758" y="333.059205" style="fill: #bfbf00; stroke: #bfbf00; stroke-linejoin: bevel"/>
     <use xlink:href="#mde11c64b2f" x="573.562333" y="385.933491" style="fill: #bfbf00; stroke: #bfbf00; stroke-linejoin: bevel"/>
     <use xlink:href="#mde11c64b2f" x="577.640908" y="335.358087" style="fill: #bfbf00; stroke: #bfbf00; stroke-linejoin: bevel"/>
     <use xlink:href="#mde11c64b2f" x="581.719482" y="404.324547" style="fill: #bfbf00; stroke: #bfbf00; stroke-linejoin: bevel"/>
     <use xlink:href="#mde11c64b2f" x="585.798057" y="353.749143" style="fill: #bfbf00; stroke: #bfbf00; stroke-linejoin: bevel"/>
     <use xlink:href="#mde11c64b2f" x="589.876632" y="344.553615" style="fill: #bfbf00; stroke: #bfbf00; stroke-linejoin: bevel"/>
     <use xlink:href="#mde11c64b2f" x="606.190931" y="333.059205" style="fill: #bfbf00; stroke: #bfbf00; stroke-linejoin: bevel"/>
     <use xlink:href="#mde11c64b2f" x="610.269505" y="310.83668" style="fill: #bfbf00; stroke: #bfbf00; stroke-linejoin: bevel"/>
     <use xlink:href="#mde11c64b2f" x="614.34808" y="320.032208" style="fill: #bfbf00; stroke: #bfbf00; stroke-linejoin: bevel"/>
     <use xlink:href="#mde11c64b2f" x="618.426655" y="387.082932" style="fill: #bfbf00; stroke: #bfbf00; stroke-linejoin: bevel"/>
     <use xlink:href="#mde11c64b2f" x="622.505229" y="261.793864" style="fill: #bfbf00; stroke: #bfbf00; stroke-linejoin: bevel"/>
     <use xlink:href="#mde11c64b2f" x="642.898103" y="275.587156" style="fill: #bfbf00; stroke: #bfbf00; stroke-linejoin: bevel"/>
     <use xlink:href="#mde11c64b2f" x="687.762424" y="339.955851" style="fill: #bfbf00; stroke: #bfbf00; stroke-linejoin: bevel"/>
     <use xlink:href="#mde11c64b2f" x="708.155298" y="330.760323" style="fill: #bfbf00; stroke: #bfbf00; stroke-linejoin: bevel"/>
     <use xlink:href="#mde11c64b2f" x="712.233873" y="346.852497" style="fill: #bfbf00; stroke: #bfbf00; stroke-linejoin: bevel"/>
     <use xlink:href="#mde11c64b2f" x="720.391022" y="303.17374" style="fill: #bfbf00; stroke: #bfbf00; stroke-linejoin: bevel"/>
     <use xlink:href="#mde11c64b2f" x="732.626746" y="358.346907" style="fill: #bfbf00; stroke: #bfbf00; stroke-linejoin: bevel"/>
     <use xlink:href="#mde11c64b2f" x="785.648217" y="270.989392" style="fill: #bfbf00; stroke: #bfbf00; stroke-linejoin: bevel"/>
     <use xlink:href="#mde11c64b2f" x="920.241182" y="549.920406" style="fill: #bfbf00; stroke: #bfbf00; stroke-linejoin: bevel"/>
    </g>
   </g>
   <g id="patch_3">
    <path d="M 68.023 622.6035 
L 68.023 35.0835 
" style="fill: none; stroke: #000000; stroke-width: 0.8; stroke-linejoin: miter; stroke-linecap: square"/>
   </g>
   <g id="patch_4">
    <path d="M 960.823 622.6035 
L 960.823 35.0835 
" style="fill: none; stroke: #000000; stroke-width: 0.8; stroke-linejoin: miter; stroke-linecap: square"/>
   </g>
   <g id="patch_5">
    <path d="M 68.023 622.6035 
L 960.823 622.6035 
" style="fill: none; stroke: #000000; stroke-width: 0.8; stroke-linejoin: miter; stroke-linecap: square"/>
   </g>
   <g id="patch_6">
    <path d="M 68.023 35.0835 
L 960.823 35.0835 
" style="fill: none; stroke: #000000; stroke-width: 0.8; stroke-linejoin: miter; stroke-linecap: square"/>
   </g>
   <g id="text_16">
    <!-- Body Fat Percentage -->
    <g transform="translate(366.48325 29.0835) scale(0.288 -0.288)">
     <defs>
      <path id="DejaVuSans-42" d="M 1259 2228 
L 1259 519 
L 2272 519 
Q 2781 519 3026 730 
Q 3272 941 3272 1375 
Q 3272 1813 3026 2020 
Q 2781 2228 2272 2228 
L 1259 2228 
z
M 1259 4147 
L 1259 2741 
L 2194 2741 
Q 2656 2741 2882 2914 
Q 3109 3088 3109 3444 
Q 3109 3797 2882 3972 
Q 2656 4147 2194 4147 
L 1259 4147 
z
M 628 4666 
L 2241 4666 
Q 2963 4666 3353 4366 
Q 3744 4066 3744 3513 
Q 3744 3084 3544 2831 
Q 3344 2578 2956 2516 
Q 3422 2416 3680 2098 
Q 3938 1781 3938 1306 
Q 3938 681 3513 340 
Q 3088 0 2303 0 
L 628 0 
L 628 4666 
z
" transform="scale(0.015625)"/>
      <path id="DejaVuSans-6f" d="M 1959 3097 
Q 1497 3097 1228 2736 
Q 959 2375 959 1747 
Q 959 1119 1226 758 
Q 1494 397 1959 397 
Q 2419 397 2687 759 
Q 2956 1122 2956 1747 
Q 2956 2369 2687 2733 
Q 2419 3097 1959 3097 
z
M 1959 3584 
Q 2709 3584 3137 3096 
Q 3566 2609 3566 1747 
Q 3566 888 3137 398 
Q 2709 -91 1959 -91 
Q 1206 -91 779 398 
Q 353 888 353 1747 
Q 353 2609 779 3096 
Q 1206 3584 1959 3584 
z
" transform="scale(0.015625)"/>
      <path id="DejaVuSans-64" d="M 2906 2969 
L 2906 4863 
L 3481 4863 
L 3481 0 
L 2906 0 
L 2906 525 
Q 2725 213 2448 61 
Q 2172 -91 1784 -91 
Q 1150 -91 751 415 
Q 353 922 353 1747 
Q 353 2572 751 3078 
Q 1150 3584 1784 3584 
Q 2172 3584 2448 3432 
Q 2725 3281 2906 2969 
z
M 947 1747 
Q 947 1113 1208 752 
Q 1469 391 1925 391 
Q 2381 391 2643 752 
Q 2906 1113 2906 1747 
Q 2906 2381 2643 2742 
Q 2381 3103 1925 3103 
Q 1469 3103 1208 2742 
Q 947 2381 947 1747 
z
" transform="scale(0.015625)"/>
      <path id="DejaVuSans-79" d="M 2059 -325 
Q 1816 -950 1584 -1140 
Q 1353 -1331 966 -1331 
L 506 -1331 
L 506 -850 
L 844 -850 
Q 1081 -850 1212 -737 
Q 1344 -625 1503 -206 
L 1606 56 
L 191 3500 
L 800 3500 
L 1894 763 
L 2988 3500 
L 3597 3500 
L 2059 -325 
z
" transform="scale(0.015625)"/>
     </defs>
     <use xlink:href="#DejaVuSans-42"/>
     <use xlink:href="#DejaVuSans-6f" x="68.603516"/>
     <use xlink:href="#DejaVuSans-64" x="129.785156"/>
     <use xlink:href="#DejaVuSans-79" x="193.261719"/>
     <use xlink:href="#DejaVuSans-20" x="252.441406"/>
     <use xlink:href="#DejaVuSans-46" x="284.228516"/>
     <use xlink:href="#DejaVuSans-61" x="332.623047"/>
     <use xlink:href="#DejaVuSans-74" x="393.902344"/>
     <use xlink:href="#DejaVuSans-20" x="433.111328"/>
     <use xlink:href="#DejaVuSans-50" x="464.898438"/>
     <use xlink:href="#DejaVuSans-65" x="521.576172"/>
     <use xlink:href="#DejaVuSans-72" x="583.099609"/>
     <use xlink:href="#DejaVuSans-63" x="621.962891"/>
     <use xlink:href="#DejaVuSans-65" x="676.943359"/>
     <use xlink:href="#DejaVuSans-6e" x="738.466797"/>
     <use xlink:href="#DejaVuSans-74" x="801.845703"/>
     <use xlink:href="#DejaVuSans-61" x="841.054688"/>
     <use xlink:href="#DejaVuSans-67" x="902.333984"/>
     <use xlink:href="#DejaVuSans-65" x="965.810547"/>
    </g>
   </g>
  </g>
 </g>
 <defs>
  <clipPath id="p978c2a105e">
   <rect x="68.023" y="35.0835" width="892.8" height="587.52"/>
  </clipPath>
 </defs>
</svg>
