<?xml version="1.0" encoding="utf-8" standalone="no"?>
<!DOCTYPE svg PUBLIC "-//W3C//DTD SVG 1.1//EN"
  "http://www.w3.org/Graphics/SVG/1.1/DTD/svg11.dtd">
<svg xmlns:xlink="http://www.w3.org/1999/xlink" width="980.748pt" height="700.466504pt" viewBox="0 0 980.748 700.466504" xmlns="http://www.w3.org/2000/svg" version="1.1">
 <metadata>
  <rdf:RDF xmlns:dc="http://purl.org/dc/elements/1.1/" xmlns:cc="http://creativecommons.org/ns#" xmlns:rdf="http://www.w3.org/1999/02/22-rdf-syntax-ns#">
   <cc:Work>
    <dc:type rdf:resource="http://purl.org/dc/dcmitype/StillImage"/>
    <dc:date>2024-09-26T19:17:40.320211</dc:date>
    <dc:format>image/svg+xml</dc:format>
    <dc:creator>
     <cc:Agent>
      <dc:title>Matplotlib v3.9.2, https://matplotlib.org/</dc:title>
     </cc:Agent>
    </dc:creator>
   </cc:Work>
  </rdf:RDF>
 </metadata>
 <defs>
  <style type="text/css">*{stroke-linejoin: round; stroke-linecap: butt}</style>
 </defs>
 <g id="figure_1">
  <g id="patch_1">
   <path d="M 0 700.466504 
L 980.748 700.466504 
L 980.748 0 
L 0 0 
z
" style="fill: #ffffff"/>
  </g>
  <g id="axes_1">
   <g id="patch_2">
    <path d="M 80.748 622.6035 
L 973.548 622.6035 
L 973.548 35.0835 
L 80.748 35.0835 
z
" style="fill: #ffffff"/>
   </g>
   <g id="PolyCollection_1">
    <defs>
     <path id="m6945a00720" d="M 121.329818 -325.76114 
L 121.329818 -276.514894 
L 127.875273 -104.568459 
L 131.148 -285.858761 
L 134.420727 -300.523907 
L 137.693455 -335.547885 
L 140.966182 -266.327287 
L 144.238909 -298.863333 
L 147.511636 -297.824387 
L 150.784364 -301.110798 
L 154.057091 -342.693692 
L 157.329818 -296.705667 
L 160.602545 -264.259867 
L 163.875273 -336.295395 
L 167.148 -324.550289 
L 170.420727 -287.220677 
L 173.693455 -310.370659 
L 176.966182 -323.033187 
L 180.238909 -343.710426 
L 183.511636 -363.687527 
L 186.784364 -351.247398 
L 190.057091 -349.140175 
L 193.329818 -329.893238 
L 196.602545 -307.91392 
L 199.875273 -305.828445 
L 203.148 -316.115197 
L 206.420727 -313.172554 
L 209.693455 -336.296944 
L 212.966182 -378.561729 
L 216.238909 -337.742995 
L 219.511636 -317.255309 
L 222.784364 -347.162703 
L 226.057091 -366.281579 
L 229.329818 -362.862216 
L 232.602545 -389.273905 
L 235.875273 -411.530707 
L 239.148 -392.517742 
L 242.420727 -363.886267 
L 245.693455 -385.029531 
L 248.966182 -393.214608 
L 252.238909 -410.272734 
L 255.511636 -384.084978 
L 258.784364 -360.245631 
L 262.057091 -358.018913 
L 265.329818 -403.856409 
L 268.602545 -351.087581 
L 271.875273 -340.359581 
L 275.148 -397.401145 
L 278.420727 -417.025536 
L 281.693455 -434.486511 
L 284.966182 -394.243415 
L 288.238909 -413.100658 
L 291.511636 -384.924985 
L 294.784364 -425.877998 
L 298.057091 -449.812415 
L 301.329818 -456.714604 
L 304.602545 -439.004855 
L 307.875273 -432.028445 
L 311.148 -464.909052 
L 314.420727 -438.182111 
L 317.693455 -427.761022 
L 320.966182 -433.076826 
L 324.238909 -436.649928 
L 327.511636 -378.561729 
L 330.784364 -404.204267 
L 334.057091 -463.3391 
L 337.329818 -438.642737 
L 340.602545 -451.60885 
L 343.875273 -391.245341 
L 347.148 -402.895975 
L 350.420727 -409.437438 
L 353.693455 -403.837092 
L 356.966182 -425.879097 
L 360.238909 -449.209538 
L 363.511636 -417.265401 
L 366.784364 -423.567 
L 370.057091 -432.961711 
L 373.329818 -442.445014 
L 376.602545 -429.585147 
L 379.875273 -436.649928 
L 383.148 -461.273051 
L 389.693455 -400.541048 
L 392.966182 -388.514652 
L 396.238909 -421.89505 
L 399.511636 -411.530707 
L 415.875273 -408.390804 
L 419.148 -403.68095 
L 422.420727 -338.222525 
L 425.693455 -401.587682 
L 428.966182 -361.292265 
L 442.057091 -359.722313 
L 445.329818 -353.442508 
L 448.602545 -394.261242 
L 471.511636 -357.538956 
L 474.784364 -352.657533 
L 478.057091 -351.34924 
L 481.329818 -350.424003 
L 484.602545 -407.605829 
L 487.875273 -348.732654 
L 491.148 -342.452849 
L 494.420727 -353.442508 
L 497.693455 -314.193725 
L 500.966182 -326.819154 
L 504.238909 -293.784358 
L 507.511636 -294.830992 
L 520.602545 -313.40875 
L 523.875273 -314.717042 
L 527.148 -313.670408 
L 530.420727 -358.337391 
L 533.693455 -293.784358 
L 550.057091 -331.46319 
L 586.057091 -356.582411 
L 602.420727 -307.91392 
L 605.693455 -307.91392 
L 612.238909 -293.784358 
L 622.057091 -314.193725 
L 664.602545 -276.514894 
L 772.602545 -545.499886 
L 775.875273 -518.906927 
L 779.148 -571.039265 
L 782.420727 -546.54652 
L 785.693455 -552.826325 
L 792.238909 -449.209538 
L 795.511636 -512.007591 
L 932.966182 -607.278523 
L 932.966182 -638.67755 
L 932.966182 -638.67755 
L 795.511636 -561.253837 
L 792.238909 -498.455785 
L 785.693455 -602.072571 
L 782.420727 -595.792766 
L 779.148 -608.978853 
L 775.875273 -606.162895 
L 772.602545 -594.746132 
L 664.602545 -325.76114 
L 622.057091 -363.439971 
L 612.238909 -343.030604 
L 605.693455 -357.160166 
L 602.420727 -357.160166 
L 586.057091 -405.828657 
L 550.057091 -380.709436 
L 533.693455 -343.030604 
L 530.420727 -397.008896 
L 527.148 -362.916654 
L 523.875273 -363.963289 
L 520.602545 -362.654996 
L 507.511636 -344.077239 
L 504.238909 -343.030604 
L 500.966182 -440.301768 
L 497.693455 -363.439971 
L 494.420727 -402.688754 
L 491.148 -391.699095 
L 487.875273 -397.9789 
L 484.602545 -456.852075 
L 481.329818 -389.22277 
L 478.057091 -400.595486 
L 474.784364 -401.903779 
L 471.511636 -389.172599 
L 448.602545 -443.507489 
L 445.329818 -402.688754 
L 442.057091 -408.96856 
L 428.966182 -410.538511 
L 425.693455 -450.833928 
L 422.420727 -413.98386 
L 419.148 -452.927196 
L 415.875273 -457.63705 
L 399.511636 -460.776953 
L 396.238909 -475.008514 
L 392.966182 -450.51004 
L 389.693455 -449.787294 
L 383.148 -489.532175 
L 379.875273 -485.896174 
L 376.602545 -478.831393 
L 373.329818 -490.56743 
L 370.057091 -456.615413 
L 366.784364 -472.813246 
L 363.511636 -467.601869 
L 360.238909 -498.455785 
L 356.966182 -491.433834 
L 353.693455 -481.030179 
L 350.420727 -458.683685 
L 347.148 -452.142221 
L 343.875273 -505.396565 
L 340.602545 -506.373296 
L 337.329818 -485.787306 
L 334.057091 -512.585346 
L 330.784364 -453.450514 
L 327.511636 -427.807975 
L 324.238909 -485.896174 
L 320.966182 -472.199811 
L 317.693455 -455.536297 
L 314.420727 -467.408517 
L 311.148 -514.155298 
L 307.875273 -506.84515 
L 304.602545 -488.251101 
L 301.329818 -530.722819 
L 298.057091 -505.926943 
L 294.784364 -478.875322 
L 291.511636 -464.61838 
L 288.238909 -462.346904 
L 284.966182 -424.6859 
L 281.693455 -447.240856 
L 278.420727 -466.271783 
L 275.148 -446.647391 
L 271.875273 -389.605827 
L 268.602545 -400.333827 
L 265.329818 -428.417493 
L 262.057091 -394.187471 
L 258.784364 -409.491877 
L 255.511636 -441.124142 
L 252.238909 -450.260291 
L 248.966182 -442.460854 
L 245.693455 -455.251122 
L 242.420727 -429.923827 
L 239.148 -425.626597 
L 235.875273 -460.776953 
L 232.602545 -415.211858 
L 229.329818 -412.108462 
L 226.057091 -405.549197 
L 222.784364 -396.408949 
L 219.511636 -379.845784 
L 216.238909 -386.989241 
L 212.966182 -427.807975 
L 209.693455 -410.41461 
L 206.420727 -391.150315 
L 203.148 -370.153232 
L 199.875273 -385.149837 
L 196.602545 -357.160166 
L 193.329818 -379.139485 
L 190.057091 -364.602402 
L 186.784364 -360.925228 
L 183.511636 -368.894466 
L 180.238909 -374.114024 
L 176.966182 -384.952902 
L 173.693455 -364.908111 
L 170.420727 -337.81965 
L 167.148 -375.062726 
L 163.875273 -353.112937 
L 160.602545 -303.477238 
L 157.329818 -350.784964 
L 154.057091 -378.375324 
L 150.784364 -350.357044 
L 147.511636 -340.560527 
L 144.238909 -333.765092 
L 140.966182 -291.990109 
L 137.693455 -345.225715 
L 134.420727 -311.171835 
L 131.148 -330.322555 
L 127.875273 -251.225218 
L 121.329818 -325.76114 
z
" style="stroke: #ff0000; stroke-opacity: 0.2"/>
    </defs>
    <g clip-path="url(#p9754dea5d8)">
     <use xlink:href="#m6945a00720" x="0" y="700.466504" style="fill: #ff0000; fill-opacity: 0.2; stroke: #ff0000; stroke-opacity: 0.2"/>
    </g>
   </g>
   <g id="matplotlib.axis_1">
    <g id="xtick_1">
     <g id="line2d_1">
      <path d="M 124.602545 622.6035 
L 124.602545 35.0835 
" clip-path="url(#p9754dea5d8)" style="fill: none; stroke: #a5a391; stroke-opacity: 0.3; stroke-width: 0.8; stroke-linecap: square"/>
     </g>
     <g id="line2d_2">
      <defs>
       <path id="m9bbadb4cc7" d="M 0 0 
L 0 -3.5 
" style="stroke: #000000; stroke-width: 0.8"/>
      </defs>
      <g>
       <use xlink:href="#m9bbadb4cc7" x="124.602545" y="622.6035" style="stroke: #000000; stroke-width: 0.8"/>
      </g>
     </g>
     <g id="text_1">
      <!-- Jan 01, 20 -->
      <g transform="translate(35.227497 689.66438) rotate(-30) scale(0.2 -0.2)">
       <defs>
        <path id="DejaVuSans-4a" d="M 628 4666 
L 1259 4666 
L 1259 325 
Q 1259 -519 939 -900 
Q 619 -1281 -91 -1281 
L -331 -1281 
L -331 -750 
L -134 -750 
Q 284 -750 456 -515 
Q 628 -281 628 325 
L 628 4666 
z
" transform="scale(0.015625)"/>
        <path id="DejaVuSans-61" d="M 2194 1759 
Q 1497 1759 1228 1600 
Q 959 1441 959 1056 
Q 959 750 1161 570 
Q 1363 391 1709 391 
Q 2188 391 2477 730 
Q 2766 1069 2766 1631 
L 2766 1759 
L 2194 1759 
z
M 3341 1997 
L 3341 0 
L 2766 0 
L 2766 531 
Q 2569 213 2275 61 
Q 1981 -91 1556 -91 
Q 1019 -91 701 211 
Q 384 513 384 1019 
Q 384 1609 779 1909 
Q 1175 2209 1959 2209 
L 2766 2209 
L 2766 2266 
Q 2766 2663 2505 2880 
Q 2244 3097 1772 3097 
Q 1472 3097 1187 3025 
Q 903 2953 641 2809 
L 641 3341 
Q 956 3463 1253 3523 
Q 1550 3584 1831 3584 
Q 2591 3584 2966 3190 
Q 3341 2797 3341 1997 
z
" transform="scale(0.015625)"/>
        <path id="DejaVuSans-6e" d="M 3513 2113 
L 3513 0 
L 2938 0 
L 2938 2094 
Q 2938 2591 2744 2837 
Q 2550 3084 2163 3084 
Q 1697 3084 1428 2787 
Q 1159 2491 1159 1978 
L 1159 0 
L 581 0 
L 581 3500 
L 1159 3500 
L 1159 2956 
Q 1366 3272 1645 3428 
Q 1925 3584 2291 3584 
Q 2894 3584 3203 3211 
Q 3513 2838 3513 2113 
z
" transform="scale(0.015625)"/>
        <path id="DejaVuSans-20" transform="scale(0.015625)"/>
        <path id="DejaVuSans-30" d="M 2034 4250 
Q 1547 4250 1301 3770 
Q 1056 3291 1056 2328 
Q 1056 1369 1301 889 
Q 1547 409 2034 409 
Q 2525 409 2770 889 
Q 3016 1369 3016 2328 
Q 3016 3291 2770 3770 
Q 2525 4250 2034 4250 
z
M 2034 4750 
Q 2819 4750 3233 4129 
Q 3647 3509 3647 2328 
Q 3647 1150 3233 529 
Q 2819 -91 2034 -91 
Q 1250 -91 836 529 
Q 422 1150 422 2328 
Q 422 3509 836 4129 
Q 1250 4750 2034 4750 
z
" transform="scale(0.015625)"/>
        <path id="DejaVuSans-31" d="M 794 531 
L 1825 531 
L 1825 4091 
L 703 3866 
L 703 4441 
L 1819 4666 
L 2450 4666 
L 2450 531 
L 3481 531 
L 3481 0 
L 794 0 
L 794 531 
z
" transform="scale(0.015625)"/>
        <path id="DejaVuSans-2c" d="M 750 794 
L 1409 794 
L 1409 256 
L 897 -744 
L 494 -744 
L 750 256 
L 750 794 
z
" transform="scale(0.015625)"/>
        <path id="DejaVuSans-32" d="M 1228 531 
L 3431 531 
L 3431 0 
L 469 0 
L 469 531 
Q 828 903 1448 1529 
Q 2069 2156 2228 2338 
Q 2531 2678 2651 2914 
Q 2772 3150 2772 3378 
Q 2772 3750 2511 3984 
Q 2250 4219 1831 4219 
Q 1534 4219 1204 4116 
Q 875 4013 500 3803 
L 500 4441 
Q 881 4594 1212 4672 
Q 1544 4750 1819 4750 
Q 2544 4750 2975 4387 
Q 3406 4025 3406 3419 
Q 3406 3131 3298 2873 
Q 3191 2616 2906 2266 
Q 2828 2175 2409 1742 
Q 1991 1309 1228 531 
z
" transform="scale(0.015625)"/>
       </defs>
       <use xlink:href="#DejaVuSans-4a"/>
       <use xlink:href="#DejaVuSans-61" x="29.492188"/>
       <use xlink:href="#DejaVuSans-6e" x="90.771484"/>
       <use xlink:href="#DejaVuSans-20" x="154.150391"/>
       <use xlink:href="#DejaVuSans-30" x="185.9375"/>
       <use xlink:href="#DejaVuSans-31" x="249.560547"/>
       <use xlink:href="#DejaVuSans-2c" x="313.183594"/>
       <use xlink:href="#DejaVuSans-20" x="344.970703"/>
       <use xlink:href="#DejaVuSans-32" x="376.757812"/>
       <use xlink:href="#DejaVuSans-30" x="440.380859"/>
      </g>
     </g>
    </g>
    <g id="xtick_2">
     <g id="line2d_3">
      <path d="M 295.719429 622.6035 
L 295.719429 35.0835 
" clip-path="url(#p9754dea5d8)" style="fill: none; stroke: #a5a391; stroke-opacity: 0.3; stroke-width: 0.8; stroke-linecap: square"/>
     </g>
     <g id="line2d_4">
      <g>
       <use xlink:href="#m9bbadb4cc7" x="295.719429" y="622.6035" style="stroke: #000000; stroke-width: 0.8"/>
      </g>
     </g>
     <g id="text_2">
      <!-- Jan 01, 21 -->
      <g transform="translate(206.34438 689.66438) rotate(-30) scale(0.2 -0.2)">
       <use xlink:href="#DejaVuSans-4a"/>
       <use xlink:href="#DejaVuSans-61" x="29.492188"/>
       <use xlink:href="#DejaVuSans-6e" x="90.771484"/>
       <use xlink:href="#DejaVuSans-20" x="154.150391"/>
       <use xlink:href="#DejaVuSans-30" x="185.9375"/>
       <use xlink:href="#DejaVuSans-31" x="249.560547"/>
       <use xlink:href="#DejaVuSans-2c" x="313.183594"/>
       <use xlink:href="#DejaVuSans-20" x="344.970703"/>
       <use xlink:href="#DejaVuSans-32" x="376.757812"/>
       <use xlink:href="#DejaVuSans-31" x="440.380859"/>
      </g>
     </g>
    </g>
    <g id="xtick_3">
     <g id="line2d_5">
      <path d="M 466.368779 622.6035 
L 466.368779 35.0835 
" clip-path="url(#p9754dea5d8)" style="fill: none; stroke: #a5a391; stroke-opacity: 0.3; stroke-width: 0.8; stroke-linecap: square"/>
     </g>
     <g id="line2d_6">
      <g>
       <use xlink:href="#m9bbadb4cc7" x="466.368779" y="622.6035" style="stroke: #000000; stroke-width: 0.8"/>
      </g>
     </g>
     <g id="text_3">
      <!-- Jan 01, 22 -->
      <g transform="translate(376.993731 689.66438) rotate(-30) scale(0.2 -0.2)">
       <use xlink:href="#DejaVuSans-4a"/>
       <use xlink:href="#DejaVuSans-61" x="29.492188"/>
       <use xlink:href="#DejaVuSans-6e" x="90.771484"/>
       <use xlink:href="#DejaVuSans-20" x="154.150391"/>
       <use xlink:href="#DejaVuSans-30" x="185.9375"/>
       <use xlink:href="#DejaVuSans-31" x="249.560547"/>
       <use xlink:href="#DejaVuSans-2c" x="313.183594"/>
       <use xlink:href="#DejaVuSans-20" x="344.970703"/>
       <use xlink:href="#DejaVuSans-32" x="376.757812"/>
       <use xlink:href="#DejaVuSans-32" x="440.380859"/>
      </g>
     </g>
    </g>
    <g id="xtick_4">
     <g id="line2d_7">
      <path d="M 637.01813 622.6035 
L 637.01813 35.0835 
" clip-path="url(#p9754dea5d8)" style="fill: none; stroke: #a5a391; stroke-opacity: 0.3; stroke-width: 0.8; stroke-linecap: square"/>
     </g>
     <g id="line2d_8">
      <g>
       <use xlink:href="#m9bbadb4cc7" x="637.01813" y="622.6035" style="stroke: #000000; stroke-width: 0.8"/>
      </g>
     </g>
     <g id="text_4">
      <!-- Jan 01, 23 -->
      <g transform="translate(547.643082 689.66438) rotate(-30) scale(0.2 -0.2)">
       <defs>
        <path id="DejaVuSans-33" d="M 2597 2516 
Q 3050 2419 3304 2112 
Q 3559 1806 3559 1356 
Q 3559 666 3084 287 
Q 2609 -91 1734 -91 
Q 1441 -91 1130 -33 
Q 819 25 488 141 
L 488 750 
Q 750 597 1062 519 
Q 1375 441 1716 441 
Q 2309 441 2620 675 
Q 2931 909 2931 1356 
Q 2931 1769 2642 2001 
Q 2353 2234 1838 2234 
L 1294 2234 
L 1294 2753 
L 1863 2753 
Q 2328 2753 2575 2939 
Q 2822 3125 2822 3475 
Q 2822 3834 2567 4026 
Q 2313 4219 1838 4219 
Q 1578 4219 1281 4162 
Q 984 4106 628 3988 
L 628 4550 
Q 988 4650 1302 4700 
Q 1616 4750 1894 4750 
Q 2613 4750 3031 4423 
Q 3450 4097 3450 3541 
Q 3450 3153 3228 2886 
Q 3006 2619 2597 2516 
z
" transform="scale(0.015625)"/>
       </defs>
       <use xlink:href="#DejaVuSans-4a"/>
       <use xlink:href="#DejaVuSans-61" x="29.492188"/>
       <use xlink:href="#DejaVuSans-6e" x="90.771484"/>
       <use xlink:href="#DejaVuSans-20" x="154.150391"/>
       <use xlink:href="#DejaVuSans-30" x="185.9375"/>
       <use xlink:href="#DejaVuSans-31" x="249.560547"/>
       <use xlink:href="#DejaVuSans-2c" x="313.183594"/>
       <use xlink:href="#DejaVuSans-20" x="344.970703"/>
       <use xlink:href="#DejaVuSans-32" x="376.757812"/>
       <use xlink:href="#DejaVuSans-33" x="440.380859"/>
      </g>
     </g>
    </g>
    <g id="xtick_5">
     <g id="line2d_9">
      <path d="M 807.667481 622.6035 
L 807.667481 35.0835 
" clip-path="url(#p9754dea5d8)" style="fill: none; stroke: #a5a391; stroke-opacity: 0.3; stroke-width: 0.8; stroke-linecap: square"/>
     </g>
     <g id="line2d_10">
      <g>
       <use xlink:href="#m9bbadb4cc7" x="807.667481" y="622.6035" style="stroke: #000000; stroke-width: 0.8"/>
      </g>
     </g>
     <g id="text_5">
      <!-- Jan 01, 24 -->
      <g transform="translate(718.292432 689.66438) rotate(-30) scale(0.2 -0.2)">
       <defs>
        <path id="DejaVuSans-34" d="M 2419 4116 
L 825 1625 
L 2419 1625 
L 2419 4116 
z
M 2253 4666 
L 3047 4666 
L 3047 1625 
L 3713 1625 
L 3713 1100 
L 3047 1100 
L 3047 0 
L 2419 0 
L 2419 1100 
L 313 1100 
L 313 1709 
L 2253 4666 
z
" transform="scale(0.015625)"/>
       </defs>
       <use xlink:href="#DejaVuSans-4a"/>
       <use xlink:href="#DejaVuSans-61" x="29.492188"/>
       <use xlink:href="#DejaVuSans-6e" x="90.771484"/>
       <use xlink:href="#DejaVuSans-20" x="154.150391"/>
       <use xlink:href="#DejaVuSans-30" x="185.9375"/>
       <use xlink:href="#DejaVuSans-31" x="249.560547"/>
       <use xlink:href="#DejaVuSans-2c" x="313.183594"/>
       <use xlink:href="#DejaVuSans-20" x="344.970703"/>
       <use xlink:href="#DejaVuSans-32" x="376.757812"/>
       <use xlink:href="#DejaVuSans-34" x="440.380859"/>
      </g>
     </g>
    </g>
   </g>
   <g id="matplotlib.axis_2">
    <g id="ytick_1">
     <g id="line2d_11">
      <path d="M 80.748 551.613765 
L 973.548 551.613765 
" clip-path="url(#p9754dea5d8)" style="fill: none; stroke: #a5a391; stroke-opacity: 0.3; stroke-width: 0.8; stroke-linecap: square"/>
     </g>
     <g id="line2d_12">
      <defs>
       <path id="m1dcdec899b" d="M 0 0 
L 3.5 0 
" style="stroke: #000000; stroke-width: 0.8"/>
      </defs>
      <g>
       <use xlink:href="#m1dcdec899b" x="80.748" y="551.613765" style="stroke: #000000; stroke-width: 0.8"/>
      </g>
     </g>
     <g id="text_6">
      <!-- 110 -->
      <g transform="translate(39.073 559.212203) scale(0.2 -0.2)">
       <use xlink:href="#DejaVuSans-31"/>
       <use xlink:href="#DejaVuSans-31" x="63.623047"/>
       <use xlink:href="#DejaVuSans-30" x="127.246094"/>
      </g>
     </g>
    </g>
    <g id="ytick_2">
     <g id="line2d_13">
      <path d="M 80.748 473.116199 
L 973.548 473.116199 
" clip-path="url(#p9754dea5d8)" style="fill: none; stroke: #a5a391; stroke-opacity: 0.3; stroke-width: 0.8; stroke-linecap: square"/>
     </g>
     <g id="line2d_14">
      <g>
       <use xlink:href="#m1dcdec899b" x="80.748" y="473.116199" style="stroke: #000000; stroke-width: 0.8"/>
      </g>
     </g>
     <g id="text_7">
      <!-- 115 -->
      <g transform="translate(39.073 480.714637) scale(0.2 -0.2)">
       <defs>
        <path id="DejaVuSans-35" d="M 691 4666 
L 3169 4666 
L 3169 4134 
L 1269 4134 
L 1269 2991 
Q 1406 3038 1543 3061 
Q 1681 3084 1819 3084 
Q 2600 3084 3056 2656 
Q 3513 2228 3513 1497 
Q 3513 744 3044 326 
Q 2575 -91 1722 -91 
Q 1428 -91 1123 -41 
Q 819 9 494 109 
L 494 744 
Q 775 591 1075 516 
Q 1375 441 1709 441 
Q 2250 441 2565 725 
Q 2881 1009 2881 1497 
Q 2881 1984 2565 2268 
Q 2250 2553 1709 2553 
Q 1456 2553 1204 2497 
Q 953 2441 691 2322 
L 691 4666 
z
" transform="scale(0.015625)"/>
       </defs>
       <use xlink:href="#DejaVuSans-31"/>
       <use xlink:href="#DejaVuSans-31" x="63.623047"/>
       <use xlink:href="#DejaVuSans-35" x="127.246094"/>
      </g>
     </g>
    </g>
    <g id="ytick_3">
     <g id="line2d_15">
      <path d="M 80.748 394.618634 
L 973.548 394.618634 
" clip-path="url(#p9754dea5d8)" style="fill: none; stroke: #a5a391; stroke-opacity: 0.3; stroke-width: 0.8; stroke-linecap: square"/>
     </g>
     <g id="line2d_16">
      <g>
       <use xlink:href="#m1dcdec899b" x="80.748" y="394.618634" style="stroke: #000000; stroke-width: 0.8"/>
      </g>
     </g>
     <g id="text_8">
      <!-- 120 -->
      <g transform="translate(39.073 402.217071) scale(0.2 -0.2)">
       <use xlink:href="#DejaVuSans-31"/>
       <use xlink:href="#DejaVuSans-32" x="63.623047"/>
       <use xlink:href="#DejaVuSans-30" x="127.246094"/>
      </g>
     </g>
    </g>
    <g id="ytick_4">
     <g id="line2d_17">
      <path d="M 80.748 316.121068 
L 973.548 316.121068 
" clip-path="url(#p9754dea5d8)" style="fill: none; stroke: #a5a391; stroke-opacity: 0.3; stroke-width: 0.8; stroke-linecap: square"/>
     </g>
     <g id="line2d_18">
      <g>
       <use xlink:href="#m1dcdec899b" x="80.748" y="316.121068" style="stroke: #000000; stroke-width: 0.8"/>
      </g>
     </g>
     <g id="text_9">
      <!-- 125 -->
      <g transform="translate(39.073 323.719505) scale(0.2 -0.2)">
       <use xlink:href="#DejaVuSans-31"/>
       <use xlink:href="#DejaVuSans-32" x="63.623047"/>
       <use xlink:href="#DejaVuSans-35" x="127.246094"/>
      </g>
     </g>
    </g>
    <g id="ytick_5">
     <g id="line2d_19">
      <path d="M 80.748 237.623502 
L 973.548 237.623502 
" clip-path="url(#p9754dea5d8)" style="fill: none; stroke: #a5a391; stroke-opacity: 0.3; stroke-width: 0.8; stroke-linecap: square"/>
     </g>
     <g id="line2d_20">
      <g>
       <use xlink:href="#m1dcdec899b" x="80.748" y="237.623502" style="stroke: #000000; stroke-width: 0.8"/>
      </g>
     </g>
     <g id="text_10">
      <!-- 130 -->
      <g transform="translate(39.073 245.221939) scale(0.2 -0.2)">
       <use xlink:href="#DejaVuSans-31"/>
       <use xlink:href="#DejaVuSans-33" x="63.623047"/>
       <use xlink:href="#DejaVuSans-30" x="127.246094"/>
      </g>
     </g>
    </g>
    <g id="ytick_6">
     <g id="line2d_21">
      <path d="M 80.748 159.125936 
L 973.548 159.125936 
" clip-path="url(#p9754dea5d8)" style="fill: none; stroke: #a5a391; stroke-opacity: 0.3; stroke-width: 0.8; stroke-linecap: square"/>
     </g>
     <g id="line2d_22">
      <g>
       <use xlink:href="#m1dcdec899b" x="80.748" y="159.125936" style="stroke: #000000; stroke-width: 0.8"/>
      </g>
     </g>
     <g id="text_11">
      <!-- 135 -->
      <g transform="translate(39.073 166.724374) scale(0.2 -0.2)">
       <use xlink:href="#DejaVuSans-31"/>
       <use xlink:href="#DejaVuSans-33" x="63.623047"/>
       <use xlink:href="#DejaVuSans-35" x="127.246094"/>
      </g>
     </g>
    </g>
    <g id="ytick_7">
     <g id="line2d_23">
      <path d="M 80.748 80.62837 
L 973.548 80.62837 
" clip-path="url(#p9754dea5d8)" style="fill: none; stroke: #a5a391; stroke-opacity: 0.3; stroke-width: 0.8; stroke-linecap: square"/>
     </g>
     <g id="line2d_24">
      <g>
       <use xlink:href="#m1dcdec899b" x="80.748" y="80.62837" style="stroke: #000000; stroke-width: 0.8"/>
      </g>
     </g>
     <g id="text_12">
      <!-- 140 -->
      <g transform="translate(39.073 88.226808) scale(0.2 -0.2)">
       <use xlink:href="#DejaVuSans-31"/>
       <use xlink:href="#DejaVuSans-34" x="63.623047"/>
       <use xlink:href="#DejaVuSans-30" x="127.246094"/>
      </g>
     </g>
    </g>
    <g id="text_13">
     <!-- Muscle Mass [lbs] -->
     <g transform="translate(29.0835 455.9595) rotate(-90) scale(0.288 -0.288)">
      <defs>
       <path id="DejaVuSans-4d" d="M 628 4666 
L 1569 4666 
L 2759 1491 
L 3956 4666 
L 4897 4666 
L 4897 0 
L 4281 0 
L 4281 4097 
L 3078 897 
L 2444 897 
L 1241 4097 
L 1241 0 
L 628 0 
L 628 4666 
z
" transform="scale(0.015625)"/>
       <path id="DejaVuSans-75" d="M 544 1381 
L 544 3500 
L 1119 3500 
L 1119 1403 
Q 1119 906 1312 657 
Q 1506 409 1894 409 
Q 2359 409 2629 706 
Q 2900 1003 2900 1516 
L 2900 3500 
L 3475 3500 
L 3475 0 
L 2900 0 
L 2900 538 
Q 2691 219 2414 64 
Q 2138 -91 1772 -91 
Q 1169 -91 856 284 
Q 544 659 544 1381 
z
M 1991 3584 
L 1991 3584 
z
" transform="scale(0.015625)"/>
       <path id="DejaVuSans-73" d="M 2834 3397 
L 2834 2853 
Q 2591 2978 2328 3040 
Q 2066 3103 1784 3103 
Q 1356 3103 1142 2972 
Q 928 2841 928 2578 
Q 928 2378 1081 2264 
Q 1234 2150 1697 2047 
L 1894 2003 
Q 2506 1872 2764 1633 
Q 3022 1394 3022 966 
Q 3022 478 2636 193 
Q 2250 -91 1575 -91 
Q 1294 -91 989 -36 
Q 684 19 347 128 
L 347 722 
Q 666 556 975 473 
Q 1284 391 1588 391 
Q 1994 391 2212 530 
Q 2431 669 2431 922 
Q 2431 1156 2273 1281 
Q 2116 1406 1581 1522 
L 1381 1569 
Q 847 1681 609 1914 
Q 372 2147 372 2553 
Q 372 3047 722 3315 
Q 1072 3584 1716 3584 
Q 2034 3584 2315 3537 
Q 2597 3491 2834 3397 
z
" transform="scale(0.015625)"/>
       <path id="DejaVuSans-63" d="M 3122 3366 
L 3122 2828 
Q 2878 2963 2633 3030 
Q 2388 3097 2138 3097 
Q 1578 3097 1268 2742 
Q 959 2388 959 1747 
Q 959 1106 1268 751 
Q 1578 397 2138 397 
Q 2388 397 2633 464 
Q 2878 531 3122 666 
L 3122 134 
Q 2881 22 2623 -34 
Q 2366 -91 2075 -91 
Q 1284 -91 818 406 
Q 353 903 353 1747 
Q 353 2603 823 3093 
Q 1294 3584 2113 3584 
Q 2378 3584 2631 3529 
Q 2884 3475 3122 3366 
z
" transform="scale(0.015625)"/>
       <path id="DejaVuSans-6c" d="M 603 4863 
L 1178 4863 
L 1178 0 
L 603 0 
L 603 4863 
z
" transform="scale(0.015625)"/>
       <path id="DejaVuSans-65" d="M 3597 1894 
L 3597 1613 
L 953 1613 
Q 991 1019 1311 708 
Q 1631 397 2203 397 
Q 2534 397 2845 478 
Q 3156 559 3463 722 
L 3463 178 
Q 3153 47 2828 -22 
Q 2503 -91 2169 -91 
Q 1331 -91 842 396 
Q 353 884 353 1716 
Q 353 2575 817 3079 
Q 1281 3584 2069 3584 
Q 2775 3584 3186 3129 
Q 3597 2675 3597 1894 
z
M 3022 2063 
Q 3016 2534 2758 2815 
Q 2500 3097 2075 3097 
Q 1594 3097 1305 2825 
Q 1016 2553 972 2059 
L 3022 2063 
z
" transform="scale(0.015625)"/>
       <path id="DejaVuSans-5b" d="M 550 4863 
L 1875 4863 
L 1875 4416 
L 1125 4416 
L 1125 -397 
L 1875 -397 
L 1875 -844 
L 550 -844 
L 550 4863 
z
" transform="scale(0.015625)"/>
       <path id="DejaVuSans-62" d="M 3116 1747 
Q 3116 2381 2855 2742 
Q 2594 3103 2138 3103 
Q 1681 3103 1420 2742 
Q 1159 2381 1159 1747 
Q 1159 1113 1420 752 
Q 1681 391 2138 391 
Q 2594 391 2855 752 
Q 3116 1113 3116 1747 
z
M 1159 2969 
Q 1341 3281 1617 3432 
Q 1894 3584 2278 3584 
Q 2916 3584 3314 3078 
Q 3713 2572 3713 1747 
Q 3713 922 3314 415 
Q 2916 -91 2278 -91 
Q 1894 -91 1617 61 
Q 1341 213 1159 525 
L 1159 0 
L 581 0 
L 581 4863 
L 1159 4863 
L 1159 2969 
z
" transform="scale(0.015625)"/>
       <path id="DejaVuSans-5d" d="M 1947 4863 
L 1947 -844 
L 622 -844 
L 622 -397 
L 1369 -397 
L 1369 4416 
L 622 4416 
L 622 4863 
L 1947 4863 
z
" transform="scale(0.015625)"/>
      </defs>
      <use xlink:href="#DejaVuSans-4d"/>
      <use xlink:href="#DejaVuSans-75" x="86.279297"/>
      <use xlink:href="#DejaVuSans-73" x="149.658203"/>
      <use xlink:href="#DejaVuSans-63" x="201.757812"/>
      <use xlink:href="#DejaVuSans-6c" x="256.738281"/>
      <use xlink:href="#DejaVuSans-65" x="284.521484"/>
      <use xlink:href="#DejaVuSans-20" x="346.044922"/>
      <use xlink:href="#DejaVuSans-4d" x="377.832031"/>
      <use xlink:href="#DejaVuSans-61" x="464.111328"/>
      <use xlink:href="#DejaVuSans-73" x="525.390625"/>
      <use xlink:href="#DejaVuSans-73" x="577.490234"/>
      <use xlink:href="#DejaVuSans-20" x="629.589844"/>
      <use xlink:href="#DejaVuSans-5b" x="661.376953"/>
      <use xlink:href="#DejaVuSans-6c" x="700.390625"/>
      <use xlink:href="#DejaVuSans-62" x="728.173828"/>
      <use xlink:href="#DejaVuSans-73" x="791.650391"/>
      <use xlink:href="#DejaVuSans-5d" x="843.75"/>
     </g>
    </g>
   </g>
   <g id="line2d_25">
    <path d="M 121.329818 399.328487 
L 127.875273 522.569666 
L 131.148 392.375846 
L 134.420727 394.618634 
L 137.693455 360.079705 
L 140.966182 421.307806 
L 144.238909 384.152291 
L 147.511636 381.274047 
L 150.784364 374.732584 
L 154.057091 339.931996 
L 157.329818 376.721189 
L 160.602545 416.597952 
L 163.875273 355.762338 
L 167.148 350.659997 
L 170.420727 387.94634 
L 173.693455 362.827119 
L 176.966182 346.47346 
L 180.238909 341.554279 
L 183.511636 334.175508 
L 186.784364 344.380191 
L 190.057091 343.595216 
L 193.329818 345.950143 
L 196.602545 367.929461 
L 199.875273 354.977363 
L 203.148 357.33229 
L 206.420727 348.30507 
L 209.693455 327.110727 
L 212.966182 297.281652 
L 216.238909 338.100386 
L 219.511636 351.915958 
L 222.784364 328.680678 
L 226.057091 314.551116 
L 229.329818 312.981165 
L 232.602545 298.223623 
L 235.875273 264.312674 
L 239.148 291.394334 
L 242.420727 303.561457 
L 245.693455 280.326178 
L 248.966182 282.628773 
L 252.238909 270.199992 
L 255.511636 287.861944 
L 258.784364 315.597751 
L 262.057091 324.363312 
L 265.329818 284.329554 
L 268.602545 324.7558 
L 271.875273 335.483801 
L 275.148 278.442236 
L 278.420727 258.817845 
L 281.693455 259.60282 
L 284.966182 291.001847 
L 288.238909 262.742723 
L 291.511636 275.694821 
L 294.784364 248.089844 
L 298.057091 222.596825 
L 301.329818 206.747793 
L 304.602545 236.838526 
L 307.875273 231.029706 
L 311.148 210.93433 
L 314.420727 247.67119 
L 317.693455 258.817845 
L 320.966182 247.828185 
L 324.238909 239.193453 
L 327.511636 297.281652 
L 330.784364 271.639114 
L 334.057091 212.504281 
L 337.329818 238.251482 
L 340.602545 221.475431 
L 343.875273 252.145552 
L 347.148 272.947407 
L 350.420727 266.405943 
L 353.693455 258.032869 
L 356.966182 241.810039 
L 360.238909 226.633843 
L 363.511636 258.032869 
L 366.784364 252.276381 
L 370.057091 255.677942 
L 373.329818 233.960282 
L 376.602545 246.258234 
L 379.875273 239.193453 
L 383.148 225.063891 
L 389.693455 275.302334 
L 392.966182 280.954158 
L 396.238909 252.014722 
L 399.511636 264.312674 
L 415.875273 267.452577 
L 419.148 272.162431 
L 422.420727 324.363312 
L 425.693455 274.255699 
L 428.966182 314.551116 
L 442.057091 316.121068 
L 445.329818 322.400873 
L 448.602545 281.582139 
L 471.511636 327.110727 
L 474.784364 323.185849 
L 478.057091 324.494141 
L 481.329818 330.643117 
L 484.602545 268.237553 
L 487.875273 327.110727 
L 491.148 333.390532 
L 494.420727 322.400873 
L 497.693455 361.649656 
L 500.966182 316.906043 
L 504.238909 382.059023 
L 507.511636 381.012389 
L 520.602545 362.434632 
L 523.875273 361.126339 
L 527.148 362.172973 
L 530.420727 322.793361 
L 533.693455 382.059023 
L 550.057091 344.380191 
L 586.057091 319.26097 
L 602.420727 367.929461 
L 605.693455 367.929461 
L 612.238909 382.059023 
L 622.057091 361.649656 
L 664.602545 399.328487 
L 772.602545 130.343495 
L 775.875273 137.931593 
L 779.148 110.457445 
L 782.420727 129.296861 
L 785.693455 123.017056 
L 792.238909 226.633843 
L 795.511636 163.83579 
L 932.966182 77.488468 
" clip-path="url(#p9754dea5d8)" style="fill: none; stroke: #ff0000; stroke-width: 1.5; stroke-linecap: square"/>
    <defs>
     <path id="mbac0d4b697" d="M 0 -3 
L -0.673542 -0.927051 
L -2.85317 -0.927051 
L -1.089814 0.354102 
L -1.763356 2.427051 
L -0 1.145898 
L 1.763356 2.427051 
L 1.089814 0.354102 
L 2.85317 -0.927051 
L 0.673542 -0.927051 
z
" style="stroke: #ff0000; stroke-linejoin: bevel"/>
    </defs>
    <g clip-path="url(#p9754dea5d8)">
     <use xlink:href="#mbac0d4b697" x="121.329818" y="399.328487" style="fill: #ff0000; stroke: #ff0000; stroke-linejoin: bevel"/>
     <use xlink:href="#mbac0d4b697" x="127.875273" y="522.569666" style="fill: #ff0000; stroke: #ff0000; stroke-linejoin: bevel"/>
     <use xlink:href="#mbac0d4b697" x="131.148" y="392.375846" style="fill: #ff0000; stroke: #ff0000; stroke-linejoin: bevel"/>
     <use xlink:href="#mbac0d4b697" x="134.420727" y="394.618634" style="fill: #ff0000; stroke: #ff0000; stroke-linejoin: bevel"/>
     <use xlink:href="#mbac0d4b697" x="137.693455" y="360.079705" style="fill: #ff0000; stroke: #ff0000; stroke-linejoin: bevel"/>
     <use xlink:href="#mbac0d4b697" x="140.966182" y="421.307806" style="fill: #ff0000; stroke: #ff0000; stroke-linejoin: bevel"/>
     <use xlink:href="#mbac0d4b697" x="144.238909" y="384.152291" style="fill: #ff0000; stroke: #ff0000; stroke-linejoin: bevel"/>
     <use xlink:href="#mbac0d4b697" x="147.511636" y="381.274047" style="fill: #ff0000; stroke: #ff0000; stroke-linejoin: bevel"/>
     <use xlink:href="#mbac0d4b697" x="150.784364" y="374.732584" style="fill: #ff0000; stroke: #ff0000; stroke-linejoin: bevel"/>
     <use xlink:href="#mbac0d4b697" x="154.057091" y="339.931996" style="fill: #ff0000; stroke: #ff0000; stroke-linejoin: bevel"/>
     <use xlink:href="#mbac0d4b697" x="157.329818" y="376.721189" style="fill: #ff0000; stroke: #ff0000; stroke-linejoin: bevel"/>
     <use xlink:href="#mbac0d4b697" x="160.602545" y="416.597952" style="fill: #ff0000; stroke: #ff0000; stroke-linejoin: bevel"/>
     <use xlink:href="#mbac0d4b697" x="163.875273" y="355.762338" style="fill: #ff0000; stroke: #ff0000; stroke-linejoin: bevel"/>
     <use xlink:href="#mbac0d4b697" x="167.148" y="350.659997" style="fill: #ff0000; stroke: #ff0000; stroke-linejoin: bevel"/>
     <use xlink:href="#mbac0d4b697" x="170.420727" y="387.94634" style="fill: #ff0000; stroke: #ff0000; stroke-linejoin: bevel"/>
     <use xlink:href="#mbac0d4b697" x="173.693455" y="362.827119" style="fill: #ff0000; stroke: #ff0000; stroke-linejoin: bevel"/>
     <use xlink:href="#mbac0d4b697" x="176.966182" y="346.47346" style="fill: #ff0000; stroke: #ff0000; stroke-linejoin: bevel"/>
     <use xlink:href="#mbac0d4b697" x="180.238909" y="341.554279" style="fill: #ff0000; stroke: #ff0000; stroke-linejoin: bevel"/>
     <use xlink:href="#mbac0d4b697" x="183.511636" y="334.175508" style="fill: #ff0000; stroke: #ff0000; stroke-linejoin: bevel"/>
     <use xlink:href="#mbac0d4b697" x="186.784364" y="344.380191" style="fill: #ff0000; stroke: #ff0000; stroke-linejoin: bevel"/>
     <use xlink:href="#mbac0d4b697" x="190.057091" y="343.595216" style="fill: #ff0000; stroke: #ff0000; stroke-linejoin: bevel"/>
     <use xlink:href="#mbac0d4b697" x="193.329818" y="345.950143" style="fill: #ff0000; stroke: #ff0000; stroke-linejoin: bevel"/>
     <use xlink:href="#mbac0d4b697" x="196.602545" y="367.929461" style="fill: #ff0000; stroke: #ff0000; stroke-linejoin: bevel"/>
     <use xlink:href="#mbac0d4b697" x="199.875273" y="354.977363" style="fill: #ff0000; stroke: #ff0000; stroke-linejoin: bevel"/>
     <use xlink:href="#mbac0d4b697" x="203.148" y="357.33229" style="fill: #ff0000; stroke: #ff0000; stroke-linejoin: bevel"/>
     <use xlink:href="#mbac0d4b697" x="206.420727" y="348.30507" style="fill: #ff0000; stroke: #ff0000; stroke-linejoin: bevel"/>
     <use xlink:href="#mbac0d4b697" x="209.693455" y="327.110727" style="fill: #ff0000; stroke: #ff0000; stroke-linejoin: bevel"/>
     <use xlink:href="#mbac0d4b697" x="212.966182" y="297.281652" style="fill: #ff0000; stroke: #ff0000; stroke-linejoin: bevel"/>
     <use xlink:href="#mbac0d4b697" x="216.238909" y="338.100386" style="fill: #ff0000; stroke: #ff0000; stroke-linejoin: bevel"/>
     <use xlink:href="#mbac0d4b697" x="219.511636" y="351.915958" style="fill: #ff0000; stroke: #ff0000; stroke-linejoin: bevel"/>
     <use xlink:href="#mbac0d4b697" x="222.784364" y="328.680678" style="fill: #ff0000; stroke: #ff0000; stroke-linejoin: bevel"/>
     <use xlink:href="#mbac0d4b697" x="226.057091" y="314.551116" style="fill: #ff0000; stroke: #ff0000; stroke-linejoin: bevel"/>
     <use xlink:href="#mbac0d4b697" x="229.329818" y="312.981165" style="fill: #ff0000; stroke: #ff0000; stroke-linejoin: bevel"/>
     <use xlink:href="#mbac0d4b697" x="232.602545" y="298.223623" style="fill: #ff0000; stroke: #ff0000; stroke-linejoin: bevel"/>
     <use xlink:href="#mbac0d4b697" x="235.875273" y="264.312674" style="fill: #ff0000; stroke: #ff0000; stroke-linejoin: bevel"/>
     <use xlink:href="#mbac0d4b697" x="239.148" y="291.394334" style="fill: #ff0000; stroke: #ff0000; stroke-linejoin: bevel"/>
     <use xlink:href="#mbac0d4b697" x="242.420727" y="303.561457" style="fill: #ff0000; stroke: #ff0000; stroke-linejoin: bevel"/>
     <use xlink:href="#mbac0d4b697" x="245.693455" y="280.326178" style="fill: #ff0000; stroke: #ff0000; stroke-linejoin: bevel"/>
     <use xlink:href="#mbac0d4b697" x="248.966182" y="282.628773" style="fill: #ff0000; stroke: #ff0000; stroke-linejoin: bevel"/>
     <use xlink:href="#mbac0d4b697" x="252.238909" y="270.199992" style="fill: #ff0000; stroke: #ff0000; stroke-linejoin: bevel"/>
     <use xlink:href="#mbac0d4b697" x="255.511636" y="287.861944" style="fill: #ff0000; stroke: #ff0000; stroke-linejoin: bevel"/>
     <use xlink:href="#mbac0d4b697" x="258.784364" y="315.597751" style="fill: #ff0000; stroke: #ff0000; stroke-linejoin: bevel"/>
     <use xlink:href="#mbac0d4b697" x="262.057091" y="324.363312" style="fill: #ff0000; stroke: #ff0000; stroke-linejoin: bevel"/>
     <use xlink:href="#mbac0d4b697" x="265.329818" y="284.329554" style="fill: #ff0000; stroke: #ff0000; stroke-linejoin: bevel"/>
     <use xlink:href="#mbac0d4b697" x="268.602545" y="324.7558" style="fill: #ff0000; stroke: #ff0000; stroke-linejoin: bevel"/>
     <use xlink:href="#mbac0d4b697" x="271.875273" y="335.483801" style="fill: #ff0000; stroke: #ff0000; stroke-linejoin: bevel"/>
     <use xlink:href="#mbac0d4b697" x="275.148" y="278.442236" style="fill: #ff0000; stroke: #ff0000; stroke-linejoin: bevel"/>
     <use xlink:href="#mbac0d4b697" x="278.420727" y="258.817845" style="fill: #ff0000; stroke: #ff0000; stroke-linejoin: bevel"/>
     <use xlink:href="#mbac0d4b697" x="281.693455" y="259.60282" style="fill: #ff0000; stroke: #ff0000; stroke-linejoin: bevel"/>
     <use xlink:href="#mbac0d4b697" x="284.966182" y="291.001847" style="fill: #ff0000; stroke: #ff0000; stroke-linejoin: bevel"/>
     <use xlink:href="#mbac0d4b697" x="288.238909" y="262.742723" style="fill: #ff0000; stroke: #ff0000; stroke-linejoin: bevel"/>
     <use xlink:href="#mbac0d4b697" x="291.511636" y="275.694821" style="fill: #ff0000; stroke: #ff0000; stroke-linejoin: bevel"/>
     <use xlink:href="#mbac0d4b697" x="294.784364" y="248.089844" style="fill: #ff0000; stroke: #ff0000; stroke-linejoin: bevel"/>
     <use xlink:href="#mbac0d4b697" x="298.057091" y="222.596825" style="fill: #ff0000; stroke: #ff0000; stroke-linejoin: bevel"/>
     <use xlink:href="#mbac0d4b697" x="301.329818" y="206.747793" style="fill: #ff0000; stroke: #ff0000; stroke-linejoin: bevel"/>
     <use xlink:href="#mbac0d4b697" x="304.602545" y="236.838526" style="fill: #ff0000; stroke: #ff0000; stroke-linejoin: bevel"/>
     <use xlink:href="#mbac0d4b697" x="307.875273" y="231.029706" style="fill: #ff0000; stroke: #ff0000; stroke-linejoin: bevel"/>
     <use xlink:href="#mbac0d4b697" x="311.148" y="210.93433" style="fill: #ff0000; stroke: #ff0000; stroke-linejoin: bevel"/>
     <use xlink:href="#mbac0d4b697" x="314.420727" y="247.67119" style="fill: #ff0000; stroke: #ff0000; stroke-linejoin: bevel"/>
     <use xlink:href="#mbac0d4b697" x="317.693455" y="258.817845" style="fill: #ff0000; stroke: #ff0000; stroke-linejoin: bevel"/>
     <use xlink:href="#mbac0d4b697" x="320.966182" y="247.828185" style="fill: #ff0000; stroke: #ff0000; stroke-linejoin: bevel"/>
     <use xlink:href="#mbac0d4b697" x="324.238909" y="239.193453" style="fill: #ff0000; stroke: #ff0000; stroke-linejoin: bevel"/>
     <use xlink:href="#mbac0d4b697" x="327.511636" y="297.281652" style="fill: #ff0000; stroke: #ff0000; stroke-linejoin: bevel"/>
     <use xlink:href="#mbac0d4b697" x="330.784364" y="271.639114" style="fill: #ff0000; stroke: #ff0000; stroke-linejoin: bevel"/>
     <use xlink:href="#mbac0d4b697" x="334.057091" y="212.504281" style="fill: #ff0000; stroke: #ff0000; stroke-linejoin: bevel"/>
     <use xlink:href="#mbac0d4b697" x="337.329818" y="238.251482" style="fill: #ff0000; stroke: #ff0000; stroke-linejoin: bevel"/>
     <use xlink:href="#mbac0d4b697" x="340.602545" y="221.475431" style="fill: #ff0000; stroke: #ff0000; stroke-linejoin: bevel"/>
     <use xlink:href="#mbac0d4b697" x="343.875273" y="252.145552" style="fill: #ff0000; stroke: #ff0000; stroke-linejoin: bevel"/>
     <use xlink:href="#mbac0d4b697" x="347.148" y="272.947407" style="fill: #ff0000; stroke: #ff0000; stroke-linejoin: bevel"/>
     <use xlink:href="#mbac0d4b697" x="350.420727" y="266.405943" style="fill: #ff0000; stroke: #ff0000; stroke-linejoin: bevel"/>
     <use xlink:href="#mbac0d4b697" x="353.693455" y="258.032869" style="fill: #ff0000; stroke: #ff0000; stroke-linejoin: bevel"/>
     <use xlink:href="#mbac0d4b697" x="356.966182" y="241.810039" style="fill: #ff0000; stroke: #ff0000; stroke-linejoin: bevel"/>
     <use xlink:href="#mbac0d4b697" x="360.238909" y="226.633843" style="fill: #ff0000; stroke: #ff0000; stroke-linejoin: bevel"/>
     <use xlink:href="#mbac0d4b697" x="363.511636" y="258.032869" style="fill: #ff0000; stroke: #ff0000; stroke-linejoin: bevel"/>
     <use xlink:href="#mbac0d4b697" x="366.784364" y="252.276381" style="fill: #ff0000; stroke: #ff0000; stroke-linejoin: bevel"/>
     <use xlink:href="#mbac0d4b697" x="370.057091" y="255.677942" style="fill: #ff0000; stroke: #ff0000; stroke-linejoin: bevel"/>
     <use xlink:href="#mbac0d4b697" x="373.329818" y="233.960282" style="fill: #ff0000; stroke: #ff0000; stroke-linejoin: bevel"/>
     <use xlink:href="#mbac0d4b697" x="376.602545" y="246.258234" style="fill: #ff0000; stroke: #ff0000; stroke-linejoin: bevel"/>
     <use xlink:href="#mbac0d4b697" x="379.875273" y="239.193453" style="fill: #ff0000; stroke: #ff0000; stroke-linejoin: bevel"/>
     <use xlink:href="#mbac0d4b697" x="383.148" y="225.063891" style="fill: #ff0000; stroke: #ff0000; stroke-linejoin: bevel"/>
     <use xlink:href="#mbac0d4b697" x="389.693455" y="275.302334" style="fill: #ff0000; stroke: #ff0000; stroke-linejoin: bevel"/>
     <use xlink:href="#mbac0d4b697" x="392.966182" y="280.954158" style="fill: #ff0000; stroke: #ff0000; stroke-linejoin: bevel"/>
     <use xlink:href="#mbac0d4b697" x="396.238909" y="252.014722" style="fill: #ff0000; stroke: #ff0000; stroke-linejoin: bevel"/>
     <use xlink:href="#mbac0d4b697" x="399.511636" y="264.312674" style="fill: #ff0000; stroke: #ff0000; stroke-linejoin: bevel"/>
     <use xlink:href="#mbac0d4b697" x="415.875273" y="267.452577" style="fill: #ff0000; stroke: #ff0000; stroke-linejoin: bevel"/>
     <use xlink:href="#mbac0d4b697" x="419.148" y="272.162431" style="fill: #ff0000; stroke: #ff0000; stroke-linejoin: bevel"/>
     <use xlink:href="#mbac0d4b697" x="422.420727" y="324.363312" style="fill: #ff0000; stroke: #ff0000; stroke-linejoin: bevel"/>
     <use xlink:href="#mbac0d4b697" x="425.693455" y="274.255699" style="fill: #ff0000; stroke: #ff0000; stroke-linejoin: bevel"/>
     <use xlink:href="#mbac0d4b697" x="428.966182" y="314.551116" style="fill: #ff0000; stroke: #ff0000; stroke-linejoin: bevel"/>
     <use xlink:href="#mbac0d4b697" x="442.057091" y="316.121068" style="fill: #ff0000; stroke: #ff0000; stroke-linejoin: bevel"/>
     <use xlink:href="#mbac0d4b697" x="445.329818" y="322.400873" style="fill: #ff0000; stroke: #ff0000; stroke-linejoin: bevel"/>
     <use xlink:href="#mbac0d4b697" x="448.602545" y="281.582139" style="fill: #ff0000; stroke: #ff0000; stroke-linejoin: bevel"/>
     <use xlink:href="#mbac0d4b697" x="471.511636" y="327.110727" style="fill: #ff0000; stroke: #ff0000; stroke-linejoin: bevel"/>
     <use xlink:href="#mbac0d4b697" x="474.784364" y="323.185849" style="fill: #ff0000; stroke: #ff0000; stroke-linejoin: bevel"/>
     <use xlink:href="#mbac0d4b697" x="478.057091" y="324.494141" style="fill: #ff0000; stroke: #ff0000; stroke-linejoin: bevel"/>
     <use xlink:href="#mbac0d4b697" x="481.329818" y="330.643117" style="fill: #ff0000; stroke: #ff0000; stroke-linejoin: bevel"/>
     <use xlink:href="#mbac0d4b697" x="484.602545" y="268.237553" style="fill: #ff0000; stroke: #ff0000; stroke-linejoin: bevel"/>
     <use xlink:href="#mbac0d4b697" x="487.875273" y="327.110727" style="fill: #ff0000; stroke: #ff0000; stroke-linejoin: bevel"/>
     <use xlink:href="#mbac0d4b697" x="491.148" y="333.390532" style="fill: #ff0000; stroke: #ff0000; stroke-linejoin: bevel"/>
     <use xlink:href="#mbac0d4b697" x="494.420727" y="322.400873" style="fill: #ff0000; stroke: #ff0000; stroke-linejoin: bevel"/>
     <use xlink:href="#mbac0d4b697" x="497.693455" y="361.649656" style="fill: #ff0000; stroke: #ff0000; stroke-linejoin: bevel"/>
     <use xlink:href="#mbac0d4b697" x="500.966182" y="316.906043" style="fill: #ff0000; stroke: #ff0000; stroke-linejoin: bevel"/>
     <use xlink:href="#mbac0d4b697" x="504.238909" y="382.059023" style="fill: #ff0000; stroke: #ff0000; stroke-linejoin: bevel"/>
     <use xlink:href="#mbac0d4b697" x="507.511636" y="381.012389" style="fill: #ff0000; stroke: #ff0000; stroke-linejoin: bevel"/>
     <use xlink:href="#mbac0d4b697" x="520.602545" y="362.434632" style="fill: #ff0000; stroke: #ff0000; stroke-linejoin: bevel"/>
     <use xlink:href="#mbac0d4b697" x="523.875273" y="361.126339" style="fill: #ff0000; stroke: #ff0000; stroke-linejoin: bevel"/>
     <use xlink:href="#mbac0d4b697" x="527.148" y="362.172973" style="fill: #ff0000; stroke: #ff0000; stroke-linejoin: bevel"/>
     <use xlink:href="#mbac0d4b697" x="530.420727" y="322.793361" style="fill: #ff0000; stroke: #ff0000; stroke-linejoin: bevel"/>
     <use xlink:href="#mbac0d4b697" x="533.693455" y="382.059023" style="fill: #ff0000; stroke: #ff0000; stroke-linejoin: bevel"/>
     <use xlink:href="#mbac0d4b697" x="550.057091" y="344.380191" style="fill: #ff0000; stroke: #ff0000; stroke-linejoin: bevel"/>
     <use xlink:href="#mbac0d4b697" x="586.057091" y="319.26097" style="fill: #ff0000; stroke: #ff0000; stroke-linejoin: bevel"/>
     <use xlink:href="#mbac0d4b697" x="602.420727" y="367.929461" style="fill: #ff0000; stroke: #ff0000; stroke-linejoin: bevel"/>
     <use xlink:href="#mbac0d4b697" x="605.693455" y="367.929461" style="fill: #ff0000; stroke: #ff0000; stroke-linejoin: bevel"/>
     <use xlink:href="#mbac0d4b697" x="612.238909" y="382.059023" style="fill: #ff0000; stroke: #ff0000; stroke-linejoin: bevel"/>
     <use xlink:href="#mbac0d4b697" x="622.057091" y="361.649656" style="fill: #ff0000; stroke: #ff0000; stroke-linejoin: bevel"/>
     <use xlink:href="#mbac0d4b697" x="664.602545" y="399.328487" style="fill: #ff0000; stroke: #ff0000; stroke-linejoin: bevel"/>
     <use xlink:href="#mbac0d4b697" x="772.602545" y="130.343495" style="fill: #ff0000; stroke: #ff0000; stroke-linejoin: bevel"/>
     <use xlink:href="#mbac0d4b697" x="775.875273" y="137.931593" style="fill: #ff0000; stroke: #ff0000; stroke-linejoin: bevel"/>
     <use xlink:href="#mbac0d4b697" x="779.148" y="110.457445" style="fill: #ff0000; stroke: #ff0000; stroke-linejoin: bevel"/>
     <use xlink:href="#mbac0d4b697" x="782.420727" y="129.296861" style="fill: #ff0000; stroke: #ff0000; stroke-linejoin: bevel"/>
     <use xlink:href="#mbac0d4b697" x="785.693455" y="123.017056" style="fill: #ff0000; stroke: #ff0000; stroke-linejoin: bevel"/>
     <use xlink:href="#mbac0d4b697" x="792.238909" y="226.633843" style="fill: #ff0000; stroke: #ff0000; stroke-linejoin: bevel"/>
     <use xlink:href="#mbac0d4b697" x="795.511636" y="163.83579" style="fill: #ff0000; stroke: #ff0000; stroke-linejoin: bevel"/>
     <use xlink:href="#mbac0d4b697" x="932.966182" y="77.488468" style="fill: #ff0000; stroke: #ff0000; stroke-linejoin: bevel"/>
    </g>
   </g>
   <g id="patch_3">
    <path d="M 80.748 622.6035 
L 80.748 35.0835 
" style="fill: none; stroke: #000000; stroke-width: 0.8; stroke-linejoin: miter; stroke-linecap: square"/>
   </g>
   <g id="patch_4">
    <path d="M 973.548 622.6035 
L 973.548 35.0835 
" style="fill: none; stroke: #000000; stroke-width: 0.8; stroke-linejoin: miter; stroke-linecap: square"/>
   </g>
   <g id="patch_5">
    <path d="M 80.748 622.6035 
L 973.548 622.6035 
" style="fill: none; stroke: #000000; stroke-width: 0.8; stroke-linejoin: miter; stroke-linecap: square"/>
   </g>
   <g id="patch_6">
    <path d="M 80.748 35.0835 
L 973.548 35.0835 
" style="fill: none; stroke: #000000; stroke-width: 0.8; stroke-linejoin: miter; stroke-linecap: square"/>
   </g>
   <g id="text_14">
    <!-- Body Muscle Mass -->
    <g transform="translate(395.55675 29.0835) scale(0.288 -0.288)">
     <defs>
      <path id="DejaVuSans-42" d="M 1259 2228 
L 1259 519 
L 2272 519 
Q 2781 519 3026 730 
Q 3272 941 3272 1375 
Q 3272 1813 3026 2020 
Q 2781 2228 2272 2228 
L 1259 2228 
z
M 1259 4147 
L 1259 2741 
L 2194 2741 
Q 2656 2741 2882 2914 
Q 3109 3088 3109 3444 
Q 3109 3797 2882 3972 
Q 2656 4147 2194 4147 
L 1259 4147 
z
M 628 4666 
L 2241 4666 
Q 2963 4666 3353 4366 
Q 3744 4066 3744 3513 
Q 3744 3084 3544 2831 
Q 3344 2578 2956 2516 
Q 3422 2416 3680 2098 
Q 3938 1781 3938 1306 
Q 3938 681 3513 340 
Q 3088 0 2303 0 
L 628 0 
L 628 4666 
z
" transform="scale(0.015625)"/>
      <path id="DejaVuSans-6f" d="M 1959 3097 
Q 1497 3097 1228 2736 
Q 959 2375 959 1747 
Q 959 1119 1226 758 
Q 1494 397 1959 397 
Q 2419 397 2687 759 
Q 2956 1122 2956 1747 
Q 2956 2369 2687 2733 
Q 2419 3097 1959 3097 
z
M 1959 3584 
Q 2709 3584 3137 3096 
Q 3566 2609 3566 1747 
Q 3566 888 3137 398 
Q 2709 -91 1959 -91 
Q 1206 -91 779 398 
Q 353 888 353 1747 
Q 353 2609 779 3096 
Q 1206 3584 1959 3584 
z
" transform="scale(0.015625)"/>
      <path id="DejaVuSans-64" d="M 2906 2969 
L 2906 4863 
L 3481 4863 
L 3481 0 
L 2906 0 
L 2906 525 
Q 2725 213 2448 61 
Q 2172 -91 1784 -91 
Q 1150 -91 751 415 
Q 353 922 353 1747 
Q 353 2572 751 3078 
Q 1150 3584 1784 3584 
Q 2172 3584 2448 3432 
Q 2725 3281 2906 2969 
z
M 947 1747 
Q 947 1113 1208 752 
Q 1469 391 1925 391 
Q 2381 391 2643 752 
Q 2906 1113 2906 1747 
Q 2906 2381 2643 2742 
Q 2381 3103 1925 3103 
Q 1469 3103 1208 2742 
Q 947 2381 947 1747 
z
" transform="scale(0.015625)"/>
      <path id="DejaVuSans-79" d="M 2059 -325 
Q 1816 -950 1584 -1140 
Q 1353 -1331 966 -1331 
L 506 -1331 
L 506 -850 
L 844 -850 
Q 1081 -850 1212 -737 
Q 1344 -625 1503 -206 
L 1606 56 
L 191 3500 
L 800 3500 
L 1894 763 
L 2988 3500 
L 3597 3500 
L 2059 -325 
z
" transform="scale(0.015625)"/>
     </defs>
     <use xlink:href="#DejaVuSans-42"/>
     <use xlink:href="#DejaVuSans-6f" x="68.603516"/>
     <use xlink:href="#DejaVuSans-64" x="129.785156"/>
     <use xlink:href="#DejaVuSans-79" x="193.261719"/>
     <use xlink:href="#DejaVuSans-20" x="252.441406"/>
     <use xlink:href="#DejaVuSans-4d" x="284.228516"/>
     <use xlink:href="#DejaVuSans-75" x="370.507812"/>
     <use xlink:href="#DejaVuSans-73" x="433.886719"/>
     <use xlink:href="#DejaVuSans-63" x="485.986328"/>
     <use xlink:href="#DejaVuSans-6c" x="540.966797"/>
     <use xlink:href="#DejaVuSans-65" x="568.75"/>
     <use xlink:href="#DejaVuSans-20" x="630.273438"/>
     <use xlink:href="#DejaVuSans-4d" x="662.060547"/>
     <use xlink:href="#DejaVuSans-61" x="748.339844"/>
     <use xlink:href="#DejaVuSans-73" x="809.619141"/>
     <use xlink:href="#DejaVuSans-73" x="861.71875"/>
    </g>
   </g>
  </g>
 </g>
 <defs>
  <clipPath id="p9754dea5d8">
   <rect x="80.748" y="35.0835" width="892.8" height="587.52"/>
  </clipPath>
 </defs>
</svg>
