<?xml version="1.0" encoding="utf-8" standalone="no"?>
<!DOCTYPE svg PUBLIC "-//W3C//DTD SVG 1.1//EN"
  "http://www.w3.org/Graphics/SVG/1.1/DTD/svg11.dtd">
<svg xmlns:xlink="http://www.w3.org/1999/xlink" width="959.50625pt" height="705.725879pt" viewBox="0 0 959.50625 705.725879" xmlns="http://www.w3.org/2000/svg" version="1.1">
 <metadata>
  <rdf:RDF xmlns:dc="http://purl.org/dc/elements/1.1/" xmlns:cc="http://creativecommons.org/ns#" xmlns:rdf="http://www.w3.org/1999/02/22-rdf-syntax-ns#">
   <cc:Work>
    <dc:type rdf:resource="http://purl.org/dc/dcmitype/StillImage"/>
    <dc:date>2023-02-26T19:16:07.346014</dc:date>
    <dc:format>image/svg+xml</dc:format>
    <dc:creator>
     <cc:Agent>
      <dc:title>Matplotlib v3.7.0, https://matplotlib.org/</dc:title>
     </cc:Agent>
    </dc:creator>
   </cc:Work>
  </rdf:RDF>
 </metadata>
 <defs>
  <style type="text/css">*{stroke-linejoin: round; stroke-linecap: butt}</style>
 </defs>
 <g id="figure_1">
  <g id="patch_1">
   <path d="M 0 705.725879 
L 959.50625 705.725879 
L 959.50625 0 
L 0 0 
z
" style="fill: #ffffff"/>
  </g>
  <g id="axes_1">
   <g id="patch_2">
    <path d="M 59.50625 622.6035 
L 952.30625 622.6035 
L 952.30625 35.0835 
L 59.50625 35.0835 
z
" style="fill: #ffffff"/>
   </g>
   <g id="PolyCollection_1">
    <defs>
     <path id="mf3c7bdb832" d="M 100.088068 -457.902114 
L 100.088068 -346.718991 
L 110.697694 -109.827834 
L 116.002507 -386.611317 
L 121.30732 -390.866213 
L 126.612132 -439.669886 
L 131.916945 -339.056588 
L 137.221758 -417.363997 
L 142.526571 -426.038299 
L 147.831384 -417.62175 
L 153.136197 -396.629147 
L 158.441009 -308.800436 
L 163.745822 -349.750412 
L 169.050635 -430.90292 
L 174.355448 -436.691863 
L 179.660261 -357.929099 
L 184.965074 -412.990092 
L 190.269886 -480.255394 
L 195.574699 -551.911591 
L 200.879512 -597.717058 
L 206.184325 -557.411695 
L 211.489138 -556.422137 
L 216.793951 -491.607238 
L 222.098763 -420.704479 
L 227.403576 -415.009294 
L 232.708389 -455.974056 
L 238.013202 -440.952632 
L 243.318015 -433.553574 
L 248.622828 -491.607238 
L 253.92764 -426.869936 
L 259.232453 -352.238343 
L 264.537266 -416.080386 
L 269.842079 -421.491705 
L 275.146892 -457.697222 
L 280.451705 -462.838696 
L 285.756517 -516.269067 
L 291.06133 -458.763505 
L 296.366143 -388.892359 
L 301.670956 -430.844122 
L 306.975769 -433.035393 
L 312.280582 -494.281757 
L 317.585394 -431.794216 
L 322.890207 -389.877192 
L 328.19502 -375.031528 
L 333.499833 -405.669408 
L 338.804646 -351.343084 
L 344.109459 -291.229875 
L 349.414271 -411.456293 
L 354.719084 -360.59127 
L 360.023897 -401.857039 
L 365.32871 -318.422901 
L 370.633523 -355.967177 
L 375.938336 -308.480231 
L 381.243148 -322.094047 
L 386.547961 -361.745965 
L 391.852774 -380.018374 
L 397.157587 -402.208107 
L 402.4624 -356.523378 
L 407.767213 -408.373564 
L 413.072025 -376.415632 
L 418.376838 -365.915092 
L 423.681651 -380.683308 
L 428.986464 -383.711735 
L 434.291277 -244.988945 
L 439.59609 -269.650775 
L 444.900902 -355.967177 
L 450.205715 -346.434912 
L 455.510528 -338.485493 
L 460.815341 -263.126504 
L 466.120154 -281.981689 
L 471.424967 -334.388076 
L 476.729779 -306.964214 
L 482.034592 -345.895911 
L 487.339405 -439.20085 
L 492.644218 -340.73996 
L 497.949031 -377.546277 
L 503.253844 -394.334224 
L 508.558656 -431.408341 
L 513.863469 -383.711735 
L 519.168282 -439.20085 
L 524.473095 -529.025947 
L 535.082721 -402.208107 
L 540.387533 -404.984563 
L 545.692346 -442.502437 
L 550.997159 -374.463549 
L 577.521223 -383.711735 
L 582.826036 -380.629006 
L 588.130849 -289.491409 
L 593.435662 -359.049906 
L 598.740475 -281.981689 
L 619.959726 -328.222619 
L 625.264539 -263.485317 
L 630.569352 -346.718991 
L 667.703041 -332.379906 
L 673.007854 -240.364852 
L 678.312667 -275.816232 
L 683.61748 -344.036229 
L 688.922293 -411.456293 
L 694.227106 -392.959921 
L 699.531918 -295.853968 
L 704.836731 -351.343084 
L 710.141544 -281.981689 
L 715.446357 -329.132318 
L 720.75117 -291.229875 
L 726.055983 -288.147147 
L 747.275234 -281.981689 
L 752.580047 -254.237131 
L 757.88486 -263.485317 
L 763.189672 -364.807153 
L 768.494485 -198.748016 
L 795.018549 -217.244388 
L 853.371491 -291.229875 
L 879.895555 -272.733503 
L 885.200368 -291.229875 
L 895.809993 -244.988945 
L 911.724432 -272.835949 
L 911.724432 -457.799668 
L 911.724432 -457.799668 
L 895.809993 -356.172068 
L 885.200368 -402.412998 
L 879.895555 -383.916626 
L 853.371491 -402.412998 
L 795.018549 -328.427511 
L 768.494485 -309.931139 
L 763.189672 -449.062137 
L 757.88486 -374.66844 
L 752.580047 -365.420254 
L 747.275234 -393.164812 
L 726.055983 -399.33027 
L 720.75117 -402.412998 
L 715.446357 -540.226088 
L 710.141544 -393.164812 
L 704.836731 -462.526207 
L 699.531918 -407.037091 
L 694.227106 -504.143044 
L 688.922293 -522.639416 
L 683.61748 -423.592132 
L 678.312667 -386.999355 
L 673.007854 -351.547975 
L 667.703041 -370.511153 
L 630.569352 -457.902114 
L 625.264539 -374.66844 
L 619.959726 -439.405742 
L 598.740475 -393.164812 
L 593.435662 -470.233029 
L 588.130849 -436.520115 
L 582.826036 -491.812129 
L 577.521223 -494.894858 
L 550.997159 -485.646672 
L 545.692346 -605.654231 
L 540.387533 -532.810419 
L 535.082721 -513.39123 
L 524.473095 -613.153945 
L 519.168282 -550.383973 
L 513.863469 -494.894858 
L 508.558656 -570.507398 
L 503.253844 -451.903717 
L 497.949031 -488.7294 
L 492.644218 -496.249795 
L 487.339405 -550.383973 
L 482.034592 -480.304294 
L 476.729779 -449.566324 
L 471.424967 -445.571199 
L 466.120154 -393.164812 
L 460.815341 -449.012741 
L 455.510528 -492.559 
L 450.205715 -461.885467 
L 444.900902 -467.1503 
L 439.59609 -380.833898 
L 434.291277 -356.172068 
L 428.986464 -494.894858 
L 423.681651 -479.426913 
L 418.376838 -444.87147 
L 413.072025 -472.596766 
L 407.767213 -519.556687 
L 402.4624 -529.481764 
L 397.157587 -513.39123 
L 391.852774 -514.001862 
L 386.547961 -477.225545 
L 381.243148 -467.113414 
L 375.938336 -468.396316 
L 370.633523 -467.1503 
L 365.32871 -384.468159 
L 360.023897 -425.884531 
L 354.719084 -471.774393 
L 349.414271 -522.639416 
L 344.109459 -402.412998 
L 338.804646 -462.526207 
L 333.499833 -491.433556 
L 328.19502 -443.461855 
L 322.890207 -501.060315 
L 317.585394 -497.677399 
L 312.280582 -578.536741 
L 306.975769 -544.218516 
L 301.670956 -525.447233 
L 296.366143 -477.383319 
L 291.06133 -535.445412 
L 285.756517 -627.45219 
L 280.451705 -530.445402 
L 275.146892 -568.880345 
L 269.842079 -560.69457 
L 264.537266 -527.263509 
L 259.232453 -507.871877 
L 253.92764 -538.053059 
L 248.622828 -602.790361 
L 243.318015 -604.121817 
L 238.013202 -594.873122 
L 232.708389 -598.348069 
L 227.403576 -643.936925 
L 222.098763 -531.887602 
L 216.793951 -602.790361 
L 211.489138 -604.254127 
L 206.184325 -584.768198 
L 200.879512 -632.320601 
L 195.574699 -630.035501 
L 190.269886 -620.307662 
L 184.965074 -553.474268 
L 179.660261 -488.308843 
L 174.355448 -567.690058 
L 169.050635 -530.937346 
L 163.745822 -411.712491 
L 158.441009 -432.933004 
L 153.136197 -494.30836 
L 147.831384 -528.804873 
L 142.526571 -538.884696 
L 137.221758 -470.490781 
L 131.916945 -376.781932 
L 126.612132 -526.794473 
L 121.30732 -436.875357 
L 116.002507 -510.491647 
L 110.697694 -361.858577 
L 100.088068 -457.902114 
z
" style="stroke: #0000ff; stroke-opacity: 0.2"/>
    </defs>
    <g clip-path="url(#p18146d1f48)">
     <use xlink:href="#mf3c7bdb832" x="0" y="705.725879" style="fill: #0000ff; fill-opacity: 0.2; stroke: #0000ff; stroke-opacity: 0.2"/>
    </g>
   </g>
   <g id="matplotlib.axis_1">
    <g id="xtick_1">
     <g id="line2d_1">
      <path d="M 105.392881 622.6035 
L 105.392881 35.0835 
" clip-path="url(#p18146d1f48)" style="fill: none; stroke: #a5a391; stroke-opacity: 0.3; stroke-width: 0.8; stroke-linecap: square"/>
     </g>
     <g id="line2d_2">
      <defs>
       <path id="m19591d75ab" d="M 0 0 
L 0 -3.5 
" style="stroke: #000000; stroke-width: 0.8"/>
      </defs>
      <g>
       <use xlink:href="#m19591d75ab" x="105.392881" y="622.6035" style="stroke: #000000; stroke-width: 0.8"/>
      </g>
     </g>
     <g id="text_1">
      <!-- Jan 01, 20 -->
      <g transform="translate(16.017833 689.66438) rotate(-30) scale(0.2 -0.2)">
       <defs>
        <path id="DejaVuSans-4a" d="M 628 4666 
L 1259 4666 
L 1259 325 
Q 1259 -519 939 -900 
Q 619 -1281 -91 -1281 
L -331 -1281 
L -331 -750 
L -134 -750 
Q 284 -750 456 -515 
Q 628 -281 628 325 
L 628 4666 
z
" transform="scale(0.015625)"/>
        <path id="DejaVuSans-61" d="M 2194 1759 
Q 1497 1759 1228 1600 
Q 959 1441 959 1056 
Q 959 750 1161 570 
Q 1363 391 1709 391 
Q 2188 391 2477 730 
Q 2766 1069 2766 1631 
L 2766 1759 
L 2194 1759 
z
M 3341 1997 
L 3341 0 
L 2766 0 
L 2766 531 
Q 2569 213 2275 61 
Q 1981 -91 1556 -91 
Q 1019 -91 701 211 
Q 384 513 384 1019 
Q 384 1609 779 1909 
Q 1175 2209 1959 2209 
L 2766 2209 
L 2766 2266 
Q 2766 2663 2505 2880 
Q 2244 3097 1772 3097 
Q 1472 3097 1187 3025 
Q 903 2953 641 2809 
L 641 3341 
Q 956 3463 1253 3523 
Q 1550 3584 1831 3584 
Q 2591 3584 2966 3190 
Q 3341 2797 3341 1997 
z
" transform="scale(0.015625)"/>
        <path id="DejaVuSans-6e" d="M 3513 2113 
L 3513 0 
L 2938 0 
L 2938 2094 
Q 2938 2591 2744 2837 
Q 2550 3084 2163 3084 
Q 1697 3084 1428 2787 
Q 1159 2491 1159 1978 
L 1159 0 
L 581 0 
L 581 3500 
L 1159 3500 
L 1159 2956 
Q 1366 3272 1645 3428 
Q 1925 3584 2291 3584 
Q 2894 3584 3203 3211 
Q 3513 2838 3513 2113 
z
" transform="scale(0.015625)"/>
        <path id="DejaVuSans-20" transform="scale(0.015625)"/>
        <path id="DejaVuSans-30" d="M 2034 4250 
Q 1547 4250 1301 3770 
Q 1056 3291 1056 2328 
Q 1056 1369 1301 889 
Q 1547 409 2034 409 
Q 2525 409 2770 889 
Q 3016 1369 3016 2328 
Q 3016 3291 2770 3770 
Q 2525 4250 2034 4250 
z
M 2034 4750 
Q 2819 4750 3233 4129 
Q 3647 3509 3647 2328 
Q 3647 1150 3233 529 
Q 2819 -91 2034 -91 
Q 1250 -91 836 529 
Q 422 1150 422 2328 
Q 422 3509 836 4129 
Q 1250 4750 2034 4750 
z
" transform="scale(0.015625)"/>
        <path id="DejaVuSans-31" d="M 794 531 
L 1825 531 
L 1825 4091 
L 703 3866 
L 703 4441 
L 1819 4666 
L 2450 4666 
L 2450 531 
L 3481 531 
L 3481 0 
L 794 0 
L 794 531 
z
" transform="scale(0.015625)"/>
        <path id="DejaVuSans-2c" d="M 750 794 
L 1409 794 
L 1409 256 
L 897 -744 
L 494 -744 
L 750 256 
L 750 794 
z
" transform="scale(0.015625)"/>
        <path id="DejaVuSans-32" d="M 1228 531 
L 3431 531 
L 3431 0 
L 469 0 
L 469 531 
Q 828 903 1448 1529 
Q 2069 2156 2228 2338 
Q 2531 2678 2651 2914 
Q 2772 3150 2772 3378 
Q 2772 3750 2511 3984 
Q 2250 4219 1831 4219 
Q 1534 4219 1204 4116 
Q 875 4013 500 3803 
L 500 4441 
Q 881 4594 1212 4672 
Q 1544 4750 1819 4750 
Q 2544 4750 2975 4387 
Q 3406 4025 3406 3419 
Q 3406 3131 3298 2873 
Q 3191 2616 2906 2266 
Q 2828 2175 2409 1742 
Q 1991 1309 1228 531 
z
" transform="scale(0.015625)"/>
       </defs>
       <use xlink:href="#DejaVuSans-4a"/>
       <use xlink:href="#DejaVuSans-61" x="29.492188"/>
       <use xlink:href="#DejaVuSans-6e" x="90.771484"/>
       <use xlink:href="#DejaVuSans-20" x="154.150391"/>
       <use xlink:href="#DejaVuSans-30" x="185.9375"/>
       <use xlink:href="#DejaVuSans-31" x="249.560547"/>
       <use xlink:href="#DejaVuSans-2c" x="313.183594"/>
       <use xlink:href="#DejaVuSans-20" x="344.970703"/>
       <use xlink:href="#DejaVuSans-32" x="376.757812"/>
       <use xlink:href="#DejaVuSans-30" x="440.380859"/>
      </g>
     </g>
    </g>
    <g id="xtick_2">
     <g id="line2d_3">
      <path d="M 197.09036 622.6035 
L 197.09036 35.0835 
" clip-path="url(#p18146d1f48)" style="fill: none; stroke: #a5a391; stroke-opacity: 0.3; stroke-width: 0.8; stroke-linecap: square"/>
     </g>
     <g id="line2d_4">
      <g>
       <use xlink:href="#m19591d75ab" x="197.09036" y="622.6035" style="stroke: #000000; stroke-width: 0.8"/>
      </g>
     </g>
     <g id="text_2">
      <!-- May 01, 20 -->
      <g transform="translate(98.605807 694.923755) rotate(-30) scale(0.2 -0.2)">
       <defs>
        <path id="DejaVuSans-4d" d="M 628 4666 
L 1569 4666 
L 2759 1491 
L 3956 4666 
L 4897 4666 
L 4897 0 
L 4281 0 
L 4281 4097 
L 3078 897 
L 2444 897 
L 1241 4097 
L 1241 0 
L 628 0 
L 628 4666 
z
" transform="scale(0.015625)"/>
        <path id="DejaVuSans-79" d="M 2059 -325 
Q 1816 -950 1584 -1140 
Q 1353 -1331 966 -1331 
L 506 -1331 
L 506 -850 
L 844 -850 
Q 1081 -850 1212 -737 
Q 1344 -625 1503 -206 
L 1606 56 
L 191 3500 
L 800 3500 
L 1894 763 
L 2988 3500 
L 3597 3500 
L 2059 -325 
z
" transform="scale(0.015625)"/>
       </defs>
       <use xlink:href="#DejaVuSans-4d"/>
       <use xlink:href="#DejaVuSans-61" x="86.279297"/>
       <use xlink:href="#DejaVuSans-79" x="147.558594"/>
       <use xlink:href="#DejaVuSans-20" x="206.738281"/>
       <use xlink:href="#DejaVuSans-30" x="238.525391"/>
       <use xlink:href="#DejaVuSans-31" x="302.148438"/>
       <use xlink:href="#DejaVuSans-2c" x="365.771484"/>
       <use xlink:href="#DejaVuSans-20" x="397.558594"/>
       <use xlink:href="#DejaVuSans-32" x="429.345703"/>
       <use xlink:href="#DejaVuSans-30" x="492.96875"/>
      </g>
     </g>
    </g>
    <g id="xtick_3">
     <g id="line2d_5">
      <path d="M 290.3035 622.6035 
L 290.3035 35.0835 
" clip-path="url(#p18146d1f48)" style="fill: none; stroke: #a5a391; stroke-opacity: 0.3; stroke-width: 0.8; stroke-linecap: square"/>
     </g>
     <g id="line2d_6">
      <g>
       <use xlink:href="#m19591d75ab" x="290.3035" y="622.6035" style="stroke: #000000; stroke-width: 0.8"/>
      </g>
     </g>
     <g id="text_3">
      <!-- Sep 01, 20 -->
      <g transform="translate(194.97994 693.098755) rotate(-30) scale(0.2 -0.2)">
       <defs>
        <path id="DejaVuSans-53" d="M 3425 4513 
L 3425 3897 
Q 3066 4069 2747 4153 
Q 2428 4238 2131 4238 
Q 1616 4238 1336 4038 
Q 1056 3838 1056 3469 
Q 1056 3159 1242 3001 
Q 1428 2844 1947 2747 
L 2328 2669 
Q 3034 2534 3370 2195 
Q 3706 1856 3706 1288 
Q 3706 609 3251 259 
Q 2797 -91 1919 -91 
Q 1588 -91 1214 -16 
Q 841 59 441 206 
L 441 856 
Q 825 641 1194 531 
Q 1563 422 1919 422 
Q 2459 422 2753 634 
Q 3047 847 3047 1241 
Q 3047 1584 2836 1778 
Q 2625 1972 2144 2069 
L 1759 2144 
Q 1053 2284 737 2584 
Q 422 2884 422 3419 
Q 422 4038 858 4394 
Q 1294 4750 2059 4750 
Q 2388 4750 2728 4690 
Q 3069 4631 3425 4513 
z
" transform="scale(0.015625)"/>
        <path id="DejaVuSans-65" d="M 3597 1894 
L 3597 1613 
L 953 1613 
Q 991 1019 1311 708 
Q 1631 397 2203 397 
Q 2534 397 2845 478 
Q 3156 559 3463 722 
L 3463 178 
Q 3153 47 2828 -22 
Q 2503 -91 2169 -91 
Q 1331 -91 842 396 
Q 353 884 353 1716 
Q 353 2575 817 3079 
Q 1281 3584 2069 3584 
Q 2775 3584 3186 3129 
Q 3597 2675 3597 1894 
z
M 3022 2063 
Q 3016 2534 2758 2815 
Q 2500 3097 2075 3097 
Q 1594 3097 1305 2825 
Q 1016 2553 972 2059 
L 3022 2063 
z
" transform="scale(0.015625)"/>
        <path id="DejaVuSans-70" d="M 1159 525 
L 1159 -1331 
L 581 -1331 
L 581 3500 
L 1159 3500 
L 1159 2969 
Q 1341 3281 1617 3432 
Q 1894 3584 2278 3584 
Q 2916 3584 3314 3078 
Q 3713 2572 3713 1747 
Q 3713 922 3314 415 
Q 2916 -91 2278 -91 
Q 1894 -91 1617 61 
Q 1341 213 1159 525 
z
M 3116 1747 
Q 3116 2381 2855 2742 
Q 2594 3103 2138 3103 
Q 1681 3103 1420 2742 
Q 1159 2381 1159 1747 
Q 1159 1113 1420 752 
Q 1681 391 2138 391 
Q 2594 391 2855 752 
Q 3116 1113 3116 1747 
z
" transform="scale(0.015625)"/>
       </defs>
       <use xlink:href="#DejaVuSans-53"/>
       <use xlink:href="#DejaVuSans-65" x="63.476562"/>
       <use xlink:href="#DejaVuSans-70" x="125"/>
       <use xlink:href="#DejaVuSans-20" x="188.476562"/>
       <use xlink:href="#DejaVuSans-30" x="220.263672"/>
       <use xlink:href="#DejaVuSans-31" x="283.886719"/>
       <use xlink:href="#DejaVuSans-2c" x="347.509766"/>
       <use xlink:href="#DejaVuSans-20" x="379.296875"/>
       <use xlink:href="#DejaVuSans-32" x="411.083984"/>
       <use xlink:href="#DejaVuSans-30" x="474.707031"/>
      </g>
     </g>
    </g>
    <g id="xtick_4">
     <g id="line2d_7">
      <path d="M 382.758809 622.6035 
L 382.758809 35.0835 
" clip-path="url(#p18146d1f48)" style="fill: none; stroke: #a5a391; stroke-opacity: 0.3; stroke-width: 0.8; stroke-linecap: square"/>
     </g>
     <g id="line2d_8">
      <g>
       <use xlink:href="#m19591d75ab" x="382.758809" y="622.6035" style="stroke: #000000; stroke-width: 0.8"/>
      </g>
     </g>
     <g id="text_4">
      <!-- Jan 01, 21 -->
      <g transform="translate(293.383761 689.66438) rotate(-30) scale(0.2 -0.2)">
       <use xlink:href="#DejaVuSans-4a"/>
       <use xlink:href="#DejaVuSans-61" x="29.492188"/>
       <use xlink:href="#DejaVuSans-6e" x="90.771484"/>
       <use xlink:href="#DejaVuSans-20" x="154.150391"/>
       <use xlink:href="#DejaVuSans-30" x="185.9375"/>
       <use xlink:href="#DejaVuSans-31" x="249.560547"/>
       <use xlink:href="#DejaVuSans-2c" x="313.183594"/>
       <use xlink:href="#DejaVuSans-20" x="344.970703"/>
       <use xlink:href="#DejaVuSans-32" x="376.757812"/>
       <use xlink:href="#DejaVuSans-31" x="440.380859"/>
      </g>
     </g>
    </g>
    <g id="xtick_5">
     <g id="line2d_9">
      <path d="M 473.698458 622.6035 
L 473.698458 35.0835 
" clip-path="url(#p18146d1f48)" style="fill: none; stroke: #a5a391; stroke-opacity: 0.3; stroke-width: 0.8; stroke-linecap: square"/>
     </g>
     <g id="line2d_10">
      <g>
       <use xlink:href="#m19591d75ab" x="473.698458" y="622.6035" style="stroke: #000000; stroke-width: 0.8"/>
      </g>
     </g>
     <g id="text_5">
      <!-- May 01, 21 -->
      <g transform="translate(375.213905 694.923755) rotate(-30) scale(0.2 -0.2)">
       <use xlink:href="#DejaVuSans-4d"/>
       <use xlink:href="#DejaVuSans-61" x="86.279297"/>
       <use xlink:href="#DejaVuSans-79" x="147.558594"/>
       <use xlink:href="#DejaVuSans-20" x="206.738281"/>
       <use xlink:href="#DejaVuSans-30" x="238.525391"/>
       <use xlink:href="#DejaVuSans-31" x="302.148438"/>
       <use xlink:href="#DejaVuSans-2c" x="365.771484"/>
       <use xlink:href="#DejaVuSans-20" x="397.558594"/>
       <use xlink:href="#DejaVuSans-32" x="429.345703"/>
       <use xlink:href="#DejaVuSans-31" x="492.96875"/>
      </g>
     </g>
    </g>
    <g id="xtick_6">
     <g id="line2d_11">
      <path d="M 566.911598 622.6035 
L 566.911598 35.0835 
" clip-path="url(#p18146d1f48)" style="fill: none; stroke: #a5a391; stroke-opacity: 0.3; stroke-width: 0.8; stroke-linecap: square"/>
     </g>
     <g id="line2d_12">
      <g>
       <use xlink:href="#m19591d75ab" x="566.911598" y="622.6035" style="stroke: #000000; stroke-width: 0.8"/>
      </g>
     </g>
     <g id="text_6">
      <!-- Sep 01, 21 -->
      <g transform="translate(471.588037 693.098755) rotate(-30) scale(0.2 -0.2)">
       <use xlink:href="#DejaVuSans-53"/>
       <use xlink:href="#DejaVuSans-65" x="63.476562"/>
       <use xlink:href="#DejaVuSans-70" x="125"/>
       <use xlink:href="#DejaVuSans-20" x="188.476562"/>
       <use xlink:href="#DejaVuSans-30" x="220.263672"/>
       <use xlink:href="#DejaVuSans-31" x="283.886719"/>
       <use xlink:href="#DejaVuSans-2c" x="347.509766"/>
       <use xlink:href="#DejaVuSans-20" x="379.296875"/>
       <use xlink:href="#DejaVuSans-32" x="411.083984"/>
       <use xlink:href="#DejaVuSans-31" x="474.707031"/>
      </g>
     </g>
    </g>
    <g id="xtick_7">
     <g id="line2d_13">
      <path d="M 659.366907 622.6035 
L 659.366907 35.0835 
" clip-path="url(#p18146d1f48)" style="fill: none; stroke: #a5a391; stroke-opacity: 0.3; stroke-width: 0.8; stroke-linecap: square"/>
     </g>
     <g id="line2d_14">
      <g>
       <use xlink:href="#m19591d75ab" x="659.366907" y="622.6035" style="stroke: #000000; stroke-width: 0.8"/>
      </g>
     </g>
     <g id="text_7">
      <!-- Jan 01, 22 -->
      <g transform="translate(569.991859 689.66438) rotate(-30) scale(0.2 -0.2)">
       <use xlink:href="#DejaVuSans-4a"/>
       <use xlink:href="#DejaVuSans-61" x="29.492188"/>
       <use xlink:href="#DejaVuSans-6e" x="90.771484"/>
       <use xlink:href="#DejaVuSans-20" x="154.150391"/>
       <use xlink:href="#DejaVuSans-30" x="185.9375"/>
       <use xlink:href="#DejaVuSans-31" x="249.560547"/>
       <use xlink:href="#DejaVuSans-2c" x="313.183594"/>
       <use xlink:href="#DejaVuSans-20" x="344.970703"/>
       <use xlink:href="#DejaVuSans-32" x="376.757812"/>
       <use xlink:href="#DejaVuSans-32" x="440.380859"/>
      </g>
     </g>
    </g>
    <g id="xtick_8">
     <g id="line2d_15">
      <path d="M 750.306556 622.6035 
L 750.306556 35.0835 
" clip-path="url(#p18146d1f48)" style="fill: none; stroke: #a5a391; stroke-opacity: 0.3; stroke-width: 0.8; stroke-linecap: square"/>
     </g>
     <g id="line2d_16">
      <g>
       <use xlink:href="#m19591d75ab" x="750.306556" y="622.6035" style="stroke: #000000; stroke-width: 0.8"/>
      </g>
     </g>
     <g id="text_8">
      <!-- May 01, 22 -->
      <g transform="translate(651.822003 694.923755) rotate(-30) scale(0.2 -0.2)">
       <use xlink:href="#DejaVuSans-4d"/>
       <use xlink:href="#DejaVuSans-61" x="86.279297"/>
       <use xlink:href="#DejaVuSans-79" x="147.558594"/>
       <use xlink:href="#DejaVuSans-20" x="206.738281"/>
       <use xlink:href="#DejaVuSans-30" x="238.525391"/>
       <use xlink:href="#DejaVuSans-31" x="302.148438"/>
       <use xlink:href="#DejaVuSans-2c" x="365.771484"/>
       <use xlink:href="#DejaVuSans-20" x="397.558594"/>
       <use xlink:href="#DejaVuSans-32" x="429.345703"/>
       <use xlink:href="#DejaVuSans-32" x="492.96875"/>
      </g>
     </g>
    </g>
    <g id="xtick_9">
     <g id="line2d_17">
      <path d="M 843.519695 622.6035 
L 843.519695 35.0835 
" clip-path="url(#p18146d1f48)" style="fill: none; stroke: #a5a391; stroke-opacity: 0.3; stroke-width: 0.8; stroke-linecap: square"/>
     </g>
     <g id="line2d_18">
      <g>
       <use xlink:href="#m19591d75ab" x="843.519695" y="622.6035" style="stroke: #000000; stroke-width: 0.8"/>
      </g>
     </g>
     <g id="text_9">
      <!-- Sep 01, 22 -->
      <g transform="translate(748.196135 693.098755) rotate(-30) scale(0.2 -0.2)">
       <use xlink:href="#DejaVuSans-53"/>
       <use xlink:href="#DejaVuSans-65" x="63.476562"/>
       <use xlink:href="#DejaVuSans-70" x="125"/>
       <use xlink:href="#DejaVuSans-20" x="188.476562"/>
       <use xlink:href="#DejaVuSans-30" x="220.263672"/>
       <use xlink:href="#DejaVuSans-31" x="283.886719"/>
       <use xlink:href="#DejaVuSans-2c" x="347.509766"/>
       <use xlink:href="#DejaVuSans-20" x="379.296875"/>
       <use xlink:href="#DejaVuSans-32" x="411.083984"/>
       <use xlink:href="#DejaVuSans-32" x="474.707031"/>
      </g>
     </g>
    </g>
    <g id="xtick_10">
     <g id="line2d_19">
      <path d="M 935.975005 622.6035 
L 935.975005 35.0835 
" clip-path="url(#p18146d1f48)" style="fill: none; stroke: #a5a391; stroke-opacity: 0.3; stroke-width: 0.8; stroke-linecap: square"/>
     </g>
     <g id="line2d_20">
      <g>
       <use xlink:href="#m19591d75ab" x="935.975005" y="622.6035" style="stroke: #000000; stroke-width: 0.8"/>
      </g>
     </g>
     <g id="text_10">
      <!-- Jan 01, 23 -->
      <g transform="translate(846.599957 689.66438) rotate(-30) scale(0.2 -0.2)">
       <defs>
        <path id="DejaVuSans-33" d="M 2597 2516 
Q 3050 2419 3304 2112 
Q 3559 1806 3559 1356 
Q 3559 666 3084 287 
Q 2609 -91 1734 -91 
Q 1441 -91 1130 -33 
Q 819 25 488 141 
L 488 750 
Q 750 597 1062 519 
Q 1375 441 1716 441 
Q 2309 441 2620 675 
Q 2931 909 2931 1356 
Q 2931 1769 2642 2001 
Q 2353 2234 1838 2234 
L 1294 2234 
L 1294 2753 
L 1863 2753 
Q 2328 2753 2575 2939 
Q 2822 3125 2822 3475 
Q 2822 3834 2567 4026 
Q 2313 4219 1838 4219 
Q 1578 4219 1281 4162 
Q 984 4106 628 3988 
L 628 4550 
Q 988 4650 1302 4700 
Q 1616 4750 1894 4750 
Q 2613 4750 3031 4423 
Q 3450 4097 3450 3541 
Q 3450 3153 3228 2886 
Q 3006 2619 2597 2516 
z
" transform="scale(0.015625)"/>
       </defs>
       <use xlink:href="#DejaVuSans-4a"/>
       <use xlink:href="#DejaVuSans-61" x="29.492188"/>
       <use xlink:href="#DejaVuSans-6e" x="90.771484"/>
       <use xlink:href="#DejaVuSans-20" x="154.150391"/>
       <use xlink:href="#DejaVuSans-30" x="185.9375"/>
       <use xlink:href="#DejaVuSans-31" x="249.560547"/>
       <use xlink:href="#DejaVuSans-2c" x="313.183594"/>
       <use xlink:href="#DejaVuSans-20" x="344.970703"/>
       <use xlink:href="#DejaVuSans-32" x="376.757812"/>
       <use xlink:href="#DejaVuSans-33" x="440.380859"/>
      </g>
     </g>
    </g>
   </g>
   <g id="matplotlib.axis_2">
    <g id="ytick_1">
     <g id="line2d_21">
      <path d="M 59.50625 534.619976 
L 952.30625 534.619976 
" clip-path="url(#p18146d1f48)" style="fill: none; stroke: #a5a391; stroke-opacity: 0.3; stroke-width: 0.8; stroke-linecap: square"/>
     </g>
     <g id="line2d_22">
      <defs>
       <path id="m5dbd282310" d="M 0 0 
L 3.5 0 
" style="stroke: #000000; stroke-width: 0.8"/>
      </defs>
      <g>
       <use xlink:href="#m5dbd282310" x="59.50625" y="534.619976" style="stroke: #000000; stroke-width: 0.8"/>
      </g>
     </g>
     <g id="text_11">
      <!-- 53 -->
      <g transform="translate(30.55625 542.218413) scale(0.2 -0.2)">
       <defs>
        <path id="DejaVuSans-35" d="M 691 4666 
L 3169 4666 
L 3169 4134 
L 1269 4134 
L 1269 2991 
Q 1406 3038 1543 3061 
Q 1681 3084 1819 3084 
Q 2600 3084 3056 2656 
Q 3513 2228 3513 1497 
Q 3513 744 3044 326 
Q 2575 -91 1722 -91 
Q 1428 -91 1123 -41 
Q 819 9 494 109 
L 494 744 
Q 775 591 1075 516 
Q 1375 441 1709 441 
Q 2250 441 2565 725 
Q 2881 1009 2881 1497 
Q 2881 1984 2565 2268 
Q 2250 2553 1709 2553 
Q 1456 2553 1204 2497 
Q 953 2441 691 2322 
L 691 4666 
z
" transform="scale(0.015625)"/>
       </defs>
       <use xlink:href="#DejaVuSans-35"/>
       <use xlink:href="#DejaVuSans-33" x="63.623047"/>
      </g>
     </g>
    </g>
    <g id="ytick_2">
     <g id="line2d_23">
      <path d="M 59.50625 442.138116 
L 952.30625 442.138116 
" clip-path="url(#p18146d1f48)" style="fill: none; stroke: #a5a391; stroke-opacity: 0.3; stroke-width: 0.8; stroke-linecap: square"/>
     </g>
     <g id="line2d_24">
      <g>
       <use xlink:href="#m5dbd282310" x="59.50625" y="442.138116" style="stroke: #000000; stroke-width: 0.8"/>
      </g>
     </g>
     <g id="text_12">
      <!-- 54 -->
      <g transform="translate(30.55625 449.736554) scale(0.2 -0.2)">
       <defs>
        <path id="DejaVuSans-34" d="M 2419 4116 
L 825 1625 
L 2419 1625 
L 2419 4116 
z
M 2253 4666 
L 3047 4666 
L 3047 1625 
L 3713 1625 
L 3713 1100 
L 3047 1100 
L 3047 0 
L 2419 0 
L 2419 1100 
L 313 1100 
L 313 1709 
L 2253 4666 
z
" transform="scale(0.015625)"/>
       </defs>
       <use xlink:href="#DejaVuSans-35"/>
       <use xlink:href="#DejaVuSans-34" x="63.623047"/>
      </g>
     </g>
    </g>
    <g id="ytick_3">
     <g id="line2d_25">
      <path d="M 59.50625 349.656257 
L 952.30625 349.656257 
" clip-path="url(#p18146d1f48)" style="fill: none; stroke: #a5a391; stroke-opacity: 0.3; stroke-width: 0.8; stroke-linecap: square"/>
     </g>
     <g id="line2d_26">
      <g>
       <use xlink:href="#m5dbd282310" x="59.50625" y="349.656257" style="stroke: #000000; stroke-width: 0.8"/>
      </g>
     </g>
     <g id="text_13">
      <!-- 55 -->
      <g transform="translate(30.55625 357.254694) scale(0.2 -0.2)">
       <use xlink:href="#DejaVuSans-35"/>
       <use xlink:href="#DejaVuSans-35" x="63.623047"/>
      </g>
     </g>
    </g>
    <g id="ytick_4">
     <g id="line2d_27">
      <path d="M 59.50625 257.174397 
L 952.30625 257.174397 
" clip-path="url(#p18146d1f48)" style="fill: none; stroke: #a5a391; stroke-opacity: 0.3; stroke-width: 0.8; stroke-linecap: square"/>
     </g>
     <g id="line2d_28">
      <g>
       <use xlink:href="#m5dbd282310" x="59.50625" y="257.174397" style="stroke: #000000; stroke-width: 0.8"/>
      </g>
     </g>
     <g id="text_14">
      <!-- 56 -->
      <g transform="translate(30.55625 264.772835) scale(0.2 -0.2)">
       <defs>
        <path id="DejaVuSans-36" d="M 2113 2584 
Q 1688 2584 1439 2293 
Q 1191 2003 1191 1497 
Q 1191 994 1439 701 
Q 1688 409 2113 409 
Q 2538 409 2786 701 
Q 3034 994 3034 1497 
Q 3034 2003 2786 2293 
Q 2538 2584 2113 2584 
z
M 3366 4563 
L 3366 3988 
Q 3128 4100 2886 4159 
Q 2644 4219 2406 4219 
Q 1781 4219 1451 3797 
Q 1122 3375 1075 2522 
Q 1259 2794 1537 2939 
Q 1816 3084 2150 3084 
Q 2853 3084 3261 2657 
Q 3669 2231 3669 1497 
Q 3669 778 3244 343 
Q 2819 -91 2113 -91 
Q 1303 -91 875 529 
Q 447 1150 447 2328 
Q 447 3434 972 4092 
Q 1497 4750 2381 4750 
Q 2619 4750 2861 4703 
Q 3103 4656 3366 4563 
z
" transform="scale(0.015625)"/>
       </defs>
       <use xlink:href="#DejaVuSans-35"/>
       <use xlink:href="#DejaVuSans-36" x="63.623047"/>
      </g>
     </g>
    </g>
    <g id="ytick_5">
     <g id="line2d_29">
      <path d="M 59.50625 164.692537 
L 952.30625 164.692537 
" clip-path="url(#p18146d1f48)" style="fill: none; stroke: #a5a391; stroke-opacity: 0.3; stroke-width: 0.8; stroke-linecap: square"/>
     </g>
     <g id="line2d_30">
      <g>
       <use xlink:href="#m5dbd282310" x="59.50625" y="164.692537" style="stroke: #000000; stroke-width: 0.8"/>
      </g>
     </g>
     <g id="text_15">
      <!-- 57 -->
      <g transform="translate(30.55625 172.290975) scale(0.2 -0.2)">
       <defs>
        <path id="DejaVuSans-37" d="M 525 4666 
L 3525 4666 
L 3525 4397 
L 1831 0 
L 1172 0 
L 2766 4134 
L 525 4134 
L 525 4666 
z
" transform="scale(0.015625)"/>
       </defs>
       <use xlink:href="#DejaVuSans-35"/>
       <use xlink:href="#DejaVuSans-37" x="63.623047"/>
      </g>
     </g>
    </g>
    <g id="ytick_6">
     <g id="line2d_31">
      <path d="M 59.50625 72.210678 
L 952.30625 72.210678 
" clip-path="url(#p18146d1f48)" style="fill: none; stroke: #a5a391; stroke-opacity: 0.3; stroke-width: 0.8; stroke-linecap: square"/>
     </g>
     <g id="line2d_32">
      <g>
       <use xlink:href="#m5dbd282310" x="59.50625" y="72.210678" style="stroke: #000000; stroke-width: 0.8"/>
      </g>
     </g>
     <g id="text_16">
      <!-- 58 -->
      <g transform="translate(30.55625 79.809115) scale(0.2 -0.2)">
       <defs>
        <path id="DejaVuSans-38" d="M 2034 2216 
Q 1584 2216 1326 1975 
Q 1069 1734 1069 1313 
Q 1069 891 1326 650 
Q 1584 409 2034 409 
Q 2484 409 2743 651 
Q 3003 894 3003 1313 
Q 3003 1734 2745 1975 
Q 2488 2216 2034 2216 
z
M 1403 2484 
Q 997 2584 770 2862 
Q 544 3141 544 3541 
Q 544 4100 942 4425 
Q 1341 4750 2034 4750 
Q 2731 4750 3128 4425 
Q 3525 4100 3525 3541 
Q 3525 3141 3298 2862 
Q 3072 2584 2669 2484 
Q 3125 2378 3379 2068 
Q 3634 1759 3634 1313 
Q 3634 634 3220 271 
Q 2806 -91 2034 -91 
Q 1263 -91 848 271 
Q 434 634 434 1313 
Q 434 1759 690 2068 
Q 947 2378 1403 2484 
z
M 1172 3481 
Q 1172 3119 1398 2916 
Q 1625 2713 2034 2713 
Q 2441 2713 2670 2916 
Q 2900 3119 2900 3481 
Q 2900 3844 2670 4047 
Q 2441 4250 2034 4250 
Q 1625 4250 1398 4047 
Q 1172 3844 1172 3481 
z
" transform="scale(0.015625)"/>
       </defs>
       <use xlink:href="#DejaVuSans-35"/>
       <use xlink:href="#DejaVuSans-38" x="63.623047"/>
      </g>
     </g>
    </g>
    <g id="text_17">
     <!-- Water Percentage [%] -->
     <g transform="translate(22.396875 438.31225) rotate(-90) scale(0.2 -0.2)">
      <defs>
       <path id="DejaVuSans-57" d="M 213 4666 
L 850 4666 
L 1831 722 
L 2809 4666 
L 3519 4666 
L 4500 722 
L 5478 4666 
L 6119 4666 
L 4947 0 
L 4153 0 
L 3169 4050 
L 2175 0 
L 1381 0 
L 213 4666 
z
" transform="scale(0.015625)"/>
       <path id="DejaVuSans-74" d="M 1172 4494 
L 1172 3500 
L 2356 3500 
L 2356 3053 
L 1172 3053 
L 1172 1153 
Q 1172 725 1289 603 
Q 1406 481 1766 481 
L 2356 481 
L 2356 0 
L 1766 0 
Q 1100 0 847 248 
Q 594 497 594 1153 
L 594 3053 
L 172 3053 
L 172 3500 
L 594 3500 
L 594 4494 
L 1172 4494 
z
" transform="scale(0.015625)"/>
       <path id="DejaVuSans-72" d="M 2631 2963 
Q 2534 3019 2420 3045 
Q 2306 3072 2169 3072 
Q 1681 3072 1420 2755 
Q 1159 2438 1159 1844 
L 1159 0 
L 581 0 
L 581 3500 
L 1159 3500 
L 1159 2956 
Q 1341 3275 1631 3429 
Q 1922 3584 2338 3584 
Q 2397 3584 2469 3576 
Q 2541 3569 2628 3553 
L 2631 2963 
z
" transform="scale(0.015625)"/>
       <path id="DejaVuSans-50" d="M 1259 4147 
L 1259 2394 
L 2053 2394 
Q 2494 2394 2734 2622 
Q 2975 2850 2975 3272 
Q 2975 3691 2734 3919 
Q 2494 4147 2053 4147 
L 1259 4147 
z
M 628 4666 
L 2053 4666 
Q 2838 4666 3239 4311 
Q 3641 3956 3641 3272 
Q 3641 2581 3239 2228 
Q 2838 1875 2053 1875 
L 1259 1875 
L 1259 0 
L 628 0 
L 628 4666 
z
" transform="scale(0.015625)"/>
       <path id="DejaVuSans-63" d="M 3122 3366 
L 3122 2828 
Q 2878 2963 2633 3030 
Q 2388 3097 2138 3097 
Q 1578 3097 1268 2742 
Q 959 2388 959 1747 
Q 959 1106 1268 751 
Q 1578 397 2138 397 
Q 2388 397 2633 464 
Q 2878 531 3122 666 
L 3122 134 
Q 2881 22 2623 -34 
Q 2366 -91 2075 -91 
Q 1284 -91 818 406 
Q 353 903 353 1747 
Q 353 2603 823 3093 
Q 1294 3584 2113 3584 
Q 2378 3584 2631 3529 
Q 2884 3475 3122 3366 
z
" transform="scale(0.015625)"/>
       <path id="DejaVuSans-67" d="M 2906 1791 
Q 2906 2416 2648 2759 
Q 2391 3103 1925 3103 
Q 1463 3103 1205 2759 
Q 947 2416 947 1791 
Q 947 1169 1205 825 
Q 1463 481 1925 481 
Q 2391 481 2648 825 
Q 2906 1169 2906 1791 
z
M 3481 434 
Q 3481 -459 3084 -895 
Q 2688 -1331 1869 -1331 
Q 1566 -1331 1297 -1286 
Q 1028 -1241 775 -1147 
L 775 -588 
Q 1028 -725 1275 -790 
Q 1522 -856 1778 -856 
Q 2344 -856 2625 -561 
Q 2906 -266 2906 331 
L 2906 616 
Q 2728 306 2450 153 
Q 2172 0 1784 0 
Q 1141 0 747 490 
Q 353 981 353 1791 
Q 353 2603 747 3093 
Q 1141 3584 1784 3584 
Q 2172 3584 2450 3431 
Q 2728 3278 2906 2969 
L 2906 3500 
L 3481 3500 
L 3481 434 
z
" transform="scale(0.015625)"/>
       <path id="DejaVuSans-5b" d="M 550 4863 
L 1875 4863 
L 1875 4416 
L 1125 4416 
L 1125 -397 
L 1875 -397 
L 1875 -844 
L 550 -844 
L 550 4863 
z
" transform="scale(0.015625)"/>
       <path id="DejaVuSans-25" d="M 4653 2053 
Q 4381 2053 4226 1822 
Q 4072 1591 4072 1178 
Q 4072 772 4226 539 
Q 4381 306 4653 306 
Q 4919 306 5073 539 
Q 5228 772 5228 1178 
Q 5228 1588 5073 1820 
Q 4919 2053 4653 2053 
z
M 4653 2450 
Q 5147 2450 5437 2106 
Q 5728 1763 5728 1178 
Q 5728 594 5436 251 
Q 5144 -91 4653 -91 
Q 4153 -91 3862 251 
Q 3572 594 3572 1178 
Q 3572 1766 3864 2108 
Q 4156 2450 4653 2450 
z
M 1428 4353 
Q 1159 4353 1004 4120 
Q 850 3888 850 3481 
Q 850 3069 1003 2837 
Q 1156 2606 1428 2606 
Q 1700 2606 1854 2837 
Q 2009 3069 2009 3481 
Q 2009 3884 1853 4118 
Q 1697 4353 1428 4353 
z
M 4250 4750 
L 4750 4750 
L 1831 -91 
L 1331 -91 
L 4250 4750 
z
M 1428 4750 
Q 1922 4750 2215 4408 
Q 2509 4066 2509 3481 
Q 2509 2891 2217 2550 
Q 1925 2209 1428 2209 
Q 931 2209 642 2551 
Q 353 2894 353 3481 
Q 353 4063 643 4406 
Q 934 4750 1428 4750 
z
" transform="scale(0.015625)"/>
       <path id="DejaVuSans-5d" d="M 1947 4863 
L 1947 -844 
L 622 -844 
L 622 -397 
L 1369 -397 
L 1369 4416 
L 622 4416 
L 622 4863 
L 1947 4863 
z
" transform="scale(0.015625)"/>
      </defs>
      <use xlink:href="#DejaVuSans-57"/>
      <use xlink:href="#DejaVuSans-61" x="92.501953"/>
      <use xlink:href="#DejaVuSans-74" x="153.78125"/>
      <use xlink:href="#DejaVuSans-65" x="192.990234"/>
      <use xlink:href="#DejaVuSans-72" x="254.513672"/>
      <use xlink:href="#DejaVuSans-20" x="295.626953"/>
      <use xlink:href="#DejaVuSans-50" x="327.414062"/>
      <use xlink:href="#DejaVuSans-65" x="384.091797"/>
      <use xlink:href="#DejaVuSans-72" x="445.615234"/>
      <use xlink:href="#DejaVuSans-63" x="484.478516"/>
      <use xlink:href="#DejaVuSans-65" x="539.458984"/>
      <use xlink:href="#DejaVuSans-6e" x="600.982422"/>
      <use xlink:href="#DejaVuSans-74" x="664.361328"/>
      <use xlink:href="#DejaVuSans-61" x="703.570312"/>
      <use xlink:href="#DejaVuSans-67" x="764.849609"/>
      <use xlink:href="#DejaVuSans-65" x="828.326172"/>
      <use xlink:href="#DejaVuSans-20" x="889.849609"/>
      <use xlink:href="#DejaVuSans-5b" x="921.636719"/>
      <use xlink:href="#DejaVuSans-25" x="960.650391"/>
      <use xlink:href="#DejaVuSans-5d" x="1055.669922"/>
     </g>
    </g>
   </g>
   <g id="line2d_33">
    <path d="M 100.088068 303.415327 
L 110.697694 469.882674 
L 116.002507 257.174397 
L 121.30732 291.855094 
L 126.612132 222.4937 
L 131.916945 347.806619 
L 137.221758 261.79849 
L 142.526571 223.264382 
L 147.831384 232.512568 
L 153.136197 260.257126 
L 158.441009 334.859159 
L 163.745822 324.994427 
L 169.050635 224.805746 
L 174.355448 203.534918 
L 179.660261 282.606908 
L 184.965074 222.4937 
L 190.269886 155.444352 
L 195.574699 114.752333 
L 200.879512 90.70705 
L 206.184325 134.635933 
L 211.489138 125.387747 
L 216.793951 158.52708 
L 222.098763 229.429839 
L 227.403576 176.25277 
L 232.708389 178.564816 
L 238.013202 187.813002 
L 243.318015 186.888184 
L 248.622828 158.52708 
L 253.92764 223.264382 
L 259.232453 275.670769 
L 264.537266 234.053932 
L 269.842079 214.632742 
L 275.146892 192.437095 
L 280.451705 209.08383 
L 285.756517 133.865251 
L 291.06133 208.621421 
L 296.366143 272.58804 
L 301.670956 227.580202 
L 306.975769 217.098925 
L 312.280582 169.31663 
L 317.585394 240.990072 
L 322.890207 260.257126 
L 328.19502 296.479187 
L 333.499833 257.174397 
L 338.804646 298.791234 
L 344.109459 358.904443 
L 349.414271 238.678025 
L 354.719084 289.543048 
L 360.023897 291.855094 
L 365.32871 354.28035 
L 370.633523 294.167141 
L 375.938336 317.287606 
L 381.243148 311.122148 
L 386.547961 286.240124 
L 391.852774 258.715761 
L 397.157587 247.926211 
L 402.4624 262.723309 
L 407.767213 241.760754 
L 413.072025 281.219681 
L 418.376838 300.332598 
L 423.681651 275.670769 
L 428.986464 266.422583 
L 434.291277 405.145372 
L 439.59609 380.483543 
L 444.900902 294.167141 
L 450.205715 301.56569 
L 455.510528 290.203633 
L 460.815341 349.656257 
L 466.120154 368.152629 
L 471.424967 315.746241 
L 476.729779 327.46061 
L 482.034592 292.625777 
L 487.339405 210.933467 
L 492.644218 287.231001 
L 497.949031 272.58804 
L 503.253844 282.606908 
L 508.558656 204.76801 
L 513.863469 266.422583 
L 519.168282 210.933467 
L 524.473095 134.635933 
L 535.082721 247.926211 
L 540.387533 236.828388 
L 545.692346 181.647545 
L 550.997159 275.670769 
L 577.521223 266.422583 
L 582.826036 269.505312 
L 588.130849 342.720117 
L 593.435662 291.084412 
L 598.740475 368.152629 
L 619.959726 321.911699 
L 625.264539 386.649 
L 630.569352 303.415327 
L 667.703041 354.28035 
L 673.007854 409.769465 
L 678.312667 374.318086 
L 683.61748 321.911699 
L 688.922293 238.678025 
L 694.227106 257.174397 
L 699.531918 354.28035 
L 704.836731 298.791234 
L 710.141544 368.152629 
L 715.446357 271.046676 
L 720.75117 358.904443 
L 726.055983 361.987171 
L 747.275234 368.152629 
L 752.580047 395.897186 
L 757.88486 386.649 
L 763.189672 298.791234 
L 768.494485 451.386302 
L 795.018549 432.88993 
L 853.371491 358.904443 
L 879.895555 377.400814 
L 885.200368 358.904443 
L 895.809993 405.145372 
L 911.724432 340.408071 
" clip-path="url(#p18146d1f48)" style="fill: none; stroke: #0000ff; stroke-width: 1.5; stroke-linecap: square"/>
    <defs>
     <path id="ma73ba6f4ef" d="M 0 -3 
L -0.673542 -0.927051 
L -2.85317 -0.927051 
L -1.089814 0.354102 
L -1.763356 2.427051 
L -0 1.145898 
L 1.763356 2.427051 
L 1.089814 0.354102 
L 2.85317 -0.927051 
L 0.673542 -0.927051 
z
" style="stroke: #0000ff; stroke-linejoin: bevel"/>
    </defs>
    <g clip-path="url(#p18146d1f48)">
     <use xlink:href="#ma73ba6f4ef" x="100.088068" y="303.415327" style="fill: #0000ff; stroke: #0000ff; stroke-linejoin: bevel"/>
     <use xlink:href="#ma73ba6f4ef" x="110.697694" y="469.882674" style="fill: #0000ff; stroke: #0000ff; stroke-linejoin: bevel"/>
     <use xlink:href="#ma73ba6f4ef" x="116.002507" y="257.174397" style="fill: #0000ff; stroke: #0000ff; stroke-linejoin: bevel"/>
     <use xlink:href="#ma73ba6f4ef" x="121.30732" y="291.855094" style="fill: #0000ff; stroke: #0000ff; stroke-linejoin: bevel"/>
     <use xlink:href="#ma73ba6f4ef" x="126.612132" y="222.4937" style="fill: #0000ff; stroke: #0000ff; stroke-linejoin: bevel"/>
     <use xlink:href="#ma73ba6f4ef" x="131.916945" y="347.806619" style="fill: #0000ff; stroke: #0000ff; stroke-linejoin: bevel"/>
     <use xlink:href="#ma73ba6f4ef" x="137.221758" y="261.79849" style="fill: #0000ff; stroke: #0000ff; stroke-linejoin: bevel"/>
     <use xlink:href="#ma73ba6f4ef" x="142.526571" y="223.264382" style="fill: #0000ff; stroke: #0000ff; stroke-linejoin: bevel"/>
     <use xlink:href="#ma73ba6f4ef" x="147.831384" y="232.512568" style="fill: #0000ff; stroke: #0000ff; stroke-linejoin: bevel"/>
     <use xlink:href="#ma73ba6f4ef" x="153.136197" y="260.257126" style="fill: #0000ff; stroke: #0000ff; stroke-linejoin: bevel"/>
     <use xlink:href="#ma73ba6f4ef" x="158.441009" y="334.859159" style="fill: #0000ff; stroke: #0000ff; stroke-linejoin: bevel"/>
     <use xlink:href="#ma73ba6f4ef" x="163.745822" y="324.994427" style="fill: #0000ff; stroke: #0000ff; stroke-linejoin: bevel"/>
     <use xlink:href="#ma73ba6f4ef" x="169.050635" y="224.805746" style="fill: #0000ff; stroke: #0000ff; stroke-linejoin: bevel"/>
     <use xlink:href="#ma73ba6f4ef" x="174.355448" y="203.534918" style="fill: #0000ff; stroke: #0000ff; stroke-linejoin: bevel"/>
     <use xlink:href="#ma73ba6f4ef" x="179.660261" y="282.606908" style="fill: #0000ff; stroke: #0000ff; stroke-linejoin: bevel"/>
     <use xlink:href="#ma73ba6f4ef" x="184.965074" y="222.4937" style="fill: #0000ff; stroke: #0000ff; stroke-linejoin: bevel"/>
     <use xlink:href="#ma73ba6f4ef" x="190.269886" y="155.444352" style="fill: #0000ff; stroke: #0000ff; stroke-linejoin: bevel"/>
     <use xlink:href="#ma73ba6f4ef" x="195.574699" y="114.752333" style="fill: #0000ff; stroke: #0000ff; stroke-linejoin: bevel"/>
     <use xlink:href="#ma73ba6f4ef" x="200.879512" y="90.70705" style="fill: #0000ff; stroke: #0000ff; stroke-linejoin: bevel"/>
     <use xlink:href="#ma73ba6f4ef" x="206.184325" y="134.635933" style="fill: #0000ff; stroke: #0000ff; stroke-linejoin: bevel"/>
     <use xlink:href="#ma73ba6f4ef" x="211.489138" y="125.387747" style="fill: #0000ff; stroke: #0000ff; stroke-linejoin: bevel"/>
     <use xlink:href="#ma73ba6f4ef" x="216.793951" y="158.52708" style="fill: #0000ff; stroke: #0000ff; stroke-linejoin: bevel"/>
     <use xlink:href="#ma73ba6f4ef" x="222.098763" y="229.429839" style="fill: #0000ff; stroke: #0000ff; stroke-linejoin: bevel"/>
     <use xlink:href="#ma73ba6f4ef" x="227.403576" y="176.25277" style="fill: #0000ff; stroke: #0000ff; stroke-linejoin: bevel"/>
     <use xlink:href="#ma73ba6f4ef" x="232.708389" y="178.564816" style="fill: #0000ff; stroke: #0000ff; stroke-linejoin: bevel"/>
     <use xlink:href="#ma73ba6f4ef" x="238.013202" y="187.813002" style="fill: #0000ff; stroke: #0000ff; stroke-linejoin: bevel"/>
     <use xlink:href="#ma73ba6f4ef" x="243.318015" y="186.888184" style="fill: #0000ff; stroke: #0000ff; stroke-linejoin: bevel"/>
     <use xlink:href="#ma73ba6f4ef" x="248.622828" y="158.52708" style="fill: #0000ff; stroke: #0000ff; stroke-linejoin: bevel"/>
     <use xlink:href="#ma73ba6f4ef" x="253.92764" y="223.264382" style="fill: #0000ff; stroke: #0000ff; stroke-linejoin: bevel"/>
     <use xlink:href="#ma73ba6f4ef" x="259.232453" y="275.670769" style="fill: #0000ff; stroke: #0000ff; stroke-linejoin: bevel"/>
     <use xlink:href="#ma73ba6f4ef" x="264.537266" y="234.053932" style="fill: #0000ff; stroke: #0000ff; stroke-linejoin: bevel"/>
     <use xlink:href="#ma73ba6f4ef" x="269.842079" y="214.632742" style="fill: #0000ff; stroke: #0000ff; stroke-linejoin: bevel"/>
     <use xlink:href="#ma73ba6f4ef" x="275.146892" y="192.437095" style="fill: #0000ff; stroke: #0000ff; stroke-linejoin: bevel"/>
     <use xlink:href="#ma73ba6f4ef" x="280.451705" y="209.08383" style="fill: #0000ff; stroke: #0000ff; stroke-linejoin: bevel"/>
     <use xlink:href="#ma73ba6f4ef" x="285.756517" y="133.865251" style="fill: #0000ff; stroke: #0000ff; stroke-linejoin: bevel"/>
     <use xlink:href="#ma73ba6f4ef" x="291.06133" y="208.621421" style="fill: #0000ff; stroke: #0000ff; stroke-linejoin: bevel"/>
     <use xlink:href="#ma73ba6f4ef" x="296.366143" y="272.58804" style="fill: #0000ff; stroke: #0000ff; stroke-linejoin: bevel"/>
     <use xlink:href="#ma73ba6f4ef" x="301.670956" y="227.580202" style="fill: #0000ff; stroke: #0000ff; stroke-linejoin: bevel"/>
     <use xlink:href="#ma73ba6f4ef" x="306.975769" y="217.098925" style="fill: #0000ff; stroke: #0000ff; stroke-linejoin: bevel"/>
     <use xlink:href="#ma73ba6f4ef" x="312.280582" y="169.31663" style="fill: #0000ff; stroke: #0000ff; stroke-linejoin: bevel"/>
     <use xlink:href="#ma73ba6f4ef" x="317.585394" y="240.990072" style="fill: #0000ff; stroke: #0000ff; stroke-linejoin: bevel"/>
     <use xlink:href="#ma73ba6f4ef" x="322.890207" y="260.257126" style="fill: #0000ff; stroke: #0000ff; stroke-linejoin: bevel"/>
     <use xlink:href="#ma73ba6f4ef" x="328.19502" y="296.479187" style="fill: #0000ff; stroke: #0000ff; stroke-linejoin: bevel"/>
     <use xlink:href="#ma73ba6f4ef" x="333.499833" y="257.174397" style="fill: #0000ff; stroke: #0000ff; stroke-linejoin: bevel"/>
     <use xlink:href="#ma73ba6f4ef" x="338.804646" y="298.791234" style="fill: #0000ff; stroke: #0000ff; stroke-linejoin: bevel"/>
     <use xlink:href="#ma73ba6f4ef" x="344.109459" y="358.904443" style="fill: #0000ff; stroke: #0000ff; stroke-linejoin: bevel"/>
     <use xlink:href="#ma73ba6f4ef" x="349.414271" y="238.678025" style="fill: #0000ff; stroke: #0000ff; stroke-linejoin: bevel"/>
     <use xlink:href="#ma73ba6f4ef" x="354.719084" y="289.543048" style="fill: #0000ff; stroke: #0000ff; stroke-linejoin: bevel"/>
     <use xlink:href="#ma73ba6f4ef" x="360.023897" y="291.855094" style="fill: #0000ff; stroke: #0000ff; stroke-linejoin: bevel"/>
     <use xlink:href="#ma73ba6f4ef" x="365.32871" y="354.28035" style="fill: #0000ff; stroke: #0000ff; stroke-linejoin: bevel"/>
     <use xlink:href="#ma73ba6f4ef" x="370.633523" y="294.167141" style="fill: #0000ff; stroke: #0000ff; stroke-linejoin: bevel"/>
     <use xlink:href="#ma73ba6f4ef" x="375.938336" y="317.287606" style="fill: #0000ff; stroke: #0000ff; stroke-linejoin: bevel"/>
     <use xlink:href="#ma73ba6f4ef" x="381.243148" y="311.122148" style="fill: #0000ff; stroke: #0000ff; stroke-linejoin: bevel"/>
     <use xlink:href="#ma73ba6f4ef" x="386.547961" y="286.240124" style="fill: #0000ff; stroke: #0000ff; stroke-linejoin: bevel"/>
     <use xlink:href="#ma73ba6f4ef" x="391.852774" y="258.715761" style="fill: #0000ff; stroke: #0000ff; stroke-linejoin: bevel"/>
     <use xlink:href="#ma73ba6f4ef" x="397.157587" y="247.926211" style="fill: #0000ff; stroke: #0000ff; stroke-linejoin: bevel"/>
     <use xlink:href="#ma73ba6f4ef" x="402.4624" y="262.723309" style="fill: #0000ff; stroke: #0000ff; stroke-linejoin: bevel"/>
     <use xlink:href="#ma73ba6f4ef" x="407.767213" y="241.760754" style="fill: #0000ff; stroke: #0000ff; stroke-linejoin: bevel"/>
     <use xlink:href="#ma73ba6f4ef" x="413.072025" y="281.219681" style="fill: #0000ff; stroke: #0000ff; stroke-linejoin: bevel"/>
     <use xlink:href="#ma73ba6f4ef" x="418.376838" y="300.332598" style="fill: #0000ff; stroke: #0000ff; stroke-linejoin: bevel"/>
     <use xlink:href="#ma73ba6f4ef" x="423.681651" y="275.670769" style="fill: #0000ff; stroke: #0000ff; stroke-linejoin: bevel"/>
     <use xlink:href="#ma73ba6f4ef" x="428.986464" y="266.422583" style="fill: #0000ff; stroke: #0000ff; stroke-linejoin: bevel"/>
     <use xlink:href="#ma73ba6f4ef" x="434.291277" y="405.145372" style="fill: #0000ff; stroke: #0000ff; stroke-linejoin: bevel"/>
     <use xlink:href="#ma73ba6f4ef" x="439.59609" y="380.483543" style="fill: #0000ff; stroke: #0000ff; stroke-linejoin: bevel"/>
     <use xlink:href="#ma73ba6f4ef" x="444.900902" y="294.167141" style="fill: #0000ff; stroke: #0000ff; stroke-linejoin: bevel"/>
     <use xlink:href="#ma73ba6f4ef" x="450.205715" y="301.56569" style="fill: #0000ff; stroke: #0000ff; stroke-linejoin: bevel"/>
     <use xlink:href="#ma73ba6f4ef" x="455.510528" y="290.203633" style="fill: #0000ff; stroke: #0000ff; stroke-linejoin: bevel"/>
     <use xlink:href="#ma73ba6f4ef" x="460.815341" y="349.656257" style="fill: #0000ff; stroke: #0000ff; stroke-linejoin: bevel"/>
     <use xlink:href="#ma73ba6f4ef" x="466.120154" y="368.152629" style="fill: #0000ff; stroke: #0000ff; stroke-linejoin: bevel"/>
     <use xlink:href="#ma73ba6f4ef" x="471.424967" y="315.746241" style="fill: #0000ff; stroke: #0000ff; stroke-linejoin: bevel"/>
     <use xlink:href="#ma73ba6f4ef" x="476.729779" y="327.46061" style="fill: #0000ff; stroke: #0000ff; stroke-linejoin: bevel"/>
     <use xlink:href="#ma73ba6f4ef" x="482.034592" y="292.625777" style="fill: #0000ff; stroke: #0000ff; stroke-linejoin: bevel"/>
     <use xlink:href="#ma73ba6f4ef" x="487.339405" y="210.933467" style="fill: #0000ff; stroke: #0000ff; stroke-linejoin: bevel"/>
     <use xlink:href="#ma73ba6f4ef" x="492.644218" y="287.231001" style="fill: #0000ff; stroke: #0000ff; stroke-linejoin: bevel"/>
     <use xlink:href="#ma73ba6f4ef" x="497.949031" y="272.58804" style="fill: #0000ff; stroke: #0000ff; stroke-linejoin: bevel"/>
     <use xlink:href="#ma73ba6f4ef" x="503.253844" y="282.606908" style="fill: #0000ff; stroke: #0000ff; stroke-linejoin: bevel"/>
     <use xlink:href="#ma73ba6f4ef" x="508.558656" y="204.76801" style="fill: #0000ff; stroke: #0000ff; stroke-linejoin: bevel"/>
     <use xlink:href="#ma73ba6f4ef" x="513.863469" y="266.422583" style="fill: #0000ff; stroke: #0000ff; stroke-linejoin: bevel"/>
     <use xlink:href="#ma73ba6f4ef" x="519.168282" y="210.933467" style="fill: #0000ff; stroke: #0000ff; stroke-linejoin: bevel"/>
     <use xlink:href="#ma73ba6f4ef" x="524.473095" y="134.635933" style="fill: #0000ff; stroke: #0000ff; stroke-linejoin: bevel"/>
     <use xlink:href="#ma73ba6f4ef" x="535.082721" y="247.926211" style="fill: #0000ff; stroke: #0000ff; stroke-linejoin: bevel"/>
     <use xlink:href="#ma73ba6f4ef" x="540.387533" y="236.828388" style="fill: #0000ff; stroke: #0000ff; stroke-linejoin: bevel"/>
     <use xlink:href="#ma73ba6f4ef" x="545.692346" y="181.647545" style="fill: #0000ff; stroke: #0000ff; stroke-linejoin: bevel"/>
     <use xlink:href="#ma73ba6f4ef" x="550.997159" y="275.670769" style="fill: #0000ff; stroke: #0000ff; stroke-linejoin: bevel"/>
     <use xlink:href="#ma73ba6f4ef" x="577.521223" y="266.422583" style="fill: #0000ff; stroke: #0000ff; stroke-linejoin: bevel"/>
     <use xlink:href="#ma73ba6f4ef" x="582.826036" y="269.505312" style="fill: #0000ff; stroke: #0000ff; stroke-linejoin: bevel"/>
     <use xlink:href="#ma73ba6f4ef" x="588.130849" y="342.720117" style="fill: #0000ff; stroke: #0000ff; stroke-linejoin: bevel"/>
     <use xlink:href="#ma73ba6f4ef" x="593.435662" y="291.084412" style="fill: #0000ff; stroke: #0000ff; stroke-linejoin: bevel"/>
     <use xlink:href="#ma73ba6f4ef" x="598.740475" y="368.152629" style="fill: #0000ff; stroke: #0000ff; stroke-linejoin: bevel"/>
     <use xlink:href="#ma73ba6f4ef" x="619.959726" y="321.911699" style="fill: #0000ff; stroke: #0000ff; stroke-linejoin: bevel"/>
     <use xlink:href="#ma73ba6f4ef" x="625.264539" y="386.649" style="fill: #0000ff; stroke: #0000ff; stroke-linejoin: bevel"/>
     <use xlink:href="#ma73ba6f4ef" x="630.569352" y="303.415327" style="fill: #0000ff; stroke: #0000ff; stroke-linejoin: bevel"/>
     <use xlink:href="#ma73ba6f4ef" x="667.703041" y="354.28035" style="fill: #0000ff; stroke: #0000ff; stroke-linejoin: bevel"/>
     <use xlink:href="#ma73ba6f4ef" x="673.007854" y="409.769465" style="fill: #0000ff; stroke: #0000ff; stroke-linejoin: bevel"/>
     <use xlink:href="#ma73ba6f4ef" x="678.312667" y="374.318086" style="fill: #0000ff; stroke: #0000ff; stroke-linejoin: bevel"/>
     <use xlink:href="#ma73ba6f4ef" x="683.61748" y="321.911699" style="fill: #0000ff; stroke: #0000ff; stroke-linejoin: bevel"/>
     <use xlink:href="#ma73ba6f4ef" x="688.922293" y="238.678025" style="fill: #0000ff; stroke: #0000ff; stroke-linejoin: bevel"/>
     <use xlink:href="#ma73ba6f4ef" x="694.227106" y="257.174397" style="fill: #0000ff; stroke: #0000ff; stroke-linejoin: bevel"/>
     <use xlink:href="#ma73ba6f4ef" x="699.531918" y="354.28035" style="fill: #0000ff; stroke: #0000ff; stroke-linejoin: bevel"/>
     <use xlink:href="#ma73ba6f4ef" x="704.836731" y="298.791234" style="fill: #0000ff; stroke: #0000ff; stroke-linejoin: bevel"/>
     <use xlink:href="#ma73ba6f4ef" x="710.141544" y="368.152629" style="fill: #0000ff; stroke: #0000ff; stroke-linejoin: bevel"/>
     <use xlink:href="#ma73ba6f4ef" x="715.446357" y="271.046676" style="fill: #0000ff; stroke: #0000ff; stroke-linejoin: bevel"/>
     <use xlink:href="#ma73ba6f4ef" x="720.75117" y="358.904443" style="fill: #0000ff; stroke: #0000ff; stroke-linejoin: bevel"/>
     <use xlink:href="#ma73ba6f4ef" x="726.055983" y="361.987171" style="fill: #0000ff; stroke: #0000ff; stroke-linejoin: bevel"/>
     <use xlink:href="#ma73ba6f4ef" x="747.275234" y="368.152629" style="fill: #0000ff; stroke: #0000ff; stroke-linejoin: bevel"/>
     <use xlink:href="#ma73ba6f4ef" x="752.580047" y="395.897186" style="fill: #0000ff; stroke: #0000ff; stroke-linejoin: bevel"/>
     <use xlink:href="#ma73ba6f4ef" x="757.88486" y="386.649" style="fill: #0000ff; stroke: #0000ff; stroke-linejoin: bevel"/>
     <use xlink:href="#ma73ba6f4ef" x="763.189672" y="298.791234" style="fill: #0000ff; stroke: #0000ff; stroke-linejoin: bevel"/>
     <use xlink:href="#ma73ba6f4ef" x="768.494485" y="451.386302" style="fill: #0000ff; stroke: #0000ff; stroke-linejoin: bevel"/>
     <use xlink:href="#ma73ba6f4ef" x="795.018549" y="432.88993" style="fill: #0000ff; stroke: #0000ff; stroke-linejoin: bevel"/>
     <use xlink:href="#ma73ba6f4ef" x="853.371491" y="358.904443" style="fill: #0000ff; stroke: #0000ff; stroke-linejoin: bevel"/>
     <use xlink:href="#ma73ba6f4ef" x="879.895555" y="377.400814" style="fill: #0000ff; stroke: #0000ff; stroke-linejoin: bevel"/>
     <use xlink:href="#ma73ba6f4ef" x="885.200368" y="358.904443" style="fill: #0000ff; stroke: #0000ff; stroke-linejoin: bevel"/>
     <use xlink:href="#ma73ba6f4ef" x="895.809993" y="405.145372" style="fill: #0000ff; stroke: #0000ff; stroke-linejoin: bevel"/>
     <use xlink:href="#ma73ba6f4ef" x="911.724432" y="340.408071" style="fill: #0000ff; stroke: #0000ff; stroke-linejoin: bevel"/>
    </g>
   </g>
   <g id="patch_3">
    <path d="M 59.50625 622.6035 
L 59.50625 35.0835 
" style="fill: none; stroke: #000000; stroke-width: 0.8; stroke-linejoin: miter; stroke-linecap: square"/>
   </g>
   <g id="patch_4">
    <path d="M 952.30625 622.6035 
L 952.30625 35.0835 
" style="fill: none; stroke: #000000; stroke-width: 0.8; stroke-linejoin: miter; stroke-linecap: square"/>
   </g>
   <g id="patch_5">
    <path d="M 59.50625 622.6035 
L 952.30625 622.6035 
" style="fill: none; stroke: #000000; stroke-width: 0.8; stroke-linejoin: miter; stroke-linecap: square"/>
   </g>
   <g id="patch_6">
    <path d="M 59.50625 35.0835 
L 952.30625 35.0835 
" style="fill: none; stroke: #000000; stroke-width: 0.8; stroke-linejoin: miter; stroke-linecap: square"/>
   </g>
   <g id="text_18">
    <!-- Body Water Percentage -->
    <g transform="translate(336.8345 29.0835) scale(0.288 -0.288)">
     <defs>
      <path id="DejaVuSans-42" d="M 1259 2228 
L 1259 519 
L 2272 519 
Q 2781 519 3026 730 
Q 3272 941 3272 1375 
Q 3272 1813 3026 2020 
Q 2781 2228 2272 2228 
L 1259 2228 
z
M 1259 4147 
L 1259 2741 
L 2194 2741 
Q 2656 2741 2882 2914 
Q 3109 3088 3109 3444 
Q 3109 3797 2882 3972 
Q 2656 4147 2194 4147 
L 1259 4147 
z
M 628 4666 
L 2241 4666 
Q 2963 4666 3353 4366 
Q 3744 4066 3744 3513 
Q 3744 3084 3544 2831 
Q 3344 2578 2956 2516 
Q 3422 2416 3680 2098 
Q 3938 1781 3938 1306 
Q 3938 681 3513 340 
Q 3088 0 2303 0 
L 628 0 
L 628 4666 
z
" transform="scale(0.015625)"/>
      <path id="DejaVuSans-6f" d="M 1959 3097 
Q 1497 3097 1228 2736 
Q 959 2375 959 1747 
Q 959 1119 1226 758 
Q 1494 397 1959 397 
Q 2419 397 2687 759 
Q 2956 1122 2956 1747 
Q 2956 2369 2687 2733 
Q 2419 3097 1959 3097 
z
M 1959 3584 
Q 2709 3584 3137 3096 
Q 3566 2609 3566 1747 
Q 3566 888 3137 398 
Q 2709 -91 1959 -91 
Q 1206 -91 779 398 
Q 353 888 353 1747 
Q 353 2609 779 3096 
Q 1206 3584 1959 3584 
z
" transform="scale(0.015625)"/>
      <path id="DejaVuSans-64" d="M 2906 2969 
L 2906 4863 
L 3481 4863 
L 3481 0 
L 2906 0 
L 2906 525 
Q 2725 213 2448 61 
Q 2172 -91 1784 -91 
Q 1150 -91 751 415 
Q 353 922 353 1747 
Q 353 2572 751 3078 
Q 1150 3584 1784 3584 
Q 2172 3584 2448 3432 
Q 2725 3281 2906 2969 
z
M 947 1747 
Q 947 1113 1208 752 
Q 1469 391 1925 391 
Q 2381 391 2643 752 
Q 2906 1113 2906 1747 
Q 2906 2381 2643 2742 
Q 2381 3103 1925 3103 
Q 1469 3103 1208 2742 
Q 947 2381 947 1747 
z
" transform="scale(0.015625)"/>
     </defs>
     <use xlink:href="#DejaVuSans-42"/>
     <use xlink:href="#DejaVuSans-6f" x="68.603516"/>
     <use xlink:href="#DejaVuSans-64" x="129.785156"/>
     <use xlink:href="#DejaVuSans-79" x="193.261719"/>
     <use xlink:href="#DejaVuSans-20" x="252.441406"/>
     <use xlink:href="#DejaVuSans-57" x="284.228516"/>
     <use xlink:href="#DejaVuSans-61" x="376.730469"/>
     <use xlink:href="#DejaVuSans-74" x="438.009766"/>
     <use xlink:href="#DejaVuSans-65" x="477.21875"/>
     <use xlink:href="#DejaVuSans-72" x="538.742188"/>
     <use xlink:href="#DejaVuSans-20" x="579.855469"/>
     <use xlink:href="#DejaVuSans-50" x="611.642578"/>
     <use xlink:href="#DejaVuSans-65" x="668.320312"/>
     <use xlink:href="#DejaVuSans-72" x="729.84375"/>
     <use xlink:href="#DejaVuSans-63" x="768.707031"/>
     <use xlink:href="#DejaVuSans-65" x="823.6875"/>
     <use xlink:href="#DejaVuSans-6e" x="885.210938"/>
     <use xlink:href="#DejaVuSans-74" x="948.589844"/>
     <use xlink:href="#DejaVuSans-61" x="987.798828"/>
     <use xlink:href="#DejaVuSans-67" x="1049.078125"/>
     <use xlink:href="#DejaVuSans-65" x="1112.554688"/>
    </g>
   </g>
  </g>
 </g>
 <defs>
  <clipPath id="p18146d1f48">
   <rect x="59.50625" y="35.0835" width="892.8" height="587.52"/>
  </clipPath>
 </defs>
</svg>
