<?xml version="1.0" encoding="utf-8" standalone="no"?>
<!DOCTYPE svg PUBLIC "-//W3C//DTD SVG 1.1//EN"
  "http://www.w3.org/Graphics/SVG/1.1/DTD/svg11.dtd">
<svg xmlns:xlink="http://www.w3.org/1999/xlink" width="968.023pt" height="700.466504pt" viewBox="0 0 968.023 700.466504" xmlns="http://www.w3.org/2000/svg" version="1.1">
 <metadata>
  <rdf:RDF xmlns:dc="http://purl.org/dc/elements/1.1/" xmlns:cc="http://creativecommons.org/ns#" xmlns:rdf="http://www.w3.org/1999/02/22-rdf-syntax-ns#">
   <cc:Work>
    <dc:type rdf:resource="http://purl.org/dc/dcmitype/StillImage"/>
    <dc:date>2023-11-06T19:14:21.799418</dc:date>
    <dc:format>image/svg+xml</dc:format>
    <dc:creator>
     <cc:Agent>
      <dc:title>Matplotlib v3.8.1, https://matplotlib.org/</dc:title>
     </cc:Agent>
    </dc:creator>
   </cc:Work>
  </rdf:RDF>
 </metadata>
 <defs>
  <style type="text/css">*{stroke-linejoin: round; stroke-linecap: butt}</style>
 </defs>
 <g id="figure_1">
  <g id="patch_1">
   <path d="M 0 700.466504 
L 968.023 700.466504 
L 968.023 0 
L 0 0 
z
" style="fill: #ffffff"/>
  </g>
  <g id="axes_1">
   <g id="patch_2">
    <path d="M 68.023 622.6035 
L 960.823 622.6035 
L 960.823 35.0835 
L 68.023 35.0835 
z
" style="fill: #ffffff"/>
   </g>
   <g id="PolyCollection_1">
    <defs>
     <path id="m5adcd366f4" d="M 108.604818 -429.726218 
L 108.604818 -357.045242 
L 116.680802 -104.568459 
L 120.718794 -384.578698 
L 124.756786 -389.638019 
L 128.794777 -436.99175 
L 132.832769 -339.835969 
L 136.870761 -412.917322 
L 140.908753 -406.42885 
L 144.946745 -408.033 
L 148.984737 -407.895881 
L 153.022729 -350.357711 
L 157.06072 -352.051773 
L 161.098712 -431.305845 
L 165.136704 -423.598518 
L 169.174696 -365.121574 
L 173.212688 -410.824243 
L 177.25068 -451.869244 
L 181.288672 -491.27328 
L 185.326664 -517.206141 
L 189.364655 -479.09064 
L 193.402647 -486.784803 
L 197.440639 -438.388901 
L 201.478631 -418.595528 
L 205.516623 -398.336393 
L 209.554615 -426.190078 
L 213.592607 -419.725739 
L 217.630598 -428.117008 
L 221.66859 -455.152292 
L 225.706582 -412.285907 
L 229.744574 -382.83696 
L 233.782566 -406.847558 
L 237.820558 -430.331956 
L 241.85855 -434.2258 
L 245.896541 -425.713387 
L 249.934533 -436.411355 
L 253.972525 -400.01558 
L 258.010517 -357.973423 
L 262.048509 -391.516547 
L 266.086501 -392.595904 
L 270.124493 -446.252887 
L 274.162484 -391.292348 
L 278.200476 -372.636166 
L 282.238468 -364.68441 
L 286.27646 -403.072179 
L 290.314452 -336.818001 
L 294.352444 -311.982336 
L 298.390436 -396.690725 
L 302.428427 -368.763998 
L 306.466419 -393.390391 
L 310.504411 -313.78619 
L 314.542403 -337.80298 
L 318.580395 -330.792811 
L 322.618387 -324.253414 
L 326.656379 -347.961528 
L 330.69437 -369.827694 
L 334.732362 -359.268534 
L 338.770354 -334.659191 
L 342.808346 -381.069106 
L 346.846338 -359.308648 
L 350.88433 -344.49096 
L 354.922322 -357.753747 
L 358.960313 -359.459668 
L 362.998305 -267.84032 
L 367.036297 -288.147122 
L 371.074289 -375.065329 
L 375.112281 -329.021197 
L 379.150273 -348.714536 
L 383.188265 -275.523187 
L 387.226256 -294.30261 
L 391.264248 -328.797608 
L 395.30224 -310.467805 
L 399.340232 -345.668658 
L 403.378224 -364.337991 
L 407.416216 -338.470016 
L 411.454208 -350.160931 
L 415.492199 -366.75882 
L 419.530191 -407.320875 
L 423.568183 -366.564182 
L 427.606175 -435.726936 
L 431.644167 -469.854321 
L 439.720151 -386.85307 
L 443.758142 -394.151885 
L 447.796134 -417.357432 
L 451.834126 -374.732066 
L 472.024085 -384.420966 
L 476.062077 -384.409514 
L 480.100069 -298.938338 
L 484.138061 -376.124865 
L 488.176053 -323.818108 
L 504.32802 -344.910748 
L 508.366012 -327.786661 
L 512.404004 -377.0559 
L 540.669947 -347.325106 
L 544.707939 -290.791933 
L 548.745931 -313.653189 
L 552.783923 -341.740784 
L 556.821915 -393.872557 
L 560.859906 -379.298875 
L 564.897898 -316.132568 
L 568.93589 -336.848725 
L 572.973882 -309.446628 
L 577.011874 -334.804894 
L 581.049866 -332.156187 
L 585.087858 -325.140008 
L 601.239825 -288.129809 
L 605.277817 -282.574874 
L 609.315809 -289.230252 
L 613.353801 -340.438046 
L 617.391792 -234.274004 
L 637.581752 -264.967109 
L 681.999662 -323.670262 
L 702.189621 -303.1043 
L 706.227613 -317.762365 
L 714.303597 -255.482457 
L 726.417573 -316.764493 
L 778.911467 -245.963086 
L 912.165198 -512.303368 
L 916.20319 -502.799563 
L 920.241182 -555.303633 
L 920.241182 -638.67755 
L 920.241182 -638.67755 
L 916.20319 -612.928212 
L 912.165198 -584.984345 
L 778.911467 -318.644063 
L 726.417573 -389.445469 
L 714.303597 -328.163433 
L 706.227613 -390.443342 
L 702.189621 -375.785277 
L 681.999662 -396.351238 
L 637.581752 -337.648085 
L 617.391792 -306.95498 
L 613.353801 -402.934474 
L 609.315809 -361.911229 
L 605.277817 -355.255851 
L 601.239825 -360.810785 
L 585.087858 -397.820984 
L 581.049866 -404.837164 
L 577.011874 -468.493634 
L 572.973882 -382.127604 
L 568.93589 -409.529701 
L 564.897898 -388.813544 
L 560.859906 -451.979851 
L 556.821915 -466.553534 
L 552.783923 -396.908605 
L 548.745931 -386.334165 
L 544.707939 -363.472909 
L 540.669947 -364.293183 
L 512.404004 -449.736877 
L 508.366012 -400.467638 
L 504.32802 -417.591724 
L 488.176053 -396.499085 
L 484.138061 -448.805841 
L 480.100069 -410.481064 
L 476.062077 -457.09049 
L 472.024085 -457.101942 
L 451.834126 -447.413043 
L 447.796134 -500.503707 
L 443.758142 -460.802682 
L 439.720151 -459.534047 
L 431.644167 -520.209841 
L 427.606175 -508.407913 
L 423.568183 -439.245159 
L 419.530191 -467.180719 
L 415.492199 -415.653008 
L 411.454208 -422.841907 
L 407.416216 -442.347019 
L 403.378224 -437.018967 
L 399.340232 -432.058141 
L 395.30224 -405.390421 
L 391.264248 -401.478584 
L 387.226256 -366.983586 
L 383.188265 -425.782157 
L 379.150273 -432.113341 
L 375.112281 -412.255971 
L 371.074289 -447.746305 
L 367.036297 -360.828098 
L 362.998305 -340.521297 
L 358.960313 -432.140644 
L 354.922322 -436.295898 
L 350.88433 -404.161721 
L 346.846338 -412.278174 
L 342.808346 -453.750083 
L 338.770354 -459.393791 
L 334.732362 -431.94951 
L 330.69437 -468.977762 
L 326.656379 -435.515826 
L 322.618387 -411.267276 
L 318.580395 -425.317628 
L 314.542403 -410.483957 
L 310.504411 -362.189971 
L 306.466419 -409.070072 
L 302.428427 -441.444975 
L 298.390436 -469.371701 
L 294.352444 -384.663312 
L 290.314452 -409.498977 
L 286.27646 -439.01861 
L 282.238468 -404.715945 
L 278.200476 -445.317143 
L 274.162484 -457.930287 
L 270.124493 -479.140564 
L 266.086501 -465.27688 
L 262.048509 -468.244516 
L 258.010517 -442.55893 
L 253.972525 -451.303491 
L 249.934533 -509.092331 
L 245.896541 -466.081521 
L 241.85855 -506.906777 
L 237.820558 -485.135715 
L 233.782566 -479.528534 
L 229.744574 -483.886671 
L 225.706582 -484.966883 
L 221.66859 -527.833268 
L 217.630598 -522.112459 
L 213.592607 -524.976549 
L 209.554615 -494.793992 
L 205.516623 -542.728115 
L 201.478631 -491.276504 
L 197.440639 -511.069877 
L 193.402647 -527.523321 
L 189.364655 -526.741765 
L 185.326664 -522.180237 
L 181.288672 -528.85268 
L 177.25068 -524.531451 
L 173.212688 -492.350002 
L 169.174696 -457.364264 
L 165.136704 -493.576291 
L 161.098712 -463.986184 
L 157.06072 -398.116729 
L 153.022729 -440.216932 
L 148.984737 -472.02834 
L 144.946745 -480.713976 
L 140.908753 -485.501974 
L 136.870761 -457.563684 
L 132.832769 -393.052564 
L 128.794777 -465.496573 
L 124.756786 -408.894061 
L 120.718794 -459.463108 
L 116.680802 -339.964419 
L 108.604818 -429.726218 
z
" style="stroke: #a52a2a; stroke-opacity: 0.2"/>
    </defs>
    <g clip-path="url(#p274f4f015a)">
     <use xlink:href="#m5adcd366f4" x="0" y="700.466504" style="fill: #a52a2a; fill-opacity: 0.2; stroke: #a52a2a; stroke-opacity: 0.2"/>
    </g>
   </g>
   <g id="matplotlib.axis_1">
    <g id="xtick_1">
     <g id="line2d_1">
      <path d="M 112.64281 622.6035 
L 112.64281 35.0835 
" clip-path="url(#p274f4f015a)" style="fill: none; stroke: #a5a391; stroke-opacity: 0.3; stroke-width: 0.8; stroke-linecap: square"/>
     </g>
     <g id="line2d_2">
      <defs>
       <path id="mf8d8df2403" d="M 0 0 
L 0 -3.5 
" style="stroke: #000000; stroke-width: 0.8"/>
      </defs>
      <g>
       <use xlink:href="#mf8d8df2403" x="112.64281" y="622.6035" style="stroke: #000000; stroke-width: 0.8"/>
      </g>
     </g>
     <g id="text_1">
      <!-- Jan 01, 20 -->
      <g transform="translate(23.267762 689.66438) rotate(-30) scale(0.2 -0.2)">
       <defs>
        <path id="DejaVuSans-4a" d="M 628 4666 
L 1259 4666 
L 1259 325 
Q 1259 -519 939 -900 
Q 619 -1281 -91 -1281 
L -331 -1281 
L -331 -750 
L -134 -750 
Q 284 -750 456 -515 
Q 628 -281 628 325 
L 628 4666 
z
" transform="scale(0.015625)"/>
        <path id="DejaVuSans-61" d="M 2194 1759 
Q 1497 1759 1228 1600 
Q 959 1441 959 1056 
Q 959 750 1161 570 
Q 1363 391 1709 391 
Q 2188 391 2477 730 
Q 2766 1069 2766 1631 
L 2766 1759 
L 2194 1759 
z
M 3341 1997 
L 3341 0 
L 2766 0 
L 2766 531 
Q 2569 213 2275 61 
Q 1981 -91 1556 -91 
Q 1019 -91 701 211 
Q 384 513 384 1019 
Q 384 1609 779 1909 
Q 1175 2209 1959 2209 
L 2766 2209 
L 2766 2266 
Q 2766 2663 2505 2880 
Q 2244 3097 1772 3097 
Q 1472 3097 1187 3025 
Q 903 2953 641 2809 
L 641 3341 
Q 956 3463 1253 3523 
Q 1550 3584 1831 3584 
Q 2591 3584 2966 3190 
Q 3341 2797 3341 1997 
z
" transform="scale(0.015625)"/>
        <path id="DejaVuSans-6e" d="M 3513 2113 
L 3513 0 
L 2938 0 
L 2938 2094 
Q 2938 2591 2744 2837 
Q 2550 3084 2163 3084 
Q 1697 3084 1428 2787 
Q 1159 2491 1159 1978 
L 1159 0 
L 581 0 
L 581 3500 
L 1159 3500 
L 1159 2956 
Q 1366 3272 1645 3428 
Q 1925 3584 2291 3584 
Q 2894 3584 3203 3211 
Q 3513 2838 3513 2113 
z
" transform="scale(0.015625)"/>
        <path id="DejaVuSans-20" transform="scale(0.015625)"/>
        <path id="DejaVuSans-30" d="M 2034 4250 
Q 1547 4250 1301 3770 
Q 1056 3291 1056 2328 
Q 1056 1369 1301 889 
Q 1547 409 2034 409 
Q 2525 409 2770 889 
Q 3016 1369 3016 2328 
Q 3016 3291 2770 3770 
Q 2525 4250 2034 4250 
z
M 2034 4750 
Q 2819 4750 3233 4129 
Q 3647 3509 3647 2328 
Q 3647 1150 3233 529 
Q 2819 -91 2034 -91 
Q 1250 -91 836 529 
Q 422 1150 422 2328 
Q 422 3509 836 4129 
Q 1250 4750 2034 4750 
z
" transform="scale(0.015625)"/>
        <path id="DejaVuSans-31" d="M 794 531 
L 1825 531 
L 1825 4091 
L 703 3866 
L 703 4441 
L 1819 4666 
L 2450 4666 
L 2450 531 
L 3481 531 
L 3481 0 
L 794 0 
L 794 531 
z
" transform="scale(0.015625)"/>
        <path id="DejaVuSans-2c" d="M 750 794 
L 1409 794 
L 1409 256 
L 897 -744 
L 494 -744 
L 750 256 
L 750 794 
z
" transform="scale(0.015625)"/>
        <path id="DejaVuSans-32" d="M 1228 531 
L 3431 531 
L 3431 0 
L 469 0 
L 469 531 
Q 828 903 1448 1529 
Q 2069 2156 2228 2338 
Q 2531 2678 2651 2914 
Q 2772 3150 2772 3378 
Q 2772 3750 2511 3984 
Q 2250 4219 1831 4219 
Q 1534 4219 1204 4116 
Q 875 4013 500 3803 
L 500 4441 
Q 881 4594 1212 4672 
Q 1544 4750 1819 4750 
Q 2544 4750 2975 4387 
Q 3406 4025 3406 3419 
Q 3406 3131 3298 2873 
Q 3191 2616 2906 2266 
Q 2828 2175 2409 1742 
Q 1991 1309 1228 531 
z
" transform="scale(0.015625)"/>
       </defs>
       <use xlink:href="#DejaVuSans-4a"/>
       <use xlink:href="#DejaVuSans-61" x="29.492188"/>
       <use xlink:href="#DejaVuSans-6e" x="90.771484"/>
       <use xlink:href="#DejaVuSans-20" x="154.150391"/>
       <use xlink:href="#DejaVuSans-30" x="185.9375"/>
       <use xlink:href="#DejaVuSans-31" x="249.560547"/>
       <use xlink:href="#DejaVuSans-2c" x="313.183594"/>
       <use xlink:href="#DejaVuSans-20" x="344.970703"/>
       <use xlink:href="#DejaVuSans-32" x="376.757812"/>
       <use xlink:href="#DejaVuSans-30" x="440.380859"/>
      </g>
     </g>
    </g>
    <g id="xtick_2">
     <g id="line2d_3">
      <path d="M 217.630598 622.6035 
L 217.630598 35.0835 
" clip-path="url(#p274f4f015a)" style="fill: none; stroke: #a5a391; stroke-opacity: 0.3; stroke-width: 0.8; stroke-linecap: square"/>
     </g>
     <g id="line2d_4">
      <g>
       <use xlink:href="#mf8d8df2403" x="217.630598" y="622.6035" style="stroke: #000000; stroke-width: 0.8"/>
      </g>
     </g>
     <g id="text_2">
      <!-- Jul 01, 20 -->
      <g transform="translate(134.05792 686.31438) rotate(-30) scale(0.2 -0.2)">
       <defs>
        <path id="DejaVuSans-75" d="M 544 1381 
L 544 3500 
L 1119 3500 
L 1119 1403 
Q 1119 906 1312 657 
Q 1506 409 1894 409 
Q 2359 409 2629 706 
Q 2900 1003 2900 1516 
L 2900 3500 
L 3475 3500 
L 3475 0 
L 2900 0 
L 2900 538 
Q 2691 219 2414 64 
Q 2138 -91 1772 -91 
Q 1169 -91 856 284 
Q 544 659 544 1381 
z
M 1991 3584 
L 1991 3584 
z
" transform="scale(0.015625)"/>
        <path id="DejaVuSans-6c" d="M 603 4863 
L 1178 4863 
L 1178 0 
L 603 0 
L 603 4863 
z
" transform="scale(0.015625)"/>
       </defs>
       <use xlink:href="#DejaVuSans-4a"/>
       <use xlink:href="#DejaVuSans-75" x="29.492188"/>
       <use xlink:href="#DejaVuSans-6c" x="92.871094"/>
       <use xlink:href="#DejaVuSans-20" x="120.654297"/>
       <use xlink:href="#DejaVuSans-30" x="152.441406"/>
       <use xlink:href="#DejaVuSans-31" x="216.064453"/>
       <use xlink:href="#DejaVuSans-2c" x="279.6875"/>
       <use xlink:href="#DejaVuSans-20" x="311.474609"/>
       <use xlink:href="#DejaVuSans-32" x="343.261719"/>
       <use xlink:href="#DejaVuSans-30" x="406.884766"/>
      </g>
     </g>
    </g>
    <g id="xtick_3">
     <g id="line2d_5">
      <path d="M 323.772099 622.6035 
L 323.772099 35.0835 
" clip-path="url(#p274f4f015a)" style="fill: none; stroke: #a5a391; stroke-opacity: 0.3; stroke-width: 0.8; stroke-linecap: square"/>
     </g>
     <g id="line2d_6">
      <g>
       <use xlink:href="#mf8d8df2403" x="323.772099" y="622.6035" style="stroke: #000000; stroke-width: 0.8"/>
      </g>
     </g>
     <g id="text_3">
      <!-- Jan 01, 21 -->
      <g transform="translate(234.39705 689.66438) rotate(-30) scale(0.2 -0.2)">
       <use xlink:href="#DejaVuSans-4a"/>
       <use xlink:href="#DejaVuSans-61" x="29.492188"/>
       <use xlink:href="#DejaVuSans-6e" x="90.771484"/>
       <use xlink:href="#DejaVuSans-20" x="154.150391"/>
       <use xlink:href="#DejaVuSans-30" x="185.9375"/>
       <use xlink:href="#DejaVuSans-31" x="249.560547"/>
       <use xlink:href="#DejaVuSans-2c" x="313.183594"/>
       <use xlink:href="#DejaVuSans-20" x="344.970703"/>
       <use xlink:href="#DejaVuSans-32" x="376.757812"/>
       <use xlink:href="#DejaVuSans-31" x="440.380859"/>
      </g>
     </g>
    </g>
    <g id="xtick_4">
     <g id="line2d_7">
      <path d="M 428.183031 622.6035 
L 428.183031 35.0835 
" clip-path="url(#p274f4f015a)" style="fill: none; stroke: #a5a391; stroke-opacity: 0.3; stroke-width: 0.8; stroke-linecap: square"/>
     </g>
     <g id="line2d_8">
      <g>
       <use xlink:href="#mf8d8df2403" x="428.183031" y="622.6035" style="stroke: #000000; stroke-width: 0.8"/>
      </g>
     </g>
     <g id="text_4">
      <!-- Jul 01, 21 -->
      <g transform="translate(344.610353 686.31438) rotate(-30) scale(0.2 -0.2)">
       <use xlink:href="#DejaVuSans-4a"/>
       <use xlink:href="#DejaVuSans-75" x="29.492188"/>
       <use xlink:href="#DejaVuSans-6c" x="92.871094"/>
       <use xlink:href="#DejaVuSans-20" x="120.654297"/>
       <use xlink:href="#DejaVuSans-30" x="152.441406"/>
       <use xlink:href="#DejaVuSans-31" x="216.064453"/>
       <use xlink:href="#DejaVuSans-2c" x="279.6875"/>
       <use xlink:href="#DejaVuSans-20" x="311.474609"/>
       <use xlink:href="#DejaVuSans-32" x="343.261719"/>
       <use xlink:href="#DejaVuSans-31" x="406.884766"/>
      </g>
     </g>
    </g>
    <g id="xtick_5">
     <g id="line2d_9">
      <path d="M 534.324531 622.6035 
L 534.324531 35.0835 
" clip-path="url(#p274f4f015a)" style="fill: none; stroke: #a5a391; stroke-opacity: 0.3; stroke-width: 0.8; stroke-linecap: square"/>
     </g>
     <g id="line2d_10">
      <g>
       <use xlink:href="#mf8d8df2403" x="534.324531" y="622.6035" style="stroke: #000000; stroke-width: 0.8"/>
      </g>
     </g>
     <g id="text_5">
      <!-- Jan 01, 22 -->
      <g transform="translate(444.949483 689.66438) rotate(-30) scale(0.2 -0.2)">
       <use xlink:href="#DejaVuSans-4a"/>
       <use xlink:href="#DejaVuSans-61" x="29.492188"/>
       <use xlink:href="#DejaVuSans-6e" x="90.771484"/>
       <use xlink:href="#DejaVuSans-20" x="154.150391"/>
       <use xlink:href="#DejaVuSans-30" x="185.9375"/>
       <use xlink:href="#DejaVuSans-31" x="249.560547"/>
       <use xlink:href="#DejaVuSans-2c" x="313.183594"/>
       <use xlink:href="#DejaVuSans-20" x="344.970703"/>
       <use xlink:href="#DejaVuSans-32" x="376.757812"/>
       <use xlink:href="#DejaVuSans-32" x="440.380859"/>
      </g>
     </g>
    </g>
    <g id="xtick_6">
     <g id="line2d_11">
      <path d="M 638.735464 622.6035 
L 638.735464 35.0835 
" clip-path="url(#p274f4f015a)" style="fill: none; stroke: #a5a391; stroke-opacity: 0.3; stroke-width: 0.8; stroke-linecap: square"/>
     </g>
     <g id="line2d_12">
      <g>
       <use xlink:href="#mf8d8df2403" x="638.735464" y="622.6035" style="stroke: #000000; stroke-width: 0.8"/>
      </g>
     </g>
     <g id="text_6">
      <!-- Jul 01, 22 -->
      <g transform="translate(555.162786 686.31438) rotate(-30) scale(0.2 -0.2)">
       <use xlink:href="#DejaVuSans-4a"/>
       <use xlink:href="#DejaVuSans-75" x="29.492188"/>
       <use xlink:href="#DejaVuSans-6c" x="92.871094"/>
       <use xlink:href="#DejaVuSans-20" x="120.654297"/>
       <use xlink:href="#DejaVuSans-30" x="152.441406"/>
       <use xlink:href="#DejaVuSans-31" x="216.064453"/>
       <use xlink:href="#DejaVuSans-2c" x="279.6875"/>
       <use xlink:href="#DejaVuSans-20" x="311.474609"/>
       <use xlink:href="#DejaVuSans-32" x="343.261719"/>
       <use xlink:href="#DejaVuSans-32" x="406.884766"/>
      </g>
     </g>
    </g>
    <g id="xtick_7">
     <g id="line2d_13">
      <path d="M 744.876964 622.6035 
L 744.876964 35.0835 
" clip-path="url(#p274f4f015a)" style="fill: none; stroke: #a5a391; stroke-opacity: 0.3; stroke-width: 0.8; stroke-linecap: square"/>
     </g>
     <g id="line2d_14">
      <g>
       <use xlink:href="#mf8d8df2403" x="744.876964" y="622.6035" style="stroke: #000000; stroke-width: 0.8"/>
      </g>
     </g>
     <g id="text_7">
      <!-- Jan 01, 23 -->
      <g transform="translate(655.501916 689.66438) rotate(-30) scale(0.2 -0.2)">
       <defs>
        <path id="DejaVuSans-33" d="M 2597 2516 
Q 3050 2419 3304 2112 
Q 3559 1806 3559 1356 
Q 3559 666 3084 287 
Q 2609 -91 1734 -91 
Q 1441 -91 1130 -33 
Q 819 25 488 141 
L 488 750 
Q 750 597 1062 519 
Q 1375 441 1716 441 
Q 2309 441 2620 675 
Q 2931 909 2931 1356 
Q 2931 1769 2642 2001 
Q 2353 2234 1838 2234 
L 1294 2234 
L 1294 2753 
L 1863 2753 
Q 2328 2753 2575 2939 
Q 2822 3125 2822 3475 
Q 2822 3834 2567 4026 
Q 2313 4219 1838 4219 
Q 1578 4219 1281 4162 
Q 984 4106 628 3988 
L 628 4550 
Q 988 4650 1302 4700 
Q 1616 4750 1894 4750 
Q 2613 4750 3031 4423 
Q 3450 4097 3450 3541 
Q 3450 3153 3228 2886 
Q 3006 2619 2597 2516 
z
" transform="scale(0.015625)"/>
       </defs>
       <use xlink:href="#DejaVuSans-4a"/>
       <use xlink:href="#DejaVuSans-61" x="29.492188"/>
       <use xlink:href="#DejaVuSans-6e" x="90.771484"/>
       <use xlink:href="#DejaVuSans-20" x="154.150391"/>
       <use xlink:href="#DejaVuSans-30" x="185.9375"/>
       <use xlink:href="#DejaVuSans-31" x="249.560547"/>
       <use xlink:href="#DejaVuSans-2c" x="313.183594"/>
       <use xlink:href="#DejaVuSans-20" x="344.970703"/>
       <use xlink:href="#DejaVuSans-32" x="376.757812"/>
       <use xlink:href="#DejaVuSans-33" x="440.380859"/>
      </g>
     </g>
    </g>
    <g id="xtick_8">
     <g id="line2d_15">
      <path d="M 849.287896 622.6035 
L 849.287896 35.0835 
" clip-path="url(#p274f4f015a)" style="fill: none; stroke: #a5a391; stroke-opacity: 0.3; stroke-width: 0.8; stroke-linecap: square"/>
     </g>
     <g id="line2d_16">
      <g>
       <use xlink:href="#mf8d8df2403" x="849.287896" y="622.6035" style="stroke: #000000; stroke-width: 0.8"/>
      </g>
     </g>
     <g id="text_8">
      <!-- Jul 01, 23 -->
      <g transform="translate(765.715218 686.31438) rotate(-30) scale(0.2 -0.2)">
       <use xlink:href="#DejaVuSans-4a"/>
       <use xlink:href="#DejaVuSans-75" x="29.492188"/>
       <use xlink:href="#DejaVuSans-6c" x="92.871094"/>
       <use xlink:href="#DejaVuSans-20" x="120.654297"/>
       <use xlink:href="#DejaVuSans-30" x="152.441406"/>
       <use xlink:href="#DejaVuSans-31" x="216.064453"/>
       <use xlink:href="#DejaVuSans-2c" x="279.6875"/>
       <use xlink:href="#DejaVuSans-20" x="311.474609"/>
       <use xlink:href="#DejaVuSans-32" x="343.261719"/>
       <use xlink:href="#DejaVuSans-33" x="406.884766"/>
      </g>
     </g>
    </g>
    <g id="xtick_9">
     <g id="line2d_17">
      <path d="M 955.429397 622.6035 
L 955.429397 35.0835 
" clip-path="url(#p274f4f015a)" style="fill: none; stroke: #a5a391; stroke-opacity: 0.3; stroke-width: 0.8; stroke-linecap: square"/>
     </g>
     <g id="line2d_18">
      <g>
       <use xlink:href="#mf8d8df2403" x="955.429397" y="622.6035" style="stroke: #000000; stroke-width: 0.8"/>
      </g>
     </g>
     <g id="text_9">
      <!-- Jan 01, 24 -->
      <g transform="translate(866.054348 689.66438) rotate(-30) scale(0.2 -0.2)">
       <defs>
        <path id="DejaVuSans-34" d="M 2419 4116 
L 825 1625 
L 2419 1625 
L 2419 4116 
z
M 2253 4666 
L 3047 4666 
L 3047 1625 
L 3713 1625 
L 3713 1100 
L 3047 1100 
L 3047 0 
L 2419 0 
L 2419 1100 
L 313 1100 
L 313 1709 
L 2253 4666 
z
" transform="scale(0.015625)"/>
       </defs>
       <use xlink:href="#DejaVuSans-4a"/>
       <use xlink:href="#DejaVuSans-61" x="29.492188"/>
       <use xlink:href="#DejaVuSans-6e" x="90.771484"/>
       <use xlink:href="#DejaVuSans-20" x="154.150391"/>
       <use xlink:href="#DejaVuSans-30" x="185.9375"/>
       <use xlink:href="#DejaVuSans-31" x="249.560547"/>
       <use xlink:href="#DejaVuSans-2c" x="313.183594"/>
       <use xlink:href="#DejaVuSans-20" x="344.970703"/>
       <use xlink:href="#DejaVuSans-32" x="376.757812"/>
       <use xlink:href="#DejaVuSans-34" x="440.380859"/>
      </g>
     </g>
    </g>
   </g>
   <g id="matplotlib.axis_2">
    <g id="ytick_1">
     <g id="line2d_19">
      <path d="M 68.023 567.857007 
L 960.823 567.857007 
" clip-path="url(#p274f4f015a)" style="fill: none; stroke: #a5a391; stroke-opacity: 0.3; stroke-width: 0.8; stroke-linecap: square"/>
     </g>
     <g id="line2d_20">
      <defs>
       <path id="md95b606b53" d="M 0 0 
L 3.5 0 
" style="stroke: #000000; stroke-width: 0.8"/>
      </defs>
      <g>
       <use xlink:href="#md95b606b53" x="68.023" y="567.857007" style="stroke: #000000; stroke-width: 0.8"/>
      </g>
     </g>
     <g id="text_10">
      <!-- 68 -->
      <g transform="translate(39.073 575.455445) scale(0.2 -0.2)">
       <defs>
        <path id="DejaVuSans-36" d="M 2113 2584 
Q 1688 2584 1439 2293 
Q 1191 2003 1191 1497 
Q 1191 994 1439 701 
Q 1688 409 2113 409 
Q 2538 409 2786 701 
Q 3034 994 3034 1497 
Q 3034 2003 2786 2293 
Q 2538 2584 2113 2584 
z
M 3366 4563 
L 3366 3988 
Q 3128 4100 2886 4159 
Q 2644 4219 2406 4219 
Q 1781 4219 1451 3797 
Q 1122 3375 1075 2522 
Q 1259 2794 1537 2939 
Q 1816 3084 2150 3084 
Q 2853 3084 3261 2657 
Q 3669 2231 3669 1497 
Q 3669 778 3244 343 
Q 2819 -91 2113 -91 
Q 1303 -91 875 529 
Q 447 1150 447 2328 
Q 447 3434 972 4092 
Q 1497 4750 2381 4750 
Q 2619 4750 2861 4703 
Q 3103 4656 3366 4563 
z
" transform="scale(0.015625)"/>
        <path id="DejaVuSans-38" d="M 2034 2216 
Q 1584 2216 1326 1975 
Q 1069 1734 1069 1313 
Q 1069 891 1326 650 
Q 1584 409 2034 409 
Q 2484 409 2743 651 
Q 3003 894 3003 1313 
Q 3003 1734 2745 1975 
Q 2488 2216 2034 2216 
z
M 1403 2484 
Q 997 2584 770 2862 
Q 544 3141 544 3541 
Q 544 4100 942 4425 
Q 1341 4750 2034 4750 
Q 2731 4750 3128 4425 
Q 3525 4100 3525 3541 
Q 3525 3141 3298 2862 
Q 3072 2584 2669 2484 
Q 3125 2378 3379 2068 
Q 3634 1759 3634 1313 
Q 3634 634 3220 271 
Q 2806 -91 2034 -91 
Q 1263 -91 848 271 
Q 434 634 434 1313 
Q 434 1759 690 2068 
Q 947 2378 1403 2484 
z
M 1172 3481 
Q 1172 3119 1398 2916 
Q 1625 2713 2034 2713 
Q 2441 2713 2670 2916 
Q 2900 3119 2900 3481 
Q 2900 3844 2670 4047 
Q 2441 4250 2034 4250 
Q 1625 4250 1398 4047 
Q 1172 3844 1172 3481 
z
" transform="scale(0.015625)"/>
       </defs>
       <use xlink:href="#DejaVuSans-36"/>
       <use xlink:href="#DejaVuSans-38" x="63.623047"/>
      </g>
     </g>
    </g>
    <g id="ytick_2">
     <g id="line2d_21">
      <path d="M 68.023 484.483091 
L 960.823 484.483091 
" clip-path="url(#p274f4f015a)" style="fill: none; stroke: #a5a391; stroke-opacity: 0.3; stroke-width: 0.8; stroke-linecap: square"/>
     </g>
     <g id="line2d_22">
      <g>
       <use xlink:href="#md95b606b53" x="68.023" y="484.483091" style="stroke: #000000; stroke-width: 0.8"/>
      </g>
     </g>
     <g id="text_11">
      <!-- 70 -->
      <g transform="translate(39.073 492.081528) scale(0.2 -0.2)">
       <defs>
        <path id="DejaVuSans-37" d="M 525 4666 
L 3525 4666 
L 3525 4397 
L 1831 0 
L 1172 0 
L 2766 4134 
L 525 4134 
L 525 4666 
z
" transform="scale(0.015625)"/>
       </defs>
       <use xlink:href="#DejaVuSans-37"/>
       <use xlink:href="#DejaVuSans-30" x="63.623047"/>
      </g>
     </g>
    </g>
    <g id="ytick_3">
     <g id="line2d_23">
      <path d="M 68.023 401.109174 
L 960.823 401.109174 
" clip-path="url(#p274f4f015a)" style="fill: none; stroke: #a5a391; stroke-opacity: 0.3; stroke-width: 0.8; stroke-linecap: square"/>
     </g>
     <g id="line2d_24">
      <g>
       <use xlink:href="#md95b606b53" x="68.023" y="401.109174" style="stroke: #000000; stroke-width: 0.8"/>
      </g>
     </g>
     <g id="text_12">
      <!-- 72 -->
      <g transform="translate(39.073 408.707612) scale(0.2 -0.2)">
       <use xlink:href="#DejaVuSans-37"/>
       <use xlink:href="#DejaVuSans-32" x="63.623047"/>
      </g>
     </g>
    </g>
    <g id="ytick_4">
     <g id="line2d_25">
      <path d="M 68.023 317.735258 
L 960.823 317.735258 
" clip-path="url(#p274f4f015a)" style="fill: none; stroke: #a5a391; stroke-opacity: 0.3; stroke-width: 0.8; stroke-linecap: square"/>
     </g>
     <g id="line2d_26">
      <g>
       <use xlink:href="#md95b606b53" x="68.023" y="317.735258" style="stroke: #000000; stroke-width: 0.8"/>
      </g>
     </g>
     <g id="text_13">
      <!-- 74 -->
      <g transform="translate(39.073 325.333695) scale(0.2 -0.2)">
       <use xlink:href="#DejaVuSans-37"/>
       <use xlink:href="#DejaVuSans-34" x="63.623047"/>
      </g>
     </g>
    </g>
    <g id="ytick_5">
     <g id="line2d_27">
      <path d="M 68.023 234.361341 
L 960.823 234.361341 
" clip-path="url(#p274f4f015a)" style="fill: none; stroke: #a5a391; stroke-opacity: 0.3; stroke-width: 0.8; stroke-linecap: square"/>
     </g>
     <g id="line2d_28">
      <g>
       <use xlink:href="#md95b606b53" x="68.023" y="234.361341" style="stroke: #000000; stroke-width: 0.8"/>
      </g>
     </g>
     <g id="text_14">
      <!-- 76 -->
      <g transform="translate(39.073 241.959779) scale(0.2 -0.2)">
       <use xlink:href="#DejaVuSans-37"/>
       <use xlink:href="#DejaVuSans-36" x="63.623047"/>
      </g>
     </g>
    </g>
    <g id="ytick_6">
     <g id="line2d_29">
      <path d="M 68.023 150.987424 
L 960.823 150.987424 
" clip-path="url(#p274f4f015a)" style="fill: none; stroke: #a5a391; stroke-opacity: 0.3; stroke-width: 0.8; stroke-linecap: square"/>
     </g>
     <g id="line2d_30">
      <g>
       <use xlink:href="#md95b606b53" x="68.023" y="150.987424" style="stroke: #000000; stroke-width: 0.8"/>
      </g>
     </g>
     <g id="text_15">
      <!-- 78 -->
      <g transform="translate(39.073 158.585862) scale(0.2 -0.2)">
       <use xlink:href="#DejaVuSans-37"/>
       <use xlink:href="#DejaVuSans-38" x="63.623047"/>
      </g>
     </g>
    </g>
    <g id="ytick_7">
     <g id="line2d_31">
      <path d="M 68.023 67.613508 
L 960.823 67.613508 
" clip-path="url(#p274f4f015a)" style="fill: none; stroke: #a5a391; stroke-opacity: 0.3; stroke-width: 0.8; stroke-linecap: square"/>
     </g>
     <g id="line2d_32">
      <g>
       <use xlink:href="#md95b606b53" x="68.023" y="67.613508" style="stroke: #000000; stroke-width: 0.8"/>
      </g>
     </g>
     <g id="text_16">
      <!-- 80 -->
      <g transform="translate(39.073 75.211945) scale(0.2 -0.2)">
       <use xlink:href="#DejaVuSans-38"/>
       <use xlink:href="#DejaVuSans-30" x="63.623047"/>
      </g>
     </g>
    </g>
    <g id="text_17">
     <!-- Muscle Mass Percentage [%] -->
     <g transform="translate(29.0835 534.56775) rotate(-90) scale(0.288 -0.288)">
      <defs>
       <path id="DejaVuSans-4d" d="M 628 4666 
L 1569 4666 
L 2759 1491 
L 3956 4666 
L 4897 4666 
L 4897 0 
L 4281 0 
L 4281 4097 
L 3078 897 
L 2444 897 
L 1241 4097 
L 1241 0 
L 628 0 
L 628 4666 
z
" transform="scale(0.015625)"/>
       <path id="DejaVuSans-73" d="M 2834 3397 
L 2834 2853 
Q 2591 2978 2328 3040 
Q 2066 3103 1784 3103 
Q 1356 3103 1142 2972 
Q 928 2841 928 2578 
Q 928 2378 1081 2264 
Q 1234 2150 1697 2047 
L 1894 2003 
Q 2506 1872 2764 1633 
Q 3022 1394 3022 966 
Q 3022 478 2636 193 
Q 2250 -91 1575 -91 
Q 1294 -91 989 -36 
Q 684 19 347 128 
L 347 722 
Q 666 556 975 473 
Q 1284 391 1588 391 
Q 1994 391 2212 530 
Q 2431 669 2431 922 
Q 2431 1156 2273 1281 
Q 2116 1406 1581 1522 
L 1381 1569 
Q 847 1681 609 1914 
Q 372 2147 372 2553 
Q 372 3047 722 3315 
Q 1072 3584 1716 3584 
Q 2034 3584 2315 3537 
Q 2597 3491 2834 3397 
z
" transform="scale(0.015625)"/>
       <path id="DejaVuSans-63" d="M 3122 3366 
L 3122 2828 
Q 2878 2963 2633 3030 
Q 2388 3097 2138 3097 
Q 1578 3097 1268 2742 
Q 959 2388 959 1747 
Q 959 1106 1268 751 
Q 1578 397 2138 397 
Q 2388 397 2633 464 
Q 2878 531 3122 666 
L 3122 134 
Q 2881 22 2623 -34 
Q 2366 -91 2075 -91 
Q 1284 -91 818 406 
Q 353 903 353 1747 
Q 353 2603 823 3093 
Q 1294 3584 2113 3584 
Q 2378 3584 2631 3529 
Q 2884 3475 3122 3366 
z
" transform="scale(0.015625)"/>
       <path id="DejaVuSans-65" d="M 3597 1894 
L 3597 1613 
L 953 1613 
Q 991 1019 1311 708 
Q 1631 397 2203 397 
Q 2534 397 2845 478 
Q 3156 559 3463 722 
L 3463 178 
Q 3153 47 2828 -22 
Q 2503 -91 2169 -91 
Q 1331 -91 842 396 
Q 353 884 353 1716 
Q 353 2575 817 3079 
Q 1281 3584 2069 3584 
Q 2775 3584 3186 3129 
Q 3597 2675 3597 1894 
z
M 3022 2063 
Q 3016 2534 2758 2815 
Q 2500 3097 2075 3097 
Q 1594 3097 1305 2825 
Q 1016 2553 972 2059 
L 3022 2063 
z
" transform="scale(0.015625)"/>
       <path id="DejaVuSans-50" d="M 1259 4147 
L 1259 2394 
L 2053 2394 
Q 2494 2394 2734 2622 
Q 2975 2850 2975 3272 
Q 2975 3691 2734 3919 
Q 2494 4147 2053 4147 
L 1259 4147 
z
M 628 4666 
L 2053 4666 
Q 2838 4666 3239 4311 
Q 3641 3956 3641 3272 
Q 3641 2581 3239 2228 
Q 2838 1875 2053 1875 
L 1259 1875 
L 1259 0 
L 628 0 
L 628 4666 
z
" transform="scale(0.015625)"/>
       <path id="DejaVuSans-72" d="M 2631 2963 
Q 2534 3019 2420 3045 
Q 2306 3072 2169 3072 
Q 1681 3072 1420 2755 
Q 1159 2438 1159 1844 
L 1159 0 
L 581 0 
L 581 3500 
L 1159 3500 
L 1159 2956 
Q 1341 3275 1631 3429 
Q 1922 3584 2338 3584 
Q 2397 3584 2469 3576 
Q 2541 3569 2628 3553 
L 2631 2963 
z
" transform="scale(0.015625)"/>
       <path id="DejaVuSans-74" d="M 1172 4494 
L 1172 3500 
L 2356 3500 
L 2356 3053 
L 1172 3053 
L 1172 1153 
Q 1172 725 1289 603 
Q 1406 481 1766 481 
L 2356 481 
L 2356 0 
L 1766 0 
Q 1100 0 847 248 
Q 594 497 594 1153 
L 594 3053 
L 172 3053 
L 172 3500 
L 594 3500 
L 594 4494 
L 1172 4494 
z
" transform="scale(0.015625)"/>
       <path id="DejaVuSans-67" d="M 2906 1791 
Q 2906 2416 2648 2759 
Q 2391 3103 1925 3103 
Q 1463 3103 1205 2759 
Q 947 2416 947 1791 
Q 947 1169 1205 825 
Q 1463 481 1925 481 
Q 2391 481 2648 825 
Q 2906 1169 2906 1791 
z
M 3481 434 
Q 3481 -459 3084 -895 
Q 2688 -1331 1869 -1331 
Q 1566 -1331 1297 -1286 
Q 1028 -1241 775 -1147 
L 775 -588 
Q 1028 -725 1275 -790 
Q 1522 -856 1778 -856 
Q 2344 -856 2625 -561 
Q 2906 -266 2906 331 
L 2906 616 
Q 2728 306 2450 153 
Q 2172 0 1784 0 
Q 1141 0 747 490 
Q 353 981 353 1791 
Q 353 2603 747 3093 
Q 1141 3584 1784 3584 
Q 2172 3584 2450 3431 
Q 2728 3278 2906 2969 
L 2906 3500 
L 3481 3500 
L 3481 434 
z
" transform="scale(0.015625)"/>
       <path id="DejaVuSans-5b" d="M 550 4863 
L 1875 4863 
L 1875 4416 
L 1125 4416 
L 1125 -397 
L 1875 -397 
L 1875 -844 
L 550 -844 
L 550 4863 
z
" transform="scale(0.015625)"/>
       <path id="DejaVuSans-25" d="M 4653 2053 
Q 4381 2053 4226 1822 
Q 4072 1591 4072 1178 
Q 4072 772 4226 539 
Q 4381 306 4653 306 
Q 4919 306 5073 539 
Q 5228 772 5228 1178 
Q 5228 1588 5073 1820 
Q 4919 2053 4653 2053 
z
M 4653 2450 
Q 5147 2450 5437 2106 
Q 5728 1763 5728 1178 
Q 5728 594 5436 251 
Q 5144 -91 4653 -91 
Q 4153 -91 3862 251 
Q 3572 594 3572 1178 
Q 3572 1766 3864 2108 
Q 4156 2450 4653 2450 
z
M 1428 4353 
Q 1159 4353 1004 4120 
Q 850 3888 850 3481 
Q 850 3069 1003 2837 
Q 1156 2606 1428 2606 
Q 1700 2606 1854 2837 
Q 2009 3069 2009 3481 
Q 2009 3884 1853 4118 
Q 1697 4353 1428 4353 
z
M 4250 4750 
L 4750 4750 
L 1831 -91 
L 1331 -91 
L 4250 4750 
z
M 1428 4750 
Q 1922 4750 2215 4408 
Q 2509 4066 2509 3481 
Q 2509 2891 2217 2550 
Q 1925 2209 1428 2209 
Q 931 2209 642 2551 
Q 353 2894 353 3481 
Q 353 4063 643 4406 
Q 934 4750 1428 4750 
z
" transform="scale(0.015625)"/>
       <path id="DejaVuSans-5d" d="M 1947 4863 
L 1947 -844 
L 622 -844 
L 622 -397 
L 1369 -397 
L 1369 4416 
L 622 4416 
L 622 4863 
L 1947 4863 
z
" transform="scale(0.015625)"/>
      </defs>
      <use xlink:href="#DejaVuSans-4d"/>
      <use xlink:href="#DejaVuSans-75" x="86.279297"/>
      <use xlink:href="#DejaVuSans-73" x="149.658203"/>
      <use xlink:href="#DejaVuSans-63" x="201.757812"/>
      <use xlink:href="#DejaVuSans-6c" x="256.738281"/>
      <use xlink:href="#DejaVuSans-65" x="284.521484"/>
      <use xlink:href="#DejaVuSans-20" x="346.044922"/>
      <use xlink:href="#DejaVuSans-4d" x="377.832031"/>
      <use xlink:href="#DejaVuSans-61" x="464.111328"/>
      <use xlink:href="#DejaVuSans-73" x="525.390625"/>
      <use xlink:href="#DejaVuSans-73" x="577.490234"/>
      <use xlink:href="#DejaVuSans-20" x="629.589844"/>
      <use xlink:href="#DejaVuSans-50" x="661.376953"/>
      <use xlink:href="#DejaVuSans-65" x="718.054688"/>
      <use xlink:href="#DejaVuSans-72" x="779.578125"/>
      <use xlink:href="#DejaVuSans-63" x="818.441406"/>
      <use xlink:href="#DejaVuSans-65" x="873.421875"/>
      <use xlink:href="#DejaVuSans-6e" x="934.945312"/>
      <use xlink:href="#DejaVuSans-74" x="998.324219"/>
      <use xlink:href="#DejaVuSans-61" x="1037.533203"/>
      <use xlink:href="#DejaVuSans-67" x="1098.8125"/>
      <use xlink:href="#DejaVuSans-65" x="1162.289062"/>
      <use xlink:href="#DejaVuSans-20" x="1223.8125"/>
      <use xlink:href="#DejaVuSans-5b" x="1255.599609"/>
      <use xlink:href="#DejaVuSans-25" x="1294.613281"/>
      <use xlink:href="#DejaVuSans-5d" x="1389.632812"/>
     </g>
    </g>
   </g>
   <g id="line2d_33">
    <path d="M 108.604818 307.080774 
L 116.680802 478.200066 
L 120.718794 278.445601 
L 124.756786 301.200464 
L 128.794777 249.222343 
L 132.832769 334.022238 
L 136.870761 265.226001 
L 140.908753 254.501093 
L 144.946745 256.093016 
L 148.984737 260.504394 
L 153.022729 305.179183 
L 157.06072 325.382253 
L 161.098712 252.82049 
L 165.136704 241.8791 
L 169.174696 289.223585 
L 173.212688 248.879382 
L 177.25068 212.266157 
L 181.288672 190.403525 
L 185.326664 180.773315 
L 189.364655 197.550302 
L 193.402647 193.312442 
L 197.440639 225.737115 
L 201.478631 245.530489 
L 205.516623 229.93425 
L 209.554615 239.974469 
L 213.592607 228.11536 
L 217.630598 225.351771 
L 221.66859 208.973724 
L 225.706582 251.840109 
L 229.744574 267.104689 
L 233.782566 257.278458 
L 237.820558 242.732668 
L 241.85855 229.900216 
L 245.896541 254.56905 
L 249.934533 227.714661 
L 253.972525 274.806969 
L 258.010517 300.200328 
L 262.048509 270.585973 
L 266.086501 271.530112 
L 270.124493 237.769779 
L 274.162484 275.855187 
L 278.200476 291.48985 
L 282.238468 315.766326 
L 286.27646 279.42111 
L 290.314452 327.308015 
L 294.352444 352.14368 
L 298.390436 267.435291 
L 302.428427 295.362018 
L 306.466419 299.236273 
L 310.504411 362.478424 
L 314.542403 326.323036 
L 318.580395 322.411285 
L 322.618387 332.706159 
L 326.656379 308.727828 
L 330.69437 281.063776 
L 334.732362 304.857482 
L 338.770354 303.440014 
L 342.808346 283.05691 
L 346.846338 314.673093 
L 350.88433 326.140164 
L 354.922322 303.441682 
L 358.960313 304.666349 
L 362.998305 396.285696 
L 367.036297 375.978894 
L 371.074289 289.060687 
L 375.112281 329.82792 
L 379.150273 310.052566 
L 383.188265 349.813832 
L 387.226256 369.823406 
L 391.264248 335.328408 
L 395.30224 342.537391 
L 399.340232 311.603105 
L 403.378224 299.788025 
L 407.416216 310.057987 
L 411.454208 313.965085 
L 415.492199 309.26059 
L 419.530191 263.215707 
L 423.568183 297.561834 
L 427.606175 228.39908 
L 431.644167 205.434424 
L 439.720151 277.272946 
L 443.758142 272.989221 
L 447.796134 241.535935 
L 451.834126 289.39395 
L 472.024085 279.70505 
L 476.062077 279.716502 
L 480.100069 345.756803 
L 484.138061 288.001151 
L 488.176053 340.307908 
L 504.32802 319.215268 
L 508.366012 336.339355 
L 512.404004 287.070116 
L 540.669947 344.65736 
L 544.707939 373.334083 
L 548.745931 350.472827 
L 552.783923 331.14181 
L 556.821915 270.253459 
L 560.859906 284.827141 
L 564.897898 347.993448 
L 568.93589 327.277291 
L 572.973882 354.679388 
L 577.011874 298.81724 
L 581.049866 331.969829 
L 585.087858 338.986009 
L 601.239825 375.996207 
L 605.277817 381.551142 
L 609.315809 374.895764 
L 613.353801 328.780244 
L 617.391792 429.852012 
L 637.581752 399.158907 
L 681.999662 340.455754 
L 702.189621 361.021716 
L 706.227613 346.363651 
L 714.303597 408.643559 
L 726.417573 347.361523 
L 778.911467 418.16293 
L 912.165198 151.822648 
L 916.20319 142.602617 
L 920.241182 103.475913 
" clip-path="url(#p274f4f015a)" style="fill: none; stroke: #a52a2a; stroke-width: 1.5; stroke-linecap: square"/>
    <defs>
     <path id="mc3525228b1" d="M 0 -3 
L -0.673542 -0.927051 
L -2.85317 -0.927051 
L -1.089814 0.354102 
L -1.763356 2.427051 
L -0 1.145898 
L 1.763356 2.427051 
L 1.089814 0.354102 
L 2.85317 -0.927051 
L 0.673542 -0.927051 
z
" style="stroke: #a52a2a; stroke-linejoin: bevel"/>
    </defs>
    <g clip-path="url(#p274f4f015a)">
     <use xlink:href="#mc3525228b1" x="108.604818" y="307.080774" style="fill: #a52a2a; stroke: #a52a2a; stroke-linejoin: bevel"/>
     <use xlink:href="#mc3525228b1" x="116.680802" y="478.200066" style="fill: #a52a2a; stroke: #a52a2a; stroke-linejoin: bevel"/>
     <use xlink:href="#mc3525228b1" x="120.718794" y="278.445601" style="fill: #a52a2a; stroke: #a52a2a; stroke-linejoin: bevel"/>
     <use xlink:href="#mc3525228b1" x="124.756786" y="301.200464" style="fill: #a52a2a; stroke: #a52a2a; stroke-linejoin: bevel"/>
     <use xlink:href="#mc3525228b1" x="128.794777" y="249.222343" style="fill: #a52a2a; stroke: #a52a2a; stroke-linejoin: bevel"/>
     <use xlink:href="#mc3525228b1" x="132.832769" y="334.022238" style="fill: #a52a2a; stroke: #a52a2a; stroke-linejoin: bevel"/>
     <use xlink:href="#mc3525228b1" x="136.870761" y="265.226001" style="fill: #a52a2a; stroke: #a52a2a; stroke-linejoin: bevel"/>
     <use xlink:href="#mc3525228b1" x="140.908753" y="254.501093" style="fill: #a52a2a; stroke: #a52a2a; stroke-linejoin: bevel"/>
     <use xlink:href="#mc3525228b1" x="144.946745" y="256.093016" style="fill: #a52a2a; stroke: #a52a2a; stroke-linejoin: bevel"/>
     <use xlink:href="#mc3525228b1" x="148.984737" y="260.504394" style="fill: #a52a2a; stroke: #a52a2a; stroke-linejoin: bevel"/>
     <use xlink:href="#mc3525228b1" x="153.022729" y="305.179183" style="fill: #a52a2a; stroke: #a52a2a; stroke-linejoin: bevel"/>
     <use xlink:href="#mc3525228b1" x="157.06072" y="325.382253" style="fill: #a52a2a; stroke: #a52a2a; stroke-linejoin: bevel"/>
     <use xlink:href="#mc3525228b1" x="161.098712" y="252.82049" style="fill: #a52a2a; stroke: #a52a2a; stroke-linejoin: bevel"/>
     <use xlink:href="#mc3525228b1" x="165.136704" y="241.8791" style="fill: #a52a2a; stroke: #a52a2a; stroke-linejoin: bevel"/>
     <use xlink:href="#mc3525228b1" x="169.174696" y="289.223585" style="fill: #a52a2a; stroke: #a52a2a; stroke-linejoin: bevel"/>
     <use xlink:href="#mc3525228b1" x="173.212688" y="248.879382" style="fill: #a52a2a; stroke: #a52a2a; stroke-linejoin: bevel"/>
     <use xlink:href="#mc3525228b1" x="177.25068" y="212.266157" style="fill: #a52a2a; stroke: #a52a2a; stroke-linejoin: bevel"/>
     <use xlink:href="#mc3525228b1" x="181.288672" y="190.403525" style="fill: #a52a2a; stroke: #a52a2a; stroke-linejoin: bevel"/>
     <use xlink:href="#mc3525228b1" x="185.326664" y="180.773315" style="fill: #a52a2a; stroke: #a52a2a; stroke-linejoin: bevel"/>
     <use xlink:href="#mc3525228b1" x="189.364655" y="197.550302" style="fill: #a52a2a; stroke: #a52a2a; stroke-linejoin: bevel"/>
     <use xlink:href="#mc3525228b1" x="193.402647" y="193.312442" style="fill: #a52a2a; stroke: #a52a2a; stroke-linejoin: bevel"/>
     <use xlink:href="#mc3525228b1" x="197.440639" y="225.737115" style="fill: #a52a2a; stroke: #a52a2a; stroke-linejoin: bevel"/>
     <use xlink:href="#mc3525228b1" x="201.478631" y="245.530489" style="fill: #a52a2a; stroke: #a52a2a; stroke-linejoin: bevel"/>
     <use xlink:href="#mc3525228b1" x="205.516623" y="229.93425" style="fill: #a52a2a; stroke: #a52a2a; stroke-linejoin: bevel"/>
     <use xlink:href="#mc3525228b1" x="209.554615" y="239.974469" style="fill: #a52a2a; stroke: #a52a2a; stroke-linejoin: bevel"/>
     <use xlink:href="#mc3525228b1" x="213.592607" y="228.11536" style="fill: #a52a2a; stroke: #a52a2a; stroke-linejoin: bevel"/>
     <use xlink:href="#mc3525228b1" x="217.630598" y="225.351771" style="fill: #a52a2a; stroke: #a52a2a; stroke-linejoin: bevel"/>
     <use xlink:href="#mc3525228b1" x="221.66859" y="208.973724" style="fill: #a52a2a; stroke: #a52a2a; stroke-linejoin: bevel"/>
     <use xlink:href="#mc3525228b1" x="225.706582" y="251.840109" style="fill: #a52a2a; stroke: #a52a2a; stroke-linejoin: bevel"/>
     <use xlink:href="#mc3525228b1" x="229.744574" y="267.104689" style="fill: #a52a2a; stroke: #a52a2a; stroke-linejoin: bevel"/>
     <use xlink:href="#mc3525228b1" x="233.782566" y="257.278458" style="fill: #a52a2a; stroke: #a52a2a; stroke-linejoin: bevel"/>
     <use xlink:href="#mc3525228b1" x="237.820558" y="242.732668" style="fill: #a52a2a; stroke: #a52a2a; stroke-linejoin: bevel"/>
     <use xlink:href="#mc3525228b1" x="241.85855" y="229.900216" style="fill: #a52a2a; stroke: #a52a2a; stroke-linejoin: bevel"/>
     <use xlink:href="#mc3525228b1" x="245.896541" y="254.56905" style="fill: #a52a2a; stroke: #a52a2a; stroke-linejoin: bevel"/>
     <use xlink:href="#mc3525228b1" x="249.934533" y="227.714661" style="fill: #a52a2a; stroke: #a52a2a; stroke-linejoin: bevel"/>
     <use xlink:href="#mc3525228b1" x="253.972525" y="274.806969" style="fill: #a52a2a; stroke: #a52a2a; stroke-linejoin: bevel"/>
     <use xlink:href="#mc3525228b1" x="258.010517" y="300.200328" style="fill: #a52a2a; stroke: #a52a2a; stroke-linejoin: bevel"/>
     <use xlink:href="#mc3525228b1" x="262.048509" y="270.585973" style="fill: #a52a2a; stroke: #a52a2a; stroke-linejoin: bevel"/>
     <use xlink:href="#mc3525228b1" x="266.086501" y="271.530112" style="fill: #a52a2a; stroke: #a52a2a; stroke-linejoin: bevel"/>
     <use xlink:href="#mc3525228b1" x="270.124493" y="237.769779" style="fill: #a52a2a; stroke: #a52a2a; stroke-linejoin: bevel"/>
     <use xlink:href="#mc3525228b1" x="274.162484" y="275.855187" style="fill: #a52a2a; stroke: #a52a2a; stroke-linejoin: bevel"/>
     <use xlink:href="#mc3525228b1" x="278.200476" y="291.48985" style="fill: #a52a2a; stroke: #a52a2a; stroke-linejoin: bevel"/>
     <use xlink:href="#mc3525228b1" x="282.238468" y="315.766326" style="fill: #a52a2a; stroke: #a52a2a; stroke-linejoin: bevel"/>
     <use xlink:href="#mc3525228b1" x="286.27646" y="279.42111" style="fill: #a52a2a; stroke: #a52a2a; stroke-linejoin: bevel"/>
     <use xlink:href="#mc3525228b1" x="290.314452" y="327.308015" style="fill: #a52a2a; stroke: #a52a2a; stroke-linejoin: bevel"/>
     <use xlink:href="#mc3525228b1" x="294.352444" y="352.14368" style="fill: #a52a2a; stroke: #a52a2a; stroke-linejoin: bevel"/>
     <use xlink:href="#mc3525228b1" x="298.390436" y="267.435291" style="fill: #a52a2a; stroke: #a52a2a; stroke-linejoin: bevel"/>
     <use xlink:href="#mc3525228b1" x="302.428427" y="295.362018" style="fill: #a52a2a; stroke: #a52a2a; stroke-linejoin: bevel"/>
     <use xlink:href="#mc3525228b1" x="306.466419" y="299.236273" style="fill: #a52a2a; stroke: #a52a2a; stroke-linejoin: bevel"/>
     <use xlink:href="#mc3525228b1" x="310.504411" y="362.478424" style="fill: #a52a2a; stroke: #a52a2a; stroke-linejoin: bevel"/>
     <use xlink:href="#mc3525228b1" x="314.542403" y="326.323036" style="fill: #a52a2a; stroke: #a52a2a; stroke-linejoin: bevel"/>
     <use xlink:href="#mc3525228b1" x="318.580395" y="322.411285" style="fill: #a52a2a; stroke: #a52a2a; stroke-linejoin: bevel"/>
     <use xlink:href="#mc3525228b1" x="322.618387" y="332.706159" style="fill: #a52a2a; stroke: #a52a2a; stroke-linejoin: bevel"/>
     <use xlink:href="#mc3525228b1" x="326.656379" y="308.727828" style="fill: #a52a2a; stroke: #a52a2a; stroke-linejoin: bevel"/>
     <use xlink:href="#mc3525228b1" x="330.69437" y="281.063776" style="fill: #a52a2a; stroke: #a52a2a; stroke-linejoin: bevel"/>
     <use xlink:href="#mc3525228b1" x="334.732362" y="304.857482" style="fill: #a52a2a; stroke: #a52a2a; stroke-linejoin: bevel"/>
     <use xlink:href="#mc3525228b1" x="338.770354" y="303.440014" style="fill: #a52a2a; stroke: #a52a2a; stroke-linejoin: bevel"/>
     <use xlink:href="#mc3525228b1" x="342.808346" y="283.05691" style="fill: #a52a2a; stroke: #a52a2a; stroke-linejoin: bevel"/>
     <use xlink:href="#mc3525228b1" x="346.846338" y="314.673093" style="fill: #a52a2a; stroke: #a52a2a; stroke-linejoin: bevel"/>
     <use xlink:href="#mc3525228b1" x="350.88433" y="326.140164" style="fill: #a52a2a; stroke: #a52a2a; stroke-linejoin: bevel"/>
     <use xlink:href="#mc3525228b1" x="354.922322" y="303.441682" style="fill: #a52a2a; stroke: #a52a2a; stroke-linejoin: bevel"/>
     <use xlink:href="#mc3525228b1" x="358.960313" y="304.666349" style="fill: #a52a2a; stroke: #a52a2a; stroke-linejoin: bevel"/>
     <use xlink:href="#mc3525228b1" x="362.998305" y="396.285696" style="fill: #a52a2a; stroke: #a52a2a; stroke-linejoin: bevel"/>
     <use xlink:href="#mc3525228b1" x="367.036297" y="375.978894" style="fill: #a52a2a; stroke: #a52a2a; stroke-linejoin: bevel"/>
     <use xlink:href="#mc3525228b1" x="371.074289" y="289.060687" style="fill: #a52a2a; stroke: #a52a2a; stroke-linejoin: bevel"/>
     <use xlink:href="#mc3525228b1" x="375.112281" y="329.82792" style="fill: #a52a2a; stroke: #a52a2a; stroke-linejoin: bevel"/>
     <use xlink:href="#mc3525228b1" x="379.150273" y="310.052566" style="fill: #a52a2a; stroke: #a52a2a; stroke-linejoin: bevel"/>
     <use xlink:href="#mc3525228b1" x="383.188265" y="349.813832" style="fill: #a52a2a; stroke: #a52a2a; stroke-linejoin: bevel"/>
     <use xlink:href="#mc3525228b1" x="387.226256" y="369.823406" style="fill: #a52a2a; stroke: #a52a2a; stroke-linejoin: bevel"/>
     <use xlink:href="#mc3525228b1" x="391.264248" y="335.328408" style="fill: #a52a2a; stroke: #a52a2a; stroke-linejoin: bevel"/>
     <use xlink:href="#mc3525228b1" x="395.30224" y="342.537391" style="fill: #a52a2a; stroke: #a52a2a; stroke-linejoin: bevel"/>
     <use xlink:href="#mc3525228b1" x="399.340232" y="311.603105" style="fill: #a52a2a; stroke: #a52a2a; stroke-linejoin: bevel"/>
     <use xlink:href="#mc3525228b1" x="403.378224" y="299.788025" style="fill: #a52a2a; stroke: #a52a2a; stroke-linejoin: bevel"/>
     <use xlink:href="#mc3525228b1" x="407.416216" y="310.057987" style="fill: #a52a2a; stroke: #a52a2a; stroke-linejoin: bevel"/>
     <use xlink:href="#mc3525228b1" x="411.454208" y="313.965085" style="fill: #a52a2a; stroke: #a52a2a; stroke-linejoin: bevel"/>
     <use xlink:href="#mc3525228b1" x="415.492199" y="309.26059" style="fill: #a52a2a; stroke: #a52a2a; stroke-linejoin: bevel"/>
     <use xlink:href="#mc3525228b1" x="419.530191" y="263.215707" style="fill: #a52a2a; stroke: #a52a2a; stroke-linejoin: bevel"/>
     <use xlink:href="#mc3525228b1" x="423.568183" y="297.561834" style="fill: #a52a2a; stroke: #a52a2a; stroke-linejoin: bevel"/>
     <use xlink:href="#mc3525228b1" x="427.606175" y="228.39908" style="fill: #a52a2a; stroke: #a52a2a; stroke-linejoin: bevel"/>
     <use xlink:href="#mc3525228b1" x="431.644167" y="205.434424" style="fill: #a52a2a; stroke: #a52a2a; stroke-linejoin: bevel"/>
     <use xlink:href="#mc3525228b1" x="439.720151" y="277.272946" style="fill: #a52a2a; stroke: #a52a2a; stroke-linejoin: bevel"/>
     <use xlink:href="#mc3525228b1" x="443.758142" y="272.989221" style="fill: #a52a2a; stroke: #a52a2a; stroke-linejoin: bevel"/>
     <use xlink:href="#mc3525228b1" x="447.796134" y="241.535935" style="fill: #a52a2a; stroke: #a52a2a; stroke-linejoin: bevel"/>
     <use xlink:href="#mc3525228b1" x="451.834126" y="289.39395" style="fill: #a52a2a; stroke: #a52a2a; stroke-linejoin: bevel"/>
     <use xlink:href="#mc3525228b1" x="472.024085" y="279.70505" style="fill: #a52a2a; stroke: #a52a2a; stroke-linejoin: bevel"/>
     <use xlink:href="#mc3525228b1" x="476.062077" y="279.716502" style="fill: #a52a2a; stroke: #a52a2a; stroke-linejoin: bevel"/>
     <use xlink:href="#mc3525228b1" x="480.100069" y="345.756803" style="fill: #a52a2a; stroke: #a52a2a; stroke-linejoin: bevel"/>
     <use xlink:href="#mc3525228b1" x="484.138061" y="288.001151" style="fill: #a52a2a; stroke: #a52a2a; stroke-linejoin: bevel"/>
     <use xlink:href="#mc3525228b1" x="488.176053" y="340.307908" style="fill: #a52a2a; stroke: #a52a2a; stroke-linejoin: bevel"/>
     <use xlink:href="#mc3525228b1" x="504.32802" y="319.215268" style="fill: #a52a2a; stroke: #a52a2a; stroke-linejoin: bevel"/>
     <use xlink:href="#mc3525228b1" x="508.366012" y="336.339355" style="fill: #a52a2a; stroke: #a52a2a; stroke-linejoin: bevel"/>
     <use xlink:href="#mc3525228b1" x="512.404004" y="287.070116" style="fill: #a52a2a; stroke: #a52a2a; stroke-linejoin: bevel"/>
     <use xlink:href="#mc3525228b1" x="540.669947" y="344.65736" style="fill: #a52a2a; stroke: #a52a2a; stroke-linejoin: bevel"/>
     <use xlink:href="#mc3525228b1" x="544.707939" y="373.334083" style="fill: #a52a2a; stroke: #a52a2a; stroke-linejoin: bevel"/>
     <use xlink:href="#mc3525228b1" x="548.745931" y="350.472827" style="fill: #a52a2a; stroke: #a52a2a; stroke-linejoin: bevel"/>
     <use xlink:href="#mc3525228b1" x="552.783923" y="331.14181" style="fill: #a52a2a; stroke: #a52a2a; stroke-linejoin: bevel"/>
     <use xlink:href="#mc3525228b1" x="556.821915" y="270.253459" style="fill: #a52a2a; stroke: #a52a2a; stroke-linejoin: bevel"/>
     <use xlink:href="#mc3525228b1" x="560.859906" y="284.827141" style="fill: #a52a2a; stroke: #a52a2a; stroke-linejoin: bevel"/>
     <use xlink:href="#mc3525228b1" x="564.897898" y="347.993448" style="fill: #a52a2a; stroke: #a52a2a; stroke-linejoin: bevel"/>
     <use xlink:href="#mc3525228b1" x="568.93589" y="327.277291" style="fill: #a52a2a; stroke: #a52a2a; stroke-linejoin: bevel"/>
     <use xlink:href="#mc3525228b1" x="572.973882" y="354.679388" style="fill: #a52a2a; stroke: #a52a2a; stroke-linejoin: bevel"/>
     <use xlink:href="#mc3525228b1" x="577.011874" y="298.81724" style="fill: #a52a2a; stroke: #a52a2a; stroke-linejoin: bevel"/>
     <use xlink:href="#mc3525228b1" x="581.049866" y="331.969829" style="fill: #a52a2a; stroke: #a52a2a; stroke-linejoin: bevel"/>
     <use xlink:href="#mc3525228b1" x="585.087858" y="338.986009" style="fill: #a52a2a; stroke: #a52a2a; stroke-linejoin: bevel"/>
     <use xlink:href="#mc3525228b1" x="601.239825" y="375.996207" style="fill: #a52a2a; stroke: #a52a2a; stroke-linejoin: bevel"/>
     <use xlink:href="#mc3525228b1" x="605.277817" y="381.551142" style="fill: #a52a2a; stroke: #a52a2a; stroke-linejoin: bevel"/>
     <use xlink:href="#mc3525228b1" x="609.315809" y="374.895764" style="fill: #a52a2a; stroke: #a52a2a; stroke-linejoin: bevel"/>
     <use xlink:href="#mc3525228b1" x="613.353801" y="328.780244" style="fill: #a52a2a; stroke: #a52a2a; stroke-linejoin: bevel"/>
     <use xlink:href="#mc3525228b1" x="617.391792" y="429.852012" style="fill: #a52a2a; stroke: #a52a2a; stroke-linejoin: bevel"/>
     <use xlink:href="#mc3525228b1" x="637.581752" y="399.158907" style="fill: #a52a2a; stroke: #a52a2a; stroke-linejoin: bevel"/>
     <use xlink:href="#mc3525228b1" x="681.999662" y="340.455754" style="fill: #a52a2a; stroke: #a52a2a; stroke-linejoin: bevel"/>
     <use xlink:href="#mc3525228b1" x="702.189621" y="361.021716" style="fill: #a52a2a; stroke: #a52a2a; stroke-linejoin: bevel"/>
     <use xlink:href="#mc3525228b1" x="706.227613" y="346.363651" style="fill: #a52a2a; stroke: #a52a2a; stroke-linejoin: bevel"/>
     <use xlink:href="#mc3525228b1" x="714.303597" y="408.643559" style="fill: #a52a2a; stroke: #a52a2a; stroke-linejoin: bevel"/>
     <use xlink:href="#mc3525228b1" x="726.417573" y="347.361523" style="fill: #a52a2a; stroke: #a52a2a; stroke-linejoin: bevel"/>
     <use xlink:href="#mc3525228b1" x="778.911467" y="418.16293" style="fill: #a52a2a; stroke: #a52a2a; stroke-linejoin: bevel"/>
     <use xlink:href="#mc3525228b1" x="912.165198" y="151.822648" style="fill: #a52a2a; stroke: #a52a2a; stroke-linejoin: bevel"/>
     <use xlink:href="#mc3525228b1" x="916.20319" y="142.602617" style="fill: #a52a2a; stroke: #a52a2a; stroke-linejoin: bevel"/>
     <use xlink:href="#mc3525228b1" x="920.241182" y="103.475913" style="fill: #a52a2a; stroke: #a52a2a; stroke-linejoin: bevel"/>
    </g>
   </g>
   <g id="patch_3">
    <path d="M 68.023 622.6035 
L 68.023 35.0835 
" style="fill: none; stroke: #000000; stroke-width: 0.8; stroke-linejoin: miter; stroke-linecap: square"/>
   </g>
   <g id="patch_4">
    <path d="M 960.823 622.6035 
L 960.823 35.0835 
" style="fill: none; stroke: #000000; stroke-width: 0.8; stroke-linejoin: miter; stroke-linecap: square"/>
   </g>
   <g id="patch_5">
    <path d="M 68.023 622.6035 
L 960.823 622.6035 
" style="fill: none; stroke: #000000; stroke-width: 0.8; stroke-linejoin: miter; stroke-linecap: square"/>
   </g>
   <g id="patch_6">
    <path d="M 68.023 35.0835 
L 960.823 35.0835 
" style="fill: none; stroke: #000000; stroke-width: 0.8; stroke-linejoin: miter; stroke-linecap: square"/>
   </g>
   <g id="text_18">
    <!-- Body Muscle Mass Percentage -->
    <g transform="translate(297.262 29.0835) scale(0.288 -0.288)">
     <defs>
      <path id="DejaVuSans-42" d="M 1259 2228 
L 1259 519 
L 2272 519 
Q 2781 519 3026 730 
Q 3272 941 3272 1375 
Q 3272 1813 3026 2020 
Q 2781 2228 2272 2228 
L 1259 2228 
z
M 1259 4147 
L 1259 2741 
L 2194 2741 
Q 2656 2741 2882 2914 
Q 3109 3088 3109 3444 
Q 3109 3797 2882 3972 
Q 2656 4147 2194 4147 
L 1259 4147 
z
M 628 4666 
L 2241 4666 
Q 2963 4666 3353 4366 
Q 3744 4066 3744 3513 
Q 3744 3084 3544 2831 
Q 3344 2578 2956 2516 
Q 3422 2416 3680 2098 
Q 3938 1781 3938 1306 
Q 3938 681 3513 340 
Q 3088 0 2303 0 
L 628 0 
L 628 4666 
z
" transform="scale(0.015625)"/>
      <path id="DejaVuSans-6f" d="M 1959 3097 
Q 1497 3097 1228 2736 
Q 959 2375 959 1747 
Q 959 1119 1226 758 
Q 1494 397 1959 397 
Q 2419 397 2687 759 
Q 2956 1122 2956 1747 
Q 2956 2369 2687 2733 
Q 2419 3097 1959 3097 
z
M 1959 3584 
Q 2709 3584 3137 3096 
Q 3566 2609 3566 1747 
Q 3566 888 3137 398 
Q 2709 -91 1959 -91 
Q 1206 -91 779 398 
Q 353 888 353 1747 
Q 353 2609 779 3096 
Q 1206 3584 1959 3584 
z
" transform="scale(0.015625)"/>
      <path id="DejaVuSans-64" d="M 2906 2969 
L 2906 4863 
L 3481 4863 
L 3481 0 
L 2906 0 
L 2906 525 
Q 2725 213 2448 61 
Q 2172 -91 1784 -91 
Q 1150 -91 751 415 
Q 353 922 353 1747 
Q 353 2572 751 3078 
Q 1150 3584 1784 3584 
Q 2172 3584 2448 3432 
Q 2725 3281 2906 2969 
z
M 947 1747 
Q 947 1113 1208 752 
Q 1469 391 1925 391 
Q 2381 391 2643 752 
Q 2906 1113 2906 1747 
Q 2906 2381 2643 2742 
Q 2381 3103 1925 3103 
Q 1469 3103 1208 2742 
Q 947 2381 947 1747 
z
" transform="scale(0.015625)"/>
      <path id="DejaVuSans-79" d="M 2059 -325 
Q 1816 -950 1584 -1140 
Q 1353 -1331 966 -1331 
L 506 -1331 
L 506 -850 
L 844 -850 
Q 1081 -850 1212 -737 
Q 1344 -625 1503 -206 
L 1606 56 
L 191 3500 
L 800 3500 
L 1894 763 
L 2988 3500 
L 3597 3500 
L 2059 -325 
z
" transform="scale(0.015625)"/>
     </defs>
     <use xlink:href="#DejaVuSans-42"/>
     <use xlink:href="#DejaVuSans-6f" x="68.603516"/>
     <use xlink:href="#DejaVuSans-64" x="129.785156"/>
     <use xlink:href="#DejaVuSans-79" x="193.261719"/>
     <use xlink:href="#DejaVuSans-20" x="252.441406"/>
     <use xlink:href="#DejaVuSans-4d" x="284.228516"/>
     <use xlink:href="#DejaVuSans-75" x="370.507812"/>
     <use xlink:href="#DejaVuSans-73" x="433.886719"/>
     <use xlink:href="#DejaVuSans-63" x="485.986328"/>
     <use xlink:href="#DejaVuSans-6c" x="540.966797"/>
     <use xlink:href="#DejaVuSans-65" x="568.75"/>
     <use xlink:href="#DejaVuSans-20" x="630.273438"/>
     <use xlink:href="#DejaVuSans-4d" x="662.060547"/>
     <use xlink:href="#DejaVuSans-61" x="748.339844"/>
     <use xlink:href="#DejaVuSans-73" x="809.619141"/>
     <use xlink:href="#DejaVuSans-73" x="861.71875"/>
     <use xlink:href="#DejaVuSans-20" x="913.818359"/>
     <use xlink:href="#DejaVuSans-50" x="945.605469"/>
     <use xlink:href="#DejaVuSans-65" x="1002.283203"/>
     <use xlink:href="#DejaVuSans-72" x="1063.806641"/>
     <use xlink:href="#DejaVuSans-63" x="1102.669922"/>
     <use xlink:href="#DejaVuSans-65" x="1157.650391"/>
     <use xlink:href="#DejaVuSans-6e" x="1219.173828"/>
     <use xlink:href="#DejaVuSans-74" x="1282.552734"/>
     <use xlink:href="#DejaVuSans-61" x="1321.761719"/>
     <use xlink:href="#DejaVuSans-67" x="1383.041016"/>
     <use xlink:href="#DejaVuSans-65" x="1446.517578"/>
    </g>
   </g>
  </g>
 </g>
 <defs>
  <clipPath id="p274f4f015a">
   <rect x="68.023" y="35.0835" width="892.8" height="587.52"/>
  </clipPath>
 </defs>
</svg>
