<?xml version="1.0" encoding="utf-8" standalone="no"?>
<!DOCTYPE svg PUBLIC "-//W3C//DTD SVG 1.1//EN"
  "http://www.w3.org/Graphics/SVG/1.1/DTD/svg11.dtd">
<svg xmlns:xlink="http://www.w3.org/1999/xlink" width="980.748pt" height="700.466504pt" viewBox="0 0 980.748 700.466504" xmlns="http://www.w3.org/2000/svg" version="1.1">
 <metadata>
  <rdf:RDF xmlns:dc="http://purl.org/dc/elements/1.1/" xmlns:cc="http://creativecommons.org/ns#" xmlns:rdf="http://www.w3.org/1999/02/22-rdf-syntax-ns#">
   <cc:Work>
    <dc:type rdf:resource="http://purl.org/dc/dcmitype/StillImage"/>
    <dc:date>2023-10-25T19:13:53.425373</dc:date>
    <dc:format>image/svg+xml</dc:format>
    <dc:creator>
     <cc:Agent>
      <dc:title>Matplotlib v3.8.0, https://matplotlib.org/</dc:title>
     </cc:Agent>
    </dc:creator>
   </cc:Work>
  </rdf:RDF>
 </metadata>
 <defs>
  <style type="text/css">*{stroke-linejoin: round; stroke-linecap: butt}</style>
 </defs>
 <g id="figure_1">
  <g id="patch_1">
   <path d="M 0 700.466504 
L 980.748 700.466504 
L 980.748 0 
L 0 0 
z
" style="fill: #ffffff"/>
  </g>
  <g id="axes_1">
   <g id="patch_2">
    <path d="M 80.748 622.6035 
L 973.548 622.6035 
L 973.548 35.0835 
L 80.748 35.0835 
z
" style="fill: #ffffff"/>
   </g>
   <g id="PolyCollection_1">
    <defs>
     <path id="m0ce61a3e27" d="M 121.329818 -345.44982 
L 121.329818 -292.258556 
L 129.446182 -104.568459 
L 133.504364 -302.197863 
L 137.562545 -318.18473 
L 141.620727 -356.365305 
L 145.678909 -280.906081 
L 149.737091 -316.374495 
L 153.795273 -315.241912 
L 157.853455 -319.071208 
L 161.911636 -364.155141 
L 165.969818 -314.022365 
L 170.028 -278.652331 
L 174.086182 -357.180185 
L 178.144364 -344.376532 
L 182.202545 -303.682524 
L 186.260727 -328.918938 
L 190.318909 -342.722698 
L 194.377091 -365.26351 
L 198.435273 -387.041081 
L 202.493455 -373.479764 
L 206.551636 -371.182624 
L 210.609818 -350.447716 
L 214.668 -326.487474 
L 218.726182 -323.96735 
L 222.784364 -335.181213 
L 226.842545 -331.973359 
L 230.900727 -357.181875 
L 234.958909 -403.502539 
L 239.017091 -359.004946 
L 243.075273 -336.424079 
L 247.133455 -369.273621 
L 251.191636 -389.868926 
L 255.249818 -386.38808 
L 259.308 -414.933476 
L 263.366182 -439.442903 
L 267.424364 -418.469669 
L 271.482545 -387.257733 
L 275.540727 -410.306571 
L 279.598909 -419.476034 
L 283.657091 -437.82486 
L 287.715273 -409.276888 
L 291.773455 -383.53567 
L 295.831636 -380.861574 
L 299.889818 -430.830252 
L 303.948 -373.552236 
L 308.006182 -361.857356 
L 312.064364 -424.03989 
L 316.122545 -445.432963 
L 320.180727 -464.220946 
L 324.238909 -420.350871 
L 328.297091 -441.154349 
L 332.355273 -410.192602 
L 336.413455 -454.836576 
L 340.471636 -480.928124 
L 344.529818 -488.452384 
L 348.588 -469.393206 
L 352.646182 -461.541343 
L 356.704364 -497.632063 
L 360.762545 -468.249618 
L 364.820727 -456.889311 
L 368.878909 -462.684211 
L 372.937091 -466.826037 
L 376.995273 -403.502539 
L 381.053455 -431.456155 
L 385.111636 -495.920617 
L 389.169818 -468.751759 
L 393.228 -482.886465 
L 397.286182 -417.08259 
L 401.344364 -430.02995 
L 405.402545 -437.160975 
L 409.460727 -430.809195 
L 413.518909 -454.837774 
L 417.577091 -480.517604 
L 421.635273 -445.447754 
L 425.693455 -452.563988 
L 429.751636 -462.558721 
L 433.809818 -472.896723 
L 437.868 -459.124531 
L 441.926182 -466.826037 
L 445.984364 -493.421669 
L 454.100727 -427.462781 
L 458.158909 -414.105794 
L 462.217091 -450.494658 
L 466.275273 -439.442903 
L 486.566182 -436.020011 
L 490.624364 -430.885673 
L 494.682545 -359.281001 
L 498.740727 -428.603745 
L 502.798909 -384.676634 
L 519.031636 -382.965188 
L 523.089818 -376.119405 
L 527.148 -420.616998 
L 555.555273 -380.338359 
L 559.613455 -375.263682 
L 563.671636 -373.837477 
L 567.729818 -372.582159 
L 571.788 -435.164288 
L 575.846182 -370.985067 
L 579.904364 -364.139283 
L 583.962545 -376.119405 
L 588.020727 -333.333257 
L 592.078909 -346.849882 
L 596.137091 -311.084461 
L 600.195273 -312.225425 
L 616.428 -332.477534 
L 620.486182 -333.903739 
L 624.544364 -332.762775 
L 628.602545 -381.208754 
L 632.660727 -311.084461 
L 652.951636 -352.159162 
L 697.591636 -379.542297 
L 717.882545 -326.487474 
L 721.940727 -326.487474 
L 730.057091 -311.084461 
L 742.231636 -333.333257 
L 794.988 -292.258556 
L 928.908 -585.486286 
L 932.966182 -545.833704 
L 932.966182 -622.422899 
L 932.966182 -622.422899 
L 928.908 -638.67755 
L 794.988 -345.44982 
L 742.231636 -386.524522 
L 730.057091 -364.275725 
L 721.940727 -379.678738 
L 717.882545 -379.678738 
L 697.591636 -432.733561 
L 652.951636 -405.350426 
L 632.660727 -364.275725 
L 628.602545 -423.365596 
L 624.544364 -385.95404 
L 620.486182 -387.095003 
L 616.428 -385.668799 
L 600.195273 -365.416689 
L 596.137091 -364.275725 
L 592.078909 -470.560313 
L 588.020727 -386.524522 
L 583.962545 -429.310669 
L 579.904364 -417.330548 
L 575.846182 -424.176331 
L 571.788 -488.355552 
L 567.729818 -414.877732 
L 563.671636 -427.028741 
L 559.613455 -428.454946 
L 555.555273 -414.823039 
L 527.148 -473.808262 
L 523.089818 -429.310669 
L 519.031636 -436.156452 
L 502.798909 -437.867898 
L 498.740727 -481.79501 
L 494.682545 -441.870458 
L 490.624364 -484.076937 
L 486.566182 -489.211275 
L 466.275273 -492.634167 
L 462.217091 -508.395064 
L 458.158909 -481.688623 
L 454.100727 -480.654046 
L 445.984364 -524.227695 
L 441.926182 -520.017301 
L 437.868 -512.315795 
L 433.809818 -525.356254 
L 429.751636 -488.344253 
L 425.693455 -505.755252 
L 421.635273 -500.320883 
L 417.577091 -533.708868 
L 413.518909 -526.300745 
L 409.460727 -514.959442 
L 405.402545 -490.352239 
L 401.344364 -483.221214 
L 397.286182 -541.521891 
L 393.228 -542.586652 
L 389.169818 -520.145314 
L 385.111636 -549.111881 
L 381.053455 -484.647419 
L 376.995273 -456.693803 
L 372.937091 -520.017301 
L 368.878909 -505.333223 
L 364.820727 -487.16788 
L 360.762545 -500.110104 
L 356.704364 -550.823327 
L 352.646182 -543.101033 
L 348.588 -522.58447 
L 344.529818 -569.130717 
L 340.471636 -542.10007 
L 336.413455 -512.610375 
L 332.355273 -497.068502 
L 328.297091 -494.345613 
L 324.238909 -453.537038 
L 320.180727 -478.124799 
L 316.122545 -498.624227 
L 312.064364 -477.231154 
L 308.006182 -415.04862 
L 303.948 -426.7435 
L 299.889818 -457.604947 
L 295.831636 -420.289885 
L 291.773455 -436.726934 
L 287.715273 -471.456805 
L 283.657091 -481.416365 
L 279.598909 -472.667298 
L 275.540727 -486.857003 
L 271.482545 -459.247042 
L 267.424364 -454.562517 
L 263.366182 -492.634167 
L 259.308 -443.209131 
L 255.249818 -439.579344 
L 251.191636 -432.675606 
L 247.133455 -422.464885 
L 243.075273 -404.655629 
L 239.017091 -412.19621 
L 234.958909 -456.693803 
L 230.900727 -437.979523 
L 226.842545 -416.979 
L 222.784364 -394.089519 
L 218.726182 -410.437719 
L 214.668 -379.678738 
L 210.609818 -403.63898 
L 206.551636 -388.038411 
L 202.493455 -384.029825 
L 198.435273 -392.717305 
L 194.377091 -398.407284 
L 190.318909 -410.223035 
L 186.260727 -388.371672 
L 182.202545 -358.841817 
L 178.144364 -399.441489 
L 174.086182 -375.513438 
L 170.028 -321.404236 
L 165.969818 -372.975652 
L 161.911636 -403.052641 
L 157.853455 -372.262472 
L 153.795273 -361.82972 
L 149.737091 -354.421835 
L 145.678909 -308.88181 
L 141.620727 -366.915366 
L 137.562545 -329.792321 
L 133.504364 -350.669034 
L 129.446182 -264.442912 
L 121.329818 -345.44982 
z
" style="stroke: #ff0000; stroke-opacity: 0.2"/>
    </defs>
    <g clip-path="url(#pbc6923b1e5)">
     <use xlink:href="#m0ce61a3e27" x="0" y="700.466504" style="fill: #ff0000; fill-opacity: 0.2; stroke: #ff0000; stroke-opacity: 0.2"/>
    </g>
   </g>
   <g id="matplotlib.axis_1">
    <g id="xtick_1">
     <g id="line2d_1">
      <path d="M 125.388 622.6035 
L 125.388 35.0835 
" clip-path="url(#pbc6923b1e5)" style="fill: none; stroke: #a5a391; stroke-opacity: 0.3; stroke-width: 0.8; stroke-linecap: square"/>
     </g>
     <g id="line2d_2">
      <defs>
       <path id="mcc11129a51" d="M 0 0 
L 0 -3.5 
" style="stroke: #000000; stroke-width: 0.8"/>
      </defs>
      <g>
       <use xlink:href="#mcc11129a51" x="125.388" y="622.6035" style="stroke: #000000; stroke-width: 0.8"/>
      </g>
     </g>
     <g id="text_1">
      <!-- Jan 01, 20 -->
      <g transform="translate(36.012952 689.66438) rotate(-30) scale(0.2 -0.2)">
       <defs>
        <path id="DejaVuSans-4a" d="M 628 4666 
L 1259 4666 
L 1259 325 
Q 1259 -519 939 -900 
Q 619 -1281 -91 -1281 
L -331 -1281 
L -331 -750 
L -134 -750 
Q 284 -750 456 -515 
Q 628 -281 628 325 
L 628 4666 
z
" transform="scale(0.015625)"/>
        <path id="DejaVuSans-61" d="M 2194 1759 
Q 1497 1759 1228 1600 
Q 959 1441 959 1056 
Q 959 750 1161 570 
Q 1363 391 1709 391 
Q 2188 391 2477 730 
Q 2766 1069 2766 1631 
L 2766 1759 
L 2194 1759 
z
M 3341 1997 
L 3341 0 
L 2766 0 
L 2766 531 
Q 2569 213 2275 61 
Q 1981 -91 1556 -91 
Q 1019 -91 701 211 
Q 384 513 384 1019 
Q 384 1609 779 1909 
Q 1175 2209 1959 2209 
L 2766 2209 
L 2766 2266 
Q 2766 2663 2505 2880 
Q 2244 3097 1772 3097 
Q 1472 3097 1187 3025 
Q 903 2953 641 2809 
L 641 3341 
Q 956 3463 1253 3523 
Q 1550 3584 1831 3584 
Q 2591 3584 2966 3190 
Q 3341 2797 3341 1997 
z
" transform="scale(0.015625)"/>
        <path id="DejaVuSans-6e" d="M 3513 2113 
L 3513 0 
L 2938 0 
L 2938 2094 
Q 2938 2591 2744 2837 
Q 2550 3084 2163 3084 
Q 1697 3084 1428 2787 
Q 1159 2491 1159 1978 
L 1159 0 
L 581 0 
L 581 3500 
L 1159 3500 
L 1159 2956 
Q 1366 3272 1645 3428 
Q 1925 3584 2291 3584 
Q 2894 3584 3203 3211 
Q 3513 2838 3513 2113 
z
" transform="scale(0.015625)"/>
        <path id="DejaVuSans-20" transform="scale(0.015625)"/>
        <path id="DejaVuSans-30" d="M 2034 4250 
Q 1547 4250 1301 3770 
Q 1056 3291 1056 2328 
Q 1056 1369 1301 889 
Q 1547 409 2034 409 
Q 2525 409 2770 889 
Q 3016 1369 3016 2328 
Q 3016 3291 2770 3770 
Q 2525 4250 2034 4250 
z
M 2034 4750 
Q 2819 4750 3233 4129 
Q 3647 3509 3647 2328 
Q 3647 1150 3233 529 
Q 2819 -91 2034 -91 
Q 1250 -91 836 529 
Q 422 1150 422 2328 
Q 422 3509 836 4129 
Q 1250 4750 2034 4750 
z
" transform="scale(0.015625)"/>
        <path id="DejaVuSans-31" d="M 794 531 
L 1825 531 
L 1825 4091 
L 703 3866 
L 703 4441 
L 1819 4666 
L 2450 4666 
L 2450 531 
L 3481 531 
L 3481 0 
L 794 0 
L 794 531 
z
" transform="scale(0.015625)"/>
        <path id="DejaVuSans-2c" d="M 750 794 
L 1409 794 
L 1409 256 
L 897 -744 
L 494 -744 
L 750 256 
L 750 794 
z
" transform="scale(0.015625)"/>
        <path id="DejaVuSans-32" d="M 1228 531 
L 3431 531 
L 3431 0 
L 469 0 
L 469 531 
Q 828 903 1448 1529 
Q 2069 2156 2228 2338 
Q 2531 2678 2651 2914 
Q 2772 3150 2772 3378 
Q 2772 3750 2511 3984 
Q 2250 4219 1831 4219 
Q 1534 4219 1204 4116 
Q 875 4013 500 3803 
L 500 4441 
Q 881 4594 1212 4672 
Q 1544 4750 1819 4750 
Q 2544 4750 2975 4387 
Q 3406 4025 3406 3419 
Q 3406 3131 3298 2873 
Q 3191 2616 2906 2266 
Q 2828 2175 2409 1742 
Q 1991 1309 1228 531 
z
" transform="scale(0.015625)"/>
       </defs>
       <use xlink:href="#DejaVuSans-4a"/>
       <use xlink:href="#DejaVuSans-61" x="29.492188"/>
       <use xlink:href="#DejaVuSans-6e" x="90.771484"/>
       <use xlink:href="#DejaVuSans-20" x="154.150391"/>
       <use xlink:href="#DejaVuSans-30" x="185.9375"/>
       <use xlink:href="#DejaVuSans-31" x="249.560547"/>
       <use xlink:href="#DejaVuSans-2c" x="313.183594"/>
       <use xlink:href="#DejaVuSans-20" x="344.970703"/>
       <use xlink:href="#DejaVuSans-32" x="376.757812"/>
       <use xlink:href="#DejaVuSans-30" x="440.380859"/>
      </g>
     </g>
    </g>
    <g id="xtick_2">
     <g id="line2d_3">
      <path d="M 230.900727 622.6035 
L 230.900727 35.0835 
" clip-path="url(#pbc6923b1e5)" style="fill: none; stroke: #a5a391; stroke-opacity: 0.3; stroke-width: 0.8; stroke-linecap: square"/>
     </g>
     <g id="line2d_4">
      <g>
       <use xlink:href="#mcc11129a51" x="230.900727" y="622.6035" style="stroke: #000000; stroke-width: 0.8"/>
      </g>
     </g>
     <g id="text_2">
      <!-- Jul 01, 20 -->
      <g transform="translate(147.328049 686.31438) rotate(-30) scale(0.2 -0.2)">
       <defs>
        <path id="DejaVuSans-75" d="M 544 1381 
L 544 3500 
L 1119 3500 
L 1119 1403 
Q 1119 906 1312 657 
Q 1506 409 1894 409 
Q 2359 409 2629 706 
Q 2900 1003 2900 1516 
L 2900 3500 
L 3475 3500 
L 3475 0 
L 2900 0 
L 2900 538 
Q 2691 219 2414 64 
Q 2138 -91 1772 -91 
Q 1169 -91 856 284 
Q 544 659 544 1381 
z
M 1991 3584 
L 1991 3584 
z
" transform="scale(0.015625)"/>
        <path id="DejaVuSans-6c" d="M 603 4863 
L 1178 4863 
L 1178 0 
L 603 0 
L 603 4863 
z
" transform="scale(0.015625)"/>
       </defs>
       <use xlink:href="#DejaVuSans-4a"/>
       <use xlink:href="#DejaVuSans-75" x="29.492188"/>
       <use xlink:href="#DejaVuSans-6c" x="92.871094"/>
       <use xlink:href="#DejaVuSans-20" x="120.654297"/>
       <use xlink:href="#DejaVuSans-30" x="152.441406"/>
       <use xlink:href="#DejaVuSans-31" x="216.064453"/>
       <use xlink:href="#DejaVuSans-2c" x="279.6875"/>
       <use xlink:href="#DejaVuSans-20" x="311.474609"/>
       <use xlink:href="#DejaVuSans-32" x="343.261719"/>
       <use xlink:href="#DejaVuSans-30" x="406.884766"/>
      </g>
     </g>
    </g>
    <g id="xtick_3">
     <g id="line2d_5">
      <path d="M 337.572935 622.6035 
L 337.572935 35.0835 
" clip-path="url(#pbc6923b1e5)" style="fill: none; stroke: #a5a391; stroke-opacity: 0.3; stroke-width: 0.8; stroke-linecap: square"/>
     </g>
     <g id="line2d_6">
      <g>
       <use xlink:href="#mcc11129a51" x="337.572935" y="622.6035" style="stroke: #000000; stroke-width: 0.8"/>
      </g>
     </g>
     <g id="text_3">
      <!-- Jan 01, 21 -->
      <g transform="translate(248.197887 689.66438) rotate(-30) scale(0.2 -0.2)">
       <use xlink:href="#DejaVuSans-4a"/>
       <use xlink:href="#DejaVuSans-61" x="29.492188"/>
       <use xlink:href="#DejaVuSans-6e" x="90.771484"/>
       <use xlink:href="#DejaVuSans-20" x="154.150391"/>
       <use xlink:href="#DejaVuSans-30" x="185.9375"/>
       <use xlink:href="#DejaVuSans-31" x="249.560547"/>
       <use xlink:href="#DejaVuSans-2c" x="313.183594"/>
       <use xlink:href="#DejaVuSans-20" x="344.970703"/>
       <use xlink:href="#DejaVuSans-32" x="376.757812"/>
       <use xlink:href="#DejaVuSans-31" x="440.380859"/>
      </g>
     </g>
    </g>
    <g id="xtick_4">
     <g id="line2d_7">
      <path d="M 442.505922 622.6035 
L 442.505922 35.0835 
" clip-path="url(#pbc6923b1e5)" style="fill: none; stroke: #a5a391; stroke-opacity: 0.3; stroke-width: 0.8; stroke-linecap: square"/>
     </g>
     <g id="line2d_8">
      <g>
       <use xlink:href="#mcc11129a51" x="442.505922" y="622.6035" style="stroke: #000000; stroke-width: 0.8"/>
      </g>
     </g>
     <g id="text_4">
      <!-- Jul 01, 21 -->
      <g transform="translate(358.933244 686.31438) rotate(-30) scale(0.2 -0.2)">
       <use xlink:href="#DejaVuSans-4a"/>
       <use xlink:href="#DejaVuSans-75" x="29.492188"/>
       <use xlink:href="#DejaVuSans-6c" x="92.871094"/>
       <use xlink:href="#DejaVuSans-20" x="120.654297"/>
       <use xlink:href="#DejaVuSans-30" x="152.441406"/>
       <use xlink:href="#DejaVuSans-31" x="216.064453"/>
       <use xlink:href="#DejaVuSans-2c" x="279.6875"/>
       <use xlink:href="#DejaVuSans-20" x="311.474609"/>
       <use xlink:href="#DejaVuSans-32" x="343.261719"/>
       <use xlink:href="#DejaVuSans-31" x="406.884766"/>
      </g>
     </g>
    </g>
    <g id="xtick_5">
     <g id="line2d_9">
      <path d="M 549.17813 622.6035 
L 549.17813 35.0835 
" clip-path="url(#pbc6923b1e5)" style="fill: none; stroke: #a5a391; stroke-opacity: 0.3; stroke-width: 0.8; stroke-linecap: square"/>
     </g>
     <g id="line2d_10">
      <g>
       <use xlink:href="#mcc11129a51" x="549.17813" y="622.6035" style="stroke: #000000; stroke-width: 0.8"/>
      </g>
     </g>
     <g id="text_5">
      <!-- Jan 01, 22 -->
      <g transform="translate(459.803082 689.66438) rotate(-30) scale(0.2 -0.2)">
       <use xlink:href="#DejaVuSans-4a"/>
       <use xlink:href="#DejaVuSans-61" x="29.492188"/>
       <use xlink:href="#DejaVuSans-6e" x="90.771484"/>
       <use xlink:href="#DejaVuSans-20" x="154.150391"/>
       <use xlink:href="#DejaVuSans-30" x="185.9375"/>
       <use xlink:href="#DejaVuSans-31" x="249.560547"/>
       <use xlink:href="#DejaVuSans-2c" x="313.183594"/>
       <use xlink:href="#DejaVuSans-20" x="344.970703"/>
       <use xlink:href="#DejaVuSans-32" x="376.757812"/>
       <use xlink:href="#DejaVuSans-32" x="440.380859"/>
      </g>
     </g>
    </g>
    <g id="xtick_6">
     <g id="line2d_11">
      <path d="M 654.111117 622.6035 
L 654.111117 35.0835 
" clip-path="url(#pbc6923b1e5)" style="fill: none; stroke: #a5a391; stroke-opacity: 0.3; stroke-width: 0.8; stroke-linecap: square"/>
     </g>
     <g id="line2d_12">
      <g>
       <use xlink:href="#mcc11129a51" x="654.111117" y="622.6035" style="stroke: #000000; stroke-width: 0.8"/>
      </g>
     </g>
     <g id="text_6">
      <!-- Jul 01, 22 -->
      <g transform="translate(570.538439 686.31438) rotate(-30) scale(0.2 -0.2)">
       <use xlink:href="#DejaVuSans-4a"/>
       <use xlink:href="#DejaVuSans-75" x="29.492188"/>
       <use xlink:href="#DejaVuSans-6c" x="92.871094"/>
       <use xlink:href="#DejaVuSans-20" x="120.654297"/>
       <use xlink:href="#DejaVuSans-30" x="152.441406"/>
       <use xlink:href="#DejaVuSans-31" x="216.064453"/>
       <use xlink:href="#DejaVuSans-2c" x="279.6875"/>
       <use xlink:href="#DejaVuSans-20" x="311.474609"/>
       <use xlink:href="#DejaVuSans-32" x="343.261719"/>
       <use xlink:href="#DejaVuSans-32" x="406.884766"/>
      </g>
     </g>
    </g>
    <g id="xtick_7">
     <g id="line2d_13">
      <path d="M 760.783325 622.6035 
L 760.783325 35.0835 
" clip-path="url(#pbc6923b1e5)" style="fill: none; stroke: #a5a391; stroke-opacity: 0.3; stroke-width: 0.8; stroke-linecap: square"/>
     </g>
     <g id="line2d_14">
      <g>
       <use xlink:href="#mcc11129a51" x="760.783325" y="622.6035" style="stroke: #000000; stroke-width: 0.8"/>
      </g>
     </g>
     <g id="text_7">
      <!-- Jan 01, 23 -->
      <g transform="translate(671.408276 689.66438) rotate(-30) scale(0.2 -0.2)">
       <defs>
        <path id="DejaVuSans-33" d="M 2597 2516 
Q 3050 2419 3304 2112 
Q 3559 1806 3559 1356 
Q 3559 666 3084 287 
Q 2609 -91 1734 -91 
Q 1441 -91 1130 -33 
Q 819 25 488 141 
L 488 750 
Q 750 597 1062 519 
Q 1375 441 1716 441 
Q 2309 441 2620 675 
Q 2931 909 2931 1356 
Q 2931 1769 2642 2001 
Q 2353 2234 1838 2234 
L 1294 2234 
L 1294 2753 
L 1863 2753 
Q 2328 2753 2575 2939 
Q 2822 3125 2822 3475 
Q 2822 3834 2567 4026 
Q 2313 4219 1838 4219 
Q 1578 4219 1281 4162 
Q 984 4106 628 3988 
L 628 4550 
Q 988 4650 1302 4700 
Q 1616 4750 1894 4750 
Q 2613 4750 3031 4423 
Q 3450 4097 3450 3541 
Q 3450 3153 3228 2886 
Q 3006 2619 2597 2516 
z
" transform="scale(0.015625)"/>
       </defs>
       <use xlink:href="#DejaVuSans-4a"/>
       <use xlink:href="#DejaVuSans-61" x="29.492188"/>
       <use xlink:href="#DejaVuSans-6e" x="90.771484"/>
       <use xlink:href="#DejaVuSans-20" x="154.150391"/>
       <use xlink:href="#DejaVuSans-30" x="185.9375"/>
       <use xlink:href="#DejaVuSans-31" x="249.560547"/>
       <use xlink:href="#DejaVuSans-2c" x="313.183594"/>
       <use xlink:href="#DejaVuSans-20" x="344.970703"/>
       <use xlink:href="#DejaVuSans-32" x="376.757812"/>
       <use xlink:href="#DejaVuSans-33" x="440.380859"/>
      </g>
     </g>
    </g>
    <g id="xtick_8">
     <g id="line2d_15">
      <path d="M 865.716312 622.6035 
L 865.716312 35.0835 
" clip-path="url(#pbc6923b1e5)" style="fill: none; stroke: #a5a391; stroke-opacity: 0.3; stroke-width: 0.8; stroke-linecap: square"/>
     </g>
     <g id="line2d_16">
      <g>
       <use xlink:href="#mcc11129a51" x="865.716312" y="622.6035" style="stroke: #000000; stroke-width: 0.8"/>
      </g>
     </g>
     <g id="text_8">
      <!-- Jul 01, 23 -->
      <g transform="translate(782.143634 686.31438) rotate(-30) scale(0.2 -0.2)">
       <use xlink:href="#DejaVuSans-4a"/>
       <use xlink:href="#DejaVuSans-75" x="29.492188"/>
       <use xlink:href="#DejaVuSans-6c" x="92.871094"/>
       <use xlink:href="#DejaVuSans-20" x="120.654297"/>
       <use xlink:href="#DejaVuSans-30" x="152.441406"/>
       <use xlink:href="#DejaVuSans-31" x="216.064453"/>
       <use xlink:href="#DejaVuSans-2c" x="279.6875"/>
       <use xlink:href="#DejaVuSans-20" x="311.474609"/>
       <use xlink:href="#DejaVuSans-32" x="343.261719"/>
       <use xlink:href="#DejaVuSans-33" x="406.884766"/>
      </g>
     </g>
    </g>
    <g id="xtick_9">
     <g id="line2d_17">
      <path d="M 972.388519 622.6035 
L 972.388519 35.0835 
" clip-path="url(#pbc6923b1e5)" style="fill: none; stroke: #a5a391; stroke-opacity: 0.3; stroke-width: 0.8; stroke-linecap: square"/>
     </g>
     <g id="line2d_18">
      <g>
       <use xlink:href="#mcc11129a51" x="972.388519" y="622.6035" style="stroke: #000000; stroke-width: 0.8"/>
      </g>
     </g>
     <g id="text_9">
      <!-- Jan 01, 24 -->
      <g transform="translate(883.013471 689.66438) rotate(-30) scale(0.2 -0.2)">
       <defs>
        <path id="DejaVuSans-34" d="M 2419 4116 
L 825 1625 
L 2419 1625 
L 2419 4116 
z
M 2253 4666 
L 3047 4666 
L 3047 1625 
L 3713 1625 
L 3713 1100 
L 3047 1100 
L 3047 0 
L 2419 0 
L 2419 1100 
L 313 1100 
L 313 1709 
L 2253 4666 
z
" transform="scale(0.015625)"/>
       </defs>
       <use xlink:href="#DejaVuSans-4a"/>
       <use xlink:href="#DejaVuSans-61" x="29.492188"/>
       <use xlink:href="#DejaVuSans-6e" x="90.771484"/>
       <use xlink:href="#DejaVuSans-20" x="154.150391"/>
       <use xlink:href="#DejaVuSans-30" x="185.9375"/>
       <use xlink:href="#DejaVuSans-31" x="249.560547"/>
       <use xlink:href="#DejaVuSans-2c" x="313.183594"/>
       <use xlink:href="#DejaVuSans-20" x="344.970703"/>
       <use xlink:href="#DejaVuSans-32" x="376.757812"/>
       <use xlink:href="#DejaVuSans-34" x="440.380859"/>
      </g>
     </g>
    </g>
   </g>
   <g id="matplotlib.axis_2">
    <g id="ytick_1">
     <g id="line2d_19">
      <path d="M 80.748 547.622568 
L 973.548 547.622568 
" clip-path="url(#pbc6923b1e5)" style="fill: none; stroke: #a5a391; stroke-opacity: 0.3; stroke-width: 0.8; stroke-linecap: square"/>
     </g>
     <g id="line2d_20">
      <defs>
       <path id="mfa9429f402" d="M 0 0 
L 3.5 0 
" style="stroke: #000000; stroke-width: 0.8"/>
      </defs>
      <g>
       <use xlink:href="#mfa9429f402" x="80.748" y="547.622568" style="stroke: #000000; stroke-width: 0.8"/>
      </g>
     </g>
     <g id="text_10">
      <!-- 110 -->
      <g transform="translate(39.073 555.221005) scale(0.2 -0.2)">
       <use xlink:href="#DejaVuSans-31"/>
       <use xlink:href="#DejaVuSans-31" x="63.623047"/>
       <use xlink:href="#DejaVuSans-30" x="127.246094"/>
      </g>
     </g>
    </g>
    <g id="ytick_2">
     <g id="line2d_21">
      <path d="M 80.748 462.050273 
L 973.548 462.050273 
" clip-path="url(#pbc6923b1e5)" style="fill: none; stroke: #a5a391; stroke-opacity: 0.3; stroke-width: 0.8; stroke-linecap: square"/>
     </g>
     <g id="line2d_22">
      <g>
       <use xlink:href="#mfa9429f402" x="80.748" y="462.050273" style="stroke: #000000; stroke-width: 0.8"/>
      </g>
     </g>
     <g id="text_11">
      <!-- 115 -->
      <g transform="translate(39.073 469.648711) scale(0.2 -0.2)">
       <defs>
        <path id="DejaVuSans-35" d="M 691 4666 
L 3169 4666 
L 3169 4134 
L 1269 4134 
L 1269 2991 
Q 1406 3038 1543 3061 
Q 1681 3084 1819 3084 
Q 2600 3084 3056 2656 
Q 3513 2228 3513 1497 
Q 3513 744 3044 326 
Q 2575 -91 1722 -91 
Q 1428 -91 1123 -41 
Q 819 9 494 109 
L 494 744 
Q 775 591 1075 516 
Q 1375 441 1709 441 
Q 2250 441 2565 725 
Q 2881 1009 2881 1497 
Q 2881 1984 2565 2268 
Q 2250 2553 1709 2553 
Q 1456 2553 1204 2497 
Q 953 2441 691 2322 
L 691 4666 
z
" transform="scale(0.015625)"/>
       </defs>
       <use xlink:href="#DejaVuSans-31"/>
       <use xlink:href="#DejaVuSans-31" x="63.623047"/>
       <use xlink:href="#DejaVuSans-35" x="127.246094"/>
      </g>
     </g>
    </g>
    <g id="ytick_3">
     <g id="line2d_23">
      <path d="M 80.748 376.477979 
L 973.548 376.477979 
" clip-path="url(#pbc6923b1e5)" style="fill: none; stroke: #a5a391; stroke-opacity: 0.3; stroke-width: 0.8; stroke-linecap: square"/>
     </g>
     <g id="line2d_24">
      <g>
       <use xlink:href="#mfa9429f402" x="80.748" y="376.477979" style="stroke: #000000; stroke-width: 0.8"/>
      </g>
     </g>
     <g id="text_12">
      <!-- 120 -->
      <g transform="translate(39.073 384.076416) scale(0.2 -0.2)">
       <use xlink:href="#DejaVuSans-31"/>
       <use xlink:href="#DejaVuSans-32" x="63.623047"/>
       <use xlink:href="#DejaVuSans-30" x="127.246094"/>
      </g>
     </g>
    </g>
    <g id="ytick_4">
     <g id="line2d_25">
      <path d="M 80.748 290.905684 
L 973.548 290.905684 
" clip-path="url(#pbc6923b1e5)" style="fill: none; stroke: #a5a391; stroke-opacity: 0.3; stroke-width: 0.8; stroke-linecap: square"/>
     </g>
     <g id="line2d_26">
      <g>
       <use xlink:href="#mfa9429f402" x="80.748" y="290.905684" style="stroke: #000000; stroke-width: 0.8"/>
      </g>
     </g>
     <g id="text_13">
      <!-- 125 -->
      <g transform="translate(39.073 298.504121) scale(0.2 -0.2)">
       <use xlink:href="#DejaVuSans-31"/>
       <use xlink:href="#DejaVuSans-32" x="63.623047"/>
       <use xlink:href="#DejaVuSans-35" x="127.246094"/>
      </g>
     </g>
    </g>
    <g id="ytick_5">
     <g id="line2d_27">
      <path d="M 80.748 205.333389 
L 973.548 205.333389 
" clip-path="url(#pbc6923b1e5)" style="fill: none; stroke: #a5a391; stroke-opacity: 0.3; stroke-width: 0.8; stroke-linecap: square"/>
     </g>
     <g id="line2d_28">
      <g>
       <use xlink:href="#mfa9429f402" x="80.748" y="205.333389" style="stroke: #000000; stroke-width: 0.8"/>
      </g>
     </g>
     <g id="text_14">
      <!-- 130 -->
      <g transform="translate(39.073 212.931827) scale(0.2 -0.2)">
       <use xlink:href="#DejaVuSans-31"/>
       <use xlink:href="#DejaVuSans-33" x="63.623047"/>
       <use xlink:href="#DejaVuSans-30" x="127.246094"/>
      </g>
     </g>
    </g>
    <g id="ytick_6">
     <g id="line2d_29">
      <path d="M 80.748 119.761095 
L 973.548 119.761095 
" clip-path="url(#pbc6923b1e5)" style="fill: none; stroke: #a5a391; stroke-opacity: 0.3; stroke-width: 0.8; stroke-linecap: square"/>
     </g>
     <g id="line2d_30">
      <g>
       <use xlink:href="#mfa9429f402" x="80.748" y="119.761095" style="stroke: #000000; stroke-width: 0.8"/>
      </g>
     </g>
     <g id="text_15">
      <!-- 135 -->
      <g transform="translate(39.073 127.359532) scale(0.2 -0.2)">
       <use xlink:href="#DejaVuSans-31"/>
       <use xlink:href="#DejaVuSans-33" x="63.623047"/>
       <use xlink:href="#DejaVuSans-35" x="127.246094"/>
      </g>
     </g>
    </g>
    <g id="text_16">
     <!-- Muscle Mass [lbs] -->
     <g transform="translate(29.0835 455.9595) rotate(-90) scale(0.288 -0.288)">
      <defs>
       <path id="DejaVuSans-4d" d="M 628 4666 
L 1569 4666 
L 2759 1491 
L 3956 4666 
L 4897 4666 
L 4897 0 
L 4281 0 
L 4281 4097 
L 3078 897 
L 2444 897 
L 1241 4097 
L 1241 0 
L 628 0 
L 628 4666 
z
" transform="scale(0.015625)"/>
       <path id="DejaVuSans-73" d="M 2834 3397 
L 2834 2853 
Q 2591 2978 2328 3040 
Q 2066 3103 1784 3103 
Q 1356 3103 1142 2972 
Q 928 2841 928 2578 
Q 928 2378 1081 2264 
Q 1234 2150 1697 2047 
L 1894 2003 
Q 2506 1872 2764 1633 
Q 3022 1394 3022 966 
Q 3022 478 2636 193 
Q 2250 -91 1575 -91 
Q 1294 -91 989 -36 
Q 684 19 347 128 
L 347 722 
Q 666 556 975 473 
Q 1284 391 1588 391 
Q 1994 391 2212 530 
Q 2431 669 2431 922 
Q 2431 1156 2273 1281 
Q 2116 1406 1581 1522 
L 1381 1569 
Q 847 1681 609 1914 
Q 372 2147 372 2553 
Q 372 3047 722 3315 
Q 1072 3584 1716 3584 
Q 2034 3584 2315 3537 
Q 2597 3491 2834 3397 
z
" transform="scale(0.015625)"/>
       <path id="DejaVuSans-63" d="M 3122 3366 
L 3122 2828 
Q 2878 2963 2633 3030 
Q 2388 3097 2138 3097 
Q 1578 3097 1268 2742 
Q 959 2388 959 1747 
Q 959 1106 1268 751 
Q 1578 397 2138 397 
Q 2388 397 2633 464 
Q 2878 531 3122 666 
L 3122 134 
Q 2881 22 2623 -34 
Q 2366 -91 2075 -91 
Q 1284 -91 818 406 
Q 353 903 353 1747 
Q 353 2603 823 3093 
Q 1294 3584 2113 3584 
Q 2378 3584 2631 3529 
Q 2884 3475 3122 3366 
z
" transform="scale(0.015625)"/>
       <path id="DejaVuSans-65" d="M 3597 1894 
L 3597 1613 
L 953 1613 
Q 991 1019 1311 708 
Q 1631 397 2203 397 
Q 2534 397 2845 478 
Q 3156 559 3463 722 
L 3463 178 
Q 3153 47 2828 -22 
Q 2503 -91 2169 -91 
Q 1331 -91 842 396 
Q 353 884 353 1716 
Q 353 2575 817 3079 
Q 1281 3584 2069 3584 
Q 2775 3584 3186 3129 
Q 3597 2675 3597 1894 
z
M 3022 2063 
Q 3016 2534 2758 2815 
Q 2500 3097 2075 3097 
Q 1594 3097 1305 2825 
Q 1016 2553 972 2059 
L 3022 2063 
z
" transform="scale(0.015625)"/>
       <path id="DejaVuSans-5b" d="M 550 4863 
L 1875 4863 
L 1875 4416 
L 1125 4416 
L 1125 -397 
L 1875 -397 
L 1875 -844 
L 550 -844 
L 550 4863 
z
" transform="scale(0.015625)"/>
       <path id="DejaVuSans-62" d="M 3116 1747 
Q 3116 2381 2855 2742 
Q 2594 3103 2138 3103 
Q 1681 3103 1420 2742 
Q 1159 2381 1159 1747 
Q 1159 1113 1420 752 
Q 1681 391 2138 391 
Q 2594 391 2855 752 
Q 3116 1113 3116 1747 
z
M 1159 2969 
Q 1341 3281 1617 3432 
Q 1894 3584 2278 3584 
Q 2916 3584 3314 3078 
Q 3713 2572 3713 1747 
Q 3713 922 3314 415 
Q 2916 -91 2278 -91 
Q 1894 -91 1617 61 
Q 1341 213 1159 525 
L 1159 0 
L 581 0 
L 581 4863 
L 1159 4863 
L 1159 2969 
z
" transform="scale(0.015625)"/>
       <path id="DejaVuSans-5d" d="M 1947 4863 
L 1947 -844 
L 622 -844 
L 622 -397 
L 1369 -397 
L 1369 4416 
L 622 4416 
L 622 4863 
L 1947 4863 
z
" transform="scale(0.015625)"/>
      </defs>
      <use xlink:href="#DejaVuSans-4d"/>
      <use xlink:href="#DejaVuSans-75" x="86.279297"/>
      <use xlink:href="#DejaVuSans-73" x="149.658203"/>
      <use xlink:href="#DejaVuSans-63" x="201.757812"/>
      <use xlink:href="#DejaVuSans-6c" x="256.738281"/>
      <use xlink:href="#DejaVuSans-65" x="284.521484"/>
      <use xlink:href="#DejaVuSans-20" x="346.044922"/>
      <use xlink:href="#DejaVuSans-4d" x="377.832031"/>
      <use xlink:href="#DejaVuSans-61" x="464.111328"/>
      <use xlink:href="#DejaVuSans-73" x="525.390625"/>
      <use xlink:href="#DejaVuSans-73" x="577.490234"/>
      <use xlink:href="#DejaVuSans-20" x="629.589844"/>
      <use xlink:href="#DejaVuSans-5b" x="661.376953"/>
      <use xlink:href="#DejaVuSans-6c" x="700.390625"/>
      <use xlink:href="#DejaVuSans-62" x="728.173828"/>
      <use xlink:href="#DejaVuSans-73" x="791.650391"/>
      <use xlink:href="#DejaVuSans-5d" x="843.75"/>
     </g>
    </g>
   </g>
   <g id="line2d_31">
    <path d="M 121.329818 381.612316 
L 129.446182 515.960819 
L 133.504364 374.033056 
L 137.562545 376.477979 
L 141.620727 338.826169 
L 145.678909 405.572559 
L 149.737091 365.068339 
L 153.795273 361.930688 
L 157.853455 354.799664 
L 161.911636 316.862613 
L 165.969818 356.967495 
L 170.028 400.438221 
L 174.086182 334.119693 
L 178.144364 328.557494 
L 182.202545 369.204333 
L 186.260727 341.821199 
L 190.318909 323.993638 
L 194.377091 318.631107 
L 198.435273 310.587312 
L 202.493455 321.71171 
L 206.551636 320.855987 
L 210.609818 323.423156 
L 214.668 347.383398 
L 218.726182 333.26397 
L 222.784364 335.831139 
L 226.842545 325.990325 
L 230.900727 302.885805 
L 234.958909 270.368333 
L 239.017091 314.865926 
L 243.075273 329.92665 
L 247.133455 304.597251 
L 251.191636 289.194238 
L 255.249818 287.482792 
L 259.308 271.395201 
L 263.366182 234.427969 
L 267.424364 263.950411 
L 271.482545 277.214117 
L 275.540727 251.884718 
L 279.598909 254.394838 
L 283.657091 240.845892 
L 287.715273 260.099658 
L 291.773455 290.335202 
L 295.831636 299.890775 
L 299.889818 256.248905 
L 303.948 300.318636 
L 308.006182 312.013517 
L 312.064364 249.830982 
L 316.122545 228.437909 
L 320.180727 229.293632 
L 324.238909 263.52255 
L 328.297091 232.716524 
L 332.355273 246.835952 
L 336.413455 216.743029 
L 340.471636 188.952407 
L 344.529818 171.674953 
L 348.588 204.477666 
L 352.646182 198.145317 
L 356.704364 176.238809 
L 360.762545 216.286643 
L 364.820727 228.437909 
L 368.878909 216.457788 
L 372.937091 207.044835 
L 376.995273 270.368333 
L 381.053455 242.414717 
L 385.111636 177.950255 
L 389.169818 206.017968 
L 393.228 187.729946 
L 397.286182 221.164264 
L 401.344364 243.840922 
L 405.402545 236.709897 
L 409.460727 227.582186 
L 413.518909 209.897245 
L 417.577091 193.353268 
L 421.635273 227.582186 
L 425.693455 221.306884 
L 429.751636 225.015017 
L 433.809818 201.340016 
L 437.868 214.746342 
L 441.926182 207.044835 
L 445.984364 191.641822 
L 454.100727 246.408091 
L 458.158909 252.569296 
L 462.217091 221.021643 
L 466.275273 234.427969 
L 486.566182 237.850861 
L 490.624364 242.985199 
L 494.682545 299.890775 
L 498.740727 245.267127 
L 502.798909 289.194238 
L 519.031636 290.905684 
L 523.089818 297.751467 
L 527.148 253.253874 
L 555.555273 302.885805 
L 559.613455 298.60719 
L 563.671636 300.033395 
L 567.729818 306.736558 
L 571.788 238.706584 
L 575.846182 302.885805 
L 579.904364 309.731589 
L 583.962545 297.751467 
L 588.020727 340.537615 
L 592.078909 291.761407 
L 596.137091 362.786411 
L 600.195273 361.645447 
L 616.428 341.393338 
L 620.486182 339.967133 
L 624.544364 341.108097 
L 628.602545 298.179329 
L 632.660727 362.786411 
L 652.951636 321.71171 
L 697.591636 294.328576 
L 717.882545 347.383398 
L 721.940727 347.383398 
L 730.057091 362.786411 
L 742.231636 340.537615 
L 794.988 381.612316 
L 928.908 88.384587 
L 932.966182 116.338203 
" clip-path="url(#pbc6923b1e5)" style="fill: none; stroke: #ff0000; stroke-width: 1.5; stroke-linecap: square"/>
    <defs>
     <path id="m826c818a35" d="M 0 -3 
L -0.673542 -0.927051 
L -2.85317 -0.927051 
L -1.089814 0.354102 
L -1.763356 2.427051 
L -0 1.145898 
L 1.763356 2.427051 
L 1.089814 0.354102 
L 2.85317 -0.927051 
L 0.673542 -0.927051 
z
" style="stroke: #ff0000; stroke-linejoin: bevel"/>
    </defs>
    <g clip-path="url(#pbc6923b1e5)">
     <use xlink:href="#m826c818a35" x="121.329818" y="381.612316" style="fill: #ff0000; stroke: #ff0000; stroke-linejoin: bevel"/>
     <use xlink:href="#m826c818a35" x="129.446182" y="515.960819" style="fill: #ff0000; stroke: #ff0000; stroke-linejoin: bevel"/>
     <use xlink:href="#m826c818a35" x="133.504364" y="374.033056" style="fill: #ff0000; stroke: #ff0000; stroke-linejoin: bevel"/>
     <use xlink:href="#m826c818a35" x="137.562545" y="376.477979" style="fill: #ff0000; stroke: #ff0000; stroke-linejoin: bevel"/>
     <use xlink:href="#m826c818a35" x="141.620727" y="338.826169" style="fill: #ff0000; stroke: #ff0000; stroke-linejoin: bevel"/>
     <use xlink:href="#m826c818a35" x="145.678909" y="405.572559" style="fill: #ff0000; stroke: #ff0000; stroke-linejoin: bevel"/>
     <use xlink:href="#m826c818a35" x="149.737091" y="365.068339" style="fill: #ff0000; stroke: #ff0000; stroke-linejoin: bevel"/>
     <use xlink:href="#m826c818a35" x="153.795273" y="361.930688" style="fill: #ff0000; stroke: #ff0000; stroke-linejoin: bevel"/>
     <use xlink:href="#m826c818a35" x="157.853455" y="354.799664" style="fill: #ff0000; stroke: #ff0000; stroke-linejoin: bevel"/>
     <use xlink:href="#m826c818a35" x="161.911636" y="316.862613" style="fill: #ff0000; stroke: #ff0000; stroke-linejoin: bevel"/>
     <use xlink:href="#m826c818a35" x="165.969818" y="356.967495" style="fill: #ff0000; stroke: #ff0000; stroke-linejoin: bevel"/>
     <use xlink:href="#m826c818a35" x="170.028" y="400.438221" style="fill: #ff0000; stroke: #ff0000; stroke-linejoin: bevel"/>
     <use xlink:href="#m826c818a35" x="174.086182" y="334.119693" style="fill: #ff0000; stroke: #ff0000; stroke-linejoin: bevel"/>
     <use xlink:href="#m826c818a35" x="178.144364" y="328.557494" style="fill: #ff0000; stroke: #ff0000; stroke-linejoin: bevel"/>
     <use xlink:href="#m826c818a35" x="182.202545" y="369.204333" style="fill: #ff0000; stroke: #ff0000; stroke-linejoin: bevel"/>
     <use xlink:href="#m826c818a35" x="186.260727" y="341.821199" style="fill: #ff0000; stroke: #ff0000; stroke-linejoin: bevel"/>
     <use xlink:href="#m826c818a35" x="190.318909" y="323.993638" style="fill: #ff0000; stroke: #ff0000; stroke-linejoin: bevel"/>
     <use xlink:href="#m826c818a35" x="194.377091" y="318.631107" style="fill: #ff0000; stroke: #ff0000; stroke-linejoin: bevel"/>
     <use xlink:href="#m826c818a35" x="198.435273" y="310.587312" style="fill: #ff0000; stroke: #ff0000; stroke-linejoin: bevel"/>
     <use xlink:href="#m826c818a35" x="202.493455" y="321.71171" style="fill: #ff0000; stroke: #ff0000; stroke-linejoin: bevel"/>
     <use xlink:href="#m826c818a35" x="206.551636" y="320.855987" style="fill: #ff0000; stroke: #ff0000; stroke-linejoin: bevel"/>
     <use xlink:href="#m826c818a35" x="210.609818" y="323.423156" style="fill: #ff0000; stroke: #ff0000; stroke-linejoin: bevel"/>
     <use xlink:href="#m826c818a35" x="214.668" y="347.383398" style="fill: #ff0000; stroke: #ff0000; stroke-linejoin: bevel"/>
     <use xlink:href="#m826c818a35" x="218.726182" y="333.26397" style="fill: #ff0000; stroke: #ff0000; stroke-linejoin: bevel"/>
     <use xlink:href="#m826c818a35" x="222.784364" y="335.831139" style="fill: #ff0000; stroke: #ff0000; stroke-linejoin: bevel"/>
     <use xlink:href="#m826c818a35" x="226.842545" y="325.990325" style="fill: #ff0000; stroke: #ff0000; stroke-linejoin: bevel"/>
     <use xlink:href="#m826c818a35" x="230.900727" y="302.885805" style="fill: #ff0000; stroke: #ff0000; stroke-linejoin: bevel"/>
     <use xlink:href="#m826c818a35" x="234.958909" y="270.368333" style="fill: #ff0000; stroke: #ff0000; stroke-linejoin: bevel"/>
     <use xlink:href="#m826c818a35" x="239.017091" y="314.865926" style="fill: #ff0000; stroke: #ff0000; stroke-linejoin: bevel"/>
     <use xlink:href="#m826c818a35" x="243.075273" y="329.92665" style="fill: #ff0000; stroke: #ff0000; stroke-linejoin: bevel"/>
     <use xlink:href="#m826c818a35" x="247.133455" y="304.597251" style="fill: #ff0000; stroke: #ff0000; stroke-linejoin: bevel"/>
     <use xlink:href="#m826c818a35" x="251.191636" y="289.194238" style="fill: #ff0000; stroke: #ff0000; stroke-linejoin: bevel"/>
     <use xlink:href="#m826c818a35" x="255.249818" y="287.482792" style="fill: #ff0000; stroke: #ff0000; stroke-linejoin: bevel"/>
     <use xlink:href="#m826c818a35" x="259.308" y="271.395201" style="fill: #ff0000; stroke: #ff0000; stroke-linejoin: bevel"/>
     <use xlink:href="#m826c818a35" x="263.366182" y="234.427969" style="fill: #ff0000; stroke: #ff0000; stroke-linejoin: bevel"/>
     <use xlink:href="#m826c818a35" x="267.424364" y="263.950411" style="fill: #ff0000; stroke: #ff0000; stroke-linejoin: bevel"/>
     <use xlink:href="#m826c818a35" x="271.482545" y="277.214117" style="fill: #ff0000; stroke: #ff0000; stroke-linejoin: bevel"/>
     <use xlink:href="#m826c818a35" x="275.540727" y="251.884718" style="fill: #ff0000; stroke: #ff0000; stroke-linejoin: bevel"/>
     <use xlink:href="#m826c818a35" x="279.598909" y="254.394838" style="fill: #ff0000; stroke: #ff0000; stroke-linejoin: bevel"/>
     <use xlink:href="#m826c818a35" x="283.657091" y="240.845892" style="fill: #ff0000; stroke: #ff0000; stroke-linejoin: bevel"/>
     <use xlink:href="#m826c818a35" x="287.715273" y="260.099658" style="fill: #ff0000; stroke: #ff0000; stroke-linejoin: bevel"/>
     <use xlink:href="#m826c818a35" x="291.773455" y="290.335202" style="fill: #ff0000; stroke: #ff0000; stroke-linejoin: bevel"/>
     <use xlink:href="#m826c818a35" x="295.831636" y="299.890775" style="fill: #ff0000; stroke: #ff0000; stroke-linejoin: bevel"/>
     <use xlink:href="#m826c818a35" x="299.889818" y="256.248905" style="fill: #ff0000; stroke: #ff0000; stroke-linejoin: bevel"/>
     <use xlink:href="#m826c818a35" x="303.948" y="300.318636" style="fill: #ff0000; stroke: #ff0000; stroke-linejoin: bevel"/>
     <use xlink:href="#m826c818a35" x="308.006182" y="312.013517" style="fill: #ff0000; stroke: #ff0000; stroke-linejoin: bevel"/>
     <use xlink:href="#m826c818a35" x="312.064364" y="249.830982" style="fill: #ff0000; stroke: #ff0000; stroke-linejoin: bevel"/>
     <use xlink:href="#m826c818a35" x="316.122545" y="228.437909" style="fill: #ff0000; stroke: #ff0000; stroke-linejoin: bevel"/>
     <use xlink:href="#m826c818a35" x="320.180727" y="229.293632" style="fill: #ff0000; stroke: #ff0000; stroke-linejoin: bevel"/>
     <use xlink:href="#m826c818a35" x="324.238909" y="263.52255" style="fill: #ff0000; stroke: #ff0000; stroke-linejoin: bevel"/>
     <use xlink:href="#m826c818a35" x="328.297091" y="232.716524" style="fill: #ff0000; stroke: #ff0000; stroke-linejoin: bevel"/>
     <use xlink:href="#m826c818a35" x="332.355273" y="246.835952" style="fill: #ff0000; stroke: #ff0000; stroke-linejoin: bevel"/>
     <use xlink:href="#m826c818a35" x="336.413455" y="216.743029" style="fill: #ff0000; stroke: #ff0000; stroke-linejoin: bevel"/>
     <use xlink:href="#m826c818a35" x="340.471636" y="188.952407" style="fill: #ff0000; stroke: #ff0000; stroke-linejoin: bevel"/>
     <use xlink:href="#m826c818a35" x="344.529818" y="171.674953" style="fill: #ff0000; stroke: #ff0000; stroke-linejoin: bevel"/>
     <use xlink:href="#m826c818a35" x="348.588" y="204.477666" style="fill: #ff0000; stroke: #ff0000; stroke-linejoin: bevel"/>
     <use xlink:href="#m826c818a35" x="352.646182" y="198.145317" style="fill: #ff0000; stroke: #ff0000; stroke-linejoin: bevel"/>
     <use xlink:href="#m826c818a35" x="356.704364" y="176.238809" style="fill: #ff0000; stroke: #ff0000; stroke-linejoin: bevel"/>
     <use xlink:href="#m826c818a35" x="360.762545" y="216.286643" style="fill: #ff0000; stroke: #ff0000; stroke-linejoin: bevel"/>
     <use xlink:href="#m826c818a35" x="364.820727" y="228.437909" style="fill: #ff0000; stroke: #ff0000; stroke-linejoin: bevel"/>
     <use xlink:href="#m826c818a35" x="368.878909" y="216.457788" style="fill: #ff0000; stroke: #ff0000; stroke-linejoin: bevel"/>
     <use xlink:href="#m826c818a35" x="372.937091" y="207.044835" style="fill: #ff0000; stroke: #ff0000; stroke-linejoin: bevel"/>
     <use xlink:href="#m826c818a35" x="376.995273" y="270.368333" style="fill: #ff0000; stroke: #ff0000; stroke-linejoin: bevel"/>
     <use xlink:href="#m826c818a35" x="381.053455" y="242.414717" style="fill: #ff0000; stroke: #ff0000; stroke-linejoin: bevel"/>
     <use xlink:href="#m826c818a35" x="385.111636" y="177.950255" style="fill: #ff0000; stroke: #ff0000; stroke-linejoin: bevel"/>
     <use xlink:href="#m826c818a35" x="389.169818" y="206.017968" style="fill: #ff0000; stroke: #ff0000; stroke-linejoin: bevel"/>
     <use xlink:href="#m826c818a35" x="393.228" y="187.729946" style="fill: #ff0000; stroke: #ff0000; stroke-linejoin: bevel"/>
     <use xlink:href="#m826c818a35" x="397.286182" y="221.164264" style="fill: #ff0000; stroke: #ff0000; stroke-linejoin: bevel"/>
     <use xlink:href="#m826c818a35" x="401.344364" y="243.840922" style="fill: #ff0000; stroke: #ff0000; stroke-linejoin: bevel"/>
     <use xlink:href="#m826c818a35" x="405.402545" y="236.709897" style="fill: #ff0000; stroke: #ff0000; stroke-linejoin: bevel"/>
     <use xlink:href="#m826c818a35" x="409.460727" y="227.582186" style="fill: #ff0000; stroke: #ff0000; stroke-linejoin: bevel"/>
     <use xlink:href="#m826c818a35" x="413.518909" y="209.897245" style="fill: #ff0000; stroke: #ff0000; stroke-linejoin: bevel"/>
     <use xlink:href="#m826c818a35" x="417.577091" y="193.353268" style="fill: #ff0000; stroke: #ff0000; stroke-linejoin: bevel"/>
     <use xlink:href="#m826c818a35" x="421.635273" y="227.582186" style="fill: #ff0000; stroke: #ff0000; stroke-linejoin: bevel"/>
     <use xlink:href="#m826c818a35" x="425.693455" y="221.306884" style="fill: #ff0000; stroke: #ff0000; stroke-linejoin: bevel"/>
     <use xlink:href="#m826c818a35" x="429.751636" y="225.015017" style="fill: #ff0000; stroke: #ff0000; stroke-linejoin: bevel"/>
     <use xlink:href="#m826c818a35" x="433.809818" y="201.340016" style="fill: #ff0000; stroke: #ff0000; stroke-linejoin: bevel"/>
     <use xlink:href="#m826c818a35" x="437.868" y="214.746342" style="fill: #ff0000; stroke: #ff0000; stroke-linejoin: bevel"/>
     <use xlink:href="#m826c818a35" x="441.926182" y="207.044835" style="fill: #ff0000; stroke: #ff0000; stroke-linejoin: bevel"/>
     <use xlink:href="#m826c818a35" x="445.984364" y="191.641822" style="fill: #ff0000; stroke: #ff0000; stroke-linejoin: bevel"/>
     <use xlink:href="#m826c818a35" x="454.100727" y="246.408091" style="fill: #ff0000; stroke: #ff0000; stroke-linejoin: bevel"/>
     <use xlink:href="#m826c818a35" x="458.158909" y="252.569296" style="fill: #ff0000; stroke: #ff0000; stroke-linejoin: bevel"/>
     <use xlink:href="#m826c818a35" x="462.217091" y="221.021643" style="fill: #ff0000; stroke: #ff0000; stroke-linejoin: bevel"/>
     <use xlink:href="#m826c818a35" x="466.275273" y="234.427969" style="fill: #ff0000; stroke: #ff0000; stroke-linejoin: bevel"/>
     <use xlink:href="#m826c818a35" x="486.566182" y="237.850861" style="fill: #ff0000; stroke: #ff0000; stroke-linejoin: bevel"/>
     <use xlink:href="#m826c818a35" x="490.624364" y="242.985199" style="fill: #ff0000; stroke: #ff0000; stroke-linejoin: bevel"/>
     <use xlink:href="#m826c818a35" x="494.682545" y="299.890775" style="fill: #ff0000; stroke: #ff0000; stroke-linejoin: bevel"/>
     <use xlink:href="#m826c818a35" x="498.740727" y="245.267127" style="fill: #ff0000; stroke: #ff0000; stroke-linejoin: bevel"/>
     <use xlink:href="#m826c818a35" x="502.798909" y="289.194238" style="fill: #ff0000; stroke: #ff0000; stroke-linejoin: bevel"/>
     <use xlink:href="#m826c818a35" x="519.031636" y="290.905684" style="fill: #ff0000; stroke: #ff0000; stroke-linejoin: bevel"/>
     <use xlink:href="#m826c818a35" x="523.089818" y="297.751467" style="fill: #ff0000; stroke: #ff0000; stroke-linejoin: bevel"/>
     <use xlink:href="#m826c818a35" x="527.148" y="253.253874" style="fill: #ff0000; stroke: #ff0000; stroke-linejoin: bevel"/>
     <use xlink:href="#m826c818a35" x="555.555273" y="302.885805" style="fill: #ff0000; stroke: #ff0000; stroke-linejoin: bevel"/>
     <use xlink:href="#m826c818a35" x="559.613455" y="298.60719" style="fill: #ff0000; stroke: #ff0000; stroke-linejoin: bevel"/>
     <use xlink:href="#m826c818a35" x="563.671636" y="300.033395" style="fill: #ff0000; stroke: #ff0000; stroke-linejoin: bevel"/>
     <use xlink:href="#m826c818a35" x="567.729818" y="306.736558" style="fill: #ff0000; stroke: #ff0000; stroke-linejoin: bevel"/>
     <use xlink:href="#m826c818a35" x="571.788" y="238.706584" style="fill: #ff0000; stroke: #ff0000; stroke-linejoin: bevel"/>
     <use xlink:href="#m826c818a35" x="575.846182" y="302.885805" style="fill: #ff0000; stroke: #ff0000; stroke-linejoin: bevel"/>
     <use xlink:href="#m826c818a35" x="579.904364" y="309.731589" style="fill: #ff0000; stroke: #ff0000; stroke-linejoin: bevel"/>
     <use xlink:href="#m826c818a35" x="583.962545" y="297.751467" style="fill: #ff0000; stroke: #ff0000; stroke-linejoin: bevel"/>
     <use xlink:href="#m826c818a35" x="588.020727" y="340.537615" style="fill: #ff0000; stroke: #ff0000; stroke-linejoin: bevel"/>
     <use xlink:href="#m826c818a35" x="592.078909" y="291.761407" style="fill: #ff0000; stroke: #ff0000; stroke-linejoin: bevel"/>
     <use xlink:href="#m826c818a35" x="596.137091" y="362.786411" style="fill: #ff0000; stroke: #ff0000; stroke-linejoin: bevel"/>
     <use xlink:href="#m826c818a35" x="600.195273" y="361.645447" style="fill: #ff0000; stroke: #ff0000; stroke-linejoin: bevel"/>
     <use xlink:href="#m826c818a35" x="616.428" y="341.393338" style="fill: #ff0000; stroke: #ff0000; stroke-linejoin: bevel"/>
     <use xlink:href="#m826c818a35" x="620.486182" y="339.967133" style="fill: #ff0000; stroke: #ff0000; stroke-linejoin: bevel"/>
     <use xlink:href="#m826c818a35" x="624.544364" y="341.108097" style="fill: #ff0000; stroke: #ff0000; stroke-linejoin: bevel"/>
     <use xlink:href="#m826c818a35" x="628.602545" y="298.179329" style="fill: #ff0000; stroke: #ff0000; stroke-linejoin: bevel"/>
     <use xlink:href="#m826c818a35" x="632.660727" y="362.786411" style="fill: #ff0000; stroke: #ff0000; stroke-linejoin: bevel"/>
     <use xlink:href="#m826c818a35" x="652.951636" y="321.71171" style="fill: #ff0000; stroke: #ff0000; stroke-linejoin: bevel"/>
     <use xlink:href="#m826c818a35" x="697.591636" y="294.328576" style="fill: #ff0000; stroke: #ff0000; stroke-linejoin: bevel"/>
     <use xlink:href="#m826c818a35" x="717.882545" y="347.383398" style="fill: #ff0000; stroke: #ff0000; stroke-linejoin: bevel"/>
     <use xlink:href="#m826c818a35" x="721.940727" y="347.383398" style="fill: #ff0000; stroke: #ff0000; stroke-linejoin: bevel"/>
     <use xlink:href="#m826c818a35" x="730.057091" y="362.786411" style="fill: #ff0000; stroke: #ff0000; stroke-linejoin: bevel"/>
     <use xlink:href="#m826c818a35" x="742.231636" y="340.537615" style="fill: #ff0000; stroke: #ff0000; stroke-linejoin: bevel"/>
     <use xlink:href="#m826c818a35" x="794.988" y="381.612316" style="fill: #ff0000; stroke: #ff0000; stroke-linejoin: bevel"/>
     <use xlink:href="#m826c818a35" x="928.908" y="88.384587" style="fill: #ff0000; stroke: #ff0000; stroke-linejoin: bevel"/>
     <use xlink:href="#m826c818a35" x="932.966182" y="116.338203" style="fill: #ff0000; stroke: #ff0000; stroke-linejoin: bevel"/>
    </g>
   </g>
   <g id="patch_3">
    <path d="M 80.748 622.6035 
L 80.748 35.0835 
" style="fill: none; stroke: #000000; stroke-width: 0.8; stroke-linejoin: miter; stroke-linecap: square"/>
   </g>
   <g id="patch_4">
    <path d="M 973.548 622.6035 
L 973.548 35.0835 
" style="fill: none; stroke: #000000; stroke-width: 0.8; stroke-linejoin: miter; stroke-linecap: square"/>
   </g>
   <g id="patch_5">
    <path d="M 80.748 622.6035 
L 973.548 622.6035 
" style="fill: none; stroke: #000000; stroke-width: 0.8; stroke-linejoin: miter; stroke-linecap: square"/>
   </g>
   <g id="patch_6">
    <path d="M 80.748 35.0835 
L 973.548 35.0835 
" style="fill: none; stroke: #000000; stroke-width: 0.8; stroke-linejoin: miter; stroke-linecap: square"/>
   </g>
   <g id="text_17">
    <!-- Body Muscle Mass -->
    <g transform="translate(395.55675 29.0835) scale(0.288 -0.288)">
     <defs>
      <path id="DejaVuSans-42" d="M 1259 2228 
L 1259 519 
L 2272 519 
Q 2781 519 3026 730 
Q 3272 941 3272 1375 
Q 3272 1813 3026 2020 
Q 2781 2228 2272 2228 
L 1259 2228 
z
M 1259 4147 
L 1259 2741 
L 2194 2741 
Q 2656 2741 2882 2914 
Q 3109 3088 3109 3444 
Q 3109 3797 2882 3972 
Q 2656 4147 2194 4147 
L 1259 4147 
z
M 628 4666 
L 2241 4666 
Q 2963 4666 3353 4366 
Q 3744 4066 3744 3513 
Q 3744 3084 3544 2831 
Q 3344 2578 2956 2516 
Q 3422 2416 3680 2098 
Q 3938 1781 3938 1306 
Q 3938 681 3513 340 
Q 3088 0 2303 0 
L 628 0 
L 628 4666 
z
" transform="scale(0.015625)"/>
      <path id="DejaVuSans-6f" d="M 1959 3097 
Q 1497 3097 1228 2736 
Q 959 2375 959 1747 
Q 959 1119 1226 758 
Q 1494 397 1959 397 
Q 2419 397 2687 759 
Q 2956 1122 2956 1747 
Q 2956 2369 2687 2733 
Q 2419 3097 1959 3097 
z
M 1959 3584 
Q 2709 3584 3137 3096 
Q 3566 2609 3566 1747 
Q 3566 888 3137 398 
Q 2709 -91 1959 -91 
Q 1206 -91 779 398 
Q 353 888 353 1747 
Q 353 2609 779 3096 
Q 1206 3584 1959 3584 
z
" transform="scale(0.015625)"/>
      <path id="DejaVuSans-64" d="M 2906 2969 
L 2906 4863 
L 3481 4863 
L 3481 0 
L 2906 0 
L 2906 525 
Q 2725 213 2448 61 
Q 2172 -91 1784 -91 
Q 1150 -91 751 415 
Q 353 922 353 1747 
Q 353 2572 751 3078 
Q 1150 3584 1784 3584 
Q 2172 3584 2448 3432 
Q 2725 3281 2906 2969 
z
M 947 1747 
Q 947 1113 1208 752 
Q 1469 391 1925 391 
Q 2381 391 2643 752 
Q 2906 1113 2906 1747 
Q 2906 2381 2643 2742 
Q 2381 3103 1925 3103 
Q 1469 3103 1208 2742 
Q 947 2381 947 1747 
z
" transform="scale(0.015625)"/>
      <path id="DejaVuSans-79" d="M 2059 -325 
Q 1816 -950 1584 -1140 
Q 1353 -1331 966 -1331 
L 506 -1331 
L 506 -850 
L 844 -850 
Q 1081 -850 1212 -737 
Q 1344 -625 1503 -206 
L 1606 56 
L 191 3500 
L 800 3500 
L 1894 763 
L 2988 3500 
L 3597 3500 
L 2059 -325 
z
" transform="scale(0.015625)"/>
     </defs>
     <use xlink:href="#DejaVuSans-42"/>
     <use xlink:href="#DejaVuSans-6f" x="68.603516"/>
     <use xlink:href="#DejaVuSans-64" x="129.785156"/>
     <use xlink:href="#DejaVuSans-79" x="193.261719"/>
     <use xlink:href="#DejaVuSans-20" x="252.441406"/>
     <use xlink:href="#DejaVuSans-4d" x="284.228516"/>
     <use xlink:href="#DejaVuSans-75" x="370.507812"/>
     <use xlink:href="#DejaVuSans-73" x="433.886719"/>
     <use xlink:href="#DejaVuSans-63" x="485.986328"/>
     <use xlink:href="#DejaVuSans-6c" x="540.966797"/>
     <use xlink:href="#DejaVuSans-65" x="568.75"/>
     <use xlink:href="#DejaVuSans-20" x="630.273438"/>
     <use xlink:href="#DejaVuSans-4d" x="662.060547"/>
     <use xlink:href="#DejaVuSans-61" x="748.339844"/>
     <use xlink:href="#DejaVuSans-73" x="809.619141"/>
     <use xlink:href="#DejaVuSans-73" x="861.71875"/>
    </g>
   </g>
  </g>
 </g>
 <defs>
  <clipPath id="pbc6923b1e5">
   <rect x="80.748" y="35.0835" width="892.8" height="587.52"/>
  </clipPath>
 </defs>
</svg>
