<?xml version="1.0" encoding="utf-8" standalone="no"?>
<!DOCTYPE svg PUBLIC "-//W3C//DTD SVG 1.1//EN"
  "http://www.w3.org/Graphics/SVG/1.1/DTD/svg11.dtd">
<svg xmlns:xlink="http://www.w3.org/1999/xlink" width="980.748pt" height="700.466504pt" viewBox="0 0 980.748 700.466504" xmlns="http://www.w3.org/2000/svg" version="1.1">
 <metadata>
  <rdf:RDF xmlns:dc="http://purl.org/dc/elements/1.1/" xmlns:cc="http://creativecommons.org/ns#" xmlns:rdf="http://www.w3.org/1999/02/22-rdf-syntax-ns#">
   <cc:Work>
    <dc:type rdf:resource="http://purl.org/dc/dcmitype/StillImage"/>
    <dc:date>2025-02-07T19:17:06.593256</dc:date>
    <dc:format>image/svg+xml</dc:format>
    <dc:creator>
     <cc:Agent>
      <dc:title>Matplotlib v3.10.0, https://matplotlib.org/</dc:title>
     </cc:Agent>
    </dc:creator>
   </cc:Work>
  </rdf:RDF>
 </metadata>
 <defs>
  <style type="text/css">*{stroke-linejoin: round; stroke-linecap: butt}</style>
 </defs>
 <g id="figure_1">
  <g id="patch_1">
   <path d="M 0 700.466504 
L 980.748 700.466504 
L 980.748 0 
L 0 0 
z
" style="fill: #ffffff"/>
  </g>
  <g id="axes_1">
   <g id="patch_2">
    <path d="M 80.748 622.6035 
L 973.548 622.6035 
L 973.548 35.0835 
L 80.748 35.0835 
z
" style="fill: #ffffff"/>
   </g>
   <g id="FillBetweenPolyCollection_1">
    <defs>
     <path id="m58f7580e40" d="M 121.329818 -319.026226 
L 121.329818 -271.279438 
L 127.409491 -104.568459 
L 130.449328 -280.338802 
L 133.489164 -294.557421 
L 136.529001 -328.514982 
L 139.568838 -261.402026 
L 142.608674 -292.947408 
L 145.648511 -291.940096 
L 148.688347 -295.126442 
L 151.728184 -335.443213 
L 154.76802 -290.85544 
L 157.807857 -259.397554 
L 160.847694 -329.239732 
L 163.88753 -317.852244 
L 166.927367 -281.65925 
L 169.967203 -304.104357 
L 173.00704 -316.381334 
L 176.046876 -336.428989 
L 179.086713 -355.797823 
L 182.12655 -343.736474 
L 185.166386 -341.693412 
L 188.206223 -323.03251 
L 191.246059 -301.722421 
L 194.285896 -299.700446 
L 197.325732 -309.673985 
L 200.365569 -306.82094 
L 203.405406 -329.241234 
L 206.445242 -370.219134 
L 209.485079 -330.643255 
L 212.524915 -310.779382 
L 215.564752 -339.77615 
L 218.604588 -358.312892 
L 221.644425 -354.997642 
L 224.684261 -380.605143 
L 227.724098 -402.184266 
L 230.763935 -383.750211 
L 233.803771 -355.990513 
L 236.843608 -376.490003 
L 239.883444 -384.425859 
L 242.923281 -400.964596 
L 245.963117 -375.57421 
L 249.002954 -352.460727 
L 252.042791 -350.301809 
L 255.082627 -394.743636 
L 258.122464 -343.581523 
L 261.1623 -333.180171 
L 264.202137 -388.484924 
L 267.241973 -407.511788 
L 270.28181 -424.441108 
L 273.321647 -385.423341 
L 276.361483 -403.706415 
L 279.40132 -376.38864 
L 282.441156 -416.094709 
L 285.480993 -439.300366 
L 288.520829 -445.992396 
L 291.560666 -428.821876 
L 294.600503 -422.057886 
L 297.640339 -453.937337 
L 300.680176 -428.024184 
L 303.720012 -417.920398 
L 306.759849 -423.074345 
L 309.799685 -426.538653 
L 312.839522 -370.219134 
L 315.879359 -395.080903 
L 318.919195 -452.415188 
L 321.959032 -428.470785 
L 324.998868 -441.042103 
L 328.038705 -382.516552 
L 331.078541 -393.812446 
L 334.118378 -400.154734 
L 337.158215 -394.724907 
L 340.198051 -416.095774 
L 343.237888 -438.715846 
L 346.277724 -407.744349 
L 349.317561 -413.854076 
L 352.357397 -422.962736 
L 355.397234 -432.157289 
L 358.43707 -419.688981 
L 361.476907 -426.538653 
L 364.516744 -450.412046 
L 370.596417 -391.529222 
L 373.636253 -379.869008 
L 376.67609 -412.233034 
L 379.715926 -402.184266 
L 394.915109 -399.139968 
L 397.954946 -394.57352 
L 400.994782 -331.108184 
L 404.034619 -392.543988 
L 407.074456 -353.475493 
L 419.233802 -351.953344 
L 422.273638 -345.864747 
L 425.313475 -385.440625 
L 446.592331 -349.836466 
L 449.632168 -345.103673 
L 452.672004 -343.835215 
L 455.711841 -342.93815 
L 458.751677 -398.378893 
L 461.791514 -341.2983 
L 464.83135 -335.209703 
L 467.871187 -345.864747 
L 470.911023 -307.811018 
L 473.95086 -320.052025 
L 476.990697 -288.023079 
L 480.030533 -289.037845 
L 492.189879 -307.049943 
L 495.229716 -308.318401 
L 498.269553 -307.303635 
L 501.309389 -350.610589 
L 504.349226 -288.023079 
L 519.548409 -324.554659 
L 552.986611 -348.909045 
L 568.185794 -301.722421 
L 571.22563 -301.722421 
L 577.305303 -288.023079 
L 586.424813 -307.811018 
L 625.942688 -271.279438 
L 726.257295 -532.074328 
L 729.297132 -506.291076 
L 732.336968 -556.836079 
L 735.376805 -533.089094 
L 738.416641 -539.17769 
L 744.496315 -438.715846 
L 747.536151 -499.601812 
L 875.209287 -575.70927 
L 926.886509 -590.930762 
L 929.926345 -534.10386 
L 932.966182 -550.828625 
L 932.966182 -607.746059 
L 932.966182 -607.746059 
L 929.926345 -581.850648 
L 926.886509 -638.67755 
L 875.209287 -623.456058 
L 747.536151 -547.3486 
L 744.496315 -486.462634 
L 738.416641 -586.924478 
L 735.376805 -580.835882 
L 732.336968 -593.620476 
L 729.297132 -590.890259 
L 726.257295 -579.821115 
L 625.942688 -319.026226 
L 586.424813 -355.557806 
L 577.305303 -335.769867 
L 571.22563 -349.469209 
L 568.185794 -349.469209 
L 552.986611 -396.655833 
L 519.548409 -372.301447 
L 504.349226 -335.769867 
L 501.309389 -388.104618 
L 498.269553 -355.050423 
L 495.229716 -356.065189 
L 492.189879 -354.796731 
L 480.030533 -336.784633 
L 476.990697 -335.769867 
L 473.95086 -430.079301 
L 470.911023 -355.557806 
L 467.871187 -393.611535 
L 464.83135 -382.956491 
L 461.791514 -389.045087 
L 458.751677 -446.125681 
L 455.711841 -380.555565 
L 452.672004 -391.582003 
L 449.632168 -392.85046 
L 446.592331 -380.506921 
L 425.313475 -433.187413 
L 422.273638 -393.611535 
L 419.233802 -399.700131 
L 407.074456 -401.222281 
L 404.034619 -440.290776 
L 400.994782 -404.562725 
L 397.954946 -442.320308 
L 394.915109 -446.886755 
L 379.715926 -449.931054 
L 376.67609 -463.729289 
L 373.636253 -439.976749 
L 370.596417 -439.27601 
L 364.516744 -477.810731 
L 361.476907 -474.28544 
L 358.43707 -467.435769 
L 355.397234 -478.814465 
L 352.357397 -445.896225 
L 349.317561 -461.600864 
L 346.277724 -456.548164 
L 343.237888 -486.462634 
L 340.198051 -479.654489 
L 337.158215 -469.567606 
L 334.118378 -447.901522 
L 331.078541 -441.559233 
L 328.038705 -493.19208 
L 324.998868 -494.139071 
L 321.959032 -474.179887 
L 318.919195 -500.161976 
L 315.879359 -442.827691 
L 312.839522 -417.965921 
L 309.799685 -474.28544 
L 306.759849 -461.006107 
L 303.720012 -444.849966 
L 300.680176 -456.360698 
L 297.640339 -501.684125 
L 294.600503 -494.596558 
L 291.560666 -476.568664 
L 288.520829 -517.747196 
L 285.480993 -493.706309 
L 282.441156 -467.47836 
L 279.40132 -453.655517 
L 276.361483 -451.453203 
L 273.321647 -414.938908 
L 270.28181 -436.807107 
L 267.241973 -455.258576 
L 264.202137 -436.231711 
L 261.1623 -380.926958 
L 258.122464 -391.328311 
L 255.082627 -418.55688 
L 252.042791 -385.3691 
L 249.002954 -400.207515 
L 245.963117 -430.876635 
L 242.923281 -439.734605 
L 239.883444 -432.172647 
L 236.843608 -444.573474 
L 233.803771 -420.017349 
L 230.763935 -415.850962 
L 227.724098 -449.931054 
L 224.684261 -405.753333 
L 221.644425 -402.74443 
L 218.604588 -396.384882 
L 215.564752 -387.522938 
L 212.524915 -371.464092 
L 209.485079 -378.390043 
L 206.445242 -417.965921 
L 203.405406 -401.102153 
L 200.365569 -382.42442 
L 197.325732 -362.06666 
L 194.285896 -376.606646 
L 191.246059 -349.469209 
L 188.206223 -370.779297 
L 185.166386 -356.684843 
L 182.12655 -353.119632 
L 179.086713 -360.846221 
L 176.046876 -365.906853 
L 173.00704 -376.415707 
L 169.967203 -356.981243 
L 166.927367 -330.717577 
L 163.88753 -366.826668 
L 160.847694 -345.545211 
L 157.807857 -297.420828 
L 154.76802 -343.28812 
L 151.728184 -370.038404 
L 148.688347 -342.873229 
L 145.648511 -333.374998 
L 142.608674 -326.786473 
L 139.568838 -286.283462 
L 136.529001 -337.89814 
L 133.489164 -304.881139 
L 130.449328 -323.448755 
L 127.409491 -246.759787 
L 121.329818 -319.026226 
z
" style="stroke: #ff0000; stroke-opacity: 0.2"/>
    </defs>
    <g clip-path="url(#p631fe91973)">
     <use xlink:href="#m58f7580e40" x="0" y="700.466504" style="fill: #ff0000; fill-opacity: 0.2; stroke: #ff0000; stroke-opacity: 0.2"/>
    </g>
   </g>
   <g id="matplotlib.axis_1">
    <g id="xtick_1">
     <g id="line2d_1">
      <path d="M 124.369655 622.6035 
L 124.369655 35.0835 
" clip-path="url(#p631fe91973)" style="fill: none; stroke: #a5a391; stroke-opacity: 0.3; stroke-width: 0.8; stroke-linecap: square"/>
     </g>
     <g id="line2d_2">
      <defs>
       <path id="mf0fd3faf9d" d="M 0 0 
L 0 -3.5 
" style="stroke: #000000; stroke-width: 0.8"/>
      </defs>
      <g>
       <use xlink:href="#mf0fd3faf9d" x="124.369655" y="622.6035" style="stroke: #000000; stroke-width: 0.8"/>
      </g>
     </g>
     <g id="text_1">
      <!-- Jan 01, 20 -->
      <g transform="translate(34.994607 689.66438) rotate(-30) scale(0.2 -0.2)">
       <defs>
        <path id="DejaVuSans-4a" d="M 628 4666 
L 1259 4666 
L 1259 325 
Q 1259 -519 939 -900 
Q 619 -1281 -91 -1281 
L -331 -1281 
L -331 -750 
L -134 -750 
Q 284 -750 456 -515 
Q 628 -281 628 325 
L 628 4666 
z
" transform="scale(0.015625)"/>
        <path id="DejaVuSans-61" d="M 2194 1759 
Q 1497 1759 1228 1600 
Q 959 1441 959 1056 
Q 959 750 1161 570 
Q 1363 391 1709 391 
Q 2188 391 2477 730 
Q 2766 1069 2766 1631 
L 2766 1759 
L 2194 1759 
z
M 3341 1997 
L 3341 0 
L 2766 0 
L 2766 531 
Q 2569 213 2275 61 
Q 1981 -91 1556 -91 
Q 1019 -91 701 211 
Q 384 513 384 1019 
Q 384 1609 779 1909 
Q 1175 2209 1959 2209 
L 2766 2209 
L 2766 2266 
Q 2766 2663 2505 2880 
Q 2244 3097 1772 3097 
Q 1472 3097 1187 3025 
Q 903 2953 641 2809 
L 641 3341 
Q 956 3463 1253 3523 
Q 1550 3584 1831 3584 
Q 2591 3584 2966 3190 
Q 3341 2797 3341 1997 
z
" transform="scale(0.015625)"/>
        <path id="DejaVuSans-6e" d="M 3513 2113 
L 3513 0 
L 2938 0 
L 2938 2094 
Q 2938 2591 2744 2837 
Q 2550 3084 2163 3084 
Q 1697 3084 1428 2787 
Q 1159 2491 1159 1978 
L 1159 0 
L 581 0 
L 581 3500 
L 1159 3500 
L 1159 2956 
Q 1366 3272 1645 3428 
Q 1925 3584 2291 3584 
Q 2894 3584 3203 3211 
Q 3513 2838 3513 2113 
z
" transform="scale(0.015625)"/>
        <path id="DejaVuSans-20" transform="scale(0.015625)"/>
        <path id="DejaVuSans-30" d="M 2034 4250 
Q 1547 4250 1301 3770 
Q 1056 3291 1056 2328 
Q 1056 1369 1301 889 
Q 1547 409 2034 409 
Q 2525 409 2770 889 
Q 3016 1369 3016 2328 
Q 3016 3291 2770 3770 
Q 2525 4250 2034 4250 
z
M 2034 4750 
Q 2819 4750 3233 4129 
Q 3647 3509 3647 2328 
Q 3647 1150 3233 529 
Q 2819 -91 2034 -91 
Q 1250 -91 836 529 
Q 422 1150 422 2328 
Q 422 3509 836 4129 
Q 1250 4750 2034 4750 
z
" transform="scale(0.015625)"/>
        <path id="DejaVuSans-31" d="M 794 531 
L 1825 531 
L 1825 4091 
L 703 3866 
L 703 4441 
L 1819 4666 
L 2450 4666 
L 2450 531 
L 3481 531 
L 3481 0 
L 794 0 
L 794 531 
z
" transform="scale(0.015625)"/>
        <path id="DejaVuSans-2c" d="M 750 794 
L 1409 794 
L 1409 256 
L 897 -744 
L 494 -744 
L 750 256 
L 750 794 
z
" transform="scale(0.015625)"/>
        <path id="DejaVuSans-32" d="M 1228 531 
L 3431 531 
L 3431 0 
L 469 0 
L 469 531 
Q 828 903 1448 1529 
Q 2069 2156 2228 2338 
Q 2531 2678 2651 2914 
Q 2772 3150 2772 3378 
Q 2772 3750 2511 3984 
Q 2250 4219 1831 4219 
Q 1534 4219 1204 4116 
Q 875 4013 500 3803 
L 500 4441 
Q 881 4594 1212 4672 
Q 1544 4750 1819 4750 
Q 2544 4750 2975 4387 
Q 3406 4025 3406 3419 
Q 3406 3131 3298 2873 
Q 3191 2616 2906 2266 
Q 2828 2175 2409 1742 
Q 1991 1309 1228 531 
z
" transform="scale(0.015625)"/>
       </defs>
       <use xlink:href="#DejaVuSans-4a"/>
       <use xlink:href="#DejaVuSans-61" transform="translate(29.492188 0)"/>
       <use xlink:href="#DejaVuSans-6e" transform="translate(90.771484 0)"/>
       <use xlink:href="#DejaVuSans-20" transform="translate(154.150391 0)"/>
       <use xlink:href="#DejaVuSans-30" transform="translate(185.9375 0)"/>
       <use xlink:href="#DejaVuSans-31" transform="translate(249.560547 0)"/>
       <use xlink:href="#DejaVuSans-2c" transform="translate(313.183594 0)"/>
       <use xlink:href="#DejaVuSans-20" transform="translate(344.970703 0)"/>
       <use xlink:href="#DejaVuSans-32" transform="translate(376.757812 0)"/>
       <use xlink:href="#DejaVuSans-30" transform="translate(440.380859 0)"/>
      </g>
     </g>
    </g>
    <g id="xtick_2">
     <g id="line2d_3">
      <path d="M 283.309681 622.6035 
L 283.309681 35.0835 
" clip-path="url(#p631fe91973)" style="fill: none; stroke: #a5a391; stroke-opacity: 0.3; stroke-width: 0.8; stroke-linecap: square"/>
     </g>
     <g id="line2d_4">
      <g>
       <use xlink:href="#mf0fd3faf9d" x="283.309681" y="622.6035" style="stroke: #000000; stroke-width: 0.8"/>
      </g>
     </g>
     <g id="text_2">
      <!-- Jan 01, 21 -->
      <g transform="translate(193.934633 689.66438) rotate(-30) scale(0.2 -0.2)">
       <use xlink:href="#DejaVuSans-4a"/>
       <use xlink:href="#DejaVuSans-61" transform="translate(29.492188 0)"/>
       <use xlink:href="#DejaVuSans-6e" transform="translate(90.771484 0)"/>
       <use xlink:href="#DejaVuSans-20" transform="translate(154.150391 0)"/>
       <use xlink:href="#DejaVuSans-30" transform="translate(185.9375 0)"/>
       <use xlink:href="#DejaVuSans-31" transform="translate(249.560547 0)"/>
       <use xlink:href="#DejaVuSans-2c" transform="translate(313.183594 0)"/>
       <use xlink:href="#DejaVuSans-20" transform="translate(344.970703 0)"/>
       <use xlink:href="#DejaVuSans-32" transform="translate(376.757812 0)"/>
       <use xlink:href="#DejaVuSans-31" transform="translate(440.380859 0)"/>
      </g>
     </g>
    </g>
    <g id="xtick_3">
     <g id="line2d_5">
      <path d="M 441.815445 622.6035 
L 441.815445 35.0835 
" clip-path="url(#p631fe91973)" style="fill: none; stroke: #a5a391; stroke-opacity: 0.3; stroke-width: 0.8; stroke-linecap: square"/>
     </g>
     <g id="line2d_6">
      <g>
       <use xlink:href="#mf0fd3faf9d" x="441.815445" y="622.6035" style="stroke: #000000; stroke-width: 0.8"/>
      </g>
     </g>
     <g id="text_3">
      <!-- Jan 01, 22 -->
      <g transform="translate(352.440397 689.66438) rotate(-30) scale(0.2 -0.2)">
       <use xlink:href="#DejaVuSans-4a"/>
       <use xlink:href="#DejaVuSans-61" transform="translate(29.492188 0)"/>
       <use xlink:href="#DejaVuSans-6e" transform="translate(90.771484 0)"/>
       <use xlink:href="#DejaVuSans-20" transform="translate(154.150391 0)"/>
       <use xlink:href="#DejaVuSans-30" transform="translate(185.9375 0)"/>
       <use xlink:href="#DejaVuSans-31" transform="translate(249.560547 0)"/>
       <use xlink:href="#DejaVuSans-2c" transform="translate(313.183594 0)"/>
       <use xlink:href="#DejaVuSans-20" transform="translate(344.970703 0)"/>
       <use xlink:href="#DejaVuSans-32" transform="translate(376.757812 0)"/>
       <use xlink:href="#DejaVuSans-32" transform="translate(440.380859 0)"/>
      </g>
     </g>
    </g>
    <g id="xtick_4">
     <g id="line2d_7">
      <path d="M 600.321209 622.6035 
L 600.321209 35.0835 
" clip-path="url(#p631fe91973)" style="fill: none; stroke: #a5a391; stroke-opacity: 0.3; stroke-width: 0.8; stroke-linecap: square"/>
     </g>
     <g id="line2d_8">
      <g>
       <use xlink:href="#mf0fd3faf9d" x="600.321209" y="622.6035" style="stroke: #000000; stroke-width: 0.8"/>
      </g>
     </g>
     <g id="text_4">
      <!-- Jan 01, 23 -->
      <g transform="translate(510.946161 689.66438) rotate(-30) scale(0.2 -0.2)">
       <defs>
        <path id="DejaVuSans-33" d="M 2597 2516 
Q 3050 2419 3304 2112 
Q 3559 1806 3559 1356 
Q 3559 666 3084 287 
Q 2609 -91 1734 -91 
Q 1441 -91 1130 -33 
Q 819 25 488 141 
L 488 750 
Q 750 597 1062 519 
Q 1375 441 1716 441 
Q 2309 441 2620 675 
Q 2931 909 2931 1356 
Q 2931 1769 2642 2001 
Q 2353 2234 1838 2234 
L 1294 2234 
L 1294 2753 
L 1863 2753 
Q 2328 2753 2575 2939 
Q 2822 3125 2822 3475 
Q 2822 3834 2567 4026 
Q 2313 4219 1838 4219 
Q 1578 4219 1281 4162 
Q 984 4106 628 3988 
L 628 4550 
Q 988 4650 1302 4700 
Q 1616 4750 1894 4750 
Q 2613 4750 3031 4423 
Q 3450 4097 3450 3541 
Q 3450 3153 3228 2886 
Q 3006 2619 2597 2516 
z
" transform="scale(0.015625)"/>
       </defs>
       <use xlink:href="#DejaVuSans-4a"/>
       <use xlink:href="#DejaVuSans-61" transform="translate(29.492188 0)"/>
       <use xlink:href="#DejaVuSans-6e" transform="translate(90.771484 0)"/>
       <use xlink:href="#DejaVuSans-20" transform="translate(154.150391 0)"/>
       <use xlink:href="#DejaVuSans-30" transform="translate(185.9375 0)"/>
       <use xlink:href="#DejaVuSans-31" transform="translate(249.560547 0)"/>
       <use xlink:href="#DejaVuSans-2c" transform="translate(313.183594 0)"/>
       <use xlink:href="#DejaVuSans-20" transform="translate(344.970703 0)"/>
       <use xlink:href="#DejaVuSans-32" transform="translate(376.757812 0)"/>
       <use xlink:href="#DejaVuSans-33" transform="translate(440.380859 0)"/>
      </g>
     </g>
    </g>
    <g id="xtick_5">
     <g id="line2d_9">
      <path d="M 758.826973 622.6035 
L 758.826973 35.0835 
" clip-path="url(#p631fe91973)" style="fill: none; stroke: #a5a391; stroke-opacity: 0.3; stroke-width: 0.8; stroke-linecap: square"/>
     </g>
     <g id="line2d_10">
      <g>
       <use xlink:href="#mf0fd3faf9d" x="758.826973" y="622.6035" style="stroke: #000000; stroke-width: 0.8"/>
      </g>
     </g>
     <g id="text_5">
      <!-- Jan 01, 24 -->
      <g transform="translate(669.451925 689.66438) rotate(-30) scale(0.2 -0.2)">
       <defs>
        <path id="DejaVuSans-34" d="M 2419 4116 
L 825 1625 
L 2419 1625 
L 2419 4116 
z
M 2253 4666 
L 3047 4666 
L 3047 1625 
L 3713 1625 
L 3713 1100 
L 3047 1100 
L 3047 0 
L 2419 0 
L 2419 1100 
L 313 1100 
L 313 1709 
L 2253 4666 
z
" transform="scale(0.015625)"/>
       </defs>
       <use xlink:href="#DejaVuSans-4a"/>
       <use xlink:href="#DejaVuSans-61" transform="translate(29.492188 0)"/>
       <use xlink:href="#DejaVuSans-6e" transform="translate(90.771484 0)"/>
       <use xlink:href="#DejaVuSans-20" transform="translate(154.150391 0)"/>
       <use xlink:href="#DejaVuSans-30" transform="translate(185.9375 0)"/>
       <use xlink:href="#DejaVuSans-31" transform="translate(249.560547 0)"/>
       <use xlink:href="#DejaVuSans-2c" transform="translate(313.183594 0)"/>
       <use xlink:href="#DejaVuSans-20" transform="translate(344.970703 0)"/>
       <use xlink:href="#DejaVuSans-32" transform="translate(376.757812 0)"/>
       <use xlink:href="#DejaVuSans-34" transform="translate(440.380859 0)"/>
      </g>
     </g>
    </g>
    <g id="xtick_6">
     <g id="line2d_11">
      <path d="M 917.766999 622.6035 
L 917.766999 35.0835 
" clip-path="url(#p631fe91973)" style="fill: none; stroke: #a5a391; stroke-opacity: 0.3; stroke-width: 0.8; stroke-linecap: square"/>
     </g>
     <g id="line2d_12">
      <g>
       <use xlink:href="#mf0fd3faf9d" x="917.766999" y="622.6035" style="stroke: #000000; stroke-width: 0.8"/>
      </g>
     </g>
     <g id="text_6">
      <!-- Jan 01, 25 -->
      <g transform="translate(828.391951 689.66438) rotate(-30) scale(0.2 -0.2)">
       <defs>
        <path id="DejaVuSans-35" d="M 691 4666 
L 3169 4666 
L 3169 4134 
L 1269 4134 
L 1269 2991 
Q 1406 3038 1543 3061 
Q 1681 3084 1819 3084 
Q 2600 3084 3056 2656 
Q 3513 2228 3513 1497 
Q 3513 744 3044 326 
Q 2575 -91 1722 -91 
Q 1428 -91 1123 -41 
Q 819 9 494 109 
L 494 744 
Q 775 591 1075 516 
Q 1375 441 1709 441 
Q 2250 441 2565 725 
Q 2881 1009 2881 1497 
Q 2881 1984 2565 2268 
Q 2250 2553 1709 2553 
Q 1456 2553 1204 2497 
Q 953 2441 691 2322 
L 691 4666 
z
" transform="scale(0.015625)"/>
       </defs>
       <use xlink:href="#DejaVuSans-4a"/>
       <use xlink:href="#DejaVuSans-61" transform="translate(29.492188 0)"/>
       <use xlink:href="#DejaVuSans-6e" transform="translate(90.771484 0)"/>
       <use xlink:href="#DejaVuSans-20" transform="translate(154.150391 0)"/>
       <use xlink:href="#DejaVuSans-30" transform="translate(185.9375 0)"/>
       <use xlink:href="#DejaVuSans-31" transform="translate(249.560547 0)"/>
       <use xlink:href="#DejaVuSans-2c" transform="translate(313.183594 0)"/>
       <use xlink:href="#DejaVuSans-20" transform="translate(344.970703 0)"/>
       <use xlink:href="#DejaVuSans-32" transform="translate(376.757812 0)"/>
       <use xlink:href="#DejaVuSans-35" transform="translate(440.380859 0)"/>
      </g>
     </g>
    </g>
   </g>
   <g id="matplotlib.axis_2">
    <g id="ytick_1">
     <g id="line2d_13">
      <path d="M 80.748 552.962141 
L 973.548 552.962141 
" clip-path="url(#p631fe91973)" style="fill: none; stroke: #a5a391; stroke-opacity: 0.3; stroke-width: 0.8; stroke-linecap: square"/>
     </g>
     <g id="line2d_14">
      <defs>
       <path id="m24ca662e2b" d="M 0 0 
L 3.5 0 
" style="stroke: #000000; stroke-width: 0.8"/>
      </defs>
      <g>
       <use xlink:href="#m24ca662e2b" x="80.748" y="552.962141" style="stroke: #000000; stroke-width: 0.8"/>
      </g>
     </g>
     <g id="text_7">
      <!-- 110 -->
      <g transform="translate(39.073 560.560578) scale(0.2 -0.2)">
       <use xlink:href="#DejaVuSans-31"/>
       <use xlink:href="#DejaVuSans-31" transform="translate(63.623047 0)"/>
       <use xlink:href="#DejaVuSans-30" transform="translate(127.246094 0)"/>
      </g>
     </g>
    </g>
    <g id="ytick_2">
     <g id="line2d_15">
      <path d="M 80.748 476.854683 
L 973.548 476.854683 
" clip-path="url(#p631fe91973)" style="fill: none; stroke: #a5a391; stroke-opacity: 0.3; stroke-width: 0.8; stroke-linecap: square"/>
     </g>
     <g id="line2d_16">
      <g>
       <use xlink:href="#m24ca662e2b" x="80.748" y="476.854683" style="stroke: #000000; stroke-width: 0.8"/>
      </g>
     </g>
     <g id="text_8">
      <!-- 115 -->
      <g transform="translate(39.073 484.45312) scale(0.2 -0.2)">
       <use xlink:href="#DejaVuSans-31"/>
       <use xlink:href="#DejaVuSans-31" transform="translate(63.623047 0)"/>
       <use xlink:href="#DejaVuSans-35" transform="translate(127.246094 0)"/>
      </g>
     </g>
    </g>
    <g id="ytick_3">
     <g id="line2d_17">
      <path d="M 80.748 400.747225 
L 973.548 400.747225 
" clip-path="url(#p631fe91973)" style="fill: none; stroke: #a5a391; stroke-opacity: 0.3; stroke-width: 0.8; stroke-linecap: square"/>
     </g>
     <g id="line2d_18">
      <g>
       <use xlink:href="#m24ca662e2b" x="80.748" y="400.747225" style="stroke: #000000; stroke-width: 0.8"/>
      </g>
     </g>
     <g id="text_9">
      <!-- 120 -->
      <g transform="translate(39.073 408.345662) scale(0.2 -0.2)">
       <use xlink:href="#DejaVuSans-31"/>
       <use xlink:href="#DejaVuSans-32" transform="translate(63.623047 0)"/>
       <use xlink:href="#DejaVuSans-30" transform="translate(127.246094 0)"/>
      </g>
     </g>
    </g>
    <g id="ytick_4">
     <g id="line2d_19">
      <path d="M 80.748 324.639767 
L 973.548 324.639767 
" clip-path="url(#p631fe91973)" style="fill: none; stroke: #a5a391; stroke-opacity: 0.3; stroke-width: 0.8; stroke-linecap: square"/>
     </g>
     <g id="line2d_20">
      <g>
       <use xlink:href="#m24ca662e2b" x="80.748" y="324.639767" style="stroke: #000000; stroke-width: 0.8"/>
      </g>
     </g>
     <g id="text_10">
      <!-- 125 -->
      <g transform="translate(39.073 332.238204) scale(0.2 -0.2)">
       <use xlink:href="#DejaVuSans-31"/>
       <use xlink:href="#DejaVuSans-32" transform="translate(63.623047 0)"/>
       <use xlink:href="#DejaVuSans-35" transform="translate(127.246094 0)"/>
      </g>
     </g>
    </g>
    <g id="ytick_5">
     <g id="line2d_21">
      <path d="M 80.748 248.532309 
L 973.548 248.532309 
" clip-path="url(#p631fe91973)" style="fill: none; stroke: #a5a391; stroke-opacity: 0.3; stroke-width: 0.8; stroke-linecap: square"/>
     </g>
     <g id="line2d_22">
      <g>
       <use xlink:href="#m24ca662e2b" x="80.748" y="248.532309" style="stroke: #000000; stroke-width: 0.8"/>
      </g>
     </g>
     <g id="text_11">
      <!-- 130 -->
      <g transform="translate(39.073 256.130746) scale(0.2 -0.2)">
       <use xlink:href="#DejaVuSans-31"/>
       <use xlink:href="#DejaVuSans-33" transform="translate(63.623047 0)"/>
       <use xlink:href="#DejaVuSans-30" transform="translate(127.246094 0)"/>
      </g>
     </g>
    </g>
    <g id="ytick_6">
     <g id="line2d_23">
      <path d="M 80.748 172.424851 
L 973.548 172.424851 
" clip-path="url(#p631fe91973)" style="fill: none; stroke: #a5a391; stroke-opacity: 0.3; stroke-width: 0.8; stroke-linecap: square"/>
     </g>
     <g id="line2d_24">
      <g>
       <use xlink:href="#m24ca662e2b" x="80.748" y="172.424851" style="stroke: #000000; stroke-width: 0.8"/>
      </g>
     </g>
     <g id="text_12">
      <!-- 135 -->
      <g transform="translate(39.073 180.023288) scale(0.2 -0.2)">
       <use xlink:href="#DejaVuSans-31"/>
       <use xlink:href="#DejaVuSans-33" transform="translate(63.623047 0)"/>
       <use xlink:href="#DejaVuSans-35" transform="translate(127.246094 0)"/>
      </g>
     </g>
    </g>
    <g id="ytick_7">
     <g id="line2d_25">
      <path d="M 80.748 96.317393 
L 973.548 96.317393 
" clip-path="url(#p631fe91973)" style="fill: none; stroke: #a5a391; stroke-opacity: 0.3; stroke-width: 0.8; stroke-linecap: square"/>
     </g>
     <g id="line2d_26">
      <g>
       <use xlink:href="#m24ca662e2b" x="80.748" y="96.317393" style="stroke: #000000; stroke-width: 0.8"/>
      </g>
     </g>
     <g id="text_13">
      <!-- 140 -->
      <g transform="translate(39.073 103.91583) scale(0.2 -0.2)">
       <use xlink:href="#DejaVuSans-31"/>
       <use xlink:href="#DejaVuSans-34" transform="translate(63.623047 0)"/>
       <use xlink:href="#DejaVuSans-30" transform="translate(127.246094 0)"/>
      </g>
     </g>
    </g>
    <g id="text_14">
     <!-- Muscle Mass [lbs] -->
     <g transform="translate(29.0835 455.9595) rotate(-90) scale(0.288 -0.288)">
      <defs>
       <path id="DejaVuSans-4d" d="M 628 4666 
L 1569 4666 
L 2759 1491 
L 3956 4666 
L 4897 4666 
L 4897 0 
L 4281 0 
L 4281 4097 
L 3078 897 
L 2444 897 
L 1241 4097 
L 1241 0 
L 628 0 
L 628 4666 
z
" transform="scale(0.015625)"/>
       <path id="DejaVuSans-75" d="M 544 1381 
L 544 3500 
L 1119 3500 
L 1119 1403 
Q 1119 906 1312 657 
Q 1506 409 1894 409 
Q 2359 409 2629 706 
Q 2900 1003 2900 1516 
L 2900 3500 
L 3475 3500 
L 3475 0 
L 2900 0 
L 2900 538 
Q 2691 219 2414 64 
Q 2138 -91 1772 -91 
Q 1169 -91 856 284 
Q 544 659 544 1381 
z
M 1991 3584 
L 1991 3584 
z
" transform="scale(0.015625)"/>
       <path id="DejaVuSans-73" d="M 2834 3397 
L 2834 2853 
Q 2591 2978 2328 3040 
Q 2066 3103 1784 3103 
Q 1356 3103 1142 2972 
Q 928 2841 928 2578 
Q 928 2378 1081 2264 
Q 1234 2150 1697 2047 
L 1894 2003 
Q 2506 1872 2764 1633 
Q 3022 1394 3022 966 
Q 3022 478 2636 193 
Q 2250 -91 1575 -91 
Q 1294 -91 989 -36 
Q 684 19 347 128 
L 347 722 
Q 666 556 975 473 
Q 1284 391 1588 391 
Q 1994 391 2212 530 
Q 2431 669 2431 922 
Q 2431 1156 2273 1281 
Q 2116 1406 1581 1522 
L 1381 1569 
Q 847 1681 609 1914 
Q 372 2147 372 2553 
Q 372 3047 722 3315 
Q 1072 3584 1716 3584 
Q 2034 3584 2315 3537 
Q 2597 3491 2834 3397 
z
" transform="scale(0.015625)"/>
       <path id="DejaVuSans-63" d="M 3122 3366 
L 3122 2828 
Q 2878 2963 2633 3030 
Q 2388 3097 2138 3097 
Q 1578 3097 1268 2742 
Q 959 2388 959 1747 
Q 959 1106 1268 751 
Q 1578 397 2138 397 
Q 2388 397 2633 464 
Q 2878 531 3122 666 
L 3122 134 
Q 2881 22 2623 -34 
Q 2366 -91 2075 -91 
Q 1284 -91 818 406 
Q 353 903 353 1747 
Q 353 2603 823 3093 
Q 1294 3584 2113 3584 
Q 2378 3584 2631 3529 
Q 2884 3475 3122 3366 
z
" transform="scale(0.015625)"/>
       <path id="DejaVuSans-6c" d="M 603 4863 
L 1178 4863 
L 1178 0 
L 603 0 
L 603 4863 
z
" transform="scale(0.015625)"/>
       <path id="DejaVuSans-65" d="M 3597 1894 
L 3597 1613 
L 953 1613 
Q 991 1019 1311 708 
Q 1631 397 2203 397 
Q 2534 397 2845 478 
Q 3156 559 3463 722 
L 3463 178 
Q 3153 47 2828 -22 
Q 2503 -91 2169 -91 
Q 1331 -91 842 396 
Q 353 884 353 1716 
Q 353 2575 817 3079 
Q 1281 3584 2069 3584 
Q 2775 3584 3186 3129 
Q 3597 2675 3597 1894 
z
M 3022 2063 
Q 3016 2534 2758 2815 
Q 2500 3097 2075 3097 
Q 1594 3097 1305 2825 
Q 1016 2553 972 2059 
L 3022 2063 
z
" transform="scale(0.015625)"/>
       <path id="DejaVuSans-5b" d="M 550 4863 
L 1875 4863 
L 1875 4416 
L 1125 4416 
L 1125 -397 
L 1875 -397 
L 1875 -844 
L 550 -844 
L 550 4863 
z
" transform="scale(0.015625)"/>
       <path id="DejaVuSans-62" d="M 3116 1747 
Q 3116 2381 2855 2742 
Q 2594 3103 2138 3103 
Q 1681 3103 1420 2742 
Q 1159 2381 1159 1747 
Q 1159 1113 1420 752 
Q 1681 391 2138 391 
Q 2594 391 2855 752 
Q 3116 1113 3116 1747 
z
M 1159 2969 
Q 1341 3281 1617 3432 
Q 1894 3584 2278 3584 
Q 2916 3584 3314 3078 
Q 3713 2572 3713 1747 
Q 3713 922 3314 415 
Q 2916 -91 2278 -91 
Q 1894 -91 1617 61 
Q 1341 213 1159 525 
L 1159 0 
L 581 0 
L 581 4863 
L 1159 4863 
L 1159 2969 
z
" transform="scale(0.015625)"/>
       <path id="DejaVuSans-5d" d="M 1947 4863 
L 1947 -844 
L 622 -844 
L 622 -397 
L 1369 -397 
L 1369 4416 
L 622 4416 
L 622 4863 
L 1947 4863 
z
" transform="scale(0.015625)"/>
      </defs>
      <use xlink:href="#DejaVuSans-4d"/>
      <use xlink:href="#DejaVuSans-75" transform="translate(86.279297 0)"/>
      <use xlink:href="#DejaVuSans-73" transform="translate(149.658203 0)"/>
      <use xlink:href="#DejaVuSans-63" transform="translate(201.757812 0)"/>
      <use xlink:href="#DejaVuSans-6c" transform="translate(256.738281 0)"/>
      <use xlink:href="#DejaVuSans-65" transform="translate(284.521484 0)"/>
      <use xlink:href="#DejaVuSans-20" transform="translate(346.044922 0)"/>
      <use xlink:href="#DejaVuSans-4d" transform="translate(377.832031 0)"/>
      <use xlink:href="#DejaVuSans-61" transform="translate(464.111328 0)"/>
      <use xlink:href="#DejaVuSans-73" transform="translate(525.390625 0)"/>
      <use xlink:href="#DejaVuSans-73" transform="translate(577.490234 0)"/>
      <use xlink:href="#DejaVuSans-20" transform="translate(629.589844 0)"/>
      <use xlink:href="#DejaVuSans-5b" transform="translate(661.376953 0)"/>
      <use xlink:href="#DejaVuSans-6c" transform="translate(700.390625 0)"/>
      <use xlink:href="#DejaVuSans-62" transform="translate(728.173828 0)"/>
      <use xlink:href="#DejaVuSans-73" transform="translate(791.650391 0)"/>
      <use xlink:href="#DejaVuSans-5d" transform="translate(843.75 0)"/>
     </g>
    </g>
   </g>
   <g id="line2d_27">
    <path d="M 121.329818 405.313672 
L 127.409491 524.802381 
L 130.449328 398.572726 
L 133.489164 400.747225 
L 136.529001 367.259943 
L 139.568838 426.62376 
L 142.608674 390.599564 
L 145.648511 387.808957 
L 148.688347 381.466669 
L 151.728184 347.725696 
L 154.76802 383.394724 
L 157.807857 422.057313 
L 160.847694 363.074033 
L 163.88753 358.127048 
L 166.927367 394.278091 
L 169.967203 369.923704 
L 173.00704 354.067984 
L 176.046876 349.298583 
L 179.086713 342.144482 
L 182.12655 352.038452 
L 185.166386 351.277377 
L 188.206223 353.560601 
L 191.246059 374.870689 
L 194.285896 362.312958 
L 197.325732 364.596182 
L 200.365569 355.843824 
L 203.405406 335.294811 
L 206.445242 306.373977 
L 209.485079 345.949855 
L 212.524915 359.344767 
L 215.564752 336.81696 
L 218.604588 323.117617 
L 221.644425 321.595468 
L 224.684261 307.287266 
L 227.724098 274.408844 
L 230.763935 300.665917 
L 233.803771 312.462573 
L 236.843608 289.934766 
L 239.883444 292.167251 
L 242.923281 280.116904 
L 245.963117 297.241082 
L 249.002954 324.132384 
L 252.042791 332.63105 
L 255.082627 293.816246 
L 258.122464 333.011587 
L 261.1623 343.41294 
L 264.202137 288.108187 
L 267.241973 269.081322 
L 270.28181 269.842397 
L 273.321647 300.28538 
L 276.361483 272.886695 
L 279.40132 285.444426 
L 282.441156 258.67997 
L 285.480993 233.963167 
L 288.520829 218.596708 
L 291.560666 247.771234 
L 294.600503 242.139282 
L 297.640339 222.655773 
L 300.680176 258.274063 
L 303.720012 269.081322 
L 306.759849 258.426278 
L 309.799685 250.054458 
L 312.839522 306.373977 
L 315.879359 281.512207 
L 318.919195 224.177922 
L 321.959032 249.141168 
L 324.998868 232.875917 
L 328.038705 262.612188 
L 331.078541 282.780665 
L 334.118378 276.438377 
L 337.158215 268.320248 
L 340.198051 252.591373 
L 343.237888 237.877264 
L 346.277724 268.320248 
L 349.317561 262.739034 
L 352.357397 266.037024 
L 355.397234 244.980627 
L 358.43707 256.904129 
L 361.476907 250.054458 
L 364.516744 236.355115 
L 370.596417 285.063888 
L 373.636253 290.543625 
L 376.67609 262.485343 
L 379.715926 274.408844 
L 394.915109 277.453143 
L 397.954946 282.01959 
L 400.994782 332.63105 
L 404.034619 284.049122 
L 407.074456 323.117617 
L 419.233802 324.639767 
L 422.273638 330.728363 
L 425.313475 291.152485 
L 446.592331 335.294811 
L 449.632168 331.489438 
L 452.672004 332.757895 
L 455.711841 338.719646 
L 458.751677 278.214217 
L 461.791514 335.294811 
L 464.83135 341.383407 
L 467.871187 330.728363 
L 470.911023 368.782092 
L 473.95086 325.400841 
L 476.990697 388.570031 
L 480.030533 387.555265 
L 492.189879 369.543167 
L 495.229716 368.274709 
L 498.269553 369.289475 
L 501.309389 331.108901 
L 504.349226 388.570031 
L 519.548409 352.038452 
L 552.986611 327.684065 
L 568.185794 374.870689 
L 571.22563 374.870689 
L 577.305303 388.570031 
L 586.424813 368.782092 
L 625.942688 405.313672 
L 726.257295 144.518783 
L 729.297132 151.875837 
L 732.336968 125.238227 
L 735.376805 143.504017 
L 738.416641 137.41542 
L 744.496315 237.877264 
L 747.536151 176.991298 
L 875.209287 100.88384 
L 926.886509 85.662348 
L 929.926345 142.48925 
L 932.966182 121.179162 
" clip-path="url(#p631fe91973)" style="fill: none; stroke: #ff0000; stroke-width: 1.5; stroke-linecap: square"/>
    <defs>
     <path id="m80df18abd5" d="M 0 -3 
L -0.673542 -0.927051 
L -2.85317 -0.927051 
L -1.089814 0.354102 
L -1.763356 2.427051 
L -0 1.145898 
L 1.763356 2.427051 
L 1.089814 0.354102 
L 2.85317 -0.927051 
L 0.673542 -0.927051 
z
" style="stroke: #ff0000; stroke-linejoin: bevel"/>
    </defs>
    <g clip-path="url(#p631fe91973)">
     <use xlink:href="#m80df18abd5" x="121.329818" y="405.313672" style="fill: #ff0000; stroke: #ff0000; stroke-linejoin: bevel"/>
     <use xlink:href="#m80df18abd5" x="127.409491" y="524.802381" style="fill: #ff0000; stroke: #ff0000; stroke-linejoin: bevel"/>
     <use xlink:href="#m80df18abd5" x="130.449328" y="398.572726" style="fill: #ff0000; stroke: #ff0000; stroke-linejoin: bevel"/>
     <use xlink:href="#m80df18abd5" x="133.489164" y="400.747225" style="fill: #ff0000; stroke: #ff0000; stroke-linejoin: bevel"/>
     <use xlink:href="#m80df18abd5" x="136.529001" y="367.259943" style="fill: #ff0000; stroke: #ff0000; stroke-linejoin: bevel"/>
     <use xlink:href="#m80df18abd5" x="139.568838" y="426.62376" style="fill: #ff0000; stroke: #ff0000; stroke-linejoin: bevel"/>
     <use xlink:href="#m80df18abd5" x="142.608674" y="390.599564" style="fill: #ff0000; stroke: #ff0000; stroke-linejoin: bevel"/>
     <use xlink:href="#m80df18abd5" x="145.648511" y="387.808957" style="fill: #ff0000; stroke: #ff0000; stroke-linejoin: bevel"/>
     <use xlink:href="#m80df18abd5" x="148.688347" y="381.466669" style="fill: #ff0000; stroke: #ff0000; stroke-linejoin: bevel"/>
     <use xlink:href="#m80df18abd5" x="151.728184" y="347.725696" style="fill: #ff0000; stroke: #ff0000; stroke-linejoin: bevel"/>
     <use xlink:href="#m80df18abd5" x="154.76802" y="383.394724" style="fill: #ff0000; stroke: #ff0000; stroke-linejoin: bevel"/>
     <use xlink:href="#m80df18abd5" x="157.807857" y="422.057313" style="fill: #ff0000; stroke: #ff0000; stroke-linejoin: bevel"/>
     <use xlink:href="#m80df18abd5" x="160.847694" y="363.074033" style="fill: #ff0000; stroke: #ff0000; stroke-linejoin: bevel"/>
     <use xlink:href="#m80df18abd5" x="163.88753" y="358.127048" style="fill: #ff0000; stroke: #ff0000; stroke-linejoin: bevel"/>
     <use xlink:href="#m80df18abd5" x="166.927367" y="394.278091" style="fill: #ff0000; stroke: #ff0000; stroke-linejoin: bevel"/>
     <use xlink:href="#m80df18abd5" x="169.967203" y="369.923704" style="fill: #ff0000; stroke: #ff0000; stroke-linejoin: bevel"/>
     <use xlink:href="#m80df18abd5" x="173.00704" y="354.067984" style="fill: #ff0000; stroke: #ff0000; stroke-linejoin: bevel"/>
     <use xlink:href="#m80df18abd5" x="176.046876" y="349.298583" style="fill: #ff0000; stroke: #ff0000; stroke-linejoin: bevel"/>
     <use xlink:href="#m80df18abd5" x="179.086713" y="342.144482" style="fill: #ff0000; stroke: #ff0000; stroke-linejoin: bevel"/>
     <use xlink:href="#m80df18abd5" x="182.12655" y="352.038452" style="fill: #ff0000; stroke: #ff0000; stroke-linejoin: bevel"/>
     <use xlink:href="#m80df18abd5" x="185.166386" y="351.277377" style="fill: #ff0000; stroke: #ff0000; stroke-linejoin: bevel"/>
     <use xlink:href="#m80df18abd5" x="188.206223" y="353.560601" style="fill: #ff0000; stroke: #ff0000; stroke-linejoin: bevel"/>
     <use xlink:href="#m80df18abd5" x="191.246059" y="374.870689" style="fill: #ff0000; stroke: #ff0000; stroke-linejoin: bevel"/>
     <use xlink:href="#m80df18abd5" x="194.285896" y="362.312958" style="fill: #ff0000; stroke: #ff0000; stroke-linejoin: bevel"/>
     <use xlink:href="#m80df18abd5" x="197.325732" y="364.596182" style="fill: #ff0000; stroke: #ff0000; stroke-linejoin: bevel"/>
     <use xlink:href="#m80df18abd5" x="200.365569" y="355.843824" style="fill: #ff0000; stroke: #ff0000; stroke-linejoin: bevel"/>
     <use xlink:href="#m80df18abd5" x="203.405406" y="335.294811" style="fill: #ff0000; stroke: #ff0000; stroke-linejoin: bevel"/>
     <use xlink:href="#m80df18abd5" x="206.445242" y="306.373977" style="fill: #ff0000; stroke: #ff0000; stroke-linejoin: bevel"/>
     <use xlink:href="#m80df18abd5" x="209.485079" y="345.949855" style="fill: #ff0000; stroke: #ff0000; stroke-linejoin: bevel"/>
     <use xlink:href="#m80df18abd5" x="212.524915" y="359.344767" style="fill: #ff0000; stroke: #ff0000; stroke-linejoin: bevel"/>
     <use xlink:href="#m80df18abd5" x="215.564752" y="336.81696" style="fill: #ff0000; stroke: #ff0000; stroke-linejoin: bevel"/>
     <use xlink:href="#m80df18abd5" x="218.604588" y="323.117617" style="fill: #ff0000; stroke: #ff0000; stroke-linejoin: bevel"/>
     <use xlink:href="#m80df18abd5" x="221.644425" y="321.595468" style="fill: #ff0000; stroke: #ff0000; stroke-linejoin: bevel"/>
     <use xlink:href="#m80df18abd5" x="224.684261" y="307.287266" style="fill: #ff0000; stroke: #ff0000; stroke-linejoin: bevel"/>
     <use xlink:href="#m80df18abd5" x="227.724098" y="274.408844" style="fill: #ff0000; stroke: #ff0000; stroke-linejoin: bevel"/>
     <use xlink:href="#m80df18abd5" x="230.763935" y="300.665917" style="fill: #ff0000; stroke: #ff0000; stroke-linejoin: bevel"/>
     <use xlink:href="#m80df18abd5" x="233.803771" y="312.462573" style="fill: #ff0000; stroke: #ff0000; stroke-linejoin: bevel"/>
     <use xlink:href="#m80df18abd5" x="236.843608" y="289.934766" style="fill: #ff0000; stroke: #ff0000; stroke-linejoin: bevel"/>
     <use xlink:href="#m80df18abd5" x="239.883444" y="292.167251" style="fill: #ff0000; stroke: #ff0000; stroke-linejoin: bevel"/>
     <use xlink:href="#m80df18abd5" x="242.923281" y="280.116904" style="fill: #ff0000; stroke: #ff0000; stroke-linejoin: bevel"/>
     <use xlink:href="#m80df18abd5" x="245.963117" y="297.241082" style="fill: #ff0000; stroke: #ff0000; stroke-linejoin: bevel"/>
     <use xlink:href="#m80df18abd5" x="249.002954" y="324.132384" style="fill: #ff0000; stroke: #ff0000; stroke-linejoin: bevel"/>
     <use xlink:href="#m80df18abd5" x="252.042791" y="332.63105" style="fill: #ff0000; stroke: #ff0000; stroke-linejoin: bevel"/>
     <use xlink:href="#m80df18abd5" x="255.082627" y="293.816246" style="fill: #ff0000; stroke: #ff0000; stroke-linejoin: bevel"/>
     <use xlink:href="#m80df18abd5" x="258.122464" y="333.011587" style="fill: #ff0000; stroke: #ff0000; stroke-linejoin: bevel"/>
     <use xlink:href="#m80df18abd5" x="261.1623" y="343.41294" style="fill: #ff0000; stroke: #ff0000; stroke-linejoin: bevel"/>
     <use xlink:href="#m80df18abd5" x="264.202137" y="288.108187" style="fill: #ff0000; stroke: #ff0000; stroke-linejoin: bevel"/>
     <use xlink:href="#m80df18abd5" x="267.241973" y="269.081322" style="fill: #ff0000; stroke: #ff0000; stroke-linejoin: bevel"/>
     <use xlink:href="#m80df18abd5" x="270.28181" y="269.842397" style="fill: #ff0000; stroke: #ff0000; stroke-linejoin: bevel"/>
     <use xlink:href="#m80df18abd5" x="273.321647" y="300.28538" style="fill: #ff0000; stroke: #ff0000; stroke-linejoin: bevel"/>
     <use xlink:href="#m80df18abd5" x="276.361483" y="272.886695" style="fill: #ff0000; stroke: #ff0000; stroke-linejoin: bevel"/>
     <use xlink:href="#m80df18abd5" x="279.40132" y="285.444426" style="fill: #ff0000; stroke: #ff0000; stroke-linejoin: bevel"/>
     <use xlink:href="#m80df18abd5" x="282.441156" y="258.67997" style="fill: #ff0000; stroke: #ff0000; stroke-linejoin: bevel"/>
     <use xlink:href="#m80df18abd5" x="285.480993" y="233.963167" style="fill: #ff0000; stroke: #ff0000; stroke-linejoin: bevel"/>
     <use xlink:href="#m80df18abd5" x="288.520829" y="218.596708" style="fill: #ff0000; stroke: #ff0000; stroke-linejoin: bevel"/>
     <use xlink:href="#m80df18abd5" x="291.560666" y="247.771234" style="fill: #ff0000; stroke: #ff0000; stroke-linejoin: bevel"/>
     <use xlink:href="#m80df18abd5" x="294.600503" y="242.139282" style="fill: #ff0000; stroke: #ff0000; stroke-linejoin: bevel"/>
     <use xlink:href="#m80df18abd5" x="297.640339" y="222.655773" style="fill: #ff0000; stroke: #ff0000; stroke-linejoin: bevel"/>
     <use xlink:href="#m80df18abd5" x="300.680176" y="258.274063" style="fill: #ff0000; stroke: #ff0000; stroke-linejoin: bevel"/>
     <use xlink:href="#m80df18abd5" x="303.720012" y="269.081322" style="fill: #ff0000; stroke: #ff0000; stroke-linejoin: bevel"/>
     <use xlink:href="#m80df18abd5" x="306.759849" y="258.426278" style="fill: #ff0000; stroke: #ff0000; stroke-linejoin: bevel"/>
     <use xlink:href="#m80df18abd5" x="309.799685" y="250.054458" style="fill: #ff0000; stroke: #ff0000; stroke-linejoin: bevel"/>
     <use xlink:href="#m80df18abd5" x="312.839522" y="306.373977" style="fill: #ff0000; stroke: #ff0000; stroke-linejoin: bevel"/>
     <use xlink:href="#m80df18abd5" x="315.879359" y="281.512207" style="fill: #ff0000; stroke: #ff0000; stroke-linejoin: bevel"/>
     <use xlink:href="#m80df18abd5" x="318.919195" y="224.177922" style="fill: #ff0000; stroke: #ff0000; stroke-linejoin: bevel"/>
     <use xlink:href="#m80df18abd5" x="321.959032" y="249.141168" style="fill: #ff0000; stroke: #ff0000; stroke-linejoin: bevel"/>
     <use xlink:href="#m80df18abd5" x="324.998868" y="232.875917" style="fill: #ff0000; stroke: #ff0000; stroke-linejoin: bevel"/>
     <use xlink:href="#m80df18abd5" x="328.038705" y="262.612188" style="fill: #ff0000; stroke: #ff0000; stroke-linejoin: bevel"/>
     <use xlink:href="#m80df18abd5" x="331.078541" y="282.780665" style="fill: #ff0000; stroke: #ff0000; stroke-linejoin: bevel"/>
     <use xlink:href="#m80df18abd5" x="334.118378" y="276.438377" style="fill: #ff0000; stroke: #ff0000; stroke-linejoin: bevel"/>
     <use xlink:href="#m80df18abd5" x="337.158215" y="268.320248" style="fill: #ff0000; stroke: #ff0000; stroke-linejoin: bevel"/>
     <use xlink:href="#m80df18abd5" x="340.198051" y="252.591373" style="fill: #ff0000; stroke: #ff0000; stroke-linejoin: bevel"/>
     <use xlink:href="#m80df18abd5" x="343.237888" y="237.877264" style="fill: #ff0000; stroke: #ff0000; stroke-linejoin: bevel"/>
     <use xlink:href="#m80df18abd5" x="346.277724" y="268.320248" style="fill: #ff0000; stroke: #ff0000; stroke-linejoin: bevel"/>
     <use xlink:href="#m80df18abd5" x="349.317561" y="262.739034" style="fill: #ff0000; stroke: #ff0000; stroke-linejoin: bevel"/>
     <use xlink:href="#m80df18abd5" x="352.357397" y="266.037024" style="fill: #ff0000; stroke: #ff0000; stroke-linejoin: bevel"/>
     <use xlink:href="#m80df18abd5" x="355.397234" y="244.980627" style="fill: #ff0000; stroke: #ff0000; stroke-linejoin: bevel"/>
     <use xlink:href="#m80df18abd5" x="358.43707" y="256.904129" style="fill: #ff0000; stroke: #ff0000; stroke-linejoin: bevel"/>
     <use xlink:href="#m80df18abd5" x="361.476907" y="250.054458" style="fill: #ff0000; stroke: #ff0000; stroke-linejoin: bevel"/>
     <use xlink:href="#m80df18abd5" x="364.516744" y="236.355115" style="fill: #ff0000; stroke: #ff0000; stroke-linejoin: bevel"/>
     <use xlink:href="#m80df18abd5" x="370.596417" y="285.063888" style="fill: #ff0000; stroke: #ff0000; stroke-linejoin: bevel"/>
     <use xlink:href="#m80df18abd5" x="373.636253" y="290.543625" style="fill: #ff0000; stroke: #ff0000; stroke-linejoin: bevel"/>
     <use xlink:href="#m80df18abd5" x="376.67609" y="262.485343" style="fill: #ff0000; stroke: #ff0000; stroke-linejoin: bevel"/>
     <use xlink:href="#m80df18abd5" x="379.715926" y="274.408844" style="fill: #ff0000; stroke: #ff0000; stroke-linejoin: bevel"/>
     <use xlink:href="#m80df18abd5" x="394.915109" y="277.453143" style="fill: #ff0000; stroke: #ff0000; stroke-linejoin: bevel"/>
     <use xlink:href="#m80df18abd5" x="397.954946" y="282.01959" style="fill: #ff0000; stroke: #ff0000; stroke-linejoin: bevel"/>
     <use xlink:href="#m80df18abd5" x="400.994782" y="332.63105" style="fill: #ff0000; stroke: #ff0000; stroke-linejoin: bevel"/>
     <use xlink:href="#m80df18abd5" x="404.034619" y="284.049122" style="fill: #ff0000; stroke: #ff0000; stroke-linejoin: bevel"/>
     <use xlink:href="#m80df18abd5" x="407.074456" y="323.117617" style="fill: #ff0000; stroke: #ff0000; stroke-linejoin: bevel"/>
     <use xlink:href="#m80df18abd5" x="419.233802" y="324.639767" style="fill: #ff0000; stroke: #ff0000; stroke-linejoin: bevel"/>
     <use xlink:href="#m80df18abd5" x="422.273638" y="330.728363" style="fill: #ff0000; stroke: #ff0000; stroke-linejoin: bevel"/>
     <use xlink:href="#m80df18abd5" x="425.313475" y="291.152485" style="fill: #ff0000; stroke: #ff0000; stroke-linejoin: bevel"/>
     <use xlink:href="#m80df18abd5" x="446.592331" y="335.294811" style="fill: #ff0000; stroke: #ff0000; stroke-linejoin: bevel"/>
     <use xlink:href="#m80df18abd5" x="449.632168" y="331.489438" style="fill: #ff0000; stroke: #ff0000; stroke-linejoin: bevel"/>
     <use xlink:href="#m80df18abd5" x="452.672004" y="332.757895" style="fill: #ff0000; stroke: #ff0000; stroke-linejoin: bevel"/>
     <use xlink:href="#m80df18abd5" x="455.711841" y="338.719646" style="fill: #ff0000; stroke: #ff0000; stroke-linejoin: bevel"/>
     <use xlink:href="#m80df18abd5" x="458.751677" y="278.214217" style="fill: #ff0000; stroke: #ff0000; stroke-linejoin: bevel"/>
     <use xlink:href="#m80df18abd5" x="461.791514" y="335.294811" style="fill: #ff0000; stroke: #ff0000; stroke-linejoin: bevel"/>
     <use xlink:href="#m80df18abd5" x="464.83135" y="341.383407" style="fill: #ff0000; stroke: #ff0000; stroke-linejoin: bevel"/>
     <use xlink:href="#m80df18abd5" x="467.871187" y="330.728363" style="fill: #ff0000; stroke: #ff0000; stroke-linejoin: bevel"/>
     <use xlink:href="#m80df18abd5" x="470.911023" y="368.782092" style="fill: #ff0000; stroke: #ff0000; stroke-linejoin: bevel"/>
     <use xlink:href="#m80df18abd5" x="473.95086" y="325.400841" style="fill: #ff0000; stroke: #ff0000; stroke-linejoin: bevel"/>
     <use xlink:href="#m80df18abd5" x="476.990697" y="388.570031" style="fill: #ff0000; stroke: #ff0000; stroke-linejoin: bevel"/>
     <use xlink:href="#m80df18abd5" x="480.030533" y="387.555265" style="fill: #ff0000; stroke: #ff0000; stroke-linejoin: bevel"/>
     <use xlink:href="#m80df18abd5" x="492.189879" y="369.543167" style="fill: #ff0000; stroke: #ff0000; stroke-linejoin: bevel"/>
     <use xlink:href="#m80df18abd5" x="495.229716" y="368.274709" style="fill: #ff0000; stroke: #ff0000; stroke-linejoin: bevel"/>
     <use xlink:href="#m80df18abd5" x="498.269553" y="369.289475" style="fill: #ff0000; stroke: #ff0000; stroke-linejoin: bevel"/>
     <use xlink:href="#m80df18abd5" x="501.309389" y="331.108901" style="fill: #ff0000; stroke: #ff0000; stroke-linejoin: bevel"/>
     <use xlink:href="#m80df18abd5" x="504.349226" y="388.570031" style="fill: #ff0000; stroke: #ff0000; stroke-linejoin: bevel"/>
     <use xlink:href="#m80df18abd5" x="519.548409" y="352.038452" style="fill: #ff0000; stroke: #ff0000; stroke-linejoin: bevel"/>
     <use xlink:href="#m80df18abd5" x="552.986611" y="327.684065" style="fill: #ff0000; stroke: #ff0000; stroke-linejoin: bevel"/>
     <use xlink:href="#m80df18abd5" x="568.185794" y="374.870689" style="fill: #ff0000; stroke: #ff0000; stroke-linejoin: bevel"/>
     <use xlink:href="#m80df18abd5" x="571.22563" y="374.870689" style="fill: #ff0000; stroke: #ff0000; stroke-linejoin: bevel"/>
     <use xlink:href="#m80df18abd5" x="577.305303" y="388.570031" style="fill: #ff0000; stroke: #ff0000; stroke-linejoin: bevel"/>
     <use xlink:href="#m80df18abd5" x="586.424813" y="368.782092" style="fill: #ff0000; stroke: #ff0000; stroke-linejoin: bevel"/>
     <use xlink:href="#m80df18abd5" x="625.942688" y="405.313672" style="fill: #ff0000; stroke: #ff0000; stroke-linejoin: bevel"/>
     <use xlink:href="#m80df18abd5" x="726.257295" y="144.518783" style="fill: #ff0000; stroke: #ff0000; stroke-linejoin: bevel"/>
     <use xlink:href="#m80df18abd5" x="729.297132" y="151.875837" style="fill: #ff0000; stroke: #ff0000; stroke-linejoin: bevel"/>
     <use xlink:href="#m80df18abd5" x="732.336968" y="125.238227" style="fill: #ff0000; stroke: #ff0000; stroke-linejoin: bevel"/>
     <use xlink:href="#m80df18abd5" x="735.376805" y="143.504017" style="fill: #ff0000; stroke: #ff0000; stroke-linejoin: bevel"/>
     <use xlink:href="#m80df18abd5" x="738.416641" y="137.41542" style="fill: #ff0000; stroke: #ff0000; stroke-linejoin: bevel"/>
     <use xlink:href="#m80df18abd5" x="744.496315" y="237.877264" style="fill: #ff0000; stroke: #ff0000; stroke-linejoin: bevel"/>
     <use xlink:href="#m80df18abd5" x="747.536151" y="176.991298" style="fill: #ff0000; stroke: #ff0000; stroke-linejoin: bevel"/>
     <use xlink:href="#m80df18abd5" x="875.209287" y="100.88384" style="fill: #ff0000; stroke: #ff0000; stroke-linejoin: bevel"/>
     <use xlink:href="#m80df18abd5" x="926.886509" y="85.662348" style="fill: #ff0000; stroke: #ff0000; stroke-linejoin: bevel"/>
     <use xlink:href="#m80df18abd5" x="929.926345" y="142.48925" style="fill: #ff0000; stroke: #ff0000; stroke-linejoin: bevel"/>
     <use xlink:href="#m80df18abd5" x="932.966182" y="121.179162" style="fill: #ff0000; stroke: #ff0000; stroke-linejoin: bevel"/>
    </g>
   </g>
   <g id="patch_3">
    <path d="M 80.748 622.6035 
L 80.748 35.0835 
" style="fill: none; stroke: #000000; stroke-width: 0.8; stroke-linejoin: miter; stroke-linecap: square"/>
   </g>
   <g id="patch_4">
    <path d="M 973.548 622.6035 
L 973.548 35.0835 
" style="fill: none; stroke: #000000; stroke-width: 0.8; stroke-linejoin: miter; stroke-linecap: square"/>
   </g>
   <g id="patch_5">
    <path d="M 80.748 622.6035 
L 973.548 622.6035 
" style="fill: none; stroke: #000000; stroke-width: 0.8; stroke-linejoin: miter; stroke-linecap: square"/>
   </g>
   <g id="patch_6">
    <path d="M 80.748 35.0835 
L 973.548 35.0835 
" style="fill: none; stroke: #000000; stroke-width: 0.8; stroke-linejoin: miter; stroke-linecap: square"/>
   </g>
   <g id="text_15">
    <!-- Body Muscle Mass -->
    <g transform="translate(395.55675 29.0835) scale(0.288 -0.288)">
     <defs>
      <path id="DejaVuSans-42" d="M 1259 2228 
L 1259 519 
L 2272 519 
Q 2781 519 3026 730 
Q 3272 941 3272 1375 
Q 3272 1813 3026 2020 
Q 2781 2228 2272 2228 
L 1259 2228 
z
M 1259 4147 
L 1259 2741 
L 2194 2741 
Q 2656 2741 2882 2914 
Q 3109 3088 3109 3444 
Q 3109 3797 2882 3972 
Q 2656 4147 2194 4147 
L 1259 4147 
z
M 628 4666 
L 2241 4666 
Q 2963 4666 3353 4366 
Q 3744 4066 3744 3513 
Q 3744 3084 3544 2831 
Q 3344 2578 2956 2516 
Q 3422 2416 3680 2098 
Q 3938 1781 3938 1306 
Q 3938 681 3513 340 
Q 3088 0 2303 0 
L 628 0 
L 628 4666 
z
" transform="scale(0.015625)"/>
      <path id="DejaVuSans-6f" d="M 1959 3097 
Q 1497 3097 1228 2736 
Q 959 2375 959 1747 
Q 959 1119 1226 758 
Q 1494 397 1959 397 
Q 2419 397 2687 759 
Q 2956 1122 2956 1747 
Q 2956 2369 2687 2733 
Q 2419 3097 1959 3097 
z
M 1959 3584 
Q 2709 3584 3137 3096 
Q 3566 2609 3566 1747 
Q 3566 888 3137 398 
Q 2709 -91 1959 -91 
Q 1206 -91 779 398 
Q 353 888 353 1747 
Q 353 2609 779 3096 
Q 1206 3584 1959 3584 
z
" transform="scale(0.015625)"/>
      <path id="DejaVuSans-64" d="M 2906 2969 
L 2906 4863 
L 3481 4863 
L 3481 0 
L 2906 0 
L 2906 525 
Q 2725 213 2448 61 
Q 2172 -91 1784 -91 
Q 1150 -91 751 415 
Q 353 922 353 1747 
Q 353 2572 751 3078 
Q 1150 3584 1784 3584 
Q 2172 3584 2448 3432 
Q 2725 3281 2906 2969 
z
M 947 1747 
Q 947 1113 1208 752 
Q 1469 391 1925 391 
Q 2381 391 2643 752 
Q 2906 1113 2906 1747 
Q 2906 2381 2643 2742 
Q 2381 3103 1925 3103 
Q 1469 3103 1208 2742 
Q 947 2381 947 1747 
z
" transform="scale(0.015625)"/>
      <path id="DejaVuSans-79" d="M 2059 -325 
Q 1816 -950 1584 -1140 
Q 1353 -1331 966 -1331 
L 506 -1331 
L 506 -850 
L 844 -850 
Q 1081 -850 1212 -737 
Q 1344 -625 1503 -206 
L 1606 56 
L 191 3500 
L 800 3500 
L 1894 763 
L 2988 3500 
L 3597 3500 
L 2059 -325 
z
" transform="scale(0.015625)"/>
     </defs>
     <use xlink:href="#DejaVuSans-42"/>
     <use xlink:href="#DejaVuSans-6f" transform="translate(68.603516 0)"/>
     <use xlink:href="#DejaVuSans-64" transform="translate(129.785156 0)"/>
     <use xlink:href="#DejaVuSans-79" transform="translate(193.261719 0)"/>
     <use xlink:href="#DejaVuSans-20" transform="translate(252.441406 0)"/>
     <use xlink:href="#DejaVuSans-4d" transform="translate(284.228516 0)"/>
     <use xlink:href="#DejaVuSans-75" transform="translate(370.507812 0)"/>
     <use xlink:href="#DejaVuSans-73" transform="translate(433.886719 0)"/>
     <use xlink:href="#DejaVuSans-63" transform="translate(485.986328 0)"/>
     <use xlink:href="#DejaVuSans-6c" transform="translate(540.966797 0)"/>
     <use xlink:href="#DejaVuSans-65" transform="translate(568.75 0)"/>
     <use xlink:href="#DejaVuSans-20" transform="translate(630.273438 0)"/>
     <use xlink:href="#DejaVuSans-4d" transform="translate(662.060547 0)"/>
     <use xlink:href="#DejaVuSans-61" transform="translate(748.339844 0)"/>
     <use xlink:href="#DejaVuSans-73" transform="translate(809.619141 0)"/>
     <use xlink:href="#DejaVuSans-73" transform="translate(861.71875 0)"/>
    </g>
   </g>
  </g>
 </g>
 <defs>
  <clipPath id="p631fe91973">
   <rect x="80.748" y="35.0835" width="892.8" height="587.52"/>
  </clipPath>
 </defs>
</svg>
