<?xml version="1.0" encoding="utf-8" standalone="no"?>
<!DOCTYPE svg PUBLIC "-//W3C//DTD SVG 1.1//EN"
  "http://www.w3.org/Graphics/SVG/1.1/DTD/svg11.dtd">
<svg xmlns:xlink="http://www.w3.org/1999/xlink" width="968.023pt" height="700.466504pt" viewBox="0 0 968.023 700.466504" xmlns="http://www.w3.org/2000/svg" version="1.1">
 <metadata>
  <rdf:RDF xmlns:dc="http://purl.org/dc/elements/1.1/" xmlns:cc="http://creativecommons.org/ns#" xmlns:rdf="http://www.w3.org/1999/02/22-rdf-syntax-ns#">
   <cc:Work>
    <dc:type rdf:resource="http://purl.org/dc/dcmitype/StillImage"/>
    <dc:date>2024-09-27T19:18:13.349032</dc:date>
    <dc:format>image/svg+xml</dc:format>
    <dc:creator>
     <cc:Agent>
      <dc:title>Matplotlib v3.9.2, https://matplotlib.org/</dc:title>
     </cc:Agent>
    </dc:creator>
   </cc:Work>
  </rdf:RDF>
 </metadata>
 <defs>
  <style type="text/css">*{stroke-linejoin: round; stroke-linecap: butt}</style>
 </defs>
 <g id="figure_1">
  <g id="patch_1">
   <path d="M 0 700.466504 
L 968.023 700.466504 
L 968.023 0 
L 0 0 
z
" style="fill: #ffffff"/>
  </g>
  <g id="axes_1">
   <g id="patch_2">
    <path d="M 68.023 622.6035 
L 960.823 622.6035 
L 960.823 35.0835 
L 68.023 35.0835 
z
" style="fill: #ffffff"/>
   </g>
   <g id="PolyCollection_1">
    <defs>
     <path id="m474f058393" d="M 108.604818 -435.593627 
L 108.604818 -361.983888 
L 115.150273 -104.568459 
L 118.423 -389.816969 
L 121.695727 -394.970937 
L 124.968455 -443.210534 
L 128.241182 -344.237219 
L 131.513909 -418.685735 
L 134.786636 -412.075881 
L 138.059364 -413.925496 
L 141.332091 -413.570357 
L 144.604818 -354.955796 
L 147.877545 -356.681549 
L 151.150273 -437.418261 
L 154.423 -429.56675 
L 157.695727 -369.995853 
L 160.968455 -416.553501 
L 164.241182 -458.366348 
L 167.513909 -498.507531 
L 170.786636 -524.92553 
L 174.059364 -486.096986 
L 177.332091 -493.935087 
L 180.604818 -444.849278 
L 183.877545 -424.685622 
L 187.150273 -403.832035 
L 190.423 -432.206791 
L 193.695727 -425.621521 
L 196.968455 -434.169769 
L 200.241182 -461.926269 
L 203.513909 -418.257964 
L 206.786636 -388.042648 
L 210.059364 -412.717877 
L 213.332091 -436.426153 
L 216.604818 -440.608296 
L 219.877545 -431.721182 
L 223.150273 -442.834737 
L 226.423 -405.542635 
L 229.695727 -362.713978 
L 232.968455 -396.884607 
L 236.241182 -398.199612 
L 239.513909 -452.644924 
L 242.786636 -396.656213 
L 246.059364 -377.866479 
L 249.332091 -369.55051 
L 252.604818 -408.656416 
L 255.877545 -341.378248 
L 259.150273 -316.077972 
L 262.423 -402.371036 
L 265.695727 -373.921873 
L 268.968455 -398.793506 
L 272.241182 -317.700115 
L 275.513909 -342.381654 
L 278.786636 -335.024887 
L 282.059364 -328.363154 
L 285.332091 -352.514786 
L 288.604818 -374.790011 
L 291.877545 -364.248773 
L 295.150273 -338.963596 
L 298.423 -386.457177 
L 301.695727 -364.074181 
L 304.968455 -348.979292 
L 308.241182 -362.490192 
L 311.513909 -364.443482 
L 314.786636 -271.110172 
L 318.059364 -291.796862 
L 321.332091 -380.341085 
L 324.604818 -333.22013 
L 327.877545 -353.28188 
L 331.150273 -278.72131 
L 334.423 -298.067503 
L 337.695727 -333.207814 
L 340.968455 -314.319652 
L 344.241182 -350.179022 
L 347.513909 -369.413066 
L 350.786636 -342.845712 
L 354.059364 -354.97079 
L 357.332091 -371.663727 
L 360.604818 -412.984593 
L 363.877545 -371.680904 
L 367.150273 -442.137515 
L 370.423 -476.687879 
L 376.968455 -392.349345 
L 380.241182 -399.569245 
L 383.513909 -423.208909 
L 386.786636 -380.001588 
L 403.150273 -389.871742 
L 406.423 -389.860076 
L 409.695727 -302.574498 
L 412.968455 -381.420442 
L 416.241182 -328.135161 
L 429.332091 -349.622389 
L 432.604818 -332.177955 
L 435.877545 -382.368895 
L 458.786636 -351.866458 
L 462.059364 -294.491151 
L 465.332091 -317.780082 
L 468.604818 -346.177667 
L 471.877545 -399.500148 
L 475.150273 -384.653829 
L 478.423 -320.305843 
L 481.695727 -341.409547 
L 484.968455 -313.494827 
L 488.241182 -339.112025 
L 491.513909 -336.629224 
L 494.786636 -329.481789 
L 507.877545 -291.779225 
L 511.150273 -286.120372 
L 514.423 -292.900255 
L 517.695727 -344.850559 
L 520.968455 -236.915917 
L 537.332091 -268.183211 
L 573.332091 -327.984549 
L 589.695727 -307.033851 
L 592.968455 -321.96613 
L 599.513909 -258.521125 
L 609.332091 -320.94959 
L 651.877545 -248.823672 
L 759.877545 -520.146495 
L 763.150273 -510.249442 
L 766.423 -582.325024 
L 769.695727 -549.926547 
L 772.968455 -544.2229 
L 779.513909 -454.441167 
L 782.786636 -475.46384 
L 920.241182 -553.743922 
L 920.241182 -638.67755 
L 920.241182 -638.67755 
L 782.786636 -549.073578 
L 779.513909 -528.050905 
L 772.968455 -617.832639 
L 769.695727 -623.536286 
L 766.423 -630.08006 
L 763.150273 -622.438314 
L 759.877545 -593.756234 
L 651.877545 -322.43341 
L 609.332091 -394.559329 
L 599.513909 -332.130864 
L 592.968455 -395.575869 
L 589.695727 -380.64359 
L 573.332091 -401.594287 
L 537.332091 -341.792949 
L 520.968455 -310.525655 
L 517.695727 -408.516134 
L 514.423 -366.509994 
L 511.150273 -359.730111 
L 507.877545 -365.388963 
L 494.786636 -403.091528 
L 491.513909 -410.238962 
L 488.241182 -475.301737 
L 484.968455 -387.104565 
L 481.695727 -415.019285 
L 478.423 -393.915582 
L 475.150273 -458.263568 
L 471.877545 -473.109887 
L 468.604818 -402.377537 
L 465.332091 -391.38982 
L 462.059364 -368.100889 
L 458.786636 -369.151964 
L 435.877545 -455.978634 
L 432.604818 -405.787694 
L 429.332091 -423.232128 
L 416.241182 -401.7449 
L 412.968455 -455.030181 
L 409.695727 -416.203902 
L 406.423 -463.469814 
L 403.150273 -463.481481 
L 386.786636 -453.611327 
L 383.513909 -507.910636 
L 380.241182 -467.466907 
L 376.968455 -465.959083 
L 370.423 -527.985421 
L 367.150273 -515.747254 
L 363.877545 -445.290642 
L 360.604818 -473.964261 
L 357.332091 -421.4726 
L 354.059364 -428.580528 
L 350.786636 -448.665986 
L 347.513909 -443.022805 
L 344.241182 -438.18463 
L 340.968455 -411.018025 
L 337.695727 -406.817553 
L 334.423 -371.677242 
L 331.150273 -431.791238 
L 327.877545 -438.240862 
L 324.604818 -418.012013 
L 321.332091 -453.950824 
L 318.059364 -365.406601 
L 314.786636 -344.719911 
L 311.513909 -438.053221 
L 308.241182 -442.501664 
L 304.968455 -409.76634 
L 301.695727 -418.034631 
L 298.423 -460.066916 
L 295.150273 -466.031659 
L 291.877545 -437.858511 
L 288.604818 -475.794923 
L 285.332091 -441.706999 
L 282.059364 -417.004821 
L 278.786636 -431.318019 
L 275.513909 -415.991392 
L 272.241182 -367.009407 
L 268.968455 -414.766514 
L 265.695727 -447.531611 
L 262.423 -475.980775 
L 259.150273 -389.68771 
L 255.877545 -414.987987 
L 252.604818 -445.275311 
L 249.332091 -410.330932 
L 246.059364 -451.476218 
L 242.786636 -464.540778 
L 239.513909 -486.147844 
L 236.241182 -471.809351 
L 232.968455 -475.047959 
L 229.695727 -448.881862 
L 226.423 -457.790011 
L 223.150273 -516.444476 
L 219.877545 -472.8445 
L 216.604818 -514.218035 
L 213.332091 -492.255149 
L 210.059364 -486.327616 
L 206.786636 -490.982738 
L 203.513909 -491.867703 
L 200.241182 -535.536008 
L 196.968455 -529.923632 
L 193.695727 -532.841303 
L 190.423 -502.094107 
L 187.150273 -550.924954 
L 183.877545 -498.29536 
L 180.604818 -518.459017 
L 177.332091 -535.435718 
L 174.059364 -534.639541 
L 170.786636 -529.992678 
L 167.513909 -536.789945 
L 164.241182 -532.387877 
L 160.968455 -499.604397 
L 157.695727 -463.964166 
L 154.423 -500.853626 
L 151.150273 -470.709965 
L 147.877545 -403.608262 
L 144.604818 -446.496051 
L 141.332091 -478.902568 
L 138.059364 -487.535235 
L 134.786636 -492.628259 
L 131.513909 -464.167316 
L 128.241182 -398.449359 
L 124.968455 -472.248609 
L 121.695727 -414.587209 
L 118.423 -466.102273 
L 115.150273 -344.368071 
L 108.604818 -435.593627 
z
" style="stroke: #a52a2a; stroke-opacity: 0.2"/>
    </defs>
    <g clip-path="url(#p5785946a38)">
     <use xlink:href="#m474f058393" x="0" y="700.466504" style="fill: #a52a2a; fill-opacity: 0.2; stroke: #a52a2a; stroke-opacity: 0.2"/>
    </g>
   </g>
   <g id="matplotlib.axis_1">
    <g id="xtick_1">
     <g id="line2d_1">
      <path d="M 111.877545 622.6035 
L 111.877545 35.0835 
" clip-path="url(#p5785946a38)" style="fill: none; stroke: #a5a391; stroke-opacity: 0.3; stroke-width: 0.8; stroke-linecap: square"/>
     </g>
     <g id="line2d_2">
      <defs>
       <path id="ma0abdfa1a4" d="M 0 0 
L 0 -3.5 
" style="stroke: #000000; stroke-width: 0.8"/>
      </defs>
      <g>
       <use xlink:href="#ma0abdfa1a4" x="111.877545" y="622.6035" style="stroke: #000000; stroke-width: 0.8"/>
      </g>
     </g>
     <g id="text_1">
      <!-- Jan 01, 20 -->
      <g transform="translate(22.502497 689.66438) rotate(-30) scale(0.2 -0.2)">
       <defs>
        <path id="DejaVuSans-4a" d="M 628 4666 
L 1259 4666 
L 1259 325 
Q 1259 -519 939 -900 
Q 619 -1281 -91 -1281 
L -331 -1281 
L -331 -750 
L -134 -750 
Q 284 -750 456 -515 
Q 628 -281 628 325 
L 628 4666 
z
" transform="scale(0.015625)"/>
        <path id="DejaVuSans-61" d="M 2194 1759 
Q 1497 1759 1228 1600 
Q 959 1441 959 1056 
Q 959 750 1161 570 
Q 1363 391 1709 391 
Q 2188 391 2477 730 
Q 2766 1069 2766 1631 
L 2766 1759 
L 2194 1759 
z
M 3341 1997 
L 3341 0 
L 2766 0 
L 2766 531 
Q 2569 213 2275 61 
Q 1981 -91 1556 -91 
Q 1019 -91 701 211 
Q 384 513 384 1019 
Q 384 1609 779 1909 
Q 1175 2209 1959 2209 
L 2766 2209 
L 2766 2266 
Q 2766 2663 2505 2880 
Q 2244 3097 1772 3097 
Q 1472 3097 1187 3025 
Q 903 2953 641 2809 
L 641 3341 
Q 956 3463 1253 3523 
Q 1550 3584 1831 3584 
Q 2591 3584 2966 3190 
Q 3341 2797 3341 1997 
z
" transform="scale(0.015625)"/>
        <path id="DejaVuSans-6e" d="M 3513 2113 
L 3513 0 
L 2938 0 
L 2938 2094 
Q 2938 2591 2744 2837 
Q 2550 3084 2163 3084 
Q 1697 3084 1428 2787 
Q 1159 2491 1159 1978 
L 1159 0 
L 581 0 
L 581 3500 
L 1159 3500 
L 1159 2956 
Q 1366 3272 1645 3428 
Q 1925 3584 2291 3584 
Q 2894 3584 3203 3211 
Q 3513 2838 3513 2113 
z
" transform="scale(0.015625)"/>
        <path id="DejaVuSans-20" transform="scale(0.015625)"/>
        <path id="DejaVuSans-30" d="M 2034 4250 
Q 1547 4250 1301 3770 
Q 1056 3291 1056 2328 
Q 1056 1369 1301 889 
Q 1547 409 2034 409 
Q 2525 409 2770 889 
Q 3016 1369 3016 2328 
Q 3016 3291 2770 3770 
Q 2525 4250 2034 4250 
z
M 2034 4750 
Q 2819 4750 3233 4129 
Q 3647 3509 3647 2328 
Q 3647 1150 3233 529 
Q 2819 -91 2034 -91 
Q 1250 -91 836 529 
Q 422 1150 422 2328 
Q 422 3509 836 4129 
Q 1250 4750 2034 4750 
z
" transform="scale(0.015625)"/>
        <path id="DejaVuSans-31" d="M 794 531 
L 1825 531 
L 1825 4091 
L 703 3866 
L 703 4441 
L 1819 4666 
L 2450 4666 
L 2450 531 
L 3481 531 
L 3481 0 
L 794 0 
L 794 531 
z
" transform="scale(0.015625)"/>
        <path id="DejaVuSans-2c" d="M 750 794 
L 1409 794 
L 1409 256 
L 897 -744 
L 494 -744 
L 750 256 
L 750 794 
z
" transform="scale(0.015625)"/>
        <path id="DejaVuSans-32" d="M 1228 531 
L 3431 531 
L 3431 0 
L 469 0 
L 469 531 
Q 828 903 1448 1529 
Q 2069 2156 2228 2338 
Q 2531 2678 2651 2914 
Q 2772 3150 2772 3378 
Q 2772 3750 2511 3984 
Q 2250 4219 1831 4219 
Q 1534 4219 1204 4116 
Q 875 4013 500 3803 
L 500 4441 
Q 881 4594 1212 4672 
Q 1544 4750 1819 4750 
Q 2544 4750 2975 4387 
Q 3406 4025 3406 3419 
Q 3406 3131 3298 2873 
Q 3191 2616 2906 2266 
Q 2828 2175 2409 1742 
Q 1991 1309 1228 531 
z
" transform="scale(0.015625)"/>
       </defs>
       <use xlink:href="#DejaVuSans-4a"/>
       <use xlink:href="#DejaVuSans-61" x="29.492188"/>
       <use xlink:href="#DejaVuSans-6e" x="90.771484"/>
       <use xlink:href="#DejaVuSans-20" x="154.150391"/>
       <use xlink:href="#DejaVuSans-30" x="185.9375"/>
       <use xlink:href="#DejaVuSans-31" x="249.560547"/>
       <use xlink:href="#DejaVuSans-2c" x="313.183594"/>
       <use xlink:href="#DejaVuSans-20" x="344.970703"/>
       <use xlink:href="#DejaVuSans-32" x="376.757812"/>
       <use xlink:href="#DejaVuSans-30" x="440.380859"/>
      </g>
     </g>
    </g>
    <g id="xtick_2">
     <g id="line2d_3">
      <path d="M 282.994429 622.6035 
L 282.994429 35.0835 
" clip-path="url(#p5785946a38)" style="fill: none; stroke: #a5a391; stroke-opacity: 0.3; stroke-width: 0.8; stroke-linecap: square"/>
     </g>
     <g id="line2d_4">
      <g>
       <use xlink:href="#ma0abdfa1a4" x="282.994429" y="622.6035" style="stroke: #000000; stroke-width: 0.8"/>
      </g>
     </g>
     <g id="text_2">
      <!-- Jan 01, 21 -->
      <g transform="translate(193.61938 689.66438) rotate(-30) scale(0.2 -0.2)">
       <use xlink:href="#DejaVuSans-4a"/>
       <use xlink:href="#DejaVuSans-61" x="29.492188"/>
       <use xlink:href="#DejaVuSans-6e" x="90.771484"/>
       <use xlink:href="#DejaVuSans-20" x="154.150391"/>
       <use xlink:href="#DejaVuSans-30" x="185.9375"/>
       <use xlink:href="#DejaVuSans-31" x="249.560547"/>
       <use xlink:href="#DejaVuSans-2c" x="313.183594"/>
       <use xlink:href="#DejaVuSans-20" x="344.970703"/>
       <use xlink:href="#DejaVuSans-32" x="376.757812"/>
       <use xlink:href="#DejaVuSans-31" x="440.380859"/>
      </g>
     </g>
    </g>
    <g id="xtick_3">
     <g id="line2d_5">
      <path d="M 453.643779 622.6035 
L 453.643779 35.0835 
" clip-path="url(#p5785946a38)" style="fill: none; stroke: #a5a391; stroke-opacity: 0.3; stroke-width: 0.8; stroke-linecap: square"/>
     </g>
     <g id="line2d_6">
      <g>
       <use xlink:href="#ma0abdfa1a4" x="453.643779" y="622.6035" style="stroke: #000000; stroke-width: 0.8"/>
      </g>
     </g>
     <g id="text_3">
      <!-- Jan 01, 22 -->
      <g transform="translate(364.268731 689.66438) rotate(-30) scale(0.2 -0.2)">
       <use xlink:href="#DejaVuSans-4a"/>
       <use xlink:href="#DejaVuSans-61" x="29.492188"/>
       <use xlink:href="#DejaVuSans-6e" x="90.771484"/>
       <use xlink:href="#DejaVuSans-20" x="154.150391"/>
       <use xlink:href="#DejaVuSans-30" x="185.9375"/>
       <use xlink:href="#DejaVuSans-31" x="249.560547"/>
       <use xlink:href="#DejaVuSans-2c" x="313.183594"/>
       <use xlink:href="#DejaVuSans-20" x="344.970703"/>
       <use xlink:href="#DejaVuSans-32" x="376.757812"/>
       <use xlink:href="#DejaVuSans-32" x="440.380859"/>
      </g>
     </g>
    </g>
    <g id="xtick_4">
     <g id="line2d_7">
      <path d="M 624.29313 622.6035 
L 624.29313 35.0835 
" clip-path="url(#p5785946a38)" style="fill: none; stroke: #a5a391; stroke-opacity: 0.3; stroke-width: 0.8; stroke-linecap: square"/>
     </g>
     <g id="line2d_8">
      <g>
       <use xlink:href="#ma0abdfa1a4" x="624.29313" y="622.6035" style="stroke: #000000; stroke-width: 0.8"/>
      </g>
     </g>
     <g id="text_4">
      <!-- Jan 01, 23 -->
      <g transform="translate(534.918082 689.66438) rotate(-30) scale(0.2 -0.2)">
       <defs>
        <path id="DejaVuSans-33" d="M 2597 2516 
Q 3050 2419 3304 2112 
Q 3559 1806 3559 1356 
Q 3559 666 3084 287 
Q 2609 -91 1734 -91 
Q 1441 -91 1130 -33 
Q 819 25 488 141 
L 488 750 
Q 750 597 1062 519 
Q 1375 441 1716 441 
Q 2309 441 2620 675 
Q 2931 909 2931 1356 
Q 2931 1769 2642 2001 
Q 2353 2234 1838 2234 
L 1294 2234 
L 1294 2753 
L 1863 2753 
Q 2328 2753 2575 2939 
Q 2822 3125 2822 3475 
Q 2822 3834 2567 4026 
Q 2313 4219 1838 4219 
Q 1578 4219 1281 4162 
Q 984 4106 628 3988 
L 628 4550 
Q 988 4650 1302 4700 
Q 1616 4750 1894 4750 
Q 2613 4750 3031 4423 
Q 3450 4097 3450 3541 
Q 3450 3153 3228 2886 
Q 3006 2619 2597 2516 
z
" transform="scale(0.015625)"/>
       </defs>
       <use xlink:href="#DejaVuSans-4a"/>
       <use xlink:href="#DejaVuSans-61" x="29.492188"/>
       <use xlink:href="#DejaVuSans-6e" x="90.771484"/>
       <use xlink:href="#DejaVuSans-20" x="154.150391"/>
       <use xlink:href="#DejaVuSans-30" x="185.9375"/>
       <use xlink:href="#DejaVuSans-31" x="249.560547"/>
       <use xlink:href="#DejaVuSans-2c" x="313.183594"/>
       <use xlink:href="#DejaVuSans-20" x="344.970703"/>
       <use xlink:href="#DejaVuSans-32" x="376.757812"/>
       <use xlink:href="#DejaVuSans-33" x="440.380859"/>
      </g>
     </g>
    </g>
    <g id="xtick_5">
     <g id="line2d_9">
      <path d="M 794.942481 622.6035 
L 794.942481 35.0835 
" clip-path="url(#p5785946a38)" style="fill: none; stroke: #a5a391; stroke-opacity: 0.3; stroke-width: 0.8; stroke-linecap: square"/>
     </g>
     <g id="line2d_10">
      <g>
       <use xlink:href="#ma0abdfa1a4" x="794.942481" y="622.6035" style="stroke: #000000; stroke-width: 0.8"/>
      </g>
     </g>
     <g id="text_5">
      <!-- Jan 01, 24 -->
      <g transform="translate(705.567432 689.66438) rotate(-30) scale(0.2 -0.2)">
       <defs>
        <path id="DejaVuSans-34" d="M 2419 4116 
L 825 1625 
L 2419 1625 
L 2419 4116 
z
M 2253 4666 
L 3047 4666 
L 3047 1625 
L 3713 1625 
L 3713 1100 
L 3047 1100 
L 3047 0 
L 2419 0 
L 2419 1100 
L 313 1100 
L 313 1709 
L 2253 4666 
z
" transform="scale(0.015625)"/>
       </defs>
       <use xlink:href="#DejaVuSans-4a"/>
       <use xlink:href="#DejaVuSans-61" x="29.492188"/>
       <use xlink:href="#DejaVuSans-6e" x="90.771484"/>
       <use xlink:href="#DejaVuSans-20" x="154.150391"/>
       <use xlink:href="#DejaVuSans-30" x="185.9375"/>
       <use xlink:href="#DejaVuSans-31" x="249.560547"/>
       <use xlink:href="#DejaVuSans-2c" x="313.183594"/>
       <use xlink:href="#DejaVuSans-20" x="344.970703"/>
       <use xlink:href="#DejaVuSans-32" x="376.757812"/>
       <use xlink:href="#DejaVuSans-34" x="440.380859"/>
      </g>
     </g>
    </g>
   </g>
   <g id="matplotlib.axis_2">
    <g id="ytick_1">
     <g id="line2d_11">
      <path d="M 68.023 567.332432 
L 960.823 567.332432 
" clip-path="url(#p5785946a38)" style="fill: none; stroke: #a5a391; stroke-opacity: 0.3; stroke-width: 0.8; stroke-linecap: square"/>
     </g>
     <g id="line2d_12">
      <defs>
       <path id="ma9f260301b" d="M 0 0 
L 3.5 0 
" style="stroke: #000000; stroke-width: 0.8"/>
      </defs>
      <g>
       <use xlink:href="#ma9f260301b" x="68.023" y="567.332432" style="stroke: #000000; stroke-width: 0.8"/>
      </g>
     </g>
     <g id="text_6">
      <!-- 68 -->
      <g transform="translate(39.073 574.930869) scale(0.2 -0.2)">
       <defs>
        <path id="DejaVuSans-36" d="M 2113 2584 
Q 1688 2584 1439 2293 
Q 1191 2003 1191 1497 
Q 1191 994 1439 701 
Q 1688 409 2113 409 
Q 2538 409 2786 701 
Q 3034 994 3034 1497 
Q 3034 2003 2786 2293 
Q 2538 2584 2113 2584 
z
M 3366 4563 
L 3366 3988 
Q 3128 4100 2886 4159 
Q 2644 4219 2406 4219 
Q 1781 4219 1451 3797 
Q 1122 3375 1075 2522 
Q 1259 2794 1537 2939 
Q 1816 3084 2150 3084 
Q 2853 3084 3261 2657 
Q 3669 2231 3669 1497 
Q 3669 778 3244 343 
Q 2819 -91 2113 -91 
Q 1303 -91 875 529 
Q 447 1150 447 2328 
Q 447 3434 972 4092 
Q 1497 4750 2381 4750 
Q 2619 4750 2861 4703 
Q 3103 4656 3366 4563 
z
" transform="scale(0.015625)"/>
        <path id="DejaVuSans-38" d="M 2034 2216 
Q 1584 2216 1326 1975 
Q 1069 1734 1069 1313 
Q 1069 891 1326 650 
Q 1584 409 2034 409 
Q 2484 409 2743 651 
Q 3003 894 3003 1313 
Q 3003 1734 2745 1975 
Q 2488 2216 2034 2216 
z
M 1403 2484 
Q 997 2584 770 2862 
Q 544 3141 544 3541 
Q 544 4100 942 4425 
Q 1341 4750 2034 4750 
Q 2731 4750 3128 4425 
Q 3525 4100 3525 3541 
Q 3525 3141 3298 2862 
Q 3072 2584 2669 2484 
Q 3125 2378 3379 2068 
Q 3634 1759 3634 1313 
Q 3634 634 3220 271 
Q 2806 -91 2034 -91 
Q 1263 -91 848 271 
Q 434 634 434 1313 
Q 434 1759 690 2068 
Q 947 2378 1403 2484 
z
M 1172 3481 
Q 1172 3119 1398 2916 
Q 1625 2713 2034 2713 
Q 2441 2713 2670 2916 
Q 2900 3119 2900 3481 
Q 2900 3844 2670 4047 
Q 2441 4250 2034 4250 
Q 1625 4250 1398 4047 
Q 1172 3844 1172 3481 
z
" transform="scale(0.015625)"/>
       </defs>
       <use xlink:href="#DejaVuSans-36"/>
       <use xlink:href="#DejaVuSans-38" x="63.623047"/>
      </g>
     </g>
    </g>
    <g id="ytick_2">
     <g id="line2d_13">
      <path d="M 68.023 482.398804 
L 960.823 482.398804 
" clip-path="url(#p5785946a38)" style="fill: none; stroke: #a5a391; stroke-opacity: 0.3; stroke-width: 0.8; stroke-linecap: square"/>
     </g>
     <g id="line2d_14">
      <g>
       <use xlink:href="#ma9f260301b" x="68.023" y="482.398804" style="stroke: #000000; stroke-width: 0.8"/>
      </g>
     </g>
     <g id="text_7">
      <!-- 70 -->
      <g transform="translate(39.073 489.997241) scale(0.2 -0.2)">
       <defs>
        <path id="DejaVuSans-37" d="M 525 4666 
L 3525 4666 
L 3525 4397 
L 1831 0 
L 1172 0 
L 2766 4134 
L 525 4134 
L 525 4666 
z
" transform="scale(0.015625)"/>
       </defs>
       <use xlink:href="#DejaVuSans-37"/>
       <use xlink:href="#DejaVuSans-30" x="63.623047"/>
      </g>
     </g>
    </g>
    <g id="ytick_3">
     <g id="line2d_15">
      <path d="M 68.023 397.465176 
L 960.823 397.465176 
" clip-path="url(#p5785946a38)" style="fill: none; stroke: #a5a391; stroke-opacity: 0.3; stroke-width: 0.8; stroke-linecap: square"/>
     </g>
     <g id="line2d_16">
      <g>
       <use xlink:href="#ma9f260301b" x="68.023" y="397.465176" style="stroke: #000000; stroke-width: 0.8"/>
      </g>
     </g>
     <g id="text_8">
      <!-- 72 -->
      <g transform="translate(39.073 405.063613) scale(0.2 -0.2)">
       <use xlink:href="#DejaVuSans-37"/>
       <use xlink:href="#DejaVuSans-32" x="63.623047"/>
      </g>
     </g>
    </g>
    <g id="ytick_4">
     <g id="line2d_17">
      <path d="M 68.023 312.531548 
L 960.823 312.531548 
" clip-path="url(#p5785946a38)" style="fill: none; stroke: #a5a391; stroke-opacity: 0.3; stroke-width: 0.8; stroke-linecap: square"/>
     </g>
     <g id="line2d_18">
      <g>
       <use xlink:href="#ma9f260301b" x="68.023" y="312.531548" style="stroke: #000000; stroke-width: 0.8"/>
      </g>
     </g>
     <g id="text_9">
      <!-- 74 -->
      <g transform="translate(39.073 320.129985) scale(0.2 -0.2)">
       <use xlink:href="#DejaVuSans-37"/>
       <use xlink:href="#DejaVuSans-34" x="63.623047"/>
      </g>
     </g>
    </g>
    <g id="ytick_5">
     <g id="line2d_19">
      <path d="M 68.023 227.59792 
L 960.823 227.59792 
" clip-path="url(#p5785946a38)" style="fill: none; stroke: #a5a391; stroke-opacity: 0.3; stroke-width: 0.8; stroke-linecap: square"/>
     </g>
     <g id="line2d_20">
      <g>
       <use xlink:href="#ma9f260301b" x="68.023" y="227.59792" style="stroke: #000000; stroke-width: 0.8"/>
      </g>
     </g>
     <g id="text_10">
      <!-- 76 -->
      <g transform="translate(39.073 235.196357) scale(0.2 -0.2)">
       <use xlink:href="#DejaVuSans-37"/>
       <use xlink:href="#DejaVuSans-36" x="63.623047"/>
      </g>
     </g>
    </g>
    <g id="ytick_6">
     <g id="line2d_21">
      <path d="M 68.023 142.664292 
L 960.823 142.664292 
" clip-path="url(#p5785946a38)" style="fill: none; stroke: #a5a391; stroke-opacity: 0.3; stroke-width: 0.8; stroke-linecap: square"/>
     </g>
     <g id="line2d_22">
      <g>
       <use xlink:href="#ma9f260301b" x="68.023" y="142.664292" style="stroke: #000000; stroke-width: 0.8"/>
      </g>
     </g>
     <g id="text_11">
      <!-- 78 -->
      <g transform="translate(39.073 150.262729) scale(0.2 -0.2)">
       <use xlink:href="#DejaVuSans-37"/>
       <use xlink:href="#DejaVuSans-38" x="63.623047"/>
      </g>
     </g>
    </g>
    <g id="ytick_7">
     <g id="line2d_23">
      <path d="M 68.023 57.730664 
L 960.823 57.730664 
" clip-path="url(#p5785946a38)" style="fill: none; stroke: #a5a391; stroke-opacity: 0.3; stroke-width: 0.8; stroke-linecap: square"/>
     </g>
     <g id="line2d_24">
      <g>
       <use xlink:href="#ma9f260301b" x="68.023" y="57.730664" style="stroke: #000000; stroke-width: 0.8"/>
      </g>
     </g>
     <g id="text_12">
      <!-- 80 -->
      <g transform="translate(39.073 65.329101) scale(0.2 -0.2)">
       <use xlink:href="#DejaVuSans-38"/>
       <use xlink:href="#DejaVuSans-30" x="63.623047"/>
      </g>
     </g>
    </g>
    <g id="text_13">
     <!-- Muscle Mass Percentage [%] -->
     <g transform="translate(29.0835 534.56775) rotate(-90) scale(0.288 -0.288)">
      <defs>
       <path id="DejaVuSans-4d" d="M 628 4666 
L 1569 4666 
L 2759 1491 
L 3956 4666 
L 4897 4666 
L 4897 0 
L 4281 0 
L 4281 4097 
L 3078 897 
L 2444 897 
L 1241 4097 
L 1241 0 
L 628 0 
L 628 4666 
z
" transform="scale(0.015625)"/>
       <path id="DejaVuSans-75" d="M 544 1381 
L 544 3500 
L 1119 3500 
L 1119 1403 
Q 1119 906 1312 657 
Q 1506 409 1894 409 
Q 2359 409 2629 706 
Q 2900 1003 2900 1516 
L 2900 3500 
L 3475 3500 
L 3475 0 
L 2900 0 
L 2900 538 
Q 2691 219 2414 64 
Q 2138 -91 1772 -91 
Q 1169 -91 856 284 
Q 544 659 544 1381 
z
M 1991 3584 
L 1991 3584 
z
" transform="scale(0.015625)"/>
       <path id="DejaVuSans-73" d="M 2834 3397 
L 2834 2853 
Q 2591 2978 2328 3040 
Q 2066 3103 1784 3103 
Q 1356 3103 1142 2972 
Q 928 2841 928 2578 
Q 928 2378 1081 2264 
Q 1234 2150 1697 2047 
L 1894 2003 
Q 2506 1872 2764 1633 
Q 3022 1394 3022 966 
Q 3022 478 2636 193 
Q 2250 -91 1575 -91 
Q 1294 -91 989 -36 
Q 684 19 347 128 
L 347 722 
Q 666 556 975 473 
Q 1284 391 1588 391 
Q 1994 391 2212 530 
Q 2431 669 2431 922 
Q 2431 1156 2273 1281 
Q 2116 1406 1581 1522 
L 1381 1569 
Q 847 1681 609 1914 
Q 372 2147 372 2553 
Q 372 3047 722 3315 
Q 1072 3584 1716 3584 
Q 2034 3584 2315 3537 
Q 2597 3491 2834 3397 
z
" transform="scale(0.015625)"/>
       <path id="DejaVuSans-63" d="M 3122 3366 
L 3122 2828 
Q 2878 2963 2633 3030 
Q 2388 3097 2138 3097 
Q 1578 3097 1268 2742 
Q 959 2388 959 1747 
Q 959 1106 1268 751 
Q 1578 397 2138 397 
Q 2388 397 2633 464 
Q 2878 531 3122 666 
L 3122 134 
Q 2881 22 2623 -34 
Q 2366 -91 2075 -91 
Q 1284 -91 818 406 
Q 353 903 353 1747 
Q 353 2603 823 3093 
Q 1294 3584 2113 3584 
Q 2378 3584 2631 3529 
Q 2884 3475 3122 3366 
z
" transform="scale(0.015625)"/>
       <path id="DejaVuSans-6c" d="M 603 4863 
L 1178 4863 
L 1178 0 
L 603 0 
L 603 4863 
z
" transform="scale(0.015625)"/>
       <path id="DejaVuSans-65" d="M 3597 1894 
L 3597 1613 
L 953 1613 
Q 991 1019 1311 708 
Q 1631 397 2203 397 
Q 2534 397 2845 478 
Q 3156 559 3463 722 
L 3463 178 
Q 3153 47 2828 -22 
Q 2503 -91 2169 -91 
Q 1331 -91 842 396 
Q 353 884 353 1716 
Q 353 2575 817 3079 
Q 1281 3584 2069 3584 
Q 2775 3584 3186 3129 
Q 3597 2675 3597 1894 
z
M 3022 2063 
Q 3016 2534 2758 2815 
Q 2500 3097 2075 3097 
Q 1594 3097 1305 2825 
Q 1016 2553 972 2059 
L 3022 2063 
z
" transform="scale(0.015625)"/>
       <path id="DejaVuSans-50" d="M 1259 4147 
L 1259 2394 
L 2053 2394 
Q 2494 2394 2734 2622 
Q 2975 2850 2975 3272 
Q 2975 3691 2734 3919 
Q 2494 4147 2053 4147 
L 1259 4147 
z
M 628 4666 
L 2053 4666 
Q 2838 4666 3239 4311 
Q 3641 3956 3641 3272 
Q 3641 2581 3239 2228 
Q 2838 1875 2053 1875 
L 1259 1875 
L 1259 0 
L 628 0 
L 628 4666 
z
" transform="scale(0.015625)"/>
       <path id="DejaVuSans-72" d="M 2631 2963 
Q 2534 3019 2420 3045 
Q 2306 3072 2169 3072 
Q 1681 3072 1420 2755 
Q 1159 2438 1159 1844 
L 1159 0 
L 581 0 
L 581 3500 
L 1159 3500 
L 1159 2956 
Q 1341 3275 1631 3429 
Q 1922 3584 2338 3584 
Q 2397 3584 2469 3576 
Q 2541 3569 2628 3553 
L 2631 2963 
z
" transform="scale(0.015625)"/>
       <path id="DejaVuSans-74" d="M 1172 4494 
L 1172 3500 
L 2356 3500 
L 2356 3053 
L 1172 3053 
L 1172 1153 
Q 1172 725 1289 603 
Q 1406 481 1766 481 
L 2356 481 
L 2356 0 
L 1766 0 
Q 1100 0 847 248 
Q 594 497 594 1153 
L 594 3053 
L 172 3053 
L 172 3500 
L 594 3500 
L 594 4494 
L 1172 4494 
z
" transform="scale(0.015625)"/>
       <path id="DejaVuSans-67" d="M 2906 1791 
Q 2906 2416 2648 2759 
Q 2391 3103 1925 3103 
Q 1463 3103 1205 2759 
Q 947 2416 947 1791 
Q 947 1169 1205 825 
Q 1463 481 1925 481 
Q 2391 481 2648 825 
Q 2906 1169 2906 1791 
z
M 3481 434 
Q 3481 -459 3084 -895 
Q 2688 -1331 1869 -1331 
Q 1566 -1331 1297 -1286 
Q 1028 -1241 775 -1147 
L 775 -588 
Q 1028 -725 1275 -790 
Q 1522 -856 1778 -856 
Q 2344 -856 2625 -561 
Q 2906 -266 2906 331 
L 2906 616 
Q 2728 306 2450 153 
Q 2172 0 1784 0 
Q 1141 0 747 490 
Q 353 981 353 1791 
Q 353 2603 747 3093 
Q 1141 3584 1784 3584 
Q 2172 3584 2450 3431 
Q 2728 3278 2906 2969 
L 2906 3500 
L 3481 3500 
L 3481 434 
z
" transform="scale(0.015625)"/>
       <path id="DejaVuSans-5b" d="M 550 4863 
L 1875 4863 
L 1875 4416 
L 1125 4416 
L 1125 -397 
L 1875 -397 
L 1875 -844 
L 550 -844 
L 550 4863 
z
" transform="scale(0.015625)"/>
       <path id="DejaVuSans-25" d="M 4653 2053 
Q 4381 2053 4226 1822 
Q 4072 1591 4072 1178 
Q 4072 772 4226 539 
Q 4381 306 4653 306 
Q 4919 306 5073 539 
Q 5228 772 5228 1178 
Q 5228 1588 5073 1820 
Q 4919 2053 4653 2053 
z
M 4653 2450 
Q 5147 2450 5437 2106 
Q 5728 1763 5728 1178 
Q 5728 594 5436 251 
Q 5144 -91 4653 -91 
Q 4153 -91 3862 251 
Q 3572 594 3572 1178 
Q 3572 1766 3864 2108 
Q 4156 2450 4653 2450 
z
M 1428 4353 
Q 1159 4353 1004 4120 
Q 850 3888 850 3481 
Q 850 3069 1003 2837 
Q 1156 2606 1428 2606 
Q 1700 2606 1854 2837 
Q 2009 3069 2009 3481 
Q 2009 3884 1853 4118 
Q 1697 4353 1428 4353 
z
M 4250 4750 
L 4750 4750 
L 1831 -91 
L 1331 -91 
L 4250 4750 
z
M 1428 4750 
Q 1922 4750 2215 4408 
Q 2509 4066 2509 3481 
Q 2509 2891 2217 2550 
Q 1925 2209 1428 2209 
Q 931 2209 642 2551 
Q 353 2894 353 3481 
Q 353 4063 643 4406 
Q 934 4750 1428 4750 
z
" transform="scale(0.015625)"/>
       <path id="DejaVuSans-5d" d="M 1947 4863 
L 1947 -844 
L 622 -844 
L 622 -397 
L 1369 -397 
L 1369 4416 
L 622 4416 
L 622 4863 
L 1947 4863 
z
" transform="scale(0.015625)"/>
      </defs>
      <use xlink:href="#DejaVuSans-4d"/>
      <use xlink:href="#DejaVuSans-75" x="86.279297"/>
      <use xlink:href="#DejaVuSans-73" x="149.658203"/>
      <use xlink:href="#DejaVuSans-63" x="201.757812"/>
      <use xlink:href="#DejaVuSans-6c" x="256.738281"/>
      <use xlink:href="#DejaVuSans-65" x="284.521484"/>
      <use xlink:href="#DejaVuSans-20" x="346.044922"/>
      <use xlink:href="#DejaVuSans-4d" x="377.832031"/>
      <use xlink:href="#DejaVuSans-61" x="464.111328"/>
      <use xlink:href="#DejaVuSans-73" x="525.390625"/>
      <use xlink:href="#DejaVuSans-73" x="577.490234"/>
      <use xlink:href="#DejaVuSans-20" x="629.589844"/>
      <use xlink:href="#DejaVuSans-50" x="661.376953"/>
      <use xlink:href="#DejaVuSans-65" x="718.054688"/>
      <use xlink:href="#DejaVuSans-72" x="779.578125"/>
      <use xlink:href="#DejaVuSans-63" x="818.441406"/>
      <use xlink:href="#DejaVuSans-65" x="873.421875"/>
      <use xlink:href="#DejaVuSans-6e" x="934.945312"/>
      <use xlink:href="#DejaVuSans-74" x="998.324219"/>
      <use xlink:href="#DejaVuSans-61" x="1037.533203"/>
      <use xlink:href="#DejaVuSans-67" x="1098.8125"/>
      <use xlink:href="#DejaVuSans-65" x="1162.289062"/>
      <use xlink:href="#DejaVuSans-20" x="1223.8125"/>
      <use xlink:href="#DejaVuSans-5b" x="1255.599609"/>
      <use xlink:href="#DejaVuSans-25" x="1294.613281"/>
      <use xlink:href="#DejaVuSans-5d" x="1389.632812"/>
     </g>
    </g>
   </g>
   <g id="line2d_25">
    <path d="M 108.604818 301.677747 
L 115.150273 475.998239 
L 118.423 272.506883 
L 121.695727 295.687431 
L 124.968455 242.736932 
L 128.241182 329.123216 
L 131.513909 259.039978 
L 134.786636 248.114434 
L 138.059364 249.736139 
L 141.332091 254.230042 
L 144.604818 299.740581 
L 147.877545 320.321599 
L 151.150273 246.402392 
L 154.423 235.256316 
L 157.695727 283.486495 
L 160.968455 242.387556 
L 164.241182 205.089391 
L 167.513909 182.817766 
L 170.786636 173.0074 
L 174.059364 190.098241 
L 177.332091 185.781102 
L 180.604818 218.812357 
L 183.877545 238.976013 
L 187.150273 223.08801 
L 190.423 233.316055 
L 193.695727 221.235093 
L 196.968455 218.419804 
L 200.241182 201.735366 
L 203.513909 245.403671 
L 206.786636 260.953811 
L 210.059364 250.943757 
L 213.332091 236.125853 
L 216.604818 223.053339 
L 219.877545 248.183664 
L 223.150273 220.826898 
L 226.423 268.800181 
L 229.695727 294.668585 
L 232.968455 264.500221 
L 236.241182 265.462023 
L 239.513909 231.07012 
L 242.786636 269.868009 
L 246.059364 285.795156 
L 249.332091 310.525783 
L 252.604818 273.500641 
L 255.877545 322.283387 
L 259.150273 347.583663 
L 262.423 261.290599 
L 265.695727 289.739762 
L 268.968455 293.686494 
L 272.241182 358.111743 
L 275.513909 321.279981 
L 278.786636 317.295051 
L 282.059364 327.782517 
L 285.332091 303.355612 
L 288.604818 275.174037 
L 291.877545 299.412862 
L 295.150273 297.968877 
L 298.423 277.204457 
L 301.695727 309.412098 
L 304.968455 321.093688 
L 308.241182 297.970576 
L 311.513909 299.218153 
L 314.786636 392.551462 
L 318.059364 371.864773 
L 321.332091 283.32055 
L 324.604818 324.850433 
L 327.877545 304.705133 
L 331.150273 345.21023 
L 334.423 365.594132 
L 337.695727 330.453821 
L 340.968455 337.797665 
L 344.241182 306.284678 
L 347.513909 294.248569 
L 350.786636 304.710655 
L 354.059364 308.690845 
L 357.332091 303.898341 
L 360.604818 256.992077 
L 363.877545 291.980731 
L 367.150273 221.52412 
L 370.423 198.129854 
L 376.968455 271.31229 
L 380.241182 266.948428 
L 383.513909 234.906732 
L 386.786636 283.660047 
L 403.150273 273.789893 
L 406.423 273.801559 
L 409.695727 341.077304 
L 412.968455 282.241193 
L 416.241182 335.526474 
L 429.332091 314.039245 
L 432.604818 331.48368 
L 435.877545 281.29274 
L 458.786636 339.957293 
L 462.059364 369.170484 
L 465.332091 345.881553 
L 468.604818 326.188902 
L 471.877545 264.161487 
L 475.150273 279.007805 
L 478.423 343.355791 
L 481.695727 322.252088 
L 484.968455 350.166808 
L 488.241182 293.259623 
L 491.513909 327.032411 
L 494.786636 334.179846 
L 507.877545 371.88241 
L 511.150273 377.541263 
L 514.423 370.76138 
L 517.695727 323.783158 
L 520.968455 426.745718 
L 537.332091 395.478424 
L 573.332091 335.677086 
L 589.695727 356.627784 
L 592.968455 341.695504 
L 599.513909 405.14051 
L 609.332091 342.712045 
L 651.877545 414.837963 
L 759.877545 143.51514 
L 763.150273 134.122626 
L 766.423 94.263962 
L 769.695727 113.735088 
L 772.968455 119.438735 
L 779.513909 209.220468 
L 782.786636 188.197795 
L 920.241182 104.255769 
" clip-path="url(#p5785946a38)" style="fill: none; stroke: #a52a2a; stroke-width: 1.5; stroke-linecap: square"/>
    <defs>
     <path id="me60ca4684c" d="M 0 -3 
L -0.673542 -0.927051 
L -2.85317 -0.927051 
L -1.089814 0.354102 
L -1.763356 2.427051 
L -0 1.145898 
L 1.763356 2.427051 
L 1.089814 0.354102 
L 2.85317 -0.927051 
L 0.673542 -0.927051 
z
" style="stroke: #a52a2a; stroke-linejoin: bevel"/>
    </defs>
    <g clip-path="url(#p5785946a38)">
     <use xlink:href="#me60ca4684c" x="108.604818" y="301.677747" style="fill: #a52a2a; stroke: #a52a2a; stroke-linejoin: bevel"/>
     <use xlink:href="#me60ca4684c" x="115.150273" y="475.998239" style="fill: #a52a2a; stroke: #a52a2a; stroke-linejoin: bevel"/>
     <use xlink:href="#me60ca4684c" x="118.423" y="272.506883" style="fill: #a52a2a; stroke: #a52a2a; stroke-linejoin: bevel"/>
     <use xlink:href="#me60ca4684c" x="121.695727" y="295.687431" style="fill: #a52a2a; stroke: #a52a2a; stroke-linejoin: bevel"/>
     <use xlink:href="#me60ca4684c" x="124.968455" y="242.736932" style="fill: #a52a2a; stroke: #a52a2a; stroke-linejoin: bevel"/>
     <use xlink:href="#me60ca4684c" x="128.241182" y="329.123216" style="fill: #a52a2a; stroke: #a52a2a; stroke-linejoin: bevel"/>
     <use xlink:href="#me60ca4684c" x="131.513909" y="259.039978" style="fill: #a52a2a; stroke: #a52a2a; stroke-linejoin: bevel"/>
     <use xlink:href="#me60ca4684c" x="134.786636" y="248.114434" style="fill: #a52a2a; stroke: #a52a2a; stroke-linejoin: bevel"/>
     <use xlink:href="#me60ca4684c" x="138.059364" y="249.736139" style="fill: #a52a2a; stroke: #a52a2a; stroke-linejoin: bevel"/>
     <use xlink:href="#me60ca4684c" x="141.332091" y="254.230042" style="fill: #a52a2a; stroke: #a52a2a; stroke-linejoin: bevel"/>
     <use xlink:href="#me60ca4684c" x="144.604818" y="299.740581" style="fill: #a52a2a; stroke: #a52a2a; stroke-linejoin: bevel"/>
     <use xlink:href="#me60ca4684c" x="147.877545" y="320.321599" style="fill: #a52a2a; stroke: #a52a2a; stroke-linejoin: bevel"/>
     <use xlink:href="#me60ca4684c" x="151.150273" y="246.402392" style="fill: #a52a2a; stroke: #a52a2a; stroke-linejoin: bevel"/>
     <use xlink:href="#me60ca4684c" x="154.423" y="235.256316" style="fill: #a52a2a; stroke: #a52a2a; stroke-linejoin: bevel"/>
     <use xlink:href="#me60ca4684c" x="157.695727" y="283.486495" style="fill: #a52a2a; stroke: #a52a2a; stroke-linejoin: bevel"/>
     <use xlink:href="#me60ca4684c" x="160.968455" y="242.387556" style="fill: #a52a2a; stroke: #a52a2a; stroke-linejoin: bevel"/>
     <use xlink:href="#me60ca4684c" x="164.241182" y="205.089391" style="fill: #a52a2a; stroke: #a52a2a; stroke-linejoin: bevel"/>
     <use xlink:href="#me60ca4684c" x="167.513909" y="182.817766" style="fill: #a52a2a; stroke: #a52a2a; stroke-linejoin: bevel"/>
     <use xlink:href="#me60ca4684c" x="170.786636" y="173.0074" style="fill: #a52a2a; stroke: #a52a2a; stroke-linejoin: bevel"/>
     <use xlink:href="#me60ca4684c" x="174.059364" y="190.098241" style="fill: #a52a2a; stroke: #a52a2a; stroke-linejoin: bevel"/>
     <use xlink:href="#me60ca4684c" x="177.332091" y="185.781102" style="fill: #a52a2a; stroke: #a52a2a; stroke-linejoin: bevel"/>
     <use xlink:href="#me60ca4684c" x="180.604818" y="218.812357" style="fill: #a52a2a; stroke: #a52a2a; stroke-linejoin: bevel"/>
     <use xlink:href="#me60ca4684c" x="183.877545" y="238.976013" style="fill: #a52a2a; stroke: #a52a2a; stroke-linejoin: bevel"/>
     <use xlink:href="#me60ca4684c" x="187.150273" y="223.08801" style="fill: #a52a2a; stroke: #a52a2a; stroke-linejoin: bevel"/>
     <use xlink:href="#me60ca4684c" x="190.423" y="233.316055" style="fill: #a52a2a; stroke: #a52a2a; stroke-linejoin: bevel"/>
     <use xlink:href="#me60ca4684c" x="193.695727" y="221.235093" style="fill: #a52a2a; stroke: #a52a2a; stroke-linejoin: bevel"/>
     <use xlink:href="#me60ca4684c" x="196.968455" y="218.419804" style="fill: #a52a2a; stroke: #a52a2a; stroke-linejoin: bevel"/>
     <use xlink:href="#me60ca4684c" x="200.241182" y="201.735366" style="fill: #a52a2a; stroke: #a52a2a; stroke-linejoin: bevel"/>
     <use xlink:href="#me60ca4684c" x="203.513909" y="245.403671" style="fill: #a52a2a; stroke: #a52a2a; stroke-linejoin: bevel"/>
     <use xlink:href="#me60ca4684c" x="206.786636" y="260.953811" style="fill: #a52a2a; stroke: #a52a2a; stroke-linejoin: bevel"/>
     <use xlink:href="#me60ca4684c" x="210.059364" y="250.943757" style="fill: #a52a2a; stroke: #a52a2a; stroke-linejoin: bevel"/>
     <use xlink:href="#me60ca4684c" x="213.332091" y="236.125853" style="fill: #a52a2a; stroke: #a52a2a; stroke-linejoin: bevel"/>
     <use xlink:href="#me60ca4684c" x="216.604818" y="223.053339" style="fill: #a52a2a; stroke: #a52a2a; stroke-linejoin: bevel"/>
     <use xlink:href="#me60ca4684c" x="219.877545" y="248.183664" style="fill: #a52a2a; stroke: #a52a2a; stroke-linejoin: bevel"/>
     <use xlink:href="#me60ca4684c" x="223.150273" y="220.826898" style="fill: #a52a2a; stroke: #a52a2a; stroke-linejoin: bevel"/>
     <use xlink:href="#me60ca4684c" x="226.423" y="268.800181" style="fill: #a52a2a; stroke: #a52a2a; stroke-linejoin: bevel"/>
     <use xlink:href="#me60ca4684c" x="229.695727" y="294.668585" style="fill: #a52a2a; stroke: #a52a2a; stroke-linejoin: bevel"/>
     <use xlink:href="#me60ca4684c" x="232.968455" y="264.500221" style="fill: #a52a2a; stroke: #a52a2a; stroke-linejoin: bevel"/>
     <use xlink:href="#me60ca4684c" x="236.241182" y="265.462023" style="fill: #a52a2a; stroke: #a52a2a; stroke-linejoin: bevel"/>
     <use xlink:href="#me60ca4684c" x="239.513909" y="231.07012" style="fill: #a52a2a; stroke: #a52a2a; stroke-linejoin: bevel"/>
     <use xlink:href="#me60ca4684c" x="242.786636" y="269.868009" style="fill: #a52a2a; stroke: #a52a2a; stroke-linejoin: bevel"/>
     <use xlink:href="#me60ca4684c" x="246.059364" y="285.795156" style="fill: #a52a2a; stroke: #a52a2a; stroke-linejoin: bevel"/>
     <use xlink:href="#me60ca4684c" x="249.332091" y="310.525783" style="fill: #a52a2a; stroke: #a52a2a; stroke-linejoin: bevel"/>
     <use xlink:href="#me60ca4684c" x="252.604818" y="273.500641" style="fill: #a52a2a; stroke: #a52a2a; stroke-linejoin: bevel"/>
     <use xlink:href="#me60ca4684c" x="255.877545" y="322.283387" style="fill: #a52a2a; stroke: #a52a2a; stroke-linejoin: bevel"/>
     <use xlink:href="#me60ca4684c" x="259.150273" y="347.583663" style="fill: #a52a2a; stroke: #a52a2a; stroke-linejoin: bevel"/>
     <use xlink:href="#me60ca4684c" x="262.423" y="261.290599" style="fill: #a52a2a; stroke: #a52a2a; stroke-linejoin: bevel"/>
     <use xlink:href="#me60ca4684c" x="265.695727" y="289.739762" style="fill: #a52a2a; stroke: #a52a2a; stroke-linejoin: bevel"/>
     <use xlink:href="#me60ca4684c" x="268.968455" y="293.686494" style="fill: #a52a2a; stroke: #a52a2a; stroke-linejoin: bevel"/>
     <use xlink:href="#me60ca4684c" x="272.241182" y="358.111743" style="fill: #a52a2a; stroke: #a52a2a; stroke-linejoin: bevel"/>
     <use xlink:href="#me60ca4684c" x="275.513909" y="321.279981" style="fill: #a52a2a; stroke: #a52a2a; stroke-linejoin: bevel"/>
     <use xlink:href="#me60ca4684c" x="278.786636" y="317.295051" style="fill: #a52a2a; stroke: #a52a2a; stroke-linejoin: bevel"/>
     <use xlink:href="#me60ca4684c" x="282.059364" y="327.782517" style="fill: #a52a2a; stroke: #a52a2a; stroke-linejoin: bevel"/>
     <use xlink:href="#me60ca4684c" x="285.332091" y="303.355612" style="fill: #a52a2a; stroke: #a52a2a; stroke-linejoin: bevel"/>
     <use xlink:href="#me60ca4684c" x="288.604818" y="275.174037" style="fill: #a52a2a; stroke: #a52a2a; stroke-linejoin: bevel"/>
     <use xlink:href="#me60ca4684c" x="291.877545" y="299.412862" style="fill: #a52a2a; stroke: #a52a2a; stroke-linejoin: bevel"/>
     <use xlink:href="#me60ca4684c" x="295.150273" y="297.968877" style="fill: #a52a2a; stroke: #a52a2a; stroke-linejoin: bevel"/>
     <use xlink:href="#me60ca4684c" x="298.423" y="277.204457" style="fill: #a52a2a; stroke: #a52a2a; stroke-linejoin: bevel"/>
     <use xlink:href="#me60ca4684c" x="301.695727" y="309.412098" style="fill: #a52a2a; stroke: #a52a2a; stroke-linejoin: bevel"/>
     <use xlink:href="#me60ca4684c" x="304.968455" y="321.093688" style="fill: #a52a2a; stroke: #a52a2a; stroke-linejoin: bevel"/>
     <use xlink:href="#me60ca4684c" x="308.241182" y="297.970576" style="fill: #a52a2a; stroke: #a52a2a; stroke-linejoin: bevel"/>
     <use xlink:href="#me60ca4684c" x="311.513909" y="299.218153" style="fill: #a52a2a; stroke: #a52a2a; stroke-linejoin: bevel"/>
     <use xlink:href="#me60ca4684c" x="314.786636" y="392.551462" style="fill: #a52a2a; stroke: #a52a2a; stroke-linejoin: bevel"/>
     <use xlink:href="#me60ca4684c" x="318.059364" y="371.864773" style="fill: #a52a2a; stroke: #a52a2a; stroke-linejoin: bevel"/>
     <use xlink:href="#me60ca4684c" x="321.332091" y="283.32055" style="fill: #a52a2a; stroke: #a52a2a; stroke-linejoin: bevel"/>
     <use xlink:href="#me60ca4684c" x="324.604818" y="324.850433" style="fill: #a52a2a; stroke: #a52a2a; stroke-linejoin: bevel"/>
     <use xlink:href="#me60ca4684c" x="327.877545" y="304.705133" style="fill: #a52a2a; stroke: #a52a2a; stroke-linejoin: bevel"/>
     <use xlink:href="#me60ca4684c" x="331.150273" y="345.21023" style="fill: #a52a2a; stroke: #a52a2a; stroke-linejoin: bevel"/>
     <use xlink:href="#me60ca4684c" x="334.423" y="365.594132" style="fill: #a52a2a; stroke: #a52a2a; stroke-linejoin: bevel"/>
     <use xlink:href="#me60ca4684c" x="337.695727" y="330.453821" style="fill: #a52a2a; stroke: #a52a2a; stroke-linejoin: bevel"/>
     <use xlink:href="#me60ca4684c" x="340.968455" y="337.797665" style="fill: #a52a2a; stroke: #a52a2a; stroke-linejoin: bevel"/>
     <use xlink:href="#me60ca4684c" x="344.241182" y="306.284678" style="fill: #a52a2a; stroke: #a52a2a; stroke-linejoin: bevel"/>
     <use xlink:href="#me60ca4684c" x="347.513909" y="294.248569" style="fill: #a52a2a; stroke: #a52a2a; stroke-linejoin: bevel"/>
     <use xlink:href="#me60ca4684c" x="350.786636" y="304.710655" style="fill: #a52a2a; stroke: #a52a2a; stroke-linejoin: bevel"/>
     <use xlink:href="#me60ca4684c" x="354.059364" y="308.690845" style="fill: #a52a2a; stroke: #a52a2a; stroke-linejoin: bevel"/>
     <use xlink:href="#me60ca4684c" x="357.332091" y="303.898341" style="fill: #a52a2a; stroke: #a52a2a; stroke-linejoin: bevel"/>
     <use xlink:href="#me60ca4684c" x="360.604818" y="256.992077" style="fill: #a52a2a; stroke: #a52a2a; stroke-linejoin: bevel"/>
     <use xlink:href="#me60ca4684c" x="363.877545" y="291.980731" style="fill: #a52a2a; stroke: #a52a2a; stroke-linejoin: bevel"/>
     <use xlink:href="#me60ca4684c" x="367.150273" y="221.52412" style="fill: #a52a2a; stroke: #a52a2a; stroke-linejoin: bevel"/>
     <use xlink:href="#me60ca4684c" x="370.423" y="198.129854" style="fill: #a52a2a; stroke: #a52a2a; stroke-linejoin: bevel"/>
     <use xlink:href="#me60ca4684c" x="376.968455" y="271.31229" style="fill: #a52a2a; stroke: #a52a2a; stroke-linejoin: bevel"/>
     <use xlink:href="#me60ca4684c" x="380.241182" y="266.948428" style="fill: #a52a2a; stroke: #a52a2a; stroke-linejoin: bevel"/>
     <use xlink:href="#me60ca4684c" x="383.513909" y="234.906732" style="fill: #a52a2a; stroke: #a52a2a; stroke-linejoin: bevel"/>
     <use xlink:href="#me60ca4684c" x="386.786636" y="283.660047" style="fill: #a52a2a; stroke: #a52a2a; stroke-linejoin: bevel"/>
     <use xlink:href="#me60ca4684c" x="403.150273" y="273.789893" style="fill: #a52a2a; stroke: #a52a2a; stroke-linejoin: bevel"/>
     <use xlink:href="#me60ca4684c" x="406.423" y="273.801559" style="fill: #a52a2a; stroke: #a52a2a; stroke-linejoin: bevel"/>
     <use xlink:href="#me60ca4684c" x="409.695727" y="341.077304" style="fill: #a52a2a; stroke: #a52a2a; stroke-linejoin: bevel"/>
     <use xlink:href="#me60ca4684c" x="412.968455" y="282.241193" style="fill: #a52a2a; stroke: #a52a2a; stroke-linejoin: bevel"/>
     <use xlink:href="#me60ca4684c" x="416.241182" y="335.526474" style="fill: #a52a2a; stroke: #a52a2a; stroke-linejoin: bevel"/>
     <use xlink:href="#me60ca4684c" x="429.332091" y="314.039245" style="fill: #a52a2a; stroke: #a52a2a; stroke-linejoin: bevel"/>
     <use xlink:href="#me60ca4684c" x="432.604818" y="331.48368" style="fill: #a52a2a; stroke: #a52a2a; stroke-linejoin: bevel"/>
     <use xlink:href="#me60ca4684c" x="435.877545" y="281.29274" style="fill: #a52a2a; stroke: #a52a2a; stroke-linejoin: bevel"/>
     <use xlink:href="#me60ca4684c" x="458.786636" y="339.957293" style="fill: #a52a2a; stroke: #a52a2a; stroke-linejoin: bevel"/>
     <use xlink:href="#me60ca4684c" x="462.059364" y="369.170484" style="fill: #a52a2a; stroke: #a52a2a; stroke-linejoin: bevel"/>
     <use xlink:href="#me60ca4684c" x="465.332091" y="345.881553" style="fill: #a52a2a; stroke: #a52a2a; stroke-linejoin: bevel"/>
     <use xlink:href="#me60ca4684c" x="468.604818" y="326.188902" style="fill: #a52a2a; stroke: #a52a2a; stroke-linejoin: bevel"/>
     <use xlink:href="#me60ca4684c" x="471.877545" y="264.161487" style="fill: #a52a2a; stroke: #a52a2a; stroke-linejoin: bevel"/>
     <use xlink:href="#me60ca4684c" x="475.150273" y="279.007805" style="fill: #a52a2a; stroke: #a52a2a; stroke-linejoin: bevel"/>
     <use xlink:href="#me60ca4684c" x="478.423" y="343.355791" style="fill: #a52a2a; stroke: #a52a2a; stroke-linejoin: bevel"/>
     <use xlink:href="#me60ca4684c" x="481.695727" y="322.252088" style="fill: #a52a2a; stroke: #a52a2a; stroke-linejoin: bevel"/>
     <use xlink:href="#me60ca4684c" x="484.968455" y="350.166808" style="fill: #a52a2a; stroke: #a52a2a; stroke-linejoin: bevel"/>
     <use xlink:href="#me60ca4684c" x="488.241182" y="293.259623" style="fill: #a52a2a; stroke: #a52a2a; stroke-linejoin: bevel"/>
     <use xlink:href="#me60ca4684c" x="491.513909" y="327.032411" style="fill: #a52a2a; stroke: #a52a2a; stroke-linejoin: bevel"/>
     <use xlink:href="#me60ca4684c" x="494.786636" y="334.179846" style="fill: #a52a2a; stroke: #a52a2a; stroke-linejoin: bevel"/>
     <use xlink:href="#me60ca4684c" x="507.877545" y="371.88241" style="fill: #a52a2a; stroke: #a52a2a; stroke-linejoin: bevel"/>
     <use xlink:href="#me60ca4684c" x="511.150273" y="377.541263" style="fill: #a52a2a; stroke: #a52a2a; stroke-linejoin: bevel"/>
     <use xlink:href="#me60ca4684c" x="514.423" y="370.76138" style="fill: #a52a2a; stroke: #a52a2a; stroke-linejoin: bevel"/>
     <use xlink:href="#me60ca4684c" x="517.695727" y="323.783158" style="fill: #a52a2a; stroke: #a52a2a; stroke-linejoin: bevel"/>
     <use xlink:href="#me60ca4684c" x="520.968455" y="426.745718" style="fill: #a52a2a; stroke: #a52a2a; stroke-linejoin: bevel"/>
     <use xlink:href="#me60ca4684c" x="537.332091" y="395.478424" style="fill: #a52a2a; stroke: #a52a2a; stroke-linejoin: bevel"/>
     <use xlink:href="#me60ca4684c" x="573.332091" y="335.677086" style="fill: #a52a2a; stroke: #a52a2a; stroke-linejoin: bevel"/>
     <use xlink:href="#me60ca4684c" x="589.695727" y="356.627784" style="fill: #a52a2a; stroke: #a52a2a; stroke-linejoin: bevel"/>
     <use xlink:href="#me60ca4684c" x="592.968455" y="341.695504" style="fill: #a52a2a; stroke: #a52a2a; stroke-linejoin: bevel"/>
     <use xlink:href="#me60ca4684c" x="599.513909" y="405.14051" style="fill: #a52a2a; stroke: #a52a2a; stroke-linejoin: bevel"/>
     <use xlink:href="#me60ca4684c" x="609.332091" y="342.712045" style="fill: #a52a2a; stroke: #a52a2a; stroke-linejoin: bevel"/>
     <use xlink:href="#me60ca4684c" x="651.877545" y="414.837963" style="fill: #a52a2a; stroke: #a52a2a; stroke-linejoin: bevel"/>
     <use xlink:href="#me60ca4684c" x="759.877545" y="143.51514" style="fill: #a52a2a; stroke: #a52a2a; stroke-linejoin: bevel"/>
     <use xlink:href="#me60ca4684c" x="763.150273" y="134.122626" style="fill: #a52a2a; stroke: #a52a2a; stroke-linejoin: bevel"/>
     <use xlink:href="#me60ca4684c" x="766.423" y="94.263962" style="fill: #a52a2a; stroke: #a52a2a; stroke-linejoin: bevel"/>
     <use xlink:href="#me60ca4684c" x="769.695727" y="113.735088" style="fill: #a52a2a; stroke: #a52a2a; stroke-linejoin: bevel"/>
     <use xlink:href="#me60ca4684c" x="772.968455" y="119.438735" style="fill: #a52a2a; stroke: #a52a2a; stroke-linejoin: bevel"/>
     <use xlink:href="#me60ca4684c" x="779.513909" y="209.220468" style="fill: #a52a2a; stroke: #a52a2a; stroke-linejoin: bevel"/>
     <use xlink:href="#me60ca4684c" x="782.786636" y="188.197795" style="fill: #a52a2a; stroke: #a52a2a; stroke-linejoin: bevel"/>
     <use xlink:href="#me60ca4684c" x="920.241182" y="104.255769" style="fill: #a52a2a; stroke: #a52a2a; stroke-linejoin: bevel"/>
    </g>
   </g>
   <g id="patch_3">
    <path d="M 68.023 622.6035 
L 68.023 35.0835 
" style="fill: none; stroke: #000000; stroke-width: 0.8; stroke-linejoin: miter; stroke-linecap: square"/>
   </g>
   <g id="patch_4">
    <path d="M 960.823 622.6035 
L 960.823 35.0835 
" style="fill: none; stroke: #000000; stroke-width: 0.8; stroke-linejoin: miter; stroke-linecap: square"/>
   </g>
   <g id="patch_5">
    <path d="M 68.023 622.6035 
L 960.823 622.6035 
" style="fill: none; stroke: #000000; stroke-width: 0.8; stroke-linejoin: miter; stroke-linecap: square"/>
   </g>
   <g id="patch_6">
    <path d="M 68.023 35.0835 
L 960.823 35.0835 
" style="fill: none; stroke: #000000; stroke-width: 0.8; stroke-linejoin: miter; stroke-linecap: square"/>
   </g>
   <g id="text_14">
    <!-- Body Muscle Mass Percentage -->
    <g transform="translate(297.262 29.0835) scale(0.288 -0.288)">
     <defs>
      <path id="DejaVuSans-42" d="M 1259 2228 
L 1259 519 
L 2272 519 
Q 2781 519 3026 730 
Q 3272 941 3272 1375 
Q 3272 1813 3026 2020 
Q 2781 2228 2272 2228 
L 1259 2228 
z
M 1259 4147 
L 1259 2741 
L 2194 2741 
Q 2656 2741 2882 2914 
Q 3109 3088 3109 3444 
Q 3109 3797 2882 3972 
Q 2656 4147 2194 4147 
L 1259 4147 
z
M 628 4666 
L 2241 4666 
Q 2963 4666 3353 4366 
Q 3744 4066 3744 3513 
Q 3744 3084 3544 2831 
Q 3344 2578 2956 2516 
Q 3422 2416 3680 2098 
Q 3938 1781 3938 1306 
Q 3938 681 3513 340 
Q 3088 0 2303 0 
L 628 0 
L 628 4666 
z
" transform="scale(0.015625)"/>
      <path id="DejaVuSans-6f" d="M 1959 3097 
Q 1497 3097 1228 2736 
Q 959 2375 959 1747 
Q 959 1119 1226 758 
Q 1494 397 1959 397 
Q 2419 397 2687 759 
Q 2956 1122 2956 1747 
Q 2956 2369 2687 2733 
Q 2419 3097 1959 3097 
z
M 1959 3584 
Q 2709 3584 3137 3096 
Q 3566 2609 3566 1747 
Q 3566 888 3137 398 
Q 2709 -91 1959 -91 
Q 1206 -91 779 398 
Q 353 888 353 1747 
Q 353 2609 779 3096 
Q 1206 3584 1959 3584 
z
" transform="scale(0.015625)"/>
      <path id="DejaVuSans-64" d="M 2906 2969 
L 2906 4863 
L 3481 4863 
L 3481 0 
L 2906 0 
L 2906 525 
Q 2725 213 2448 61 
Q 2172 -91 1784 -91 
Q 1150 -91 751 415 
Q 353 922 353 1747 
Q 353 2572 751 3078 
Q 1150 3584 1784 3584 
Q 2172 3584 2448 3432 
Q 2725 3281 2906 2969 
z
M 947 1747 
Q 947 1113 1208 752 
Q 1469 391 1925 391 
Q 2381 391 2643 752 
Q 2906 1113 2906 1747 
Q 2906 2381 2643 2742 
Q 2381 3103 1925 3103 
Q 1469 3103 1208 2742 
Q 947 2381 947 1747 
z
" transform="scale(0.015625)"/>
      <path id="DejaVuSans-79" d="M 2059 -325 
Q 1816 -950 1584 -1140 
Q 1353 -1331 966 -1331 
L 506 -1331 
L 506 -850 
L 844 -850 
Q 1081 -850 1212 -737 
Q 1344 -625 1503 -206 
L 1606 56 
L 191 3500 
L 800 3500 
L 1894 763 
L 2988 3500 
L 3597 3500 
L 2059 -325 
z
" transform="scale(0.015625)"/>
     </defs>
     <use xlink:href="#DejaVuSans-42"/>
     <use xlink:href="#DejaVuSans-6f" x="68.603516"/>
     <use xlink:href="#DejaVuSans-64" x="129.785156"/>
     <use xlink:href="#DejaVuSans-79" x="193.261719"/>
     <use xlink:href="#DejaVuSans-20" x="252.441406"/>
     <use xlink:href="#DejaVuSans-4d" x="284.228516"/>
     <use xlink:href="#DejaVuSans-75" x="370.507812"/>
     <use xlink:href="#DejaVuSans-73" x="433.886719"/>
     <use xlink:href="#DejaVuSans-63" x="485.986328"/>
     <use xlink:href="#DejaVuSans-6c" x="540.966797"/>
     <use xlink:href="#DejaVuSans-65" x="568.75"/>
     <use xlink:href="#DejaVuSans-20" x="630.273438"/>
     <use xlink:href="#DejaVuSans-4d" x="662.060547"/>
     <use xlink:href="#DejaVuSans-61" x="748.339844"/>
     <use xlink:href="#DejaVuSans-73" x="809.619141"/>
     <use xlink:href="#DejaVuSans-73" x="861.71875"/>
     <use xlink:href="#DejaVuSans-20" x="913.818359"/>
     <use xlink:href="#DejaVuSans-50" x="945.605469"/>
     <use xlink:href="#DejaVuSans-65" x="1002.283203"/>
     <use xlink:href="#DejaVuSans-72" x="1063.806641"/>
     <use xlink:href="#DejaVuSans-63" x="1102.669922"/>
     <use xlink:href="#DejaVuSans-65" x="1157.650391"/>
     <use xlink:href="#DejaVuSans-6e" x="1219.173828"/>
     <use xlink:href="#DejaVuSans-74" x="1282.552734"/>
     <use xlink:href="#DejaVuSans-61" x="1321.761719"/>
     <use xlink:href="#DejaVuSans-67" x="1383.041016"/>
     <use xlink:href="#DejaVuSans-65" x="1446.517578"/>
    </g>
   </g>
  </g>
 </g>
 <defs>
  <clipPath id="p5785946a38">
   <rect x="68.023" y="35.0835" width="892.8" height="587.52"/>
  </clipPath>
 </defs>
</svg>
