<?xml version="1.0" encoding="utf-8" standalone="no"?>
<!DOCTYPE svg PUBLIC "-//W3C//DTD SVG 1.1//EN"
  "http://www.w3.org/Graphics/SVG/1.1/DTD/svg11.dtd">
<svg xmlns:xlink="http://www.w3.org/1999/xlink" width="968.023pt" height="700.466504pt" viewBox="0 0 968.023 700.466504" xmlns="http://www.w3.org/2000/svg" version="1.1">
 <metadata>
  <rdf:RDF xmlns:dc="http://purl.org/dc/elements/1.1/" xmlns:cc="http://creativecommons.org/ns#" xmlns:rdf="http://www.w3.org/1999/02/22-rdf-syntax-ns#">
   <cc:Work>
    <dc:type rdf:resource="http://purl.org/dc/dcmitype/StillImage"/>
    <dc:date>2025-01-28T19:17:12.977570</dc:date>
    <dc:format>image/svg+xml</dc:format>
    <dc:creator>
     <cc:Agent>
      <dc:title>Matplotlib v3.10.0, https://matplotlib.org/</dc:title>
     </cc:Agent>
    </dc:creator>
   </cc:Work>
  </rdf:RDF>
 </metadata>
 <defs>
  <style type="text/css">*{stroke-linejoin: round; stroke-linecap: butt}</style>
 </defs>
 <g id="figure_1">
  <g id="patch_1">
   <path d="M 0 700.466504 
L 968.023 700.466504 
L 968.023 0 
L 0 0 
z
" style="fill: #ffffff"/>
  </g>
  <g id="axes_1">
   <g id="patch_2">
    <path d="M 68.023 622.6035 
L 960.823 622.6035 
L 960.823 35.0835 
L 68.023 35.0835 
z
" style="fill: #ffffff"/>
   </g>
   <g id="FillBetweenPolyCollection_1">
    <defs>
     <path id="m5f8bed88bd" d="M 108.604818 -371.857645 
L 108.604818 -301.719254 
L 114.730376 -397.711577 
L 117.793154 -267.121836 
L 120.855933 -312.606745 
L 123.918712 -258.711588 
L 126.981491 -353.013585 
L 130.044269 -292.867982 
L 133.107048 -248.051184 
L 136.169827 -255.169761 
L 139.232605 -284.022327 
L 142.295384 -321.916977 
L 145.358163 -332.374209 
L 148.420942 -255.493097 
L 151.48372 -239.688338 
L 154.546499 -283.66984 
L 157.609278 -239.941161 
L 160.672057 -210.573589 
L 163.734835 -199.752754 
L 166.797614 -199.080227 
L 169.860393 -224.186333 
L 172.923172 -211.082017 
L 175.98595 -215.465781 
L 179.048729 -252.431555 
L 182.111508 -194.31283 
L 185.174286 -222.000595 
L 188.237065 -224.638023 
L 191.299844 -225.268364 
L 194.362623 -223.680398 
L 197.425401 -257.907966 
L 200.48818 -275.734428 
L 203.550959 -264.75348 
L 206.613738 -248.842795 
L 209.676516 -244.216939 
L 212.739295 -270.946923 
L 215.802074 -216.834884 
L 218.864852 -271.448047 
L 221.927631 -304.50352 
L 224.99041 -280.59995 
L 228.053189 -263.384377 
L 231.115967 -250.330628 
L 234.178746 -293.322549 
L 237.241525 -286.659124 
L 240.304304 -322.884534 
L 243.367082 -297.513638 
L 246.429861 -314.041179 
L 249.49264 -352.376056 
L 252.555419 -277.075405 
L 255.618197 -314.041179 
L 258.680976 -342.249993 
L 261.743755 -371.264902 
L 264.806533 -320.202141 
L 267.869312 -314.256408 
L 270.932091 -323.60352 
L 273.99487 -319.061609 
L 277.057648 -299.872494 
L 280.120427 -295.558292 
L 283.183206 -284.883321 
L 286.245985 -293.504638 
L 289.308763 -316.857939 
L 292.371542 -331.691166 
L 295.434321 -312.419649 
L 298.497099 -301.719254 
L 301.559878 -392.080035 
L 304.622657 -379.758111 
L 307.685436 -326.363104 
L 310.748214 -325.404387 
L 313.810993 -312.727645 
L 316.873772 -331.069063 
L 319.936551 -369.48984 
L 322.999329 -333.208617 
L 326.062108 -334.692262 
L 329.124887 -314.158995 
L 332.187666 -272.968097 
L 335.250444 -303.045374 
L 338.313223 -305.826562 
L 341.376002 -326.46621 
L 344.43878 -261.438933 
L 347.501559 -303.772908 
L 350.564338 -260.646172 
L 353.627117 -233.735388 
L 359.752674 -285.290021 
L 362.815453 -274.450833 
L 365.878232 -237.565953 
L 368.94101 -297.611946 
L 384.254904 -297.611946 
L 387.317683 -297.611946 
L 390.380461 -330.074392 
L 393.44324 -312.672076 
L 396.506019 -363.328878 
L 408.757134 -326.363104 
L 411.819913 -375.650802 
L 414.882691 -318.148487 
L 436.322142 -369.257657 
L 439.384921 -394.13369 
L 442.4477 -363.328878 
L 445.510479 -334.696791 
L 448.573257 -279.129059 
L 451.636036 -281.182713 
L 454.698815 -361.275224 
L 457.761593 -314.041179 
L 460.824372 -359.22157 
L 463.887151 -269.38327 
L 466.94993 -342.792337 
L 470.012708 -351.006953 
L 482.263823 -361.275224 
L 485.326602 -381.127213 
L 488.389381 -372.912597 
L 491.45216 -320.169711 
L 494.514938 -424.938501 
L 509.828832 -412.616577 
L 543.519398 -355.114261 
L 558.833292 -363.328878 
L 561.89607 -348.953299 
L 568.021628 -387.972727 
L 577.209964 -338.685028 
L 617.026087 -416.723885 
L 718.097786 -167.547185 
L 721.160564 -114.365606 
L 724.223343 -112.826409 
L 727.286122 -104.568459 
L 730.348901 -112.783075 
L 736.474458 -203.143856 
L 739.537237 -194.92924 
L 868.173943 -140.16513 
L 920.241182 -119.101113 
L 920.241182 -201.247278 
L 920.241182 -201.247278 
L 868.173943 -210.303521 
L 739.537237 -265.067631 
L 736.474458 -273.282247 
L 730.348901 -182.921466 
L 727.286122 -174.706849 
L 724.223343 -150.019667 
L 721.160564 -222.412017 
L 718.097786 -237.685576 
L 617.026087 -486.862275 
L 577.209964 -408.823419 
L 568.021628 -458.111118 
L 561.89607 -419.091689 
L 558.833292 -433.467268 
L 543.519398 -425.252652 
L 509.828832 -482.754967 
L 494.514938 -495.076892 
L 491.45216 -375.997383 
L 488.389381 -443.050988 
L 485.326602 -451.265604 
L 482.263823 -431.413614 
L 470.012708 -421.145344 
L 466.94993 -412.930727 
L 463.887151 -395.979012 
L 460.824372 -429.35996 
L 457.761593 -384.179569 
L 454.698815 -431.413614 
L 451.636036 -351.321104 
L 448.573257 -349.267449 
L 445.510479 -390.221461 
L 442.4477 -433.467268 
L 439.384921 -464.27208 
L 436.322142 -396.733677 
L 414.882691 -388.286878 
L 411.819913 -445.789193 
L 408.757134 -396.501494 
L 396.506019 -433.467268 
L 393.44324 -382.810467 
L 390.380461 -429.755979 
L 387.317683 -367.750337 
L 384.254904 -367.750337 
L 368.94101 -367.750337 
L 365.878232 -325.113624 
L 362.815453 -346.55252 
L 359.752674 -355.428412 
L 353.627117 -279.65649 
L 350.564338 -330.784562 
L 347.501559 -373.911299 
L 344.43878 -338.206418 
L 341.376002 -365.593576 
L 338.313223 -375.964953 
L 335.250444 -399.282683 
L 332.187666 -343.106487 
L 329.124887 -397.752781 
L 326.062108 -425.959572 
L 322.999329 -403.347008 
L 319.936551 -439.628231 
L 316.873772 -459.566121 
L 313.810993 -405.442886 
L 310.748214 -412.246521 
L 307.685436 -396.501494 
L 304.622657 -449.896501 
L 301.559878 -462.218426 
L 298.497099 -371.857645 
L 295.434321 -373.479175 
L 292.371542 -385.69702 
L 289.308763 -379.719886 
L 286.245985 -363.643028 
L 283.183206 -395.265271 
L 280.120427 -365.696682 
L 277.057648 -375.073508 
L 273.99487 -388.547272 
L 270.932091 -415.690311 
L 267.869312 -422.983769 
L 264.806533 -390.340532 
L 261.743755 -415.262974 
L 258.680976 -358.02441 
L 255.618197 -384.179569 
L 252.555419 -347.213795 
L 249.49264 -422.514446 
L 246.429861 -384.179569 
L 243.367082 -347.312104 
L 240.304304 -367.121598 
L 237.241525 -356.797515 
L 234.178746 -330.966651 
L 231.115967 -291.812408 
L 228.053189 -333.522768 
L 224.99041 -332.188787 
L 221.927631 -359.489659 
L 218.864852 -315.875379 
L 215.802074 -286.973274 
L 212.739295 -308.983348 
L 209.676516 -314.355329 
L 206.613738 -331.087476 
L 203.550959 -334.891871 
L 200.48818 -369.912775 
L 197.425401 -328.046357 
L 194.362623 -293.818788 
L 191.299844 -320.160518 
L 188.237065 -313.397704 
L 185.174286 -299.605899 
L 182.111508 -331.400972 
L 179.048729 -322.569946 
L 175.98595 -285.604172 
L 172.923172 -240.700237 
L 169.860393 -241.9715 
L 166.797614 -217.789907 
L 163.734835 -240.529037 
L 160.672057 -283.650851 
L 157.609278 -330.953032 
L 154.546499 -367.316864 
L 151.48372 -312.312238 
L 148.420942 -321.562058 
L 145.358163 -375.430259 
L 142.295384 -409.162237 
L 139.232605 -343.005078 
L 136.169827 -325.308151 
L 133.107048 -321.473906 
L 130.044269 -327.31391 
L 126.981491 -386.280246 
L 123.918712 -314.236259 
L 120.855933 -348.648229 
L 117.793154 -347.779231 
L 114.730376 -638.67755 
L 108.604818 -371.857645 
z
" style="stroke: #bfbf00; stroke-opacity: 0.2"/>
    </defs>
    <g clip-path="url(#pbb5db1b41a)">
     <use xlink:href="#m5f8bed88bd" x="0" y="700.466504" style="fill: #bfbf00; fill-opacity: 0.2; stroke: #bfbf00; stroke-opacity: 0.2"/>
    </g>
   </g>
   <g id="matplotlib.axis_1">
    <g id="xtick_1">
     <g id="line2d_1">
      <path d="M 111.667597 622.6035 
L 111.667597 35.0835 
" clip-path="url(#pbb5db1b41a)" style="fill: none; stroke: #a5a391; stroke-opacity: 0.3; stroke-width: 0.8; stroke-linecap: square"/>
     </g>
     <g id="line2d_2">
      <defs>
       <path id="m050daacdf0" d="M 0 0 
L 0 -3.5 
" style="stroke: #000000; stroke-width: 0.8"/>
      </defs>
      <g>
       <use xlink:href="#m050daacdf0" x="111.667597" y="622.6035" style="stroke: #000000; stroke-width: 0.8"/>
      </g>
     </g>
     <g id="text_1">
      <!-- Jan 01, 20 -->
      <g transform="translate(22.292549 689.66438) rotate(-30) scale(0.2 -0.2)">
       <defs>
        <path id="DejaVuSans-4a" d="M 628 4666 
L 1259 4666 
L 1259 325 
Q 1259 -519 939 -900 
Q 619 -1281 -91 -1281 
L -331 -1281 
L -331 -750 
L -134 -750 
Q 284 -750 456 -515 
Q 628 -281 628 325 
L 628 4666 
z
" transform="scale(0.015625)"/>
        <path id="DejaVuSans-61" d="M 2194 1759 
Q 1497 1759 1228 1600 
Q 959 1441 959 1056 
Q 959 750 1161 570 
Q 1363 391 1709 391 
Q 2188 391 2477 730 
Q 2766 1069 2766 1631 
L 2766 1759 
L 2194 1759 
z
M 3341 1997 
L 3341 0 
L 2766 0 
L 2766 531 
Q 2569 213 2275 61 
Q 1981 -91 1556 -91 
Q 1019 -91 701 211 
Q 384 513 384 1019 
Q 384 1609 779 1909 
Q 1175 2209 1959 2209 
L 2766 2209 
L 2766 2266 
Q 2766 2663 2505 2880 
Q 2244 3097 1772 3097 
Q 1472 3097 1187 3025 
Q 903 2953 641 2809 
L 641 3341 
Q 956 3463 1253 3523 
Q 1550 3584 1831 3584 
Q 2591 3584 2966 3190 
Q 3341 2797 3341 1997 
z
" transform="scale(0.015625)"/>
        <path id="DejaVuSans-6e" d="M 3513 2113 
L 3513 0 
L 2938 0 
L 2938 2094 
Q 2938 2591 2744 2837 
Q 2550 3084 2163 3084 
Q 1697 3084 1428 2787 
Q 1159 2491 1159 1978 
L 1159 0 
L 581 0 
L 581 3500 
L 1159 3500 
L 1159 2956 
Q 1366 3272 1645 3428 
Q 1925 3584 2291 3584 
Q 2894 3584 3203 3211 
Q 3513 2838 3513 2113 
z
" transform="scale(0.015625)"/>
        <path id="DejaVuSans-20" transform="scale(0.015625)"/>
        <path id="DejaVuSans-30" d="M 2034 4250 
Q 1547 4250 1301 3770 
Q 1056 3291 1056 2328 
Q 1056 1369 1301 889 
Q 1547 409 2034 409 
Q 2525 409 2770 889 
Q 3016 1369 3016 2328 
Q 3016 3291 2770 3770 
Q 2525 4250 2034 4250 
z
M 2034 4750 
Q 2819 4750 3233 4129 
Q 3647 3509 3647 2328 
Q 3647 1150 3233 529 
Q 2819 -91 2034 -91 
Q 1250 -91 836 529 
Q 422 1150 422 2328 
Q 422 3509 836 4129 
Q 1250 4750 2034 4750 
z
" transform="scale(0.015625)"/>
        <path id="DejaVuSans-31" d="M 794 531 
L 1825 531 
L 1825 4091 
L 703 3866 
L 703 4441 
L 1819 4666 
L 2450 4666 
L 2450 531 
L 3481 531 
L 3481 0 
L 794 0 
L 794 531 
z
" transform="scale(0.015625)"/>
        <path id="DejaVuSans-2c" d="M 750 794 
L 1409 794 
L 1409 256 
L 897 -744 
L 494 -744 
L 750 256 
L 750 794 
z
" transform="scale(0.015625)"/>
        <path id="DejaVuSans-32" d="M 1228 531 
L 3431 531 
L 3431 0 
L 469 0 
L 469 531 
Q 828 903 1448 1529 
Q 2069 2156 2228 2338 
Q 2531 2678 2651 2914 
Q 2772 3150 2772 3378 
Q 2772 3750 2511 3984 
Q 2250 4219 1831 4219 
Q 1534 4219 1204 4116 
Q 875 4013 500 3803 
L 500 4441 
Q 881 4594 1212 4672 
Q 1544 4750 1819 4750 
Q 2544 4750 2975 4387 
Q 3406 4025 3406 3419 
Q 3406 3131 3298 2873 
Q 3191 2616 2906 2266 
Q 2828 2175 2409 1742 
Q 1991 1309 1228 531 
z
" transform="scale(0.015625)"/>
       </defs>
       <use xlink:href="#DejaVuSans-4a"/>
       <use xlink:href="#DejaVuSans-61" transform="translate(29.492188 0)"/>
       <use xlink:href="#DejaVuSans-6e" transform="translate(90.771484 0)"/>
       <use xlink:href="#DejaVuSans-20" transform="translate(154.150391 0)"/>
       <use xlink:href="#DejaVuSans-30" transform="translate(185.9375 0)"/>
       <use xlink:href="#DejaVuSans-31" transform="translate(249.560547 0)"/>
       <use xlink:href="#DejaVuSans-2c" transform="translate(313.183594 0)"/>
       <use xlink:href="#DejaVuSans-20" transform="translate(344.970703 0)"/>
       <use xlink:href="#DejaVuSans-32" transform="translate(376.757812 0)"/>
       <use xlink:href="#DejaVuSans-30" transform="translate(440.380859 0)"/>
      </g>
     </g>
    </g>
    <g id="xtick_2">
     <g id="line2d_3">
      <path d="M 271.807171 622.6035 
L 271.807171 35.0835 
" clip-path="url(#pbb5db1b41a)" style="fill: none; stroke: #a5a391; stroke-opacity: 0.3; stroke-width: 0.8; stroke-linecap: square"/>
     </g>
     <g id="line2d_4">
      <g>
       <use xlink:href="#m050daacdf0" x="271.807171" y="622.6035" style="stroke: #000000; stroke-width: 0.8"/>
      </g>
     </g>
     <g id="text_2">
      <!-- Jan 01, 21 -->
      <g transform="translate(182.432122 689.66438) rotate(-30) scale(0.2 -0.2)">
       <use xlink:href="#DejaVuSans-4a"/>
       <use xlink:href="#DejaVuSans-61" transform="translate(29.492188 0)"/>
       <use xlink:href="#DejaVuSans-6e" transform="translate(90.771484 0)"/>
       <use xlink:href="#DejaVuSans-20" transform="translate(154.150391 0)"/>
       <use xlink:href="#DejaVuSans-30" transform="translate(185.9375 0)"/>
       <use xlink:href="#DejaVuSans-31" transform="translate(249.560547 0)"/>
       <use xlink:href="#DejaVuSans-2c" transform="translate(313.183594 0)"/>
       <use xlink:href="#DejaVuSans-20" transform="translate(344.970703 0)"/>
       <use xlink:href="#DejaVuSans-32" transform="translate(376.757812 0)"/>
       <use xlink:href="#DejaVuSans-31" transform="translate(440.380859 0)"/>
      </g>
     </g>
    </g>
    <g id="xtick_3">
     <g id="line2d_5">
      <path d="M 431.509204 622.6035 
L 431.509204 35.0835 
" clip-path="url(#pbb5db1b41a)" style="fill: none; stroke: #a5a391; stroke-opacity: 0.3; stroke-width: 0.8; stroke-linecap: square"/>
     </g>
     <g id="line2d_6">
      <g>
       <use xlink:href="#m050daacdf0" x="431.509204" y="622.6035" style="stroke: #000000; stroke-width: 0.8"/>
      </g>
     </g>
     <g id="text_3">
      <!-- Jan 01, 22 -->
      <g transform="translate(342.134156 689.66438) rotate(-30) scale(0.2 -0.2)">
       <use xlink:href="#DejaVuSans-4a"/>
       <use xlink:href="#DejaVuSans-61" transform="translate(29.492188 0)"/>
       <use xlink:href="#DejaVuSans-6e" transform="translate(90.771484 0)"/>
       <use xlink:href="#DejaVuSans-20" transform="translate(154.150391 0)"/>
       <use xlink:href="#DejaVuSans-30" transform="translate(185.9375 0)"/>
       <use xlink:href="#DejaVuSans-31" transform="translate(249.560547 0)"/>
       <use xlink:href="#DejaVuSans-2c" transform="translate(313.183594 0)"/>
       <use xlink:href="#DejaVuSans-20" transform="translate(344.970703 0)"/>
       <use xlink:href="#DejaVuSans-32" transform="translate(376.757812 0)"/>
       <use xlink:href="#DejaVuSans-32" transform="translate(440.380859 0)"/>
      </g>
     </g>
    </g>
    <g id="xtick_4">
     <g id="line2d_7">
      <path d="M 591.211238 622.6035 
L 591.211238 35.0835 
" clip-path="url(#pbb5db1b41a)" style="fill: none; stroke: #a5a391; stroke-opacity: 0.3; stroke-width: 0.8; stroke-linecap: square"/>
     </g>
     <g id="line2d_8">
      <g>
       <use xlink:href="#m050daacdf0" x="591.211238" y="622.6035" style="stroke: #000000; stroke-width: 0.8"/>
      </g>
     </g>
     <g id="text_4">
      <!-- Jan 01, 23 -->
      <g transform="translate(501.83619 689.66438) rotate(-30) scale(0.2 -0.2)">
       <defs>
        <path id="DejaVuSans-33" d="M 2597 2516 
Q 3050 2419 3304 2112 
Q 3559 1806 3559 1356 
Q 3559 666 3084 287 
Q 2609 -91 1734 -91 
Q 1441 -91 1130 -33 
Q 819 25 488 141 
L 488 750 
Q 750 597 1062 519 
Q 1375 441 1716 441 
Q 2309 441 2620 675 
Q 2931 909 2931 1356 
Q 2931 1769 2642 2001 
Q 2353 2234 1838 2234 
L 1294 2234 
L 1294 2753 
L 1863 2753 
Q 2328 2753 2575 2939 
Q 2822 3125 2822 3475 
Q 2822 3834 2567 4026 
Q 2313 4219 1838 4219 
Q 1578 4219 1281 4162 
Q 984 4106 628 3988 
L 628 4550 
Q 988 4650 1302 4700 
Q 1616 4750 1894 4750 
Q 2613 4750 3031 4423 
Q 3450 4097 3450 3541 
Q 3450 3153 3228 2886 
Q 3006 2619 2597 2516 
z
" transform="scale(0.015625)"/>
       </defs>
       <use xlink:href="#DejaVuSans-4a"/>
       <use xlink:href="#DejaVuSans-61" transform="translate(29.492188 0)"/>
       <use xlink:href="#DejaVuSans-6e" transform="translate(90.771484 0)"/>
       <use xlink:href="#DejaVuSans-20" transform="translate(154.150391 0)"/>
       <use xlink:href="#DejaVuSans-30" transform="translate(185.9375 0)"/>
       <use xlink:href="#DejaVuSans-31" transform="translate(249.560547 0)"/>
       <use xlink:href="#DejaVuSans-2c" transform="translate(313.183594 0)"/>
       <use xlink:href="#DejaVuSans-20" transform="translate(344.970703 0)"/>
       <use xlink:href="#DejaVuSans-32" transform="translate(376.757812 0)"/>
       <use xlink:href="#DejaVuSans-33" transform="translate(440.380859 0)"/>
      </g>
     </g>
    </g>
    <g id="xtick_5">
     <g id="line2d_9">
      <path d="M 750.913272 622.6035 
L 750.913272 35.0835 
" clip-path="url(#pbb5db1b41a)" style="fill: none; stroke: #a5a391; stroke-opacity: 0.3; stroke-width: 0.8; stroke-linecap: square"/>
     </g>
     <g id="line2d_10">
      <g>
       <use xlink:href="#m050daacdf0" x="750.913272" y="622.6035" style="stroke: #000000; stroke-width: 0.8"/>
      </g>
     </g>
     <g id="text_5">
      <!-- Jan 01, 24 -->
      <g transform="translate(661.538224 689.66438) rotate(-30) scale(0.2 -0.2)">
       <defs>
        <path id="DejaVuSans-34" d="M 2419 4116 
L 825 1625 
L 2419 1625 
L 2419 4116 
z
M 2253 4666 
L 3047 4666 
L 3047 1625 
L 3713 1625 
L 3713 1100 
L 3047 1100 
L 3047 0 
L 2419 0 
L 2419 1100 
L 313 1100 
L 313 1709 
L 2253 4666 
z
" transform="scale(0.015625)"/>
       </defs>
       <use xlink:href="#DejaVuSans-4a"/>
       <use xlink:href="#DejaVuSans-61" transform="translate(29.492188 0)"/>
       <use xlink:href="#DejaVuSans-6e" transform="translate(90.771484 0)"/>
       <use xlink:href="#DejaVuSans-20" transform="translate(154.150391 0)"/>
       <use xlink:href="#DejaVuSans-30" transform="translate(185.9375 0)"/>
       <use xlink:href="#DejaVuSans-31" transform="translate(249.560547 0)"/>
       <use xlink:href="#DejaVuSans-2c" transform="translate(313.183594 0)"/>
       <use xlink:href="#DejaVuSans-20" transform="translate(344.970703 0)"/>
       <use xlink:href="#DejaVuSans-32" transform="translate(376.757812 0)"/>
       <use xlink:href="#DejaVuSans-34" transform="translate(440.380859 0)"/>
      </g>
     </g>
    </g>
    <g id="xtick_6">
     <g id="line2d_11">
      <path d="M 911.052846 622.6035 
L 911.052846 35.0835 
" clip-path="url(#pbb5db1b41a)" style="fill: none; stroke: #a5a391; stroke-opacity: 0.3; stroke-width: 0.8; stroke-linecap: square"/>
     </g>
     <g id="line2d_12">
      <g>
       <use xlink:href="#m050daacdf0" x="911.052846" y="622.6035" style="stroke: #000000; stroke-width: 0.8"/>
      </g>
     </g>
     <g id="text_6">
      <!-- Jan 01, 25 -->
      <g transform="translate(821.677797 689.66438) rotate(-30) scale(0.2 -0.2)">
       <defs>
        <path id="DejaVuSans-35" d="M 691 4666 
L 3169 4666 
L 3169 4134 
L 1269 4134 
L 1269 2991 
Q 1406 3038 1543 3061 
Q 1681 3084 1819 3084 
Q 2600 3084 3056 2656 
Q 3513 2228 3513 1497 
Q 3513 744 3044 326 
Q 2575 -91 1722 -91 
Q 1428 -91 1123 -41 
Q 819 9 494 109 
L 494 744 
Q 775 591 1075 516 
Q 1375 441 1709 441 
Q 2250 441 2565 725 
Q 2881 1009 2881 1497 
Q 2881 1984 2565 2268 
Q 2250 2553 1709 2553 
Q 1456 2553 1204 2497 
Q 953 2441 691 2322 
L 691 4666 
z
" transform="scale(0.015625)"/>
       </defs>
       <use xlink:href="#DejaVuSans-4a"/>
       <use xlink:href="#DejaVuSans-61" transform="translate(29.492188 0)"/>
       <use xlink:href="#DejaVuSans-6e" transform="translate(90.771484 0)"/>
       <use xlink:href="#DejaVuSans-20" transform="translate(154.150391 0)"/>
       <use xlink:href="#DejaVuSans-30" transform="translate(185.9375 0)"/>
       <use xlink:href="#DejaVuSans-31" transform="translate(249.560547 0)"/>
       <use xlink:href="#DejaVuSans-2c" transform="translate(313.183594 0)"/>
       <use xlink:href="#DejaVuSans-20" transform="translate(344.970703 0)"/>
       <use xlink:href="#DejaVuSans-32" transform="translate(376.757812 0)"/>
       <use xlink:href="#DejaVuSans-35" transform="translate(440.380859 0)"/>
      </g>
     </g>
    </g>
   </g>
   <g id="matplotlib.axis_2">
    <g id="ytick_1">
     <g id="line2d_13">
      <path d="M 68.023 589.580008 
L 960.823 589.580008 
" clip-path="url(#pbb5db1b41a)" style="fill: none; stroke: #a5a391; stroke-opacity: 0.3; stroke-width: 0.8; stroke-linecap: square"/>
     </g>
     <g id="line2d_14">
      <defs>
       <path id="m4cbe599fcf" d="M 0 0 
L 3.5 0 
" style="stroke: #000000; stroke-width: 0.8"/>
      </defs>
      <g>
       <use xlink:href="#m4cbe599fcf" x="68.023" y="589.580008" style="stroke: #000000; stroke-width: 0.8"/>
      </g>
     </g>
     <g id="text_7">
      <!-- 16 -->
      <g transform="translate(39.073 597.178445) scale(0.2 -0.2)">
       <defs>
        <path id="DejaVuSans-36" d="M 2113 2584 
Q 1688 2584 1439 2293 
Q 1191 2003 1191 1497 
Q 1191 994 1439 701 
Q 1688 409 2113 409 
Q 2538 409 2786 701 
Q 3034 994 3034 1497 
Q 3034 2003 2786 2293 
Q 2538 2584 2113 2584 
z
M 3366 4563 
L 3366 3988 
Q 3128 4100 2886 4159 
Q 2644 4219 2406 4219 
Q 1781 4219 1451 3797 
Q 1122 3375 1075 2522 
Q 1259 2794 1537 2939 
Q 1816 3084 2150 3084 
Q 2853 3084 3261 2657 
Q 3669 2231 3669 1497 
Q 3669 778 3244 343 
Q 2819 -91 2113 -91 
Q 1303 -91 875 529 
Q 447 1150 447 2328 
Q 447 3434 972 4092 
Q 1497 4750 2381 4750 
Q 2619 4750 2861 4703 
Q 3103 4656 3366 4563 
z
" transform="scale(0.015625)"/>
       </defs>
       <use xlink:href="#DejaVuSans-31"/>
       <use xlink:href="#DejaVuSans-36" transform="translate(63.623047 0)"/>
      </g>
     </g>
    </g>
    <g id="ytick_2">
     <g id="line2d_15">
      <path d="M 68.023 507.433843 
L 960.823 507.433843 
" clip-path="url(#pbb5db1b41a)" style="fill: none; stroke: #a5a391; stroke-opacity: 0.3; stroke-width: 0.8; stroke-linecap: square"/>
     </g>
     <g id="line2d_16">
      <g>
       <use xlink:href="#m4cbe599fcf" x="68.023" y="507.433843" style="stroke: #000000; stroke-width: 0.8"/>
      </g>
     </g>
     <g id="text_8">
      <!-- 18 -->
      <g transform="translate(39.073 515.032281) scale(0.2 -0.2)">
       <defs>
        <path id="DejaVuSans-38" d="M 2034 2216 
Q 1584 2216 1326 1975 
Q 1069 1734 1069 1313 
Q 1069 891 1326 650 
Q 1584 409 2034 409 
Q 2484 409 2743 651 
Q 3003 894 3003 1313 
Q 3003 1734 2745 1975 
Q 2488 2216 2034 2216 
z
M 1403 2484 
Q 997 2584 770 2862 
Q 544 3141 544 3541 
Q 544 4100 942 4425 
Q 1341 4750 2034 4750 
Q 2731 4750 3128 4425 
Q 3525 4100 3525 3541 
Q 3525 3141 3298 2862 
Q 3072 2584 2669 2484 
Q 3125 2378 3379 2068 
Q 3634 1759 3634 1313 
Q 3634 634 3220 271 
Q 2806 -91 2034 -91 
Q 1263 -91 848 271 
Q 434 634 434 1313 
Q 434 1759 690 2068 
Q 947 2378 1403 2484 
z
M 1172 3481 
Q 1172 3119 1398 2916 
Q 1625 2713 2034 2713 
Q 2441 2713 2670 2916 
Q 2900 3119 2900 3481 
Q 2900 3844 2670 4047 
Q 2441 4250 2034 4250 
Q 1625 4250 1398 4047 
Q 1172 3844 1172 3481 
z
" transform="scale(0.015625)"/>
       </defs>
       <use xlink:href="#DejaVuSans-31"/>
       <use xlink:href="#DejaVuSans-38" transform="translate(63.623047 0)"/>
      </g>
     </g>
    </g>
    <g id="ytick_3">
     <g id="line2d_17">
      <path d="M 68.023 425.287678 
L 960.823 425.287678 
" clip-path="url(#pbb5db1b41a)" style="fill: none; stroke: #a5a391; stroke-opacity: 0.3; stroke-width: 0.8; stroke-linecap: square"/>
     </g>
     <g id="line2d_18">
      <g>
       <use xlink:href="#m4cbe599fcf" x="68.023" y="425.287678" style="stroke: #000000; stroke-width: 0.8"/>
      </g>
     </g>
     <g id="text_9">
      <!-- 20 -->
      <g transform="translate(39.073 432.886116) scale(0.2 -0.2)">
       <use xlink:href="#DejaVuSans-32"/>
       <use xlink:href="#DejaVuSans-30" transform="translate(63.623047 0)"/>
      </g>
     </g>
    </g>
    <g id="ytick_4">
     <g id="line2d_19">
      <path d="M 68.023 343.141514 
L 960.823 343.141514 
" clip-path="url(#pbb5db1b41a)" style="fill: none; stroke: #a5a391; stroke-opacity: 0.3; stroke-width: 0.8; stroke-linecap: square"/>
     </g>
     <g id="line2d_20">
      <g>
       <use xlink:href="#m4cbe599fcf" x="68.023" y="343.141514" style="stroke: #000000; stroke-width: 0.8"/>
      </g>
     </g>
     <g id="text_10">
      <!-- 22 -->
      <g transform="translate(39.073 350.739951) scale(0.2 -0.2)">
       <use xlink:href="#DejaVuSans-32"/>
       <use xlink:href="#DejaVuSans-32" transform="translate(63.623047 0)"/>
      </g>
     </g>
    </g>
    <g id="ytick_5">
     <g id="line2d_21">
      <path d="M 68.023 260.995349 
L 960.823 260.995349 
" clip-path="url(#pbb5db1b41a)" style="fill: none; stroke: #a5a391; stroke-opacity: 0.3; stroke-width: 0.8; stroke-linecap: square"/>
     </g>
     <g id="line2d_22">
      <g>
       <use xlink:href="#m4cbe599fcf" x="68.023" y="260.995349" style="stroke: #000000; stroke-width: 0.8"/>
      </g>
     </g>
     <g id="text_11">
      <!-- 24 -->
      <g transform="translate(39.073 268.593786) scale(0.2 -0.2)">
       <use xlink:href="#DejaVuSans-32"/>
       <use xlink:href="#DejaVuSans-34" transform="translate(63.623047 0)"/>
      </g>
     </g>
    </g>
    <g id="ytick_6">
     <g id="line2d_23">
      <path d="M 68.023 178.849184 
L 960.823 178.849184 
" clip-path="url(#pbb5db1b41a)" style="fill: none; stroke: #a5a391; stroke-opacity: 0.3; stroke-width: 0.8; stroke-linecap: square"/>
     </g>
     <g id="line2d_24">
      <g>
       <use xlink:href="#m4cbe599fcf" x="68.023" y="178.849184" style="stroke: #000000; stroke-width: 0.8"/>
      </g>
     </g>
     <g id="text_12">
      <!-- 26 -->
      <g transform="translate(39.073 186.447622) scale(0.2 -0.2)">
       <use xlink:href="#DejaVuSans-32"/>
       <use xlink:href="#DejaVuSans-36" transform="translate(63.623047 0)"/>
      </g>
     </g>
    </g>
    <g id="ytick_7">
     <g id="line2d_25">
      <path d="M 68.023 96.703019 
L 960.823 96.703019 
" clip-path="url(#pbb5db1b41a)" style="fill: none; stroke: #a5a391; stroke-opacity: 0.3; stroke-width: 0.8; stroke-linecap: square"/>
     </g>
     <g id="line2d_26">
      <g>
       <use xlink:href="#m4cbe599fcf" x="68.023" y="96.703019" style="stroke: #000000; stroke-width: 0.8"/>
      </g>
     </g>
     <g id="text_13">
      <!-- 28 -->
      <g transform="translate(39.073 104.301457) scale(0.2 -0.2)">
       <use xlink:href="#DejaVuSans-32"/>
       <use xlink:href="#DejaVuSans-38" transform="translate(63.623047 0)"/>
      </g>
     </g>
    </g>
    <g id="text_14">
     <!-- Fat Percentage [%] -->
     <g transform="translate(29.0835 465.3465) rotate(-90) scale(0.288 -0.288)">
      <defs>
       <path id="DejaVuSans-46" d="M 628 4666 
L 3309 4666 
L 3309 4134 
L 1259 4134 
L 1259 2759 
L 3109 2759 
L 3109 2228 
L 1259 2228 
L 1259 0 
L 628 0 
L 628 4666 
z
" transform="scale(0.015625)"/>
       <path id="DejaVuSans-74" d="M 1172 4494 
L 1172 3500 
L 2356 3500 
L 2356 3053 
L 1172 3053 
L 1172 1153 
Q 1172 725 1289 603 
Q 1406 481 1766 481 
L 2356 481 
L 2356 0 
L 1766 0 
Q 1100 0 847 248 
Q 594 497 594 1153 
L 594 3053 
L 172 3053 
L 172 3500 
L 594 3500 
L 594 4494 
L 1172 4494 
z
" transform="scale(0.015625)"/>
       <path id="DejaVuSans-50" d="M 1259 4147 
L 1259 2394 
L 2053 2394 
Q 2494 2394 2734 2622 
Q 2975 2850 2975 3272 
Q 2975 3691 2734 3919 
Q 2494 4147 2053 4147 
L 1259 4147 
z
M 628 4666 
L 2053 4666 
Q 2838 4666 3239 4311 
Q 3641 3956 3641 3272 
Q 3641 2581 3239 2228 
Q 2838 1875 2053 1875 
L 1259 1875 
L 1259 0 
L 628 0 
L 628 4666 
z
" transform="scale(0.015625)"/>
       <path id="DejaVuSans-65" d="M 3597 1894 
L 3597 1613 
L 953 1613 
Q 991 1019 1311 708 
Q 1631 397 2203 397 
Q 2534 397 2845 478 
Q 3156 559 3463 722 
L 3463 178 
Q 3153 47 2828 -22 
Q 2503 -91 2169 -91 
Q 1331 -91 842 396 
Q 353 884 353 1716 
Q 353 2575 817 3079 
Q 1281 3584 2069 3584 
Q 2775 3584 3186 3129 
Q 3597 2675 3597 1894 
z
M 3022 2063 
Q 3016 2534 2758 2815 
Q 2500 3097 2075 3097 
Q 1594 3097 1305 2825 
Q 1016 2553 972 2059 
L 3022 2063 
z
" transform="scale(0.015625)"/>
       <path id="DejaVuSans-72" d="M 2631 2963 
Q 2534 3019 2420 3045 
Q 2306 3072 2169 3072 
Q 1681 3072 1420 2755 
Q 1159 2438 1159 1844 
L 1159 0 
L 581 0 
L 581 3500 
L 1159 3500 
L 1159 2956 
Q 1341 3275 1631 3429 
Q 1922 3584 2338 3584 
Q 2397 3584 2469 3576 
Q 2541 3569 2628 3553 
L 2631 2963 
z
" transform="scale(0.015625)"/>
       <path id="DejaVuSans-63" d="M 3122 3366 
L 3122 2828 
Q 2878 2963 2633 3030 
Q 2388 3097 2138 3097 
Q 1578 3097 1268 2742 
Q 959 2388 959 1747 
Q 959 1106 1268 751 
Q 1578 397 2138 397 
Q 2388 397 2633 464 
Q 2878 531 3122 666 
L 3122 134 
Q 2881 22 2623 -34 
Q 2366 -91 2075 -91 
Q 1284 -91 818 406 
Q 353 903 353 1747 
Q 353 2603 823 3093 
Q 1294 3584 2113 3584 
Q 2378 3584 2631 3529 
Q 2884 3475 3122 3366 
z
" transform="scale(0.015625)"/>
       <path id="DejaVuSans-67" d="M 2906 1791 
Q 2906 2416 2648 2759 
Q 2391 3103 1925 3103 
Q 1463 3103 1205 2759 
Q 947 2416 947 1791 
Q 947 1169 1205 825 
Q 1463 481 1925 481 
Q 2391 481 2648 825 
Q 2906 1169 2906 1791 
z
M 3481 434 
Q 3481 -459 3084 -895 
Q 2688 -1331 1869 -1331 
Q 1566 -1331 1297 -1286 
Q 1028 -1241 775 -1147 
L 775 -588 
Q 1028 -725 1275 -790 
Q 1522 -856 1778 -856 
Q 2344 -856 2625 -561 
Q 2906 -266 2906 331 
L 2906 616 
Q 2728 306 2450 153 
Q 2172 0 1784 0 
Q 1141 0 747 490 
Q 353 981 353 1791 
Q 353 2603 747 3093 
Q 1141 3584 1784 3584 
Q 2172 3584 2450 3431 
Q 2728 3278 2906 2969 
L 2906 3500 
L 3481 3500 
L 3481 434 
z
" transform="scale(0.015625)"/>
       <path id="DejaVuSans-5b" d="M 550 4863 
L 1875 4863 
L 1875 4416 
L 1125 4416 
L 1125 -397 
L 1875 -397 
L 1875 -844 
L 550 -844 
L 550 4863 
z
" transform="scale(0.015625)"/>
       <path id="DejaVuSans-25" d="M 4653 2053 
Q 4381 2053 4226 1822 
Q 4072 1591 4072 1178 
Q 4072 772 4226 539 
Q 4381 306 4653 306 
Q 4919 306 5073 539 
Q 5228 772 5228 1178 
Q 5228 1588 5073 1820 
Q 4919 2053 4653 2053 
z
M 4653 2450 
Q 5147 2450 5437 2106 
Q 5728 1763 5728 1178 
Q 5728 594 5436 251 
Q 5144 -91 4653 -91 
Q 4153 -91 3862 251 
Q 3572 594 3572 1178 
Q 3572 1766 3864 2108 
Q 4156 2450 4653 2450 
z
M 1428 4353 
Q 1159 4353 1004 4120 
Q 850 3888 850 3481 
Q 850 3069 1003 2837 
Q 1156 2606 1428 2606 
Q 1700 2606 1854 2837 
Q 2009 3069 2009 3481 
Q 2009 3884 1853 4118 
Q 1697 4353 1428 4353 
z
M 4250 4750 
L 4750 4750 
L 1831 -91 
L 1331 -91 
L 4250 4750 
z
M 1428 4750 
Q 1922 4750 2215 4408 
Q 2509 4066 2509 3481 
Q 2509 2891 2217 2550 
Q 1925 2209 1428 2209 
Q 931 2209 642 2551 
Q 353 2894 353 3481 
Q 353 4063 643 4406 
Q 934 4750 1428 4750 
z
" transform="scale(0.015625)"/>
       <path id="DejaVuSans-5d" d="M 1947 4863 
L 1947 -844 
L 622 -844 
L 622 -397 
L 1369 -397 
L 1369 4416 
L 622 4416 
L 622 4863 
L 1947 4863 
z
" transform="scale(0.015625)"/>
      </defs>
      <use xlink:href="#DejaVuSans-46"/>
      <use xlink:href="#DejaVuSans-61" transform="translate(48.394531 0)"/>
      <use xlink:href="#DejaVuSans-74" transform="translate(109.673828 0)"/>
      <use xlink:href="#DejaVuSans-20" transform="translate(148.882812 0)"/>
      <use xlink:href="#DejaVuSans-50" transform="translate(180.669922 0)"/>
      <use xlink:href="#DejaVuSans-65" transform="translate(237.347656 0)"/>
      <use xlink:href="#DejaVuSans-72" transform="translate(298.871094 0)"/>
      <use xlink:href="#DejaVuSans-63" transform="translate(337.734375 0)"/>
      <use xlink:href="#DejaVuSans-65" transform="translate(392.714844 0)"/>
      <use xlink:href="#DejaVuSans-6e" transform="translate(454.238281 0)"/>
      <use xlink:href="#DejaVuSans-74" transform="translate(517.617188 0)"/>
      <use xlink:href="#DejaVuSans-61" transform="translate(556.826172 0)"/>
      <use xlink:href="#DejaVuSans-67" transform="translate(618.105469 0)"/>
      <use xlink:href="#DejaVuSans-65" transform="translate(681.582031 0)"/>
      <use xlink:href="#DejaVuSans-20" transform="translate(743.105469 0)"/>
      <use xlink:href="#DejaVuSans-5b" transform="translate(774.892578 0)"/>
      <use xlink:href="#DejaVuSans-25" transform="translate(813.90625 0)"/>
      <use xlink:href="#DejaVuSans-5d" transform="translate(908.925781 0)"/>
     </g>
    </g>
   </g>
   <g id="line2d_27">
    <path d="M 108.604818 363.678055 
L 114.730376 182.271941 
L 117.793154 393.015971 
L 120.855933 369.839017 
L 123.918712 413.992581 
L 126.981491 330.819589 
L 130.044269 390.375558 
L 133.107048 415.703959 
L 136.169827 410.227548 
L 139.232605 386.952801 
L 142.295384 334.926897 
L 145.358163 346.56427 
L 148.420942 411.938927 
L 151.48372 424.466217 
L 154.546499 374.973152 
L 157.609278 415.019408 
L 160.672057 453.354285 
L 163.734835 480.325609 
L 166.797614 492.031437 
L 169.860393 467.387588 
L 172.923172 474.575377 
L 175.98595 449.931528 
L 179.048729 412.965754 
L 182.111508 437.609603 
L 185.174286 439.663257 
L 188.237065 431.448641 
L 191.299844 427.752063 
L 194.362623 441.716911 
L 197.425401 407.489343 
L 200.48818 377.642903 
L 203.550959 400.643829 
L 206.613738 410.501369 
L 209.676516 421.18037 
L 212.739295 410.501369 
L 215.802074 448.562425 
L 218.864852 406.804791 
L 221.927631 368.469914 
L 224.99041 394.072136 
L 228.053189 402.012932 
L 231.115967 429.394987 
L 234.178746 388.321904 
L 237.241525 378.738185 
L 240.304304 355.463438 
L 243.367082 378.053634 
L 246.429861 351.35613 
L 249.49264 313.021253 
L 252.555419 388.321904 
L 255.618197 351.35613 
L 258.680976 350.329303 
L 261.743755 307.202566 
L 264.806533 345.195168 
L 267.869312 331.846416 
L 270.932091 330.819589 
L 273.99487 346.662063 
L 277.057648 362.993503 
L 280.120427 369.839017 
L 283.183206 360.392208 
L 286.245985 371.892671 
L 289.308763 352.177592 
L 292.371542 341.772411 
L 295.434321 357.517092 
L 298.497099 363.678055 
L 301.559878 273.317274 
L 304.622657 285.639198 
L 307.685436 339.034205 
L 310.748214 331.641051 
L 313.810993 341.381239 
L 316.873772 305.148912 
L 319.936551 295.907469 
L 322.999329 332.188692 
L 326.062108 320.140587 
L 329.124887 344.510616 
L 332.187666 392.429212 
L 335.250444 349.302476 
L 338.313223 359.570747 
L 341.376002 354.436611 
L 344.43878 400.643829 
L 347.501559 361.624401 
L 350.564338 404.751137 
L 353.627117 443.770565 
L 359.752674 380.107288 
L 362.815453 389.964827 
L 365.878232 419.126716 
L 368.94101 367.785363 
L 384.254904 367.785363 
L 387.317683 367.785363 
L 390.380461 320.551318 
L 393.44324 352.725233 
L 396.506019 302.068431 
L 408.757134 339.034205 
L 411.819913 289.746506 
L 414.882691 347.248822 
L 436.322142 317.470837 
L 439.384921 271.263619 
L 442.4477 302.068431 
L 445.510479 338.007378 
L 448.573257 386.26825 
L 451.636036 384.214596 
L 454.698815 304.122085 
L 457.761593 351.35613 
L 460.824372 306.175739 
L 463.887151 367.785363 
L 466.94993 322.604972 
L 470.012708 314.390356 
L 482.263823 304.122085 
L 485.326602 284.270095 
L 488.389381 292.484712 
L 491.45216 352.382957 
L 494.514938 240.458808 
L 509.828832 252.780732 
L 543.519398 310.283048 
L 558.833292 302.068431 
L 561.89607 316.44401 
L 568.021628 277.424582 
L 577.209964 326.712281 
L 617.026087 248.673424 
L 718.097786 497.850124 
L 721.160564 532.077693 
L 724.223343 569.043467 
L 727.286122 560.82885 
L 730.348901 552.614234 
L 736.474458 462.253452 
L 739.537237 470.468069 
L 868.173943 525.232179 
L 920.241182 540.292309 
" clip-path="url(#pbb5db1b41a)" style="fill: none; stroke: #bfbf00; stroke-width: 1.5; stroke-linecap: square"/>
    <defs>
     <path id="m43e462bd57" d="M 0 -3 
L -0.673542 -0.927051 
L -2.85317 -0.927051 
L -1.089814 0.354102 
L -1.763356 2.427051 
L -0 1.145898 
L 1.763356 2.427051 
L 1.089814 0.354102 
L 2.85317 -0.927051 
L 0.673542 -0.927051 
z
" style="stroke: #bfbf00; stroke-linejoin: bevel"/>
    </defs>
    <g clip-path="url(#pbb5db1b41a)">
     <use xlink:href="#m43e462bd57" x="108.604818" y="363.678055" style="fill: #bfbf00; stroke: #bfbf00; stroke-linejoin: bevel"/>
     <use xlink:href="#m43e462bd57" x="114.730376" y="182.271941" style="fill: #bfbf00; stroke: #bfbf00; stroke-linejoin: bevel"/>
     <use xlink:href="#m43e462bd57" x="117.793154" y="393.015971" style="fill: #bfbf00; stroke: #bfbf00; stroke-linejoin: bevel"/>
     <use xlink:href="#m43e462bd57" x="120.855933" y="369.839017" style="fill: #bfbf00; stroke: #bfbf00; stroke-linejoin: bevel"/>
     <use xlink:href="#m43e462bd57" x="123.918712" y="413.992581" style="fill: #bfbf00; stroke: #bfbf00; stroke-linejoin: bevel"/>
     <use xlink:href="#m43e462bd57" x="126.981491" y="330.819589" style="fill: #bfbf00; stroke: #bfbf00; stroke-linejoin: bevel"/>
     <use xlink:href="#m43e462bd57" x="130.044269" y="390.375558" style="fill: #bfbf00; stroke: #bfbf00; stroke-linejoin: bevel"/>
     <use xlink:href="#m43e462bd57" x="133.107048" y="415.703959" style="fill: #bfbf00; stroke: #bfbf00; stroke-linejoin: bevel"/>
     <use xlink:href="#m43e462bd57" x="136.169827" y="410.227548" style="fill: #bfbf00; stroke: #bfbf00; stroke-linejoin: bevel"/>
     <use xlink:href="#m43e462bd57" x="139.232605" y="386.952801" style="fill: #bfbf00; stroke: #bfbf00; stroke-linejoin: bevel"/>
     <use xlink:href="#m43e462bd57" x="142.295384" y="334.926897" style="fill: #bfbf00; stroke: #bfbf00; stroke-linejoin: bevel"/>
     <use xlink:href="#m43e462bd57" x="145.358163" y="346.56427" style="fill: #bfbf00; stroke: #bfbf00; stroke-linejoin: bevel"/>
     <use xlink:href="#m43e462bd57" x="148.420942" y="411.938927" style="fill: #bfbf00; stroke: #bfbf00; stroke-linejoin: bevel"/>
     <use xlink:href="#m43e462bd57" x="151.48372" y="424.466217" style="fill: #bfbf00; stroke: #bfbf00; stroke-linejoin: bevel"/>
     <use xlink:href="#m43e462bd57" x="154.546499" y="374.973152" style="fill: #bfbf00; stroke: #bfbf00; stroke-linejoin: bevel"/>
     <use xlink:href="#m43e462bd57" x="157.609278" y="415.019408" style="fill: #bfbf00; stroke: #bfbf00; stroke-linejoin: bevel"/>
     <use xlink:href="#m43e462bd57" x="160.672057" y="453.354285" style="fill: #bfbf00; stroke: #bfbf00; stroke-linejoin: bevel"/>
     <use xlink:href="#m43e462bd57" x="163.734835" y="480.325609" style="fill: #bfbf00; stroke: #bfbf00; stroke-linejoin: bevel"/>
     <use xlink:href="#m43e462bd57" x="166.797614" y="492.031437" style="fill: #bfbf00; stroke: #bfbf00; stroke-linejoin: bevel"/>
     <use xlink:href="#m43e462bd57" x="169.860393" y="467.387588" style="fill: #bfbf00; stroke: #bfbf00; stroke-linejoin: bevel"/>
     <use xlink:href="#m43e462bd57" x="172.923172" y="474.575377" style="fill: #bfbf00; stroke: #bfbf00; stroke-linejoin: bevel"/>
     <use xlink:href="#m43e462bd57" x="175.98595" y="449.931528" style="fill: #bfbf00; stroke: #bfbf00; stroke-linejoin: bevel"/>
     <use xlink:href="#m43e462bd57" x="179.048729" y="412.965754" style="fill: #bfbf00; stroke: #bfbf00; stroke-linejoin: bevel"/>
     <use xlink:href="#m43e462bd57" x="182.111508" y="437.609603" style="fill: #bfbf00; stroke: #bfbf00; stroke-linejoin: bevel"/>
     <use xlink:href="#m43e462bd57" x="185.174286" y="439.663257" style="fill: #bfbf00; stroke: #bfbf00; stroke-linejoin: bevel"/>
     <use xlink:href="#m43e462bd57" x="188.237065" y="431.448641" style="fill: #bfbf00; stroke: #bfbf00; stroke-linejoin: bevel"/>
     <use xlink:href="#m43e462bd57" x="191.299844" y="427.752063" style="fill: #bfbf00; stroke: #bfbf00; stroke-linejoin: bevel"/>
     <use xlink:href="#m43e462bd57" x="194.362623" y="441.716911" style="fill: #bfbf00; stroke: #bfbf00; stroke-linejoin: bevel"/>
     <use xlink:href="#m43e462bd57" x="197.425401" y="407.489343" style="fill: #bfbf00; stroke: #bfbf00; stroke-linejoin: bevel"/>
     <use xlink:href="#m43e462bd57" x="200.48818" y="377.642903" style="fill: #bfbf00; stroke: #bfbf00; stroke-linejoin: bevel"/>
     <use xlink:href="#m43e462bd57" x="203.550959" y="400.643829" style="fill: #bfbf00; stroke: #bfbf00; stroke-linejoin: bevel"/>
     <use xlink:href="#m43e462bd57" x="206.613738" y="410.501369" style="fill: #bfbf00; stroke: #bfbf00; stroke-linejoin: bevel"/>
     <use xlink:href="#m43e462bd57" x="209.676516" y="421.18037" style="fill: #bfbf00; stroke: #bfbf00; stroke-linejoin: bevel"/>
     <use xlink:href="#m43e462bd57" x="212.739295" y="410.501369" style="fill: #bfbf00; stroke: #bfbf00; stroke-linejoin: bevel"/>
     <use xlink:href="#m43e462bd57" x="215.802074" y="448.562425" style="fill: #bfbf00; stroke: #bfbf00; stroke-linejoin: bevel"/>
     <use xlink:href="#m43e462bd57" x="218.864852" y="406.804791" style="fill: #bfbf00; stroke: #bfbf00; stroke-linejoin: bevel"/>
     <use xlink:href="#m43e462bd57" x="221.927631" y="368.469914" style="fill: #bfbf00; stroke: #bfbf00; stroke-linejoin: bevel"/>
     <use xlink:href="#m43e462bd57" x="224.99041" y="394.072136" style="fill: #bfbf00; stroke: #bfbf00; stroke-linejoin: bevel"/>
     <use xlink:href="#m43e462bd57" x="228.053189" y="402.012932" style="fill: #bfbf00; stroke: #bfbf00; stroke-linejoin: bevel"/>
     <use xlink:href="#m43e462bd57" x="231.115967" y="429.394987" style="fill: #bfbf00; stroke: #bfbf00; stroke-linejoin: bevel"/>
     <use xlink:href="#m43e462bd57" x="234.178746" y="388.321904" style="fill: #bfbf00; stroke: #bfbf00; stroke-linejoin: bevel"/>
     <use xlink:href="#m43e462bd57" x="237.241525" y="378.738185" style="fill: #bfbf00; stroke: #bfbf00; stroke-linejoin: bevel"/>
     <use xlink:href="#m43e462bd57" x="240.304304" y="355.463438" style="fill: #bfbf00; stroke: #bfbf00; stroke-linejoin: bevel"/>
     <use xlink:href="#m43e462bd57" x="243.367082" y="378.053634" style="fill: #bfbf00; stroke: #bfbf00; stroke-linejoin: bevel"/>
     <use xlink:href="#m43e462bd57" x="246.429861" y="351.35613" style="fill: #bfbf00; stroke: #bfbf00; stroke-linejoin: bevel"/>
     <use xlink:href="#m43e462bd57" x="249.49264" y="313.021253" style="fill: #bfbf00; stroke: #bfbf00; stroke-linejoin: bevel"/>
     <use xlink:href="#m43e462bd57" x="252.555419" y="388.321904" style="fill: #bfbf00; stroke: #bfbf00; stroke-linejoin: bevel"/>
     <use xlink:href="#m43e462bd57" x="255.618197" y="351.35613" style="fill: #bfbf00; stroke: #bfbf00; stroke-linejoin: bevel"/>
     <use xlink:href="#m43e462bd57" x="258.680976" y="350.329303" style="fill: #bfbf00; stroke: #bfbf00; stroke-linejoin: bevel"/>
     <use xlink:href="#m43e462bd57" x="261.743755" y="307.202566" style="fill: #bfbf00; stroke: #bfbf00; stroke-linejoin: bevel"/>
     <use xlink:href="#m43e462bd57" x="264.806533" y="345.195168" style="fill: #bfbf00; stroke: #bfbf00; stroke-linejoin: bevel"/>
     <use xlink:href="#m43e462bd57" x="267.869312" y="331.846416" style="fill: #bfbf00; stroke: #bfbf00; stroke-linejoin: bevel"/>
     <use xlink:href="#m43e462bd57" x="270.932091" y="330.819589" style="fill: #bfbf00; stroke: #bfbf00; stroke-linejoin: bevel"/>
     <use xlink:href="#m43e462bd57" x="273.99487" y="346.662063" style="fill: #bfbf00; stroke: #bfbf00; stroke-linejoin: bevel"/>
     <use xlink:href="#m43e462bd57" x="277.057648" y="362.993503" style="fill: #bfbf00; stroke: #bfbf00; stroke-linejoin: bevel"/>
     <use xlink:href="#m43e462bd57" x="280.120427" y="369.839017" style="fill: #bfbf00; stroke: #bfbf00; stroke-linejoin: bevel"/>
     <use xlink:href="#m43e462bd57" x="283.183206" y="360.392208" style="fill: #bfbf00; stroke: #bfbf00; stroke-linejoin: bevel"/>
     <use xlink:href="#m43e462bd57" x="286.245985" y="371.892671" style="fill: #bfbf00; stroke: #bfbf00; stroke-linejoin: bevel"/>
     <use xlink:href="#m43e462bd57" x="289.308763" y="352.177592" style="fill: #bfbf00; stroke: #bfbf00; stroke-linejoin: bevel"/>
     <use xlink:href="#m43e462bd57" x="292.371542" y="341.772411" style="fill: #bfbf00; stroke: #bfbf00; stroke-linejoin: bevel"/>
     <use xlink:href="#m43e462bd57" x="295.434321" y="357.517092" style="fill: #bfbf00; stroke: #bfbf00; stroke-linejoin: bevel"/>
     <use xlink:href="#m43e462bd57" x="298.497099" y="363.678055" style="fill: #bfbf00; stroke: #bfbf00; stroke-linejoin: bevel"/>
     <use xlink:href="#m43e462bd57" x="301.559878" y="273.317274" style="fill: #bfbf00; stroke: #bfbf00; stroke-linejoin: bevel"/>
     <use xlink:href="#m43e462bd57" x="304.622657" y="285.639198" style="fill: #bfbf00; stroke: #bfbf00; stroke-linejoin: bevel"/>
     <use xlink:href="#m43e462bd57" x="307.685436" y="339.034205" style="fill: #bfbf00; stroke: #bfbf00; stroke-linejoin: bevel"/>
     <use xlink:href="#m43e462bd57" x="310.748214" y="331.641051" style="fill: #bfbf00; stroke: #bfbf00; stroke-linejoin: bevel"/>
     <use xlink:href="#m43e462bd57" x="313.810993" y="341.381239" style="fill: #bfbf00; stroke: #bfbf00; stroke-linejoin: bevel"/>
     <use xlink:href="#m43e462bd57" x="316.873772" y="305.148912" style="fill: #bfbf00; stroke: #bfbf00; stroke-linejoin: bevel"/>
     <use xlink:href="#m43e462bd57" x="319.936551" y="295.907469" style="fill: #bfbf00; stroke: #bfbf00; stroke-linejoin: bevel"/>
     <use xlink:href="#m43e462bd57" x="322.999329" y="332.188692" style="fill: #bfbf00; stroke: #bfbf00; stroke-linejoin: bevel"/>
     <use xlink:href="#m43e462bd57" x="326.062108" y="320.140587" style="fill: #bfbf00; stroke: #bfbf00; stroke-linejoin: bevel"/>
     <use xlink:href="#m43e462bd57" x="329.124887" y="344.510616" style="fill: #bfbf00; stroke: #bfbf00; stroke-linejoin: bevel"/>
     <use xlink:href="#m43e462bd57" x="332.187666" y="392.429212" style="fill: #bfbf00; stroke: #bfbf00; stroke-linejoin: bevel"/>
     <use xlink:href="#m43e462bd57" x="335.250444" y="349.302476" style="fill: #bfbf00; stroke: #bfbf00; stroke-linejoin: bevel"/>
     <use xlink:href="#m43e462bd57" x="338.313223" y="359.570747" style="fill: #bfbf00; stroke: #bfbf00; stroke-linejoin: bevel"/>
     <use xlink:href="#m43e462bd57" x="341.376002" y="354.436611" style="fill: #bfbf00; stroke: #bfbf00; stroke-linejoin: bevel"/>
     <use xlink:href="#m43e462bd57" x="344.43878" y="400.643829" style="fill: #bfbf00; stroke: #bfbf00; stroke-linejoin: bevel"/>
     <use xlink:href="#m43e462bd57" x="347.501559" y="361.624401" style="fill: #bfbf00; stroke: #bfbf00; stroke-linejoin: bevel"/>
     <use xlink:href="#m43e462bd57" x="350.564338" y="404.751137" style="fill: #bfbf00; stroke: #bfbf00; stroke-linejoin: bevel"/>
     <use xlink:href="#m43e462bd57" x="353.627117" y="443.770565" style="fill: #bfbf00; stroke: #bfbf00; stroke-linejoin: bevel"/>
     <use xlink:href="#m43e462bd57" x="359.752674" y="380.107288" style="fill: #bfbf00; stroke: #bfbf00; stroke-linejoin: bevel"/>
     <use xlink:href="#m43e462bd57" x="362.815453" y="389.964827" style="fill: #bfbf00; stroke: #bfbf00; stroke-linejoin: bevel"/>
     <use xlink:href="#m43e462bd57" x="365.878232" y="419.126716" style="fill: #bfbf00; stroke: #bfbf00; stroke-linejoin: bevel"/>
     <use xlink:href="#m43e462bd57" x="368.94101" y="367.785363" style="fill: #bfbf00; stroke: #bfbf00; stroke-linejoin: bevel"/>
     <use xlink:href="#m43e462bd57" x="384.254904" y="367.785363" style="fill: #bfbf00; stroke: #bfbf00; stroke-linejoin: bevel"/>
     <use xlink:href="#m43e462bd57" x="387.317683" y="367.785363" style="fill: #bfbf00; stroke: #bfbf00; stroke-linejoin: bevel"/>
     <use xlink:href="#m43e462bd57" x="390.380461" y="320.551318" style="fill: #bfbf00; stroke: #bfbf00; stroke-linejoin: bevel"/>
     <use xlink:href="#m43e462bd57" x="393.44324" y="352.725233" style="fill: #bfbf00; stroke: #bfbf00; stroke-linejoin: bevel"/>
     <use xlink:href="#m43e462bd57" x="396.506019" y="302.068431" style="fill: #bfbf00; stroke: #bfbf00; stroke-linejoin: bevel"/>
     <use xlink:href="#m43e462bd57" x="408.757134" y="339.034205" style="fill: #bfbf00; stroke: #bfbf00; stroke-linejoin: bevel"/>
     <use xlink:href="#m43e462bd57" x="411.819913" y="289.746506" style="fill: #bfbf00; stroke: #bfbf00; stroke-linejoin: bevel"/>
     <use xlink:href="#m43e462bd57" x="414.882691" y="347.248822" style="fill: #bfbf00; stroke: #bfbf00; stroke-linejoin: bevel"/>
     <use xlink:href="#m43e462bd57" x="436.322142" y="317.470837" style="fill: #bfbf00; stroke: #bfbf00; stroke-linejoin: bevel"/>
     <use xlink:href="#m43e462bd57" x="439.384921" y="271.263619" style="fill: #bfbf00; stroke: #bfbf00; stroke-linejoin: bevel"/>
     <use xlink:href="#m43e462bd57" x="442.4477" y="302.068431" style="fill: #bfbf00; stroke: #bfbf00; stroke-linejoin: bevel"/>
     <use xlink:href="#m43e462bd57" x="445.510479" y="338.007378" style="fill: #bfbf00; stroke: #bfbf00; stroke-linejoin: bevel"/>
     <use xlink:href="#m43e462bd57" x="448.573257" y="386.26825" style="fill: #bfbf00; stroke: #bfbf00; stroke-linejoin: bevel"/>
     <use xlink:href="#m43e462bd57" x="451.636036" y="384.214596" style="fill: #bfbf00; stroke: #bfbf00; stroke-linejoin: bevel"/>
     <use xlink:href="#m43e462bd57" x="454.698815" y="304.122085" style="fill: #bfbf00; stroke: #bfbf00; stroke-linejoin: bevel"/>
     <use xlink:href="#m43e462bd57" x="457.761593" y="351.35613" style="fill: #bfbf00; stroke: #bfbf00; stroke-linejoin: bevel"/>
     <use xlink:href="#m43e462bd57" x="460.824372" y="306.175739" style="fill: #bfbf00; stroke: #bfbf00; stroke-linejoin: bevel"/>
     <use xlink:href="#m43e462bd57" x="463.887151" y="367.785363" style="fill: #bfbf00; stroke: #bfbf00; stroke-linejoin: bevel"/>
     <use xlink:href="#m43e462bd57" x="466.94993" y="322.604972" style="fill: #bfbf00; stroke: #bfbf00; stroke-linejoin: bevel"/>
     <use xlink:href="#m43e462bd57" x="470.012708" y="314.390356" style="fill: #bfbf00; stroke: #bfbf00; stroke-linejoin: bevel"/>
     <use xlink:href="#m43e462bd57" x="482.263823" y="304.122085" style="fill: #bfbf00; stroke: #bfbf00; stroke-linejoin: bevel"/>
     <use xlink:href="#m43e462bd57" x="485.326602" y="284.270095" style="fill: #bfbf00; stroke: #bfbf00; stroke-linejoin: bevel"/>
     <use xlink:href="#m43e462bd57" x="488.389381" y="292.484712" style="fill: #bfbf00; stroke: #bfbf00; stroke-linejoin: bevel"/>
     <use xlink:href="#m43e462bd57" x="491.45216" y="352.382957" style="fill: #bfbf00; stroke: #bfbf00; stroke-linejoin: bevel"/>
     <use xlink:href="#m43e462bd57" x="494.514938" y="240.458808" style="fill: #bfbf00; stroke: #bfbf00; stroke-linejoin: bevel"/>
     <use xlink:href="#m43e462bd57" x="509.828832" y="252.780732" style="fill: #bfbf00; stroke: #bfbf00; stroke-linejoin: bevel"/>
     <use xlink:href="#m43e462bd57" x="543.519398" y="310.283048" style="fill: #bfbf00; stroke: #bfbf00; stroke-linejoin: bevel"/>
     <use xlink:href="#m43e462bd57" x="558.833292" y="302.068431" style="fill: #bfbf00; stroke: #bfbf00; stroke-linejoin: bevel"/>
     <use xlink:href="#m43e462bd57" x="561.89607" y="316.44401" style="fill: #bfbf00; stroke: #bfbf00; stroke-linejoin: bevel"/>
     <use xlink:href="#m43e462bd57" x="568.021628" y="277.424582" style="fill: #bfbf00; stroke: #bfbf00; stroke-linejoin: bevel"/>
     <use xlink:href="#m43e462bd57" x="577.209964" y="326.712281" style="fill: #bfbf00; stroke: #bfbf00; stroke-linejoin: bevel"/>
     <use xlink:href="#m43e462bd57" x="617.026087" y="248.673424" style="fill: #bfbf00; stroke: #bfbf00; stroke-linejoin: bevel"/>
     <use xlink:href="#m43e462bd57" x="718.097786" y="497.850124" style="fill: #bfbf00; stroke: #bfbf00; stroke-linejoin: bevel"/>
     <use xlink:href="#m43e462bd57" x="721.160564" y="532.077693" style="fill: #bfbf00; stroke: #bfbf00; stroke-linejoin: bevel"/>
     <use xlink:href="#m43e462bd57" x="724.223343" y="569.043467" style="fill: #bfbf00; stroke: #bfbf00; stroke-linejoin: bevel"/>
     <use xlink:href="#m43e462bd57" x="727.286122" y="560.82885" style="fill: #bfbf00; stroke: #bfbf00; stroke-linejoin: bevel"/>
     <use xlink:href="#m43e462bd57" x="730.348901" y="552.614234" style="fill: #bfbf00; stroke: #bfbf00; stroke-linejoin: bevel"/>
     <use xlink:href="#m43e462bd57" x="736.474458" y="462.253452" style="fill: #bfbf00; stroke: #bfbf00; stroke-linejoin: bevel"/>
     <use xlink:href="#m43e462bd57" x="739.537237" y="470.468069" style="fill: #bfbf00; stroke: #bfbf00; stroke-linejoin: bevel"/>
     <use xlink:href="#m43e462bd57" x="868.173943" y="525.232179" style="fill: #bfbf00; stroke: #bfbf00; stroke-linejoin: bevel"/>
     <use xlink:href="#m43e462bd57" x="920.241182" y="540.292309" style="fill: #bfbf00; stroke: #bfbf00; stroke-linejoin: bevel"/>
    </g>
   </g>
   <g id="patch_3">
    <path d="M 68.023 622.6035 
L 68.023 35.0835 
" style="fill: none; stroke: #000000; stroke-width: 0.8; stroke-linejoin: miter; stroke-linecap: square"/>
   </g>
   <g id="patch_4">
    <path d="M 960.823 622.6035 
L 960.823 35.0835 
" style="fill: none; stroke: #000000; stroke-width: 0.8; stroke-linejoin: miter; stroke-linecap: square"/>
   </g>
   <g id="patch_5">
    <path d="M 68.023 622.6035 
L 960.823 622.6035 
" style="fill: none; stroke: #000000; stroke-width: 0.8; stroke-linejoin: miter; stroke-linecap: square"/>
   </g>
   <g id="patch_6">
    <path d="M 68.023 35.0835 
L 960.823 35.0835 
" style="fill: none; stroke: #000000; stroke-width: 0.8; stroke-linejoin: miter; stroke-linecap: square"/>
   </g>
   <g id="text_15">
    <!-- Body Fat Percentage -->
    <g transform="translate(366.48325 29.0835) scale(0.288 -0.288)">
     <defs>
      <path id="DejaVuSans-42" d="M 1259 2228 
L 1259 519 
L 2272 519 
Q 2781 519 3026 730 
Q 3272 941 3272 1375 
Q 3272 1813 3026 2020 
Q 2781 2228 2272 2228 
L 1259 2228 
z
M 1259 4147 
L 1259 2741 
L 2194 2741 
Q 2656 2741 2882 2914 
Q 3109 3088 3109 3444 
Q 3109 3797 2882 3972 
Q 2656 4147 2194 4147 
L 1259 4147 
z
M 628 4666 
L 2241 4666 
Q 2963 4666 3353 4366 
Q 3744 4066 3744 3513 
Q 3744 3084 3544 2831 
Q 3344 2578 2956 2516 
Q 3422 2416 3680 2098 
Q 3938 1781 3938 1306 
Q 3938 681 3513 340 
Q 3088 0 2303 0 
L 628 0 
L 628 4666 
z
" transform="scale(0.015625)"/>
      <path id="DejaVuSans-6f" d="M 1959 3097 
Q 1497 3097 1228 2736 
Q 959 2375 959 1747 
Q 959 1119 1226 758 
Q 1494 397 1959 397 
Q 2419 397 2687 759 
Q 2956 1122 2956 1747 
Q 2956 2369 2687 2733 
Q 2419 3097 1959 3097 
z
M 1959 3584 
Q 2709 3584 3137 3096 
Q 3566 2609 3566 1747 
Q 3566 888 3137 398 
Q 2709 -91 1959 -91 
Q 1206 -91 779 398 
Q 353 888 353 1747 
Q 353 2609 779 3096 
Q 1206 3584 1959 3584 
z
" transform="scale(0.015625)"/>
      <path id="DejaVuSans-64" d="M 2906 2969 
L 2906 4863 
L 3481 4863 
L 3481 0 
L 2906 0 
L 2906 525 
Q 2725 213 2448 61 
Q 2172 -91 1784 -91 
Q 1150 -91 751 415 
Q 353 922 353 1747 
Q 353 2572 751 3078 
Q 1150 3584 1784 3584 
Q 2172 3584 2448 3432 
Q 2725 3281 2906 2969 
z
M 947 1747 
Q 947 1113 1208 752 
Q 1469 391 1925 391 
Q 2381 391 2643 752 
Q 2906 1113 2906 1747 
Q 2906 2381 2643 2742 
Q 2381 3103 1925 3103 
Q 1469 3103 1208 2742 
Q 947 2381 947 1747 
z
" transform="scale(0.015625)"/>
      <path id="DejaVuSans-79" d="M 2059 -325 
Q 1816 -950 1584 -1140 
Q 1353 -1331 966 -1331 
L 506 -1331 
L 506 -850 
L 844 -850 
Q 1081 -850 1212 -737 
Q 1344 -625 1503 -206 
L 1606 56 
L 191 3500 
L 800 3500 
L 1894 763 
L 2988 3500 
L 3597 3500 
L 2059 -325 
z
" transform="scale(0.015625)"/>
     </defs>
     <use xlink:href="#DejaVuSans-42"/>
     <use xlink:href="#DejaVuSans-6f" transform="translate(68.603516 0)"/>
     <use xlink:href="#DejaVuSans-64" transform="translate(129.785156 0)"/>
     <use xlink:href="#DejaVuSans-79" transform="translate(193.261719 0)"/>
     <use xlink:href="#DejaVuSans-20" transform="translate(252.441406 0)"/>
     <use xlink:href="#DejaVuSans-46" transform="translate(284.228516 0)"/>
     <use xlink:href="#DejaVuSans-61" transform="translate(332.623047 0)"/>
     <use xlink:href="#DejaVuSans-74" transform="translate(393.902344 0)"/>
     <use xlink:href="#DejaVuSans-20" transform="translate(433.111328 0)"/>
     <use xlink:href="#DejaVuSans-50" transform="translate(464.898438 0)"/>
     <use xlink:href="#DejaVuSans-65" transform="translate(521.576172 0)"/>
     <use xlink:href="#DejaVuSans-72" transform="translate(583.099609 0)"/>
     <use xlink:href="#DejaVuSans-63" transform="translate(621.962891 0)"/>
     <use xlink:href="#DejaVuSans-65" transform="translate(676.943359 0)"/>
     <use xlink:href="#DejaVuSans-6e" transform="translate(738.466797 0)"/>
     <use xlink:href="#DejaVuSans-74" transform="translate(801.845703 0)"/>
     <use xlink:href="#DejaVuSans-61" transform="translate(841.054688 0)"/>
     <use xlink:href="#DejaVuSans-67" transform="translate(902.333984 0)"/>
     <use xlink:href="#DejaVuSans-65" transform="translate(965.810547 0)"/>
    </g>
   </g>
  </g>
 </g>
 <defs>
  <clipPath id="pbb5db1b41a">
   <rect x="68.023" y="35.0835" width="892.8" height="587.52"/>
  </clipPath>
 </defs>
</svg>
