<?xml version="1.0" encoding="utf-8" standalone="no"?>
<!DOCTYPE svg PUBLIC "-//W3C//DTD SVG 1.1//EN"
  "http://www.w3.org/Graphics/SVG/1.1/DTD/svg11.dtd">
<svg xmlns:xlink="http://www.w3.org/1999/xlink" width="968.023pt" height="700.466504pt" viewBox="0 0 968.023 700.466504" xmlns="http://www.w3.org/2000/svg" version="1.1">
 <metadata>
  <rdf:RDF xmlns:dc="http://purl.org/dc/elements/1.1/" xmlns:cc="http://creativecommons.org/ns#" xmlns:rdf="http://www.w3.org/1999/02/22-rdf-syntax-ns#">
   <cc:Work>
    <dc:type rdf:resource="http://purl.org/dc/dcmitype/StillImage"/>
    <dc:date>2023-11-06T19:14:21.368820</dc:date>
    <dc:format>image/svg+xml</dc:format>
    <dc:creator>
     <cc:Agent>
      <dc:title>Matplotlib v3.8.1, https://matplotlib.org/</dc:title>
     </cc:Agent>
    </dc:creator>
   </cc:Work>
  </rdf:RDF>
 </metadata>
 <defs>
  <style type="text/css">*{stroke-linejoin: round; stroke-linecap: butt}</style>
 </defs>
 <g id="figure_1">
  <g id="patch_1">
   <path d="M 0 700.466504 
L 968.023 700.466504 
L 968.023 0 
L 0 0 
z
" style="fill: #ffffff"/>
  </g>
  <g id="axes_1">
   <g id="patch_2">
    <path d="M 68.023 622.6035 
L 960.823 622.6035 
L 960.823 35.0835 
L 68.023 35.0835 
z
" style="fill: #ffffff"/>
   </g>
   <g id="PolyCollection_1">
    <defs>
     <path id="md12516d4a1" d="M 108.604818 -369.770359 
L 108.604818 -284.611966 
L 116.680802 -104.568459 
L 120.718794 -315.241718 
L 124.756786 -318.480324 
L 128.794777 -355.627153 
L 132.832769 -279.045519 
L 136.870761 -338.649066 
L 140.908753 -345.251495 
L 144.946745 -338.579476 
L 148.984737 -322.866771 
L 153.022729 -256.016103 
L 157.06072 -287.185105 
L 161.098712 -348.954193 
L 165.136704 -353.360436 
L 169.174696 -293.410298 
L 173.212688 -335.319875 
L 177.25068 -386.518741 
L 181.288672 -441.059728 
L 185.326664 -475.924479 
L 189.364655 -445.246123 
L 193.402647 -444.492923 
L 197.440639 -394.893399 
L 201.478631 -340.925889 
L 205.516623 -336.856787 
L 209.554615 -368.037044 
L 213.592607 -356.603513 
L 217.630598 -350.971733 
L 221.66859 -394.893399 
L 225.706582 -345.618716 
L 229.744574 -289.078789 
L 233.782566 -337.406269 
L 237.820558 -341.790863 
L 241.85855 -369.082851 
L 245.896541 -373.262052 
L 249.934533 -413.664707 
L 253.972525 -370.160228 
L 258.010517 -316.977929 
L 262.048509 -348.909439 
L 266.086501 -350.311543 
L 270.124493 -397.194882 
L 274.162484 -349.632601 
L 278.200476 -317.461755 
L 282.238468 -306.427782 
L 286.27646 -329.74775 
L 290.314452 -288.131587 
L 294.352444 -242.376524 
L 298.390436 -333.886649 
L 302.428427 -295.170827 
L 306.466419 -326.845972 
L 310.504411 -263.340225 
L 314.542403 -291.651207 
L 318.580395 -255.77238 
L 322.618387 -266.134512 
L 326.656379 -296.315499 
L 330.69437 -310.223511 
L 334.732362 -326.847409 
L 338.770354 -292.340336 
L 342.808346 -331.540236 
L 346.846338 -307.48129 
L 350.88433 -299.488822 
L 354.922322 -310.729624 
L 358.960313 -312.768928 
L 362.998305 -207.180322 
L 367.036297 -225.95163 
L 371.074289 -291.651207 
L 375.112281 -284.661518 
L 379.150273 -278.610832 
L 383.188265 -221.251471 
L 387.226256 -235.337284 
L 391.264248 -275.226313 
L 395.30224 -254.618466 
L 399.340232 -284.251258 
L 403.378224 -355.00437 
L 407.416216 -280.326815 
L 411.454208 -308.076101 
L 415.492199 -321.119995 
L 419.530191 -349.338893 
L 423.568183 -312.768928 
L 427.606175 -355.00437 
L 431.644167 -423.640361 
L 439.720151 -326.847409 
L 443.758142 -329.226482 
L 447.796134 -357.783145 
L 451.834126 -305.729687 
L 472.024085 -312.768928 
L 476.062077 -310.422514 
L 480.100069 -241.319071 
L 484.138061 -293.99762 
L 488.176053 -235.337284 
L 504.32802 -270.533486 
L 508.366012 -221.258803 
L 512.404004 -284.611966 
L 540.669947 -273.963575 
L 544.707939 -203.660702 
L 548.745931 -230.644457 
L 552.783923 -282.835764 
L 556.821915 -333.886649 
L 560.859906 -319.808168 
L 564.897898 -245.896144 
L 568.93589 -288.131587 
L 572.973882 -235.337284 
L 577.011874 -271.491679 
L 581.049866 -242.376524 
L 585.087858 -240.030111 
L 601.239825 -235.337284 
L 605.277817 -214.219563 
L 609.315809 -221.258803 
L 613.353801 -298.645517 
L 617.391792 -171.98412 
L 637.581752 -186.062601 
L 681.999662 -242.376524 
L 702.189621 -228.298043 
L 706.227613 -242.376524 
L 714.303597 -207.180322 
L 726.417573 -256.455005 
L 778.911467 -171.98412 
L 912.165198 -453.553736 
L 916.20319 -473.069053 
L 920.241182 -497.892742 
L 920.241182 -638.67755 
L 920.241182 -638.67755 
L 916.20319 -589.589215 
L 912.165198 -538.712128 
L 778.911467 -257.142513 
L 726.417573 -341.613398 
L 714.303597 -292.338715 
L 706.227613 -327.534917 
L 702.189621 -313.456436 
L 681.999662 -327.534917 
L 637.581752 -271.220994 
L 617.391792 -257.142513 
L 613.353801 -362.776049 
L 609.315809 -306.417196 
L 605.277817 -299.377955 
L 601.239825 -320.495676 
L 585.087858 -325.188503 
L 581.049866 -327.534917 
L 577.011874 -432.165329 
L 572.973882 -320.495676 
L 568.93589 -373.289979 
L 564.897898 -331.054537 
L 560.859906 -404.966561 
L 556.821915 -419.045042 
L 552.783923 -343.3896 
L 548.745931 -315.80285 
L 544.707939 -288.819095 
L 540.669947 -302.987106 
L 512.404004 -369.770359 
L 508.366012 -306.417196 
L 504.32802 -355.691878 
L 488.176053 -320.495676 
L 484.138061 -379.156013 
L 480.100069 -353.229711 
L 476.062077 -395.580907 
L 472.024085 -397.927321 
L 451.834126 -390.88808 
L 447.796134 -481.965844 
L 443.758142 -426.520905 
L 439.720151 -412.005801 
L 431.644167 -487.674238 
L 427.606175 -440.162763 
L 423.568183 -397.927321 
L 419.530191 -455.213894 
L 415.492199 -364.938913 
L 411.454208 -393.234494 
L 407.416216 -398.692851 
L 403.378224 -440.162763 
L 399.340232 -386.555961 
L 395.30224 -363.159809 
L 391.264248 -360.384705 
L 387.226256 -320.495676 
L 383.188265 -362.738451 
L 379.150273 -395.883609 
L 375.112281 -372.536504 
L 371.074289 -376.8096 
L 367.036297 -311.110023 
L 362.998305 -292.338715 
L 358.960313 -397.927321 
L 354.922322 -385.888144 
L 350.88433 -359.58633 
L 346.846338 -380.68939 
L 342.808346 -416.698628 
L 338.770354 -423.987305 
L 334.732362 -412.005801 
L 330.69437 -412.204805 
L 326.656379 -384.212576 
L 322.618387 -376.515747 
L 318.580395 -377.492225 
L 314.542403 -376.8096 
L 310.504411 -313.610456 
L 306.466419 -345.134455 
L 302.428427 -380.32922 
L 298.390436 -419.045042 
L 294.352444 -327.534917 
L 290.314452 -373.289979 
L 286.27646 -395.02698 
L 282.238468 -358.513404 
L 278.200476 -402.620148 
L 274.162484 -399.77947 
L 270.124493 -461.325414 
L 266.086501 -435.469936 
L 262.048509 -420.916429 
L 258.010517 -384.332666 
L 253.972525 -428.526526 
L 249.934533 -498.823099 
L 245.896541 -424.720777 
L 241.85855 -454.241244 
L 237.820558 -447.744877 
L 233.782566 -422.564662 
L 229.744574 -407.538978 
L 225.706582 -430.777109 
L 221.66859 -480.051792 
L 217.630598 -480.79945 
L 213.592607 -473.759822 
L 209.554615 -476.404772 
L 205.516623 -511.104649 
L 201.478631 -426.084282 
L 197.440639 -480.051792 
L 193.402647 -480.900157 
L 189.364655 -466.068477 
L 185.326664 -502.262904 
L 181.288672 -500.523605 
L 177.25068 -493.119277 
L 173.212688 -442.249157 
L 169.174696 -392.648609 
L 165.136704 -453.069481 
L 161.098712 -425.095219 
L 157.06072 -334.347432 
L 153.022729 -350.499388 
L 148.984737 -397.215132 
L 144.946745 -423.737869 
L 140.908753 -431.144331 
L 136.870761 -379.086423 
L 132.832769 -307.760099 
L 128.794777 -421.941879 
L 124.756786 -353.500103 
L 120.718794 -409.533012 
L 116.680802 -296.401213 
L 108.604818 -369.770359 
z
" style="stroke: #0000ff; stroke-opacity: 0.2"/>
    </defs>
    <g clip-path="url(#p2f21d63fb2)">
     <use xlink:href="#md12516d4a1" x="0" y="700.466504" style="fill: #0000ff; fill-opacity: 0.2; stroke: #0000ff; stroke-opacity: 0.2"/>
    </g>
   </g>
   <g id="matplotlib.axis_1">
    <g id="xtick_1">
     <g id="line2d_1">
      <path d="M 112.64281 622.6035 
L 112.64281 35.0835 
" clip-path="url(#p2f21d63fb2)" style="fill: none; stroke: #a5a391; stroke-opacity: 0.3; stroke-width: 0.8; stroke-linecap: square"/>
     </g>
     <g id="line2d_2">
      <defs>
       <path id="mcb7d83203a" d="M 0 0 
L 0 -3.5 
" style="stroke: #000000; stroke-width: 0.8"/>
      </defs>
      <g>
       <use xlink:href="#mcb7d83203a" x="112.64281" y="622.6035" style="stroke: #000000; stroke-width: 0.8"/>
      </g>
     </g>
     <g id="text_1">
      <!-- Jan 01, 20 -->
      <g transform="translate(23.267762 689.66438) rotate(-30) scale(0.2 -0.2)">
       <defs>
        <path id="DejaVuSans-4a" d="M 628 4666 
L 1259 4666 
L 1259 325 
Q 1259 -519 939 -900 
Q 619 -1281 -91 -1281 
L -331 -1281 
L -331 -750 
L -134 -750 
Q 284 -750 456 -515 
Q 628 -281 628 325 
L 628 4666 
z
" transform="scale(0.015625)"/>
        <path id="DejaVuSans-61" d="M 2194 1759 
Q 1497 1759 1228 1600 
Q 959 1441 959 1056 
Q 959 750 1161 570 
Q 1363 391 1709 391 
Q 2188 391 2477 730 
Q 2766 1069 2766 1631 
L 2766 1759 
L 2194 1759 
z
M 3341 1997 
L 3341 0 
L 2766 0 
L 2766 531 
Q 2569 213 2275 61 
Q 1981 -91 1556 -91 
Q 1019 -91 701 211 
Q 384 513 384 1019 
Q 384 1609 779 1909 
Q 1175 2209 1959 2209 
L 2766 2209 
L 2766 2266 
Q 2766 2663 2505 2880 
Q 2244 3097 1772 3097 
Q 1472 3097 1187 3025 
Q 903 2953 641 2809 
L 641 3341 
Q 956 3463 1253 3523 
Q 1550 3584 1831 3584 
Q 2591 3584 2966 3190 
Q 3341 2797 3341 1997 
z
" transform="scale(0.015625)"/>
        <path id="DejaVuSans-6e" d="M 3513 2113 
L 3513 0 
L 2938 0 
L 2938 2094 
Q 2938 2591 2744 2837 
Q 2550 3084 2163 3084 
Q 1697 3084 1428 2787 
Q 1159 2491 1159 1978 
L 1159 0 
L 581 0 
L 581 3500 
L 1159 3500 
L 1159 2956 
Q 1366 3272 1645 3428 
Q 1925 3584 2291 3584 
Q 2894 3584 3203 3211 
Q 3513 2838 3513 2113 
z
" transform="scale(0.015625)"/>
        <path id="DejaVuSans-20" transform="scale(0.015625)"/>
        <path id="DejaVuSans-30" d="M 2034 4250 
Q 1547 4250 1301 3770 
Q 1056 3291 1056 2328 
Q 1056 1369 1301 889 
Q 1547 409 2034 409 
Q 2525 409 2770 889 
Q 3016 1369 3016 2328 
Q 3016 3291 2770 3770 
Q 2525 4250 2034 4250 
z
M 2034 4750 
Q 2819 4750 3233 4129 
Q 3647 3509 3647 2328 
Q 3647 1150 3233 529 
Q 2819 -91 2034 -91 
Q 1250 -91 836 529 
Q 422 1150 422 2328 
Q 422 3509 836 4129 
Q 1250 4750 2034 4750 
z
" transform="scale(0.015625)"/>
        <path id="DejaVuSans-31" d="M 794 531 
L 1825 531 
L 1825 4091 
L 703 3866 
L 703 4441 
L 1819 4666 
L 2450 4666 
L 2450 531 
L 3481 531 
L 3481 0 
L 794 0 
L 794 531 
z
" transform="scale(0.015625)"/>
        <path id="DejaVuSans-2c" d="M 750 794 
L 1409 794 
L 1409 256 
L 897 -744 
L 494 -744 
L 750 256 
L 750 794 
z
" transform="scale(0.015625)"/>
        <path id="DejaVuSans-32" d="M 1228 531 
L 3431 531 
L 3431 0 
L 469 0 
L 469 531 
Q 828 903 1448 1529 
Q 2069 2156 2228 2338 
Q 2531 2678 2651 2914 
Q 2772 3150 2772 3378 
Q 2772 3750 2511 3984 
Q 2250 4219 1831 4219 
Q 1534 4219 1204 4116 
Q 875 4013 500 3803 
L 500 4441 
Q 881 4594 1212 4672 
Q 1544 4750 1819 4750 
Q 2544 4750 2975 4387 
Q 3406 4025 3406 3419 
Q 3406 3131 3298 2873 
Q 3191 2616 2906 2266 
Q 2828 2175 2409 1742 
Q 1991 1309 1228 531 
z
" transform="scale(0.015625)"/>
       </defs>
       <use xlink:href="#DejaVuSans-4a"/>
       <use xlink:href="#DejaVuSans-61" x="29.492188"/>
       <use xlink:href="#DejaVuSans-6e" x="90.771484"/>
       <use xlink:href="#DejaVuSans-20" x="154.150391"/>
       <use xlink:href="#DejaVuSans-30" x="185.9375"/>
       <use xlink:href="#DejaVuSans-31" x="249.560547"/>
       <use xlink:href="#DejaVuSans-2c" x="313.183594"/>
       <use xlink:href="#DejaVuSans-20" x="344.970703"/>
       <use xlink:href="#DejaVuSans-32" x="376.757812"/>
       <use xlink:href="#DejaVuSans-30" x="440.380859"/>
      </g>
     </g>
    </g>
    <g id="xtick_2">
     <g id="line2d_3">
      <path d="M 217.630598 622.6035 
L 217.630598 35.0835 
" clip-path="url(#p2f21d63fb2)" style="fill: none; stroke: #a5a391; stroke-opacity: 0.3; stroke-width: 0.8; stroke-linecap: square"/>
     </g>
     <g id="line2d_4">
      <g>
       <use xlink:href="#mcb7d83203a" x="217.630598" y="622.6035" style="stroke: #000000; stroke-width: 0.8"/>
      </g>
     </g>
     <g id="text_2">
      <!-- Jul 01, 20 -->
      <g transform="translate(134.05792 686.31438) rotate(-30) scale(0.2 -0.2)">
       <defs>
        <path id="DejaVuSans-75" d="M 544 1381 
L 544 3500 
L 1119 3500 
L 1119 1403 
Q 1119 906 1312 657 
Q 1506 409 1894 409 
Q 2359 409 2629 706 
Q 2900 1003 2900 1516 
L 2900 3500 
L 3475 3500 
L 3475 0 
L 2900 0 
L 2900 538 
Q 2691 219 2414 64 
Q 2138 -91 1772 -91 
Q 1169 -91 856 284 
Q 544 659 544 1381 
z
M 1991 3584 
L 1991 3584 
z
" transform="scale(0.015625)"/>
        <path id="DejaVuSans-6c" d="M 603 4863 
L 1178 4863 
L 1178 0 
L 603 0 
L 603 4863 
z
" transform="scale(0.015625)"/>
       </defs>
       <use xlink:href="#DejaVuSans-4a"/>
       <use xlink:href="#DejaVuSans-75" x="29.492188"/>
       <use xlink:href="#DejaVuSans-6c" x="92.871094"/>
       <use xlink:href="#DejaVuSans-20" x="120.654297"/>
       <use xlink:href="#DejaVuSans-30" x="152.441406"/>
       <use xlink:href="#DejaVuSans-31" x="216.064453"/>
       <use xlink:href="#DejaVuSans-2c" x="279.6875"/>
       <use xlink:href="#DejaVuSans-20" x="311.474609"/>
       <use xlink:href="#DejaVuSans-32" x="343.261719"/>
       <use xlink:href="#DejaVuSans-30" x="406.884766"/>
      </g>
     </g>
    </g>
    <g id="xtick_3">
     <g id="line2d_5">
      <path d="M 323.772099 622.6035 
L 323.772099 35.0835 
" clip-path="url(#p2f21d63fb2)" style="fill: none; stroke: #a5a391; stroke-opacity: 0.3; stroke-width: 0.8; stroke-linecap: square"/>
     </g>
     <g id="line2d_6">
      <g>
       <use xlink:href="#mcb7d83203a" x="323.772099" y="622.6035" style="stroke: #000000; stroke-width: 0.8"/>
      </g>
     </g>
     <g id="text_3">
      <!-- Jan 01, 21 -->
      <g transform="translate(234.39705 689.66438) rotate(-30) scale(0.2 -0.2)">
       <use xlink:href="#DejaVuSans-4a"/>
       <use xlink:href="#DejaVuSans-61" x="29.492188"/>
       <use xlink:href="#DejaVuSans-6e" x="90.771484"/>
       <use xlink:href="#DejaVuSans-20" x="154.150391"/>
       <use xlink:href="#DejaVuSans-30" x="185.9375"/>
       <use xlink:href="#DejaVuSans-31" x="249.560547"/>
       <use xlink:href="#DejaVuSans-2c" x="313.183594"/>
       <use xlink:href="#DejaVuSans-20" x="344.970703"/>
       <use xlink:href="#DejaVuSans-32" x="376.757812"/>
       <use xlink:href="#DejaVuSans-31" x="440.380859"/>
      </g>
     </g>
    </g>
    <g id="xtick_4">
     <g id="line2d_7">
      <path d="M 428.183031 622.6035 
L 428.183031 35.0835 
" clip-path="url(#p2f21d63fb2)" style="fill: none; stroke: #a5a391; stroke-opacity: 0.3; stroke-width: 0.8; stroke-linecap: square"/>
     </g>
     <g id="line2d_8">
      <g>
       <use xlink:href="#mcb7d83203a" x="428.183031" y="622.6035" style="stroke: #000000; stroke-width: 0.8"/>
      </g>
     </g>
     <g id="text_4">
      <!-- Jul 01, 21 -->
      <g transform="translate(344.610353 686.31438) rotate(-30) scale(0.2 -0.2)">
       <use xlink:href="#DejaVuSans-4a"/>
       <use xlink:href="#DejaVuSans-75" x="29.492188"/>
       <use xlink:href="#DejaVuSans-6c" x="92.871094"/>
       <use xlink:href="#DejaVuSans-20" x="120.654297"/>
       <use xlink:href="#DejaVuSans-30" x="152.441406"/>
       <use xlink:href="#DejaVuSans-31" x="216.064453"/>
       <use xlink:href="#DejaVuSans-2c" x="279.6875"/>
       <use xlink:href="#DejaVuSans-20" x="311.474609"/>
       <use xlink:href="#DejaVuSans-32" x="343.261719"/>
       <use xlink:href="#DejaVuSans-31" x="406.884766"/>
      </g>
     </g>
    </g>
    <g id="xtick_5">
     <g id="line2d_9">
      <path d="M 534.324531 622.6035 
L 534.324531 35.0835 
" clip-path="url(#p2f21d63fb2)" style="fill: none; stroke: #a5a391; stroke-opacity: 0.3; stroke-width: 0.8; stroke-linecap: square"/>
     </g>
     <g id="line2d_10">
      <g>
       <use xlink:href="#mcb7d83203a" x="534.324531" y="622.6035" style="stroke: #000000; stroke-width: 0.8"/>
      </g>
     </g>
     <g id="text_5">
      <!-- Jan 01, 22 -->
      <g transform="translate(444.949483 689.66438) rotate(-30) scale(0.2 -0.2)">
       <use xlink:href="#DejaVuSans-4a"/>
       <use xlink:href="#DejaVuSans-61" x="29.492188"/>
       <use xlink:href="#DejaVuSans-6e" x="90.771484"/>
       <use xlink:href="#DejaVuSans-20" x="154.150391"/>
       <use xlink:href="#DejaVuSans-30" x="185.9375"/>
       <use xlink:href="#DejaVuSans-31" x="249.560547"/>
       <use xlink:href="#DejaVuSans-2c" x="313.183594"/>
       <use xlink:href="#DejaVuSans-20" x="344.970703"/>
       <use xlink:href="#DejaVuSans-32" x="376.757812"/>
       <use xlink:href="#DejaVuSans-32" x="440.380859"/>
      </g>
     </g>
    </g>
    <g id="xtick_6">
     <g id="line2d_11">
      <path d="M 638.735464 622.6035 
L 638.735464 35.0835 
" clip-path="url(#p2f21d63fb2)" style="fill: none; stroke: #a5a391; stroke-opacity: 0.3; stroke-width: 0.8; stroke-linecap: square"/>
     </g>
     <g id="line2d_12">
      <g>
       <use xlink:href="#mcb7d83203a" x="638.735464" y="622.6035" style="stroke: #000000; stroke-width: 0.8"/>
      </g>
     </g>
     <g id="text_6">
      <!-- Jul 01, 22 -->
      <g transform="translate(555.162786 686.31438) rotate(-30) scale(0.2 -0.2)">
       <use xlink:href="#DejaVuSans-4a"/>
       <use xlink:href="#DejaVuSans-75" x="29.492188"/>
       <use xlink:href="#DejaVuSans-6c" x="92.871094"/>
       <use xlink:href="#DejaVuSans-20" x="120.654297"/>
       <use xlink:href="#DejaVuSans-30" x="152.441406"/>
       <use xlink:href="#DejaVuSans-31" x="216.064453"/>
       <use xlink:href="#DejaVuSans-2c" x="279.6875"/>
       <use xlink:href="#DejaVuSans-20" x="311.474609"/>
       <use xlink:href="#DejaVuSans-32" x="343.261719"/>
       <use xlink:href="#DejaVuSans-32" x="406.884766"/>
      </g>
     </g>
    </g>
    <g id="xtick_7">
     <g id="line2d_13">
      <path d="M 744.876964 622.6035 
L 744.876964 35.0835 
" clip-path="url(#p2f21d63fb2)" style="fill: none; stroke: #a5a391; stroke-opacity: 0.3; stroke-width: 0.8; stroke-linecap: square"/>
     </g>
     <g id="line2d_14">
      <g>
       <use xlink:href="#mcb7d83203a" x="744.876964" y="622.6035" style="stroke: #000000; stroke-width: 0.8"/>
      </g>
     </g>
     <g id="text_7">
      <!-- Jan 01, 23 -->
      <g transform="translate(655.501916 689.66438) rotate(-30) scale(0.2 -0.2)">
       <defs>
        <path id="DejaVuSans-33" d="M 2597 2516 
Q 3050 2419 3304 2112 
Q 3559 1806 3559 1356 
Q 3559 666 3084 287 
Q 2609 -91 1734 -91 
Q 1441 -91 1130 -33 
Q 819 25 488 141 
L 488 750 
Q 750 597 1062 519 
Q 1375 441 1716 441 
Q 2309 441 2620 675 
Q 2931 909 2931 1356 
Q 2931 1769 2642 2001 
Q 2353 2234 1838 2234 
L 1294 2234 
L 1294 2753 
L 1863 2753 
Q 2328 2753 2575 2939 
Q 2822 3125 2822 3475 
Q 2822 3834 2567 4026 
Q 2313 4219 1838 4219 
Q 1578 4219 1281 4162 
Q 984 4106 628 3988 
L 628 4550 
Q 988 4650 1302 4700 
Q 1616 4750 1894 4750 
Q 2613 4750 3031 4423 
Q 3450 4097 3450 3541 
Q 3450 3153 3228 2886 
Q 3006 2619 2597 2516 
z
" transform="scale(0.015625)"/>
       </defs>
       <use xlink:href="#DejaVuSans-4a"/>
       <use xlink:href="#DejaVuSans-61" x="29.492188"/>
       <use xlink:href="#DejaVuSans-6e" x="90.771484"/>
       <use xlink:href="#DejaVuSans-20" x="154.150391"/>
       <use xlink:href="#DejaVuSans-30" x="185.9375"/>
       <use xlink:href="#DejaVuSans-31" x="249.560547"/>
       <use xlink:href="#DejaVuSans-2c" x="313.183594"/>
       <use xlink:href="#DejaVuSans-20" x="344.970703"/>
       <use xlink:href="#DejaVuSans-32" x="376.757812"/>
       <use xlink:href="#DejaVuSans-33" x="440.380859"/>
      </g>
     </g>
    </g>
    <g id="xtick_8">
     <g id="line2d_15">
      <path d="M 849.287896 622.6035 
L 849.287896 35.0835 
" clip-path="url(#p2f21d63fb2)" style="fill: none; stroke: #a5a391; stroke-opacity: 0.3; stroke-width: 0.8; stroke-linecap: square"/>
     </g>
     <g id="line2d_16">
      <g>
       <use xlink:href="#mcb7d83203a" x="849.287896" y="622.6035" style="stroke: #000000; stroke-width: 0.8"/>
      </g>
     </g>
     <g id="text_8">
      <!-- Jul 01, 23 -->
      <g transform="translate(765.715218 686.31438) rotate(-30) scale(0.2 -0.2)">
       <use xlink:href="#DejaVuSans-4a"/>
       <use xlink:href="#DejaVuSans-75" x="29.492188"/>
       <use xlink:href="#DejaVuSans-6c" x="92.871094"/>
       <use xlink:href="#DejaVuSans-20" x="120.654297"/>
       <use xlink:href="#DejaVuSans-30" x="152.441406"/>
       <use xlink:href="#DejaVuSans-31" x="216.064453"/>
       <use xlink:href="#DejaVuSans-2c" x="279.6875"/>
       <use xlink:href="#DejaVuSans-20" x="311.474609"/>
       <use xlink:href="#DejaVuSans-32" x="343.261719"/>
       <use xlink:href="#DejaVuSans-33" x="406.884766"/>
      </g>
     </g>
    </g>
    <g id="xtick_9">
     <g id="line2d_17">
      <path d="M 955.429397 622.6035 
L 955.429397 35.0835 
" clip-path="url(#p2f21d63fb2)" style="fill: none; stroke: #a5a391; stroke-opacity: 0.3; stroke-width: 0.8; stroke-linecap: square"/>
     </g>
     <g id="line2d_18">
      <g>
       <use xlink:href="#mcb7d83203a" x="955.429397" y="622.6035" style="stroke: #000000; stroke-width: 0.8"/>
      </g>
     </g>
     <g id="text_9">
      <!-- Jan 01, 24 -->
      <g transform="translate(866.054348 689.66438) rotate(-30) scale(0.2 -0.2)">
       <defs>
        <path id="DejaVuSans-34" d="M 2419 4116 
L 825 1625 
L 2419 1625 
L 2419 4116 
z
M 2253 4666 
L 3047 4666 
L 3047 1625 
L 3713 1625 
L 3713 1100 
L 3047 1100 
L 3047 0 
L 2419 0 
L 2419 1100 
L 313 1100 
L 313 1709 
L 2253 4666 
z
" transform="scale(0.015625)"/>
       </defs>
       <use xlink:href="#DejaVuSans-4a"/>
       <use xlink:href="#DejaVuSans-61" x="29.492188"/>
       <use xlink:href="#DejaVuSans-6e" x="90.771484"/>
       <use xlink:href="#DejaVuSans-20" x="154.150391"/>
       <use xlink:href="#DejaVuSans-30" x="185.9375"/>
       <use xlink:href="#DejaVuSans-31" x="249.560547"/>
       <use xlink:href="#DejaVuSans-2c" x="313.183594"/>
       <use xlink:href="#DejaVuSans-20" x="344.970703"/>
       <use xlink:href="#DejaVuSans-32" x="376.757812"/>
       <use xlink:href="#DejaVuSans-34" x="440.380859"/>
      </g>
     </g>
    </g>
   </g>
   <g id="matplotlib.axis_2">
    <g id="ytick_1">
     <g id="line2d_19">
      <path d="M 68.023 619.648755 
L 960.823 619.648755 
" clip-path="url(#p2f21d63fb2)" style="fill: none; stroke: #a5a391; stroke-opacity: 0.3; stroke-width: 0.8; stroke-linecap: square"/>
     </g>
     <g id="line2d_20">
      <defs>
       <path id="m9e8346f095" d="M 0 0 
L 3.5 0 
" style="stroke: #000000; stroke-width: 0.8"/>
      </defs>
      <g>
       <use xlink:href="#m9e8346f095" x="68.023" y="619.648755" style="stroke: #000000; stroke-width: 0.8"/>
      </g>
     </g>
     <g id="text_10">
      <!-- 52 -->
      <g transform="translate(39.073 627.247192) scale(0.2 -0.2)">
       <defs>
        <path id="DejaVuSans-35" d="M 691 4666 
L 3169 4666 
L 3169 4134 
L 1269 4134 
L 1269 2991 
Q 1406 3038 1543 3061 
Q 1681 3084 1819 3084 
Q 2600 3084 3056 2656 
Q 3513 2228 3513 1497 
Q 3513 744 3044 326 
Q 2575 -91 1722 -91 
Q 1428 -91 1123 -41 
Q 819 9 494 109 
L 494 744 
Q 775 591 1075 516 
Q 1375 441 1709 441 
Q 2250 441 2565 725 
Q 2881 1009 2881 1497 
Q 2881 1984 2565 2268 
Q 2250 2553 1709 2553 
Q 1456 2553 1204 2497 
Q 953 2441 691 2322 
L 691 4666 
z
" transform="scale(0.015625)"/>
       </defs>
       <use xlink:href="#DejaVuSans-35"/>
       <use xlink:href="#DejaVuSans-32" x="63.623047"/>
      </g>
     </g>
    </g>
    <g id="ytick_2">
     <g id="line2d_21">
      <path d="M 68.023 549.256351 
L 960.823 549.256351 
" clip-path="url(#p2f21d63fb2)" style="fill: none; stroke: #a5a391; stroke-opacity: 0.3; stroke-width: 0.8; stroke-linecap: square"/>
     </g>
     <g id="line2d_22">
      <g>
       <use xlink:href="#m9e8346f095" x="68.023" y="549.256351" style="stroke: #000000; stroke-width: 0.8"/>
      </g>
     </g>
     <g id="text_11">
      <!-- 53 -->
      <g transform="translate(39.073 556.854789) scale(0.2 -0.2)">
       <use xlink:href="#DejaVuSans-35"/>
       <use xlink:href="#DejaVuSans-33" x="63.623047"/>
      </g>
     </g>
    </g>
    <g id="ytick_3">
     <g id="line2d_23">
      <path d="M 68.023 478.863947 
L 960.823 478.863947 
" clip-path="url(#p2f21d63fb2)" style="fill: none; stroke: #a5a391; stroke-opacity: 0.3; stroke-width: 0.8; stroke-linecap: square"/>
     </g>
     <g id="line2d_24">
      <g>
       <use xlink:href="#m9e8346f095" x="68.023" y="478.863947" style="stroke: #000000; stroke-width: 0.8"/>
      </g>
     </g>
     <g id="text_12">
      <!-- 54 -->
      <g transform="translate(39.073 486.462385) scale(0.2 -0.2)">
       <use xlink:href="#DejaVuSans-35"/>
       <use xlink:href="#DejaVuSans-34" x="63.623047"/>
      </g>
     </g>
    </g>
    <g id="ytick_4">
     <g id="line2d_25">
      <path d="M 68.023 408.471543 
L 960.823 408.471543 
" clip-path="url(#p2f21d63fb2)" style="fill: none; stroke: #a5a391; stroke-opacity: 0.3; stroke-width: 0.8; stroke-linecap: square"/>
     </g>
     <g id="line2d_26">
      <g>
       <use xlink:href="#m9e8346f095" x="68.023" y="408.471543" style="stroke: #000000; stroke-width: 0.8"/>
      </g>
     </g>
     <g id="text_13">
      <!-- 55 -->
      <g transform="translate(39.073 416.069981) scale(0.2 -0.2)">
       <use xlink:href="#DejaVuSans-35"/>
       <use xlink:href="#DejaVuSans-35" x="63.623047"/>
      </g>
     </g>
    </g>
    <g id="ytick_5">
     <g id="line2d_27">
      <path d="M 68.023 338.07914 
L 960.823 338.07914 
" clip-path="url(#p2f21d63fb2)" style="fill: none; stroke: #a5a391; stroke-opacity: 0.3; stroke-width: 0.8; stroke-linecap: square"/>
     </g>
     <g id="line2d_28">
      <g>
       <use xlink:href="#m9e8346f095" x="68.023" y="338.07914" style="stroke: #000000; stroke-width: 0.8"/>
      </g>
     </g>
     <g id="text_14">
      <!-- 56 -->
      <g transform="translate(39.073 345.677577) scale(0.2 -0.2)">
       <defs>
        <path id="DejaVuSans-36" d="M 2113 2584 
Q 1688 2584 1439 2293 
Q 1191 2003 1191 1497 
Q 1191 994 1439 701 
Q 1688 409 2113 409 
Q 2538 409 2786 701 
Q 3034 994 3034 1497 
Q 3034 2003 2786 2293 
Q 2538 2584 2113 2584 
z
M 3366 4563 
L 3366 3988 
Q 3128 4100 2886 4159 
Q 2644 4219 2406 4219 
Q 1781 4219 1451 3797 
Q 1122 3375 1075 2522 
Q 1259 2794 1537 2939 
Q 1816 3084 2150 3084 
Q 2853 3084 3261 2657 
Q 3669 2231 3669 1497 
Q 3669 778 3244 343 
Q 2819 -91 2113 -91 
Q 1303 -91 875 529 
Q 447 1150 447 2328 
Q 447 3434 972 4092 
Q 1497 4750 2381 4750 
Q 2619 4750 2861 4703 
Q 3103 4656 3366 4563 
z
" transform="scale(0.015625)"/>
       </defs>
       <use xlink:href="#DejaVuSans-35"/>
       <use xlink:href="#DejaVuSans-36" x="63.623047"/>
      </g>
     </g>
    </g>
    <g id="ytick_6">
     <g id="line2d_29">
      <path d="M 68.023 267.686736 
L 960.823 267.686736 
" clip-path="url(#p2f21d63fb2)" style="fill: none; stroke: #a5a391; stroke-opacity: 0.3; stroke-width: 0.8; stroke-linecap: square"/>
     </g>
     <g id="line2d_30">
      <g>
       <use xlink:href="#m9e8346f095" x="68.023" y="267.686736" style="stroke: #000000; stroke-width: 0.8"/>
      </g>
     </g>
     <g id="text_15">
      <!-- 57 -->
      <g transform="translate(39.073 275.285173) scale(0.2 -0.2)">
       <defs>
        <path id="DejaVuSans-37" d="M 525 4666 
L 3525 4666 
L 3525 4397 
L 1831 0 
L 1172 0 
L 2766 4134 
L 525 4134 
L 525 4666 
z
" transform="scale(0.015625)"/>
       </defs>
       <use xlink:href="#DejaVuSans-35"/>
       <use xlink:href="#DejaVuSans-37" x="63.623047"/>
      </g>
     </g>
    </g>
    <g id="ytick_7">
     <g id="line2d_31">
      <path d="M 68.023 197.294332 
L 960.823 197.294332 
" clip-path="url(#p2f21d63fb2)" style="fill: none; stroke: #a5a391; stroke-opacity: 0.3; stroke-width: 0.8; stroke-linecap: square"/>
     </g>
     <g id="line2d_32">
      <g>
       <use xlink:href="#m9e8346f095" x="68.023" y="197.294332" style="stroke: #000000; stroke-width: 0.8"/>
      </g>
     </g>
     <g id="text_16">
      <!-- 58 -->
      <g transform="translate(39.073 204.892769) scale(0.2 -0.2)">
       <defs>
        <path id="DejaVuSans-38" d="M 2034 2216 
Q 1584 2216 1326 1975 
Q 1069 1734 1069 1313 
Q 1069 891 1326 650 
Q 1584 409 2034 409 
Q 2484 409 2743 651 
Q 3003 894 3003 1313 
Q 3003 1734 2745 1975 
Q 2488 2216 2034 2216 
z
M 1403 2484 
Q 997 2584 770 2862 
Q 544 3141 544 3541 
Q 544 4100 942 4425 
Q 1341 4750 2034 4750 
Q 2731 4750 3128 4425 
Q 3525 4100 3525 3541 
Q 3525 3141 3298 2862 
Q 3072 2584 2669 2484 
Q 3125 2378 3379 2068 
Q 3634 1759 3634 1313 
Q 3634 634 3220 271 
Q 2806 -91 2034 -91 
Q 1263 -91 848 271 
Q 434 634 434 1313 
Q 434 1759 690 2068 
Q 947 2378 1403 2484 
z
M 1172 3481 
Q 1172 3119 1398 2916 
Q 1625 2713 2034 2713 
Q 2441 2713 2670 2916 
Q 2900 3119 2900 3481 
Q 2900 3844 2670 4047 
Q 2441 4250 2034 4250 
Q 1625 4250 1398 4047 
Q 1172 3844 1172 3481 
z
" transform="scale(0.015625)"/>
       </defs>
       <use xlink:href="#DejaVuSans-35"/>
       <use xlink:href="#DejaVuSans-38" x="63.623047"/>
      </g>
     </g>
    </g>
    <g id="ytick_8">
     <g id="line2d_33">
      <path d="M 68.023 126.901928 
L 960.823 126.901928 
" clip-path="url(#p2f21d63fb2)" style="fill: none; stroke: #a5a391; stroke-opacity: 0.3; stroke-width: 0.8; stroke-linecap: square"/>
     </g>
     <g id="line2d_34">
      <g>
       <use xlink:href="#m9e8346f095" x="68.023" y="126.901928" style="stroke: #000000; stroke-width: 0.8"/>
      </g>
     </g>
     <g id="text_17">
      <!-- 59 -->
      <g transform="translate(39.073 134.500366) scale(0.2 -0.2)">
       <defs>
        <path id="DejaVuSans-39" d="M 703 97 
L 703 672 
Q 941 559 1184 500 
Q 1428 441 1663 441 
Q 2288 441 2617 861 
Q 2947 1281 2994 2138 
Q 2813 1869 2534 1725 
Q 2256 1581 1919 1581 
Q 1219 1581 811 2004 
Q 403 2428 403 3163 
Q 403 3881 828 4315 
Q 1253 4750 1959 4750 
Q 2769 4750 3195 4129 
Q 3622 3509 3622 2328 
Q 3622 1225 3098 567 
Q 2575 -91 1691 -91 
Q 1453 -91 1209 -44 
Q 966 3 703 97 
z
M 1959 2075 
Q 2384 2075 2632 2365 
Q 2881 2656 2881 3163 
Q 2881 3666 2632 3958 
Q 2384 4250 1959 4250 
Q 1534 4250 1286 3958 
Q 1038 3666 1038 3163 
Q 1038 2656 1286 2365 
Q 1534 2075 1959 2075 
z
" transform="scale(0.015625)"/>
       </defs>
       <use xlink:href="#DejaVuSans-35"/>
       <use xlink:href="#DejaVuSans-39" x="63.623047"/>
      </g>
     </g>
    </g>
    <g id="ytick_9">
     <g id="line2d_35">
      <path d="M 68.023 56.509524 
L 960.823 56.509524 
" clip-path="url(#p2f21d63fb2)" style="fill: none; stroke: #a5a391; stroke-opacity: 0.3; stroke-width: 0.8; stroke-linecap: square"/>
     </g>
     <g id="line2d_36">
      <g>
       <use xlink:href="#m9e8346f095" x="68.023" y="56.509524" style="stroke: #000000; stroke-width: 0.8"/>
      </g>
     </g>
     <g id="text_18">
      <!-- 60 -->
      <g transform="translate(39.073 64.107962) scale(0.2 -0.2)">
       <use xlink:href="#DejaVuSans-36"/>
       <use xlink:href="#DejaVuSans-30" x="63.623047"/>
      </g>
     </g>
    </g>
    <g id="text_19">
     <!-- Water Percentage [%] -->
     <g transform="translate(29.0835 486.4785) rotate(-90) scale(0.288 -0.288)">
      <defs>
       <path id="DejaVuSans-57" d="M 213 4666 
L 850 4666 
L 1831 722 
L 2809 4666 
L 3519 4666 
L 4500 722 
L 5478 4666 
L 6119 4666 
L 4947 0 
L 4153 0 
L 3169 4050 
L 2175 0 
L 1381 0 
L 213 4666 
z
" transform="scale(0.015625)"/>
       <path id="DejaVuSans-74" d="M 1172 4494 
L 1172 3500 
L 2356 3500 
L 2356 3053 
L 1172 3053 
L 1172 1153 
Q 1172 725 1289 603 
Q 1406 481 1766 481 
L 2356 481 
L 2356 0 
L 1766 0 
Q 1100 0 847 248 
Q 594 497 594 1153 
L 594 3053 
L 172 3053 
L 172 3500 
L 594 3500 
L 594 4494 
L 1172 4494 
z
" transform="scale(0.015625)"/>
       <path id="DejaVuSans-65" d="M 3597 1894 
L 3597 1613 
L 953 1613 
Q 991 1019 1311 708 
Q 1631 397 2203 397 
Q 2534 397 2845 478 
Q 3156 559 3463 722 
L 3463 178 
Q 3153 47 2828 -22 
Q 2503 -91 2169 -91 
Q 1331 -91 842 396 
Q 353 884 353 1716 
Q 353 2575 817 3079 
Q 1281 3584 2069 3584 
Q 2775 3584 3186 3129 
Q 3597 2675 3597 1894 
z
M 3022 2063 
Q 3016 2534 2758 2815 
Q 2500 3097 2075 3097 
Q 1594 3097 1305 2825 
Q 1016 2553 972 2059 
L 3022 2063 
z
" transform="scale(0.015625)"/>
       <path id="DejaVuSans-72" d="M 2631 2963 
Q 2534 3019 2420 3045 
Q 2306 3072 2169 3072 
Q 1681 3072 1420 2755 
Q 1159 2438 1159 1844 
L 1159 0 
L 581 0 
L 581 3500 
L 1159 3500 
L 1159 2956 
Q 1341 3275 1631 3429 
Q 1922 3584 2338 3584 
Q 2397 3584 2469 3576 
Q 2541 3569 2628 3553 
L 2631 2963 
z
" transform="scale(0.015625)"/>
       <path id="DejaVuSans-50" d="M 1259 4147 
L 1259 2394 
L 2053 2394 
Q 2494 2394 2734 2622 
Q 2975 2850 2975 3272 
Q 2975 3691 2734 3919 
Q 2494 4147 2053 4147 
L 1259 4147 
z
M 628 4666 
L 2053 4666 
Q 2838 4666 3239 4311 
Q 3641 3956 3641 3272 
Q 3641 2581 3239 2228 
Q 2838 1875 2053 1875 
L 1259 1875 
L 1259 0 
L 628 0 
L 628 4666 
z
" transform="scale(0.015625)"/>
       <path id="DejaVuSans-63" d="M 3122 3366 
L 3122 2828 
Q 2878 2963 2633 3030 
Q 2388 3097 2138 3097 
Q 1578 3097 1268 2742 
Q 959 2388 959 1747 
Q 959 1106 1268 751 
Q 1578 397 2138 397 
Q 2388 397 2633 464 
Q 2878 531 3122 666 
L 3122 134 
Q 2881 22 2623 -34 
Q 2366 -91 2075 -91 
Q 1284 -91 818 406 
Q 353 903 353 1747 
Q 353 2603 823 3093 
Q 1294 3584 2113 3584 
Q 2378 3584 2631 3529 
Q 2884 3475 3122 3366 
z
" transform="scale(0.015625)"/>
       <path id="DejaVuSans-67" d="M 2906 1791 
Q 2906 2416 2648 2759 
Q 2391 3103 1925 3103 
Q 1463 3103 1205 2759 
Q 947 2416 947 1791 
Q 947 1169 1205 825 
Q 1463 481 1925 481 
Q 2391 481 2648 825 
Q 2906 1169 2906 1791 
z
M 3481 434 
Q 3481 -459 3084 -895 
Q 2688 -1331 1869 -1331 
Q 1566 -1331 1297 -1286 
Q 1028 -1241 775 -1147 
L 775 -588 
Q 1028 -725 1275 -790 
Q 1522 -856 1778 -856 
Q 2344 -856 2625 -561 
Q 2906 -266 2906 331 
L 2906 616 
Q 2728 306 2450 153 
Q 2172 0 1784 0 
Q 1141 0 747 490 
Q 353 981 353 1791 
Q 353 2603 747 3093 
Q 1141 3584 1784 3584 
Q 2172 3584 2450 3431 
Q 2728 3278 2906 2969 
L 2906 3500 
L 3481 3500 
L 3481 434 
z
" transform="scale(0.015625)"/>
       <path id="DejaVuSans-5b" d="M 550 4863 
L 1875 4863 
L 1875 4416 
L 1125 4416 
L 1125 -397 
L 1875 -397 
L 1875 -844 
L 550 -844 
L 550 4863 
z
" transform="scale(0.015625)"/>
       <path id="DejaVuSans-25" d="M 4653 2053 
Q 4381 2053 4226 1822 
Q 4072 1591 4072 1178 
Q 4072 772 4226 539 
Q 4381 306 4653 306 
Q 4919 306 5073 539 
Q 5228 772 5228 1178 
Q 5228 1588 5073 1820 
Q 4919 2053 4653 2053 
z
M 4653 2450 
Q 5147 2450 5437 2106 
Q 5728 1763 5728 1178 
Q 5728 594 5436 251 
Q 5144 -91 4653 -91 
Q 4153 -91 3862 251 
Q 3572 594 3572 1178 
Q 3572 1766 3864 2108 
Q 4156 2450 4653 2450 
z
M 1428 4353 
Q 1159 4353 1004 4120 
Q 850 3888 850 3481 
Q 850 3069 1003 2837 
Q 1156 2606 1428 2606 
Q 1700 2606 1854 2837 
Q 2009 3069 2009 3481 
Q 2009 3884 1853 4118 
Q 1697 4353 1428 4353 
z
M 4250 4750 
L 4750 4750 
L 1831 -91 
L 1331 -91 
L 4250 4750 
z
M 1428 4750 
Q 1922 4750 2215 4408 
Q 2509 4066 2509 3481 
Q 2509 2891 2217 2550 
Q 1925 2209 1428 2209 
Q 931 2209 642 2551 
Q 353 2894 353 3481 
Q 353 4063 643 4406 
Q 934 4750 1428 4750 
z
" transform="scale(0.015625)"/>
       <path id="DejaVuSans-5d" d="M 1947 4863 
L 1947 -844 
L 622 -844 
L 622 -397 
L 1369 -397 
L 1369 4416 
L 622 4416 
L 622 4863 
L 1947 4863 
z
" transform="scale(0.015625)"/>
      </defs>
      <use xlink:href="#DejaVuSans-57"/>
      <use xlink:href="#DejaVuSans-61" x="92.501953"/>
      <use xlink:href="#DejaVuSans-74" x="153.78125"/>
      <use xlink:href="#DejaVuSans-65" x="192.990234"/>
      <use xlink:href="#DejaVuSans-72" x="254.513672"/>
      <use xlink:href="#DejaVuSans-20" x="295.626953"/>
      <use xlink:href="#DejaVuSans-50" x="327.414062"/>
      <use xlink:href="#DejaVuSans-65" x="384.091797"/>
      <use xlink:href="#DejaVuSans-72" x="445.615234"/>
      <use xlink:href="#DejaVuSans-63" x="484.478516"/>
      <use xlink:href="#DejaVuSans-65" x="539.458984"/>
      <use xlink:href="#DejaVuSans-6e" x="600.982422"/>
      <use xlink:href="#DejaVuSans-74" x="664.361328"/>
      <use xlink:href="#DejaVuSans-61" x="703.570312"/>
      <use xlink:href="#DejaVuSans-67" x="764.849609"/>
      <use xlink:href="#DejaVuSans-65" x="828.326172"/>
      <use xlink:href="#DejaVuSans-20" x="889.849609"/>
      <use xlink:href="#DejaVuSans-5b" x="921.636719"/>
      <use xlink:href="#DejaVuSans-25" x="960.650391"/>
      <use xlink:href="#DejaVuSans-5d" x="1055.669922"/>
     </g>
    </g>
   </g>
   <g id="line2d_37">
    <path d="M 108.604818 373.275341 
L 116.680802 499.981668 
L 120.718794 338.07914 
L 124.756786 364.476291 
L 128.794777 311.681988 
L 132.832769 407.063695 
L 136.870761 341.59876 
L 140.908753 312.268591 
L 144.946745 319.307832 
L 148.984737 340.425553 
L 153.022729 397.208759 
L 157.06072 389.700236 
L 161.098712 313.441798 
L 165.136704 297.251545 
L 169.174696 357.437051 
L 173.212688 311.681988 
L 177.25068 260.647495 
L 181.288672 229.674838 
L 185.326664 211.372813 
L 189.364655 244.809204 
L 193.402647 237.769964 
L 197.440639 262.993909 
L 201.478631 316.961418 
L 205.516623 276.485786 
L 209.554615 278.245596 
L 213.592607 285.284837 
L 217.630598 284.580913 
L 221.66859 262.993909 
L 225.706582 312.268591 
L 229.744574 352.15762 
L 233.782566 320.481039 
L 237.820558 305.698634 
L 241.85855 288.804457 
L 245.896541 301.47509 
L 249.934533 244.222601 
L 253.972525 301.123128 
L 258.010517 349.811207 
L 262.048509 315.55357 
L 266.086501 307.575765 
L 270.124493 271.206356 
L 274.162484 325.760469 
L 278.200476 340.425553 
L 282.238468 367.995911 
L 286.27646 338.07914 
L 290.314452 369.755721 
L 294.352444 415.510784 
L 298.390436 324.000659 
L 302.428427 362.716481 
L 306.466419 364.476291 
L 310.504411 411.991164 
L 314.542403 366.236101 
L 318.580395 383.834202 
L 322.618387 379.141375 
L 326.656379 360.202466 
L 330.69437 339.252346 
L 334.732362 331.039899 
L 338.770354 342.302684 
L 342.808346 326.347072 
L 346.846338 356.381165 
L 350.88433 370.928928 
L 354.922322 352.15762 
L 358.960313 345.11838 
L 362.998305 450.706986 
L 367.036297 431.935678 
L 371.074289 366.236101 
L 375.112281 371.867493 
L 379.150273 363.219284 
L 383.188265 408.471543 
L 387.226256 422.550024 
L 391.264248 382.660995 
L 395.30224 391.577366 
L 399.340232 365.062894 
L 403.378224 302.882938 
L 407.416216 360.956671 
L 411.454208 349.811207 
L 415.492199 357.437051 
L 419.530191 298.190111 
L 423.568183 345.11838 
L 427.606175 302.882938 
L 431.644167 244.809204 
L 439.720151 331.039899 
L 443.758142 322.592811 
L 447.796134 280.59201 
L 451.834126 352.15762 
L 472.024085 345.11838 
L 476.062077 347.464793 
L 480.100069 403.192113 
L 484.138061 363.889688 
L 488.176053 422.550024 
L 504.32802 387.353822 
L 508.366012 436.628505 
L 512.404004 373.275341 
L 540.669947 411.991164 
L 544.707939 454.226606 
L 548.745931 427.242851 
L 552.783923 387.353822 
L 556.821915 324.000659 
L 560.859906 338.07914 
L 564.897898 411.991164 
L 568.93589 369.755721 
L 572.973882 422.550024 
L 577.011874 348.638 
L 581.049866 415.510784 
L 585.087858 417.857197 
L 601.239825 422.550024 
L 605.277817 443.667745 
L 609.315809 436.628505 
L 613.353801 369.755721 
L 617.391792 485.903188 
L 637.581752 471.824707 
L 681.999662 415.510784 
L 702.189621 429.589265 
L 706.227613 415.510784 
L 714.303597 450.706986 
L 726.417573 401.432303 
L 778.911467 485.903188 
L 912.165198 204.333572 
L 916.20319 169.13737 
L 920.241182 132.181358 
" clip-path="url(#p2f21d63fb2)" style="fill: none; stroke: #0000ff; stroke-width: 1.5; stroke-linecap: square"/>
    <defs>
     <path id="mb93668cc77" d="M 0 -3 
L -0.673542 -0.927051 
L -2.85317 -0.927051 
L -1.089814 0.354102 
L -1.763356 2.427051 
L -0 1.145898 
L 1.763356 2.427051 
L 1.089814 0.354102 
L 2.85317 -0.927051 
L 0.673542 -0.927051 
z
" style="stroke: #0000ff; stroke-linejoin: bevel"/>
    </defs>
    <g clip-path="url(#p2f21d63fb2)">
     <use xlink:href="#mb93668cc77" x="108.604818" y="373.275341" style="fill: #0000ff; stroke: #0000ff; stroke-linejoin: bevel"/>
     <use xlink:href="#mb93668cc77" x="116.680802" y="499.981668" style="fill: #0000ff; stroke: #0000ff; stroke-linejoin: bevel"/>
     <use xlink:href="#mb93668cc77" x="120.718794" y="338.07914" style="fill: #0000ff; stroke: #0000ff; stroke-linejoin: bevel"/>
     <use xlink:href="#mb93668cc77" x="124.756786" y="364.476291" style="fill: #0000ff; stroke: #0000ff; stroke-linejoin: bevel"/>
     <use xlink:href="#mb93668cc77" x="128.794777" y="311.681988" style="fill: #0000ff; stroke: #0000ff; stroke-linejoin: bevel"/>
     <use xlink:href="#mb93668cc77" x="132.832769" y="407.063695" style="fill: #0000ff; stroke: #0000ff; stroke-linejoin: bevel"/>
     <use xlink:href="#mb93668cc77" x="136.870761" y="341.59876" style="fill: #0000ff; stroke: #0000ff; stroke-linejoin: bevel"/>
     <use xlink:href="#mb93668cc77" x="140.908753" y="312.268591" style="fill: #0000ff; stroke: #0000ff; stroke-linejoin: bevel"/>
     <use xlink:href="#mb93668cc77" x="144.946745" y="319.307832" style="fill: #0000ff; stroke: #0000ff; stroke-linejoin: bevel"/>
     <use xlink:href="#mb93668cc77" x="148.984737" y="340.425553" style="fill: #0000ff; stroke: #0000ff; stroke-linejoin: bevel"/>
     <use xlink:href="#mb93668cc77" x="153.022729" y="397.208759" style="fill: #0000ff; stroke: #0000ff; stroke-linejoin: bevel"/>
     <use xlink:href="#mb93668cc77" x="157.06072" y="389.700236" style="fill: #0000ff; stroke: #0000ff; stroke-linejoin: bevel"/>
     <use xlink:href="#mb93668cc77" x="161.098712" y="313.441798" style="fill: #0000ff; stroke: #0000ff; stroke-linejoin: bevel"/>
     <use xlink:href="#mb93668cc77" x="165.136704" y="297.251545" style="fill: #0000ff; stroke: #0000ff; stroke-linejoin: bevel"/>
     <use xlink:href="#mb93668cc77" x="169.174696" y="357.437051" style="fill: #0000ff; stroke: #0000ff; stroke-linejoin: bevel"/>
     <use xlink:href="#mb93668cc77" x="173.212688" y="311.681988" style="fill: #0000ff; stroke: #0000ff; stroke-linejoin: bevel"/>
     <use xlink:href="#mb93668cc77" x="177.25068" y="260.647495" style="fill: #0000ff; stroke: #0000ff; stroke-linejoin: bevel"/>
     <use xlink:href="#mb93668cc77" x="181.288672" y="229.674838" style="fill: #0000ff; stroke: #0000ff; stroke-linejoin: bevel"/>
     <use xlink:href="#mb93668cc77" x="185.326664" y="211.372813" style="fill: #0000ff; stroke: #0000ff; stroke-linejoin: bevel"/>
     <use xlink:href="#mb93668cc77" x="189.364655" y="244.809204" style="fill: #0000ff; stroke: #0000ff; stroke-linejoin: bevel"/>
     <use xlink:href="#mb93668cc77" x="193.402647" y="237.769964" style="fill: #0000ff; stroke: #0000ff; stroke-linejoin: bevel"/>
     <use xlink:href="#mb93668cc77" x="197.440639" y="262.993909" style="fill: #0000ff; stroke: #0000ff; stroke-linejoin: bevel"/>
     <use xlink:href="#mb93668cc77" x="201.478631" y="316.961418" style="fill: #0000ff; stroke: #0000ff; stroke-linejoin: bevel"/>
     <use xlink:href="#mb93668cc77" x="205.516623" y="276.485786" style="fill: #0000ff; stroke: #0000ff; stroke-linejoin: bevel"/>
     <use xlink:href="#mb93668cc77" x="209.554615" y="278.245596" style="fill: #0000ff; stroke: #0000ff; stroke-linejoin: bevel"/>
     <use xlink:href="#mb93668cc77" x="213.592607" y="285.284837" style="fill: #0000ff; stroke: #0000ff; stroke-linejoin: bevel"/>
     <use xlink:href="#mb93668cc77" x="217.630598" y="284.580913" style="fill: #0000ff; stroke: #0000ff; stroke-linejoin: bevel"/>
     <use xlink:href="#mb93668cc77" x="221.66859" y="262.993909" style="fill: #0000ff; stroke: #0000ff; stroke-linejoin: bevel"/>
     <use xlink:href="#mb93668cc77" x="225.706582" y="312.268591" style="fill: #0000ff; stroke: #0000ff; stroke-linejoin: bevel"/>
     <use xlink:href="#mb93668cc77" x="229.744574" y="352.15762" style="fill: #0000ff; stroke: #0000ff; stroke-linejoin: bevel"/>
     <use xlink:href="#mb93668cc77" x="233.782566" y="320.481039" style="fill: #0000ff; stroke: #0000ff; stroke-linejoin: bevel"/>
     <use xlink:href="#mb93668cc77" x="237.820558" y="305.698634" style="fill: #0000ff; stroke: #0000ff; stroke-linejoin: bevel"/>
     <use xlink:href="#mb93668cc77" x="241.85855" y="288.804457" style="fill: #0000ff; stroke: #0000ff; stroke-linejoin: bevel"/>
     <use xlink:href="#mb93668cc77" x="245.896541" y="301.47509" style="fill: #0000ff; stroke: #0000ff; stroke-linejoin: bevel"/>
     <use xlink:href="#mb93668cc77" x="249.934533" y="244.222601" style="fill: #0000ff; stroke: #0000ff; stroke-linejoin: bevel"/>
     <use xlink:href="#mb93668cc77" x="253.972525" y="301.123128" style="fill: #0000ff; stroke: #0000ff; stroke-linejoin: bevel"/>
     <use xlink:href="#mb93668cc77" x="258.010517" y="349.811207" style="fill: #0000ff; stroke: #0000ff; stroke-linejoin: bevel"/>
     <use xlink:href="#mb93668cc77" x="262.048509" y="315.55357" style="fill: #0000ff; stroke: #0000ff; stroke-linejoin: bevel"/>
     <use xlink:href="#mb93668cc77" x="266.086501" y="307.575765" style="fill: #0000ff; stroke: #0000ff; stroke-linejoin: bevel"/>
     <use xlink:href="#mb93668cc77" x="270.124493" y="271.206356" style="fill: #0000ff; stroke: #0000ff; stroke-linejoin: bevel"/>
     <use xlink:href="#mb93668cc77" x="274.162484" y="325.760469" style="fill: #0000ff; stroke: #0000ff; stroke-linejoin: bevel"/>
     <use xlink:href="#mb93668cc77" x="278.200476" y="340.425553" style="fill: #0000ff; stroke: #0000ff; stroke-linejoin: bevel"/>
     <use xlink:href="#mb93668cc77" x="282.238468" y="367.995911" style="fill: #0000ff; stroke: #0000ff; stroke-linejoin: bevel"/>
     <use xlink:href="#mb93668cc77" x="286.27646" y="338.07914" style="fill: #0000ff; stroke: #0000ff; stroke-linejoin: bevel"/>
     <use xlink:href="#mb93668cc77" x="290.314452" y="369.755721" style="fill: #0000ff; stroke: #0000ff; stroke-linejoin: bevel"/>
     <use xlink:href="#mb93668cc77" x="294.352444" y="415.510784" style="fill: #0000ff; stroke: #0000ff; stroke-linejoin: bevel"/>
     <use xlink:href="#mb93668cc77" x="298.390436" y="324.000659" style="fill: #0000ff; stroke: #0000ff; stroke-linejoin: bevel"/>
     <use xlink:href="#mb93668cc77" x="302.428427" y="362.716481" style="fill: #0000ff; stroke: #0000ff; stroke-linejoin: bevel"/>
     <use xlink:href="#mb93668cc77" x="306.466419" y="364.476291" style="fill: #0000ff; stroke: #0000ff; stroke-linejoin: bevel"/>
     <use xlink:href="#mb93668cc77" x="310.504411" y="411.991164" style="fill: #0000ff; stroke: #0000ff; stroke-linejoin: bevel"/>
     <use xlink:href="#mb93668cc77" x="314.542403" y="366.236101" style="fill: #0000ff; stroke: #0000ff; stroke-linejoin: bevel"/>
     <use xlink:href="#mb93668cc77" x="318.580395" y="383.834202" style="fill: #0000ff; stroke: #0000ff; stroke-linejoin: bevel"/>
     <use xlink:href="#mb93668cc77" x="322.618387" y="379.141375" style="fill: #0000ff; stroke: #0000ff; stroke-linejoin: bevel"/>
     <use xlink:href="#mb93668cc77" x="326.656379" y="360.202466" style="fill: #0000ff; stroke: #0000ff; stroke-linejoin: bevel"/>
     <use xlink:href="#mb93668cc77" x="330.69437" y="339.252346" style="fill: #0000ff; stroke: #0000ff; stroke-linejoin: bevel"/>
     <use xlink:href="#mb93668cc77" x="334.732362" y="331.039899" style="fill: #0000ff; stroke: #0000ff; stroke-linejoin: bevel"/>
     <use xlink:href="#mb93668cc77" x="338.770354" y="342.302684" style="fill: #0000ff; stroke: #0000ff; stroke-linejoin: bevel"/>
     <use xlink:href="#mb93668cc77" x="342.808346" y="326.347072" style="fill: #0000ff; stroke: #0000ff; stroke-linejoin: bevel"/>
     <use xlink:href="#mb93668cc77" x="346.846338" y="356.381165" style="fill: #0000ff; stroke: #0000ff; stroke-linejoin: bevel"/>
     <use xlink:href="#mb93668cc77" x="350.88433" y="370.928928" style="fill: #0000ff; stroke: #0000ff; stroke-linejoin: bevel"/>
     <use xlink:href="#mb93668cc77" x="354.922322" y="352.15762" style="fill: #0000ff; stroke: #0000ff; stroke-linejoin: bevel"/>
     <use xlink:href="#mb93668cc77" x="358.960313" y="345.11838" style="fill: #0000ff; stroke: #0000ff; stroke-linejoin: bevel"/>
     <use xlink:href="#mb93668cc77" x="362.998305" y="450.706986" style="fill: #0000ff; stroke: #0000ff; stroke-linejoin: bevel"/>
     <use xlink:href="#mb93668cc77" x="367.036297" y="431.935678" style="fill: #0000ff; stroke: #0000ff; stroke-linejoin: bevel"/>
     <use xlink:href="#mb93668cc77" x="371.074289" y="366.236101" style="fill: #0000ff; stroke: #0000ff; stroke-linejoin: bevel"/>
     <use xlink:href="#mb93668cc77" x="375.112281" y="371.867493" style="fill: #0000ff; stroke: #0000ff; stroke-linejoin: bevel"/>
     <use xlink:href="#mb93668cc77" x="379.150273" y="363.219284" style="fill: #0000ff; stroke: #0000ff; stroke-linejoin: bevel"/>
     <use xlink:href="#mb93668cc77" x="383.188265" y="408.471543" style="fill: #0000ff; stroke: #0000ff; stroke-linejoin: bevel"/>
     <use xlink:href="#mb93668cc77" x="387.226256" y="422.550024" style="fill: #0000ff; stroke: #0000ff; stroke-linejoin: bevel"/>
     <use xlink:href="#mb93668cc77" x="391.264248" y="382.660995" style="fill: #0000ff; stroke: #0000ff; stroke-linejoin: bevel"/>
     <use xlink:href="#mb93668cc77" x="395.30224" y="391.577366" style="fill: #0000ff; stroke: #0000ff; stroke-linejoin: bevel"/>
     <use xlink:href="#mb93668cc77" x="399.340232" y="365.062894" style="fill: #0000ff; stroke: #0000ff; stroke-linejoin: bevel"/>
     <use xlink:href="#mb93668cc77" x="403.378224" y="302.882938" style="fill: #0000ff; stroke: #0000ff; stroke-linejoin: bevel"/>
     <use xlink:href="#mb93668cc77" x="407.416216" y="360.956671" style="fill: #0000ff; stroke: #0000ff; stroke-linejoin: bevel"/>
     <use xlink:href="#mb93668cc77" x="411.454208" y="349.811207" style="fill: #0000ff; stroke: #0000ff; stroke-linejoin: bevel"/>
     <use xlink:href="#mb93668cc77" x="415.492199" y="357.437051" style="fill: #0000ff; stroke: #0000ff; stroke-linejoin: bevel"/>
     <use xlink:href="#mb93668cc77" x="419.530191" y="298.190111" style="fill: #0000ff; stroke: #0000ff; stroke-linejoin: bevel"/>
     <use xlink:href="#mb93668cc77" x="423.568183" y="345.11838" style="fill: #0000ff; stroke: #0000ff; stroke-linejoin: bevel"/>
     <use xlink:href="#mb93668cc77" x="427.606175" y="302.882938" style="fill: #0000ff; stroke: #0000ff; stroke-linejoin: bevel"/>
     <use xlink:href="#mb93668cc77" x="431.644167" y="244.809204" style="fill: #0000ff; stroke: #0000ff; stroke-linejoin: bevel"/>
     <use xlink:href="#mb93668cc77" x="439.720151" y="331.039899" style="fill: #0000ff; stroke: #0000ff; stroke-linejoin: bevel"/>
     <use xlink:href="#mb93668cc77" x="443.758142" y="322.592811" style="fill: #0000ff; stroke: #0000ff; stroke-linejoin: bevel"/>
     <use xlink:href="#mb93668cc77" x="447.796134" y="280.59201" style="fill: #0000ff; stroke: #0000ff; stroke-linejoin: bevel"/>
     <use xlink:href="#mb93668cc77" x="451.834126" y="352.15762" style="fill: #0000ff; stroke: #0000ff; stroke-linejoin: bevel"/>
     <use xlink:href="#mb93668cc77" x="472.024085" y="345.11838" style="fill: #0000ff; stroke: #0000ff; stroke-linejoin: bevel"/>
     <use xlink:href="#mb93668cc77" x="476.062077" y="347.464793" style="fill: #0000ff; stroke: #0000ff; stroke-linejoin: bevel"/>
     <use xlink:href="#mb93668cc77" x="480.100069" y="403.192113" style="fill: #0000ff; stroke: #0000ff; stroke-linejoin: bevel"/>
     <use xlink:href="#mb93668cc77" x="484.138061" y="363.889688" style="fill: #0000ff; stroke: #0000ff; stroke-linejoin: bevel"/>
     <use xlink:href="#mb93668cc77" x="488.176053" y="422.550024" style="fill: #0000ff; stroke: #0000ff; stroke-linejoin: bevel"/>
     <use xlink:href="#mb93668cc77" x="504.32802" y="387.353822" style="fill: #0000ff; stroke: #0000ff; stroke-linejoin: bevel"/>
     <use xlink:href="#mb93668cc77" x="508.366012" y="436.628505" style="fill: #0000ff; stroke: #0000ff; stroke-linejoin: bevel"/>
     <use xlink:href="#mb93668cc77" x="512.404004" y="373.275341" style="fill: #0000ff; stroke: #0000ff; stroke-linejoin: bevel"/>
     <use xlink:href="#mb93668cc77" x="540.669947" y="411.991164" style="fill: #0000ff; stroke: #0000ff; stroke-linejoin: bevel"/>
     <use xlink:href="#mb93668cc77" x="544.707939" y="454.226606" style="fill: #0000ff; stroke: #0000ff; stroke-linejoin: bevel"/>
     <use xlink:href="#mb93668cc77" x="548.745931" y="427.242851" style="fill: #0000ff; stroke: #0000ff; stroke-linejoin: bevel"/>
     <use xlink:href="#mb93668cc77" x="552.783923" y="387.353822" style="fill: #0000ff; stroke: #0000ff; stroke-linejoin: bevel"/>
     <use xlink:href="#mb93668cc77" x="556.821915" y="324.000659" style="fill: #0000ff; stroke: #0000ff; stroke-linejoin: bevel"/>
     <use xlink:href="#mb93668cc77" x="560.859906" y="338.07914" style="fill: #0000ff; stroke: #0000ff; stroke-linejoin: bevel"/>
     <use xlink:href="#mb93668cc77" x="564.897898" y="411.991164" style="fill: #0000ff; stroke: #0000ff; stroke-linejoin: bevel"/>
     <use xlink:href="#mb93668cc77" x="568.93589" y="369.755721" style="fill: #0000ff; stroke: #0000ff; stroke-linejoin: bevel"/>
     <use xlink:href="#mb93668cc77" x="572.973882" y="422.550024" style="fill: #0000ff; stroke: #0000ff; stroke-linejoin: bevel"/>
     <use xlink:href="#mb93668cc77" x="577.011874" y="348.638" style="fill: #0000ff; stroke: #0000ff; stroke-linejoin: bevel"/>
     <use xlink:href="#mb93668cc77" x="581.049866" y="415.510784" style="fill: #0000ff; stroke: #0000ff; stroke-linejoin: bevel"/>
     <use xlink:href="#mb93668cc77" x="585.087858" y="417.857197" style="fill: #0000ff; stroke: #0000ff; stroke-linejoin: bevel"/>
     <use xlink:href="#mb93668cc77" x="601.239825" y="422.550024" style="fill: #0000ff; stroke: #0000ff; stroke-linejoin: bevel"/>
     <use xlink:href="#mb93668cc77" x="605.277817" y="443.667745" style="fill: #0000ff; stroke: #0000ff; stroke-linejoin: bevel"/>
     <use xlink:href="#mb93668cc77" x="609.315809" y="436.628505" style="fill: #0000ff; stroke: #0000ff; stroke-linejoin: bevel"/>
     <use xlink:href="#mb93668cc77" x="613.353801" y="369.755721" style="fill: #0000ff; stroke: #0000ff; stroke-linejoin: bevel"/>
     <use xlink:href="#mb93668cc77" x="617.391792" y="485.903188" style="fill: #0000ff; stroke: #0000ff; stroke-linejoin: bevel"/>
     <use xlink:href="#mb93668cc77" x="637.581752" y="471.824707" style="fill: #0000ff; stroke: #0000ff; stroke-linejoin: bevel"/>
     <use xlink:href="#mb93668cc77" x="681.999662" y="415.510784" style="fill: #0000ff; stroke: #0000ff; stroke-linejoin: bevel"/>
     <use xlink:href="#mb93668cc77" x="702.189621" y="429.589265" style="fill: #0000ff; stroke: #0000ff; stroke-linejoin: bevel"/>
     <use xlink:href="#mb93668cc77" x="706.227613" y="415.510784" style="fill: #0000ff; stroke: #0000ff; stroke-linejoin: bevel"/>
     <use xlink:href="#mb93668cc77" x="714.303597" y="450.706986" style="fill: #0000ff; stroke: #0000ff; stroke-linejoin: bevel"/>
     <use xlink:href="#mb93668cc77" x="726.417573" y="401.432303" style="fill: #0000ff; stroke: #0000ff; stroke-linejoin: bevel"/>
     <use xlink:href="#mb93668cc77" x="778.911467" y="485.903188" style="fill: #0000ff; stroke: #0000ff; stroke-linejoin: bevel"/>
     <use xlink:href="#mb93668cc77" x="912.165198" y="204.333572" style="fill: #0000ff; stroke: #0000ff; stroke-linejoin: bevel"/>
     <use xlink:href="#mb93668cc77" x="916.20319" y="169.13737" style="fill: #0000ff; stroke: #0000ff; stroke-linejoin: bevel"/>
     <use xlink:href="#mb93668cc77" x="920.241182" y="132.181358" style="fill: #0000ff; stroke: #0000ff; stroke-linejoin: bevel"/>
    </g>
   </g>
   <g id="patch_3">
    <path d="M 68.023 622.6035 
L 68.023 35.0835 
" style="fill: none; stroke: #000000; stroke-width: 0.8; stroke-linejoin: miter; stroke-linecap: square"/>
   </g>
   <g id="patch_4">
    <path d="M 960.823 622.6035 
L 960.823 35.0835 
" style="fill: none; stroke: #000000; stroke-width: 0.8; stroke-linejoin: miter; stroke-linecap: square"/>
   </g>
   <g id="patch_5">
    <path d="M 68.023 622.6035 
L 960.823 622.6035 
" style="fill: none; stroke: #000000; stroke-width: 0.8; stroke-linejoin: miter; stroke-linecap: square"/>
   </g>
   <g id="patch_6">
    <path d="M 68.023 35.0835 
L 960.823 35.0835 
" style="fill: none; stroke: #000000; stroke-width: 0.8; stroke-linejoin: miter; stroke-linecap: square"/>
   </g>
   <g id="text_20">
    <!-- Body Water Percentage -->
    <g transform="translate(345.35125 29.0835) scale(0.288 -0.288)">
     <defs>
      <path id="DejaVuSans-42" d="M 1259 2228 
L 1259 519 
L 2272 519 
Q 2781 519 3026 730 
Q 3272 941 3272 1375 
Q 3272 1813 3026 2020 
Q 2781 2228 2272 2228 
L 1259 2228 
z
M 1259 4147 
L 1259 2741 
L 2194 2741 
Q 2656 2741 2882 2914 
Q 3109 3088 3109 3444 
Q 3109 3797 2882 3972 
Q 2656 4147 2194 4147 
L 1259 4147 
z
M 628 4666 
L 2241 4666 
Q 2963 4666 3353 4366 
Q 3744 4066 3744 3513 
Q 3744 3084 3544 2831 
Q 3344 2578 2956 2516 
Q 3422 2416 3680 2098 
Q 3938 1781 3938 1306 
Q 3938 681 3513 340 
Q 3088 0 2303 0 
L 628 0 
L 628 4666 
z
" transform="scale(0.015625)"/>
      <path id="DejaVuSans-6f" d="M 1959 3097 
Q 1497 3097 1228 2736 
Q 959 2375 959 1747 
Q 959 1119 1226 758 
Q 1494 397 1959 397 
Q 2419 397 2687 759 
Q 2956 1122 2956 1747 
Q 2956 2369 2687 2733 
Q 2419 3097 1959 3097 
z
M 1959 3584 
Q 2709 3584 3137 3096 
Q 3566 2609 3566 1747 
Q 3566 888 3137 398 
Q 2709 -91 1959 -91 
Q 1206 -91 779 398 
Q 353 888 353 1747 
Q 353 2609 779 3096 
Q 1206 3584 1959 3584 
z
" transform="scale(0.015625)"/>
      <path id="DejaVuSans-64" d="M 2906 2969 
L 2906 4863 
L 3481 4863 
L 3481 0 
L 2906 0 
L 2906 525 
Q 2725 213 2448 61 
Q 2172 -91 1784 -91 
Q 1150 -91 751 415 
Q 353 922 353 1747 
Q 353 2572 751 3078 
Q 1150 3584 1784 3584 
Q 2172 3584 2448 3432 
Q 2725 3281 2906 2969 
z
M 947 1747 
Q 947 1113 1208 752 
Q 1469 391 1925 391 
Q 2381 391 2643 752 
Q 2906 1113 2906 1747 
Q 2906 2381 2643 2742 
Q 2381 3103 1925 3103 
Q 1469 3103 1208 2742 
Q 947 2381 947 1747 
z
" transform="scale(0.015625)"/>
      <path id="DejaVuSans-79" d="M 2059 -325 
Q 1816 -950 1584 -1140 
Q 1353 -1331 966 -1331 
L 506 -1331 
L 506 -850 
L 844 -850 
Q 1081 -850 1212 -737 
Q 1344 -625 1503 -206 
L 1606 56 
L 191 3500 
L 800 3500 
L 1894 763 
L 2988 3500 
L 3597 3500 
L 2059 -325 
z
" transform="scale(0.015625)"/>
     </defs>
     <use xlink:href="#DejaVuSans-42"/>
     <use xlink:href="#DejaVuSans-6f" x="68.603516"/>
     <use xlink:href="#DejaVuSans-64" x="129.785156"/>
     <use xlink:href="#DejaVuSans-79" x="193.261719"/>
     <use xlink:href="#DejaVuSans-20" x="252.441406"/>
     <use xlink:href="#DejaVuSans-57" x="284.228516"/>
     <use xlink:href="#DejaVuSans-61" x="376.730469"/>
     <use xlink:href="#DejaVuSans-74" x="438.009766"/>
     <use xlink:href="#DejaVuSans-65" x="477.21875"/>
     <use xlink:href="#DejaVuSans-72" x="538.742188"/>
     <use xlink:href="#DejaVuSans-20" x="579.855469"/>
     <use xlink:href="#DejaVuSans-50" x="611.642578"/>
     <use xlink:href="#DejaVuSans-65" x="668.320312"/>
     <use xlink:href="#DejaVuSans-72" x="729.84375"/>
     <use xlink:href="#DejaVuSans-63" x="768.707031"/>
     <use xlink:href="#DejaVuSans-65" x="823.6875"/>
     <use xlink:href="#DejaVuSans-6e" x="885.210938"/>
     <use xlink:href="#DejaVuSans-74" x="948.589844"/>
     <use xlink:href="#DejaVuSans-61" x="987.798828"/>
     <use xlink:href="#DejaVuSans-67" x="1049.078125"/>
     <use xlink:href="#DejaVuSans-65" x="1112.554688"/>
    </g>
   </g>
  </g>
 </g>
 <defs>
  <clipPath id="p2f21d63fb2">
   <rect x="68.023" y="35.0835" width="892.8" height="587.52"/>
  </clipPath>
 </defs>
</svg>
